<svg width="337" height="401" viewBox="0 0 337 401" fill="none" xmlns="http://www.w3.org/2000/svg">
<path fill-rule="evenodd" clip-rule="evenodd" d="M197.021 15.0046C192.587 28.0372 175.856 30.0182 164.021 28.8341C136.359 26.0663 118.794 2.05958 89.5215 14.0046C94.559 3.6722 109.583 0.274312 120.021 0.0191875C146.249 -0.621688 170.126 15.0046 197.021 15.0046Z" fill="#AA3C28"/>
<path fill-rule="evenodd" clip-rule="evenodd" d="M190.021 24.0046C163.701 43.7072 182.521 33.0046 158.021 33.0046C149.159 30.6812 97.5365 12.4877 89.0215 14.5046C106.539 -3.18267 132.038 17.7947 149.021 24.5548C164.116 30.5628 175.239 29.0448 190.021 24.0046Z" fill="#B9614E"/>
<path fill-rule="evenodd" clip-rule="evenodd" d="M87.0215 17.5046C97.5215 38.0046 138.643 43.108 159.521 44.0046L157.021 46.0046C145.556 46.0046 134.341 45.5826 123.021 43.5416C115.946 42.2659 107.199 39.4216 100.021 40.5046C100.021 36.966 95.6815 37.4318 93.0215 35.6713C88.8802 32.9299 88.479 27.7212 85.0215 25.0046C86.6915 22.8211 85.9377 19.9845 87.0215 17.5046Z" fill="#B9614E"/>
<path fill-rule="evenodd" clip-rule="evenodd" d="M184.521 28.0046C192.521 26.0046 193.021 27.0046 196.521 27.0046C181.849 37.514 186.525 57.7776 181.021 74.0046H180.021C178.349 63.6086 180.995 51.0486 180.521 40.0046C158.219 49.0927 131.155 45.5498 109.021 36.4614C104.065 34.4263 80.1827 23.0088 88.5215 15.0045C95.9215 7.90105 114.05 12.4423 122.021 15.8557C139.35 23.2768 154.179 33.6023 174.021 31.9104C178.6 31.5199 180.521 30.0045 184.521 28.0046Z" fill="#AA3C28"/>
<path fill-rule="evenodd" clip-rule="evenodd" d="M86.0215 23.5046C88.304 31.1893 96.3877 37.9028 104.021 39.5046C96.5202 55.3653 92.7627 72.3666 90.5215 90.0046H88.0215C87.694 82.4821 86.799 64.4046 78.0215 63.0046C76.3077 50.2748 68.0215 26.0046 86.0215 23.5046Z" fill="#AA3C28"/>
<path d="M114.021 139.505L144.021 140.005L145.521 148.005L113.021 145.005L114.021 139.505Z" fill="#4C7B9E"/>
<path fill-rule="evenodd" clip-rule="evenodd" d="M180.521 40.0045C178.521 44.7191 164.884 49.2703 155.521 50.2072C137.86 51.9742 120.26 47.4265 102.521 47.3777C101.129 57.7117 97.529 67.8367 97.529 78.3777C97.529 105.32 114.103 133.42 143.521 136.005C143.521 142.505 141.519 158.596 143.521 167.005L110.021 169.005L114.521 140.378C116.089 137.14 116.663 133.858 117.521 130.378C106.346 125.061 94.354 112.725 91.5215 100.378C78.924 100.074 67.4552 82.6414 72.264 70.3927C78.6277 54.1809 86.2977 69.5897 87.5215 76.3777L90.0215 84.8777C93.0215 74.8776 94.1915 67.9437 96.0977 57.3777C96.9577 52.6053 96.809 46.3923 100.094 42.5265C104.451 37.399 111.103 41.1698 116.521 42.0046C132.138 44.4104 146.651 47.1609 162.521 44.5045C167.274 43.709 178.021 41.0045 180.521 40.0045Z" fill="#DAAA85"/>
<path fill-rule="evenodd" clip-rule="evenodd" d="M180.521 40.0046C181.521 45.0046 180.521 55.2745 180.521 60.0046C178.924 80.0721 190.848 98.4158 178.929 117.99C162.801 144.471 122.96 140.567 107.35 116.005C91.5212 96.0046 96.0212 70.0046 102.021 46.5046L120.021 48.0046C123.41 47.7506 132.521 49.0046 138.021 50.0046C153.494 50.0046 166.811 47.5996 180.521 40.0046Z" fill="#EABB95"/>
<path fill-rule="evenodd" clip-rule="evenodd" d="M138.756 54.3608C138.756 54.3608 139.521 56.5046 136.021 55.9337C132.777 55.5005 129.283 54.2376 126.021 54.9726C120.783 56.1536 117.024 59.174 111.792 59.8665C111.221 59.9421 109.962 60.0046 110.194 59.0046C112.733 48.0696 135.616 42.8502 138.756 54.3608Z" fill="#AA3C28"/>
<path fill-rule="evenodd" clip-rule="evenodd" d="M179.385 59.4253C179.53 60.9282 177.865 61.0418 177.159 60.839C171.04 57.4122 170.23 55.8218 161.885 56.4165C159.885 56.9165 156.408 56.521 157.521 54.0046C164.021 47.0046 178.521 50.5046 179.385 59.4253Z" fill="#AA3C28"/>
<path fill-rule="evenodd" clip-rule="evenodd" d="M177.021 88.0045C174.453 87.2658 168.521 83.5046 158.021 86.5046C154.021 60.5046 166.129 57.0976 171.746 62.3226C178.227 68.3506 177.021 80.047 177.021 88.0045Z" fill="white"/>
<ellipse rx="6" ry="8" transform="matrix(-1 0 0 1 167.021 76.0046)" fill="black"/>
<ellipse rx="2.5" ry="3" transform="matrix(-1 0 0 1 170.521 73.0046)" fill="white"/>
<path d="M165.021 80.1245C165.021 78.8461 164.121 78.95 163.521 79.0046C162.987 79.5373 162.887 80.1245 163.421 80.6571C163.954 81.0123 165.021 81.4029 165.021 80.1245Z" fill="white" fill-opacity="0.85"/>
<path fill-rule="evenodd" clip-rule="evenodd" d="M177.021 88.0046C170.889 87.4696 164.262 86.5058 158.021 86.5046C165.021 84.0046 171.051 84.9921 177.021 88.0046Z" fill="#DAAA85"/>
<path fill-rule="evenodd" clip-rule="evenodd" d="M140.021 86.0046H128.521L122.771 87.5046L117.021 89.0046C112.521 53.5046 132.87 57.5806 137.105 65.0446C140.726 71.4266 140.021 78.9516 140.021 86.0046Z" fill="white"/>
<ellipse rx="6" ry="8" transform="matrix(-1 0 0 1 128.021 76.0046)" fill="black"/>
<ellipse rx="2.5" ry="3" transform="matrix(-1 0 0 1 123.521 72.0046)" fill="white"/>
<path d="M131.021 80.1526C131.021 78.8742 130.121 78.9781 129.521 79.0327C128.987 79.5654 128.887 80.1526 129.421 80.6853C129.954 81.0404 131.021 81.431 131.021 80.1526Z" fill="white" fill-opacity="0.85"/>
<path fill-rule="evenodd" clip-rule="evenodd" d="M139.521 86.0046C138.021 87.0046 124.021 87.5046 117.021 89.0046C125.521 84.0046 131.928 85.4471 139.521 86.0046Z" fill="#DAAA85"/>
<path fill-rule="evenodd" clip-rule="evenodd" d="M165.021 98.0046C165.021 98.0046 164.521 98.5046 164.021 98.5046C163.469 98.5046 163.021 96.5046 163.021 96.5046C160.521 90.5046 150.021 90.0046 147.521 99.0046C146.521 100.005 148.021 101.005 146.521 98.5046C144.521 88.5046 166.521 86.5046 165.021 98.0046Z" fill="#DAAA85"/>
<ellipse cx="144.153" cy="115.421" rx="7.15566" ry="5.96305" fill="#CD6975"/>
<path d="M138.19 111.843C139.979 109.458 145.346 107.669 150.117 111.843C145.942 113.035 141.768 113.035 138.19 111.843Z" fill="white"/>
<path d="M207.008 249.505C191.808 246.705 172.021 210.505 172.021 203.005L205.508 199.005C212.342 217.005 222.208 252.305 207.008 249.505Z" fill="#DAAA85"/>
<path d="M193.021 242.005C193.021 242.005 191.961 248.651 193.021 249.005C194.521 249.505 197.021 241.005 197.021 241.005L193.021 242.005Z" fill="#4C7B9E"/>
<path fill-rule="evenodd" clip-rule="evenodd" d="M172.021 158.505C183.139 163.597 200.629 182.812 203.601 195.005C204.727 199.622 203.277 205.307 202.932 210.005C202.302 218.6 203.465 228.642 201.631 237.003C200.828 240.662 198.375 245.1 194.025 242.957C194.025 242.957 180.685 225.977 180.021 219.005C178.645 204.546 182.826 169.206 172.021 158.505Z" fill="#568CB4"/>
<path d="M193.021 249.005C193.021 249.005 202.521 250.505 205.021 250.505C206.021 243.005 206.021 233.605 206.021 232.005C206.021 230.405 212.521 222.171 212.521 217.505C209.688 218.005 204.641 219.613 202.521 223.005C200.021 227.005 193.021 249.005 193.021 249.005Z" fill="#5DA4D8"/>
<path d="M229.022 180.005C229.284 178.505 228.731 178.505 229.022 175.5C229.312 172.495 230.866 170.211 232.001 168C233.027 165.999 236.001 160.5 239 157C246.523 143.158 247.501 134 239 134.801C237 130.5 231.501 131.5 231.501 131.5C229.901 127.5 223.333 127.333 222 128C222.701 126.318 222.155 126.123 223.501 122.323C224.501 119.5 225.191 114.549 226.001 110.5C227.001 105.5 226.501 103 223.501 103C221.265 103 219.668 103 218.001 108C217.001 111 214.763 119.118 213.347 122.323L208.501 137.601C207 139 206.651 139.697 206 140.999L206 141C203.75 145.5 203.557 148.757 204.5 153C205 155.25 205.5 160.5 206 163C206.927 167.631 206.522 168.505 206.463 175.005C206.372 185.02 203.783 195.202 203.112 205.005C202.151 219.023 201.622 243.005 204.022 247.005C205.522 249.505 209.052 251.021 212.022 252.115C222.005 255.792 230.122 249.672 232.341 240.005C235.54 226.068 232.863 208.873 230.407 195.005C229.458 189.647 228.008 185.799 229.022 180.005Z" fill="#EABB95"/>
<path d="M221.326 166.505C221.388 167.001 221.326 170.505 220.826 170.005C220.326 169.505 220.826 165.505 219.826 163.005C219.326 161.505 219.362 160.224 218.826 158.505C218.369 157.039 217.326 155.005 216.826 154.505C215.826 153.005 212.462 149.276 212.326 149.005C211.826 148.005 214.626 150.005 215.326 151.005C216.326 152.005 217.326 153.505 218.826 156.005C219.923 158.727 221.13 164.94 221.326 166.505Z" fill="#DAAA85"/>
<path d="M224 148.5C222.8 148.5 223.833 149.167 224.5 149.5C224.653 149.5 225.874 149.957 227.9 150.748L227.697 149.772C226.015 149.003 224.93 148.5 224 148.5Z" fill="#DAAA85"/>
<path d="M234.826 154.505C235.326 154.504 235.022 153.505 234.022 153.005C233.578 152.783 232.758 152.259 231.654 151.655L230.884 152.131C232.481 153.113 234.582 154.505 234.826 154.505Z" fill="#DAAA85"/>
<path d="M214.022 176.005C213.022 175.505 213.022 176.338 214.022 177.005C216.022 178.005 221.065 179.505 222.022 179.505C223.218 179.505 223.584 178.505 221.522 178.505C219.522 178.505 216.258 177.123 214.022 176.005Z" fill="#DAAA85"/>
<path d="M213.81 122.5L209.305 136.701C210.624 136.21 211.966 136.017 213.549 135.79C214.133 135.706 214.751 135.617 215.413 135.507L215.47 135.497L215.528 135.501C215.934 135.528 216.325 135.55 216.706 135.572C217.503 135.617 218.261 135.661 219.044 135.738C221.251 135.958 223.698 136.453 228.162 138.029L228.177 138.034L228.192 138.04C228.57 138.202 228.952 138.412 229.295 138.669L228.995 139.069L229.295 138.669C229.986 139.188 230.597 139.966 230.526 140.97C230.459 141.931 229.776 142.909 228.396 143.892C228.25 144.238 228.145 144.646 228.012 145.214C227.993 145.295 227.974 145.378 227.954 145.465C227.819 146.045 227.655 146.756 227.397 147.64C227.144 148.506 227.261 149.571 227.668 150.493C228.077 151.421 228.736 152.109 229.476 152.333C230.174 152.545 231.093 152.386 232.157 151.298C233.232 150.197 234.404 148.189 235.518 144.85L238.461 134.846C237.537 133.019 235.896 132.293 234.408 132.03C233.642 131.894 232.931 131.885 232.41 131.91C232.151 131.923 231.94 131.944 231.797 131.962C231.725 131.971 231.67 131.978 231.634 131.984C231.616 131.987 231.603 131.989 231.594 131.99L231.586 131.992L231.585 131.992L231.585 131.992L231.584 131.992L231.584 131.992L231.183 132.065L231.031 131.686C230.323 129.916 228.53 128.975 226.602 128.551C225.65 128.341 224.698 128.266 223.894 128.273C223.078 128.281 222.456 128.374 222.153 128.475L221.201 128.791L221.521 127.84C221.767 127.111 221.889 126.628 222.075 125.86C222.09 125.801 222.105 125.74 222.12 125.677C222.303 124.922 222.552 123.896 223.013 122.192C223.795 119.304 225.008 114.402 225.499 110.439L225.502 110.42L225.505 110.402C226.007 107.904 226.105 106.139 225.768 105.019C225.606 104.478 225.35 104.115 225.009 103.88C224.664 103.642 224.179 103.5 223.496 103.5C222.353 103.5 221.558 103.514 220.82 104.034C220.07 104.563 219.296 105.681 218.47 108.158C218.156 109.1 217.72 110.546 217.224 112.193C216.934 113.157 216.622 114.19 216.303 115.232C215.448 118.016 214.531 120.861 213.81 122.5Z" stroke="#DAAA85"/>
<path d="M66.521 258.505C67.521 258.005 68.521 256.505 68.521 256.505L31.521 260.505L36.021 263.005C36.021 263.005 55.8161 263.857 66.521 258.505Z" fill="#4C7B9E"/>
<path d="M70.521 247.005C70.521 247.005 72.0762 247.008 72.021 247.505C71.521 252.005 27.521 254.505 27.521 249.005C27.521 248.301 28.521 247.505 28.521 247.505L70.521 247.005Z" fill="#4C7B9E"/>
<path fill-rule="evenodd" clip-rule="evenodd" d="M75.7935 356.939C73.3819 355.741 72.8904 354.905 71.3205 353.126C69.7928 351.395 69.7721 349.827 68.2284 349.203C67.2711 348.816 66.524 352.539 66.8273 354.874C67.1847 357.625 66.5992 361.788 66.8282 363.622C67.229 366.833 67.1676 372.734 67.0483 375.304C66.8835 378.857 63.0997 378.895 63.0997 378.895C63.0997 378.895 61.0303 377.492 60.7577 375.607C60.4621 373.563 60.5045 369.112 60.5671 366.438C60.6688 362.089 60.9008 358.186 60.5309 357.91C60.0078 357.519 59.8258 358.152 59.7189 358.683C59.612 359.214 59.0384 363.833 58.8882 365.698C58.5877 369.428 57.7357 378.297 57.6503 379.231C57.4101 382.029 57.7036 385.712 54.021 386.005C50.3017 385.838 50.1611 383.038 50.3585 380.738C50.4479 379.697 51.1206 368.633 51.4497 365.364C51.6957 362.92 51.4754 359.686 51.0184 359.752C50.5614 359.818 50.3304 367.802 49.2498 373.072C48.8162 375.187 48.8489 380.504 45.6686 380.964C42.4882 381.424 42.9526 378.182 43.013 375.374C43.0734 372.566 43.5188 369.31 43.6454 366.976C43.7778 364.532 44.4268 361.939 44.1198 359.817C44.0912 357.021 43.5077 359.439 43.5077 359.439C43.5077 359.439 42.6482 369.029 40.9382 370.707C39.7123 371.909 38.3736 371.876 37.739 371.169C37.1044 370.463 37.3454 364.229 37.5059 363.106C37.6665 361.984 37.7185 358.302 37.9931 353.704C39.7437 346.452 40.1891 340.32 40.8896 337.484C41.5902 334.649 41.9159 333.234 42.7144 331.317C43.5969 329.198 45.1269 327.002 45.5332 325.996C46.3071 324.082 46.0288 323.641 46.1603 322.24C46.6684 316.831 45.0512 313.395 43.7848 308.532C40.5063 295.944 34.0986 278.57 36.0213 265.505C37.3551 256.441 47.0608 251.952 56.5211 254.606C59.3354 255.395 65.4569 257.313 67.0213 259.505C69.5242 263.011 68.0365 284.347 68.1802 297.323C68.2816 306.397 66.6449 315.962 67.296 325.189C67.7185 331.177 70.0201 330.994 72.1549 334.53C73.0385 336.694 73.921 339.253 74.5464 341.288C75.7971 345.357 76.21 346.1 77.8952 348.433C79.5121 350.671 84.7799 353.443 83.5823 355.855C82.3848 358.266 77.9025 357.986 75.7935 356.939Z" fill="#EABB95"/>
<path d="M32.0205 248.005C37.0205 209.005 60.6872 170.338 75.0205 161.005V208.505C75.0205 222.505 70.4777 243.909 63.5205 253.005C57.9765 260.253 45.0476 281.921 39.0205 277.005C37.0205 271.005 31.0668 255.444 32.0205 248.005Z" fill="#EABB95"/>
<path d="M67.5205 260.505L66.5205 257.505L33.5205 260.505L35.0205 264.005L67.5205 260.505Z" fill="#DAAA85"/>
<path fill-rule="evenodd" clip-rule="evenodd" d="M149.021 335.005C148.105 342.253 147.173 349.697 147.021 357.005C162.671 356.995 174.225 352.417 188.021 346.005L189.021 401.005H141.021C141.021 393.737 139.419 366.607 139.419 366.607L127.021 365.005C127.021 365.005 122.974 388.962 122.021 401.005H72.0215C72.0215 384.022 73.6715 366.971 74.0215 350.005C93.0915 352.427 110.58 356.005 130.021 356.005L127.521 335.005C134.489 335.555 142.046 335.886 149.021 335.005Z" fill="#568CB4"/>
<path d="M100.021 333.998L100.521 324.498C113.021 323.331 150.45 324.207 152.45 327.407C154.45 330.607 155.283 336.331 154.95 339.998C146.95 343.198 110.521 339.331 100.021 333.998Z" fill="#4C7B9E"/>
<path fill-rule="evenodd" clip-rule="evenodd" d="M143.021 159.505C151.496 205.155 155.521 289.953 155.521 336.005H125.521C121.989 291.265 114.397 204.316 114.521 159.505C121.021 167.505 136.021 168.005 143.021 159.505Z" fill="white"/>
<path d="M188.021 349.914V346.414C175.521 345.247 150.021 343.714 148.021 346.914C146.021 350.114 145.188 355.838 145.521 359.505C153.521 362.705 177.521 355.247 188.021 349.914Z" fill="#4C7B9E"/>
<path d="M74.0215 352.505L74.5215 343.005C87.0215 341.838 124.45 342.714 126.45 345.914C128.45 349.114 129.283 354.838 128.95 358.505C120.95 361.705 84.5215 357.838 74.0215 352.505Z" fill="#4C7B9E"/>
<path fill-rule="evenodd" clip-rule="evenodd" d="M174.021 159.505C179.929 163.377 182.4 180.131 183.521 186.505C186.342 202.537 186.997 218.697 187.306 235.005C187.813 261.69 192.011 290.778 192.021 317.505C192.024 325.592 192.021 346.505 192.021 346.505C178.521 353.005 163.521 358.505 147.021 357.005C147.17 339.002 150.564 321.056 151.006 303.005C151.622 277.886 146.039 228.001 146.021 203.005C145.934 198.596 141.555 174.411 142.021 170.005L143.021 146.505C151.021 150.005 168.274 156.115 174.021 159.505Z" fill="#5DA4D8"/>
<path fill-rule="evenodd" clip-rule="evenodd" d="M124.521 170.005C124.521 204.678 124.545 271.402 126.06 306.004C126.794 322.729 130.021 339.243 130.021 356.005C110.598 356.005 89.529 353.587 70.5215 350.005C70.5215 350.005 71.2915 327.393 72.8515 311.004C74.1027 297.867 75.684 284.193 76.0065 271.005C76.1802 263.897 76.0065 258.005 76.0065 248.005C76.0065 238.005 72.8515 185.505 72.8515 185.505C67.6815 173.505 78.0215 166.505 78.0215 154.505C79.8522 153.816 109.521 143.005 116.521 147.505C118.521 155.505 118.521 154.505 121.021 161.505C123.521 166.755 123.521 167.005 124.521 170.005Z" fill="#5DA4D8"/>
<path d="M140.521 169.005L142.021 171.505C142.021 171.505 161.653 174.489 161.521 174.005C161.277 173.11 160.021 171.005 160.021 171.005C154.692 167.89 140.521 169.005 140.521 169.005Z" fill="#4C7B9E"/>
<path d="M124.521 170.505L125.021 168.005C125.021 168.005 104.521 168.505 101.021 175.505C100.797 175.953 124.521 170.505 124.521 170.505Z" fill="#4C7B9E"/>
<path d="M102.521 159.005C103.02 156.005 108.021 169.945 101.021 175.505C101.021 168.005 102.438 159.499 102.52 159.005L102.521 159.005Z" fill="#4C7B9E"/>
<path fill-rule="evenodd" clip-rule="evenodd" d="M114.021 139.505C114.902 144.18 125.021 168.005 125.021 168.005C125.021 168.005 105.933 171.411 102.021 173.934C102.397 165.148 102.021 151.505 106.021 143.005C109.021 142.005 111.281 140.266 114.021 139.505ZM161.521 172.505C161.521 172.505 147.521 170.005 140.521 169.005C140.574 162.428 143.021 146.505 144.021 140.005C148.521 143.005 150.521 144.005 153.521 146.005C156.021 151.005 158.165 159.081 161.521 172.505Z" fill="#568CB4"/>
<path fill-rule="evenodd" clip-rule="evenodd" d="M32.5213 260.505C23.2138 251.732 32.2087 219.492 36.4487 210.005C44.2237 192.603 52.5012 162.647 73.0212 155.707C89.3725 150.177 88.0213 177.505 82.0213 189.505C76.0213 204.505 76.0213 217.505 73.0213 230.005C71.7003 235.509 71.0726 250.367 67.5213 256.005C67.5213 256.005 60.5213 256.755 53.0213 257.505C48.0213 258.005 38.5213 260.005 32.5213 260.505Z" fill="#568CB4"/>
<path d="M72.0215 247.505L68.5215 256.505C67.0215 259.005 33.0215 260.505 31.5215 260.505C30.3215 260.505 28.1882 251.505 27.5215 249.005C29.1215 249.805 59.0215 250.005 72.0215 247.505Z" fill="#5DA4D8"/>
<circle r="2.5" transform="matrix(-1 0 0 1 153.521 231.505)" fill="white"/>
<circle r="2.5" transform="matrix(-1 0 0 1 154.521 342.505)" fill="white"/>
<circle r="2.5" transform="matrix(-1 0 0 1 155.521 314.505)" fill="white"/>
<circle r="2.5" transform="matrix(-1 0 0 1 155.521 284.505)" fill="white"/>
<circle r="2.5" transform="matrix(-1 0 0 1 154.521 256.505)" fill="white"/>
<circle r="2.5" transform="matrix(-1 0 0 1 152.521 206.505)" fill="white"/>
<circle r="2.5" transform="matrix(-1 0 0 1 148.521 180.505)" fill="white"/>
<path d="M238.5 134.5C237 140.5 235.5 146.5 235 150C234.647 152.476 238 157 242.5 145.5M228.5 144C228.131 144.118 226.927 144.391 226.5 144.5M214.5 145C215.902 145.401 216.983 145.48 218 145.443M226.5 144.5C225.149 144.845 224.374 144.982 223 145.181C220.902 145.073 219.522 145.388 218 145.443M226.5 144.5C225.833 145.655 225.5 146.5 224.5 147.5C223 148.5 219 149 218 145.443" stroke="#DAAA85"/>
</svg>
