<svg width="208" height="320" viewBox="0 0 208 320" fill="none" xmlns="http://www.w3.org/2000/svg">
<path d="M78.4635 121.932V135.942C77.753 136.17 76.9863 136.297 76.1951 136.297C75.4377 136.297 74.7074 136.185 74.0226 135.971C71.0168 135.043 68.835 132.247 68.835 128.937C68.835 125.628 71.0168 122.831 74.0226 121.902C74.7074 121.689 75.4377 121.576 76.1951 121.576C76.9863 121.576 77.753 121.704 78.4635 121.932Z" fill="#F9123E"/>
<path d="M184.746 305.899H55.7207V302.815C55.7207 297.791 59.794 293.718 64.8178 293.718H175.648C180.673 293.718 184.746 297.791 184.746 302.815V305.899Z" fill="#CBCCE1"/>
<path d="M184.746 305.899H183.065V305.055C183.065 300.031 178.992 295.958 173.967 295.958H63.1379C60.6634 295.958 58.4231 296.948 56.7832 298.551C58.0029 296.257 60.1741 294.546 62.7715 293.948C62.7773 293.947 62.782 293.946 62.7879 293.945C62.7902 293.945 62.7914 293.944 62.7926 293.944C63.4434 293.796 64.1222 293.718 64.8175 293.718H175.648C180.673 293.718 184.745 297.791 184.745 302.815V305.899" fill="#F5F5F9"/>
<path d="M175.648 289.796H64.8181C57.6406 289.796 51.7998 295.637 51.7998 302.815V305.899C51.7998 308.064 53.5544 309.82 55.721 309.82H184.745C186.912 309.82 188.667 308.064 188.667 305.899V302.815C188.667 295.637 182.827 289.796 175.648 289.796ZM175.648 293.717C180.673 293.717 184.745 297.791 184.745 302.815V305.899H55.721V302.815C55.721 297.791 59.7932 293.717 64.8181 293.717H175.648Z" fill="#211414"/>
<path d="M97.098 78.7663H147.047C156.101 78.7663 163.44 86.1054 163.44 95.1592V289.796H80.7051V95.1592C80.7051 86.1054 88.0441 78.7663 97.098 78.7663Z" fill="#F9123E"/>
<path d="M153.282 79.9946C151.36 79.2034 149.253 78.7667 147.046 78.7667C149.253 78.7667 151.36 79.2034 153.282 79.9946Z" fill="#91E8FF"/>
<path d="M163.438 289.796H160.998V94.5143C160.998 87.16 155.033 81.201 147.679 81.201H96.1134C98.6124 79.6582 101.559 78.7675 104.712 78.7675H97.0978C94.0942 78.7675 91.278 79.5752 88.8574 80.9856C88.8609 80.9833 88.8633 80.9809 88.8668 80.9786C91.285 79.5716 94.0978 78.7663 97.0966 78.7663H147.045C149.253 78.7663 151.36 79.2029 153.282 79.9942C159.242 82.4475 163.438 88.3129 163.438 95.1592V289.796Z" fill="#FC94A8"/>
<path d="M80.7051 95.1571C80.7051 94.6011 80.7332 94.051 80.787 93.509C80.787 93.5032 80.7882 93.4985 80.7882 93.4926C80.7893 93.4903 80.7893 93.4856 80.7893 93.4833C80.8596 92.7974 80.9708 92.1243 81.1229 91.4665C81.1229 91.463 81.1241 91.4606 81.1253 91.4571C81.1253 91.456 81.1253 91.4559 81.1253 91.4548C81.2271 91.0123 81.3477 90.5769 81.4846 90.1497C80.979 91.7287 80.7051 93.4119 80.7051 95.1594" fill="#088ED4"/>
<path d="M85.7804 289.796H80.7051V95.1572C80.7051 93.412 80.979 91.7288 81.4846 90.1498C82.7312 86.2614 85.3906 83.0062 88.8588 80.9859C88.5638 81.2107 88.277 81.4448 87.9985 81.6882C89.1362 81.3687 90.3394 81.2013 91.5778 81.2013H96.1147C94.3929 82.263 92.8841 83.6336 91.6633 85.236C88.16 87.1627 85.7804 90.8872 85.7804 95.1584V289.799" fill="#AE0D4E"/>
<path d="M87.9971 81.688C88.2756 81.4445 88.5624 81.2104 88.8574 80.9857C91.278 79.5752 94.0942 78.7676 97.0977 78.7676H104.712C101.559 78.7676 98.6124 79.6583 96.1133 81.201H91.5765C90.3381 81.201 89.1348 81.3684 87.9971 81.688Z" fill="#B06798"/>
<path d="M76.1948 134.774C75.8355 134.774 75.4832 134.741 75.1426 134.679V123.195C75.4832 123.132 75.8355 123.099 76.1948 123.099C76.5156 123.099 76.8351 123.126 77.15 123.178V134.697C76.8351 134.748 76.5156 134.774 76.1948 134.774Z" fill="#AE0D4E"/>
<path d="M155.826 289.796H153.519V94.7206C153.519 91.4011 150.828 88.7159 147.514 88.7159H92.0148C91.7713 88.7159 91.5278 88.7312 91.2891 88.7616C91.3804 88.6188 91.4752 88.4783 91.5735 88.3414C93.0835 87.117 95.0066 86.382 97.0994 86.382H147.045C151.887 86.382 155.826 90.3207 155.826 95.1584V289.799" fill="#FC94A8"/>
<path d="M147.046 75.213H97.0969C86.0989 75.213 77.1504 84.1615 77.1504 95.1595V289.796C77.1504 291.759 78.7423 293.35 80.704 293.35H163.439C165.402 293.35 166.992 291.759 166.992 289.796V95.1595C166.992 84.1615 158.044 75.213 147.046 75.213ZM147.046 78.7666C156.1 78.7666 163.439 86.1057 163.439 95.1595V289.796H80.704V95.1595C80.704 86.1057 88.0431 78.7666 97.0969 78.7666H147.046Z" fill="#211414"/>
<path d="M147.046 83.8443H97.1002C90.8591 83.8443 85.7803 88.9195 85.7803 95.1583V289.799C85.7803 291.2 86.9168 292.336 88.3191 292.336H155.827C157.228 292.336 158.364 291.2 158.364 289.799V95.1583C158.364 88.9195 153.287 83.8443 147.046 83.8443ZM147.046 86.3819C151.888 86.3819 155.827 90.3206 155.827 95.1583V289.799H88.3191V95.1583C88.3191 90.3206 92.2567 86.3819 97.1002 86.3819H147.046Z" fill="#211414"/>
<path d="M139.582 164.341H104.56C102.176 164.341 100.245 162.408 100.245 160.026V100.132C100.245 97.7486 102.176 95.8173 104.56 95.8173H139.582C141.965 95.8173 143.897 97.7486 143.897 100.132V160.026C143.897 162.408 141.965 164.341 139.582 164.341Z" fill="#E2E3F2"/>
<path d="M104.56 96.097C102.336 96.097 100.525 97.9078 100.525 100.132V160.026C100.525 162.25 102.336 164.061 104.56 164.061H139.583C141.807 164.061 143.617 162.25 143.617 160.026V100.132C143.617 97.9078 141.807 96.097 139.583 96.097H104.56ZM139.583 164.621H104.56C102.027 164.621 99.9658 162.559 99.9658 160.026V100.132C99.9658 97.5988 102.027 95.5375 104.56 95.5375H139.583C142.117 95.5375 144.177 97.5988 144.177 100.132V160.026C144.177 162.559 142.117 164.621 139.583 164.621Z" fill="#211414"/>
<path d="M135.571 168.493H100.549C98.1634 168.493 96.2344 166.559 96.2344 164.178V104.284C96.2344 102.097 97.859 100.292 99.9659 100.008C99.9648 100.049 99.9648 100.091 99.9648 100.132V160.026C99.9648 162.559 102.026 164.621 104.559 164.621H139.582C139.676 164.621 139.77 164.618 139.862 164.612C139.648 166.788 137.806 168.493 135.571 168.493Z" fill="#AE0D4E"/>
<path d="M139.583 164.621H104.56C102.027 164.621 99.9658 162.559 99.9658 160.026V100.132C99.9658 100.091 99.9658 100.049 99.967 100.008C100.061 99.996 100.154 99.9866 100.248 99.9796C100.248 100.004 100.247 100.028 100.247 100.052C100.246 100.079 100.246 100.105 100.246 100.132V160.026C100.246 162.406 102.179 164.341 104.56 164.341H139.583C139.682 164.341 139.78 164.337 139.878 164.33C139.879 164.33 139.881 164.33 139.882 164.33C139.879 164.425 139.873 164.519 139.864 164.612C139.771 164.618 139.677 164.621 139.583 164.621Z" fill="#211414"/>
<path d="M139.583 164.061H104.56C102.336 164.061 100.525 162.25 100.525 160.026V100.132C100.525 99.6413 100.613 99.1707 100.775 98.7365H104.306V147.6C104.306 154.752 110.102 160.548 117.26 160.548H140.537V163.946C140.231 164.021 139.912 164.061 139.583 164.061Z" fill="#9E9ECB"/>
<path d="M139.582 164.341H104.56C102.179 164.341 100.245 162.406 100.245 160.026V100.132C100.245 100.105 100.245 100.078 100.246 100.052C100.246 100.028 100.247 100.004 100.25 99.9796C100.25 99.9796 100.249 99.9796 100.247 99.9796C100.279 99.0924 100.579 98.273 101.068 97.6C100.819 97.9441 100.619 98.3257 100.479 98.7365H100.774C100.613 99.1708 100.525 99.6413 100.525 100.132V160.026C100.525 162.25 102.336 164.061 104.56 164.061H139.582C139.911 164.061 140.231 164.021 140.536 163.946V164.234C140.94 164.142 141.323 163.994 141.674 163.799C141.135 164.099 140.526 164.287 139.877 164.33C139.778 164.335 139.683 164.341 139.582 164.341Z" fill="#211414"/>
<path d="M139.582 164.341H104.56C102.179 164.341 100.245 162.406 100.245 160.026C100.245 162.406 102.179 164.341 104.56 164.341H139.582C139.683 164.341 139.778 164.335 139.877 164.33C139.78 164.337 139.682 164.341 139.582 164.341ZM100.246 100.052C100.246 100.028 100.247 100.004 100.247 99.9796C100.249 99.9796 100.25 99.9796 100.25 99.9796C100.247 100.004 100.246 100.028 100.246 100.052Z" fill="#211414"/>
<path d="M143.81 160.891C143.833 160.777 143.852 160.661 143.866 160.544C143.852 160.661 143.833 160.777 143.81 160.891ZM102.993 96.1111C102.998 96.1099 103.003 96.1076 103.006 96.1064C103.003 96.1076 102.998 96.1099 102.993 96.1111ZM103.007 96.1052C103.423 95.9449 103.87 95.8465 104.336 95.8231C103.87 95.8465 103.423 95.9449 103.007 96.1052Z" fill="#211414"/>
<path d="M141.675 163.799C142.758 163.196 143.555 162.141 143.811 160.891C143.556 162.14 142.759 163.196 141.675 163.799Z" fill="#D9D9EA"/>
<path d="M143.584 160.548H140.537V101.461C140.537 99.9596 139.314 98.7364 137.806 98.7364H104.307V96.3404C104.307 96.262 104.309 96.1836 104.314 96.1051C104.396 96.1004 104.478 96.0969 104.561 96.0969H139.583C141.807 96.0969 143.618 97.9077 143.618 100.132V160.026C143.618 160.203 143.606 160.377 143.584 160.548Z" fill="#FBFBFD"/>
<path d="M143.643 160.548H143.583C143.606 160.377 143.617 160.203 143.617 160.026V100.132C143.617 97.9077 141.806 96.097 139.583 96.097H104.56C104.477 96.097 104.395 96.1005 104.313 96.1051C104.318 96.0092 104.326 95.9144 104.336 95.8231C104.41 95.8195 104.485 95.8172 104.56 95.8172H139.583C141.963 95.8172 143.897 97.7509 143.897 100.132V160.026C143.897 160.201 143.886 160.374 143.867 160.544C143.791 160.548 143.719 160.548 143.643 160.548ZM101.068 97.5999C101.551 96.9362 102.218 96.4142 102.994 96.111C102.219 96.4142 101.552 96.9362 101.068 97.5999ZM103.007 96.1063C103.008 96.1063 103.008 96.1063 103.008 96.1051C103.008 96.1063 103.008 96.1063 103.007 96.1063Z" fill="#D9D9EA"/>
<path d="M140.537 163.947V160.549H143.584C143.369 162.21 142.138 163.557 140.537 163.947Z" fill="#F1F1F7"/>
<path d="M140.537 164.234V163.946C142.138 163.556 143.369 162.209 143.584 160.548H143.644C143.72 160.548 143.791 160.548 143.867 160.544C143.853 160.661 143.834 160.776 143.811 160.891C143.555 162.141 142.758 163.196 141.675 163.799C141.324 163.994 140.941 164.142 140.537 164.234Z" fill="#D9D9EA"/>
<path d="M104.305 98.7363H100.773C101.315 97.2709 102.685 96.2045 104.312 96.105C104.307 96.1835 104.305 96.2619 104.305 96.3403V98.7363Z" fill="#F1F1F7"/>
<path d="M100.774 98.7363H100.479C100.619 98.3255 100.819 97.9439 101.068 97.5997C101.552 96.9361 102.219 96.414 102.994 96.1109C102.998 96.1097 103.003 96.1074 103.007 96.1062C103.008 96.1062 103.008 96.1062 103.008 96.105C103.423 95.9447 103.87 95.8463 104.336 95.8229C104.326 95.9142 104.318 96.009 104.313 96.105C102.686 96.2045 101.316 97.2709 100.774 98.7363Z" fill="#D9D9EA"/>
<path d="M104.561 97.34C103.022 97.34 101.769 98.5925 101.769 100.132V160.026C101.769 161.565 103.022 162.818 104.561 162.818H139.584C141.123 162.818 142.375 161.565 142.375 160.026V100.132C142.375 98.5925 141.123 97.34 139.584 97.34H104.561ZM139.584 165.864H104.561C101.342 165.864 98.7236 163.245 98.7236 160.026V100.132C98.7236 96.9128 101.342 94.2944 104.561 94.2944H139.584C142.802 94.2944 145.421 96.9128 145.421 100.132V160.026C145.421 163.245 142.802 165.864 139.584 165.864Z" fill="#211414"/>
<path d="M132.901 63.695H111.244V73.1655H132.901V63.695Z" fill="#CBCCE1"/>
<path d="M111.524 72.8861H132.62V63.9762H111.524V72.8861ZM133.18 73.4456H110.963V63.4155H133.18V73.4456Z" fill="#211414"/>
<path d="M113.019 71.3887H131.123V65.4718H113.019V71.3887ZM132.9 74.9424H111.244C110.262 74.9424 109.467 74.1464 109.467 73.1655V63.695C109.467 62.7141 110.262 61.9194 111.244 61.9194H132.9C133.881 61.9194 134.676 62.7141 134.676 63.695V73.1655C134.676 74.1464 133.881 74.9424 132.9 74.9424Z" fill="#211414"/>
<path d="M139.414 210.276H105.574C102.632 210.276 100.245 207.891 100.245 204.947V180.245C100.245 177.301 102.632 174.915 105.574 174.915H139.414C142.356 174.915 144.743 177.301 144.743 180.245V204.947C144.743 207.891 142.356 210.276 139.414 210.276Z" fill="#E2E3F2"/>
<path d="M105.575 175.195C102.79 175.195 100.525 177.461 100.525 180.245V204.947C100.525 207.731 102.79 209.996 105.575 209.996H139.413C142.198 209.996 144.462 207.731 144.462 204.947V180.245C144.462 177.461 142.198 175.195 139.413 175.195H105.575ZM139.413 210.556H105.575C102.482 210.556 99.9658 208.039 99.9658 204.947V180.245C99.9658 177.152 102.482 174.636 105.575 174.636H139.413C142.507 174.636 145.023 177.152 145.023 180.245V204.947C145.023 208.039 142.507 210.556 139.413 210.556Z" fill="#211414"/>
<path d="M135.101 213.956H101.261C98.3171 213.956 95.9316 211.571 95.9316 208.627V183.923C95.9316 181.351 97.7553 179.204 100.182 178.703C100.041 179.193 99.9664 179.711 99.9664 180.244V204.947C99.9664 208.039 102.483 210.556 105.575 210.556H139.413C139.642 210.556 139.865 210.543 140.085 210.516C139.326 212.529 137.383 213.956 135.101 213.956Z" fill="#AE0D4E"/>
<path d="M139.413 210.556H105.575C102.482 210.556 99.9658 208.039 99.9658 204.947V180.245C99.9658 179.711 100.041 179.193 100.181 178.703C100.282 178.682 100.385 178.664 100.488 178.649C100.335 179.141 100.25 179.662 100.246 180.204C100.246 180.205 100.246 180.205 100.246 180.206C100.246 180.209 100.246 180.213 100.246 180.215C100.246 180.218 100.246 180.22 100.246 180.224C100.246 180.225 100.246 180.227 100.246 180.229C100.246 180.234 100.246 180.239 100.246 180.243V204.947C100.246 207.891 102.631 210.276 105.575 210.276H139.415C139.42 210.276 139.425 210.276 139.43 210.276C139.433 210.276 139.435 210.276 139.437 210.276C139.439 210.276 139.441 210.276 139.442 210.276C139.695 210.275 139.943 210.256 140.187 210.221C140.156 210.321 140.122 210.419 140.085 210.516C139.865 210.543 139.641 210.556 139.413 210.556Z" fill="#211414"/>
<path d="M139.413 209.996H105.575C102.79 209.996 100.525 207.731 100.525 204.947V180.245C100.525 179.457 100.707 178.71 101.03 178.045H104.464V194.938C104.464 200.607 109.057 205.201 114.727 205.201H141.34V209.615C140.745 209.861 140.095 209.996 139.413 209.996Z" fill="#9E9ECB"/>
<path d="M139.415 210.276H105.574C102.631 210.276 100.245 207.891 100.245 204.947V180.243C100.245 180.239 100.245 180.234 100.245 180.229C100.245 180.227 100.245 180.225 100.245 180.223C100.245 180.221 100.245 180.218 100.245 180.215C100.245 180.213 100.245 180.209 100.245 180.206C100.245 180.205 100.245 180.204 100.245 180.204C100.25 179.664 100.335 179.14 100.489 178.649C100.489 178.649 100.489 178.649 100.487 178.649C100.709 177.943 101.073 177.301 101.546 176.755C101.213 177.142 100.935 177.575 100.723 178.045H101.029C100.706 178.71 100.525 179.457 100.525 180.245V204.947C100.525 207.731 102.79 209.996 105.574 209.996H139.412C140.095 209.996 140.744 209.861 141.339 209.615V209.916C141.833 209.726 142.291 209.464 142.702 209.143C141.988 209.704 141.127 210.085 140.186 210.221C140.186 210.221 140.186 210.221 140.186 210.22C139.941 210.255 139.696 210.275 139.442 210.276C139.441 210.276 139.438 210.276 139.437 210.276C139.435 210.276 139.432 210.276 139.43 210.276C139.424 210.276 139.419 210.276 139.415 210.276Z" fill="#211414"/>
<path d="M139.415 210.276H105.574C102.631 210.276 100.245 207.891 100.245 204.947C100.245 207.891 102.631 210.276 105.574 210.276H139.415ZM139.43 210.276C139.432 210.276 139.435 210.276 139.437 210.276C139.435 210.276 139.432 210.276 139.43 210.276ZM139.442 210.276C139.696 210.275 139.942 210.255 140.186 210.22C140.186 210.221 140.186 210.221 140.186 210.221C139.943 210.256 139.695 210.275 139.442 210.276ZM100.245 180.229C100.245 180.227 100.245 180.225 100.245 180.223C100.245 180.225 100.245 180.227 100.245 180.229ZM100.245 180.215C100.245 180.213 100.245 180.209 100.245 180.206C100.245 180.209 100.245 180.213 100.245 180.215ZM100.245 180.204C100.25 179.662 100.334 179.141 100.487 178.649C100.489 178.649 100.489 178.649 100.489 178.649C100.335 179.14 100.25 179.664 100.245 180.204Z" fill="#211414"/>
<path d="M143.634 205.201H141.339V180.233C141.339 179.025 140.36 178.045 139.152 178.045H104.464V175.318C104.821 175.237 105.193 175.195 105.575 175.195H139.413C142.197 175.195 144.462 177.461 144.462 180.244V204.947C144.462 205.01 144.461 205.073 144.459 205.135C144.19 205.178 143.916 205.201 143.634 205.201Z" fill="#FBFBFD"/>
<path d="M142.702 209.143C143.911 208.195 144.699 206.733 144.74 205.084C144.646 205.103 144.554 205.121 144.459 205.135C144.461 205.073 144.462 205.01 144.462 204.947V180.244C144.462 177.461 142.197 175.195 139.413 175.195H105.575C105.193 175.195 104.821 175.237 104.464 175.318V175.167C104.464 175.121 104.464 175.075 104.469 175.03C103.312 175.273 102.293 175.894 101.546 176.755C102.521 175.627 103.963 174.913 105.575 174.913H139.415C142.359 174.913 144.744 177.299 144.744 180.243V204.947C144.744 206.65 143.946 208.169 142.702 209.143Z" fill="#D9D9EA"/>
<path d="M141.34 209.615V205.201H143.634C143.916 205.201 144.19 205.178 144.459 205.135C144.386 207.156 143.117 208.878 141.34 209.615Z" fill="#F1F1F7"/>
<path d="M141.34 209.916V209.615C143.117 208.878 144.385 207.157 144.459 205.135C144.554 205.121 144.647 205.104 144.74 205.084C144.699 206.733 143.911 208.195 142.702 209.143C142.291 209.464 141.834 209.726 141.34 209.916Z" fill="#D9D9EA"/>
<path d="M104.464 178.045H101.03C101.693 176.682 102.951 175.659 104.464 175.318V178.045Z" fill="#F1F1F7"/>
<path d="M101.03 178.045H100.724C100.935 177.574 101.214 177.141 101.547 176.755C102.293 175.894 103.313 175.273 104.469 175.03C104.465 175.075 104.465 175.121 104.465 175.167V175.318C102.951 175.659 101.693 176.682 101.03 178.045Z" fill="#D9D9EA"/>
<path d="M105.576 176.438C103.477 176.438 101.769 178.146 101.769 180.244V204.947C101.769 207.045 103.477 208.753 105.576 208.753H139.414C141.514 208.753 143.222 207.045 143.222 204.947V180.244C143.222 178.146 141.514 176.438 139.414 176.438H105.576ZM139.414 211.799H105.576C101.797 211.799 98.7236 208.725 98.7236 204.947V180.244C98.7236 176.466 101.797 173.392 105.576 173.392H139.414C143.192 173.392 146.266 176.466 146.266 180.244V204.947C146.266 208.725 143.192 211.799 139.414 211.799Z" fill="#211414"/>
<path d="M13.2649 307.813C22.2368 307.114 31.2087 306.747 40.1806 306.472C49.1525 306.21 58.1244 306.065 67.0963 306.024C76.067 306.002 85.0401 306.031 94.012 306.103L107.469 306.159C111.956 306.185 116.441 306.175 120.926 306.157L147.843 306.042L161.301 306C165.786 306.002 170.273 305.972 174.758 306.002C179.244 306.026 183.73 306.052 188.216 306.113C192.702 306.15 197.188 306.241 201.674 306.338C210.645 306.589 219.617 306.977 228.589 307.813C228.77 307.83 228.903 307.99 228.885 308.17C228.871 308.33 228.744 308.452 228.589 308.466C219.617 309.303 210.645 309.691 201.674 309.942C197.188 310.038 192.702 310.129 188.216 310.166C183.73 310.226 179.244 310.254 174.758 310.278C170.273 310.308 165.786 310.277 161.301 310.28L147.843 310.238L120.926 310.122C116.441 310.104 111.956 310.094 107.469 310.12L94.012 310.176C85.0401 310.247 76.067 310.277 67.0963 310.256C58.1244 310.214 49.1525 310.07 40.1806 309.809C31.2087 309.532 22.2368 309.165 13.2649 308.466C13.0846 308.452 12.9489 308.295 12.9629 308.114C12.9758 307.951 13.1057 307.825 13.2649 307.813Z" fill="#211414"/>
<path d="M76.1954 137.82C71.2969 137.82 67.3125 133.835 67.3125 128.937C67.3125 124.04 71.2969 120.054 76.1954 120.054C77.1248 120.054 78.0448 120.199 78.9297 120.484C79.7303 120.74 80.1704 121.598 79.9129 122.398C79.6554 123.199 78.7963 123.64 77.998 123.383C77.4139 123.194 76.8076 123.1 76.1954 123.1C72.9765 123.1 70.357 125.718 70.357 128.937C70.357 132.156 72.9765 134.774 76.1954 134.774C76.8088 134.774 77.4151 134.679 77.998 134.492C78.7986 134.236 79.6554 134.675 79.9129 135.476C80.1704 136.276 79.7303 137.134 78.9297 137.391C78.0448 137.676 77.126 137.82 76.1954 137.82Z" fill="#211414"/>
<path d="M64.2516 130.079L62.6023 135.028L67.0432 136.297L66.0284 142.006H59.5567V154.315L62.4747 155.712V160.548H52.831V144.713L50.9277 141.754V136.297H55.2422L62.4747 120.689L69.5352 125.8L68.8352 130.587L64.2516 130.079Z" fill="#E2E3F2"/>
<path d="M53.1112 160.269H62.1954V155.889L59.2774 154.492V141.727H65.7936L66.7229 136.497L62.2434 135.216L64.0577 129.776L68.5969 130.278L69.2337 125.927L62.5864 121.115L55.4217 136.577H51.2079V141.671L53.1112 144.63V160.269ZM62.7549 160.829H52.5517V144.795L50.6484 141.836V136.017H55.0636L62.364 120.262L69.8376 125.673L69.0733 130.895L64.4463 130.382L62.9609 134.839L67.3632 136.097L66.2629 142.287H59.8369V154.139L62.7549 155.535V160.829Z" fill="#211414"/>
<path d="M60.9515 159.025H59.6827V156.6L56.7646 155.204V142.895H58.0335V154.315C58.0335 154.902 58.3706 155.437 58.8985 155.689L60.9515 156.67V159.025Z" fill="#FBFBFD"/>
<path d="M64.7524 140.484H63.665L64.2514 137.185L59.8105 135.917L61.4598 130.968L62.3178 131.064L61.1566 134.547C61.0255 134.94 61.0607 135.371 61.255 135.739C61.4481 136.106 61.784 136.378 62.1832 136.492L65.3037 137.384L64.7524 140.484Z" fill="#FBFBFD"/>
<path d="M67.5406 128.911L66.4369 128.789L66.7435 126.688L62.7217 123.776L63.0787 123.005L66.8969 125.77C66.9097 125.78 66.9238 125.789 66.9366 125.798L67.8953 126.492L67.5406 128.911Z" fill="#FBFBFD"/>
<path d="M74.4357 102.296L71.6513 107.784L69.0663 106.473L71.8508 100.984C72.2129 100.271 73.0852 99.9854 73.7989 100.347C74.5127 100.71 74.7978 101.582 74.4357 102.296Z" fill="#BCBCBC"/>
<path d="M79.7562 103.369C80.1129 103.55 80.3625 103.859 80.4776 104.211C80.5936 104.564 80.5744 104.96 80.393 105.318L77.6084 110.806L75.0234 109.495L77.8079 104.006C78.0581 103.513 78.5508 103.225 79.066 103.212C79.298 103.207 79.5344 103.257 79.7562 103.369Z" fill="#BCBCBC"/>
<path d="M79.065 103.212C79.1462 103.329 79.209 103.456 79.2529 103.59C79.3681 103.943 79.3488 104.339 79.1675 104.697L76.383 110.185L75.0222 109.495L77.8068 104.006C78.0569 103.513 78.5497 103.225 79.065 103.212Z" fill="#D8D8D8"/>
<path d="M73.108 100.19C73.1892 100.307 73.2519 100.434 73.2959 100.568C73.411 100.921 73.3918 101.317 73.2105 101.675L70.4259 107.163L69.0652 106.473L71.8498 100.984C72.0999 100.491 72.5928 100.203 73.108 100.19Z" fill="#D8D8D8"/>
<path d="M67.6396 123.906L70.7081 117.858L67.4487 116.204L64.3803 122.253C64.1855 122.636 64.3388 123.105 64.7226 123.3L66.5923 124.248C66.9759 124.443 67.4449 124.29 67.6396 123.906Z" fill="#211414"/>
<path d="M67.64 123.906L70.7085 117.858L69.0789 117.031L65.6578 123.774L66.5925 124.249C66.9764 124.443 67.4454 124.29 67.64 123.906Z" fill="#211414"/>
<path d="M67.1615 107.121L77.5117 114.101L74.8446 119.358C73.9559 121.11 71.8144 121.81 70.0626 120.921L65.3599 118.536C63.6072 117.646 62.9081 115.505 63.7968 113.754L67.1615 107.121Z" fill="#AE0D4E"/>
<path d="M68.1431 105.534L78.9108 110.997C79.7485 111.422 80.083 112.445 79.6576 113.283C79.2326 114.121 78.2093 114.455 77.3716 114.03L66.6041 108.568C65.7664 108.143 65.4311 107.119 65.8562 106.282C66.0687 105.863 66.4315 105.569 66.8448 105.434C67.2592 105.298 67.7243 105.321 68.1431 105.534Z" fill="#AE0D4E"/>
<path d="M68.1434 105.534L76.0755 109.558C76.9132 109.983 77.2484 111.007 76.8231 111.845C76.3981 112.683 75.3741 113.017 74.5363 112.592L66.6042 108.568C65.7665 108.143 65.4313 107.119 65.8563 106.281C66.0688 105.863 66.4316 105.569 66.845 105.434C67.2594 105.298 67.7245 105.321 68.1434 105.534Z" fill="#F9123E"/>
<path d="M65.8765 109.653C65.9202 109.681 65.9657 109.707 66.0134 109.731L72.523 113.034C73.2757 113.415 73.5763 114.335 73.1945 115.088L71.8091 117.819C70.9207 119.571 68.7795 120.271 67.0268 119.382L65.3589 118.536C63.607 117.646 62.9074 115.506 63.7961 113.754L65.8765 109.653Z" fill="#F9123E"/>
<path d="M54.3542 159.026H60.9523V156.671L58.8992 155.69C58.3713 155.437 58.0342 154.902 58.0342 154.316V142.007C58.0342 141.166 58.7166 140.484 59.557 140.484H64.7529L65.3042 137.384L62.1837 136.492C61.7845 136.378 61.4486 136.106 61.2555 135.739C61.0611 135.371 61.026 134.94 61.1571 134.547L62.8075 129.598C63.0346 128.917 63.7053 128.485 64.4193 128.566L67.5411 128.911L67.8957 126.493L63.0791 123.006L56.6238 136.937C56.3745 137.476 55.836 137.82 55.2426 137.82H52.4509V141.305L54.1119 143.889C54.2699 144.135 54.3542 144.42 54.3542 144.713V159.026ZM62.4751 162.073H52.8313C51.9909 162.073 51.3097 161.39 51.3097 160.549V145.16L49.6476 142.577C49.4896 142.332 49.4053 142.045 49.4053 141.754V136.297C49.4053 135.455 50.0865 134.774 50.9281 134.774H54.2699L61.0939 120.049C61.2847 119.636 61.6499 119.33 62.0912 119.216C62.529 119.101 62.9995 119.189 63.3682 119.456L70.4287 124.567C70.8875 124.9 71.1251 125.459 71.042 126.021L70.3421 130.807C70.2227 131.618 69.4782 132.191 68.6682 132.101L65.3077 131.728L64.5492 134L67.4615 134.833C68.2118 135.047 68.6788 135.795 68.543 136.564L67.527 142.273C67.3983 143 66.7674 143.529 66.0288 143.529H61.0799V153.356L63.1329 154.338C63.6608 154.591 63.9979 155.126 63.9979 155.712V160.549C63.9979 161.39 63.3155 162.073 62.4751 162.073Z" fill="#211414"/>
<path d="M58.3211 285.238C56.3078 285.238 54.3215 284.757 52.4545 283.785C46.2427 280.546 42.6797 272.624 42.6797 262.049C42.6797 261.977 42.6832 261.905 42.689 261.834C43.9192 247.397 45.8295 238.161 48.0429 227.466C50.1112 217.473 52.4545 206.146 54.8833 187.755C56.0433 178.973 54.8787 160.896 54.867 160.714L59.9317 160.383C59.982 161.144 61.1408 179.142 59.9153 188.42C57.462 206.994 55.0987 218.417 53.014 228.495C50.8393 239.003 48.9606 248.083 47.7562 262.156C47.7772 270.594 50.4085 276.993 54.8014 279.283C57.5732 280.727 60.737 280.377 63.7148 278.297C69.5333 274.232 74.8661 263.08 72.4093 243.964C66.4725 217.524 62.8264 197.261 62.9949 178.023C63.4865 142.271 68.3968 133.705 68.9551 132.846L73.2111 135.613C73.1947 135.643 68.5408 143.926 68.0702 178.08C67.9063 196.846 71.5138 216.821 77.3874 242.966C77.4038 243.042 77.4178 243.118 77.4272 243.195C79.794 261.401 75.7534 276.079 66.6211 282.458C63.9793 284.304 61.1256 285.238 58.3211 285.238Z" fill="#211414"/>
<path d="M78.4638 149.874V172.842L66.4287 165.442V158.032H67.4166C71.1622 158.032 74.7709 156.324 76.9316 153.263C77.6293 152.274 78.1794 151.147 78.4638 149.874Z" fill="#211414"/>
<path d="M106.94 180.963C106.94 181.647 106.385 182.2 105.703 182.2C105.019 182.2 104.466 181.647 104.466 180.963C104.466 180.281 105.019 179.726 105.703 179.726C106.385 179.726 106.94 180.281 106.94 180.963Z" fill="#211414"/>
<path d="M139.679 180.963C139.679 181.647 139.124 182.2 138.441 182.2C137.758 182.2 137.204 181.647 137.204 180.963C137.204 180.281 137.758 179.726 138.441 179.726C139.124 179.726 139.679 180.281 139.679 180.963Z" fill="#211414"/>
<path d="M106.94 205.073C106.94 205.757 106.385 206.31 105.703 206.31C105.019 206.31 104.466 205.757 104.466 205.073C104.466 204.391 105.019 203.836 105.703 203.836C106.385 203.836 106.94 204.391 106.94 205.073Z" fill="#211414"/>
<path d="M139.679 205.073C139.679 205.757 139.124 206.31 138.441 206.31C137.758 206.31 137.204 205.757 137.204 205.073C137.204 204.391 137.758 203.836 138.441 203.836C139.124 203.836 139.679 204.391 139.679 205.073Z" fill="#211414"/>
<path d="M129.346 135.662H114.796C113.791 135.662 112.977 134.847 112.977 133.843V130.459C112.977 129.455 113.791 128.64 114.796 128.64H129.346C130.35 128.64 131.165 129.455 131.165 130.459V133.843C131.165 134.847 130.35 135.662 129.346 135.662Z" fill="#211414"/>
<path d="M129.346 149.452H114.796C113.791 149.452 112.977 148.637 112.977 147.633V144.249C112.977 143.245 113.791 142.43 114.796 142.43H129.346C130.35 142.43 131.165 143.245 131.165 144.249V147.633C131.165 148.637 130.35 149.452 129.346 149.452Z" fill="#211414"/>
<path d="M107.246 135.662H108.345C108.918 135.662 109.382 135.199 109.382 134.626V129.677C109.382 129.105 108.918 128.64 108.345 128.64H107.246C106.674 128.64 106.209 129.105 106.209 129.677V134.626C106.209 135.199 106.674 135.662 107.246 135.662Z" fill="#211414"/>
<path d="M127.014 111.263C127.014 113.993 124.8 116.205 122.072 116.205C119.342 116.205 117.129 113.993 117.129 111.263C117.129 108.533 119.342 106.321 122.072 106.321C124.8 106.321 127.014 108.533 127.014 111.263Z" fill="#211414"/>
<path d="M153.602 35.0833C153.602 52.4968 139.486 66.6143 122.072 66.6143C104.657 66.6143 90.541 52.4968 90.541 35.0833C90.541 17.6697 104.657 3.5523 122.072 3.5523C139.486 3.5523 153.602 17.6697 153.602 35.0833Z" fill="#F9123E"/>
<path d="M148.874 51.6987C151.871 46.8739 153.601 41.1818 153.601 35.0835C153.601 17.6699 139.485 3.55248 122.072 3.55248C113.592 3.55248 105.895 6.90011 100.229 12.3441C99.4563 13.0019 98.7154 13.6961 98.0107 14.4253C103.766 6.80063 112.903 1.87281 123.192 1.87281C140.606 1.87281 154.722 15.9879 154.722 33.4038C154.722 40.2255 152.557 46.5392 148.874 51.6987Z" fill="#91E8FF"/>
<path d="M145.819 55.3613C149.814 50.0777 152.185 43.4936 152.185 36.3629C152.185 18.9529 138.07 4.83193 120.654 4.83193C112.86 4.83193 105.731 7.65753 100.229 12.3442C105.896 6.90022 113.593 3.55259 122.072 3.55259C139.486 3.55259 153.602 17.67 153.602 35.0836C153.602 41.1819 151.872 46.874 148.874 51.6988C147.949 52.9957 146.927 54.2201 145.819 55.3613Z" fill="#FC94A8"/>
<path d="M146.689 35.0834C146.689 48.68 135.667 59.7014 122.072 59.7014C108.476 59.7014 97.4541 48.68 97.4541 35.0834C97.4541 21.488 108.476 10.4654 122.072 10.4654C135.667 10.4654 146.689 21.488 146.689 35.0834Z" fill="#E2E3F2"/>
<path d="M122.072 10.7463C108.652 10.7463 97.7333 21.6636 97.7333 35.0834C97.7333 48.5032 108.652 59.4205 122.072 59.4205C135.49 59.4205 146.409 48.5032 146.409 35.0834C146.409 21.6636 135.49 10.7463 122.072 10.7463ZM122.072 59.9812C108.343 59.9812 97.1738 48.8122 97.1738 35.0834C97.1738 21.3546 108.343 10.1857 122.072 10.1857C135.8 10.1857 146.969 21.3546 146.969 35.0834C146.969 48.8122 135.8 59.9812 122.072 59.9812Z" fill="#211414"/>
<path d="M119.366 61.6047C105.768 61.6047 94.749 50.5798 94.749 36.9867C94.749 28.785 98.758 21.5232 104.924 17.0472C100.153 21.5865 97.1743 27.9938 97.1743 35.0835C97.1743 48.8123 108.343 59.9813 122.072 59.9813C126.053 59.9813 129.82 59.0413 133.161 57.3722C129.227 60.0456 124.48 61.6047 119.366 61.6047Z" fill="#FC94A8"/>
<path d="M122.072 59.9812C108.343 59.9812 97.1738 48.8122 97.1738 35.0834C97.1738 27.9937 100.153 21.5864 104.924 17.0472C105.466 16.6539 106.025 16.2816 106.6 15.9328C105.436 16.8727 104.362 17.9169 103.387 19.0487C103.392 19.0452 103.395 19.0429 103.399 19.0394C99.6939 23.348 97.4536 28.9547 97.4536 35.0834C97.4536 48.6812 108.473 59.7014 122.072 59.7014C126.726 59.7014 131.081 58.4069 134.791 56.163C134.265 56.5879 133.722 56.9917 133.161 57.3721C129.819 59.0413 126.052 59.9812 122.072 59.9812Z" fill="#8C8CBF"/>
<path d="M139.324 52.2336C142.301 48.1603 144.064 43.1412 144.064 37.7077C144.064 24.11 133.045 13.0897 119.447 13.0897C114.014 13.0897 108.993 14.8536 104.919 17.8326C109.322 13.4549 115.387 10.7463 122.071 10.7463C135.49 10.7463 146.409 21.6636 146.409 35.0834C146.409 41.767 143.7 47.8302 139.324 52.2336Z" fill="#9E9ECB"/>
<path d="M138.106 53.7671C138.532 53.2731 138.938 52.7616 139.324 52.2337C143.701 47.8303 146.409 41.7671 146.409 35.0835C146.409 21.6637 135.491 10.7465 122.072 10.7465C115.388 10.7465 109.323 13.455 104.92 17.8327C104.398 18.2154 103.891 18.6181 103.399 19.0395C104.371 17.9099 105.443 16.8694 106.601 15.933C110.829 12.5151 116.212 10.4667 122.072 10.4667C135.67 10.4667 146.689 21.4858 146.689 35.0835C146.689 42.5548 143.36 49.2501 138.106 53.7671Z" fill="#211414"/>
<path d="M103.387 19.0488C104.362 17.917 105.436 16.8729 106.6 15.933C105.442 16.8693 104.37 17.9099 103.398 19.0395C103.395 19.043 103.391 19.0453 103.387 19.0488Z" fill="#6262A8"/>
<path d="M122.072 11.7354C109.198 11.7354 98.7232 22.209 98.7232 35.0834C98.7232 47.9577 109.198 58.4326 122.072 58.4326C134.947 58.4326 145.42 47.9577 145.42 35.0834C145.42 22.209 134.947 11.7354 122.072 11.7354ZM122.072 60.9702C107.798 60.9702 96.1855 49.3576 96.1855 35.0834C96.1855 20.8103 107.798 9.19772 122.072 9.19772C136.345 9.19772 147.958 20.8103 147.958 35.0834C147.958 49.3576 136.345 60.9702 122.072 60.9702Z" fill="#211414"/>
<path d="M149.861 289.796H88.3184V188.092C91.7128 248.158 113.298 270.094 147.811 275.456C148.992 275.64 149.861 276.661 149.861 277.856V289.796Z" fill="#AE0D4E"/>
<path d="M149.861 289.799H88.3184L149.861 289.796V289.799Z" fill="#211414"/>
<path d="M149.861 289.799H88.3174V188.09L88.3186 289.799H149.861Z" fill="#211414"/>
<path d="M66.6195 123.343L65.0791 122.227C65.0955 122.192 65.1107 122.157 65.1247 122.121C65.264 121.756 65.4057 121.393 65.5485 121.033L67.0607 122.129C66.9121 122.527 66.7658 122.931 66.6195 123.343Z" fill="#0C0872"/>
<path d="M66.4269 123.895L64.752 122.681C64.8854 122.555 64.9978 122.402 65.0797 122.227L66.6201 123.343C66.5557 123.525 66.4901 123.71 66.4269 123.895Z" fill="#211414"/>
<path d="M122.072 9.15527e-05C102.726 9.15527e-05 86.9873 15.7386 86.9873 35.0835C86.9873 54.4284 102.726 70.167 122.072 70.167C141.417 70.167 157.155 54.4284 157.155 35.0835C157.155 15.7386 141.417 9.15527e-05 122.072 9.15527e-05ZM122.072 3.55257C139.486 3.55257 153.603 17.67 153.603 35.0835C153.603 52.4971 139.486 66.6145 122.072 66.6145C104.657 66.6145 90.5409 52.4971 90.5409 35.0835C90.5409 17.67 104.657 3.55257 122.072 3.55257Z" fill="#211414"/>
<path d="M117.898 56.9812L131.497 31.5984C131.805 31.0237 131.369 30.3165 130.761 30.4061L121.715 31.7389L125.641 14.264C125.714 13.8493 125.221 13.6117 124.986 13.9481L109.851 38.2552C109.461 38.8124 109.874 39.6048 110.515 39.5316L120.488 38.3937L117.218 56.7049C117.139 57.1465 117.69 57.3703 117.898 56.9812Z" fill="#70AB13"/>
<path d="M114.032 36.8992C113.782 36.9208 113.616 36.6248 113.749 36.3946L125.512 13.8834C125.363 13.7558 125.129 13.7476 124.987 13.9505L109.851 38.255C109.461 38.8123 109.874 39.6045 110.515 39.5314L120.488 38.3934L117.218 56.7046C117.174 56.9516 117.328 57.1253 117.508 57.1669L123.11 37.9497C123.373 37.0489 122.71 36.1465 121.841 36.2219L114.032 36.8992Z" fill="#5A890F"/>
</svg>
