<svg width="76" height="67" viewBox="0 0 76 67" fill="none" xmlns="http://www.w3.org/2000/svg">
<ellipse cx="36.9313" cy="46.2942" rx="35.265" ry="11" transform="rotate(16.0001 36.9313 46.2942)" fill="black" fill-opacity="0.2"/>
<path d="M16.9506 8.44436C5.54026 16.5984 4.82578 28.4074 6.55153 33.2804L8.25201 33.6575C12.3389 26.3016 20.4323 11.0307 20.1104 8.79431C19.7885 6.55795 18.2625 7.81653 16.9506 8.44436Z" fill="#C1C1C1"/>
<path fill-rule="evenodd" clip-rule="evenodd" d="M20.5673 9.44983C20.6132 9.19514 20.6369 8.94208 20.6054 8.72302C20.5188 8.12169 20.3383 7.63866 19.9987 7.33506C19.6322 7.00748 19.1892 6.98018 18.8066 7.05436C18.438 7.12584 18.0594 7.30215 17.7236 7.47516C17.5759 7.55125 17.4396 7.62481 17.3083 7.69568C17.1132 7.80097 16.9291 7.90034 16.7348 7.9933L16.6955 8.01214L16.6599 8.03751C5.0612 16.3262 4.2831 28.3725 6.08032 33.4472L6.17283 33.7085L8.50802 34.2263L8.68918 33.9003C10.7349 30.2182 13.7839 24.5544 16.2823 19.5286C17.5311 17.0167 18.6459 14.6569 19.4295 12.7809C19.821 11.8437 20.1336 11.0181 20.3389 10.3498C20.4416 10.0158 20.52 9.71287 20.5673 9.44983ZM7.99598 33.0885L6.93553 32.8533C5.39727 28.03 6.22069 16.7492 17.2067 8.87592C17.4043 8.7798 17.619 8.66428 17.8215 8.55532C17.9487 8.48686 18.0712 8.42098 18.1816 8.36412C18.5109 8.19445 18.7799 8.07817 18.997 8.03607C19.2002 7.99667 19.281 8.03481 19.3322 8.08059C19.4103 8.15037 19.5412 8.34865 19.6156 8.8655C19.6243 8.92598 19.6225 9.0543 19.5832 9.27258C19.5454 9.48252 19.4789 9.74414 19.3831 10.0561C19.1914 10.6798 18.8927 11.4715 18.5068 12.3955C17.7357 14.2416 16.6321 16.5786 15.3869 19.0834C12.9699 23.9453 10.033 29.4121 7.99598 33.0885Z" fill="black"/>
<path d="M35.1856 46.9374C44.5632 58.2082 49.2115 56.9536 53.8035 55.8171C52.9715 48.767 57.1758 33.0778 60.2542 25.9159C55.9632 21.2659 50.8412 25.9397 47.6312 25.3918C32.5174 22.8119 30.7536 15.8958 28.4387 10.7417C20.6769 -6.54002 -6.98873 36.8028 15.2877 38.3151C20.3315 38.6575 29.9065 42.5394 35.1856 46.9374Z" fill="#FF5939"/>
<path fill-rule="evenodd" clip-rule="evenodd" d="M54.3518 56.1965L54.3001 55.7585C53.8953 52.3285 54.7179 46.7195 56.0494 41.0222C57.3767 35.3429 59.1893 29.6598 60.7136 26.1133L60.8418 25.8152L60.6217 25.5768C59.4814 24.341 58.2637 23.7049 57.0201 23.4588C55.7879 23.2151 54.5662 23.3615 53.4236 23.6287C52.6872 23.8009 51.9444 24.0347 51.2517 24.2528C50.89 24.3667 50.542 24.4763 50.2157 24.5705C49.2203 24.8581 48.3957 25.015 47.7155 24.8989C40.2292 23.621 36.119 21.282 33.5941 18.6836C31.4589 16.4863 30.4266 14.0833 29.4521 11.8148C29.2667 11.3831 29.0834 10.9564 28.8949 10.5368C27.8866 8.29167 26.5153 6.94845 24.8839 6.42647C23.2615 5.90733 21.4918 6.23625 19.7545 7.09878C16.2929 8.81737 12.7409 12.7568 10.1656 17.2312C7.59049 21.7053 5.92267 26.8345 6.35598 30.9903C6.57397 33.0811 7.32766 34.9522 8.79385 36.3492C10.2597 37.746 12.3856 38.6192 15.254 38.8139C17.6951 38.9796 21.2904 40.0117 24.9532 41.5656C28.5937 43.1101 32.2433 45.1459 34.8307 47.2925C39.528 52.931 43.0998 55.5108 46.1335 56.5051C49.1354 57.4889 51.5411 56.8928 53.7938 56.3346C53.8371 56.3239 53.8805 56.3132 53.9237 56.3025L54.3518 56.1965ZM53.2623 55.4358C51.1129 55.9641 49.0333 56.4031 46.445 55.5548C43.6685 54.6449 40.2359 52.2253 35.57 46.6176L35.5408 46.5825L35.5057 46.5532C32.8161 44.3125 29.0552 42.2197 25.3438 40.6451C21.6384 39.073 17.9243 37.9929 15.3217 37.8162C12.6209 37.6329 10.7384 36.8208 9.48368 35.6253C8.22931 34.4301 7.55029 32.802 7.35058 30.8866C6.94851 27.0304 8.50537 22.1205 11.0323 17.73C13.5591 13.3399 16.9866 9.58944 20.1992 7.99447C21.799 7.20021 23.2901 6.96644 24.5792 7.3789C25.8594 7.78853 27.0506 8.87121 27.9827 10.9465C28.1607 11.3429 28.3369 11.754 28.5178 12.1761C29.4913 14.4478 30.602 17.0394 32.8769 19.3805C35.5911 22.1736 39.9196 24.5826 47.5472 25.8846C48.472 26.0425 49.4914 25.8206 50.4932 25.5313C50.8676 25.4231 51.238 25.3063 51.6097 25.189C52.2762 24.9787 52.9467 24.7672 53.6513 24.6024C54.7268 24.3509 55.7908 24.235 56.826 24.4398C57.7748 24.6275 58.7302 25.0906 59.665 26.0241C58.1399 29.6523 56.375 35.2349 55.0756 40.7946C53.7962 46.2693 52.9489 51.7995 53.2623 55.4358Z" fill="black"/>
<path d="M53.621 52.2583C53.407 53.3133 53.6862 55.7607 53.6862 55.7607C48.0554 57.5588 44.5658 55.171 43.3258 54.4351C42.8951 53.8825 43.9208 51.5702 44.4471 50.5677C49.6899 53.6467 52.526 53.0378 53.621 52.2583Z" fill="#CE3E23"/>
<path d="M49.6032 35.8147C53.838 34.9417 55.9207 36.7211 56.2682 37.61C58.2305 30.099 59.7118 26.7506 60.137 25.8591C57.7586 23.5676 54.8697 23.8626 54.0558 24.0529C49.8933 31.3246 49.353 34.924 49.6032 35.8147Z" fill="#CE3E23"/>
<path d="M32.2903 40.575L36.0464 47.8627C33.5094 44.6907 26.2411 41.1277 22.7356 39.9861L32.2903 40.575Z" fill="#CE3E23"/>
<path d="M31.0939 32.7724C31.9467 33.4105 41.8192 27.8741 46.4644 25.4129C34.2693 22.7786 31.7858 17.9781 29.9077 14.3342C28.655 16.051 30.028 31.9747 31.0939 32.7724Z" fill="#CE3E23"/>
<path d="M23.8645 14.5711C23.8466 19.229 27.6332 28.8076 29.814 33.0298C23.7211 28.822 18.9551 18.0152 20.4074 13.9347C21.6837 10.3489 23.8846 9.37365 23.8645 14.5711Z" fill="#CE3E23"/>
<path d="M53.0442 25.0101C53.9242 27.4949 43.9659 29.791 38.5829 30.7665C40.5191 29.7396 47.7615 26.6851 48.2328 26.9099C50.6802 26.6308 52.8702 25.0717 53.0442 25.0101Z" fill="white" fill-opacity="0.3"/>
<path d="M25.6321 38.7644C24.6358 37.942 16.7727 36.5157 12.9657 35.9053C7.29153 35.3684 8.88353 32.3672 8.45179 28.69C7.67455 22.0709 12.955 25.92 15.6924 28.672C18.5958 31.5611 24.6296 35.1042 27.2837 36.5147C33.0739 40.1441 26.8775 39.7923 25.6321 38.7644Z" fill="white" fill-opacity="0.3"/>
<path d="M30.2061 30.3872C31.784 34.8425 30.0514 32.5312 28.9879 30.8186C28.4179 30.3153 26.0041 21.1028 24.5739 16.419C23.0186 8.15593 25.8192 10.0068 27.4002 11.4028C28.8251 12.661 28.571 24.111 30.2061 30.3872Z" fill="white" fill-opacity="0.3"/>
<path d="M52.5884 37.3633C50.8335 36.8781 48.6346 39.2931 47.6769 42.7574C46.7192 46.2216 47.3655 49.4231 49.1204 49.9083C50.8752 50.3934 53.0742 47.9784 54.0319 44.5142C54.9895 41.05 54.3433 37.8484 52.5884 37.3633Z" fill="white" fill-opacity="0.3"/>
<path d="M56.1547 54.8148C63.4772 50.9306 68.6445 22.8762 61.4074 29.26C52.8098 42.4364 54.3233 51.7867 56.1547 54.8148Z" fill="#E9E9E9"/>
<path fill-rule="evenodd" clip-rule="evenodd" d="M56.3446 54.117C54.7597 50.883 53.6984 42.0228 61.789 29.5909C62.6444 28.8501 63.1532 28.7644 63.4145 28.8441C63.6752 28.9236 63.9804 29.2593 64.1831 30.1273C64.5764 31.8109 64.3997 34.7516 63.7506 38.0915C63.1056 41.4099 62.0101 45.0429 60.6278 48.0783C59.9367 49.5958 59.1789 50.953 58.3772 52.0436C57.7102 52.9511 57.0272 53.6543 56.3446 54.117ZM63.7062 27.8876C62.8986 27.6413 62.0005 28.0705 61.0771 28.885L61.0262 28.9299L60.9891 28.9867C52.3279 42.2608 53.7627 51.8251 55.7274 55.0736L55.972 55.478L56.3895 55.2565C57.3974 54.7219 58.3322 53.7933 59.183 52.6359C60.0372 51.4737 60.8279 50.0518 61.5379 48.4927C62.9577 45.3749 64.0747 41.665 64.7322 38.2823C65.3855 34.921 65.6014 31.8023 65.1569 29.8998C64.9408 28.9746 64.5196 28.1356 63.7062 27.8876Z" fill="black"/>
<path d="M66.9294 30.1135C68.4272 40.5185 64.4546 47.7362 60.7073 53.4702C59.3763 55.5068 58.1319 56.648 57.0577 57.18C56.5413 56.9629 56.225 56.0777 56.0809 54.7349C63.4033 50.8507 68.5707 22.7963 61.3335 29.1801C62.4098 27.2408 63.5827 26.0551 64.7873 26.1135C65.8396 27.0168 66.6881 28.4365 66.9294 30.1135Z" fill="#989898"/>
<path fill-rule="evenodd" clip-rule="evenodd" d="M66.4348 30.1847C67.9062 40.4063 64.0158 47.4941 60.289 53.1967C59.1018 55.0134 58.0145 56.0555 57.1024 56.5881C57.0403 56.5084 56.9687 56.3856 56.8961 56.1986C56.7808 55.9018 56.6863 55.502 56.6176 55.0034C57.5107 54.4527 58.3438 53.5969 59.1089 52.556C59.9632 51.3938 60.7538 49.9719 61.4638 48.4128C62.8837 45.2951 64.0007 41.5852 64.6582 38.2024C65.3115 34.8411 65.5273 31.7224 65.0829 29.8199C64.8668 28.8947 64.4455 28.0557 63.6321 27.8077C63.3896 27.7337 63.1388 27.7207 62.8817 27.7607C63.0386 27.5743 63.1951 27.409 63.3509 27.2658C63.8074 26.8462 64.2229 26.6465 64.5998 26.6157C65.4981 27.4453 66.2217 28.7041 66.4348 30.1847ZM61.1261 53.7438C64.894 47.9784 68.9488 40.6308 67.4246 30.0422C67.1658 28.2441 66.2563 26.7153 65.1133 25.7341L64.9831 25.6224L64.8118 25.6141C64.0265 25.576 63.3073 25.9477 62.6742 26.5296C62.0407 27.1118 61.4478 27.9443 60.8966 28.9374L61.6646 29.555C62.5505 28.7736 63.074 28.683 63.3405 28.7642C63.6011 28.8437 63.9063 29.1795 64.1091 30.0474C64.5024 31.731 64.3257 34.6718 63.6765 38.0116C63.0315 41.33 61.9361 44.963 60.5537 47.9984C59.8627 49.5159 59.1048 50.8731 58.3032 51.9637C57.4981 53.0591 56.6696 53.8568 55.8469 54.2932L55.5479 54.4518L55.584 54.7883C55.6583 55.4802 55.7797 56.0861 55.9639 56.5605C56.1417 57.0187 56.4167 57.4528 56.8641 57.6409L57.0749 57.7295L57.2798 57.6281C58.4646 57.0413 59.7693 55.82 61.1261 53.7438Z" fill="black"/>
<path d="M53.3922 55.7666C52.8601 44.7517 57.4069 31.9838 59.7468 26.9767C60.7895 24.5392 63.0621 24.6322 64.7872 26.1131C58.8495 25.8255 53.6841 55.7612 57.0575 57.1796C55.1073 58.1455 53.7183 57.1035 53.3922 55.7666Z" fill="#C1C1C1"/>
<path fill-rule="evenodd" clip-rule="evenodd" d="M58.2589 57.1425L57.2511 56.7187C57.1976 56.6962 57.0918 56.6177 56.9716 56.3733C56.8543 56.1345 56.7503 55.7909 56.6695 55.338C56.5085 54.4343 56.4558 53.1897 56.5066 51.7037C56.608 48.7384 57.118 44.9021 57.9196 41.11C58.7217 37.3156 59.8095 33.5953 61.055 30.8533C61.679 29.4796 62.3304 28.3791 62.986 27.6387C63.6499 26.889 64.2452 26.5874 64.7627 26.6125L66.2184 26.683L65.1126 25.7337C64.1811 24.934 63.0498 24.4633 61.9585 24.5783C60.8355 24.6966 59.8701 25.4224 59.2902 26.7723C56.9351 31.8147 52.355 44.6627 52.8925 55.7907L52.8949 55.8386L52.9062 55.8851C53.0997 56.6784 53.614 57.406 54.3971 57.7864C55.1926 58.1728 56.1919 58.1662 57.2792 57.6277L58.2589 57.1425ZM53.889 55.6922C53.3789 44.807 57.8773 32.1576 60.1995 27.1884L60.203 27.1809L60.2063 27.1733C60.6694 26.0907 61.3601 25.6468 62.0633 25.5727C62.5307 25.5235 63.0508 25.6327 63.5712 25.8931C63.0916 26.134 62.6458 26.5145 62.2373 26.9758C61.4871 27.823 60.7871 29.0251 60.1446 30.4397C58.8571 33.274 57.751 37.0724 56.9412 40.9032C56.1309 44.7364 55.611 48.6321 55.5072 51.6696C55.4553 53.1851 55.5061 54.5096 55.6851 55.5134C55.7743 56.0143 55.8995 56.459 56.0742 56.8144C56.1024 56.8718 56.1327 56.9284 56.1652 56.9836C55.6179 57.1204 55.1729 57.0515 54.834 56.8869C54.3667 56.6599 54.0291 56.2167 53.889 55.6922Z" fill="black"/>
<path d="M62.24 30.9351C61.1057 30.7183 59.7053 33.0587 59.1121 36.1624C58.5189 39.2662 58.9575 41.9581 60.0918 42.1749C61.226 42.3916 62.6264 40.0513 63.2196 36.9475C63.8128 33.8437 63.3742 31.1519 62.24 30.9351Z" fill="#6C6C6C"/>
<path d="M61.2821 49.8389C57.2215 35.6079 63.331 31.2897 65.2632 47.2538C66.1424 50.5659 61.7969 52.3986 61.2821 49.8389Z" fill="#C2C2C2"/>
<path fill-rule="evenodd" clip-rule="evenodd" d="M65.7558 47.1601C65.2697 43.1635 64.5188 40.3887 63.7055 38.7042C63.3012 37.8667 62.8572 37.2471 62.3776 36.8992C62.1324 36.7213 61.8591 36.6011 61.5656 36.5803C61.2655 36.559 60.9855 36.6448 60.7433 36.8105C60.2834 37.1251 59.9722 37.7146 59.7679 38.4184C59.558 39.1416 59.4361 40.0719 59.4197 41.1789C59.3869 43.3918 59.7751 46.3733 60.7964 49.9579C60.9629 50.7538 61.4521 51.2694 62.1048 51.4605C62.7289 51.6431 63.4288 51.5089 64.03 51.1899C65.2361 50.55 66.2428 49.0585 65.7558 47.1601ZM62.3857 50.5007C62.1119 50.4206 61.8676 50.2126 61.7726 49.7403L61.7686 49.7208L61.7632 49.7017C60.758 46.1788 60.3885 43.2903 60.4196 41.1937C60.4351 40.1441 60.5508 39.3085 60.7283 38.6972C60.9113 38.0665 61.1371 37.7527 61.3079 37.6358C61.381 37.5859 61.4397 37.5739 61.4948 37.5778C61.5565 37.5822 61.6547 37.6102 61.7904 37.7087C62.0728 37.9135 62.4283 38.3588 62.805 39.139C63.5515 40.6853 64.2869 43.3465 64.7671 47.3139L64.7713 47.3484L64.7802 47.3821C65.1511 48.7794 64.4295 49.8459 63.5613 50.3066C63.1217 50.5398 62.6936 50.5908 62.3857 50.5007Z" fill="black"/>
<path d="M63.7265 46.2316C63.2058 45.9833 62.4818 46.415 62.1094 47.196C61.7369 47.9769 61.857 48.8113 62.3776 49.0596C62.8983 49.3079 63.6223 48.8761 63.9947 48.0952C64.3672 47.3143 64.2471 46.4799 63.7265 46.2316Z" fill="#989898"/>
<path fill-rule="evenodd" clip-rule="evenodd" d="M63.4329 47.1587C63.4329 47.1586 63.4309 47.1589 63.4267 47.1604C63.4307 47.1597 63.4328 47.1589 63.4329 47.1587ZM63.1975 47.3406C63.1811 47.4359 63.1486 47.5463 63.0921 47.6647C63.0357 47.7831 62.9704 47.8779 62.9066 47.9506C62.9229 47.8552 62.9555 47.7448 63.012 47.6265C63.0684 47.5081 63.1337 47.4133 63.1975 47.3406ZM62.9134 48.248C62.9135 48.2478 62.9128 48.2457 62.9108 48.2421C62.9123 48.2463 62.9133 48.2481 62.9134 48.248ZM62.6712 48.1324C62.6711 48.1326 62.6732 48.1322 62.6774 48.1307C62.6734 48.1315 62.6712 48.1323 62.6712 48.1324ZM63.1933 47.0491C63.1918 47.0449 63.1908 47.0431 63.1907 47.0432C63.1906 47.0434 63.1913 47.0455 63.1933 47.0491ZM62.1094 47.196C62.4818 46.415 63.2058 45.9833 63.7265 46.2316C64.2471 46.4799 64.3672 47.3143 63.9947 48.0952C63.6223 48.8761 62.8983 49.3079 62.3776 49.0596C61.857 48.8113 61.7369 47.9769 62.1094 47.196Z" fill="black"/>
</svg>
