<svg width="49" height="40" viewBox="0 0 49 40" fill="none" xmlns="http://www.w3.org/2000/svg">
<ellipse cx="24" cy="32.5" rx="23" ry="7.5" fill="black" fill-opacity="0.2"/>
<path d="M15.3065 1.47955L44.1908 10.8553C50.1583 19.6125 45.71 27.463 42.7399 30.2937L12.0834 35.2254L15.3065 1.47955Z" fill="#D11E22"/>
<path d="M22.4983 25.4371L46.8427 22.4995C46.4192 25.8137 43.9439 29.0922 42.739 30.2936L16.0266 34.2871L22.4983 25.4371Z" fill="#CA1116"/>
<path d="M16.9261 3.3614L44.9739 12.1465C44.6629 11.595 44.3519 11.0435 44.1898 10.8553L15.844 1.34359L16.9261 3.3614Z" fill="#CA1116"/>
<path d="M1.77895 17.199C1.43175 21.8508 2.40899 26.1365 4.24373 29.3028C6.07995 32.4716 8.74243 34.4747 11.7697 34.7006C14.7969 34.9266 17.7273 33.3409 20.0135 30.4798C22.298 27.621 23.9006 23.5278 24.2478 18.876C24.595 14.2242 23.6178 9.93848 21.783 6.77222C19.9468 3.60341 17.2843 1.60029 14.2571 1.37434C11.2298 1.14839 8.29951 2.73407 6.01323 5.59519C3.72878 8.454 2.12616 12.5472 1.77895 17.199Z" fill="#EAE5EB" stroke="#CA1116"/>
<path d="M6.56276 18.6126C7.14026 10.8753 13.0341 4.35183 20.1813 5.32627C24.8691 9.68724 26.596 26.8634 16.1022 33.0996C10.5582 32.1074 6.01365 25.9696 6.56276 18.6126Z" fill="#C8BCC8"/>
</svg>
