<svg width="28" height="29" viewBox="0 0 28 29" fill="none" xmlns="http://www.w3.org/2000/svg">
<ellipse cx="14" cy="21.5" rx="14" ry="7.5" fill="black" fill-opacity="0.2"/>
<path d="M0.267931 10.2653L3.21982 14.7977L3.21146 14.806L2.21635 16.3029L1.27141 17.7161C0.796392 18.4292 0.937204 19.386 1.59754 19.9321L6.07973 23.6199C6.58977 24.0429 7.30146 24.1249 7.89434 23.8289L11.2225 22.1648L12.9368 21.3119L12.9535 21.3035L16.4322 23.6282C16.8687 23.9202 17.4177 23.9885 17.9124 23.8122L24.3095 21.5711C24.7599 21.4141 25.1199 21.0693 25.2963 20.6262L27.8217 14.5301C28.0885 13.874 27.9145 13.121 27.3868 12.6485L25.3214 10.7921L23.8663 9.4876L23.883 9.36217L23.8914 9.312L24.46 4.81308C24.5294 4.25816 24.3159 3.70543 23.8914 3.34132L20.513 0.406157C19.9079 -0.115888 19.0181 -0.13691 18.389 0.355982L15.295 2.75596L15.2866 2.7476L13.8399 1.78593L11.8664 0.464693C11.4007 0.155495 10.8125 0.0960413 10.2943 0.305809L3.34525 3.19916C2.97363 3.35117 2.67031 3.63368 2.4923 3.99358L0.175945 8.6012C-0.0882225 9.13347 -0.0532913 9.76539 0.267931 10.2653Z" fill="#F3D55B"/>
<path d="M9.55797 6.51064C9.69788 6.68231 9.90142 6.78989 10.1221 6.80881C10.3427 6.82772 10.5616 6.75634 10.7287 6.61099L15.2861 2.74761L13.8395 1.78595L9.64995 5.33992C9.48112 5.48209 9.37633 5.686 9.35905 5.90604C9.34176 6.12607 9.41341 6.34386 9.55797 6.51064Z" fill="#F0C419"/>
<path d="M2.21651 16.3029L4.34889 19.422C4.508 19.6476 4.76689 19.7817 5.04296 19.7816C5.20939 19.7796 5.37182 19.7303 5.51125 19.6394C5.89223 19.3785 5.98957 18.8581 5.72867 18.4771L3.21162 14.806L2.21651 16.3029Z" fill="#F0C419"/>
<path d="M22.729 15.567C22.6874 15.7855 22.7347 16.0116 22.8602 16.1952C22.9857 16.3788 23.1793 16.5048 23.398 16.5454C23.4476 16.5551 23.4979 16.5607 23.5485 16.5621C23.9534 16.5623 24.3012 16.2743 24.3763 15.8764L25.3213 10.7921L23.8663 9.48762L23.883 9.36218L22.729 15.567Z" fill="#F0C419"/>
<path d="M9.89265 21.2785L11.2223 22.1649L12.9365 21.3119C12.93 21.297 12.918 21.285 12.9031 21.2785L10.8209 19.882C10.4352 19.6256 9.91482 19.7305 9.6585 20.1161C9.40218 20.5017 9.50702 21.0221 9.89265 21.2785Z" fill="#F0C419"/>
<path d="M16.2069 17.2746C16.5448 17.2745 16.8495 17.071 16.9791 16.7589C17.1086 16.4467 17.0375 16.0873 16.7989 15.848L14.756 13.8025C14.4739 13.5203 14.4305 13.0781 14.6523 12.7464L16.6777 9.71339C16.8572 9.46528 16.8868 9.13888 16.7547 8.86255C16.6227 8.58623 16.3501 8.4042 16.0443 8.38807C15.7385 8.37193 15.4483 8.52428 15.2879 8.78518L13.2617 11.8165C12.6003 12.8116 12.7299 14.1347 13.5719 14.9825L15.6148 17.0304C15.772 17.1871 15.985 17.275 16.2069 17.2746Z" fill="#F0C419"/>
<path d="M8.09124 15.8739C8.46789 15.8737 8.79793 15.6217 8.89737 15.2584L9.27785 13.8711C9.56333 12.8291 9.14961 11.7213 8.25096 11.1216L7.16804 10.3982C6.91988 10.2216 6.59531 10.1939 6.32079 10.3259C6.04627 10.4579 5.86524 10.7287 5.84822 11.0328C5.83121 11.3369 5.98091 11.6263 6.23899 11.788L7.32609 12.5122C7.62695 12.7127 7.76492 13.0838 7.66811 13.4321L7.28763 14.8194C7.22894 15.0333 7.25764 15.2617 7.36742 15.4545C7.4772 15.6472 7.65907 15.7885 7.87299 15.8471C7.94428 15.8654 8.01764 15.8744 8.09124 15.8739Z" fill="#F0C419"/>
</svg>
