<svg width="118" height="175" viewBox="0 0 118 175" fill="none" xmlns="http://www.w3.org/2000/svg">
<path d="M16 156H101V161H16V156Z" fill="#3A383C"/>
<path d="M113.5 149C113.5 140 100 140.5 100 149V159.25V169.5C100 176.5 113.5 176.5 113.5 169.5V149Z" fill="#615E63"/>
<path d="M17.5 149C17.5 140 4 140.5 4 149V159.25V169.5C4 176.5 17.5 176.5 17.5 169.5V149Z" fill="#615E63"/>
<path d="M11.6927 5.68966L7 33H112C110.24 26.1724 107.131 10.8103 105.547 5.68966C104.668 2.84483 103.201 -6.65138e-05 97.3352 1.16634e-09H19.905C14.1004 1.16634e-09 12.0838 3.22414 11.6927 5.68966Z" fill="#FF1C33"/>
<path d="M19.933 9L16 33H104C102.525 27 99.9196 13.5 98.5922 9C97.8548 6.5 96.6257 3.99994 91.7095 4H26.8156C21.9508 4 20.2607 6.83333 19.933 9Z" fill="#DB0405"/>
<path d="M26.2179 13.9655L23 33H95C93.7933 28.2414 91.6615 17.5345 90.5754 13.9655C89.9721 11.9828 88.9665 9.99995 84.9441 10H31.8492C27.8689 10 26.486 12.2471 26.2179 13.9655Z" fill="#A71113"/>
<path d="M0 33H118V41H0V33Z" fill="#DB0405"/>
<path d="M0 41H118V49H0V41Z" fill="#FF1C33"/>
<path d="M109.5 49H8.5C8.5 49 18 131.5 19 144C20 156.5 27 164.5 31.5 164.5H87C96.5 164 98 152.5 99.5 144C101 135.5 109.5 49 109.5 49Z" fill="#DB0405"/>
<path d="M89 55H16.5C19.3333 84.1667 25.4 144.1 27 150.5C28.6 156.9 33 159.167 35 159.5H74C78.5 159.5 81.3125 153 82 147.5C82.6875 142 89 55 89 55Z" fill="#FF1C33"/>
<path d="M57.527 97.5832L54.5843 99.2647L64.5683 100.841L66.9855 92.2233L64.148 93.7997L59.734 86.2329C57.6321 85.6444 54.9346 89.4208 53.8486 91.3826L57.527 97.5832Z" fill="white"/>
<path d="M49.1185 98.1087L42.0771 94.7456C43.4434 92.3284 45.5453 88.9654 46.8064 87.0737C48.0676 85.182 48.6981 84.4013 51.5357 84.131C54.3733 83.8608 56.531 83.8616 59.523 85.6023C56.7484 84.6775 51.4306 93.5546 49.1185 98.1087Z" fill="white" fill-opacity="0.6"/>
<path d="M45.8064 104.946L48.7674 106.595L44.9534 97.2348L36.3274 99.6227L39.1441 101.236L32.8292 111.301C34.1954 112.927 38.3655 113.538 40.6062 113.453L45.8064 104.946Z" fill="white"/>
<path d="M51.1153 113.978L51.1152 121.554C48.1307 121.797 43.3382 121.524 40.9054 121.554C38.4727 121.583 37.413 121.503 35.722 119.284C34.0309 117.065 32.3742 114.852 32.5134 111.351C33.0385 114.203 45.6247 114.655 51.1153 113.978Z" fill="white" fill-opacity="0.6"/>
<path d="M58.7979 113.927L58.7507 110.5L52.3259 118.318L58.909 124.918L58.9042 121.637L67.9574 121.775C69.5421 120.263 67.4776 115.953 66.2472 113.987L58.7979 113.927Z" fill="white"/>
<path d="M61.3099 104.309L67.7205 100.211C69.1287 102.604 72.3892 107.315 73.3953 109.354C74.4013 111.393 75.0026 112.648 73.8157 115.239C72.6288 117.831 71.7762 120.037 68.7713 121.755C70.9611 119.817 64.0943 108.591 61.3099 104.309Z" fill="white" fill-opacity="0.6"/>
<path d="M74.7812 71.8697C74.7812 71.8168 74.7987 71.7464 74.8165 71.6757L78.0969 60.9172C78.2909 60.2998 79.0846 60 79.8959 60C80.7073 60 81.5007 60.2998 81.6947 60.9172L84.993 71.6757C85.0106 71.7462 85.0283 71.8168 85.0283 71.8697C85.0283 72.5223 84.0229 72.9982 83.2645 72.9982C82.8236 72.9982 82.4708 72.8571 82.365 72.4868L81.7653 70.2821L81.1837 68.166L79.8962 63.4393L78.6086 68.166L78.044 70.2821L77.4443 72.4868C77.3385 72.8569 76.9857 72.9982 76.5448 72.9982C75.7868 72.9985 74.7812 72.5223 74.7812 71.8697Z" fill="#FCFCFC"/>
<path d="M63.7939 71.8697C63.7939 71.8168 63.8114 71.7464 63.8292 71.6757L67.1096 60.9172C67.3036 60.2998 68.0973 60 68.9086 60C69.72 60 70.5134 60.2998 70.7074 60.9172L74.0057 71.6757C74.0233 71.7462 74.0409 71.8168 74.0409 71.8697C74.0409 72.5223 73.0356 72.9982 72.2772 72.9982C71.8362 72.9982 71.4835 72.8571 71.3777 72.4868L70.778 70.2821L70.1964 68.166L68.9089 63.4393L67.6213 68.166L67.0567 70.2821L66.457 72.4868C66.3512 72.8569 65.9984 72.9982 65.5575 72.9982C64.7995 72.9985 63.7939 72.5223 63.7939 71.8697Z" fill="#FCFCFC"/>
<path d="M52.8066 71.8697C52.8066 71.8168 52.8241 71.7464 52.8419 71.6757L56.1223 60.9172C56.3163 60.2998 57.11 60 57.9213 60C58.7327 60 59.5261 60.2998 59.7201 60.9172L63.0184 71.6757C63.036 71.7462 63.0536 71.8168 63.0536 71.8697C63.0536 72.5223 62.0483 72.9982 61.2899 72.9982C60.8489 72.9982 60.4962 72.8571 60.3904 72.4868L59.7907 70.2821H56.0694L55.4697 72.4868C55.3639 72.8569 55.0111 72.9982 54.5702 72.9982C53.8122 72.9985 52.8066 72.5223 52.8066 71.8697ZM59.2091 68.166L57.9215 63.4393L56.634 68.166H59.2091Z" fill="#FCFCFC"/>
<path d="M52.0714 60C52.6585 60 52.9075 60.6405 52.9075 61.2271C52.9075 61.9027 52.6049 62.4898 52.0714 62.4898H49.6174V72.1464C49.6174 72.7154 48.9238 73 48.2305 73C47.5371 73 46.8433 72.7154 46.8433 72.1464V62.4898H44.3893C43.8558 62.4898 43.5537 61.9029 43.5537 61.2271C43.5537 60.6402 43.8027 60 44.3893 60H52.0714Z" fill="#FCFCFC"/>
<path d="M37.074 65.424H39.7416C40.2752 65.424 40.5773 65.9398 40.5773 66.5089C40.5773 66.9888 40.3283 67.5582 39.7416 67.5582H37.074V70.5815H41.84C42.3735 70.5815 42.6761 71.1506 42.6761 71.8084C42.6761 72.3775 42.4271 73 41.84 73H35.5089C34.9043 73 34.2998 72.7154 34.2998 72.1463V60.8537C34.2998 60.2846 34.9043 60 35.5089 60H41.84C42.4271 60 42.6761 60.6225 42.6761 61.1916C42.6761 61.8496 42.3735 62.4185 41.84 62.4185H37.074V65.424Z" fill="#FCFCFC"/>
<path d="M21 72.202C21.0037 72.274 21.0077 72.3456 21.023 72.3956C21.2127 73.0124 21.7338 72.9975 22.3752 72.9975C22.9343 72.9975 23.2436 72.5826 23.2361 72.202V69.9498V67.7855L23.2361 62.9437L25.8076 71.8425C26.3211 72.5909 27.9227 72.5939 28.4769 71.7491L31.0624 62.8103V67.7486V69.9128V72.168C31.0549 72.5486 31.3102 72.8834 31.6901 72.9159C32.2491 72.9636 32.9627 72.9129 33.1121 72.427C33.1275 72.377 33.1314 72.3055 33.1351 72.2334V61.2933C33.1311 60.6534 32.476 60 31.3291 60C30.4052 60 30.0437 60.2555 29.6809 60.7826C29.3181 61.3097 27.1492 69.4946 27.1492 69.4946C27.1492 69.4946 24.9546 61.1874 24.5778 60.7826C24.2009 60.3779 23.5715 60 22.7889 60C21.9397 60 21.004 60.6534 21 61.2933L21 72.202Z" fill="#FCFCFC"/>
</svg>
