<svg width="118" height="175" viewBox="0 0 118 175" fill="none" xmlns="http://www.w3.org/2000/svg">
<path d="M16 156H101V161H16V156Z" fill="#3A383C"/>
<path d="M113.5 149C113.5 140 100 140.5 100 149V159.25V169.5C100 176.5 113.5 176.5 113.5 169.5V149Z" fill="#615E63"/>
<path d="M17.5 149C17.5 140 4 140.5 4 149V159.25V169.5C4 176.5 17.5 176.5 17.5 169.5V149Z" fill="#615E63"/>
<path d="M11.6927 5.68966L7 33H112C110.24 26.1724 107.131 10.8103 105.547 5.68966C104.668 2.84483 103.201 -6.65138e-05 97.3352 1.16634e-09H19.905C14.1004 1.16634e-09 12.0838 3.22414 11.6927 5.68966Z" fill="#FCD846"/>
<path d="M19.933 9L16 33H104C102.525 27 99.9196 13.5 98.5922 9C97.8548 6.5 96.6257 3.99994 91.7095 4H26.8156C21.9508 4 20.2607 6.83333 19.933 9Z" fill="#FAB615"/>
<path d="M26.2179 13.9655L23 33H95C93.7933 28.2414 91.6615 17.5345 90.5754 13.9655C89.9721 11.9828 88.9665 9.99995 84.9441 10H31.8492C27.8689 10 26.486 12.2471 26.2179 13.9655Z" fill="#F68E1F"/>
<path d="M0 33H118V41H0V33Z" fill="#FFD647"/>
<path d="M0 41H118V49H0V41Z" fill="#FFC132"/>
<path d="M109.5 49H8.5C8.5 49 18 131.5 19 144C20 156.5 27 164.5 31.5 164.5H87C96.5 164 98 152.5 99.5 144C101 135.5 109.5 49 109.5 49Z" fill="#FAB519"/>
<path d="M89 55H16.5C19.3333 84.1667 25.4 144.1 27 150.5C28.6 156.9 33 159.167 35 159.5H74C78.5 159.5 81.3125 153 82 147.5C82.6875 142 89 55 89 55Z" fill="#FFD647"/>
<path d="M57.527 97.5832L54.5843 99.2647L64.5683 100.841L66.9855 92.2233L64.148 93.7997L59.734 86.2329C57.6321 85.6444 54.9346 89.4208 53.8486 91.3826L57.527 97.5832Z" fill="white"/>
<path d="M49.1185 98.1087L42.0771 94.7456C43.4434 92.3284 45.5453 88.9654 46.8064 87.0737C48.0676 85.182 48.6981 84.4013 51.5357 84.131C54.3733 83.8608 56.531 83.8616 59.523 85.6023C56.7484 84.6775 51.4306 93.5546 49.1185 98.1087Z" fill="white" fill-opacity="0.6"/>
<path d="M45.8064 104.946L48.7674 106.595L44.9534 97.2348L36.3274 99.6227L39.1441 101.236L32.8292 111.301C34.1954 112.927 38.3655 113.538 40.6062 113.453L45.8064 104.946Z" fill="white"/>
<path d="M51.1153 113.978L51.1152 121.554C48.1307 121.797 43.3382 121.524 40.9054 121.554C38.4727 121.583 37.413 121.503 35.722 119.284C34.0309 117.065 32.3742 114.852 32.5134 111.351C33.0385 114.203 45.6247 114.655 51.1153 113.978Z" fill="white" fill-opacity="0.6"/>
<path d="M58.7979 113.927L58.7507 110.5L52.3259 118.318L58.909 124.918L58.9042 121.637L67.9574 121.775C69.5421 120.263 67.4776 115.953 66.2472 113.987L58.7979 113.927Z" fill="white"/>
<path d="M61.3099 104.309L67.7205 100.211C69.1287 102.604 72.3892 107.315 73.3953 109.354C74.4013 111.393 75.0026 112.648 73.8157 115.239C72.6288 117.831 71.7762 120.037 68.7713 121.755C70.9611 119.817 64.0943 108.591 61.3099 104.309Z" fill="white" fill-opacity="0.6"/>
<path d="M85.3893 65.1598C85.3893 65.1598 86.7684 68.2628 86.8834 68.4927C86.9983 68.7225 86.9723 68.7239 86.9723 68.8126C86.9723 69.5061 86.437 69.9998 85.6192 69.9998C85.2635 69.9998 84.9256 69.8575 84.73 69.484L83.3206 65.5046H81.8422V69.1461C81.8422 69.7152 81.1486 69.9998 80.4552 69.9998C79.7617 69.9998 79.0683 69.7152 79.0683 69.1461L79.0683 59.4184L79.0605 57.8537C79.0605 57.2846 79.7539 57 80.4475 57C81.1408 57 81.8344 57.2846 81.8344 57.8537L81.8422 61.8269L84.0404 57.5157C84.236 57.1423 84.5739 57 84.9296 57C85.7475 57 86.334 57.5598 86.334 58.2534C86.334 58.3421 86.3162 58.4666 86.2451 58.5733L83.6028 63.321C84.8895 63.321 85.0445 64.3553 85.3893 65.1598Z" fill="#FCFCFC"/>
<path d="M69.2109 57.8361C69.2109 57.2492 69.9045 57 70.5978 57C71.2914 57 71.9848 57.249 71.9848 57.8361V65.7588L74.7148 61.7688V57.8361C74.7148 57.7302 74.7374 57.6353 74.7785 57.5508C74.9651 57.1674 75.5335 57 76.1017 57C76.7953 57 77.4886 57.249 77.4886 57.8361V69.1461C77.4886 69.7152 76.795 69.9998 76.1017 69.9998C75.4081 69.9998 74.7148 69.7152 74.7148 69.1461V65.4168L71.9007 69.4648C71.8897 69.484 71.8777 69.5026 71.8647 69.5207C71.6367 69.8401 71.1172 69.9998 70.5978 69.9998C69.9043 69.9998 69.2109 69.7152 69.2109 69.1461V57.8361Z" fill="#FCFCFC"/>
<path d="M67.8937 57C68.4807 57 68.7296 57.6403 68.7296 58.2268C68.7296 58.9023 68.4271 59.4892 67.8937 59.4892H65.4403V69.1436C65.4403 69.7126 64.7469 69.9971 64.0537 69.9971C63.3605 69.9971 62.6668 69.7126 62.6668 69.1436V59.4892H60.2134C59.68 59.4892 59.3779 58.9025 59.3779 58.2268C59.3779 57.6401 59.6269 57 60.2134 57H67.8937Z" fill="#FCFCFC"/>
<path d="M49.5302 63.4276C49.5302 67.2962 51.812 69.9997 54.8513 69.9997H57.3613C58.0521 69.9997 58.4443 69.2628 58.4443 68.4108C58.4443 67.674 58.1215 66.868 57.3613 66.868L55.0816 66.8683C53.7918 66.8683 52.873 65.2514 52.873 63.6855C52.873 62.1197 53.7918 60.1313 55.0816 60.1313H57.3617C58.0525 60.1313 58.4442 59.3948 58.4442 58.5428C58.4442 57.8059 58.1215 56.9999 57.3613 56.9999H55.0816C51.9041 56.9999 49.5302 59.5591 49.5302 63.4276Z" fill="#FCFCFC"/>
<path d="M38.6963 68.867C38.6963 68.8141 38.7137 68.7438 38.7316 68.673L42.0112 57.917C42.2052 57.2998 42.9987 57 43.8098 57C44.621 57 45.4143 57.2998 45.6082 57.917L48.9057 68.673C48.9234 68.7436 48.941 68.8141 48.941 68.867C48.941 69.5194 47.9359 69.9953 47.1776 69.9953C46.7368 69.9953 46.3841 69.8543 46.2783 69.484L45.6788 67.2797H41.9583L41.3587 69.484C41.2529 69.854 40.9003 69.9953 40.4594 69.9953C39.7016 69.9956 38.6963 69.5194 38.6963 68.867ZM45.0973 65.1642L43.8101 60.4386L42.5228 65.1642H45.0973Z" fill="#FCFCFC"/>
<path d="M27.8633 68.867C27.8633 68.8141 27.8807 68.7438 27.8985 68.673L31.1782 57.917C31.3722 57.2998 32.1657 57 32.9768 57C33.788 57 34.5813 57.2998 34.7752 57.917L38.0727 68.673C38.0904 68.7436 38.108 68.8141 38.108 68.867C38.108 69.5194 37.1029 69.9953 36.3446 69.9953C35.9038 69.9953 35.5511 69.8543 35.4453 69.484L34.8458 67.2797L34.2643 65.1642L32.977 60.4386L31.6898 65.1642L31.1253 67.2797L30.5257 69.484C30.4199 69.854 30.0673 69.9953 29.6264 69.9953C28.8686 69.9956 27.8633 69.5194 27.8633 68.867Z" fill="#FCFCFC"/>
<path d="M21.7741 59.4899V69.1463C21.7741 69.7154 21.0805 69.9999 20.3871 69.9999C19.6938 69.9999 19 69.7154 19 69.1463V59.4899V57.8975C19 57.6732 19.0305 57.0002 19.7483 57.0002H25.8052C26.523 57.0002 26.5535 57.6732 26.5535 57.8975V59.4899V69.1463C26.5535 69.7154 25.8597 69.9999 25.1664 69.9999C24.473 69.9999 23.7795 69.7154 23.7795 69.1463L23.8764 59.4899H21.7741Z" fill="#FCFCFC"/>
</svg>
