<svg width="24" height="30" viewBox="0 0 24 30" fill="none" xmlns="http://www.w3.org/2000/svg">
<mask id="mask0" mask-type="alpha" maskUnits="userSpaceOnUse" x="0" y="0" width="24" height="30">
<path d="M23.5636 19.7108V10.5683C23.5636 5.06488 19.106 0.599367 13.6052 0.599367H10.1909C4.69006 0.599367 0.232422 5.06488 0.232422 10.5683V19.7108C0.232422 25.2174 4.69006 29.6797 10.1909 29.6797H13.6052C19.106 29.6797 23.5636 25.2174 23.5636 19.7108Z" fill="#667F90"/>
</mask>
<g mask="url(#mask0)">
<path d="M5.21277 29.5646C-26.5441 44.0823 -11.9937 57.6169 4.69112 62.636C5.72793 62.9464 6.84794 62.5885 7.34715 61.6237C7.92635 60.5089 7.42718 59.1225 6.25917 58.6605C-12.6177 51.1589 -13.5809 42.3813 7.31199 34.2095C8.60479 33.7066 9.14559 32.1465 8.58879 30.8748C8.02559 29.5742 6.50237 28.9752 5.21277 29.5646Z" fill="#FBC89A"/>
<path d="M-1.67352 32.4764C0.416068 31.1918 2.80647 29.9361 5.53605 28.7092C7.15205 27.982 9.05603 28.722 9.76322 30.3525C10.4576 31.9478 9.74722 33.809 8.16323 34.5298C5.70244 35.6541 3.46562 36.7625 1.48803 37.9189L-1.67352 32.4764Z" fill="#BBE6BD"/>
<path d="M21.8439 30.471C49.8408 51.3564 32.2856 52.0548 14.9192 53.445C13.8376 53.5325 12.8231 52.9456 12.5351 51.8985C12.2023 50.6847 12.9671 49.3194 14.2215 49.2307C34.7431 47.7277 34.7432 46.5453 18.8168 34.5746C17.7064 33.7385 17.46 32.172 18.2696 31.0412C19.0952 29.8912 20.7111 29.6253 21.8439 30.471Z" fill="#FBC89A"/>
<path d="M27.9648 34.7703C26.192 33.0757 24.1185 31.3426 21.7089 29.5711C20.2785 28.5204 18.2657 28.844 17.2289 30.2855C16.2145 31.6982 16.5216 33.6683 17.9168 34.7062C20.0833 36.3239 22.0384 37.8776 23.7312 39.4248L27.9648 34.7703Z" fill="#BBE6BD"/>
<path d="M17.1308 28.2642H8.59962C5.40922 28.2642 2.82361 30.8525 2.82361 34.0462V63.6096H23.0508V34.1904C23.0508 30.9166 20.4012 28.2642 17.1308 28.2642Z" fill="#BBE6BD"/>
<path d="M12.5389 30.5288H12.4334C10.315 30.5288 8.59656 29.7312 8.59656 28.751V28.2641H16.3789V28.751C16.3789 29.7312 14.6573 30.5288 12.5389 30.5288Z" fill="#74CD7F"/>
<path d="M12.4865 29.9009C14.3233 29.9009 15.8145 29.2281 15.8145 28.3985V24.4135C15.8145 22.5715 14.3233 21.082 12.4865 21.082C10.6465 21.082 9.15851 22.5715 9.15851 24.4135V28.3985C9.15851 29.2281 10.6465 29.9009 12.4865 29.9009Z" fill="#FBC89A"/>
<path d="M12.7152 3.96973C8.28322 3.96973 4.74399 7.66642 4.93599 12.0967L5.2688 19.6503C5.4448 23.6385 8.72482 26.781 12.712 26.781C16.7025 26.7842 19.9857 23.6417 20.1617 19.6503L20.4945 12.0967C20.6865 7.66642 17.1473 3.96973 12.7152 3.96973Z" fill="#FBC89A"/>
<path d="M5.45655 17.033C5.83736 17.033 6.14453 16.7254 6.14453 16.3442V11.299C6.14453 10.9178 5.83736 10.6102 5.45655 10.6102C5.07575 10.6102 4.76849 10.9178 4.76849 11.299V16.3442C4.76849 16.7254 5.07575 17.033 5.45655 17.033Z" fill="#BE3322"/>
<path d="M5.20056 17.1421H7.61328V11.046H5.20056V17.1421Z" fill="#BE3322"/>
<path d="M5.4836 19.458H6.72852V15.8381H5.4836C4.48515 15.8381 3.67554 16.6486 3.67554 17.6481C3.67554 18.6476 4.48515 19.458 5.4836 19.458Z" fill="#FBC89A"/>
<path d="M19.6766 18.5896H18.4316V14.9697H19.6766C20.675 14.9697 21.4846 15.7802 21.4846 16.7797C21.4846 17.7791 20.675 18.5896 19.6766 18.5896Z" fill="#FBC89A"/>
<path d="M14.7431 13.1805L14.3809 18.8088L15.9245 18.9081C16.4321 18.9401 16.8007 18.434 16.6157 17.9599L14.7431 13.1805Z" fill="#FAB47B"/>
<path d="M14.3938 21.9756C13.3737 21.9756 12.4914 21.7001 12.0312 21.242L12.0325 20.9698H12.3039C12.6863 21.3509 13.4863 21.5912 14.3938 21.5912H14.3977C15.3052 21.5912 16.1062 21.3509 16.4876 20.9698H16.7599V21.242C16.3014 21.7001 15.4188 21.9756 14.3977 21.9756H14.3938Z" fill="#AA635F"/>
<path d="M16.2922 10.6331L19.0064 11.5566L19.2939 11.4148L19.1673 11.1359L16.5163 10.0218L16.215 10.158L16.1514 10.3485L16.2922 10.6331Z" fill="#BE3322"/>
<path d="M12.1935 10.6542L9.44051 11.4604L9.16038 11.3057L9.29862 11.0307L11.9947 10.0341L12.2898 10.1815L12.3459 10.3754L12.1935 10.6542Z" fill="#BE3322"/>
<path d="M11.0357 14.8799C11.0018 15.3956 11.1656 15.828 11.4005 15.8409C11.6366 15.8569 11.8543 15.4501 11.8869 14.9344C11.9205 14.4154 11.7567 13.9862 11.5218 13.9702C11.2869 13.9542 11.0693 14.361 11.0357 14.8799Z" fill="#5F3A36"/>
<path d="M17.0354 14.8767C17.0028 15.3957 17.1666 15.8282 17.4015 15.841C17.6367 15.857 17.854 15.4502 17.8879 14.9344C17.9202 14.4155 17.7567 13.983 17.5215 13.9702C17.2866 13.9542 17.069 14.361 17.0354 14.8767Z" fill="#5F3A36"/>
</g>
</svg>
