<svg width="31" height="39" viewBox="0 0 31 39" fill="none" xmlns="http://www.w3.org/2000/svg">
<mask id="mask0" mask-type="alpha" maskUnits="userSpaceOnUse" x="0" y="0" width="31" height="39">
<path d="M12.9892 38.28H17.4084C24.5283 38.28 30.3012 32.5043 30.3012 25.3768V13.5435C30.3012 6.41918 24.5283 0.640259 17.4084 0.640259H12.9892C5.87242 0.640259 0.0996094 6.41918 0.0996094 13.5435V25.3768C0.0996094 32.5043 5.87242 38.28 12.9892 38.28Z" fill="#667F90"/>
</mask>
<g mask="url(#mask0)">
<path d="M11.9038 39.2326C-3.33142 57.3669 -10.4994 57.5521 -25.485 57.1968C-26.7618 57.168 -27.8114 56.1842 -27.9298 54.9131C-28.0642 53.4389 -26.9026 52.164 -25.4242 52.1701C-7.7346 52.2188 -1.97144 46.28 7.32777 35.3562C8.38697 34.1098 10.2494 33.947 11.5134 34.9881C12.7998 36.0443 12.9758 37.9576 11.9038 39.2326Z" fill="#FBC89A"/>
<path d="M6.39071 46.0935C8.51875 44.143 10.7076 41.8391 12.9733 39.1425C14.3141 37.5446 14.0933 35.1508 12.4804 33.8246C10.9028 32.5243 8.57 32.7297 7.24198 34.29C5.17794 36.7111 3.20345 38.8897 1.25781 40.7567L6.39071 46.0935Z" fill="#8E9927"/>
<path d="M20.7514 31.989L12.6264 31.9804C9.21197 31.9765 6.44078 34.7445 6.43758 38.1632L6.40234 67.3201L26.6266 67.3425L26.6619 37.9229C26.6683 34.652 24.0218 31.9967 20.7514 31.989Z" fill="#8E9927"/>
<path d="M25.2508 33.9411C43.1804 44.5786 48.2653 50.3873 45.0525 55.2174C40.8669 61.5053 29.1805 53.5769 18.0829 44.8865C17.0781 44.102 16.5885 42.8331 17.1325 41.6792C17.7629 40.3402 19.4877 39.7059 20.6781 40.5843C30.4253 47.7695 37.6477 51.6197 38.1117 50.9604C38.5725 50.2996 32.2716 45.1306 22.2141 39.114C20.8125 38.2744 20.3293 36.4712 21.1389 35.0486C21.9613 33.6006 23.8172 33.089 25.2508 33.9411Z" fill="#FBC89A"/>
<path d="M32.9438 38.2105C30.659 36.4447 28.0191 34.6768 24.9823 32.9024C23.1806 31.8488 20.8606 32.477 19.8302 34.2927C18.819 36.0706 19.4174 38.3357 21.1774 39.3791C23.9166 41.0035 26.3934 42.5802 28.5663 44.1819L32.9438 38.2105Z" fill="#8E9927"/>
<path d="M16.4986 36.8779H16.6043C18.7227 36.8818 20.4442 35.1609 20.4474 33.04V31.9889L12.665 31.9803V33.03C12.6618 35.151 14.3802 36.8741 16.4986 36.8779Z" fill="#808B26"/>
<path d="M16.8193 36.0706C14.9985 36.3073 13.3281 35.0195 13.0913 33.1978L12.4929 28.6041C12.2561 26.7807 13.5425 25.1086 15.3633 24.8715C17.1873 24.6345 18.8577 25.919 19.0945 27.745L19.6897 32.3354C19.9297 34.161 18.6433 35.8329 16.8193 36.0706Z" fill="#FAB47B"/>
<path d="M6.70059 13.6728C6.68779 14.0476 6.98541 14.3583 7.35981 14.3711C7.73421 14.3807 8.04459 14.086 8.05739 13.708C8.06699 13.3333 7.77265 13.0225 7.39825 13.0129C7.02385 13.0001 6.71019 13.298 6.70059 13.6728Z" fill="#F7941E"/>
<path d="M6.86743 14.4445C6.85783 14.8033 7.13941 15.1044 7.49781 15.114C7.85621 15.1236 8.15703 14.8385 8.16663 14.4798C8.17623 14.121 7.89464 13.8231 7.53625 13.8135C7.17785 13.8039 6.87703 14.0858 6.86743 14.4445Z" fill="#F7941E"/>
<path d="M15.1133 8.34553C10.6845 8.2238 7.04602 11.8212 7.11322 16.2578L7.23807 23.8146C7.30207 27.806 10.4957 31.0378 14.4797 31.1506C18.4669 31.2621 21.8366 28.2128 22.1246 24.2278L22.6654 16.6871C22.979 12.2633 19.5453 8.46725 15.1133 8.34553Z" fill="#FBC89A"/>
<path d="M22.2729 26.1913C22.7305 26.2041 23.1145 25.8422 23.1273 25.3809L23.4473 13.8327L21.7832 13.7878L21.4632 25.336C21.4504 25.7973 21.812 26.1785 22.2729 26.1913Z" fill="#F7941E"/>
<path d="M22.1789 24.612C22.1693 24.9868 22.4638 25.3007 22.8382 25.3103C23.2127 25.3199 23.5263 25.0252 23.5359 24.6504C23.5455 24.2757 23.2511 23.9617 22.8766 23.9521C22.5022 23.9425 22.1885 24.2372 22.1789 24.612Z" fill="#F7941E"/>
<path d="M21.9418 23.2284C21.9258 23.8242 22.3962 24.3239 22.9945 24.3399C23.5897 24.356 24.0856 23.885 24.1048 23.286C24.1208 22.6902 23.6505 22.1937 23.0521 22.1745C22.457 22.1585 21.9578 22.6293 21.9418 23.2284Z" fill="#F7941E"/>
<path d="M21.6773 21.3288C21.6549 22.1552 22.3045 22.844 23.1301 22.8664C23.9557 22.8888 24.6437 22.2385 24.6661 21.4121C24.6885 20.5856 24.0389 19.8969 23.2133 19.8745C22.3877 19.852 21.6997 20.5023 21.6773 21.3288Z" fill="#F7941E"/>
<path d="M21.9937 24.0322L20.749 23.997L20.8482 20.3804L22.093 20.4156C23.0913 20.4412 23.8785 21.2741 23.8497 22.2736C23.8241 23.273 22.9921 24.061 21.9937 24.0322Z" fill="#FBC89A"/>
<path d="M12.5538 18.7596L12.4195 23.5135C12.4067 24.0421 12.0547 24.5002 11.5491 24.6475L11.4691 24.67C10.1443 25.0608 9.07861 23.5488 9.89141 22.4276L12.5538 18.7596Z" fill="#FAB47B"/>
<path d="M10.6497 18.3496L7.78883 18.5322L7.54883 18.3208L7.74399 18.0806L10.5921 17.6993L10.848 17.9076L10.8608 18.1094L10.6497 18.3496Z" fill="#F7941E"/>
<path d="M13.8917 18.4392L16.7399 18.7788L16.9895 18.5802L16.8071 18.3335L13.9845 17.7921L13.719 17.9875L13.6934 18.1894L13.8917 18.4392Z" fill="#F7941E"/>
<path d="M20.1947 18.0965C21.1131 18.1221 21.8778 17.3982 21.9034 16.4788L22.0187 12.3689L18.6907 12.276L18.5788 16.3859C18.5532 17.3053 19.2764 18.0709 20.1947 18.0965Z" fill="#F7941E"/>
<path d="M20.9373 21.6523C20.5917 21.6427 20.3197 21.3544 20.3293 21.0085L20.4893 15.2167L21.7405 15.2487L21.5805 21.0437C21.5709 21.3897 21.2829 21.662 20.9373 21.6523Z" fill="#F7941E"/>
<path d="M23.3693 16.0272L20.9693 15.9599L20.8477 20.3581L23.2476 20.4221L23.3693 16.0272Z" fill="#F7941E"/>
<path d="M22.071 18.6282C22.0454 19.4963 22.7302 20.2235 23.6005 20.2459C24.4709 20.2715 25.1941 19.586 25.2197 18.7147C25.2421 17.8433 24.5573 17.1194 23.6869 17.0969C22.8198 17.0713 22.0934 17.7569 22.071 18.6282Z" fill="#F7941E"/>
<path d="M21.3846 15.6618C21.3526 16.8118 22.2614 17.7696 23.4104 17.8017C24.5625 17.8337 25.5194 16.9271 25.5514 15.7771C25.5834 14.6238 24.6777 13.666 23.5256 13.634C22.3767 13.602 21.4166 14.5085 21.3846 15.6618Z" fill="#F7941E"/>
<path d="M20.829 12.6251C20.797 13.7495 21.6834 14.6881 22.8066 14.7201C23.933 14.7521 24.8706 13.8648 24.8994 12.7372C24.9314 11.6129 24.045 10.6743 22.9218 10.6423C21.7954 10.6135 20.861 11.5008 20.829 12.6251Z" fill="#F7941E"/>
<path d="M17.5871 9.78352C17.5423 11.3692 18.7935 12.6922 20.3776 12.737C21.9617 12.7787 23.2833 11.5294 23.3281 9.94369C23.3697 8.35481 22.1217 7.03503 20.5376 6.99018C18.9503 6.94533 17.6319 8.19785 17.5871 9.78352Z" fill="#F7941E"/>
<path d="M14.2882 7.66618C14.2466 9.17817 15.437 10.4371 16.9474 10.4788C18.4611 10.5236 19.7187 9.32872 19.7603 7.81673C19.8019 6.30473 18.6115 5.04258 17.101 5.00094C15.5906 4.95929 14.3298 6.15097 14.2882 7.66618Z" fill="#F7941E"/>
<path d="M10.2238 8.32277C10.1822 9.77071 11.3245 10.9784 12.774 11.0201C14.2204 11.0585 15.4268 9.91809 15.4684 8.46694C15.51 7.0158 14.3676 5.8081 12.9181 5.76966C11.4686 5.72801 10.2622 6.87162 10.2238 8.32277Z" fill="#F7941E"/>
<path d="M8.77505 9.1719C8.74945 10.1297 9.50462 10.9305 10.4614 10.9562C11.4213 10.9818 12.2213 10.2258 12.2469 9.26801C12.2725 8.30703 11.5173 7.50938 10.5574 7.48055C9.60063 7.45493 8.80065 8.21091 8.77505 9.1719Z" fill="#F7941E"/>
<path d="M7.52033 10.8728C7.49153 11.8338 8.24674 12.6346 9.20675 12.6603C10.1668 12.6859 10.9636 11.9299 10.9892 10.9689C11.018 10.011 10.2628 9.21022 9.30277 9.18459C8.34596 9.15897 7.54593 9.91497 7.52033 10.8728Z" fill="#F7941E"/>
<path d="M6.54349 12.356C6.5243 13.003 7.03308 13.5412 7.67944 13.5604C8.32579 13.5764 8.86336 13.0671 8.87936 12.4232C8.89856 11.7761 8.38977 11.238 7.74342 11.2188C7.09706 11.2027 6.55949 11.7121 6.54349 12.356Z" fill="#F7941E"/>
<path d="M14.3743 10.9369C14.3423 12.0293 13.4304 12.8942 12.3392 12.8622C11.2448 12.8333 10.384 11.9204 10.4128 10.8248C10.4448 9.73248 11.3535 8.86757 12.4479 8.8996C13.5423 8.92844 14.4031 9.84139 14.3743 10.9369Z" fill="#F7941E"/>
<path d="M16.7103 11.1292C16.6847 12.0325 15.9327 12.7437 15.0303 12.7181C14.1278 12.6957 13.4175 11.9429 13.4431 11.0395C13.4687 10.1362 14.2207 9.42499 15.1231 9.44742C16.0223 9.47304 16.7359 10.2258 16.7103 11.1292Z" fill="#F7941E"/>
<path d="M19.7635 11.9524C19.7347 13.0512 18.8196 13.9161 17.7219 13.8872C16.6211 13.8552 15.7571 12.9391 15.7859 11.8403C15.8179 10.7416 16.733 9.87343 17.8307 9.90546C18.9283 9.93429 19.7955 10.8505 19.7635 11.9524Z" fill="#F7941E"/>
<path d="M20.909 13.7464C20.8834 14.6369 20.141 15.3416 19.2483 15.316C18.3587 15.2903 17.6548 14.5472 17.6804 13.6567C17.706 12.763 18.4483 12.0615 19.3379 12.0839C20.2306 12.1095 20.9314 12.8527 20.909 13.7464Z" fill="#F7941E"/>
<path d="M19.5365 18.1927C19.5205 18.7821 19.9845 19.2753 20.5733 19.2913C21.1621 19.3074 21.6516 18.8429 21.6676 18.2535C21.6868 17.6641 21.2197 17.1708 20.6309 17.1548C20.0421 17.1388 19.5525 17.6033 19.5365 18.1927Z" fill="#F7941E"/>
<path d="M19.9455 19.6791C19.9359 20.0539 20.2304 20.3678 20.6048 20.3775C20.9824 20.3871 21.2927 20.0923 21.3023 19.7175C21.3151 19.3427 21.0175 19.0287 20.6431 19.0191C20.2687 19.0095 19.9583 19.3042 19.9455 19.6791Z" fill="#F7941E"/>
<path d="M23.7932 13.7623C23.7836 14.1371 24.0779 14.4478 24.4523 14.4574C24.8267 14.4702 25.1403 14.1723 25.1499 13.7975C25.1595 13.4228 24.8651 13.112 24.4907 13.0992C24.1164 13.0896 23.8028 13.3875 23.7932 13.7623Z" fill="#F7941E"/>
<path d="M23.5618 17.4076C23.5522 17.7824 23.8465 18.0964 24.2242 18.106C24.5986 18.1156 24.9091 17.8209 24.9187 17.4461C24.9315 17.0713 24.6338 16.7573 24.2594 16.7477C23.885 16.7381 23.5746 17.0328 23.5618 17.4076Z" fill="#F7941E"/>
<path d="M23.1643 20.2169C23.1547 20.5917 23.4491 20.9057 23.8235 20.9153C24.198 20.9249 24.5117 20.6302 24.5213 20.2554C24.5309 19.8806 24.2364 19.5667 23.862 19.5571C23.4875 19.5474 23.1739 19.8421 23.1643 20.2169Z" fill="#F7941E"/>
<path d="M13.2162 6.35288C13.2322 5.78906 13.7026 5.34054 14.269 5.35656C14.8322 5.37257 15.2769 5.8435 15.2641 6.41052C15.2481 6.97754 14.7777 7.42283 14.2114 7.40681C13.645 7.39079 13.2002 6.9199 13.2162 6.35288Z" fill="#F7941E"/>
<path d="M18.5629 7.46449C18.5789 6.8975 19.0493 6.45224 19.6157 6.46825C20.179 6.48107 20.6269 6.95513 20.6109 7.51893C20.5949 8.08592 20.1246 8.53122 19.5582 8.51521C18.9918 8.49919 18.5469 8.02829 18.5629 7.46449Z" fill="#F7941E"/>
<path d="M21.8617 10.8888C21.8777 10.3218 22.3481 9.87649 22.9113 9.89251C23.4776 9.90532 23.9223 10.3794 23.9063 10.9433C23.8935 11.5103 23.42 11.9555 22.8568 11.9395C22.2905 11.9235 21.8457 11.4526 21.8617 10.8888Z" fill="#F7941E"/>
<path d="M11.0332 27.8059C11.0332 28.1902 11.4748 28.5042 12.0156 28.501C12.5596 28.501 12.9981 28.187 12.9949 27.7994C12.9949 27.4118 12.5564 27.1011 12.0124 27.1011C11.4716 27.1043 11.0332 27.4183 11.0332 27.8059Z" fill="#AA635F"/>
<path d="M15.0039 20.9102C14.9719 21.4291 15.1384 21.8583 15.372 21.8743C15.6087 21.8872 15.8231 21.4803 15.8551 20.9614C15.8839 20.4457 15.7207 20.0133 15.4839 20.0005C15.2503 19.9844 15.0327 20.3944 15.0039 20.9102Z" fill="#304544"/>
<path d="M9.00394 20.9102C8.97194 21.4291 9.13838 21.8583 9.37195 21.8743C9.60873 21.8872 9.82311 21.4803 9.85511 20.9614C9.8839 20.4457 9.72067 20.0133 9.48389 20.0005C9.25032 19.9844 9.03274 20.3944 9.00394 20.9102Z" fill="#304544"/>
</g>
</svg>
