<svg width="77" height="125" viewBox="0 0 77 125" fill="none" xmlns="http://www.w3.org/2000/svg">
<path d="M42.0977 32.5939C57.4064 63.0959 63.0385 52.9741 71.2657 32.9206C71.7489 31.7386 71.3265 30.3803 70.2225 29.7396C68.9425 28.9997 67.1248 29.4481 66.6832 30.8608C59.4545 53.9989 56.5745 45.9904 47.3809 29.7589C46.5745 28.3366 44.8145 27.7696 43.3649 28.5224C41.8865 29.2912 41.3489 31.1043 42.0977 32.5939Z" fill="#FABF95"/>
<path d="M42.8945 27.6125C41.6017 28.282 40.7729 29.605 40.7281 31.069C40.7089 31.7577 40.8658 32.4496 41.189 33.0679C47.9666 46.0868 52.965 51.9205 57.8993 52.5698C62.7729 53.2143 66.1745 46.0128 69.2497 38.9782C69.6305 38.1068 70.0049 37.133 70.3793 36.1752C70.5201 35.8164 70.3505 35.4128 69.9985 35.259L65.9217 33.5003C65.5601 33.3434 65.1409 33.51 64.9841 33.8719C62.2993 40.0449 60.7473 44.6225 58.6609 44.4111C56.1969 44.1609 54.1009 40.1987 50.9233 34.1987C50.1393 32.7123 49.2497 31.0305 48.2769 29.2623C47.2113 27.3242 44.8465 26.6002 42.8945 27.6125Z" fill="#DD1841"/>
<path d="M26.175 57.7404L26.719 57.5127C27.7206 57.5838 30.0631 57.744 31.0231 57.1033C31.3271 56.8983 31.7366 56.9806 31.9414 57.2862C32.143 57.5902 32.0599 57.9993 31.7559 58.202C30.4215 59.0916 27.9542 58.9253 26.6294 58.8328C26.2678 58.81 25.9925 58.4935 26.0149 58.128L26.175 57.7404Z" fill="#FABF95"/>
<path d="M51.9215 116.711C53.2495 116.711 54.3247 117.788 54.3247 119.118V119.483H49.5215V119.118C49.5215 117.788 50.5967 116.711 51.9215 116.711Z" fill="#FABF95"/>
<path fill-rule="evenodd" clip-rule="evenodd" d="M52.15 124.12H48.6191V122.839H53.4364L52.15 124.12Z" fill="#4F2E19"/>
<path fill-rule="evenodd" clip-rule="evenodd" d="M54.3247 119.483H49.4959L48.6191 122.839H53.4177L56.1636 120.103L54.3247 119.483Z" fill="#4F2E19"/>
<path d="M54.3242 119.483C55.9562 96.3387 53.6555 81.7531 48.3915 66.2356C47.63 63.9846 45.1563 62.8083 42.926 63.6217C40.734 64.42 39.598 66.835 40.3756 69.036C45.9403 84.7576 49.5211 100.051 49.5211 119.483H54.3242Z" fill="#35B381"/>
<path d="M54.4344 117.769H49.6023L49.1191 118.256V118.995L49.6023 119.483H54.4344L54.9208 118.995V118.256L54.4344 117.769Z" fill="#2B795D"/>
<path d="M39.9629 119.466H35.1341L31.9629 122.839H40.843L39.9629 119.466Z" fill="#4F2E19"/>
<path d="M40.843 124.12H31.9629V122.839H40.843V124.12Z" fill="#4F2E19"/>
<path d="M37.5729 116.698C36.2481 116.698 35.1729 117.775 35.1729 119.101V119.467H39.9761V119.101C39.9761 117.775 38.9009 116.698 37.5729 116.698Z" fill="#FABF95"/>
<path d="M28.4308 66.6521L35.0676 119.495L39.8356 118.896C39.2724 101.828 38.6772 82.3874 36.8596 65.6523C36.6036 63.2984 34.4628 61.6128 32.1108 61.9082C29.7876 62.1997 28.1396 64.3232 28.4308 66.6521Z" fill="#35B381"/>
<path d="M39.7963 117.333L34.9739 117.627L34.5195 118.143L34.5643 118.884L35.0795 119.338L39.9019 119.04L40.3563 118.528L40.3083 117.787L39.7963 117.333Z" fill="#2B795D"/>
<path d="M38.2319 68.997C41.0511 69.285 48.3119 69.8392 48.5359 67.6356L49.1023 62.0297C49.2463 60.6234 48.2223 59.3645 46.8143 59.2229L31.7871 57.6991C30.3791 57.5549 29.1247 58.58 28.9807 59.9888L28.4143 65.5922C28.1903 67.7958 35.4159 68.7119 38.2319 68.997Z" fill="#35B381"/>
<path d="M31.8827 26.7926L41.8924 26.4915C45.3068 26.389 48.1548 29.0766 48.2572 32.4914L49.1244 61.6358L28.9099 62.2412L27.9755 30.941C27.9083 28.7146 29.6587 26.8567 31.8827 26.7926Z" fill="#DD1841"/>
<path d="M28.8623 60.6846L49.0798 60.0789L49.1246 61.6357L28.9103 62.2412L28.8623 60.6846Z" fill="#A51835"/>
<path d="M38.1615 31.4982L38.0591 31.5014C35.9376 31.5655 34.1679 29.8965 34.1039 27.7727L34.0752 26.7251L41.8543 26.4945L41.8831 27.542C41.9471 29.6627 40.2799 31.4341 38.1615 31.4982Z" fill="#A51835"/>
<path d="M37.8195 30.7008C39.6467 30.8834 41.2787 29.5508 41.4643 27.7185L41.9315 23.112C42.1139 21.2829 40.7827 19.6492 38.9555 19.4634C37.1251 19.2776 35.493 20.6134 35.3074 22.4425L34.8434 27.0489C34.6578 28.8813 35.9891 30.515 37.8195 30.7008Z" fill="#F1A984"/>
<path d="M40.1587 0.66272C44.5907 0.66272 48.1266 4.35943 47.9378 8.79293L47.605 16.3433C47.4258 20.3316 44.149 23.4741 40.1619 23.4773C36.1715 23.4773 32.8884 20.3348 32.7124 16.3433L32.3764 8.79293C32.1876 4.35943 35.7268 0.66272 40.1587 0.66272Z" fill="#FABF95"/>
<path d="M40.86 10.8493L38.0759 11.0383L37.9863 10.718L39.2279 10.0902C39.6855 9.85954 40.1719 9.68336 40.6711 9.56804C41.0488 9.47835 41.42 9.74102 41.4616 10.1286C41.5032 10.497 41.2312 10.8237 40.86 10.8493Z" fill="#3D3F43"/>
<path d="M44.4079 10.8493L47.1951 11.0383L47.2847 10.718L46.0431 10.0902C45.5855 9.85954 45.0991 9.68336 44.5999 9.56804C44.2191 9.47835 43.8511 9.74102 43.8064 10.1286C43.768 10.497 44.0399 10.8237 44.4079 10.8493Z" fill="#3D3F43"/>
<path d="M41.2625 27.6353H42.8561C45.4545 27.6353 47.5601 25.5274 47.5601 22.9295V17.7239H32.8945V19.2584C32.8945 23.8841 36.6418 27.6353 41.2625 27.6353Z" fill="#3D3F43"/>
<path d="M47.5603 16.8813C47.1219 17.4067 46.5651 17.7239 45.957 17.7239H47.5603V16.8813Z" fill="#3D3F43"/>
<path d="M45.6658 21.3564H38.9648V18.1594C38.9648 17.4514 39.5376 16.8812 40.2417 16.8812H44.389C45.093 16.8812 45.6658 17.4514 45.6658 18.1594V21.3564Z" fill="#3D3F43"/>
<path d="M33.3427 18.3037H32.5106C32.0499 18.3037 31.6787 17.9289 31.6787 17.4708V7.58194C31.6787 6.66257 32.4211 5.9162 33.3427 5.9162V18.3037Z" fill="#3D3F43"/>
<path d="M40.277 18.182C39.9538 18.182 39.7138 18.5504 39.7938 18.9284C40.0626 20.2001 41.0131 21.1418 42.1459 21.1418H42.7187C43.8483 21.1418 44.7986 20.2001 45.0706 18.9284C45.1506 18.5504 44.9074 18.182 44.5874 18.182H40.277Z" fill="white"/>
<path d="M32.8471 16.1541H34.095V12.5343H32.8471C31.8486 12.5343 31.0391 13.3448 31.0391 14.3442C31.0391 15.3436 31.8486 16.1541 32.8471 16.1541Z" fill="#FABF95"/>
<path d="M34.7636 10.8557C33.9796 10.8557 33.3428 10.2182 33.3428 9.43016V5.91602H34.7636C35.5508 5.91602 36.1876 6.55348 36.1876 7.34152V9.43016C36.1876 10.2182 35.5508 10.8557 34.7636 10.8557Z" fill="#3D3F43"/>
<path d="M33.3428 13.803H34.5941V7.38031H33.3428V13.803Z" fill="#3D3F43"/>
<path d="M31.6943 8.11047H34.0944V12.5088H31.6943V8.11047Z" fill="#3D3F43"/>
<path d="M40.1748 13.1942C40.1748 13.7131 40.3636 14.1328 40.6004 14.1328C40.8372 14.1328 41.0261 13.7131 41.0261 13.1942C41.0261 12.6752 40.8372 12.2556 40.6004 12.2556C40.3636 12.2556 40.1748 12.6752 40.1748 13.1942Z" fill="#3D3F43"/>
<path d="M45.8896 13.1942C45.8896 13.7131 46.0817 14.1328 46.3184 14.1328C46.552 14.1328 46.744 13.7131 46.744 13.1942C46.744 12.6752 46.552 12.2556 46.3184 12.2556C46.0817 12.2556 45.8896 12.6752 45.8896 13.1942Z" fill="#3D3F43"/>
<path d="M39.7938 18.9282C39.9282 19.5625 40.2322 20.1135 40.6418 20.5076H44.2226C44.6322 20.1135 44.9362 19.5625 45.0706 18.9282L45.0802 18.704H39.7842L39.7938 18.9282Z" fill="#AA635F"/>
<path d="M33.3428 18.8386H34.5941V13.4346H33.3428V18.8386Z" fill="#3D3F43"/>
<path d="M38.3666 17.7239H34.5938V13.9471C34.5938 16.0325 36.2834 17.7239 38.3666 17.7239Z" fill="#3D3F43"/>
<path d="M49.1209 11.9993H48.6504V11.4323H49.1209L49.4058 11.7174L49.1209 11.9993Z" fill="#AA635F"/>
<path d="M46.3571 15.2122C45.0483 15.2122 43.9859 14.1487 43.9859 12.8353C43.9859 11.5251 45.0483 10.4616 46.3571 10.4616C47.6691 10.4616 48.7315 11.5251 48.7315 12.8353C48.7315 14.1487 47.6691 15.2122 46.3571 15.2122ZM46.3571 10.0388C44.8147 10.0388 43.5635 11.2913 43.5635 12.8353C43.5635 14.3825 44.8147 15.635 46.3571 15.635C47.9027 15.635 49.1539 14.3825 49.1539 12.8353C49.1539 11.2913 47.9027 10.0388 46.3571 10.0388Z" fill="#AA635F"/>
<path d="M42.75 11.24V15.9042C42.75 16.5288 43.326 16.9965 43.934 16.8684L45.0188 16.6409C45.6908 16.5 45.9948 15.7119 45.5916 15.1545L42.75 11.24Z" fill="#F1A984"/>
<path d="M43.9341 12.6304H42.0781V12.0635H43.9341V12.6304Z" fill="#AA635F"/>
<path d="M36.8902 11.9993H37.3605V11.4323H36.8902L36.6055 11.7174L36.8902 11.9993Z" fill="#AA635F"/>
<path d="M39.6562 15.2122C38.3442 15.2122 37.2817 14.1487 37.2817 12.8353C37.2817 11.5251 38.3442 10.4616 39.6562 10.4616C40.9682 10.4616 42.0305 11.5251 42.0305 12.8353C42.0305 14.1487 40.9682 15.2122 39.6562 15.2122ZM39.6562 10.0388C38.1138 10.0388 36.8594 11.2913 36.8594 12.8353C36.8594 14.3825 38.1138 15.635 39.6562 15.635C41.1986 15.635 42.4498 14.3825 42.4498 12.8353C42.4498 11.2913 41.1986 10.0388 39.6562 10.0388Z" fill="#AA635F"/>
<path d="M29.4182 60.3355C29.5942 60.044 29.9718 59.954 30.263 60.1302L34.1448 62.5129C34.4361 62.693 34.5256 63.071 34.3496 63.359C34.1704 63.6479 33.7928 63.7405 33.5048 63.5614L29.6198 61.1816C29.3318 61.0012 29.2422 60.6235 29.4182 60.3355Z" fill="#FABF95"/>
<path d="M28.6768 61.2104L29.5408 61.1326L33.6432 64.5638L33.72 65.4322L32.856 65.5088L28.7536 62.075L28.6768 61.2104Z" fill="#FABF95"/>
<path d="M27.909 62.0934L28.7762 62.1036L32.1746 65.586L32.165 66.4531L31.2978 66.4442L27.8994 62.9618L27.909 62.0934Z" fill="#FABF95"/>
<path d="M27.1348 62.9972L27.9957 63.1061L30.4789 66.2906L30.3733 67.1514L29.5093 67.0463L27.0293 63.8592L27.1348 62.9972Z" fill="#FABF95"/>
<path d="M24.0109 59.3095L24.9037 58.2822C25.6845 57.381 27.0477 57.2885 27.9469 58.0707L30.3854 60.1942L30.4462 61.0627C30.267 61.5144 29.8669 62.1637 29.5469 62.5292C29.2269 62.8982 28.3917 63.6702 27.9693 63.9105L27.1054 63.9707L24.1581 61.4054C23.5373 60.8673 23.4733 59.929 24.0109 59.3095Z" fill="#FABF95"/>
<path d="M29.2685 28.5034C-0.401762 45.1346 11.3677 49.5556 25.0541 62.1839C25.9917 63.0485 27.4605 62.9848 28.3949 62.1125C29.4797 61.1076 29.5277 59.3031 28.3597 58.3998C9.68777 43.9209 15.9981 43.319 32.2604 33.7056C33.6652 32.8728 34.1676 31.0821 33.374 29.6534V29.6502C32.5612 28.1958 30.7245 27.6897 29.2685 28.5034Z" fill="#FABF95"/>
<path d="M34.2669 29.1535C33.5597 27.8817 32.2125 27.0905 30.7533 27.0905C30.0621 27.0905 29.3773 27.2698 28.7693 27.6094C15.9725 34.7818 10.2989 39.9584 9.79651 44.9141C9.30051 49.812 14.0301 53.4857 19.8541 58.4836C20.5773 59.1054 21.3965 59.7486 22.2029 60.3867C22.5037 60.6235 22.9389 60.5821 23.1885 60.2868L26.0589 56.9005C26.3149 56.6003 26.2765 56.1487 25.9757 55.8921C20.8653 51.5201 17.8189 47.5245 17.9661 45.4298C18.1421 42.9597 22.0365 40.7436 27.9341 37.3861C29.3901 36.5564 31.0445 35.6147 32.7821 34.5896C34.6829 33.462 35.3389 31.0755 34.2669 29.1535Z" fill="#DD1841"/>
<path d="M68.127 33.209L67.3142 32.1198C66.5974 31.1652 66.7926 29.8102 67.7462 29.0958L70.335 27.1546L71.1927 27.2795L73.4551 30.3003L73.3335 31.1588L70.2038 33.5069C69.551 33.997 68.6198 33.8657 68.127 33.209Z" fill="#FABF95"/>
<path d="M76.9902 32.5235L71.9439 35.1663L64.9775 24.672L72.3503 20.812L76.9902 32.5235Z" fill="#8B473C"/>
<path d="M74.6989 33.7248L72.7181 34.7595L66.1484 24.6368L69.6844 22.7853L74.6989 33.7248Z" fill="#A7665E"/>
<path d="M72.1294 19.6842L64.1806 23.8454L63.9502 24.5887L64.6894 24.8225L72.6382 20.6581L72.8718 19.918L72.1294 19.6842Z" fill="#E1B46C"/>
<path d="M68.3958 21.6415L65.0999 23.365L64.9463 23.8583L65.1159 24.1851L65.6086 24.342L68.9045 22.6154L69.0581 22.1221L68.8885 21.7953L68.3958 21.6415Z" fill="#FCD390"/>
<path d="M70.5297 18.704L64.2897 21.9714L64.0625 22.6921L64.5616 23.6467L71.7489 19.8828L71.2497 18.9282L70.5297 18.704Z" fill="#E1B46C"/>
<path d="M66.6356 20.7413L65.1379 21.5261L65.0195 21.9073L65.6339 23.0862L67.6308 22.0386L67.0164 20.8598L66.6356 20.7413Z" fill="#FCD390"/>
<path d="M67.9251 19.0435L67.8164 19.3895L68.1172 19.9661L68.5715 19.729L68.2707 19.1525L67.9251 19.0435Z" fill="#E1B46C"/>
<path d="M69.6395 28.1958L68.782 28.6539C68.4588 28.8269 68.0588 28.7052 67.8892 28.3848C67.7164 28.0613 67.8381 27.6609 68.158 27.4879L69.0156 27.0298C69.3355 26.8568 69.7355 26.9786 69.9083 27.2989C70.0811 27.6224 69.9595 28.0229 69.6395 28.1958Z" fill="#FABF95"/>
<path d="M69.0737 28.3238L68.1905 30.6047C68.0593 30.9442 67.6785 31.114 67.3361 30.9827C66.9968 30.8513 66.8272 30.4669 66.9585 30.1273L67.8416 27.8465C67.9728 27.5069 68.3569 27.3372 68.6961 27.4685C69.0353 27.5999 69.2049 27.9842 69.0737 28.3238Z" fill="#FABF95"/>
<path d="M74.43 25.6232L73.966 25.7802C73.6204 25.8987 73.2459 25.7129 73.1275 25.3669C73.0091 25.0242 73.1947 24.6462 73.5404 24.5277L74.0043 24.3707C74.35 24.2522 74.7244 24.438 74.8428 24.784C74.9612 25.1267 74.7756 25.5047 74.43 25.6232Z" fill="#FABF95"/>
<path d="M74.8914 26.9719L73.9314 27.2986C73.589 27.4171 73.2115 27.2345 73.0931 26.8886C72.9779 26.5426 73.1603 26.1678 73.5059 26.0493L74.4659 25.7194C74.8115 25.6009 75.1858 25.7867 75.3042 26.1326C75.4226 26.4786 75.237 26.8533 74.8914 26.9719Z" fill="#FABF95"/>
<path d="M75.3518 28.3204L74.8878 28.4806C74.5422 28.5991 74.1678 28.4133 74.0494 28.0673C73.931 27.7214 74.1166 27.3466 74.4622 27.2281L74.9262 27.0711C75.2718 26.9526 75.6462 27.1352 75.7646 27.4811C75.883 27.8271 75.6974 28.2019 75.3518 28.3204Z" fill="#FABF95"/>
<path d="M75.8129 29.6726L75.5825 29.7495C75.2369 29.8681 74.8625 29.6854 74.7441 29.3395C74.6257 28.9935 74.8081 28.6187 75.1537 28.5001L75.3873 28.42C75.7297 28.3015 76.1073 28.4873 76.2257 28.8333C76.3409 29.1793 76.1585 29.5541 75.8129 29.6726Z" fill="#FABF95"/>
<path d="M6.53302 122.512C6.53302 123.313 5.88341 123.964 5.0834 123.964C4.2802 123.964 3.63379 123.313 3.63379 122.512C3.63379 121.709 4.2802 121.062 5.0834 121.062C5.88341 121.062 6.53302 121.709 6.53302 122.512Z" fill="#F78E29"/>
<path d="M11.326 122.512C11.326 123.313 10.6764 123.964 9.8764 123.964C9.07638 123.964 8.42676 123.313 8.42676 122.512C8.42676 121.709 9.07638 121.062 9.8764 121.062C10.6764 121.062 11.326 121.709 11.326 122.512Z" fill="#F78E29"/>
<path d="M21.3134 122.512C21.3134 123.313 20.6638 123.964 19.8639 123.964C19.0607 123.964 18.4111 123.313 18.4111 122.512C18.4111 121.709 19.0607 121.062 19.8639 121.062C20.6638 121.062 21.3134 121.709 21.3134 122.512Z" fill="#F78E29"/>
<path d="M26.1072 122.512C26.1072 123.313 25.4576 123.964 24.6576 123.964C23.8544 123.964 23.208 123.313 23.208 122.512C23.208 121.709 23.8544 121.062 24.6576 121.062C25.4576 121.062 26.1072 121.709 26.1072 122.512Z" fill="#F78E29"/>
<path d="M4.37967 121.062H19.7012V90.5938H4.37967C2.23568 90.5938 0.498047 92.3345 0.498047 94.4805V117.173C0.498047 119.319 2.23568 121.062 4.37967 121.062Z" fill="#F9A51B"/>
<path d="M20.3308 121.062H25.7868C27.934 121.062 29.6716 119.319 29.6716 117.173V94.4805C29.6716 92.3345 27.934 90.5938 25.7868 90.5938H20.3308C18.1868 90.5938 16.4492 92.3345 16.4492 94.4805V117.173C16.4492 119.319 18.1868 121.062 20.3308 121.062Z" fill="#F57B1C"/>
<path d="M7.33282 122.512C7.33282 123.313 6.68321 123.964 5.88321 123.964C5.08001 123.964 4.43359 123.313 4.43359 122.512C4.43359 121.709 5.08001 121.062 5.88321 121.062C6.68321 121.062 7.33282 121.709 7.33282 122.512Z" fill="#F57B1C"/>
<path d="M12.1266 122.512C12.1266 123.313 11.4771 123.964 10.6771 123.964C9.87712 123.964 9.22754 123.313 9.22754 122.512C9.22754 121.709 9.87712 121.062 10.6771 121.062C11.4771 121.062 12.1266 121.709 12.1266 122.512Z" fill="#F57B1C"/>
<path d="M22.1134 122.512C22.1134 123.313 21.4638 123.964 20.6638 123.964C19.8606 123.964 19.2109 123.313 19.2109 122.512C19.2109 121.709 19.8606 121.062 20.6638 121.062C21.4638 121.062 22.1134 121.709 22.1134 122.512Z" fill="#F57B1C"/>
<path d="M26.907 122.512C26.907 123.313 26.2574 123.964 25.4574 123.964C24.6542 123.964 24.0078 123.313 24.0078 122.512C24.0078 121.709 24.6542 121.062 25.4574 121.062C26.2574 121.062 26.907 121.709 26.907 122.512Z" fill="#F57B1C"/>
<path d="M12.639 64.9028H11.6885V90.5938H12.639V64.9028Z" fill="#F57B1C"/>
<path d="M19.6241 64.9028H18.6768V90.5938H19.6241V64.9028Z" fill="#F57B1C"/>
<path d="M18.7243 63.8015H12.5867C11.9243 63.8015 11.3867 64.3397 11.3867 65.0028C11.3867 65.6662 11.9243 66.2041 12.5867 66.2041H18.7243C19.3867 66.2041 19.9243 65.6662 19.9243 65.0028C19.9243 64.3397 19.3867 63.8015 18.7243 63.8015Z" fill="#F57B1C"/>
</svg>
