<svg width="44" height="113" viewBox="0 0 44 113" fill="none" xmlns="http://www.w3.org/2000/svg">
<path d="M14.9316 27.4991C-8.57557 40.6746 0.749256 44.1759 11.5909 54.1801C12.3333 54.8656 13.4981 54.8144 14.2405 54.1256C15.0981 53.328 15.1364 51.8993 14.2116 51.1817C-0.581963 39.7136 4.41969 39.2331 17.2997 31.6187C18.4165 30.9588 18.8133 29.5397 18.1829 28.4057C17.5397 27.2525 16.0836 26.8521 14.9316 27.4991Z" fill="#FBC89A"/>
<path d="M15.7661 106.44C17.0012 106.44 18.0028 107.442 18.0028 108.682V109.022H13.5293V108.682C13.5293 107.442 14.5309 106.44 15.7661 106.44Z" fill="#FBC89A"/>
<path d="M12.7773 112.892H23.1263V111.818H12.7773V112.892Z" fill="#E42D22"/>
<path d="M13.507 109.022H18.0031L23.1263 111.818H12.7773L13.507 109.022Z" fill="#E42D22"/>
<path d="M18.0027 109.022C23.3212 88.062 23.7019 73.9319 21.4363 58.8247C21.1099 56.6336 19.0331 55.1472 16.8538 55.5252C14.713 55.8936 13.2698 57.9213 13.6218 60.0676C16.1275 75.4118 16.777 90.4357 13.5674 108.259L18.0027 109.022Z" fill="#FBC89A"/>
<path d="M15.0498 52.7162L15.7186 52.5528L18.7938 54.4428L18.957 55.1123L18.2881 55.2725L15.2098 53.3857L15.0498 52.7162Z" fill="#FBC89A"/>
<path d="M14.4609 53.4081L15.1458 53.3472L18.3938 56.0669L18.4578 56.7524L17.773 56.8132L14.5217 54.0935L14.4609 53.4081Z" fill="#FBC89A"/>
<path d="M13.8521 54.1095L14.5401 54.1159L17.2314 56.874L17.225 57.5627L16.537 57.5531L13.8457 54.7982L13.8521 54.1095Z" fill="#FBC89A"/>
<path d="M13.2385 54.8236L13.9233 54.9101L15.8881 57.4344L15.8049 58.1167L15.1233 58.0334L13.1553 55.5091L13.2385 54.8236Z" fill="#FBC89A"/>
<path d="M10.765 51.9022L11.4722 51.0885C12.093 50.3774 13.1713 50.3005 13.8817 50.922L15.8177 52.6038L15.8658 53.2925C15.7218 53.648 15.405 54.1638 15.1522 54.4553C14.8994 54.7436 14.237 55.3554 13.901 55.5476L13.2162 55.5957L10.8802 53.5616C10.3906 53.1355 10.3394 52.3923 10.765 51.9022Z" fill="#FBC89A"/>
<path d="M22.55 30.3501C23.942 30.459 25.158 29.4179 25.27 28.0213L25.6957 22.5787C25.8077 21.1853 24.7677 19.9648 23.3725 19.8559C21.9805 19.7437 20.7613 20.7848 20.6525 22.1815L20.2236 27.624C20.1148 29.0207 21.1548 30.238 22.55 30.3501Z" fill="#FAB47B"/>
<path d="M26.4763 106.44C27.7115 106.44 28.7131 107.442 28.7131 108.682V109.022H24.2363V108.682C24.2363 107.442 25.2411 106.44 26.4763 106.44Z" fill="#FBC89A"/>
<path d="M23.4854 112.892H33.8374V111.818H23.4854V112.892Z" fill="#E42D22"/>
<path d="M24.215 109.022H28.7142L33.8374 111.818H23.4854L24.215 109.022Z" fill="#E42D22"/>
<path d="M28.7134 109.022C34.0318 88.062 34.4126 73.9319 32.147 58.8247C31.8174 56.6336 29.7438 55.1472 27.5614 55.5252C25.4206 55.8936 23.9806 57.9213 24.3294 60.0676C26.8382 75.4118 27.4879 90.4357 24.2782 108.259L28.7134 109.022Z" fill="#FBC89A"/>
<path d="M30.9539 52.0208L30.1923 50.2589C29.3667 48.3529 29.1427 46.2387 29.5491 44.2013L30.2018 40.9147C31.8786 40.3701 32.6435 38.4353 31.7987 36.888L31.4595 36.2698C30.5411 34.5912 30.0387 32.7172 29.9939 30.8016L29.965 29.5619C29.9394 28.4279 29.1555 27.4509 28.0547 27.1818L25.2675 26.5027H20.2083L15.9715 27.2299C14.6403 27.4573 13.7315 28.7002 13.9107 30.036L15.0403 38.3968C15.2099 39.6557 15.4979 40.8955 15.9043 42.0999L16.9187 45.0951C17.6707 47.3246 17.2323 49.7816 15.7571 51.6139L15.4531 51.9887C14.0835 53.6897 13.3379 55.8072 13.3379 57.9919V58.4563C13.3379 61.6405 15.9171 64.2192 19.0947 64.2192H26.3971C29.5779 64.2192 32.1539 61.6405 32.1539 58.4563V57.8285C32.1539 55.8296 31.7443 53.8531 30.9539 52.0208Z" fill="#9BB72F"/>
<path d="M33.7404 78.4937H14.6844L13.0908 60.574C12.8636 58.0017 13.3884 55.4197 14.6012 53.1389L14.758 52.8378C16.5436 49.4839 20.0348 47.3857 23.8332 47.3857C26.9084 47.3857 29.7052 49.1667 31.0107 51.9537C31.0107 51.9537 33.222 56.0892 33.254 58.6679C33.3148 63.6268 33.7404 78.4937 33.7404 78.4937Z" fill="#9BB72F"/>
<path d="M22.855 1.9487C27.2871 1.9487 30.8231 5.64861 30.6343 10.0789L30.3015 16.8636C30.1223 20.8519 26.8455 23.9944 22.8582 23.9944C18.8678 23.9976 15.5846 20.8519 15.4086 16.8636L15.0726 10.0789C14.8838 5.64861 18.423 1.9487 22.855 1.9487Z" fill="#FAB47B"/>
<path d="M18.0545 12.456C18.0545 8.94192 23.4882 9.81004 24.413 6.09411C25.8466 8.74972 30.2625 8.34932 30.7617 11.3637C31.2417 10.3675 31.4305 9.29111 31.4305 8.11226C31.4305 3.91582 28.0354 0.513794 23.8434 0.513794C23.2642 0.513794 22.6977 0.5843 22.1537 0.706029C21.6097 0.5843 21.0465 0.513794 20.4641 0.513794C16.2753 0.513794 12.877 3.91582 12.877 8.11226C12.877 11.463 15.0465 14.3044 18.0545 15.3135V12.456Z" fill="#E42D22"/>
<path d="M15.225 19.4648H13.209V9.67853H18.0538V16.6331C18.0538 18.1963 16.7866 19.4648 15.225 19.4648Z" fill="#E42D22"/>
<path d="M20.5085 17.3954C20.5085 21.2747 18.0701 24.4172 15.0653 24.4172C12.0605 24.4172 9.62207 21.2747 9.62207 17.3954C9.62207 13.5193 12.0605 10.3768 15.0653 10.3768C18.0701 10.3768 20.5085 13.5193 20.5085 17.3954Z" fill="#E42D22"/>
<path d="M30.3644 9.22363L27.3436 5.41159L19.6957 4.29041C19.6957 4.29041 15.4396 14.269 15.5036 14.5669C15.5676 14.8648 15.6957 21.7008 20.1117 22.1397C24.5245 22.5785 29.3916 19.2022 30.3644 15.5535V9.22363Z" fill="#E42D22"/>
<path d="M30.7777 8.18256V15.861C30.7777 17.8503 29.1681 19.4648 27.1777 19.4648H18.7041V15.1018L28.6081 8.40678L30.7777 8.18256Z" fill="#E42D22"/>
<path d="M29.4394 13.9903C29.1226 13.8558 28.8506 14.0576 28.8506 14.4004V16.3769C28.8506 16.7421 29.0266 16.8766 29.2058 16.835C29.8714 16.6812 30.3642 16.0854 30.3642 15.3742C30.3642 14.7495 29.9834 14.2146 29.4394 13.9903Z" fill="#FAB47B"/>
<path d="M25.8687 31.2372C50.4224 52.6133 44.5567 35.2863 36.8991 20.9512C36.4255 20.0574 35.4527 19.5577 34.4863 19.8588C33.3695 20.208 32.7422 21.4669 33.2447 22.5272C41.4079 39.7262 41.5455 39.7518 28.9983 27.659C28.0639 26.7621 26.5439 26.8998 25.6767 27.864C24.7935 28.8443 24.8703 30.3691 25.8687 31.2372Z" fill="#FBC89A"/>
<path d="M33.6836 22.457L33.37 22.3513C32.73 21.8772 31.2388 20.7528 30.3109 20.7752H30.3013L29.7765 20.2595C29.7701 19.968 30.0004 19.7278 30.2916 19.7245H30.3301C31.6005 19.7245 33.1588 20.881 33.9972 21.5056L34.106 22.2424L33.6836 22.457Z" fill="#FBC89A"/>
<path d="M38.8231 15.3102L38.2919 20.0897C38.2343 20.5894 37.7831 20.9482 37.2839 20.8937L27.6872 19.8205C27.188 19.7661 26.8264 19.3144 26.884 18.8147L27.4151 14.0353C27.4727 13.5355 27.924 13.1736 28.4232 13.228L38.0199 14.3011C38.5191 14.3588 38.8807 14.8105 38.8231 15.3102Z" fill="#3D3F43"/>
<path d="M27.9389 19.8494L28.6749 13.2568L28.4733 13.2344L27.7373 19.8269L27.9389 19.8494Z" fill="#2F2F31"/>
<path d="M37.1554 20.8809L37.8913 14.2883L37.6898 14.2659L36.957 20.8584L37.1554 20.8809Z" fill="#2F2F31"/>
<path d="M29.1297 16.0435C28.8001 16.0051 28.5057 16.2421 28.4673 16.5721C28.4321 16.8988 28.669 17.1968 28.9954 17.232C29.325 17.2704 29.6193 17.0334 29.6545 16.7034C29.6929 16.3767 29.4561 16.0788 29.1297 16.0435Z" fill="#2F2F31"/>
<path d="M35.9546 22.3158L34.9179 22.6201C34.0059 22.886 33.0523 22.3639 32.7867 21.4509L32.0635 18.9779L32.3963 18.3693L35.2794 17.5268L35.8842 17.8599L36.7578 20.8487C36.9402 21.4766 36.5818 22.1332 35.9546 22.3158Z" fill="#FBC89A"/>
<path d="M32.5438 19.3369L32.0926 19.0326L30.707 15.6787L30.9727 15.0412L31.6126 15.3039L32.9951 18.661L32.7294 19.2985L32.5438 19.3369Z" fill="#FBC89A"/>
<path d="M33.5011 19.0581L33.0339 18.7186L31.7188 14.6695L32.0323 14.0513L32.6467 14.3652L33.9651 18.4174L33.6515 19.0325L33.5011 19.0581Z" fill="#FBC89A"/>
<path d="M34.4548 18.7764L33.9812 18.4048L33.0693 14.6376L33.4309 14.0482L34.0197 14.407L34.9316 18.1741L34.57 18.7636L34.4548 18.7764Z" fill="#FBC89A"/>
<path d="M35.4083 18.4976L34.9283 18.0939L34.3779 14.9258L34.7747 14.3588L35.3379 14.756L35.8915 17.9242L35.4947 18.4912L35.4083 18.4976Z" fill="#FBC89A"/>
<path d="M12.4797 50.6595L12.9118 50.4801C13.7022 50.5346 15.5581 50.6627 16.3197 50.1534L17.0461 50.3007L16.899 51.0279C15.843 51.7326 13.891 51.598 12.8382 51.5275C12.5502 51.5051 12.3326 51.2553 12.3518 50.967L12.4797 50.6595Z" fill="#FBC89A"/>
</svg>
