<svg width="105" height="100" viewBox="0 0 105 100" fill="none" xmlns="http://www.w3.org/2000/svg">
<path d="M51.1784 27.4198C52.2545 47.5307 43.1457 51.5573 30.4344 52.4575C29.3531 52.5344 28.3845 51.7847 28.1845 50.718C27.9531 49.4815 28.8331 48.3123 30.0846 48.197C45.0571 46.8227 46.6597 39.8618 46.0894 27.6761C46.0245 26.2858 47.0846 25.1006 48.4696 25.0141C49.8833 24.9212 51.1019 26.0039 51.1784 27.4198Z" fill="#FBC89A"/>
<path d="M23.035 74.8874C21.7127 74.9739 20.7127 76.1207 20.8014 77.4469L20.8263 77.812L25.6177 77.4853L25.5927 77.1233C25.5038 75.7971 24.3588 74.7977 23.035 74.8874Z" fill="#FBC89A"/>
<path d="M26.7025 81.5729L12.8001 82.5146L12.7227 81.3678L26.625 80.426L26.7025 81.5729Z" fill="#422715"/>
<path d="M25.6427 77.4855L20.8263 77.8122L12.7227 81.3679L26.6251 80.4261L25.6427 77.4855Z" fill="#422715"/>
<path d="M21.0371 76.0375C29.8733 43.0588 43.5747 49.7763 61.401 55.3629C63.6048 56.0549 64.8659 58.3709 64.241 60.5972C63.5872 62.9261 61.1635 64.2395 58.8586 63.5156C43.2784 58.6176 32.9072 50.417 25.6186 77.4758L21.0371 76.0375Z" fill="#FBC89A"/>
<path d="M9.85645 92.4996C18.7627 66.4658 31.5439 61.571 46.669 55.4141C48.8489 54.5268 51.334 55.5807 52.2114 57.7686C53.0889 59.9533 52.0213 62.4391 49.8329 63.304C34.6802 69.3008 23.6702 72.9782 14.0939 94.7644L9.85645 92.4996Z" fill="#F6BD8A"/>
<path d="M13.351 91.6221C12.271 90.8533 10.7709 91.1064 10.0022 92.1859L9.79102 92.4838L13.7021 95.2739L13.9133 94.976C14.6835 93.8933 14.431 92.3941 13.351 91.6221Z" fill="#F6BD8A"/>
<path d="M11.9546 99.124L0.603516 91.0323L1.26975 90.0969L12.6208 98.1855L11.9546 99.124Z" fill="#422715"/>
<path d="M13.722 95.2867L9.79082 92.4837L1.26953 90.0972L12.6196 98.189L13.722 95.2867Z" fill="#422715"/>
<path d="M65.5449 15.6603C65.7225 22.4674 60.3526 28.131 53.5513 28.3072C46.7513 28.4865 41.095 23.1113 40.9174 16.3009C40.7401 9.49377 46.11 3.83018 52.9113 3.65399C59.7113 3.47781 65.3673 8.8531 65.5449 15.6603Z" fill="#3D3F43"/>
<path d="M45.4413 51.4229L46.2576 49.5361C47.1411 47.4892 47.3824 45.2212 46.9475 43.0365L46.2464 39.5095C44.4474 38.9265 43.625 36.8475 44.5338 35.1882L44.8963 34.5283C45.8838 32.7248 46.4224 30.7131 46.4688 28.6597L46.4989 27.3303C46.5264 26.113 47.3674 25.0655 48.5488 24.7772L51.5389 24.0468H56.9674L61.5149 24.8253C62.9411 25.0719 63.9187 26.4045 63.7251 27.8396L62.5136 36.8091C62.3312 38.1609 62.0211 39.4903 61.585 40.7781L60.5002 43.9943C59.6925 46.3872 60.1626 49.0236 61.745 50.9873L62.0688 51.3909C63.5376 53.2136 64.3401 55.488 64.3401 57.8297V58.3294C64.3401 61.7442 61.5738 64.512 58.1613 64.512H50.3286C46.9162 64.512 44.1514 61.7442 44.1514 58.3294V57.6567C44.1514 55.5137 44.5901 53.3898 45.4413 51.4229Z" fill="#F35F1A"/>
<path d="M54.5371 27.9353C53.0644 28.2204 51.6408 27.2594 51.3544 25.7858L50.2369 20.0325C49.9508 18.5622 50.9121 17.1335 52.3831 16.8484C53.8545 16.5601 55.2795 17.5243 55.5659 18.9946L56.6833 24.7479C56.9681 26.2215 56.0081 27.647 54.5371 27.9353Z" fill="#FAB47B"/>
<path d="M51.7334 1.63578C47.302 1.7511 43.862 5.53749 44.1673 9.96456L44.677 16.7365C44.957 20.7183 48.3171 23.7743 52.3033 23.6718C56.2908 23.5693 59.4921 20.3435 59.5647 16.3489L59.7222 9.56093C59.7971 5.12425 56.1635 1.52046 51.7334 1.63578Z" fill="#FBC89A"/>
<path d="M50.1691 11.7457L50.2968 16.6565L49.4468 16.679L49.043 16.1728L50.1691 11.7457Z" fill="#FAB47B"/>
<path d="M52.7966 13.8664C52.8103 14.3853 52.6305 14.8114 52.394 14.8146C52.1591 14.821 51.9566 14.4078 51.9441 13.8888C51.9303 13.3699 52.1105 12.947 52.3454 12.9406C52.5815 12.9342 52.7828 13.3474 52.7966 13.8664Z" fill="#3D3F43"/>
<path d="M52.3447 12.9405L54.1447 12.8925L52.3697 13.8792L52.3447 12.9405Z" fill="#3D3F43"/>
<path d="M47.082 14.0169C47.0957 14.5326 46.9143 14.9586 46.6794 14.965C46.4445 14.9714 46.2419 14.555 46.2282 14.0393C46.2157 13.5203 46.3955 13.0943 46.6307 13.0879C46.8656 13.0815 47.0682 13.4979 47.082 14.0169Z" fill="#3D3F43"/>
<path d="M46.6301 13.0878L44.8301 13.1358L46.655 14.0264L46.6301 13.0878Z" fill="#3D3F43"/>
<path d="M47.116 11.4605C46.285 11.4252 45.5324 11.7167 45.0312 12.2036C45.3736 11.3804 46.1999 10.8166 47.141 10.855C47.5787 10.8743 47.981 11.0184 48.3125 11.2554L48.0936 11.6591C47.7948 11.5437 47.4648 11.4733 47.116 11.4605Z" fill="#3D3F43"/>
<path d="M52.8747 11.3101C53.7035 11.23 54.4711 11.4862 54.9959 11.9443C54.611 11.1403 53.7573 10.6181 52.8187 10.7078C52.3822 10.7495 51.9899 10.9161 51.6699 11.1691L51.9099 11.5599C52.2024 11.4286 52.5272 11.3421 52.8747 11.3101Z" fill="#3D3F43"/>
<path d="M53.3902 16.2049C53.4126 17.1146 54.1701 17.8322 55.0801 17.8098C55.9902 17.7874 56.7077 17.0281 56.684 16.1184C56.6603 15.2086 55.9038 14.4878 54.9937 14.5102C54.084 14.5359 53.3665 15.2919 53.3902 16.2049Z" fill="#FAB47B"/>
<path d="M45.6786 14.7535C46.5887 14.7311 47.3449 15.4487 47.3686 16.3617C47.3926 17.2714 46.6748 18.0274 45.7651 18.0531C45.4188 18.0627 45.095 17.9634 44.8249 17.7872C44.7526 17.4444 44.7011 17.0953 44.6761 16.7365L44.5625 15.234C44.8499 14.9489 45.2425 14.7663 45.6786 14.7535Z" fill="#FAB47B"/>
<path d="M56.8012 12.0147C56.71 8.50062 51.3023 9.50965 50.2812 5.81616C48.9174 8.5102 44.4924 8.22512 44.07 11.2491C43.5651 10.2657 43.3474 9.19576 43.3161 8.01691C43.2073 3.8237 46.5148 0.335202 50.7049 0.226287C51.2851 0.21027 51.8524 0.264715 52.3986 0.37363C52.9388 0.235885 53.5011 0.152603 54.0825 0.13979C58.2713 0.0308752 61.7561 3.33998 61.8649 7.5332C61.9526 10.8839 59.8575 13.783 56.8748 14.8689L56.8012 12.0147Z" fill="#3D3F43"/>
<path d="M59.8143 18.9438L61.8281 18.8925L61.5743 9.10941L56.7305 9.23755L56.9119 16.1857C56.9519 17.7521 58.2518 18.9854 59.8143 18.9438Z" fill="#3D3F43"/>
<path d="M59.8915 16.3521C59.3216 16.3681 58.8477 15.9165 58.833 15.3463L58.809 14.4141C58.7939 13.8439 59.2442 13.3698 59.8141 13.3538C60.6403 13.3313 61.329 13.9849 61.3504 14.8145C61.3715 15.641 60.719 16.3297 59.8915 16.3521Z" fill="#FBC89A"/>
<path d="M50.2952 20.731C49.275 20.731 48.3928 20.4555 47.9326 19.9974L47.9339 19.7251H48.2053C48.5877 20.1063 49.3877 20.3466 50.2952 20.3466H50.2991C51.2066 20.3466 52.0076 20.1063 52.389 19.7251H52.6613V19.9974C52.2027 20.4555 51.3202 20.731 50.2991 20.731H50.2952Z" fill="#AA635F"/>
<path d="M40.2748 50.1191H42.405C44.0386 50.1191 45.5685 49.3215 46.5023 47.9792L47.6025 46.4L55.325 47.5596C59.1586 48.133 62.3775 50.7501 63.7285 54.3892L64.4386 56.3016C65.6825 59.6523 63.6937 63.333 60.2124 64.1242L53.7311 65.5978C51.9023 65.9502 50.1913 66.7606 48.7573 67.9523L42.0463 73.5261L28.0312 55.8851L35.516 51.4292C36.956 50.5707 38.5999 50.1191 40.2748 50.1191Z" fill="#F35F1A"/>
<path d="M31.6619 48.5366L30.547 48.2323C29.5707 47.9664 28.562 48.543 28.2958 49.52L27.5732 52.1756L27.9396 52.8163C28.2807 53.0501 28.8696 53.3192 29.2683 53.4281C29.667 53.537 30.6206 53.6876 31.0331 53.6588L31.6731 53.2936L32.547 50.087C32.7307 49.4143 32.3345 48.7192 31.6619 48.5366Z" fill="#FBC89A"/>
<path d="M40.4342 54.5139L42.0732 47.8188C42.1532 47.4921 41.967 47.1589 41.648 47.0564L30.1257 43.3245C29.8057 43.222 29.4617 43.3821 29.3357 43.6929L26.7456 50.0804C26.5795 50.4904 26.7955 50.9549 27.2157 51.0927L39.463 55.0585C39.8832 55.193 40.3292 54.9431 40.4342 54.5139Z" fill="#399080"/>
<path d="M40.4342 54.5139L42.0732 47.8188C42.1532 47.4921 41.967 47.1589 41.648 47.0564L30.1257 43.3245C29.8057 43.222 29.4617 43.3821 29.3357 43.6929L26.7456 50.0804C26.5795 50.4904 26.7955 50.9549 27.2157 51.0927L39.463 55.0585C39.8832 55.193 40.3292 54.9431 40.4342 54.5139Z" fill="#399080"/>
<path d="M41.308 47.7549L29.9931 44.0902L27.4043 50.3464L39.7454 54.3411L41.308 47.7549Z" fill="#FCDAB0"/>
<path d="M42.0039 51.2562L27.3789 46.5216L27.4039 50.3464L39.745 54.3411L42.0039 51.2562Z" fill="#FDE6C7"/>
<path d="M27.0605 47.5017L27.3783 46.5215L42.0033 51.2561L41.6859 52.2363L27.0605 47.5017Z" fill="#FEF2E1"/>
<path d="M40.569 54.9112L42.553 52.5182L26.1953 47.223L26.403 50.3239C26.4241 50.6346 26.6318 50.9037 26.9278 50.9998L39.7505 55.1514C40.0468 55.2475 40.3703 55.1514 40.569 54.9112Z" fill="#337C71"/>
<path d="M42.5485 52.531L42.5558 52.5054L42.3671 52.137L26.5684 47.0211L26.1997 47.2101L26.1924 47.2326L26.3799 47.601L42.1799 52.7168L42.5485 52.531Z" fill="#48B198"/>
<path d="M28.03 52.605L27.4748 52.1213L27.1337 49.7284C27.0898 49.4208 27.3023 49.1357 27.6098 49.0941C27.9186 49.0525 28.2012 49.2639 28.2463 49.5714L28.5874 51.9611C28.6312 52.2686 28.4175 52.5537 28.11 52.5986L28.03 52.605Z" fill="#FBC89A"/>
<path d="M28.9701 53.1943L28.8901 53.1911C28.5826 53.1463 28.3701 52.8612 28.4139 52.5537L28.8402 49.5713C28.8853 49.2638 29.1688 49.0523 29.4763 49.094C29.7838 49.1356 29.9963 49.4207 29.9528 49.7282L29.5266 52.7138L28.9701 53.1943Z" fill="#FBC89A"/>
<path d="M30.2228 53.5017L30.083 53.4825C29.7815 53.4056 29.6017 53.0981 29.6791 52.7969L30.218 50.7051C30.2954 50.404 30.6043 50.2214 30.9028 50.3015C31.203 50.3784 31.3841 50.6859 31.3054 50.987L30.7668 53.0788L30.2228 53.5017Z" fill="#FBC89A"/>
<path d="M31.1863 53.7581L30.8465 53.6427L30.7412 52.8515L31.7364 51.5509L32.5239 51.4452L32.6289 52.2332L31.6337 53.537L31.1863 53.7581Z" fill="#FBC89A"/>
<path d="M64.275 28.0637C60.0852 50.7276 58.675 47.5434 41.2701 48.2962C40.1863 48.3443 39.1927 47.7196 38.9437 46.6625C38.6551 45.4388 39.4749 44.1703 40.7264 44.0581C61.0513 42.2066 54.4926 44.529 59.4289 26.4876C59.7962 25.1454 61.275 24.4374 62.6014 24.8475C63.955 25.2671 64.5326 26.6702 64.275 28.0637Z" fill="#FBC89A"/>
<path d="M40.2208 39.0064L40.416 38.5964L40.9171 38.417L41.096 38.9167L36.5183 48.2226L35.4482 49.6033L35.8383 47.9022L40.1097 39.2435L39.7433 39.487L38.8208 41.4346L38.6633 41.4923L38.607 41.3321L39.5184 39.4069L40.2208 39.0064Z" fill="#4F2E19"/>
<path d="M42.3509 45.0864L42.4321 46.2397C42.5032 47.2519 41.7432 48.1265 40.7333 48.2001L37.9909 48.3923L37.4331 47.9086C37.2709 47.5306 37.1208 46.8996 37.092 46.4863C37.0619 46.0731 37.0997 45.1088 37.2069 44.7084L37.6907 44.151L41.0046 43.914C41.6984 43.8659 42.3019 44.3913 42.3509 45.0864Z" fill="#FBC89A"/>
<path d="M72.0428 96.8755H91.5107V58.1659H72.0428C69.3177 58.1659 67.1104 60.3762 67.1104 63.1055V91.9359C67.1104 94.662 69.3177 96.8755 72.0428 96.8755Z" fill="#E1BA35"/>
<path d="M92.3103 96.8755H99.2416C101.968 96.8755 104.176 94.662 104.176 91.9359V63.1055C104.176 60.3762 101.968 58.1659 99.2416 58.1659H92.3103C89.5839 58.1659 87.376 60.3762 87.376 63.1055V91.9359C87.376 94.662 89.5839 96.8755 92.3103 96.8755Z" fill="#C9A62E"/>
<path d="M81.4082 56.984V58.166H82.525V56.9808C82.525 55.4624 83.757 54.2323 85.2738 54.2323H87.8786C89.3986 54.2323 90.6273 55.4624 90.6273 56.9808V58.166H91.7441V56.984C91.7441 54.7801 89.9586 52.9894 87.7538 52.9894H85.3986C83.1938 52.9894 81.4082 54.7801 81.4082 56.984Z" fill="#412B29"/>
</svg>
