<svg width="31" height="39" viewBox="0 0 31 39" fill="none" xmlns="http://www.w3.org/2000/svg">
<mask id="mask0" mask-type="alpha" maskUnits="userSpaceOnUse" x="0" y="0" width="31" height="39">
<path d="M13.122 38.2498H17.5412C24.6612 38.2498 30.434 32.474 30.434 25.3465V13.5132C30.434 6.3889 24.6612 0.609985 17.5412 0.609985H13.122C6.00523 0.609985 0.232422 6.3889 0.232422 13.5132V25.3465C0.232422 32.474 6.00523 38.2498 13.122 38.2498Z" fill="#667F90"/>
</mask>
<g mask="url(#mask0)">
<path d="M13.6071 33.2523C14.6832 53.3632 5.57444 57.3898 -7.1369 58.29C-8.21818 58.3669 -9.18682 57.6173 -9.38682 56.5505C-9.61818 55.314 -8.73819 54.1448 -7.48667 54.0295C7.4858 52.6552 9.08836 45.6943 8.51812 33.5086C8.45316 32.1184 9.51332 30.9331 10.8983 30.8466C12.312 30.7537 13.5306 31.8364 13.6071 33.2523Z" fill="#FBC89A"/>
<path d="M27.9736 21.4928C28.1512 28.2999 22.7813 33.9635 15.98 34.1397C9.18 34.3191 3.52366 28.9438 3.34606 22.1335C3.16878 15.3263 8.53872 9.6627 15.34 9.48651C22.14 9.31033 27.796 14.6856 27.9736 21.4928Z" fill="#3D3F43"/>
<path d="M7.87 57.2555L8.68631 55.3687C9.56983 53.3217 9.81111 51.0537 9.37623 48.869L8.67512 45.3421C6.87608 44.7591 6.05368 42.6801 6.96248 41.0207L7.32504 40.3608C8.31256 38.5573 8.85112 36.5456 8.89752 34.4922L8.9276 33.1628C8.95512 31.9455 9.79608 30.898 10.9775 30.6097L13.9676 29.8793H19.3961L23.9436 30.6578C25.3698 30.9044 26.3474 32.237 26.1538 33.6721L24.9423 42.6416C24.7599 43.9934 24.4498 45.3228 24.0137 46.6106L22.9289 49.8268C22.1212 52.2197 22.5913 54.8561 24.1737 56.8198L24.4975 57.2234C25.9663 59.0461 26.7689 61.3206 26.7689 63.6622V64.1619C26.7689 67.5767 24.0025 70.3445 20.59 70.3445H12.7573C9.34486 70.3445 6.58008 67.5767 6.58008 64.1619V63.4892C6.58008 61.3462 7.0188 59.2223 7.87 57.2555Z" fill="#F35F1A"/>
<path d="M16.9658 33.7678C15.4931 34.0529 14.0695 33.0919 13.7831 31.6183L12.6656 25.865C12.3795 24.3947 13.3408 22.966 14.8119 22.6809C16.2832 22.3926 17.7082 23.3568 17.9946 24.8271L19.1121 30.5804C19.3969 32.054 18.4368 33.4795 16.9658 33.7678Z" fill="#FAB47B"/>
<path d="M14.1621 7.4683C9.73072 7.58362 6.29072 11.37 6.596 15.7971L7.10575 22.569C7.38575 26.5508 10.7458 29.6068 14.732 29.5043C18.7195 29.4018 21.9208 26.176 21.9935 22.1814L22.1509 15.3934C22.2258 10.9568 18.5922 7.35298 14.1621 7.4683Z" fill="#FBC89A"/>
<path d="M12.5978 17.5782L12.7255 22.4891L11.8755 22.5115L11.4717 22.0053L12.5978 17.5782Z" fill="#FAB47B"/>
<path d="M15.2253 19.6989C15.239 20.2179 15.0592 20.6439 14.8227 20.6471C14.5878 20.6536 14.3853 20.2403 14.3728 19.7213C14.359 19.2024 14.5392 18.7796 14.7741 18.7731C15.0102 18.7667 15.2115 19.1799 15.2253 19.6989Z" fill="#3D3F43"/>
<path d="M14.7734 18.7731L16.5734 18.725L14.7984 19.7117L14.7734 18.7731Z" fill="#3D3F43"/>
<path d="M9.51068 19.8494C9.52444 20.3651 9.34297 20.7911 9.10808 20.7975C8.87319 20.8039 8.67062 20.3875 8.65686 19.8718C8.64438 19.3529 8.82423 18.9268 9.05944 18.9204C9.29434 18.914 9.49692 19.3304 9.51068 19.8494Z" fill="#3D3F43"/>
<path d="M9.05878 18.9203L7.25879 18.9683L9.08374 19.8589L9.05878 18.9203Z" fill="#3D3F43"/>
<path d="M9.54473 17.293C8.7137 17.2577 7.96108 17.5492 7.45996 18.0361C7.80236 17.2129 8.62858 16.6491 9.56969 16.6876C10.0075 16.7068 10.4097 16.8509 10.7412 17.088L10.5223 17.4916C10.2235 17.3763 9.89353 17.3058 9.54473 17.293Z" fill="#3D3F43"/>
<path d="M15.3034 17.1426C16.1322 17.0625 16.8999 17.3188 17.4247 17.7769C17.0397 16.9728 16.186 16.4506 15.2474 16.5403C14.8109 16.582 14.4186 16.7486 14.0986 17.0016L14.3386 17.3925C14.6311 17.2611 14.9559 17.1746 15.3034 17.1426Z" fill="#3D3F43"/>
<path d="M15.8189 22.0374C15.8413 22.9472 16.5988 23.6647 17.5089 23.6423C18.4189 23.6199 19.1364 22.8607 19.1127 21.9509C19.089 21.0411 18.3325 20.3203 17.4225 20.3428C16.5127 20.3684 15.7952 21.1244 15.8189 22.0374Z" fill="#FAB47B"/>
<path d="M8.10736 20.5861C9.01743 20.5636 9.77359 21.2812 9.79727 22.1942C9.82127 23.1039 9.10352 23.86 8.19376 23.8856C7.84752 23.8952 7.52369 23.7959 7.25361 23.6197C7.18129 23.277 7.12976 22.9278 7.1048 22.569L6.99121 21.0666C7.27857 20.7815 7.6712 20.5989 8.10736 20.5861Z" fill="#FAB47B"/>
<path d="M19.2299 17.8472C19.1387 14.3331 13.7311 15.3422 12.7099 11.6487C11.3461 14.3427 6.92112 14.0576 6.49872 17.0816C5.99376 16.0982 5.77616 15.0283 5.7448 13.8494C5.636 9.65622 8.94353 6.16772 13.1336 6.05881C13.7138 6.04279 14.2811 6.09723 14.8274 6.20615C15.3675 6.0684 15.9298 5.98512 16.5112 5.97231C20.7 5.86339 24.1848 9.1725 24.2936 13.3657C24.3813 16.7165 22.2863 19.6155 19.3035 20.7014L19.2299 17.8472Z" fill="#3D3F43"/>
<path d="M22.243 24.7763L24.2568 24.7251L24.003 14.9419L19.1592 15.0701L19.3406 22.0182C19.3806 23.5847 20.6805 24.818 22.243 24.7763Z" fill="#3D3F43"/>
<path d="M22.3202 22.1846C21.7503 22.2007 21.2764 21.749 21.2617 21.1788L21.2377 20.2466C21.2226 19.6764 21.6729 19.2023 22.2428 19.1863C23.069 19.1639 23.7577 19.8174 23.7791 20.647C23.8002 21.4735 23.1477 22.1622 22.3202 22.1846Z" fill="#FBC89A"/>
<path d="M12.7239 26.5635C11.7037 26.5635 10.8215 26.288 10.3613 25.8299L10.3626 25.5576H10.634C11.0164 25.9388 11.8164 26.1791 12.7239 26.1791H12.7278C13.6353 26.1791 14.4363 25.9388 14.8177 25.5576H15.09V25.8299C14.6315 26.288 13.7489 26.5635 12.7278 26.5635H12.7239Z" fill="#AA635F"/>
<path d="M26.7037 33.8962C22.5139 56.5601 21.1037 53.376 3.69882 54.1288C2.61498 54.1768 1.62137 53.5521 1.37241 52.495C1.08377 51.2713 1.90363 50.0028 3.15515 49.8907C23.48 48.0391 16.9213 50.3616 21.8576 32.3201C22.225 30.9779 23.7037 30.27 25.0301 30.68C26.3837 31.0996 26.9613 32.5027 26.7037 33.8962Z" fill="#FBC89A"/>
</g>
</svg>
