<svg width="31" height="39" viewBox="0 0 31 39" fill="none" xmlns="http://www.w3.org/2000/svg">
<mask id="mask0" mask-type="alpha" maskUnits="userSpaceOnUse" x="0" y="0" width="31" height="39">
<path d="M13.4218 38.2498H17.841C24.961 38.2498 30.7338 32.474 30.7338 25.3465V13.5132C30.7338 6.3889 24.961 0.609985 17.841 0.609985H13.4218C6.30503 0.609985 0.532227 6.3889 0.532227 13.5132V25.3465C0.532227 32.474 6.30503 38.2498 13.4218 38.2498Z" fill="#667F90"/>
</mask>
<g mask="url(#mask0)">
<path d="M13.9248 38.901C-1.38399 69.403 -7.01602 59.2813 -15.2432 39.2278C-15.7264 38.0457 -15.304 36.6874 -14.2 36.0468C-12.92 35.3068 -11.1024 35.7553 -10.6608 37.168C-3.432 60.306 -0.551991 52.2976 8.64159 36.066C9.44798 34.6437 11.208 34.0767 12.6576 34.8295C14.136 35.5983 14.6736 37.4114 13.9248 38.901Z" fill="#FABF95"/>
<path d="M13.1279 33.9196C14.4207 34.5891 15.2495 35.9122 15.2943 37.3761C15.3135 38.0648 15.1567 38.7568 14.8335 39.375C8.05588 52.3939 3.0575 58.2276 -1.87689 58.877C-6.75048 59.5215 -10.1521 52.3199 -13.2273 45.2853C-13.6081 44.414 -13.9825 43.4401 -14.3569 42.4823C-14.4977 42.1235 -14.3281 41.7199 -13.9761 41.5662L-9.89921 39.8075C-9.53761 39.6505 -9.11844 39.8171 -8.96164 40.1791C-6.27684 46.352 -4.72484 50.9296 -2.63845 50.7182C-0.174453 50.468 1.92152 46.5058 5.09911 40.5058C5.88311 39.0195 6.77272 37.3377 7.74551 35.5694C8.81111 33.6313 11.1759 32.9074 13.1279 33.9196Z" fill="#DD1841"/>
<path d="M24.1397 33.0998L14.1301 32.7986C10.7156 32.6961 7.86767 35.3837 7.76526 38.7985L6.89807 67.9429L27.1126 68.5483L28.047 37.2481C28.1142 35.0218 26.3638 33.1638 24.1397 33.0998Z" fill="#DD1841"/>
<path d="M17.861 37.8053L17.9633 37.8085C20.0849 37.8726 21.8545 36.2036 21.9185 34.0798L21.9473 33.0323L14.1682 32.8016L14.1394 33.8491C14.0754 35.9698 15.7426 37.7412 17.861 37.8053Z" fill="#A51835"/>
<path d="M18.203 37.0079C16.3758 37.1905 14.7438 35.8579 14.5582 34.0256L14.091 29.4191C13.9086 27.59 15.2397 25.9563 17.067 25.7705C18.8974 25.5847 20.5294 26.9205 20.715 28.7496L21.179 33.3561C21.3646 35.1884 20.0334 36.8221 18.203 37.0079Z" fill="#F1A984"/>
<path d="M15.8637 6.96985C11.4317 6.96985 7.89582 10.6666 8.08462 15.1001L8.41743 22.6505C8.59663 26.6387 11.8734 29.7812 15.8606 29.7844C19.851 29.7844 23.1341 26.6419 23.3101 22.6505L23.6461 15.1001C23.8349 10.6666 20.2957 6.96985 15.8637 6.96985Z" fill="#FABF95"/>
<path d="M15.1625 17.1565L17.9465 17.3455L18.0361 17.0251L16.7945 16.3973C16.3369 16.1667 15.8505 15.9905 15.3513 15.8752C14.9737 15.7855 14.6025 16.0481 14.5609 16.4357C14.5193 16.8041 14.7913 17.1309 15.1625 17.1565Z" fill="#3D3F43"/>
<path d="M11.6146 17.1565L8.82732 17.3455L8.73779 17.0251L9.97934 16.3973C10.4369 16.1667 10.9233 15.9905 11.4225 15.8752C11.8033 15.7855 12.1713 16.0481 12.2161 16.4357C12.2545 16.8041 11.9826 17.1309 11.6146 17.1565Z" fill="#3D3F43"/>
<path d="M14.7599 33.9424H13.1664C10.568 33.9424 8.4624 31.8345 8.4624 29.2366V24.0311H23.1279V25.5655C23.1279 30.1912 19.3807 33.9424 14.7599 33.9424Z" fill="#3D3F43"/>
<path d="M8.46216 23.1885C8.90058 23.7139 9.4574 24.031 10.0654 24.031H8.46216V23.1885Z" fill="#3D3F43"/>
<path d="M10.3567 27.6636H17.0576V24.4665C17.0576 23.7586 16.4848 23.1884 15.7808 23.1884H11.6335C10.9295 23.1884 10.3567 23.7586 10.3567 24.4665V27.6636Z" fill="#3D3F43"/>
<path d="M22.6798 24.6108H23.5118C23.9726 24.6108 24.3438 24.2361 24.3438 23.778V13.8891C24.3438 12.9697 23.6014 12.2233 22.6798 12.2233V24.6108Z" fill="#3D3F43"/>
<path d="M15.7454 24.4891C16.0686 24.4891 16.3086 24.8575 16.2286 25.2355C15.9598 26.5072 15.0094 27.449 13.8766 27.449H13.3038C12.1742 27.449 11.2238 26.5072 10.9518 25.2355C10.8718 24.8575 11.115 24.4891 11.435 24.4891H15.7454Z" fill="white"/>
<path d="M23.1754 22.4612H21.9274V18.8414H23.1754C24.1738 18.8414 24.9834 19.6519 24.9834 20.6513C24.9834 21.6508 24.1738 22.4612 23.1754 22.4612Z" fill="#FABF95"/>
<path d="M21.2589 17.1628C22.0429 17.1628 22.6797 16.5253 22.6797 15.7373V12.2231H21.2589C20.4716 12.2231 19.8348 12.8606 19.8348 13.6487V15.7373C19.8348 16.5253 20.4716 17.1628 21.2589 17.1628Z" fill="#3D3F43"/>
<path d="M22.6797 20.1101H21.4284V13.6874H22.6797V20.1101Z" fill="#3D3F43"/>
<path d="M24.3281 14.4176H21.9281V18.8159H24.3281V14.4176Z" fill="#3D3F43"/>
<path d="M15.8477 19.5013C15.8477 20.0203 15.6588 20.4399 15.422 20.4399C15.1852 20.4399 14.9964 20.0203 14.9964 19.5013C14.9964 18.9824 15.1852 18.5627 15.422 18.5627C15.6588 18.5627 15.8477 18.9824 15.8477 19.5013Z" fill="#3D3F43"/>
<path d="M10.1328 19.5013C10.1328 20.0203 9.9408 20.4399 9.70402 20.4399C9.47044 20.4399 9.2785 20.0203 9.2785 19.5013C9.2785 18.9824 9.47044 18.5627 9.70402 18.5627C9.9408 18.5627 10.1328 18.9824 10.1328 19.5013Z" fill="#3D3F43"/>
<path d="M16.2287 25.2353C16.0943 25.8696 15.7903 26.4207 15.3807 26.8147H11.7998C11.3902 26.4207 11.0863 25.8696 10.9519 25.2353L10.9423 25.0111H16.2383L16.2287 25.2353Z" fill="#AA635F"/>
<path d="M22.6797 25.1458H21.4284V19.7417H22.6797V25.1458Z" fill="#3D3F43"/>
<path d="M17.6558 24.031H21.4287V20.2543C21.4287 22.3397 19.7391 24.031 17.6558 24.031Z" fill="#3D3F43"/>
<path d="M6.90159 18.3064H7.37207V17.7394H6.90159L6.6167 18.0245L6.90159 18.3064Z" fill="#AA635F"/>
<path d="M9.66536 21.5193C10.9742 21.5193 12.0366 20.4558 12.0366 19.1424C12.0366 17.8322 10.9742 16.7688 9.66536 16.7688C8.35334 16.7688 7.29096 17.8322 7.29096 19.1424C7.29096 20.4558 8.35334 21.5193 9.66536 21.5193ZM9.66536 16.3459C11.2078 16.3459 12.459 17.5984 12.459 19.1424C12.459 20.6896 11.2078 21.9421 9.66536 21.9421C8.11974 21.9421 6.86853 20.6896 6.86853 19.1424C6.86853 17.5984 8.11974 16.3459 9.66536 16.3459Z" fill="#AA635F"/>
<path d="M13.2725 17.5471V22.2113C13.2725 22.836 12.6965 23.3037 12.0885 23.1755L11.0036 22.9481C10.3316 22.8071 10.0276 22.0191 10.4308 21.4617L13.2725 17.5471Z" fill="#F1A984"/>
<path d="M12.0883 18.9375H13.9443V18.3706H12.0883V18.9375Z" fill="#AA635F"/>
<path d="M19.1323 18.3064H18.6619V17.7394H19.1323L19.417 18.0245L19.1323 18.3064Z" fill="#AA635F"/>
<path d="M16.3663 21.5193C17.6783 21.5193 18.7407 20.4558 18.7407 19.1424C18.7407 17.8322 17.6783 16.7688 16.3663 16.7688C15.0543 16.7688 13.9919 17.8322 13.9919 19.1424C13.9919 20.4558 15.0543 21.5193 16.3663 21.5193ZM16.3663 16.3459C17.9087 16.3459 19.1631 17.5984 19.1631 19.1424C19.1631 20.6896 17.9087 21.9421 16.3663 21.9421C14.8239 21.9421 13.5727 20.6896 13.5727 19.1424C13.5727 17.5984 14.8239 16.3459 16.3663 16.3459Z" fill="#AA635F"/>
<path d="M26.754 34.8105C56.4242 51.4418 44.6547 55.8627 30.9684 68.4911C30.0308 69.3557 28.5619 69.2919 27.6275 68.4196C26.5427 67.4147 26.4948 65.6103 27.6628 64.7069C46.3347 50.228 40.0243 49.6261 23.762 40.0128C22.3572 39.1799 21.8548 37.3892 22.6484 35.9605V35.9573C23.4612 34.503 25.298 33.9968 26.754 34.8105Z" fill="#FABF95"/>
<path d="M21.7556 35.4606C22.4628 34.1888 23.81 33.3976 25.2692 33.3976C25.9604 33.3976 26.6451 33.577 27.2531 33.9165C40.0499 41.0889 45.7236 46.2656 46.226 51.2212C46.722 56.1192 41.9924 59.7928 36.1684 64.7907C35.4452 65.4125 34.626 66.0557 33.8196 66.6939C33.5188 66.9306 33.0835 66.8893 32.8339 66.5939L29.9635 63.2076C29.7075 62.9075 29.7459 62.4558 30.0467 62.1992C35.1571 57.8272 38.2035 53.8316 38.0563 51.737C37.8803 49.2668 33.986 47.0507 28.0884 43.6933C26.6324 42.8636 24.9779 41.9218 23.2403 40.8967C21.3395 39.7691 20.6836 37.3826 21.7556 35.4606Z" fill="#DD1841"/>
</g>
</svg>
