<svg width="31" height="39" viewBox="0 0 31 39" fill="none" xmlns="http://www.w3.org/2000/svg">
<mask id="mask0" mask-type="alpha" maskUnits="userSpaceOnUse" x="0" y="0" width="31" height="39">
<path d="M13.3115 38.2498H17.7306C24.8506 38.2498 30.6234 32.474 30.6234 25.3465V13.5132C30.6234 6.3889 24.8506 0.609985 17.7306 0.609985H13.3115C6.19468 0.609985 0.421875 6.3889 0.421875 13.5132V25.3465C0.421875 32.474 6.19468 38.2498 13.3115 38.2498Z" fill="#667F90"/>
</mask>
<g mask="url(#mask0)">
<path d="M8.84863 34.5055C-8.68739 50.4167 -8.60738 57.5955 -7.69858 72.5745C-7.62178 73.8495 -6.601 74.865 -5.3274 74.9322C-3.8522 75.0155 -2.62339 73.8046 -2.68099 72.3279C-3.38499 54.6324 2.33026 48.6485 12.8871 38.939C14.0903 37.8339 14.1862 35.9631 13.1014 34.7394C11.9974 33.4933 10.0838 33.3843 8.84863 34.5055Z" fill="#FBC89A"/>
<path d="M-8.75911 71.924C-9.48231 56.9322 -9.2583 49.6317 7.73359 34.2331C9.56397 32.5737 12.4439 32.9485 13.7943 35.0179C14.8823 36.6773 14.5944 38.8812 13.1256 40.2138C2.89845 49.4652 -2.3015 53.5334 -1.33831 71.7222C-1.31911 72.049 -1.5719 72.3245 -1.8983 72.3309L-8.17349 72.4718C-8.48389 72.4782 -8.74631 72.2348 -8.75911 71.924Z" fill="#440F11"/>
<path d="M19.0749 29.5018C13.4173 29.5595 8.87654 34.198 8.93414 39.8616L9.18374 64.9504L29.4077 64.7486L29.1549 39.3939C29.1005 33.8776 24.5853 29.4473 19.0749 29.5018Z" fill="#A26A26"/>
<path d="M9.25729 66.2957C8.32608 66.1451 7.66047 65.3058 7.73407 64.3608L8.5565 53.7096L8.22369 35.7739C8.19489 34.2299 9.1165 32.8268 10.5437 32.2341L15.059 30.3666L16.6366 48.3952L16.0158 60.8051C15.843 64.2808 12.6941 66.8403 9.25729 66.2957Z" fill="#4B1615"/>
<path d="M19.0425 35.0755L18.9369 35.0787C16.8185 35.0979 15.081 33.3937 15.0618 31.2731L15.0586 30.3666C16.2906 29.8252 17.6473 29.5176 19.0745 29.5016C20.4057 29.4888 21.6761 29.7387 22.8408 30.2V31.193C22.8632 33.3168 21.1609 35.0563 19.0425 35.0755Z" fill="#6E471A"/>
<path d="M20.9407 33.7526C19.4879 34.8802 17.3984 34.6176 16.2688 33.1664L13.4303 29.5114C12.3007 28.057 12.5632 25.9653 14.0128 24.8345C15.4656 23.7069 17.5551 23.9695 18.6847 25.4207L21.5232 29.0757C22.6528 30.5301 22.3903 32.6218 20.9407 33.7526Z" fill="#FAB47B"/>
<path d="M28.9501 34.6848C45.8208 51.3039 45.4432 58.473 43.92 73.404C43.792 74.6725 42.7296 75.6464 41.4527 75.6624C39.9743 75.6816 38.7967 74.4226 38.9183 72.9491C40.3487 55.2985 34.883 49.0839 24.7325 38.9484C23.5773 37.792 23.558 35.9213 24.6909 34.7425C25.8461 33.5412 27.7629 33.5155 28.9501 34.6848Z" fill="#FBC89A"/>
<path d="M23.3887 27.0383V12.5847C24.035 12.5847 24.5629 13.1101 24.5629 13.7604V25.8659C24.5629 26.513 24.035 27.0383 23.3887 27.0383Z" fill="#3D3F43"/>
<path d="M7.18609 31.821H7.14453V25.6225H9.34277V29.6588C9.34277 30.8536 8.37643 31.821 7.18609 31.821Z" fill="#3D3F43"/>
<path d="M9.95257 30.2449C9.47582 30.2449 9.0918 29.8604 9.0918 29.3831V24.908C9.0918 24.4339 9.47582 24.0496 9.95257 24.0496C10.4261 24.0496 10.8101 24.4339 10.8101 24.908V29.3831C10.8101 29.8604 10.4261 30.2449 9.95257 30.2449Z" fill="#3D3F43"/>
<path d="M6.93003 30.1584H7.76196V10.4096C6.67409 10.4096 5.79102 11.2938 5.79102 12.3797V29.018C5.79102 29.6491 6.2997 30.1584 6.93003 30.1584Z" fill="#3D3F43"/>
<path d="M23.9009 25.4783H21.9297V10.1533C23.0177 10.1533 23.9009 11.0374 23.9009 12.1234V25.4783Z" fill="#3D3F43"/>
<path d="M7.12218 32.6121C6.71898 32.6121 6.39258 32.2853 6.39258 31.8817V12.5141H7.85498V31.8817C7.85498 32.2853 7.52857 32.6121 7.12218 32.6121Z" fill="#3D3F43"/>
<path d="M14.7805 7.70267C10.3485 7.70267 6.81257 11.3994 7.00136 15.8328L7.33417 23.3864C7.51337 27.3746 10.7901 30.5171 14.7805 30.5171C18.7677 30.5171 22.0508 27.3746 22.2268 23.3864L22.5628 15.8328C22.7516 11.3994 19.2125 7.70267 14.7805 7.70267Z" fill="#FBC89A"/>
<path d="M13.6765 34.6687H12.0829C9.4845 34.6687 7.37891 32.5609 7.37891 29.9597V24.7542H22.0477V26.2887C22.0477 30.9176 18.3005 34.6687 13.6765 34.6687Z" fill="#3D3F43"/>
<path d="M7.37891 23.9118C7.81729 24.4371 8.37408 24.7543 8.98206 24.7543H7.37891V23.9118Z" fill="#3D3F43"/>
<path d="M8.50977 28.3901H15.2073V25.19C15.2073 24.482 14.6345 23.9118 13.9305 23.9118H9.78335C9.07935 23.9118 8.50977 24.482 8.50977 25.19V28.3901Z" fill="#3D3F43"/>
<path d="M10.3878 26.6589C11.1952 27.2314 12.1132 27.2291 12.9223 26.6589C13.1586 26.4924 13.3264 26.3619 13.4471 26.1368C13.9333 25.2296 13.4333 25.2298 12.9223 25.6114C12.2906 26.0831 10.9857 26.1877 10.3878 25.6114C9.78997 25.0351 9.39997 25.4921 9.86626 26.1368C10.0383 26.3747 10.1527 26.4922 10.3878 26.6589Z" fill="#FBC89A"/>
<path d="M21.5968 25.869H20.3457V20.465H21.5968V25.869Z" fill="#3D3F43"/>
<path d="M16.5723 24.7543H20.3451V20.9774C20.3451 23.0629 18.6555 24.7543 16.5723 24.7543Z" fill="#3D3F43"/>
<path d="M22.1719 25.3436C22.6326 25.3436 23.0038 24.972 23.0038 24.5108V12.9594H21.3398V24.5108C21.3398 24.972 21.7143 25.3436 22.1719 25.3436Z" fill="#3D3F43"/>
<path d="M22.0919 23.1943H20.8438V19.5746H22.0919C23.0903 19.5746 23.8999 20.385 23.8999 21.3844C23.8999 22.3839 23.0903 23.1943 22.0919 23.1943Z" fill="#FBC89A"/>
<path d="M12.189 18.2834V23.1301C12.189 23.6363 11.9809 24.1199 11.6161 24.4691L11.3505 24.719C10.7105 25.3276 9.68967 24.6389 10.0129 23.8156L12.189 18.2834Z" fill="#F38B79"/>
<path d="M20.1308 17.3096C21.0492 17.3096 21.7948 16.5664 21.7948 15.6438V11.5339H18.4668V15.6438C18.4668 16.5664 19.2124 17.3096 20.1308 17.3096Z" fill="#3D3F43"/>
<path d="M20.9729 20.8462C20.6241 20.8462 20.3457 20.5643 20.3457 20.2183V14.4234H21.5968V20.2183C21.5968 20.5643 21.3184 20.8462 20.9729 20.8462Z" fill="#3D3F43"/>
<path d="M23.2439 15.1538H20.8438V19.552H23.2439V15.1538Z" fill="#3D3F43"/>
<path d="M10.5631 17.2523L7.71632 17.5929L7.46566 17.3968L7.6454 17.1494L10.4685 16.6065L10.7363 16.8022L10.7588 17.0016L10.5631 17.2523Z" fill="#3D3F43"/>
<path d="M13.6146 17.2978L16.4709 17.5427L16.7158 17.3373L16.5266 17.0964L13.6863 16.6493L13.4284 16.8521L13.4096 17.0528L13.6146 17.2978Z" fill="#3D3F43"/>
<path d="M15.5641 20.2344C15.5641 20.7534 15.3753 21.173 15.1385 21.173C14.9049 21.173 14.7129 20.7534 14.7129 20.2344C14.7129 19.7155 14.9049 19.2958 15.1385 19.2958C15.3753 19.2958 15.5641 19.7155 15.5641 20.2344Z" fill="#3D3F43"/>
<path d="M9.84851 20.2344C9.84851 20.7534 9.6565 21.173 9.41972 21.173C9.18615 21.173 8.99414 20.7534 8.99414 20.2344C8.99414 19.7155 9.18615 19.2958 9.41972 19.2958C9.6565 19.2958 9.84851 19.7155 9.84851 20.2344Z" fill="#3D3F43"/>
<path d="M18.5526 16.8292C18.5526 13.6322 13.615 14.4234 12.7734 11.0407C11.471 13.456 7.45495 13.0941 7.00055 15.833C6.56535 14.9264 6.39258 13.9494 6.39258 12.8762C6.39258 9.06419 9.4806 5.9697 13.2918 5.9697C13.8198 5.9697 14.3318 6.03378 14.8278 6.1459C15.3206 6.03378 15.8357 5.9697 16.3637 5.9697C20.1717 5.9697 23.2598 9.06419 23.2598 12.8762C23.2598 15.9227 21.2886 18.5078 18.5526 19.424V16.8292Z" fill="#3D3F43"/>
<path d="M21.5979 26.5259C19.9179 26.5259 18.5547 25.1644 18.5547 23.4794V18.2835H21.5979V26.5259Z" fill="#3D3F43"/>
<path d="M20.8636 32.5735C20.4573 32.5735 20.1309 32.2435 20.1309 31.8399V24.9462H21.5964V31.8399C21.5964 32.2435 21.27 32.5735 20.8636 32.5735Z" fill="#3D3F43"/>
<path d="M22.4919 29.6458C23.1287 29.6458 23.6438 29.13 23.6438 28.4925V24.6485H21.3398V28.4925C21.3398 29.13 21.8551 29.6458 22.4919 29.6458Z" fill="#3D3F43"/>
<path d="M10.4446 19.9237C11.2958 19.456 12.3295 19.456 13.1807 19.9237L13.3695 19.5809C12.3999 19.0492 11.2255 19.0492 10.2559 19.5809L10.4446 19.9237Z" fill="#2B2C2E"/>
<path d="M15.1045 22.6016H15.687C16.775 22.6016 17.6582 21.7174 17.6582 20.6283V19.6321C17.6582 18.9786 17.127 18.4468 16.4742 18.4468H13.6613C13.0085 18.4468 12.4805 18.9754 12.4805 19.6289V19.9748C12.4805 21.4259 13.6549 22.6016 15.1045 22.6016Z" fill="#2B2C2E"/>
<path d="M8.52166 22.6016H7.93932C6.85131 22.6016 5.96484 21.7174 5.96484 20.6283V19.6321C5.96484 18.9786 6.49611 18.4468 7.15212 18.4468H9.96488C10.6177 18.4468 11.1458 18.9754 11.1458 19.6289V19.9748C11.1458 21.4259 9.97128 22.6016 8.52166 22.6016Z" fill="#2B2C2E"/>
<path d="M14.8863 19.6803H16.4926L16.8606 19.3119L16.4926 18.9467H14.8863L14.5215 19.3119L14.8863 19.6803Z" fill="#5E6167"/>
<path d="M8.29959 19.6803H9.90592L10.2708 19.3119L9.90592 18.9467H8.29959L7.93164 19.3119L8.29959 19.6803Z" fill="#5E6167"/>
<path d="M21.9967 29.9117L27.6031 32.1766C29.0143 32.7468 29.9391 34.1178 29.9391 35.6394V54.2286L30.8095 64.646C30.8927 65.6326 30.1695 66.5039 29.1871 66.6032L25.8207 66.9075C22.8255 67.1766 20.2079 64.9086 20.0415 61.9071L19.3599 49.6382C19.3119 48.7925 19.3503 47.9436 19.4719 47.1075L21.9967 29.9117Z" fill="#4B1615"/>
<path d="M44.8893 72.8404C46.4093 57.9126 46.5757 50.609 30.4284 34.3262C28.6875 32.5707 25.7915 32.7917 24.3323 34.7842C23.1579 36.3859 23.3275 38.6027 24.7259 40.009C34.4412 49.7921 39.4204 54.1327 37.4876 72.2478C37.4524 72.5681 37.6924 72.8596 38.0156 72.882L44.2748 73.3593C44.5852 73.3818 44.8573 73.1511 44.8893 72.8404Z" fill="#4B1615"/>
</g>
</svg>
