<svg width="24" height="30" viewBox="0 0 24 30" fill="none" xmlns="http://www.w3.org/2000/svg">
<mask id="mask0" mask-type="alpha" maskUnits="userSpaceOnUse" x="0" y="0" width="24" height="30">
<path d="M23.5283 19.7108V10.5683C23.5283 5.06488 19.0707 0.599367 13.5731 0.599367H10.1555C4.65785 0.599367 0.200195 5.06488 0.200195 10.5683V19.7108C0.200195 25.2174 4.65785 29.6797 10.1555 29.6797H13.5731C19.0707 29.6797 23.5283 25.2174 23.5283 19.7108Z" fill="#667F90"/>
</mask>
<g mask="url(#mask0)">
<path d="M5.63607 29.0341C-16.1977 41.2717 -7.53671 44.5237 2.53311 53.8157C3.22266 54.4524 4.30455 54.4048 4.9941 53.7651C5.79065 53.0243 5.82629 51.6973 4.96732 51.0308C-8.77317 40.3791 -4.12757 39.9328 7.83554 32.8604C8.87284 32.2475 9.2414 30.9294 8.65587 29.8761C8.05846 28.805 6.70606 28.4331 5.63607 29.0341Z" fill="#FBC89A"/>
<path d="M12.712 31.6821C14.0049 31.7832 15.1343 30.8163 15.2384 29.519L15.6337 24.4639C15.7377 23.1697 14.7717 22.0361 13.4759 21.9349C12.183 21.8308 11.0506 22.7977 10.9495 24.095L10.5512 29.1501C10.4501 30.4473 11.4161 31.5779 12.712 31.6821Z" fill="#FAB47B"/>
<path d="M20.5182 51.81L19.8108 50.1736C19.044 48.4033 18.836 46.4396 19.2134 44.5472L19.8197 41.4946C21.3771 40.9888 22.0876 39.1917 21.3029 37.7546L20.9878 37.1804C20.1348 35.6213 19.6681 33.8807 19.6265 32.1014L19.5998 30.95C19.576 29.8967 18.8478 28.9892 17.8254 28.7393L15.2366 28.1085H10.5375L6.60236 28.7839C5.36593 28.9952 4.52184 30.1496 4.68828 31.3903L5.73748 39.1559C5.895 40.3252 6.16249 41.4767 6.53996 42.5954L7.48219 45.3774C8.18066 47.4482 7.77343 49.7303 6.40325 51.4322L6.1209 51.7803C4.8488 53.3602 4.15625 55.3269 4.15625 57.3561V57.7875C4.15625 60.745 6.55184 63.1401 9.50323 63.1401H16.2858C19.2402 63.1401 21.6328 60.745 21.6328 57.7875V57.2043C21.6328 55.3477 21.2523 53.5119 20.5182 51.81Z" fill="#9BB72F"/>
<path d="M12.9958 5.3025C17.1124 5.3025 20.3967 8.73902 20.2213 12.8539L19.9122 19.1557C19.7458 22.86 16.7022 25.7788 12.9988 25.7788C9.29245 25.7818 6.24294 22.86 6.07947 19.1557L5.76745 12.8539C5.59209 8.73902 8.87931 5.3025 12.9958 5.3025Z" fill="#FAB47B"/>
<path d="M8.53654 15.0618C8.53654 11.7978 13.5834 12.6042 14.4423 9.15276C15.7739 11.6193 19.8755 11.2474 20.3391 14.0472C20.785 13.1219 20.9603 12.1222 20.9603 11.0272C20.9603 7.12953 17.8069 3.96969 13.9133 3.96969C13.3753 3.96969 12.8492 4.03517 12.3439 4.14824C11.8387 4.03517 11.3156 3.96969 10.7746 3.96969C6.884 3.96969 3.72754 7.12953 3.72754 11.0272C3.72754 14.1395 5.74267 16.7786 8.53654 17.7158V15.0618Z" fill="#E42D22"/>
<path d="M5.90864 21.5717H4.03613V12.482H8.53603V18.9415C8.53603 20.3934 7.35908 21.5717 5.90864 21.5717Z" fill="#E42D22"/>
<path d="M10.8155 19.6495C10.8155 23.2527 8.55072 26.1715 5.75982 26.1715C2.96892 26.1715 0.704102 23.2527 0.704102 19.6495C0.704102 16.0494 2.96892 13.1305 5.75982 13.1305C8.55072 13.1305 10.8155 16.0494 10.8155 19.6495Z" fill="#E42D22"/>
<path d="M19.9705 12.0595L17.1648 8.51886L10.0613 7.47749C10.0613 7.47749 6.10821 16.7457 6.16766 17.0224C6.2271 17.2991 6.34603 23.6485 10.4477 24.0561C14.5463 24.4637 19.0669 21.3277 19.9705 17.9388V12.0595Z" fill="#E42D22"/>
<path d="M20.3538 11.0925V18.2244C20.3538 20.0721 18.8588 21.5717 17.01 21.5717H9.13965V17.5192L18.3386 11.3008L20.3538 11.0925Z" fill="#E42D22"/>
<path d="M19.1114 16.4869C18.8171 16.362 18.5645 16.5494 18.5645 16.8678V18.7036C18.5645 19.0428 18.728 19.1678 18.8944 19.1291C19.5126 18.9863 19.9703 18.4328 19.9703 17.7723C19.9703 17.1921 19.6167 16.6952 19.1114 16.4869Z" fill="#FAB47B"/>
<path d="M15.7948 32.506C38.6005 52.3604 33.1525 36.2668 26.04 22.9522C25.6001 22.122 24.6965 21.6579 23.7989 21.9376C22.7616 22.2619 22.179 23.4312 22.6457 24.416C30.2278 40.3906 30.3556 40.4144 18.7016 29.1825C17.8337 28.3494 16.4219 28.4773 15.6164 29.3729C14.7961 30.2834 14.8674 31.6996 15.7948 32.506Z" fill="#FBC89A"/>
<path d="M23.0529 24.3508L22.7617 24.2527C22.1672 23.8123 20.7822 22.7679 19.9203 22.7888H19.9113L19.4239 22.3097C19.418 22.039 19.632 21.8158 19.9024 21.8129H19.9381C21.1181 21.8129 22.5655 22.887 23.3442 23.4672L23.4453 24.1515L23.0529 24.3508Z" fill="#FBC89A"/>
<path d="M27.8263 17.7128L27.3329 22.152C27.2794 22.6162 26.8603 22.9494 26.3967 22.8989L17.4831 21.9021C17.0194 21.8515 16.6835 21.432 16.737 20.9678L17.2304 16.5287C17.2839 16.0645 17.703 15.7283 18.1667 15.7789L27.0803 16.7756C27.5439 16.8292 27.8798 17.2487 27.8263 17.7128Z" fill="#3D3F43"/>
<path d="M17.7176 21.9288L18.4011 15.8056L18.2139 15.7847L17.5303 21.908L17.7176 21.9288Z" fill="#2F2F31"/>
<path d="M18.8235 18.3939C18.5174 18.3582 18.244 18.5784 18.2083 18.8848C18.1756 19.1883 18.3956 19.4651 18.6987 19.4978C19.0049 19.5335 19.2782 19.3133 19.3109 19.0068C19.3466 18.7034 19.1267 18.4267 18.8235 18.3939Z" fill="#2F2F31"/>
<path d="M25.162 24.2197L24.199 24.5024C23.352 24.7493 22.4662 24.2644 22.2196 23.4164L21.5479 21.1194L21.857 20.5542L24.5349 19.7717L25.0966 20.0811L25.908 22.8571C26.0774 23.4402 25.7446 24.0502 25.162 24.2197Z" fill="#FBC89A"/>
<path d="M21.9941 21.4529L21.5751 21.1702L20.2881 18.0551L20.5348 17.463L21.1292 17.707L22.4132 20.8251L22.1665 21.4172L21.9941 21.4529Z" fill="#FBC89A"/>
<path d="M22.884 21.194L22.4501 20.8786L21.2285 17.1178L21.5198 16.5436L22.0904 16.8352L23.3149 20.5989L23.0237 21.1702L22.884 21.194Z" fill="#FBC89A"/>
<path d="M23.7693 20.9323L23.3294 20.5871L22.4824 17.0881L22.8182 16.5406L23.3651 16.8739L24.2121 20.3729L23.8763 20.9204L23.7693 20.9323Z" fill="#FBC89A"/>
</g>
</svg>
