<svg width="71" height="125" viewBox="0 0 71 125" fill="none" xmlns="http://www.w3.org/2000/svg">
<path d="M66.9941 124.517H51.6719V94.0498H66.9941C69.1381 94.0498 70.8766 95.7892 70.8766 97.9352V120.628C70.8766 122.777 69.1381 124.517 66.9941 124.517Z" fill="#F9A51B"/>
<path d="M51.0413 124.517H45.5837C43.44 124.517 41.7012 122.777 41.7012 120.628V97.9352C41.7012 95.7892 43.44 94.0498 45.5837 94.0498H51.0413C53.1863 94.0498 54.9252 95.7892 54.9252 97.9352V120.628C54.9252 122.777 53.1863 124.517 51.0413 124.517Z" fill="#F7C119"/>
<path d="M55.8576 64.4314L56.4138 64.2392C57.4087 64.3706 59.7376 64.6717 60.7351 64.0919C61.0499 63.9061 61.4551 64.015 61.6375 64.3289C61.8211 64.6461 61.7136 65.0497 61.3987 65.2355C60.0125 66.0428 57.5613 65.7225 56.2439 65.5527C55.8826 65.5046 55.6262 65.1747 55.6736 64.8127L55.8576 64.4314Z" fill="#FBC89A"/>
<path d="M59.0303 67.1446L59.8978 67.1382L63.1452 70.3352L63.1528 71.2033L62.2853 71.2097L59.0363 68.0128L59.0303 67.1446Z" fill="#FBC89A"/>
<path d="M58.1523 68.0384L59.0199 68.0288L62.8324 71.7832L62.8397 72.6513L61.9709 72.6577L58.1597 68.9065L58.1523 68.0384Z" fill="#FBC89A"/>
<path d="M57.2754 68.932L58.1442 68.9224L61.6104 72.334L61.6181 73.2053L60.7506 73.2117L57.2831 69.8001L57.2754 68.932Z" fill="#FBC89A"/>
<path d="M56.3984 69.8228L57.2659 69.8164L60.1434 72.6482L60.1511 73.5163L59.2835 73.5259L56.4061 70.6909L56.3984 69.8228Z" fill="#FBC89A"/>
<path d="M53.6012 65.8665L54.5548 64.8959C55.39 64.047 56.7548 64.0341 57.605 64.8702L59.9113 67.1382L59.9186 68.0095C59.71 68.4484 59.2713 69.0731 58.9298 69.419C58.59 69.765 57.7087 70.4858 57.2735 70.7004L56.4063 70.71L53.6188 67.9679C53.0348 67.3913 53.0274 66.4527 53.6012 65.8665Z" fill="#FBC89A"/>
<path d="M31.7061 32.5288C39.4473 55.0101 43.8735 58.0374 54.3887 68.6982C55.285 69.6047 56.765 69.5887 57.7311 68.7558C58.8524 67.7916 58.9036 66.0682 57.8386 65.0431C45.0949 52.7614 42.3961 44.1475 37.4098 30.6837C36.8425 29.1525 35.2438 28.2683 33.6812 28.7488C32.0886 29.239 31.1625 30.9528 31.7061 32.5288Z" fill="#FBC89A"/>
<path d="M34.1988 40.9731C32.9738 38.3592 31.8224 35.396 30.7527 32.0388C30.1175 30.0495 31.2327 27.9224 33.2276 27.3074C35.1825 26.7052 37.2612 27.7847 37.8964 29.7292C38.8852 32.7596 39.8826 35.5242 40.9713 37.9908L34.1988 40.9731Z" fill="#D9571E"/>
<path d="M52.9824 94.1042H53.8962V71.0687H52.9824V94.1042Z" fill="#6F8B9D"/>
<path d="M59.2539 94.1042H60.1677V71.0687H59.2539V94.1042Z" fill="#6F8B9D"/>
<path d="M59.8537 72.3823H53.2962C52.7337 72.3823 52.2773 71.9274 52.2773 71.3636C52.2773 70.7997 52.7337 70.3448 53.2962 70.3448H59.8537C60.4163 70.3448 60.8726 70.7997 60.8726 71.3636C60.8726 71.9274 60.4163 72.3823 59.8537 72.3823Z" fill="#5F413D"/>
<path d="M16.0229 58.4346L16.5669 58.2104C17.5678 58.2777 19.9105 58.4378 20.8705 57.7972C21.1742 57.5954 21.5841 57.6786 21.7867 57.9797C21.9892 58.2873 21.9067 58.6973 21.603 58.8991C20.2693 59.7896 17.803 59.6199 16.4766 59.5302C16.1131 59.5046 15.8379 59.1906 15.8629 58.8254L16.0229 58.4346Z" fill="#FBC89A"/>
<path d="M42.025 116.896C43.3514 116.896 44.4263 117.972 44.4263 119.299V119.664H39.625V119.299C39.625 117.972 40.7002 116.896 42.025 116.896Z" fill="#FBC89A"/>
<path d="M39.5994 119.664H44.4256L54.3805 122.781H38.7207L39.5994 119.664Z" fill="#F16C24"/>
<path d="M45.4561 120.551L45.6061 120.702L47.7348 120.699L46.7748 120.401H45.6061L45.4561 120.551Z" fill="#E7F7F9"/>
<path d="M43.8154 120.199H46.1354L45.1754 119.898H43.8154L43.6641 120.049L43.8154 120.199Z" fill="#E7F7F9"/>
<path d="M47.2773 121.057L47.4274 121.208H49.3513L48.3913 120.907H47.4274L47.2773 121.057Z" fill="#E7F7F9"/>
<path d="M38.7216 122.781H54.3815L54.4778 122.88V124.588L54.3815 124.687H38.7216L38.624 124.591V122.88L38.7216 122.781Z" fill="#9F1B20"/>
<path d="M44.4286 119.664C46.0599 96.5196 43.7598 81.9378 38.4961 66.4174C37.7322 64.1654 35.2599 62.993 33.0285 63.8034C30.8372 64.6011 29.7008 67.0196 30.4797 69.2172C36.0449 84.9394 39.6247 100.232 39.6247 119.664H44.4286Z" fill="#588F3C"/>
<path d="M44.5381 117.954H39.7055L39.2217 118.437V119.18L39.7055 119.664H44.5381L45.0216 119.18V118.437L44.5381 117.954Z" fill="#4F8031"/>
<path fill-rule="evenodd" clip-rule="evenodd" d="M25.2392 119.652H30.0655L30.9455 122.767H27.0774L24.6169 120.263L25.2392 119.652Z" fill="#D9571E"/>
<path d="M28.5893 121.192H25.7243L25.5742 121.042L25.7243 120.891H28.5893L28.7406 121.042L28.5893 121.192Z" fill="#E7F7F9"/>
<path d="M28.694 120.685H25.8291L25.6777 120.535L25.8291 120.385H28.694L28.8441 120.535L28.694 120.685Z" fill="#E7F7F9"/>
<path d="M28.7689 120.186H25.904L25.7529 120.036L25.904 119.884H28.7689L28.919 120.036L28.7689 120.186Z" fill="#E7F7F9"/>
<path fill-rule="evenodd" clip-rule="evenodd" d="M27.0508 122.767H30.9454L31.043 122.864V124.574L30.9454 124.671H28.9102L27.0508 122.767Z" fill="#84171B"/>
<path d="M27.6776 116.88C26.3516 116.88 25.2764 117.956 25.2764 119.282V119.648H30.0789V119.282C30.0789 117.956 29.004 116.88 27.6776 116.88Z" fill="#FBC89A"/>
<path d="M18.5336 66.837L25.1698 119.677L29.9374 119.077C29.3762 102.01 28.78 82.5688 26.9624 65.8376C26.7061 63.4799 24.5637 61.7949 22.2149 62.0896C19.8898 62.3843 18.2411 64.5082 18.5336 66.837Z" fill="#588F3C"/>
<path d="M29.8995 117.515L25.0768 117.812L24.623 118.325L24.6682 119.065L25.1818 119.52L30.0045 119.225L30.4583 118.709L30.4118 117.97L29.8995 117.515Z" fill="#4F8031"/>
<path d="M28.3367 69.182C31.153 69.4671 38.4166 70.0213 38.639 67.8173L39.2067 62.2147C39.3491 60.8052 38.3242 59.5494 36.9178 59.4053L21.8903 57.8805C20.4842 57.7363 19.2278 58.7646 19.0854 60.1709L18.5178 65.7768C18.2941 67.9807 25.5203 68.8969 28.3367 69.182Z" fill="#588F3C"/>
<path d="M23.8741 26.9166L31.9966 26.6763C35.4091 26.5738 38.258 29.2582 38.3592 32.673L39.2292 61.8206L19.0129 62.426L18.1355 33.0158C18.0379 29.7452 20.6069 27.0159 23.8741 26.9166Z" fill="#F35F1A"/>
<path d="M18.9668 60.866L39.1828 60.2605L39.2292 61.8206L19.0129 62.426L18.9668 60.866Z" fill="#BE4D1F"/>
<path d="M28.2638 31.6801L28.1614 31.6833C26.0414 31.7473 24.2715 30.0784 24.2088 27.9578L24.1777 26.9103L31.9562 26.6765L31.9876 27.724C32.0513 29.8446 30.3838 31.616 28.2638 31.6801Z" fill="#BE4D1F"/>
<path d="M27.9223 30.8824C29.7498 31.0682 31.3822 29.7324 31.5671 27.9032L32.0324 23.2968C32.2174 21.4645 30.8849 19.8308 29.0561 19.645C27.2273 19.4624 25.5946 20.795 25.4109 22.6241L24.9447 27.2338C24.761 29.0629 26.0935 30.6966 27.9223 30.8824Z" fill="#FAB47B"/>
<path d="M31.2332 3.11231C35.6559 3.39741 38.9497 7.3151 38.4758 11.7261L37.6572 19.2413C37.2246 23.2103 33.7497 26.1349 29.7708 25.8787C25.7897 25.6256 22.7145 22.2781 22.7945 18.2835L22.9471 10.7267C23.0422 6.29002 26.8108 2.82721 31.2332 3.11231Z" fill="#FBC89A"/>
<path d="M22.4697 20.2248C22.0108 20.1959 21.6633 19.8019 21.6921 19.3406L22.4345 7.81164L24.0959 7.91738L23.3535 19.4496C23.3235 19.9077 22.9283 20.2568 22.4697 20.2248Z" fill="#3D3F43"/>
<path d="M30.8556 21.0704L30.4844 21.5702C30.6169 22.4735 31.2405 23.175 32.0332 23.2263L32.4341 23.2519C33.2268 23.3032 33.9356 22.6881 34.1829 21.8072L33.878 21.2658L30.8556 21.0704Z" fill="white"/>
<path d="M22.9432 18.1008L24.187 18.1809L24.4197 14.5707L23.1758 14.4906C22.1797 14.4265 21.3195 15.1825 21.2558 16.1788C21.1909 17.1782 21.947 18.0368 22.9432 18.1008Z" fill="#FBC89A"/>
<path d="M33.1425 13.8372L32.7803 19.4654L34.324 19.5647C34.8315 19.5968 35.2001 19.0906 35.0151 18.6165L33.1425 13.8372Z" fill="#FAB47B"/>
<path d="M22.4246 11.2041C20.8672 8.01354 22.1859 4.16305 25.3721 2.60301C28.5571 1.04297 32.4035 2.36599 33.9622 5.55334L22.4246 11.2041Z" fill="#3D3F43"/>
<path d="M25.2799 12.357C24.3624 12.2961 23.6661 11.5049 23.7263 10.5855L23.99 6.48523L27.3113 6.69666L27.0463 10.8002C26.9874 11.7195 26.1961 12.4147 25.2799 12.357Z" fill="#3D3F43"/>
<path d="M27.1865 2.74718C30.0966 -0.517072 35.0991 -0.80217 38.3589 2.10971C41.6204 5.02479 41.9052 10.0317 38.9951 13.2959L27.1865 2.74718Z" fill="#3D3F43"/>
<path d="M24.212 15.8297C24.5582 15.8521 24.8558 15.5895 24.8782 15.2435L25.2507 9.46134L23.9995 9.37805L23.6283 15.1634C23.6059 15.5094 23.867 15.8073 24.212 15.8297Z" fill="#3D3F43"/>
<path d="M22.3089 10.0027L24.7038 10.1565L24.4213 14.5483L22.0264 14.3914L22.3089 10.0027Z" fill="#3D3F43"/>
<path d="M31.3027 6.42139C33.1165 9.33008 35.7379 11.6942 38.8752 13.1902L31.3027 6.42139Z" fill="#3D3F43"/>
<path d="M34.7617 13.4847L37.594 13.9299L37.8529 13.7409L37.6804 13.4879L34.8779 12.844L34.6043 13.0298L34.5742 13.2284L34.7617 13.4847Z" fill="#3D3F43"/>
<path d="M31.5267 13.2766L28.6591 13.3535L28.4277 13.1325L28.6316 12.9018L31.4927 12.6263L31.7404 12.8442L31.7452 13.046L31.5267 13.2766Z" fill="#3D3F43"/>
<path d="M29.647 16.3711C29.6131 16.8868 29.7769 17.3192 30.0118 17.3321C30.248 17.3481 30.4656 16.9413 30.4982 16.4256C30.5318 15.9066 30.368 15.4774 30.1331 15.4614C29.8982 15.4454 29.6806 15.8522 29.647 16.3711Z" fill="#3D3F43"/>
<path d="M35.3518 16.7362C35.3192 17.2552 35.483 17.6877 35.7179 17.7005C35.9531 17.7165 36.1704 17.3097 36.2043 16.7939C36.2366 16.275 36.0731 15.8425 35.8379 15.8297C35.603 15.8137 35.3854 16.2205 35.3518 16.7362Z" fill="#3D3F43"/>
<path d="M19.1168 29.2005C-10.5542 45.8325 1.21574 50.2532 14.8996 62.8809C15.8368 63.7458 17.3082 63.6786 18.242 62.8104C19.3245 61.8014 19.3745 60.0011 18.2058 59.0945C-0.464247 44.6184 5.84582 44.013 22.1069 34.3996C23.513 33.5699 24.0157 31.776 23.2196 30.3473C22.4093 28.8898 20.5706 28.3837 19.1168 29.2005Z" fill="#FBC89A"/>
<path d="M11.3848 33.4001C13.6862 31.6543 16.3409 29.9116 19.3959 28.1626C21.2084 27.1279 23.5198 27.775 24.5361 29.6009C25.531 31.3916 24.9111 33.65 23.1409 34.6783C20.3886 36.2767 17.8948 37.8272 15.7099 39.4097L11.3848 33.4001Z" fill="#F35F1A"/>
<path d="M19.2665 61.0293C19.4441 60.7409 19.8213 60.648 20.1103 60.8274L23.9939 63.2108C24.2828 63.387 24.374 63.765 24.1964 64.0533C24.0204 64.3448 23.6415 64.4345 23.3529 64.2583L19.469 61.875C19.1804 61.6988 19.0889 61.3176 19.2665 61.0293Z" fill="#FBC89A"/>
<path d="M18.5225 61.9072L19.3874 61.8271L23.4886 65.2611L23.5663 66.126L22.701 66.2029L18.5999 62.7721L18.5225 61.9072Z" fill="#FBC89A"/>
<path d="M17.755 62.7912L18.6238 62.8008L22.0226 66.2796L22.0126 67.1477L21.1451 67.1381L17.7451 63.6593L17.755 62.7912Z" fill="#FBC89A"/>
<path d="M16.9812 63.6946L17.844 63.8003L20.3253 66.9876L20.219 67.8494L19.3576 67.7405L16.875 64.5563L16.9812 63.6946Z" fill="#FBC89A"/>
<path d="M13.8584 60.0043L14.7509 58.976C15.532 58.0791 16.8946 57.983 17.7931 58.7646L20.2331 60.8917L20.2933 61.7566C20.1122 62.2083 19.7122 62.8585 19.3931 63.2269C19.0744 63.5921 18.2383 64.3642 17.8184 64.6076L16.9522 64.6685L14.0034 62.0993C13.3858 61.5612 13.3208 60.6226 13.8584 60.0043Z" fill="#FBC89A"/>
<path d="M66.9941 124.517H54.4779V122.88L54.3816 122.781H54.2767H54.3816L54.2943 122.755C54.693 122.143 54.9256 121.414 54.9256 120.628V97.9352C54.9256 96.0039 53.5167 94.4022 51.6719 94.1011V94.0498H52.9829V94.1043H53.8968V94.0498H59.2543V94.1043H60.0629L70.8766 104.931V116.646V120.628C70.8766 120.901 70.8491 121.166 70.7954 121.422C70.4293 123.19 68.8667 124.517 66.9941 124.517Z" fill="#B5BD4D"/>
<path d="M54.2943 122.755L49.3519 121.208L48.6693 120.993L47.7343 120.699H47.7356L46.7756 120.401L46.1343 120.199H46.1356L45.1756 119.898L44.4268 119.664H44.5381L45.0216 119.18V118.437L44.5429 117.96C45.1141 108.929 45.068 101.212 44.4655 94.2131C44.8207 94.1074 45.1954 94.0497 45.5842 94.0497H48.3029H51.0418C51.2569 94.0497 51.4668 94.0658 51.6719 94.101C53.5167 94.4021 54.9257 96.0038 54.9257 97.9351V120.628C54.9257 121.414 54.693 122.143 54.2943 122.755Z" fill="#B1CC4D"/>
<path d="M53.8964 94.1042H52.9824V87.0183L53.8964 87.9313V94.0498V94.1042Z" fill="#73ABAC"/>
<path d="M60.0626 94.1042H59.2539V93.2938L60.0626 94.1042Z" fill="#73ABAC"/>
<path d="M38.7207 122.781L39.5994 119.664H39.6244H39.7044H44.4256L45.1745 119.898H43.8145L43.6631 120.048L43.8145 120.199H46.1332L46.7745 120.401H45.6058L45.4557 120.551L45.6058 120.702L47.7332 120.699L48.6682 120.993L48.3908 120.907H47.4269L47.2769 121.057L47.4269 121.208H49.3508L54.2932 122.755L54.3805 122.781H54.2756H42.3508H38.7207Z" fill="#AE9563"/>
<path d="M45.6061 120.702L45.4561 120.551L45.6061 120.401H46.7748L47.7348 120.699H47.7335L45.6061 120.702Z" fill="#B0E4DB"/>
<path d="M43.8154 120.199L43.6641 120.049L43.8154 119.898H45.1754L46.1354 120.199H46.1341H43.8154Z" fill="#B0E4DB"/>
<path d="M49.3513 121.208H47.4274L47.2773 121.057L47.4274 120.907H48.3913L48.6687 120.993L49.3513 121.208Z" fill="#B0E4DB"/>
<path d="M38.7216 124.687L38.624 124.591V122.88L38.7216 122.781H42.3517H54.2765H54.3815L54.4778 122.88V124.517V124.543V124.588L54.3815 124.687H38.7216Z" fill="#86565E"/>
<path d="M39.705 119.664H39.625C39.625 119.638 39.625 119.609 39.625 119.584L39.705 119.664ZM39.6164 118.042C39.5988 116.336 39.5527 114.658 39.48 113.011C39.305 109.015 38.9712 105.188 38.4951 101.479C37.9863 97.5158 37.3149 93.691 36.5012 89.9494C36.2301 88.7001 35.9425 87.4636 35.6413 86.2335C35.0913 83.9944 34.4913 81.7808 33.8465 79.5801C32.8465 76.1621 31.7351 72.7729 30.5312 69.3645C31.3776 69.419 32.3101 69.4606 33.2327 69.4606C33.9626 69.4606 34.6865 69.435 35.3549 69.3709L41.1562 75.1786C42.3975 79.8652 43.3527 84.6318 43.9927 89.7348C44.1764 91.1987 44.3338 92.6883 44.465 94.2131C45.0676 101.212 45.1136 108.929 44.5424 117.96L44.5376 117.954H39.705L39.6164 118.042Z" fill="#65AE76"/>
<path d="M44.5381 119.664H39.7055L39.6255 119.584L39.2217 119.18V118.437L39.6169 118.042L39.7055 117.954H44.5381L44.5429 117.96L45.0216 118.437V119.18L44.5381 119.664Z" fill="#61A771"/>
<path fill-rule="evenodd" clip-rule="evenodd" d="M26.9805 122.767L24.5494 120.327L25.2155 119.673L25.3979 119.652H30.0655L30.9455 122.767H26.9805ZM25.5743 121.042L25.7243 120.89H28.5893L28.7407 121.042L28.5893 121.192H25.7243L25.5743 121.042ZM25.6779 120.535L25.8293 120.385H28.6943L28.8444 120.535L28.6943 120.685H25.8293L25.6779 120.535ZM25.7531 120.036L25.9042 119.884H28.7692L28.9192 120.036L28.7692 120.186H25.9042L25.7531 120.036Z" fill="#A28753"/>
<path d="M28.5893 121.192H25.7243L25.5742 121.042L25.7243 120.891H28.5893L28.7406 121.042L28.5893 121.192Z" fill="#B0E4DB"/>
<path d="M28.694 120.685H25.8291L25.6777 120.535L25.8291 120.385H28.694L28.8441 120.535L28.694 120.685Z" fill="#B0E4DB"/>
<path d="M28.7689 120.186H25.904L25.7529 120.036L25.904 119.884H28.7689L28.919 120.036L28.7689 120.186Z" fill="#B0E4DB"/>
<path fill-rule="evenodd" clip-rule="evenodd" d="M28.8828 124.671H30.9454L31.043 124.574V124.543V122.864L30.9454 122.767H26.9766L28.8828 124.671Z" fill="#785056"/>
<path d="M30.0792 119.648H25.4004L27.6193 119.369L30.0056 119.225L30.074 119.145C30.0766 119.19 30.0792 119.238 30.0792 119.282V119.648Z" fill="#B9CEAA"/>
<path d="M25.1704 119.677L25.1467 119.488L25.1828 119.52L27.6193 119.369L25.4004 119.648L25.3979 119.652L25.2155 119.673L25.1704 119.677ZM24.954 117.954L24.3342 113.011L22.8856 101.479L21.4366 89.9494L19.9893 78.4172L18.8606 69.4349L18.5342 66.837C18.5269 66.7761 18.5217 66.7185 18.5166 66.6608L19.3579 67.7404L20.2193 67.8493L20.2568 67.5418C22.1691 68.3554 25.2379 68.8231 27.2955 69.0665C27.4353 70.5016 27.5678 71.9528 27.6916 73.4167C27.8404 75.1562 27.978 76.9148 28.1054 78.6895C28.3742 82.3958 28.6017 86.163 28.8004 89.9494C29.0017 93.7902 29.1716 97.6503 29.3243 101.479C29.4779 105.374 29.6116 109.233 29.738 113.011C29.788 114.529 29.8379 116.032 29.8868 117.518L25.0779 117.812L24.954 117.954Z" fill="#65AE76"/>
<path d="M25.1818 119.52L25.1456 119.488L24.6682 119.065L24.623 118.325L24.953 117.954L25.0768 117.812L29.8858 117.518L29.8995 117.515L30.4118 117.97L30.4583 118.709L30.073 119.145L30.0045 119.225L27.6183 119.369L25.1818 119.52Z" fill="#61A771"/>
<path d="M33.2325 69.4607C32.31 69.4607 31.3775 69.419 30.5311 69.3646C29.6786 69.3101 28.9135 69.2397 28.3362 69.182C28.0348 69.15 27.6825 69.1115 27.2949 69.0666C25.2373 68.8232 22.1685 68.3555 20.2562 67.5419L20.325 66.9876L18.6162 64.7933L18.6386 64.5723L21.1448 67.1382L22.0124 67.1478L22.0223 66.2797L19.221 63.4127C19.2437 63.3902 19.2648 63.3678 19.285 63.3454L22.701 66.2028L23.5663 66.1259L23.4885 65.261L20.0623 62.394L20.301 62.3876L23.3525 64.2584C23.4524 64.3192 23.5637 64.348 23.6725 64.348C23.8786 64.348 24.0812 64.2424 24.196 64.0534C24.3736 63.765 24.2824 63.387 23.9935 63.2109L22.5423 62.3203L28.1423 62.1505L35.3548 69.371C34.6863 69.4351 33.9625 69.4607 33.2325 69.4607Z" fill="#65AE76"/>
<path d="M18.7457 59.5942L18.5444 59.4213C18.4468 59.3027 18.3332 59.1939 18.2059 59.0946C18.0958 59.0081 17.9844 58.9216 17.8756 58.8383L17.793 58.7646C17.713 58.6974 17.6295 58.6333 17.5419 58.5756C17.3982 58.4635 17.2596 58.3546 17.1182 58.2457C17.4468 58.2617 17.8282 58.2778 18.2257 58.2778C18.4446 58.2778 18.667 58.2745 18.8881 58.2617L18.9268 59.5878C18.867 59.591 18.8068 59.5942 18.7457 59.5942Z" fill="#B9CEAA"/>
<path d="M20.1649 60.8308L18.9336 59.7577L18.9271 59.5879L18.8884 58.2617L18.7236 52.7231L26.6299 60.6386L20.1649 60.8308Z" fill="#B08D50"/>
<path d="M20.0628 62.3943L20.0029 62.343C20.0228 62.3078 20.0429 62.2726 20.0615 62.2373L20.3015 62.3879L20.0628 62.3943ZM22.5428 62.3206L20.2353 60.9047L20.234 60.8919L20.1655 60.831L26.6304 60.6388L28.1428 62.1508L22.5428 62.3206Z" fill="#968153"/>
<path d="M15.0037 62.9707C14.9685 62.9419 14.9336 62.913 14.9 62.881C14.9 62.881 14.8974 62.8778 14.8961 62.8778L15.0037 62.9707ZM13.7886 61.8687C6.8123 55.5901 0.627324 51.3392 0.629884 46.3291C0.631164 44.0771 1.88365 41.6714 4.87469 38.8588L8.71469 42.7029C5.30093 45.871 6.14733 48.9495 13.3899 55.1897C14.4836 56.1315 15.7262 57.147 17.1185 58.2457C17.26 58.3546 17.3985 58.4635 17.5422 58.5756C17.1873 58.3482 16.7822 58.2361 16.3787 58.2361C15.7761 58.2361 15.1774 58.4859 14.7512 58.9761L13.8587 60.0044C13.3912 60.5425 13.3787 61.3209 13.7886 61.8687ZM18.5448 59.4213L17.876 58.8383C17.9848 58.9216 18.0961 59.0081 18.2062 59.0946C18.3336 59.1939 18.4472 59.3028 18.5448 59.4213Z" fill="#B9CEAA"/>
<path d="M23.673 64.3479C23.5642 64.3479 23.4529 64.3191 23.353 64.2582L20.3015 62.3875L20.0615 62.2369C20.1553 62.0672 20.2366 61.9038 20.2942 61.7564L20.2353 60.9044L22.5428 62.3202L23.994 63.2108C24.2829 63.3869 24.3741 63.7649 24.1965 64.0532C24.0817 64.2422 23.8791 64.3479 23.673 64.3479Z" fill="#B9CEAA"/>
<path d="M22.7011 66.2029L19.2852 63.3455C19.3264 63.3007 19.3626 63.2622 19.3936 63.227C19.5888 62.9996 19.8151 62.6696 20.0026 62.3429L20.0624 62.3942L23.4887 65.2611L23.5664 66.126L22.7011 66.2029Z" fill="#B9CEAA"/>
<path d="M22.0124 67.1477L21.1449 67.1381L18.6386 64.5723L18.3174 64.2423C18.6326 63.986 18.981 63.6593 19.221 63.4127L22.0223 66.2796L22.0124 67.1477Z" fill="#B9CEAA"/>
<path d="M20.2185 67.8494L19.3571 67.7405L18.5158 66.6609L16.9609 64.6652L17.8185 64.6075C17.9334 64.5403 18.0796 64.4345 18.2384 64.3064L18.616 64.7933L20.3248 66.9876L20.256 67.5419L20.2185 67.8494Z" fill="#B9CEAA"/>
<path d="M16.9527 64.6685L15.0039 62.9707L14.8964 62.8778L14.0039 62.0993C13.9226 62.0289 13.85 61.952 13.7889 61.8687C13.379 61.3209 13.3914 60.5425 13.8589 60.0044L14.7514 58.976C15.1777 58.4859 15.7764 58.2361 16.3789 58.2361C16.7825 58.2361 17.1876 58.3482 17.5425 58.5756C17.6301 58.6333 17.7137 58.6974 17.7937 58.7646L17.8762 58.8383L18.545 59.4213L18.7463 59.5943L18.9338 59.7577L20.1652 60.8308L20.2336 60.8917L20.2349 60.9045L20.2938 61.7566C20.2362 61.904 20.1549 62.0673 20.0612 62.2371C20.0426 62.2723 20.0225 62.3076 20.0026 62.3428C19.8151 62.6695 19.5888 62.9995 19.3936 63.2269C19.3626 63.2622 19.3265 63.3006 19.2852 63.3455C19.265 63.3679 19.2439 63.3903 19.2212 63.4128C18.9812 63.6594 18.6327 63.9862 18.3175 64.2424C18.29 64.2648 18.2637 64.2873 18.2388 64.3065C18.08 64.4346 17.9338 64.5403 17.8189 64.6076L16.9613 64.6653L16.9527 64.6685Z" fill="#B9CEAA"/>
<path d="M7.72803 36.2815L4.82031 38.8084L70.88 104.94V99.5005L7.72803 36.2815Z" fill="#405564"/>
</svg>
