<svg width="59" height="104" viewBox="0 0 59 104" fill="none" xmlns="http://www.w3.org/2000/svg">
<mask id="mask0" mask-type="alpha" maskUnits="userSpaceOnUse" x="0" y="0" width="59" height="104">
<path fill-rule="evenodd" clip-rule="evenodd" d="M6.56934 103.59V51.7052H2.9396C1.67113 51.7052 0.639622 51.061 0.639622 50.2637C0.639622 49.4654 1.67113 48.8187 2.9396 48.8187H54.5996C55.8706 48.8187 56.8996 49.4654 56.8996 50.2637C56.8996 51.061 55.8706 51.7052 54.5996 51.7052H58.5693V1L0.0996094 0.5V103.59H6.56934Z" fill="#A06822"/>
</mask>
<g mask="url(#mask0)">
<path d="M47.1277 93.0708C48.4167 93.3886 49.2039 94.6888 48.8864 95.9801L48.8004 96.3318L44.1367 95.1855L44.2241 94.8327C44.5402 93.5413 45.8404 92.7542 47.1277 93.0708Z" fill="#FBC89A"/>
<path d="M44.1121 95.1816L48.7998 96.3316L57.7233 101.739L42.5146 97.9971L44.1121 95.1816Z" fill="#F16C24"/>
<path d="M42.515 97.9973L57.7237 101.739L57.795 101.855L57.3877 103.517L57.2702 103.588L42.0613 99.8492L41.9902 99.7304L42.3989 98.0711L42.515 97.9973Z" fill="#9F1B20"/>
<path d="M48.9304 94.2885C53.1343 60.4065 37.9493 61.9156 19.3317 60.3838C17.0306 60.1913 14.9916 61.8641 14.7343 64.1603C14.4655 66.5628 16.2168 68.694 18.6242 68.8917C34.9004 70.2217 47.5493 66.7745 44.1356 94.5925L48.9304 94.2885Z" fill="#588F3C"/>
<path d="M49.0694 93.7528L44.3167 92.8819L43.7529 93.2698L43.6191 94.0006L44.0079 94.5636L48.7618 95.4346L49.3254 95.0479L49.4578 94.3172L49.0694 93.7528Z" fill="#4F8031"/>
<path d="M13.1039 66.8995C15.9352 66.8706 23.2139 66.6144 23.1912 64.3983L23.1352 58.766C23.1202 57.3507 21.9627 56.2158 20.549 56.2296L5.445 56.382C4.03125 56.3984 2.89652 57.5545 2.91028 58.971L2.96757 64.602C2.99029 66.8194 10.2725 66.9283 13.1039 66.8995Z" fill="#588F3C"/>
<path d="M2.8457 57.4882L23.0707 57.4619L23.0732 59.0222L2.84826 59.0449L2.8457 57.4882Z" fill="#BE4D1F"/>
<path d="M30.2625 95.7874C31.5888 95.7837 32.6676 96.8536 32.6711 98.1838L32.6724 98.5492L27.8711 98.5654L27.8701 98.2C27.865 96.8736 28.9364 95.7912 30.2625 95.7874Z" fill="#FBC89A"/>
<path d="M27.8463 98.5653L32.6726 98.5491L42.6377 101.63L26.9775 101.685L27.8463 98.5653Z" fill="#F16C24"/>
<path d="M26.9769 101.685L42.637 101.63L42.7346 101.73L42.7407 103.441L42.6431 103.537L26.9833 103.591L26.8856 103.494L26.8809 101.784L26.9769 101.685Z" fill="#9F1B20"/>
<path d="M32.8784 97.3091C41.5708 64.2919 26.3196 63.7575 8.07451 59.7456C5.81819 59.2501 3.57596 60.6304 3.0134 62.8728C2.42588 65.2202 3.87707 67.5651 6.23707 68.0821C22.1897 71.5796 35.1846 69.8565 28.0857 96.9662L32.8784 97.3091Z" fill="#588F3C"/>
<path d="M32.968 96.7384L28.1904 96.0177L27.6394 96.4244L27.5293 97.1589L27.9367 97.7094L32.7143 98.4302L33.2657 98.0235L33.3757 97.2902L32.968 96.7384Z" fill="#4F8031"/>
<path d="M19.2967 33.4117C39.5789 60.7331 42.4503 48.4827 53.2051 33.2765C53.9415 32.2354 53.6877 30.784 52.7066 29.9681C51.5703 29.0234 49.7776 29.2047 49.0304 30.48C37.0829 50.8728 35.6739 44.6838 24.0666 29.7756C23.0615 28.484 21.2202 28.2149 19.9078 29.1897C18.5677 30.1821 18.3027 32.0727 19.2967 33.4117Z" fill="#FAB47B"/>
<path d="M24.4483 40.5479C22.4246 38.4884 20.3571 36.0734 18.2346 33.264C16.976 31.5986 17.321 29.221 18.9997 27.9784C20.6432 26.7608 22.9623 27.0876 24.207 28.7117C26.1446 31.2395 28.0022 33.5168 29.8483 35.484L24.4483 40.5479Z" fill="#C8521F"/>
<path d="M13.2836 24.2108C18.9412 24.2684 23.4814 28.9047 23.4251 34.5679L23.1752 59.6597L2.9502 59.4556L3.20363 34.1037C3.25867 28.5843 7.7726 24.1569 13.2836 24.2108Z" fill="#B47328"/>
<path d="M2.96619 57.8978L23.1902 58.1002L23.1752 59.6597L2.9502 59.4556L2.96619 57.8978Z" fill="#6E471A"/>
<path d="M23.099 61.0018C24.0327 60.8541 24.6964 60.0119 24.6241 59.0698L23.8026 48.4186L24.1329 30.4832C24.1617 28.9392 23.2417 27.5329 21.8154 26.9435L17.2977 25.0727L15.7217 43.1042L16.3415 55.5108C16.5153 58.9897 19.6641 61.546 23.099 61.0018Z" fill="#D9571E"/>
<path d="M13.3171 29.7854H13.4195C15.5408 29.8078 17.2771 28.1037 17.2982 25.9789V25.073C16.0685 24.531 14.712 24.227 13.2832 24.2107C11.9533 24.1982 10.6822 24.4487 9.51582 24.909V25.9027C9.4947 28.0261 11.1971 29.7627 13.3171 29.7854Z" fill="#6E471A"/>
<path d="M11.4201 28.4588C12.8713 29.5899 14.9616 29.3272 16.0902 27.8758L18.9302 24.2182C20.0575 22.7668 19.7964 20.6744 18.3452 19.5433C16.894 18.416 14.8028 18.6761 13.6752 20.1301L10.8352 23.7851C9.7078 25.2369 9.96892 27.3316 11.4201 28.4588Z" fill="#FAB47B"/>
<path d="M10.3623 24.6186L4.75467 26.8859C3.34475 27.4565 2.4209 28.8269 2.4209 30.3485V48.938L1.5486 59.355C1.46476 60.3423 2.18859 61.2133 3.17227 61.3123L6.53963 61.6163C9.53227 61.8867 12.1521 59.618 12.3185 56.6136L12.9998 44.3443C13.0459 43.5022 13.0084 42.6526 12.8846 41.8166L10.3623 24.6186Z" fill="#D9571E"/>
<path d="M8.97061 21.748V7.29401C8.32199 7.29401 7.79688 7.81936 7.79688 8.46645V20.5718C7.79688 21.2224 8.32199 21.748 8.97061 21.748Z" fill="#3D3F43"/>
<path d="M25.1721 26.5269H25.2121V20.3315H23.0146V24.3684C23.0146 25.5594 23.9807 26.5269 25.1721 26.5269Z" fill="#3D3F43"/>
<path d="M22.4074 24.9541C22.8826 24.9541 23.2675 24.5662 23.2675 24.093V19.6172C23.2675 19.1428 22.8826 18.7562 22.4074 18.7562C21.9338 18.7562 21.5488 19.1428 21.5488 19.6172V24.093C21.5488 24.5662 21.9338 24.9541 22.4074 24.9541Z" fill="#3D3F43"/>
<path d="M25.429 24.8677H24.5977V5.11945C25.685 5.11945 26.5663 6.00038 26.5663 7.08889V23.7279C26.5663 24.3561 26.0575 24.8677 25.429 24.8677Z" fill="#3D3F43"/>
<path d="M8.45801 20.1875H10.4283V4.86267C9.34058 4.86267 8.45801 5.7436 8.45801 6.83209V20.1875Z" fill="#3D3F43"/>
<path d="M25.2351 27.3215C25.6389 27.3215 25.9663 26.9951 25.9663 26.5908V7.22424H24.5039V26.5908C24.5039 26.9951 24.8303 27.3215 25.2351 27.3215Z" fill="#3D3F43"/>
<path d="M17.5775 2.41272C22.0088 2.41272 25.5477 6.10911 25.3576 10.5423L25.0239 18.0955C24.8463 22.0808 21.5675 25.223 17.58 25.2266C13.5903 25.2266 10.3078 22.0847 10.1314 18.0955L9.79638 10.5423C9.6063 6.10911 13.1452 2.41272 17.5775 2.41272Z" fill="#FBC89A"/>
<path d="M20.1598 21.8472C19.1761 21.8472 18.1908 21.5166 17.5899 20.9925L17.5723 20.7195L17.8433 20.7032C18.2609 21.0687 19.0897 21.4592 20.1598 21.4592C21.2571 21.4592 22.091 21.0562 22.506 20.6782L22.7771 20.6869L22.7646 20.9598C22.1672 21.5079 21.1697 21.8472 20.1598 21.8472Z" fill="#AA635F"/>
<path d="M10.1842 20.0525C9.72404 20.0525 9.35156 19.6822 9.35156 19.2202V7.66559H11.0165V19.2202C11.0165 19.6822 10.6441 20.0525 10.1842 20.0525Z" fill="#3D3F43"/>
<path d="M10.2657 17.9041H11.5118V14.2839H10.2657C9.26827 14.2839 8.45801 15.0947 8.45801 16.0935C8.45801 17.0933 9.26827 17.9041 10.2657 17.9041Z" fill="#FBC89A"/>
<path d="M20.1699 12.9901V17.8365C20.1699 18.342 20.3773 18.8263 20.745 19.1755L21.0074 19.4257C21.6486 20.0375 22.6701 19.3482 22.3462 18.5223L20.1699 12.9901Z" fill="#F38B79"/>
<path d="M12.2294 12.019C11.3107 12.019 10.5654 11.2733 10.5654 10.3536V6.24292H13.8931V10.3536C13.8931 11.2733 13.1481 12.019 12.2294 12.019Z" fill="#3D3F43"/>
<path d="M11.388 15.5554C11.7342 15.5554 12.0142 15.2738 12.0142 14.9272V9.12964H10.7617V14.9272C10.7617 15.2738 11.0417 15.5554 11.388 15.5554Z" fill="#3D3F43"/>
<path d="M9.1123 9.8606H11.5123V14.2615H9.1123V9.8606Z" fill="#3D3F43"/>
<path d="M21.8246 11.6862L24.552 12.5732L24.8359 12.4294L24.706 12.1504L22.041 11.0706L21.7408 11.2118L21.6797 11.4008L21.8246 11.6862Z" fill="#3D3F43"/>
<path d="M18.7474 11.9353L15.9061 12.3232L15.6523 12.1317L15.8287 11.8814L18.6425 11.2884L18.9122 11.4809L18.9397 11.6799L18.7474 11.9353Z" fill="#3D3F43"/>
<path d="M17.5918 14.9436C17.5918 15.4628 17.7832 15.8818 18.0193 15.8818C18.2545 15.8818 18.4456 15.4628 18.4456 14.9436C18.4456 14.4256 18.2545 14.005 18.0193 14.005C17.7832 14.005 17.5918 14.4256 17.5918 14.9436Z" fill="#3D3F43"/>
<path d="M23.3105 14.9436C23.3105 15.4628 23.5016 15.8818 23.7368 15.8818C23.973 15.8818 24.164 15.4628 24.164 14.9436C24.164 14.4256 23.973 14.005 23.7368 14.005C23.5016 14.005 23.3105 14.4256 23.3105 14.9436Z" fill="#3D3F43"/>
<path d="M13.8052 11.5349C13.8052 8.34142 18.744 9.12977 19.5853 5.7502C20.8877 8.16523 24.9028 7.80101 25.3578 10.5425C25.794 9.63527 25.9664 8.65952 25.9664 7.58574C25.9664 3.77051 22.8778 0.679565 19.0679 0.679565C18.5389 0.679565 18.0266 0.739788 17.5316 0.85479C17.0378 0.739788 16.5239 0.679565 15.9952 0.679565C12.1866 0.679565 9.09766 3.77051 9.09766 7.58574C9.09766 10.6328 11.0705 13.2167 13.8052 14.1338V11.5349Z" fill="#3D3F43"/>
<path d="M10.7617 21.2349C12.443 21.2349 13.8052 19.8712 13.8052 18.1894V12.9901H10.7617V21.2349Z" fill="#3D3F43"/>
<path d="M11.4955 27.2827C11.9003 27.2827 12.2292 26.9537 12.2292 26.5469V19.6561H10.7617V26.5469C10.7617 26.9537 11.0904 27.2827 11.4955 27.2827Z" fill="#3D3F43"/>
<path d="M9.86619 24.356C9.23004 24.356 8.71484 23.8389 8.71484 23.2021V19.358H11.0172V23.2021C11.0172 23.8389 10.5011 24.356 9.86619 24.356Z" fill="#3D3F43"/>
<path d="M4.15844 32.5392C20.0833 50.0652 27.2522 49.9727 42.2161 49.0366C43.4884 48.9565 44.4996 47.9356 44.5671 46.6603C44.6445 45.1801 43.4359 43.9538 41.9597 44.014C24.2845 44.7511 18.297 39.0398 8.57956 28.4875C7.47204 27.2824 5.60451 27.1937 4.38467 28.2799C3.13955 29.3874 3.03716 31.303 4.15844 32.5392Z" fill="#FBC89A"/>
<path d="M9.93409 39.1802C7.73282 37.3132 5.45538 35.0959 3.0877 32.4918C1.68387 30.9439 1.81283 28.5452 3.37155 27.1588C4.90019 25.7935 7.23905 25.9085 8.62529 27.4138C10.7827 29.759 12.8378 31.8575 14.8553 33.6479L9.93409 39.1802Z" fill="#E2591C"/>
<path d="M51.1998 35.176L49.9035 34.8143C48.7672 34.494 48.1048 33.3151 48.4222 32.1779C48.9899 30.1505 51.0923 28.9681 53.1185 29.5351L53.6308 29.679C53.9546 29.769 54.1434 30.1057 54.0522 30.4286L53.0084 34.1573C52.7908 34.9395 51.9796 35.3938 51.1998 35.176Z" fill="#FAB47B"/>
<path d="M48.8945 33.3893C48.5905 33.2929 48.393 32.9889 48.443 32.6647C48.5956 31.6812 48.9517 29.3811 48.402 28.3787C48.2282 28.0609 48.3444 27.6643 48.6605 27.4917C48.978 27.3151 49.3757 27.4302 49.5495 27.7505C50.313 29.1408 49.938 31.5636 49.7367 32.8636C49.682 33.2227 49.3469 33.4655 48.9905 33.4117L48.8945 33.3893Z" fill="#FAB47B"/>
<path d="M50.6495 36.1947L47.5781 36.3687L52.9944 20.2168L55.3407 22.2086C55.5759 22.4079 55.6645 22.7317 55.5669 23.0232L51.3208 35.6828C51.2233 35.9769 50.957 36.1784 50.6495 36.1947Z" fill="#3D3F43"/>
<path d="M47.5909 36.3708L47.5681 36.3648L47.3857 35.9967L52.6171 20.3953L52.9844 20.214L53.0068 20.2201L53.1896 20.5881L47.9582 36.1883L47.5909 36.3708Z" fill="#606369"/>
<path d="M54.2029 23.2309L53.7316 23.5698L53.5703 23.0131L54.0417 22.6742L54.2029 23.2309Z" fill="#2F2F31"/>
<path d="M53.8934 30.7627L53.3558 30.4385L52.2246 28.2947C52.0685 27.9971 52.1808 27.6291 52.4784 27.4715C52.7747 27.3151 53.1421 27.4301 53.2982 27.7255L54.4298 29.868C54.5872 30.1656 54.4733 30.5349 54.177 30.6913L53.8934 30.7627Z" fill="#FAB47B"/>
<path d="M53.3643 31.7998L52.8795 31.5596L51.2959 29.4611L51.4146 28.609L52.2658 28.7279L53.8494 30.8263L53.7307 31.6784L53.3643 31.7998Z" fill="#FAB47B"/>
<path d="M53.0031 33.0688L52.5759 32.8923L50.5097 30.845L50.5059 29.9868L51.3644 29.9803L53.4306 32.0277L53.4344 32.8885L53.0031 33.0688Z" fill="#FAB47B"/>
<path d="M52.7249 34.2024L52.3476 34.0711L50.4814 32.5818L50.3838 31.7297L51.2375 31.6298L53.105 33.12L53.2014 33.9746L52.7249 34.2024Z" fill="#FAB47B"/>
<path d="M39.2734 47.4515V46.0901C39.2734 44.8987 40.2398 43.9316 41.4309 43.9316H44.6648C45.0034 43.9316 45.2786 44.2068 45.2786 44.546V48.3225C45.2786 48.6627 45.0034 48.9343 44.6648 48.9343H40.7573C39.9371 48.9343 39.2734 48.2725 39.2734 47.4515Z" fill="#FBC89A"/>
<path d="M44.6524 45.1675C44.3423 45.1675 44.076 44.9336 44.0424 44.6193C44.0072 44.2804 44.2511 43.9786 44.5874 43.9437L49.1173 43.4568C49.4524 43.4219 49.756 43.6647 49.7922 44.0014C49.8287 44.3403 49.5848 44.6421 49.2472 44.677L44.7186 45.164L44.6524 45.1675Z" fill="#FBC89A"/>
<path d="M44.6519 46.4202C44.322 46.4202 44.0493 46.1575 44.0394 45.8247C44.0282 45.4846 44.2957 45.203 44.633 45.1928L49.9767 45.0304C50.3367 45.0365 50.5994 45.2866 50.6094 45.6258C50.6193 45.965 50.3531 46.2475 50.0158 46.2565L44.6704 46.4202H44.6519Z" fill="#FBC89A"/>
<path d="M49.5099 47.9009H49.4811L44.6235 47.6731C44.2859 47.6568 44.0235 47.3688 44.0398 47.0286C44.0561 46.6894 44.3361 46.4331 44.6823 46.4456L49.5383 46.6734C49.8772 46.6894 50.1383 46.9774 50.1223 47.314C50.1073 47.6443 49.8359 47.9009 49.5099 47.9009Z" fill="#FBC89A"/>
<path d="M48.6646 49.3735L48.5957 49.371L44.5846 48.9219C44.247 48.8831 44.0044 48.5791 44.0431 48.2437C44.0809 47.9032 44.3782 47.6668 44.7209 47.6982L48.7321 48.1498C49.0697 48.1848 49.3119 48.49 49.2732 48.8254C49.2383 49.1432 48.9734 49.3735 48.6646 49.3735Z" fill="#FBC89A"/>
<path d="M40.5399 45.5068L40.0113 45.2442C39.7912 44.9523 39.85 44.5372 40.14 44.3155C40.9399 43.7136 42.8113 42.2948 43.1175 41.1798C43.2139 40.8271 43.5774 40.6217 43.9287 40.7143C44.2814 40.8107 44.4874 41.1759 44.3911 41.5289C43.9675 43.0793 41.9963 44.5721 40.9374 45.3729L40.5399 45.5068Z" fill="#FBC89A"/>
</g>
</svg>
