<svg width="31" height="39" viewBox="0 0 31 39" fill="none" xmlns="http://www.w3.org/2000/svg">
<mask id="mask0" mask-type="alpha" maskUnits="userSpaceOnUse" x="0" y="0" width="31" height="39">
<path d="M13.2216 38.25H17.6408C24.7608 38.25 30.5336 32.4743 30.5336 25.3468V13.5135C30.5336 6.38915 24.7608 0.610229 17.6408 0.610229H13.2216C6.10484 0.610229 0.332031 6.38915 0.332031 13.5135V25.3468C0.332031 32.4743 6.10484 38.25 13.2216 38.25Z" fill="#667F90"/>
</mask>
<g mask="url(#mask0)">
<path d="M15.203 35.3994C7.46192 57.8808 3.03566 60.908 -7.47953 71.5688C-8.37585 72.4754 -9.85584 72.4593 -10.8219 71.6264C-11.9432 70.6622 -11.9944 68.9388 -10.9294 67.9137C1.81424 55.632 4.51311 47.0181 9.49934 33.5543C10.0667 32.0231 11.6654 31.1389 13.228 31.6194C14.8206 32.1096 15.7467 33.8234 15.203 35.3994Z" fill="#FBC89A"/>
<path d="M12.7104 43.8438C13.9354 41.2298 15.0867 38.2666 16.1565 34.9094C16.7917 32.9201 15.6765 30.7931 13.6816 30.178C11.7267 29.5758 9.64799 30.6553 9.01279 32.5998C8.02399 35.6302 7.02657 38.3948 5.93793 40.8614L12.7104 43.8438Z" fill="#D9571E"/>
<path d="M23.0351 29.7872L14.9126 29.5469C11.5001 29.4444 8.65115 32.1288 8.55003 35.5436L7.67993 64.6912L27.8962 65.2966L28.7737 35.8864C28.8713 32.6158 26.3023 29.8865 23.0351 29.7872Z" fill="#F35F1A"/>
<path d="M18.6454 34.5507L18.7478 34.5539C20.8678 34.6179 22.6377 32.949 22.7004 30.8284L22.7314 29.781L14.9529 29.5471L14.9216 30.5946C14.8579 32.7152 16.5254 34.4866 18.6454 34.5507Z" fill="#BE4D1F"/>
<path d="M18.9869 33.753C17.1594 33.9388 15.527 32.603 15.342 30.7739L14.8768 26.1674C14.6918 24.3351 16.0243 22.7014 17.8531 22.5156C19.6819 22.333 21.3146 23.6656 21.4983 25.4947L21.9645 30.1044C22.1482 31.9335 20.8157 33.5672 18.9869 33.753Z" fill="#FAB47B"/>
<path d="M15.676 5.98291C11.2533 6.26801 7.9595 10.1857 8.43342 14.5967L9.25197 22.1119C9.68461 26.0809 13.1595 29.0055 17.1384 28.7493C21.1195 28.4962 24.1947 25.1487 24.1147 21.1541L23.962 13.5973C23.867 9.16063 20.0984 5.69781 15.676 5.98291Z" fill="#FBC89A"/>
<path d="M24.4395 23.0954C24.8983 23.0665 25.2459 22.6725 25.2171 22.2112L24.4747 10.6823L22.8132 10.788L23.5556 22.3202C23.5857 22.7783 23.9809 23.1274 24.4395 23.0954Z" fill="#3D3F43"/>
<path d="M16.0536 23.941L16.4248 24.4408C16.2923 25.3441 15.6687 26.0456 14.876 26.0969L14.4751 26.1225C13.6824 26.1738 12.9736 25.5587 12.7263 24.6778L13.0312 24.1364L16.0536 23.941Z" fill="white"/>
<path d="M23.966 20.9714L22.7221 21.0515L22.4895 17.4413L23.7333 17.3612C24.7295 17.2971 25.5897 18.0531 25.6533 19.0494C25.7183 20.0489 24.9622 20.9074 23.966 20.9714Z" fill="#FBC89A"/>
<path d="M13.7667 16.7078L14.1289 22.336L12.5852 22.4353C12.0777 22.4674 11.7091 21.9612 11.894 21.4871L13.7667 16.7078Z" fill="#FAB47B"/>
<path d="M24.4846 14.0747C26.042 10.8841 24.7233 7.03366 21.537 5.47361C18.3521 3.91357 14.5057 5.23659 12.947 8.42395L24.4846 14.0747Z" fill="#3D3F43"/>
<path d="M21.6293 15.2276C22.5467 15.1668 23.2431 14.3755 23.1829 13.4561L22.9192 9.35583L19.5979 9.56727L19.8629 13.6708C19.9217 14.5902 20.7131 15.2853 21.6293 15.2276Z" fill="#3D3F43"/>
<path d="M19.7227 5.61778C16.8126 2.35353 11.8101 2.06844 8.55023 4.98031C5.28881 7.89539 5.004 12.9023 7.91407 16.1665L19.7227 5.61778Z" fill="#3D3F43"/>
<path d="M22.6972 18.7003C22.351 18.7227 22.0534 18.4601 22.031 18.1141L21.6585 12.3319L22.9097 12.2487L23.2809 18.034C23.3033 18.38 23.0422 18.6779 22.6972 18.7003Z" fill="#3D3F43"/>
<path d="M24.6002 12.8734L22.2054 13.0271L22.4879 17.4189L24.8828 17.262L24.6002 12.8734Z" fill="#3D3F43"/>
<path d="M15.6064 9.29199C13.7927 12.2007 11.1713 14.5648 8.034 16.0608L15.6064 9.29199Z" fill="#3D3F43"/>
<path d="M12.1474 16.3553L9.31519 16.8005L9.0563 16.6115L9.22878 16.3585L12.0313 15.7146L12.3049 15.9004L12.335 16.099L12.1474 16.3553Z" fill="#3D3F43"/>
<path d="M15.3825 16.1472L18.2501 16.2241L18.4814 16.0031L18.2776 15.7724L15.4165 15.4969L15.1688 15.7148L15.164 15.9166L15.3825 16.1472Z" fill="#3D3F43"/>
<path d="M17.2622 19.2417C17.2961 19.7574 17.1322 20.1899 16.8974 20.2027C16.6612 20.2187 16.4436 19.8119 16.411 19.2962C16.3774 18.7773 16.5412 18.348 16.7761 18.332C17.011 18.316 17.2286 18.7228 17.2622 19.2417Z" fill="#3D3F43"/>
<path d="M11.5574 19.6068C11.59 20.1258 11.4262 20.5583 11.1913 20.5711C10.9561 20.5871 10.7388 20.1803 10.7049 19.6645C10.6726 19.1456 10.8361 18.7131 11.0713 18.7003C11.3062 18.6843 11.5238 19.0911 11.5574 19.6068Z" fill="#3D3F43"/>
<path d="M27.7923 32.0711C57.4633 48.7031 45.6934 53.1238 32.0096 65.7515C31.0723 66.6164 29.601 66.5492 28.6672 65.681C27.5847 64.672 27.5347 62.8717 28.7034 61.9651C47.3734 47.489 41.0634 46.8836 24.8023 37.2702C23.3962 36.4405 22.8935 34.6466 23.6896 33.2179C24.4999 31.7604 26.3386 31.2543 27.7923 32.0711Z" fill="#FBC89A"/>
<path d="M35.5244 36.2707C33.223 34.5249 30.5683 32.7822 27.5133 31.0332C25.7008 29.9985 23.3894 30.6456 22.3731 32.4715C21.3782 34.2622 21.9981 36.5206 23.7683 37.5489C26.5206 39.1474 29.0144 40.6978 31.1993 42.2803L35.5244 36.2707Z" fill="#F35F1A"/>
</g>
</svg>
