<svg width="77" height="107" viewBox="0 0 77 107" fill="none" xmlns="http://www.w3.org/2000/svg">
<path d="M42.3374 34.308C27.1022 52.4424 19.9342 52.6275 4.9486 52.2723C3.6718 52.2434 2.62216 51.2597 2.50376 49.9886C2.36936 48.5144 3.53098 47.2394 5.00938 47.2455C22.699 47.2942 28.4622 41.3555 37.7614 30.4316C38.8206 29.1852 40.683 29.0224 41.947 30.0635C43.2334 31.1197 43.4094 33.0331 42.3374 34.308Z" fill="#FBC89A"/>
<path d="M36.8243 41.1689C38.9523 39.2184 41.1412 36.9145 43.4068 34.2179C44.7477 32.6201 44.5269 30.2262 42.914 28.9C41.3364 27.5998 39.0036 27.8051 37.6756 29.3655C35.6115 31.7866 33.637 33.9652 31.6914 35.8321L36.8243 41.1689Z" fill="#8E9927"/>
<path d="M6.52335 50.9719L6.76976 49.6329C6.98416 48.4604 6.20978 47.3354 5.03856 47.1214L1.85444 46.5345C1.52163 46.4733 1.24963 46.8389 1.14083 47.0275C0.900825 47.4542 0.644877 48.1715 0.558475 48.6494C0.468874 49.1299 0.388857 50.2636 0.462458 50.7442C0.494459 50.9581 0.622474 51.3973 0.955279 51.4585L4.79855 52.1633C5.60497 52.3132 6.37615 51.7789 6.52335 50.9719Z" fill="#FBC89A"/>
<path d="M12.7829 96.4437C11.4965 96.7602 10.7093 98.0617 11.0261 99.3517L11.1125 99.7085L15.7748 98.5611L15.6884 98.2055C15.3716 96.9181 14.0725 96.126 12.7829 96.4437Z" fill="#FBC89A"/>
<path d="M15.8004 98.5547L11.1124 99.7086L2.1875 105.112L17.3972 101.374L15.8004 98.5547Z" fill="#F7941E"/>
<path d="M10.3215 100.813L10.2128 100.996L8.14551 101.501L9.00632 100.982L10.1392 100.705L10.3215 100.813Z" fill="#E7F7F9"/>
<path d="M11.8312 100.08L9.57812 100.633L10.439 100.111L11.7607 99.7888L11.9431 99.8974L11.8312 100.08Z" fill="#E7F7F9"/>
<path d="M8.67297 101.739L8.56414 101.922L6.69531 102.38L7.55613 101.861L8.49375 101.631L8.67297 101.739Z" fill="#E7F7F9"/>
<path d="M17.3964 101.374L2.1866 105.112L2.11621 105.227L2.52262 106.89L2.64098 106.96L17.8475 103.222L17.9211 103.103L17.5116 101.444L17.3964 101.374Z" fill="#881C1C"/>
<path d="M10.9801 97.6637C6.77525 63.779 21.9624 65.2907 40.58 63.7566C42.8808 63.5676 44.9193 65.2356 45.1753 67.5331C45.4441 69.9381 43.6936 72.069 41.2872 72.2644C25.0088 73.5932 12.3624 70.147 15.7768 97.9651L10.9801 97.6637Z" fill="#971F1F"/>
<path d="M10.8403 97.1259L15.5924 96.2549L16.1589 96.6428L16.29 97.3726L15.9028 97.9367L11.1507 98.8115L10.5843 98.4197L10.4531 97.6903L10.8403 97.1259Z" fill="#881C1C"/>
<path d="M46.8083 70.2725C43.9763 70.2437 36.6964 69.9871 36.7188 67.7736L36.7764 62.1388C36.7924 60.7223 37.9475 59.5886 39.3619 59.6011L54.466 59.7552C55.8803 59.7715 57.0163 60.9315 57.0003 62.3442L56.9427 67.9789C56.9203 70.1924 49.6371 70.3014 46.8083 70.2725Z" fill="#A82621"/>
<path d="M51.185 27.0644L43.06 27.0558C39.6456 27.0519 36.8744 29.82 36.8712 33.2386L36.8359 62.3955L57.0602 62.418L57.0954 32.9984C57.1018 29.7274 54.4554 27.0721 51.185 27.0644Z" fill="#8E9927"/>
<path d="M55.6844 29.0166C73.614 39.6541 78.6989 45.4628 75.4861 50.2928C71.3005 56.5808 59.6141 48.6524 48.5165 39.9619C47.5117 39.1774 47.0221 37.9085 47.5661 36.7547C48.1965 35.4157 49.9213 34.7814 51.1117 35.6597C60.8589 42.8449 68.0813 46.6951 68.5453 46.0358C69.0061 45.375 62.7052 40.206 52.6476 34.1894C51.246 33.3498 50.7629 31.5466 51.5725 30.124C52.3949 28.6761 54.2508 28.1645 55.6844 29.0166Z" fill="#FBC89A"/>
<path d="M63.3774 33.2859C61.0926 31.5202 58.4527 29.7522 55.4158 27.9779C53.6142 26.9243 51.2942 27.5525 50.2638 29.3682C49.2526 31.146 49.851 33.4111 51.611 34.4545C54.3502 36.0789 56.827 37.6556 58.9998 39.2573L63.3774 33.2859Z" fill="#8E9927"/>
<path d="M52.8911 34.2634C52.8335 34.0132 52.5071 33.8717 52.1711 33.9517L42.0303 36.3581L42.1743 36.9661L52.3791 34.8464C52.7183 34.775 52.9487 34.5123 52.8911 34.2634Z" fill="#D3CCB8"/>
<path d="M36.6768 37.6717C36.8656 38.4875 38.2928 38.8668 39.864 38.5164C41.4352 38.1672 42.5552 37.2226 42.3664 36.4054L36.6768 37.6717Z" fill="#D3CCB8"/>
<path d="M39.7769 38.1423C41.3481 37.7931 42.5065 37.0172 42.3657 36.4053C42.2217 35.7973 40.833 35.5859 39.2618 35.9351C37.6906 36.2839 36.5322 37.0624 36.6762 37.6717C36.817 38.2839 38.2057 38.4914 39.7769 38.1423Z" fill="#E7E0C9"/>
<path d="M39.7589 38.0562C41.2565 37.7234 42.3669 36.9988 42.2357 36.4343C42.1045 35.8737 40.7828 35.6886 39.282 36.0214C37.7844 36.3543 36.6772 37.0827 36.8084 37.6433C36.9396 38.2061 38.2613 38.389 39.7589 38.0562Z" fill="#C4BFAC"/>
<path d="M51.8129 39.2759L52.1297 37.9532C52.4049 36.7932 51.6881 35.6272 50.5297 35.3517L47.3841 34.6021C47.0546 34.522 46.7633 34.875 46.6449 35.0576C46.3826 35.467 46.0882 36.1727 45.9762 36.6455C45.8642 37.1174 45.7234 38.2472 45.7714 38.7316C45.7938 38.9456 45.8962 39.3912 46.2258 39.4713L50.0273 40.3785C50.8241 40.5672 51.6241 40.0741 51.8129 39.2759Z" fill="#FBC89A"/>
<path d="M57.0632 60.8601L36.8391 60.8351L36.8359 62.3955L57.06 62.418L57.0632 60.8601Z" fill="#808B26"/>
<path d="M46.9322 31.9534H47.0379C49.1563 31.9572 50.8778 30.2363 50.881 28.1154V27.0644L43.0986 27.0557V28.1055C43.0954 30.2264 44.8138 31.9495 46.9322 31.9534Z" fill="#808B26"/>
<path d="M47.2529 31.146C45.4321 31.3828 43.7617 30.095 43.5249 28.2732L42.9265 23.6796C42.6897 21.8562 43.9761 20.184 45.7969 19.9469C47.6209 19.7099 49.2913 20.9945 49.5281 22.8204L50.1233 27.4108C50.3633 29.2365 49.0769 30.9083 47.2529 31.146Z" fill="#FAB47B"/>
<path d="M29.6491 99.1606C28.3211 99.1567 27.2427 100.23 27.2395 101.557L27.2363 101.922L32.0395 101.937V101.572C32.0459 100.247 30.9739 99.1667 29.6491 99.1606Z" fill="#FBC89A"/>
<path d="M32.066 101.937L27.2372 101.922L17.2725 105.007L32.9332 105.058L32.066 101.937Z" fill="#F7941E"/>
<path d="M26.2065 102.806L26.0561 102.953L23.9248 102.947L24.888 102.649L26.0561 102.652L26.2065 102.806Z" fill="#E7F7F9"/>
<path d="M27.8473 102.46L25.5273 102.45L26.4873 102.152L27.8473 102.159L27.9978 102.309L27.8473 102.46Z" fill="#E7F7F9"/>
<path d="M24.3823 103.305L24.2319 103.452L22.3086 103.446L23.2687 103.152L24.2319 103.155L24.3823 103.305Z" fill="#E7F7F9"/>
<path d="M32.9333 105.058L17.2723 105.007L17.1763 105.103L17.1699 106.813L17.2659 106.909L32.9269 106.964L33.0261 106.867L33.0293 105.157L32.9333 105.058Z" fill="#881C1C"/>
<path d="M27.0318 100.682C18.3406 67.6646 33.5918 67.129 51.835 63.1187C54.091 62.6218 56.3342 64.0034 56.8974 66.2481C57.483 68.5933 56.0334 70.9381 53.675 71.4574C37.7198 74.9523 24.7246 73.2292 31.8254 100.339L27.0318 100.682Z" fill="#A82621"/>
<path d="M26.9425 100.111L31.7202 99.3905L32.2706 99.7973L32.3794 100.531L31.973 101.082L27.1954 101.803L26.6449 101.396L26.5361 100.662L26.9425 100.111Z" fill="#881C1C"/>
<path d="M8.5041 48.7999H25.7297L25.848 49.2228L24.1361 50.9885C23.3777 51.7691 22.4304 52.1958 21.4544 52.1958H12.7793C11.8033 52.1958 10.8561 51.7691 10.0977 50.9885L8.38574 49.2228L8.5041 48.7999Z" fill="#C4BFAC"/>
<path d="M14.3472 48.7999H23.7648L23.832 49.2228L22.8944 50.9885C22.4816 51.7691 21.9632 52.1958 21.4288 52.1958H16.6832C16.1488 52.1958 15.6336 51.7691 15.2176 50.9885L14.2832 49.2228L14.3472 48.7999Z" fill="#D3CCB8"/>
<path d="M21.1537 48.3958C20.1745 48.3958 19.3809 47.6023 19.3809 46.6214C19.3809 45.6415 20.1745 44.847 21.1537 44.847C21.8353 44.847 22.3889 44.2925 22.3889 43.6105C22.3889 42.9288 21.8353 42.3743 21.1537 42.3743L20.8848 42.1017L21.1537 41.8326C22.1329 41.8326 22.9297 42.6309 22.9297 43.6105C22.9297 44.5879 22.1329 45.3852 21.1537 45.3852C20.4721 45.3852 19.9185 45.9394 19.9185 46.6214C19.9185 47.3047 20.4721 47.8576 21.1537 47.8576L21.4225 48.1267L21.1537 48.3958Z" fill="#E5E1D6"/>
<path d="M17.7039 48.4607C16.5007 48.4607 15.5215 47.4798 15.5215 46.276C15.5215 45.0709 16.5007 44.0936 17.7039 44.0936C18.5391 44.0936 19.2207 43.4116 19.2207 42.572C19.2207 41.7336 18.5391 41.0542 17.7039 41.0542L17.3711 40.7214L17.7039 40.3911C18.9039 40.3911 19.8832 41.3681 19.8832 42.572C19.8832 43.7771 18.9039 44.757 17.7039 44.757C16.8655 44.757 16.1839 45.4364 16.1839 46.276C16.1839 47.1143 16.8655 47.7976 17.7039 47.7976L18.0335 48.1266L17.7039 48.4607Z" fill="#E5E1D6"/>
<path d="M14.1047 48.3958C13.1256 48.3958 12.332 47.6023 12.332 46.6214C12.332 45.6415 13.1256 44.847 14.1047 44.847C14.7863 44.847 15.3399 44.2925 15.3399 43.6105C15.3399 42.9288 14.7863 42.3743 14.1047 42.3743L13.8328 42.1017L14.1047 41.8326C15.0807 41.8326 15.8774 42.6309 15.8774 43.6105C15.8774 44.5879 15.0807 45.3852 14.1047 45.3852C13.4232 45.3852 12.8697 45.9394 12.8697 46.6214C12.8697 47.3047 13.4232 47.8576 14.1047 47.8576L14.3735 48.1267L14.1047 48.3958Z" fill="#E5E1D6"/>
<path d="M37.1342 8.74825C37.1214 9.12304 37.419 9.43374 37.7934 9.44655C38.1678 9.45616 38.4782 9.16147 38.491 8.78348C38.5006 8.40869 38.2062 8.09796 37.8318 8.08835C37.4574 8.07554 37.1438 8.37346 37.1342 8.74825Z" fill="#F7941E"/>
<path d="M37.301 9.51999C37.2914 9.87875 37.573 10.1799 37.9314 10.1895C38.2898 10.1991 38.5906 9.91399 38.6002 9.55522C38.6098 9.19645 38.3282 8.89852 37.9698 8.88891C37.6114 8.8793 37.3106 9.16122 37.301 9.51999Z" fill="#F7941E"/>
<path d="M45.5469 3.42097C41.1181 3.29924 37.4796 6.8966 37.5468 11.3333L37.6717 18.89C37.7357 22.8814 40.9293 26.1133 44.9133 26.226C48.9005 26.3375 52.2702 23.2882 52.5582 19.3032L53.099 11.7625C53.4126 7.3387 49.9789 3.54269 45.5469 3.42097Z" fill="#FBC89A"/>
<path d="M52.7064 21.2668C53.1641 21.2796 53.548 20.9176 53.5608 20.4563L53.8809 8.90813L52.2168 8.86328L51.8968 20.4115C51.884 20.8727 52.2456 21.2539 52.7064 21.2668Z" fill="#F7941E"/>
<path d="M52.6125 19.6874C52.6029 20.0622 52.8974 20.3761 53.2718 20.3858C53.6463 20.3954 53.9599 20.1007 53.9695 19.7259C53.9791 19.3511 53.6846 19.0372 53.3102 19.0276C52.9358 19.018 52.6221 19.3127 52.6125 19.6874Z" fill="#F7941E"/>
<path d="M52.3754 18.3038C52.3594 18.8996 52.8298 19.3994 53.4281 19.4154C54.0233 19.4314 54.5192 18.9605 54.5384 18.3615C54.5544 17.7656 54.084 17.2691 53.4857 17.2499C52.8905 17.2339 52.3914 17.7048 52.3754 18.3038Z" fill="#F7941E"/>
<path d="M52.1109 16.4042C52.0885 17.2307 52.7381 17.9194 53.5637 17.9418C54.3893 17.9642 55.0773 17.314 55.0997 16.4875C55.1221 15.661 54.4725 14.9723 53.6469 14.9499C52.8213 14.9275 52.1333 15.5778 52.1109 16.4042Z" fill="#F7941E"/>
<path d="M52.4273 19.1076L51.1826 19.0724L51.2818 15.4558L52.5266 15.491C53.5249 15.5167 54.3121 16.3496 54.2833 17.349C54.2577 18.3484 53.4257 19.1365 52.4273 19.1076Z" fill="#FBC89A"/>
<path d="M42.9874 13.8351L42.8531 18.589C42.8403 19.1175 42.4883 19.5756 41.9827 19.723L41.9027 19.7454C40.5779 20.1362 39.5122 18.6242 40.325 17.503L42.9874 13.8351Z" fill="#FAB47B"/>
<path d="M41.0833 13.4251L38.2224 13.6077L37.9824 13.3963L38.1776 13.156L41.0257 12.7748L41.2816 12.983L41.2944 13.1848L41.0833 13.4251Z" fill="#F7941E"/>
<path d="M44.3253 13.5147L47.1735 13.8542L47.4231 13.6556L47.2407 13.4089L44.4181 12.8676L44.1526 13.063L44.127 13.2648L44.3253 13.5147Z" fill="#F7941E"/>
<path d="M50.6283 13.1719C51.5467 13.1976 52.3114 12.4736 52.337 11.5543L52.4523 7.44431L49.1243 7.35144L49.0124 11.4614C48.9868 12.3807 49.71 13.1463 50.6283 13.1719Z" fill="#F7941E"/>
<path d="M51.3709 16.7278C51.0253 16.7182 50.7533 16.4299 50.7629 16.0839L50.9229 10.2921L52.1741 10.3241L52.0141 16.1191C52.0045 16.4651 51.7165 16.7374 51.3709 16.7278Z" fill="#F7941E"/>
<path d="M53.8029 11.1026L51.4029 11.0353L51.2812 15.4335L53.6812 15.4976L53.8029 11.1026Z" fill="#F7941E"/>
<path d="M52.5046 13.7036C52.479 14.5717 53.1638 15.2989 54.0341 15.3213C54.9045 15.347 55.6277 14.6614 55.6533 13.7901C55.6757 12.9188 54.9909 12.1948 54.1205 12.1724C53.2534 12.1468 52.527 12.8323 52.5046 13.7036Z" fill="#F7941E"/>
<path d="M51.8182 10.7372C51.7862 11.8872 52.695 12.8451 53.8439 12.8771C54.9961 12.9091 55.953 12.0025 55.985 10.8525C56.017 9.69928 55.1113 8.74148 53.9592 8.70944C52.8103 8.67741 51.8502 9.58396 51.8182 10.7372Z" fill="#F7941E"/>
<path d="M51.2626 7.70058C51.2306 8.82494 52.117 9.76351 53.2402 9.79555C54.3666 9.82758 55.3042 8.94025 55.333 7.81269C55.365 6.68833 54.4786 5.74976 53.3554 5.71772C52.229 5.68889 51.2946 6.57623 51.2626 7.70058Z" fill="#F7941E"/>
<path d="M48.0207 4.85896C47.9759 6.44463 49.2271 7.76762 50.8112 7.81246C52.3952 7.85411 53.7169 6.6048 53.7617 5.01913C53.8033 3.43025 52.5553 2.11047 50.9712 2.06562C49.3839 2.02077 48.0655 3.27329 48.0207 4.85896Z" fill="#F7941E"/>
<path d="M44.7218 2.74162C44.6802 4.25361 45.8706 5.51255 47.381 5.5542C48.8947 5.59905 50.1523 4.40416 50.1939 2.89217C50.2355 1.38017 49.045 0.118021 47.5346 0.0763769C46.0242 0.0347328 44.7634 1.22641 44.7218 2.74162Z" fill="#F7941E"/>
<path d="M40.6574 3.39821C40.6158 4.84615 41.7581 6.05385 43.2076 6.09549C44.654 6.13393 45.8604 4.99353 45.902 3.54238C45.9436 2.09124 44.8012 0.883537 43.3517 0.845097C41.9022 0.803452 40.6957 1.94706 40.6574 3.39821Z" fill="#F7941E"/>
<path d="M39.2086 4.24734C39.183 5.20512 39.9382 6.00597 40.895 6.03159C41.8549 6.05722 42.6549 5.30124 42.6805 4.34345C42.7061 3.38247 41.9509 2.58482 40.991 2.55599C40.0342 2.53037 39.2342 3.28635 39.2086 4.24734Z" fill="#F7941E"/>
<path d="M37.9539 5.94822C37.9251 6.90924 38.6803 7.71007 39.6403 7.7357C40.6004 7.76132 41.3972 7.00531 41.4228 6.0443C41.4516 5.08649 40.6964 4.28566 39.7364 4.26003C38.7796 4.2344 37.9795 4.99041 37.9539 5.94822Z" fill="#F7941E"/>
<path d="M36.9771 7.4314C36.9579 8.07848 37.4667 8.61664 38.113 8.63586C38.7594 8.65188 39.297 8.14253 39.313 7.49866C39.3321 6.85158 38.8234 6.31341 38.177 6.29419C37.5307 6.27817 36.9931 6.78752 36.9771 7.4314Z" fill="#F7941E"/>
<path d="M44.8079 6.01238C44.7759 7.10473 43.864 7.96965 42.7728 7.93761C41.6784 7.90878 40.8176 6.99583 40.8464 5.90027C40.8784 4.80792 41.7871 3.94301 42.8815 3.97504C43.9759 4.00387 44.8367 4.91683 44.8079 6.01238Z" fill="#F7941E"/>
<path d="M47.1439 6.20462C47.1183 7.10797 46.3663 7.81914 45.4638 7.79352C44.5614 7.77109 43.851 7.01831 43.8766 6.11496C43.9022 5.21161 44.6543 4.50043 45.5567 4.52285C46.4559 4.54848 47.1695 5.30127 47.1439 6.20462Z" fill="#F7941E"/>
<path d="M50.1971 7.02786C50.1683 8.12662 49.2532 8.99151 48.1555 8.96268C47.0547 8.93064 46.1906 8.01451 46.2194 6.91575C46.2515 5.81699 47.1666 4.94887 48.2643 4.9809C49.3619 5.00973 50.2291 5.9259 50.1971 7.02786Z" fill="#F7941E"/>
<path d="M51.3426 8.82183C51.317 9.71232 50.5746 10.417 49.6818 10.3914C48.7923 10.3658 48.0884 9.62262 48.114 8.73213C48.1396 7.83843 48.8819 7.13691 49.7714 7.15934C50.6642 7.18496 51.365 7.92813 51.3426 8.82183Z" fill="#F7941E"/>
<path d="M49.9701 13.2681C49.9541 13.8575 50.4181 14.3508 51.0069 14.3668C51.5957 14.3828 52.0852 13.9183 52.1012 13.3289C52.1204 12.7396 51.6533 12.2463 51.0645 12.2303C50.4757 12.2142 49.9861 12.6787 49.9701 13.2681Z" fill="#F7941E"/>
<path d="M50.3791 14.7545C50.3695 15.1293 50.664 15.4433 51.0384 15.4529C51.416 15.4625 51.7263 15.1678 51.7359 14.793C51.7487 14.4181 51.4511 14.1041 51.0767 14.0945C50.7023 14.0849 50.3919 14.3797 50.3791 14.7545Z" fill="#F7941E"/>
<path d="M54.2268 8.83774C54.2172 9.21251 54.5115 9.5232 54.8859 9.5328C55.2603 9.54562 55.5739 9.24774 55.5835 8.87297C55.5931 8.4982 55.2987 8.18748 54.9243 8.17466C54.55 8.16506 54.2364 8.46297 54.2268 8.83774Z" fill="#F7941E"/>
<path d="M53.9953 12.4831C53.9857 12.8579 54.2801 13.1718 54.6577 13.1814C55.0322 13.191 55.3427 12.8963 55.3523 12.5215C55.3651 12.1467 55.0674 11.8328 54.693 11.8232C54.3186 11.8136 54.0081 12.1083 53.9953 12.4831Z" fill="#F7941E"/>
<path d="M53.5979 15.2924C53.5883 15.6672 53.8827 15.9811 54.2571 15.9907C54.6316 16.0003 54.9452 15.7056 54.9548 15.3308C54.9645 14.956 54.67 14.6421 54.2955 14.6325C53.9211 14.6229 53.6075 14.9176 53.5979 15.2924Z" fill="#F7941E"/>
<path d="M43.6498 1.42832C43.6658 0.864503 44.1362 0.415978 44.7026 0.431996C45.2658 0.448013 45.7105 0.918941 45.6977 1.48596C45.6817 2.05298 45.2113 2.49826 44.645 2.48225C44.0786 2.46623 43.6338 1.99534 43.6498 1.42832Z" fill="#F7941E"/>
<path d="M48.9965 2.53993C49.0125 1.97294 49.4829 1.52768 50.0493 1.54369C50.6125 1.55651 51.0605 2.03057 51.0445 2.59437C51.0285 3.16136 50.5582 3.60666 49.9918 3.59065C49.4254 3.57463 48.9805 3.10373 48.9965 2.53993Z" fill="#F7941E"/>
<path d="M52.2953 5.96422C52.3113 5.39721 52.7817 4.95193 53.3449 4.96795C53.9112 4.98076 54.3559 5.45488 54.3399 6.01869C54.3271 6.5857 53.8535 7.03098 53.2904 7.01496C52.7241 6.99894 52.2793 6.52803 52.2953 5.96422Z" fill="#F7941E"/>
<path d="M41.4668 22.8813C41.4668 23.2657 41.9084 23.5796 42.4492 23.5764C42.9932 23.5764 43.4316 23.2625 43.4284 22.8749C43.4284 22.4873 42.99 22.1766 42.446 22.1766C41.9052 22.1798 41.4668 22.4937 41.4668 22.8813Z" fill="#AA635F"/>
<path d="M46.4656 16.4648H46.4624L46.2736 16.2694C46.28 15.8978 45.9856 15.5902 45.6176 15.5838L45.1408 15.7696L44.9328 16.2406L44.7408 16.4296H44.7376L44.5488 16.2342L44.872 15.4941C45.0768 15.2987 45.3264 15.1962 45.624 15.1994C46.2064 15.2122 46.6672 15.6928 46.6576 16.2758L46.4656 16.4648Z" fill="#304544"/>
<path d="M40.6481 16.3496H40.6449L40.4561 16.1542L40.2673 15.6769L39.8002 15.4719L39.3202 15.6577L39.1155 16.1286L38.9203 16.3176L38.7314 16.1222L39.0546 15.3822C39.2594 15.1868 39.5122 15.0875 39.8066 15.0875L40.5457 15.4111L40.8401 16.1638L40.6481 16.3496Z" fill="#304544"/>
</svg>
