<svg width="233" height="371" viewBox="0 0 233 371" fill="none" xmlns="http://www.w3.org/2000/svg">
<g clip-path="url(#clip0)">
<path fill-rule="evenodd" clip-rule="evenodd" d="M61.9484 13.8821C66.0481 25.9397 81.5176 27.7725 92.4603 26.6769C118.037 24.1162 134.278 1.9055 161.343 12.9569C156.685 3.39747 142.795 0.253791 133.143 0.017752C108.892 -0.575178 86.8156 13.8821 61.9484 13.8821Z" fill="#AA3C28"/>
<path fill-rule="evenodd" clip-rule="evenodd" d="M68.4207 22.2087C92.7562 40.4373 75.3552 30.5354 98.008 30.5354C106.203 28.3859 153.933 11.5535 161.806 13.4195C145.608 -2.94456 122.033 16.4634 106.329 22.7178C92.3725 28.2763 82.0886 26.8719 68.4207 22.2087Z" fill="#B9614E"/>
<path fill-rule="evenodd" clip-rule="evenodd" d="M163.655 16.195C153.946 35.1614 115.926 39.883 96.6211 40.7125L98.9326 42.5629C109.533 42.5629 119.903 42.1724 130.369 40.2841C136.911 39.1039 144.998 36.4723 151.635 37.4743C151.635 34.2005 155.648 34.6314 158.107 33.0026C161.936 30.4663 162.308 25.6473 165.504 23.1339C163.96 21.1138 164.657 18.4894 163.655 16.195Z" fill="#B9614E"/>
<path fill-rule="evenodd" clip-rule="evenodd" d="M73.506 25.9095C66.1092 24.0591 65.6469 24.9843 62.4108 24.9843C75.977 34.7075 71.6531 53.4551 76.7421 68.4681H77.6667C79.2131 58.8498 76.7664 47.2295 77.2044 37.0117C97.8249 45.4199 122.848 42.1421 143.314 33.7336C147.896 31.8508 169.978 21.2874 162.268 13.882C155.426 7.30994 138.664 11.5114 131.294 14.6695C115.271 21.5354 101.56 31.0884 83.2143 29.5231C78.9809 29.1618 77.2044 27.7598 73.506 25.9095Z" fill="#AA3C28"/>
<path fill-rule="evenodd" clip-rule="evenodd" d="M164.579 21.7462C162.469 28.8559 154.995 35.0672 147.937 36.5491C154.872 51.2233 158.347 66.9526 160.419 83.2711H162.73C163.033 76.3114 163.86 59.5863 171.976 58.291C173.561 46.5136 181.222 24.0591 164.579 21.7462Z" fill="#AA3C28"/>
<path d="M138.69 129.068L110.952 129.531L109.565 136.932L139.615 134.157L138.69 129.068Z" fill="#4C7B9E"/>
<path fill-rule="evenodd" clip-rule="evenodd" d="M77.2043 37.0117C79.0536 41.3735 91.6628 45.5843 100.319 46.4511C116.649 48.0859 132.922 43.8784 149.323 43.8332C150.611 53.3941 153.94 62.7616 153.94 72.514C153.94 97.4407 138.616 123.438 111.415 125.83C111.415 131.844 113.267 146.731 111.415 154.511L142.389 156.361L138.228 129.876C136.779 126.88 136.249 123.844 135.454 120.624C145.787 115.705 156.875 104.292 159.494 92.8684C171.142 92.5872 181.746 76.4588 177.3 65.1264C171.416 50.1275 164.324 64.3835 163.192 70.6637L160.881 78.5278C158.107 69.2758 157.025 62.8606 155.263 53.0851C154.468 48.6698 154.606 42.9216 151.568 39.345C147.539 34.6011 141.389 38.0898 136.379 38.8621C121.94 41.0879 108.521 43.6327 93.8472 41.175C89.453 40.439 79.5159 37.9368 77.2043 37.0117Z" fill="#DAAA85"/>
<path fill-rule="evenodd" clip-rule="evenodd" d="M77.2044 37.0117C76.2798 41.6377 77.2044 51.1392 77.2044 55.5155C78.6814 74.0817 67.656 91.053 78.6768 109.163C93.5883 133.663 130.425 130.051 144.859 107.326C159.494 88.8222 155.333 64.7673 149.786 43.0254L133.143 44.4132C130.009 44.1782 121.585 45.3384 116.5 46.2636C102.195 46.2636 89.8807 44.0385 77.2044 37.0117Z" fill="#EABB95"/>
<path fill-rule="evenodd" clip-rule="evenodd" d="M115.82 50.2939C115.82 50.2939 115.113 52.2773 118.349 51.7491C121.349 51.3483 124.58 50.1799 127.595 50.8599C132.438 51.9526 135.914 54.747 140.751 55.3877C141.28 55.4577 142.444 55.5155 142.229 54.5903C139.881 44.4734 118.725 39.6445 115.82 50.2939Z" fill="#AA3C28"/>
<path fill-rule="evenodd" clip-rule="evenodd" d="M78.2549 54.9795C78.1203 56.37 79.6597 56.4751 80.3124 56.2875C85.9707 53.117 86.7195 51.6456 94.4352 52.1958C96.2845 52.6584 99.4993 52.2925 98.4702 49.9644C92.4603 43.488 79.0535 46.7262 78.2549 54.9795Z" fill="#AA3C28"/>
<path fill-rule="evenodd" clip-rule="evenodd" d="M80.4405 81.4206C82.8144 80.7372 88.2996 77.2574 98.0079 80.0329C101.706 55.9781 90.5106 52.826 85.3177 57.6601C79.3252 63.2371 80.4405 74.0584 80.4405 81.4206Z" fill="white"/>
<path d="M89.6865 77.7199C92.7504 77.7199 95.2342 74.4062 95.2342 70.3185C95.2342 66.2307 92.7504 62.917 89.6865 62.917C86.6227 62.917 84.1389 66.2307 84.1389 70.3185C84.1389 74.4062 86.6227 77.7199 89.6865 77.7199Z" fill="black"/>
<path d="M86.4504 70.3185C87.727 70.3185 88.7619 69.0758 88.7619 67.5429C88.7619 66.01 87.727 64.7673 86.4504 64.7673C85.1738 64.7673 84.1389 66.01 84.1389 67.5429C84.1389 69.0758 85.1738 70.3185 86.4504 70.3185Z" fill="white"/>
<path d="M91.5358 74.1302C91.5358 72.9474 92.3679 73.0435 92.9227 73.094C93.4155 73.5869 93.5079 74.1302 93.0151 74.6229C92.5223 74.9515 91.5358 75.3129 91.5358 74.1302Z" fill="white" fill-opacity="0.85"/>
<path fill-rule="evenodd" clip-rule="evenodd" d="M80.4404 81.4207C86.1094 80.9257 92.2373 80.034 98.0079 80.0329C91.5357 77.72 85.9603 78.6336 80.4404 81.4207Z" fill="#DAAA85"/>
<path fill-rule="evenodd" clip-rule="evenodd" d="M114.651 79.5703H125.284L130.6 80.9581L135.917 82.3459C140.077 49.5018 121.263 53.2728 117.347 60.1784C113.999 66.083 114.651 73.045 114.651 79.5703Z" fill="white"/>
<path d="M125.746 77.7199C128.81 77.7199 131.294 74.4062 131.294 70.3185C131.294 66.2307 128.81 62.917 125.746 62.917C122.682 62.917 120.198 66.2307 120.198 70.3185C120.198 74.4062 122.682 77.7199 125.746 77.7199Z" fill="black"/>
<path d="M129.907 69.3933C131.183 69.3933 132.218 68.1506 132.218 66.6177C132.218 65.0848 131.183 63.8422 129.907 63.8422C128.63 63.8422 127.595 65.0848 127.595 66.6177C127.595 68.1506 128.63 69.3933 129.907 69.3933Z" fill="white"/>
<path d="M122.972 74.1562C122.972 72.9734 123.804 73.0695 124.359 73.12C124.852 73.6129 124.944 74.1562 124.452 74.649C123.959 74.9775 122.972 75.3389 122.972 74.1562Z" fill="white" fill-opacity="0.85"/>
<path fill-rule="evenodd" clip-rule="evenodd" d="M115.113 79.5704C116.5 80.4955 129.444 80.9581 135.917 82.3459C128.057 77.72 122.133 79.0546 115.113 79.5704Z" fill="#DAAA85"/>
<path fill-rule="evenodd" clip-rule="evenodd" d="M91.5357 90.6726C91.5357 90.6726 91.998 91.1352 92.4603 91.1352C92.9707 91.1352 93.3849 89.2848 93.3849 89.2848C95.6964 83.7337 105.405 83.2711 107.716 91.5978C108.641 92.5233 107.254 93.4485 108.641 91.1352C110.49 81.8833 90.1488 80.0329 91.5357 90.6726Z" fill="#DAAA85"/>
<path fill-rule="evenodd" clip-rule="evenodd" d="M96.1587 99.9248C104.072 117.215 124.773 118.674 131.294 98.9996C127.104 100.164 120.198 101.313 115.113 101.313C104.48 101.313 105.867 101.775 96.1587 99.9248Z" fill="#CD6975"/>
<path fill-rule="evenodd" clip-rule="evenodd" d="M98.0079 100.387C104.018 106.401 120.198 107.326 127.595 99.9248C117.425 101.313 108.179 101.775 98.0079 100.387Z" fill="white"/>
<path d="M52.7147 230.839C66.7686 228.248 85.0635 194.757 85.0635 187.818L54.1016 184.117C47.7834 200.77 38.6607 233.429 52.7147 230.839Z" fill="#DAAA85"/>
<path d="M65.6468 223.9C65.6468 223.9 66.6275 230.049 65.6468 230.376C64.2599 230.839 61.9484 222.975 61.9484 222.975L65.6468 223.9Z" fill="#4C7B9E"/>
<path fill-rule="evenodd" clip-rule="evenodd" d="M85.0634 146.647C74.7842 151.358 58.6124 169.135 55.8645 180.416C54.8234 184.688 56.1641 189.947 56.4831 194.294C57.0656 202.246 55.9903 211.537 57.686 219.272C58.4285 222.657 60.6965 226.763 64.7186 224.781C64.7186 224.781 77.0527 209.071 77.6666 202.621C78.9389 189.243 75.0731 156.547 85.0634 146.647Z" fill="#568CB4"/>
<path d="M65.6468 230.376C65.6468 230.376 56.8631 231.764 54.5516 231.764C53.627 224.825 53.627 216.128 53.627 214.648C53.627 213.168 47.6171 205.55 47.6171 201.233C50.2367 201.695 54.9029 203.183 56.8631 206.321C59.1746 210.022 65.6468 230.376 65.6468 230.376Z" fill="#5DA4D8"/>
<path fill-rule="evenodd" clip-rule="evenodd" d="M59.1746 129.531C56.8631 130.919 56.4391 131.792 55.0139 133.694C53.627 135.545 53.7309 137.111 52.2401 137.858C51.3155 138.32 50.2738 134.662 50.3909 132.306C50.5287 129.531 51.2328 124.442 51.3155 122.592C51.4601 119.354 52.5634 113.583 52.2401 111.027C51.793 107.492 48.5417 107.789 48.5417 107.789C48.5417 107.789 46.2302 108.252 45.7679 110.102C44.8418 113.808 44.9854 117.966 44.8433 120.279C44.6121 124.039 44.8433 129.993 43.9187 129.993C43.5068 129.993 43.1428 129.589 42.9941 129.068C42.8451 128.546 41.9054 123.98 41.6072 122.129C41.0106 118.429 39.4551 109.639 39.2957 108.714C38.8333 105.939 38.8333 102.238 35.1349 102.238C31.4365 102.7 31.5188 105.507 31.8988 107.789C32.0708 108.82 33.6219 119.816 34.2103 123.055C34.7987 126.293 35.5972 128.143 34.2103 128.606C32.8234 129.068 29.4044 118.062 27.2758 113.803C24.502 108.252 23.5774 109.177 21.7282 109.639C19.879 110.102 19.879 112.415 20.3413 113.803C20.4693 114.187 22.7409 119.515 23.5774 121.667C24.4029 123.79 25.8497 127.075 26.8135 129.531C27.7381 133.232 24.0397 129.531 24.0397 129.531C24.0397 129.531 18.9416 123.693 16.6429 121.667C13.4068 118.813 11.0952 120.279 10.6329 122.129C10.1706 123.98 13.8691 128.143 13.8691 128.143C14.8026 129.077 17.3263 131.382 19.879 135.545C23.6468 141.688 24.9643 148.96 25.8889 151.735C26.8135 154.511 27.251 155.898 28.2004 157.749C29.2497 159.795 30.9511 161.866 31.4365 162.838C32.3611 164.688 32.1185 165.151 32.3611 166.538C33.2983 171.899 31.9576 175.459 31.0806 180.416C28.8097 193.247 26.3342 209.155 29.292 222.05C31.3438 230.993 38.8493 236.655 48.0794 233.254C50.8252 232.241 54.0893 230.839 55.4762 228.526C57.6952 224.825 57.2061 202.637 56.3176 189.668C55.6972 180.598 53.3033 171.178 53.2192 161.912C53.1647 155.899 55.4762 155.899 57.3254 152.198C58.035 149.965 58.7123 147.341 59.1746 145.259C60.0992 141.096 60.4521 140.32 61.9484 137.858C63.384 135.494 68.4207 132.306 67.0337 129.993C65.6468 127.68 61.196 128.317 59.1746 129.531Z" fill="#EABB95"/>
<path d="M39.4771 154.048C39.4197 154.507 39.4771 157.749 39.9394 157.286C40.4017 156.824 39.9394 153.123 40.864 150.81C41.3263 149.422 41.2926 148.237 41.7886 146.647C42.2114 145.29 43.1755 143.409 43.6378 142.946C44.5624 141.558 47.673 138.108 47.7985 137.857C48.2608 136.932 45.6718 138.783 45.0247 139.708C44.1001 140.633 43.1755 142.021 41.7886 144.334C40.774 146.852 39.6579 152.6 39.4771 154.048Z" fill="#DAAA85"/>
<path d="M40.8639 136.007C41.9735 136.007 41.018 136.623 40.4016 136.932C40.2202 136.932 34.5459 139.014 31.6179 140.17C30.231 140.941 27.2758 142.946 26.9949 142.946C26.5326 142.945 26.8135 142.021 27.7381 141.558C28.3997 141.227 29.9668 140.17 32.0802 139.245C34.5459 138.166 39.7544 136.007 40.8639 136.007Z" fill="#DAAA85"/>
<path d="M46.2301 162.838C47.1547 162.375 47.1547 163.146 46.2301 163.763C44.3809 164.688 39.7181 166.076 38.8333 166.076C37.7274 166.076 37.3895 165.151 39.2956 165.151C41.1448 165.151 44.1627 163.872 46.2301 162.838Z" fill="#DAAA85"/>
<path d="M182.609 239.165C181.684 238.703 180.76 237.315 180.76 237.315L214.97 241.016L210.809 243.329C210.809 243.329 192.507 244.117 182.609 239.165Z" fill="#4C7B9E"/>
<path d="M178.911 228.526C178.911 228.526 177.473 228.529 177.524 228.988C177.986 233.152 218.669 235.465 218.669 230.376C218.669 229.725 217.744 228.988 217.744 228.988L178.911 228.526Z" fill="#4C7B9E"/>
<path fill-rule="evenodd" clip-rule="evenodd" d="M174.036 330.235C176.265 329.127 176.72 328.354 178.172 326.708C179.584 325.106 179.603 323.655 181.031 323.078C181.916 322.72 182.606 326.164 182.326 328.325C181.996 330.87 182.537 334.722 182.325 336.418C181.954 339.389 182.012 344.849 182.122 347.226C182.274 350.514 185.773 350.549 185.773 350.549C185.773 350.549 187.686 349.251 187.939 347.507C188.211 345.616 188.172 341.498 188.114 339.024C188.02 335 187.805 331.389 188.147 331.134C188.631 330.772 188.8 331.358 188.898 331.849C188.997 332.34 189.528 336.614 189.667 338.339C189.945 341.79 190.733 349.995 190.811 350.86C191.033 353.448 190.762 356.856 194.167 357.127C197.606 356.972 197.736 354.382 197.553 352.254C197.47 351.291 196.849 341.054 196.545 338.03C196.317 335.769 196.521 332.777 196.943 332.838C197.366 332.899 197.579 340.286 198.579 345.161C198.979 347.118 198.949 352.037 201.89 352.463C204.83 352.889 204.401 349.889 204.345 347.291C204.289 344.693 203.877 341.681 203.76 339.521C203.638 337.26 203.038 334.861 203.322 332.898C203.348 330.311 203.888 332.548 203.888 332.548C203.888 332.548 204.682 341.421 206.263 342.973C207.397 344.085 208.635 344.055 209.221 343.401C209.808 342.748 209.585 336.98 209.436 335.941C209.289 334.903 209.24 331.496 208.986 327.242C207.368 320.533 206.956 314.86 206.309 312.236C205.66 309.613 205.359 308.304 204.621 306.53C203.805 304.57 202.39 302.538 202.015 301.607C201.299 299.836 201.556 299.428 201.435 298.132C200.965 293.128 202.46 289.949 203.631 285.45C206.663 273.804 212.587 257.729 210.809 245.642C209.576 237.256 200.603 233.103 191.855 235.558C189.253 236.288 183.593 238.063 182.147 240.091C179.832 243.334 181.208 263.074 181.075 275.079C180.982 283.475 182.494 292.324 181.893 300.861C181.502 306.401 179.374 306.231 177.4 309.503C176.583 311.505 175.767 313.872 175.189 315.755C174.032 319.52 173.651 320.207 172.093 322.366C170.598 324.436 165.727 327.001 166.834 329.232C167.942 331.463 172.086 331.204 174.036 330.235Z" fill="#EABB95"/>
<path d="M214.508 229.451C209.885 193.369 188.002 157.595 174.75 148.96V192.906C174.75 205.859 178.95 225.661 185.383 234.077C190.509 240.783 202.463 260.83 208.036 256.281C209.885 250.73 215.39 236.333 214.508 229.451Z" fill="#EABB95"/>
<path d="M181.685 241.016L182.609 238.24L213.121 241.016L211.734 244.254L181.685 241.016Z" fill="#DAAA85"/>
<path fill-rule="evenodd" clip-rule="evenodd" d="M106.329 309.942C107.176 316.648 108.039 323.535 108.179 330.296C93.7085 330.287 83.0259 326.052 70.2698 320.119L69.3452 371.005H113.726C113.726 364.28 115.208 339.18 115.208 339.18L126.671 337.698C126.671 337.698 130.413 359.863 131.294 371.005H177.524C177.524 355.292 175.998 339.517 175.675 323.82C158.042 326.061 141.872 329.371 123.897 329.371L126.208 309.942C119.766 310.451 112.778 310.757 106.329 309.942Z" fill="#568CB4"/>
<path d="M151.635 309.011L151.173 300.221C139.615 299.142 105.008 299.952 103.159 302.913C101.31 305.873 100.54 311.169 100.847 314.562C108.244 317.522 141.927 313.945 151.635 309.011Z" fill="#4C7B9E"/>
<path fill-rule="evenodd" clip-rule="evenodd" d="M111.878 147.572C104.042 189.807 100.32 268.261 100.32 310.867H128.058C131.323 269.475 138.343 189.031 138.228 147.572C132.218 154.973 118.35 155.436 111.878 147.572Z" fill="white"/>
<path d="M70.2698 323.736V320.498C81.8273 319.418 105.405 318 107.254 320.96C109.103 323.921 109.873 329.217 109.565 332.609C102.169 335.57 79.9781 328.67 70.2698 323.736Z" fill="#4C7B9E"/>
<path d="M175.675 326.133L175.212 317.344C163.655 316.264 129.048 317.075 127.199 320.035C125.349 322.996 124.579 328.292 124.887 331.684C132.284 334.645 165.966 331.067 175.675 326.133Z" fill="#4C7B9E"/>
<path fill-rule="evenodd" clip-rule="evenodd" d="M83.2143 147.572C77.7522 151.154 75.4674 166.655 74.4306 172.552C71.8221 187.385 71.2167 202.336 70.931 217.424C70.4622 242.112 66.5808 269.024 66.5716 293.751C66.5688 301.233 66.5715 320.582 66.5715 320.582C79.0536 326.596 92.9227 331.684 108.179 330.296C108.041 313.64 104.904 297.037 104.494 280.336C103.925 257.096 109.087 210.944 109.103 187.818C109.185 183.738 113.232 161.363 112.802 157.286L111.877 135.545C104.48 138.783 88.5285 144.436 83.2143 147.572Z" fill="#5DA4D8"/>
<path fill-rule="evenodd" clip-rule="evenodd" d="M128.982 157.286C128.982 189.365 128.96 251.098 127.559 283.111C126.881 298.585 123.897 313.863 123.897 329.371C141.856 329.371 161.336 327.134 178.911 323.82C178.911 323.82 178.199 302.9 176.756 287.738C175.6 275.583 174.138 262.932 173.839 250.73C173.678 244.154 173.839 238.703 173.839 229.451C173.839 220.199 176.756 171.627 176.756 171.627C181.537 160.525 171.976 154.048 171.976 142.946C170.283 142.309 142.851 132.306 136.379 136.47C134.53 143.871 134.53 142.946 132.218 149.422C129.907 154.28 129.907 154.511 128.982 157.286Z" fill="#5DA4D8"/>
<path d="M114.189 156.361L112.802 158.674C112.802 158.674 94.6498 161.435 94.7719 160.987C94.9975 160.159 96.1588 158.212 96.1588 158.212C101.086 155.33 114.189 156.361 114.189 156.361Z" fill="#4C7B9E"/>
<path d="M128.982 157.749L128.52 155.436C128.52 155.436 147.474 155.899 150.71 162.375C150.917 162.789 128.982 157.749 128.982 157.749Z" fill="#4C7B9E"/>
<path d="M149.323 147.109C148.861 144.334 144.238 157.231 150.71 162.375C150.71 155.436 149.399 147.566 149.323 147.109Z" fill="#4C7B9E"/>
<path fill-rule="evenodd" clip-rule="evenodd" d="M138.691 129.068C137.876 133.393 128.52 155.436 128.52 155.436C128.52 155.436 146.168 158.587 149.786 160.921C149.437 152.793 149.786 140.17 146.087 132.306C143.314 131.381 141.223 129.772 138.691 129.068ZM94.7719 159.599C94.7719 159.599 107.716 157.286 114.189 156.361C114.139 150.276 111.877 135.545 110.952 129.531C106.792 132.306 104.942 133.232 102.169 135.082C99.8572 139.708 97.8748 147.18 94.7719 159.599Z" fill="#568CB4"/>
<path fill-rule="evenodd" clip-rule="evenodd" d="M214.046 241.016C222.651 232.899 214.335 203.071 210.415 194.294C203.226 178.194 195.572 150.479 176.599 144.058C161.481 138.942 162.73 164.225 168.278 175.328C173.825 189.205 173.825 201.233 176.599 212.798C177.821 217.89 178.401 231.636 181.685 236.852C181.685 236.852 188.157 237.546 195.091 238.24C199.714 238.703 208.498 240.553 214.046 241.016Z" fill="#568CB4"/>
<path d="M177.524 228.988L180.76 237.315C182.147 239.628 213.583 241.016 214.97 241.016C216.08 241.016 218.052 232.689 218.669 230.376C217.189 231.116 189.544 231.301 177.524 228.988Z" fill="#5DA4D8"/>
<path d="M102.169 216.498C103.445 216.498 104.48 215.463 104.48 214.185C104.48 212.908 103.445 211.872 102.169 211.872C100.892 211.872 99.8572 212.908 99.8572 214.185C99.8572 215.463 100.892 216.498 102.169 216.498Z" fill="white"/>
<path d="M101.244 319.194C102.521 319.194 103.556 318.159 103.556 316.881C103.556 315.604 102.521 314.568 101.244 314.568C99.9674 314.568 98.9325 315.604 98.9325 316.881C98.9325 318.159 99.9674 319.194 101.244 319.194Z" fill="white"/>
<path d="M100.319 293.289C101.596 293.289 102.631 292.253 102.631 290.976C102.631 289.699 101.596 288.663 100.319 288.663C99.0428 288.663 98.0079 289.699 98.0079 290.976C98.0079 292.253 99.0428 293.289 100.319 293.289Z" fill="white"/>
<path d="M100.319 265.533C101.596 265.533 102.631 264.498 102.631 263.22C102.631 261.943 101.596 260.907 100.319 260.907C99.0428 260.907 98.0079 261.943 98.0079 263.22C98.0079 264.498 99.0428 265.533 100.319 265.533Z" fill="white"/>
<path d="M101.244 239.628C102.521 239.628 103.556 238.593 103.556 237.315C103.556 236.038 102.521 235.002 101.244 235.002C99.9674 235.002 98.9325 236.038 98.9325 237.315C98.9325 238.593 99.9674 239.628 101.244 239.628Z" fill="white"/>
<path d="M103.093 193.369C104.37 193.369 105.405 192.333 105.405 191.056C105.405 189.778 104.37 188.743 103.093 188.743C101.817 188.743 100.782 189.778 100.782 191.056C100.782 192.333 101.817 193.369 103.093 193.369Z" fill="white"/>
<path d="M106.792 169.314C108.068 169.314 109.103 168.278 109.103 167.001C109.103 165.723 108.068 164.688 106.792 164.688C105.515 164.688 104.48 165.723 104.48 167.001C104.48 168.278 105.515 169.314 106.792 169.314Z" fill="white"/>
</g>
<defs>
<clipPath id="clip0">
<rect width="233" height="371" fill="white"/>
</clipPath>
</defs>
</svg>
