<svg width="340" height="75" viewBox="0 0 340 75" fill="none" xmlns="http://www.w3.org/2000/svg">
<path d="M29.6417 55.9367C-49.1306 71.6912 46.0527 78.0916 118.261 65.7832C127.286 75.6298 160.929 65.7832 160.929 60.0396C168.806 81.0456 210.709 72.6212 230.676 65.7832C358.68 91.2204 367.706 55.9367 288.934 55.9367C279.744 16.5503 248.454 24.756 233.958 33.7822C213.608 16.0586 192.657 23.6621 184.725 29.6793C172.253 4.07815 152.724 15.183 144.518 23.9356C109.071 -22.015 89.2682 8.61866 83.7979 29.6793C63.4484 18.5199 53.4377 32.1409 50.9761 40.3463C39.8167 27.874 26.3596 45.2698 29.6417 55.9367Z" fill="white"/>
<path d="M105.952 48.5519C58.361 30.5 72.3104 78.0916 119.081 64.9628C134.409 76.7786 153.366 66.6039 160.928 60.0396C172.744 81.702 212.349 72.3478 230.675 64.9628C242.491 71.5271 288.66 74.2624 310.268 74.8094C329.961 68.9015 296.045 60.3131 276.625 56.7575C271.374 29.1871 242.163 40.8936 228.213 50.1931C183.576 23.9356 160.381 35.9703 154.364 45.2697C119.573 19.6687 107.593 36.7908 105.952 48.5519Z" fill="#F0FAF9"/>
</svg>
