<svg width="1089" height="241" viewBox="0 0 1089 241" fill="none" xmlns="http://www.w3.org/2000/svg">
<path d="M644.449 167.612C627.252 150.483 621.61 164.757 620.938 174.035C572.572 156.907 588.694 235.411 627.656 215.428C646.464 218.853 663.258 209.718 669.304 204.723C667.154 223.564 705.13 223.04 724.387 220.424C730.299 237.552 770.738 224.23 790.218 215.428C795.592 235.982 834.106 227.322 852.691 220.424C877.949 241.548 907.103 223.04 918.522 211.146C929.808 245.973 937.555 231.842 940.018 220.424C950.229 220.994 951.438 210.194 950.766 204.723C959.364 223.564 991.071 216.855 1005.85 211.146C1019.82 227.132 1057.35 213.525 1074.37 204.723C1107.15 184.169 1077.28 180.458 1058.25 181.171C1053.41 147.486 1027.12 150.959 1014.58 156.907C1005.45 122.079 968.232 133.831 940.018 144.06C940.018 75 902.176 71.9794 883.591 79.1162C878.755 19.7386 833.21 55.5649 833.21 84.1119C803.653 61.2744 797.16 86.4908 797.608 101.954C773.962 93.9605 778.351 121.461 783.501 136.21C759.855 111.089 752.601 130.976 751.929 144.06C729.358 130.929 719.237 154.29 716.998 167.612C696.039 100.812 659.899 139.778 644.449 167.612Z" fill="white"/>
<path d="M726.403 186.167C698.189 134.783 674.678 179.03 690.128 196.159C643.777 203.295 679.38 230.415 726.403 221.137C740.912 241.12 783.501 226.847 791.562 211.859C791.562 236.41 831.867 228.274 852.02 221.137C881.039 241.12 908.894 220.899 919.194 208.291C927.793 247.686 936.66 233.27 940.019 221.137C951.304 222.85 951.886 209.956 950.767 203.295C959.902 223.849 991.295 217.569 1005.85 211.859C1025.2 224.42 1051.08 214.714 1061.6 208.291C1063.22 162.616 1025.11 159.286 1005.85 163.33C1009.07 127.931 958.189 145.726 925.721 163.33C910.924 77.5 879.785 99.5748 862.096 126.932C821.791 90.9632 820.224 127.646 824.478 150.484C790.085 125.362 785.069 154.29 786.86 171.894C753.541 148.485 732.672 171.656 726.403 186.167Z" fill="#F0FAF9"/>
<path d="M788.874 180.458C768.453 161.046 751.257 177.127 745.211 187.594C716.729 196.158 719.461 213.049 724.387 220.423C750.719 242.69 780.59 223.992 792.233 211.859C790.084 236.981 831.642 228.036 852.69 220.423C874.724 239.264 902.176 224.468 913.148 214.714C944.854 185.596 926.359 187.832 913.148 192.59C909.923 150.912 885.382 169.515 873.515 184.026C863.841 156.621 837.24 170.228 825.149 180.458C807.012 125.505 788.874 156.193 788.874 180.458Z" fill="white"/>
<path d="M22.4859 187.321C-14.6626 190.973 2.45484 199.277 15.6571 202.972C10.1941 215.492 42.517 219.492 59.3613 219.927C59.3613 238.707 94.871 235.577 112.626 231.665C127.922 248.88 149.956 231.012 159.061 219.927C165.617 227.752 173.174 216.666 176.133 210.145C183.645 225.143 208.912 222.97 228.715 219.927C236.363 217.318 243.738 206.232 246.47 201.015C262.859 216.666 317.034 207.536 342.073 201.015C351.906 228.665 384.411 215.579 399.434 205.58C413.092 212.884 437.903 199.059 448.602 191.234C484.111 225.665 538.059 209.058 560.594 196.451C568.242 175.061 542.839 170.583 529.181 171.018C530.82 155.368 511.654 154.498 501.866 156.02C533.005 117.415 497.996 91.678 476.6 83.6354C442.456 20.3805 391.923 92.5141 438.358 112.98C424.155 106.72 417.417 119.067 415.823 126.023C407.083 112.459 389.874 116.893 382.362 120.806C393.835 92.6345 377.582 75.5926 368.022 70.5931C369.115 -1.92165 342.983 5.16463 329.781 17.7721C318.309 4.20819 294.044 12.1205 283.345 17.7721C203.585 -32.8317 181.596 37.3354 204.814 70.5931C173.129 76.8534 188.425 110.155 200.034 126.023C176.543 117.676 171.126 142.543 171.353 156.02C149.501 109.068 122.186 142.325 134.478 171.018H122.186C127.649 157.976 118.089 152.542 112.626 151.455C112.626 83.6354 52.5326 126.023 59.3613 166.454C38.0556 159.15 40.4684 171.671 44.338 178.844C29.0416 172.062 23.3964 181.67 22.4859 187.321Z" fill="white"/>
<path d="M109.894 177.539C60.727 158.758 71.1978 188.408 82.5791 205.58C60.7269 188.625 60.7271 217.318 58.6785 219.274C60.3174 239.099 95.7815 235.36 113.309 231.012C124.781 251.88 148.591 231.882 159.061 219.274C168.895 226.578 174.54 216.231 176.133 210.145C180.231 243.402 249.884 223.839 247.153 201.015C259.718 219.796 316.123 208.841 342.756 201.015C350.404 228.143 384.183 214.927 400.117 204.928C413.775 212.753 438.586 199.494 449.284 191.886C463.397 205.58 501.593 227.361 541.473 204.928C581.353 182.495 524.856 174.713 491.623 173.627C513.475 77.7663 449.284 115.589 437.676 156.672C425.111 120.675 397.841 139.065 385.777 152.759C392.879 123.544 373.257 115.806 362.559 115.589C371.3 48.8126 341.162 72.1147 325.001 92.1128C297.003 12.5552 253.299 58.2029 267.639 92.1128C229.944 100.981 242.373 131.022 253.299 144.934C219.974 124.588 210.277 144.282 209.594 156.672C192.659 132.152 185.694 155.585 184.328 170.366C169.031 152.629 157.468 166.019 153.598 174.931C129.561 153.02 126.739 165.801 128.332 174.931C117.952 155.628 111.715 168.627 109.894 177.539Z" fill="#F0FAF9"/>
<path d="M269.005 171.018C247.153 148.064 228.943 167.54 222.569 180.148C197.439 171.279 191.157 183.843 191.157 191.234C172.582 177.67 172.947 196.885 175.45 208.188C183.973 246.663 247.153 222.535 247.153 200.363C261.356 219.144 317.717 208.188 344.121 200.363C350.131 226.448 378.948 216.448 392.606 208.188C396.976 195.668 386.687 191.668 380.997 191.234C389.737 173.496 363.242 164.28 348.901 161.889C344.121 105.155 307.929 133.196 307.929 157.324C290.993 146.368 274.923 161.889 269.005 171.018Z" fill="white"/>
</svg>
