<svg width="195" height="70" viewBox="0 0 195 70" fill="none" xmlns="http://www.w3.org/2000/svg">
<path d="M159.044 35.2092C139.11 -25.4242 116.822 5.79232 108.17 28.9797C87.4053 19.8432 75.2926 36.2475 71.8318 45.5917C61.0341 29.8104 47.2601 39.7083 41.7228 46.6299C24.2803 31.1068 19.2275 45.0071 18.8814 53.8976C-22.6492 66.3565 14.7275 72.586 32.3785 62.2036C37.3621 74.6625 62.1415 67.3948 73.9082 62.2036C84.7059 76.3237 113.015 68.0869 125.82 62.2036C139.94 70.5095 164.235 62.2036 174.618 57.0123C216.148 57.0123 181.886 28.9797 159.044 35.2092Z" fill="white"/>
<path d="M153.852 43.5153C143.885 3.64679 134.471 23.4426 131.011 38.3241C106.923 26.6959 91.9035 39.0162 87.4045 46.6299C78.7524 46.976 63.9402 50.5753 73.9073 62.2036C83.8744 73.8319 112.668 67.0487 125.819 62.2036C137.448 68.8483 158.351 62.8957 167.349 59.0888C186.453 49.9523 166.311 44.8996 153.852 43.5153Z" fill="#F0FAF9"/>
</svg>
