<svg width="180" height="58" viewBox="0 0 180 58" fill="none" xmlns="http://www.w3.org/2000/svg">
<path d="M99.5066 15.2289C78.0932 -16.1266 62.7979 8.34591 66.6217 22.8765C57.4446 17.9821 54.6402 24.9159 54.3852 28.9946C44.5961 17.982 36.5407 28.4847 33.7367 35.1127C-28.974 39.7013 8.49947 58.8205 43.6787 48.8785C65.0921 62.3384 87.2703 54.4868 95.6828 48.8785C106.695 62.3384 130.352 56.5262 140.804 51.9376C209.633 54.9966 172.159 15.2289 146.157 35.1127C140.039 25.3237 131.372 28.9946 127.803 32.0537C124.744 12.4756 107.664 12.6796 99.5066 15.2289Z" fill="white"/>
<path d="M95.6825 48.1137C24.5597 56.5262 55.1502 32.0537 69.6805 35.8775C69.6805 27.312 78.8576 27.72 83.4462 28.9946C110.366 -0.9842 124.234 18.5428 127.803 32.0537C136.368 25.3238 143.608 30.7791 146.157 34.3479C191.279 17.5232 192.808 61.1148 140.804 51.9376C112.048 63.562 98.7416 54.2319 95.6825 48.1137Z" fill="#F0FAF9"/>
</svg>
