<svg width="87" height="88" viewBox="0 0 87 88" fill="none" xmlns="http://www.w3.org/2000/svg">
<path d="M79.5423 63.3898C77.8013 63.397 76.1185 64.0181 74.7903 65.1439C73.9323 60.9982 71.1689 57.5002 67.3344 55.7059C63.4999 53.9117 59.0436 54.0315 55.311 56.0291C53.9926 50.7143 49.2216 46.9822 43.7457 46.9822C38.2698 46.9822 33.4988 50.7143 32.1804 56.0291C28.4478 54.0315 23.9916 53.9117 20.1571 55.7059C16.3226 57.5002 13.5591 60.9982 12.7011 65.1439C9.70117 62.6173 5.25686 62.8462 2.53239 65.6676C-0.192085 68.4891 -0.265547 72.9387 2.36431 75.8485C4.99416 78.7583 9.42849 79.1338 12.5102 76.7077C13.1231 81.986 17.1557 86.2212 22.3977 87.0919C27.6396 87.9626 32.8249 85.2585 35.1113 80.4618C36.7618 83.7135 40.0991 85.7623 43.7457 85.7623C47.3923 85.7623 50.7297 83.7135 52.3802 80.4618C54.6666 85.2585 59.8519 87.9626 65.0938 87.0919C70.3357 86.2212 74.3684 81.986 74.9813 76.7077C77.5511 78.7086 81.1234 78.8067 83.7991 76.9497C86.4748 75.0927 87.6327 71.7119 86.6572 68.6044C85.6817 65.4969 82.7993 63.3844 79.5423 63.3898Z" fill="#61391C"/>
<path d="M72.6943 23.7287C66.6 29.8231 57.6881 31.4846 52.9003 31.9321C52.0313 32.032 51.1642 31.7297 50.5457 31.1112C49.9272 30.4927 49.6249 29.6256 49.7248 28.7566C50.1723 23.9688 51.8339 15.0584 57.9282 8.96406C64.0226 2.86969 72.933 1.20813 77.7208 0.760673C78.5898 0.660738 79.4568 0.963021 80.0754 1.58154C80.6939 2.20007 80.9962 3.06714 80.8962 3.93613C80.4503 8.72244 78.7962 17.6343 72.6943 23.7287Z" fill="#BCE64E"/>
<path d="M26.7416 13.722C33.1865 19.445 35.3731 28.242 36.1054 32.994C36.2564 33.8559 36.0058 34.7395 35.4248 35.3937C34.8438 36.0479 33.996 36.4011 33.1224 36.353C28.3167 36.1889 19.3228 35.0598 12.8764 29.3428C6.43001 23.6258 4.24344 14.8243 3.5111 10.0723C3.35964 9.2105 3.60983 8.32671 4.19055 7.67221C4.77126 7.01771 5.61898 6.66408 6.49266 6.71187C11.2984 6.87743 20.2923 8.00651 26.7416 13.722Z" fill="#BCE64E"/>
<path d="M43.7453 57.4237H43.6827C42.8835 57.3901 42.2531 56.7321 42.2538 55.9322C42.2538 48.849 37.9284 40.2906 33.7417 36.1054C29.3402 31.7054 11.594 15.4328 11.415 15.2688C10.8079 14.7119 10.7672 13.7683 11.324 13.1612C11.8809 12.5541 12.8245 12.5134 13.4316 13.0702C14.1639 13.7399 31.4044 29.5501 35.8507 33.9963C39.2962 37.6868 41.9203 42.0657 43.5499 46.8443C44.6716 41.0617 46.6627 33.8681 50.0381 29.6441C56.2996 21.8702 63.3782 14.7915 71.1521 8.53004C71.5683 8.197 72.1305 8.11128 72.627 8.30517C73.1235 8.49906 73.4789 8.94311 73.5592 9.47005C73.6396 9.99699 73.4327 10.5268 73.0165 10.8598C65.4137 16.983 58.491 23.9057 52.3678 31.5085C46.7567 38.5186 45.2458 55.8815 45.2324 56.056C45.168 56.8293 44.5213 57.4241 43.7453 57.4237Z" fill="#A5CC2A"/>
<path d="M46.7289 58.9152C46.3333 58.9152 45.954 58.758 45.6743 58.4782C45.1531 57.9396 44.4806 57.5719 43.7458 57.4237C43.0069 57.5715 42.3305 57.9409 41.8068 58.4827C41.2204 59.0468 40.29 59.0368 39.7159 58.4602C39.1417 57.8836 39.1357 56.9532 39.7023 56.3692C40.7822 55.272 42.2135 54.5893 43.7458 54.4407C45.276 54.5907 46.705 55.2732 47.7834 56.3692C48.2098 56.7958 48.3373 57.4372 48.1065 57.9945C47.8757 58.5517 47.332 58.9151 46.7289 58.9152Z" fill="#371B06"/>
<path d="M24.3564 70.8475C21.8852 70.8475 19.8818 68.8441 19.8818 66.3729C19.8818 65.5491 20.5496 64.8813 21.3734 64.8813C22.1971 64.8813 22.8649 65.5491 22.8649 66.3729C22.8649 67.1966 23.5327 67.8644 24.3564 67.8644C25.1802 67.8644 25.8479 67.1966 25.8479 66.3729C25.8479 65.5491 26.5157 64.8813 27.3395 64.8813C28.1632 64.8813 28.831 65.5491 28.831 66.3729C28.831 68.8441 26.8277 70.8475 24.3564 70.8475Z" fill="#371B06"/>
<path d="M40.7627 76.8136C38.2914 76.8136 36.2881 74.8102 36.2881 72.339C36.2881 71.5152 36.9559 70.8475 37.7796 70.8475C38.6034 70.8475 39.2711 71.5152 39.2711 72.339C39.2711 73.1627 39.9389 73.8305 40.7627 73.8305C41.5864 73.8305 42.2542 73.1627 42.2542 72.339C42.2542 71.5152 42.922 70.8475 43.7457 70.8475C44.5695 70.8475 45.2372 71.5152 45.2372 72.339C45.2372 74.8102 43.2339 76.8136 40.7627 76.8136Z" fill="#371B06"/>
<path d="M60.1523 67.8644C57.6811 67.8644 55.6777 65.8611 55.6777 63.3898C55.6777 62.5661 56.3455 61.8983 57.1693 61.8983C57.993 61.8983 58.6608 62.5661 58.6608 63.3898C58.6608 64.2136 59.3286 64.8814 60.1523 64.8814C60.9761 64.8814 61.6438 64.2136 61.6438 63.3898C61.6438 62.5661 62.3116 61.8983 63.1354 61.8983C63.9591 61.8983 64.6269 62.5661 64.6269 63.3898C64.6269 65.8611 62.6235 67.8644 60.1523 67.8644Z" fill="#371B06"/>
<path d="M61.6439 78.3051C62.4676 78.3051 63.1354 77.6373 63.1354 76.8135C63.1354 75.9898 62.4676 75.322 61.6439 75.322C60.8201 75.322 60.1523 75.9898 60.1523 76.8135C60.1523 77.6373 60.8201 78.3051 61.6439 78.3051Z" fill="#371B06"/>
<path d="M70.5931 70.8475C71.4168 70.8475 72.0846 70.1797 72.0846 69.3559C72.0846 68.5322 71.4168 67.8644 70.5931 67.8644C69.7693 67.8644 69.1016 68.5322 69.1016 69.3559C69.1016 70.1797 69.7693 70.8475 70.5931 70.8475Z" fill="#371B06"/>
<path d="M85.5091 60.4068C86.3329 60.4068 87.0006 59.739 87.0006 58.9152C87.0006 58.0915 86.3329 57.4237 85.5091 57.4237C84.6854 57.4237 84.0176 58.0915 84.0176 58.9152C84.0176 59.739 84.6854 60.4068 85.5091 60.4068Z" fill="#61391C"/>
<path d="M48.221 66.3729C49.0448 66.3729 49.7125 65.7051 49.7125 64.8814C49.7125 64.0576 49.0448 63.3898 48.221 63.3898C47.3973 63.3898 46.7295 64.0576 46.7295 64.8814C46.7295 65.7051 47.3973 66.3729 48.221 66.3729Z" fill="#371B06"/>
<path d="M10.932 55.9322C11.7557 55.9322 12.4235 55.2644 12.4235 54.4407C12.4235 53.6169 11.7557 52.9491 10.932 52.9491C10.1082 52.9491 9.44043 53.6169 9.44043 54.4407C9.44043 55.2644 10.1082 55.9322 10.932 55.9322Z" fill="#61391C"/>
<path d="M78.0511 57.4237C78.8748 57.4237 79.5426 56.7559 79.5426 55.9322C79.5426 55.1085 78.8748 54.4407 78.0511 54.4407C77.2273 54.4407 76.5596 55.1085 76.5596 55.9322C76.5596 56.7559 77.2273 57.4237 78.0511 57.4237Z" fill="#61391C"/>
<path d="M25.847 79.7966C26.6707 79.7966 27.3385 79.1288 27.3385 78.3051C27.3385 77.4813 26.6707 76.8136 25.847 76.8136C25.0232 76.8136 24.3555 77.4813 24.3555 78.3051C24.3555 79.1288 25.0232 79.7966 25.847 79.7966Z" fill="#371B06"/>
<path d="M16.8988 49.9661C17.7225 49.9661 18.3903 49.2983 18.3903 48.4746C18.3903 47.6508 17.7225 46.983 16.8988 46.983C16.075 46.983 15.4072 47.6508 15.4072 48.4746C15.4072 49.2983 16.075 49.9661 16.8988 49.9661Z" fill="#61391C"/>
</svg>
