<svg width="90" height="90" viewBox="0 0 90 90" fill="none" xmlns="http://www.w3.org/2000/svg">
<path d="M49.9212 61.8167C49.7156 61.817 49.5133 61.7659 49.3326 61.668C49.1519 61.57 48.9986 61.4284 48.8867 61.2559C48.7748 61.0835 48.7079 60.8858 48.6921 60.6809C48.6763 60.4759 48.7121 60.2703 48.7962 60.0828C48.8349 59.997 52.6367 51.4392 52.5171 45.552C52.4168 43.4895 52.185 41.4354 51.8231 39.4024C51.0497 34.3863 50.2559 29.2008 52.7168 25.4299C52.7465 25.3849 52.7789 25.3417 52.8138 25.3006L57.3349 20.0271C57.4402 19.9045 57.5686 19.8038 57.7128 19.7308C57.8569 19.6578 58.0141 19.6139 58.1752 19.6016C58.3364 19.5894 58.4983 19.6089 58.6519 19.6593C58.8055 19.7096 58.9476 19.7897 59.0702 19.8949C59.1929 20.0002 59.2936 20.1286 59.3666 20.2728C59.4396 20.4169 59.4835 20.5741 59.4957 20.7352C59.508 20.8964 59.4884 21.0583 59.4381 21.2119C59.3878 21.3655 59.3077 21.5076 59.2024 21.6303L54.7369 26.8376C52.842 29.8238 53.5606 34.5017 54.2559 39.027C54.6356 41.1679 54.8787 43.3309 54.9837 45.5028C55.1145 51.9448 51.2135 60.7191 51.0462 61.0896C50.9489 61.3065 50.7908 61.4905 50.5912 61.6195C50.3916 61.7485 50.1589 61.817 49.9212 61.8167Z" fill="#A5CC2A"/>
<path d="M53.3709 42.3605C44.9552 43.5832 40.8306 40.2293 39.6895 34.9285C47.9202 30.7829 52.8611 38.8442 53.3709 42.3605Z" fill="#BAE543"/>
<path d="M44.2265 78.3451C38.0805 82.3529 29.8398 81.3685 25.4249 80.4101C24.5532 80.2191 23.7917 79.6927 23.3049 78.9447C22.8181 78.1968 22.6451 77.2873 22.8233 76.4129C23.729 71.9832 26.1569 64.0505 32.3029 60.0448C38.4489 56.0391 46.6874 57.0235 51.1016 57.9804C51.9733 58.1717 52.7347 58.6981 53.2214 59.446C53.7082 60.1939 53.8812 61.1033 53.7032 61.9777C52.8046 66.4039 50.3732 74.3394 44.2265 78.3451Z" fill="#D78759"/>
<path d="M53.7754 67.1836C52.0457 72.3094 48.966 78.3 43.559 81.8227C35.9582 86.7727 25.7769 85.5633 20.3136 84.375C19.2358 84.1382 18.2942 83.4873 17.6918 82.5626C17.0894 81.638 16.8745 80.5137 17.0933 79.4321C18.2183 73.9618 21.2136 64.1532 28.8144 59.2032C33.8488 55.9266 40.0222 55.35 45.1972 55.6805C44.5872 57.5123 44.0871 59.3789 43.6996 61.2704C43.4779 62.3523 43.6917 63.4779 44.2945 64.4033C44.8973 65.3286 45.8407 65.979 46.9199 66.2133C49.1784 66.7029 51.4697 67.0272 53.7754 67.1836Z" fill="#F4A86C"/>
<path d="M29.6914 82.4414C29.3651 82.4414 29.0521 82.3118 28.8213 82.081C28.5906 81.8503 28.4609 81.5373 28.4609 81.211C28.4609 80.8846 28.5906 80.5717 28.8213 80.3409C29.0521 80.1101 29.3651 79.9805 29.6914 79.9805C31.5191 79.9939 33.3431 79.8139 35.1329 79.4433C35.4519 79.3745 35.7853 79.4353 36.0596 79.6122C36.3338 79.7892 36.5266 80.0678 36.5954 80.3869C36.6642 80.706 36.6034 81.0393 36.4265 81.3136C36.2495 81.5879 35.9709 81.7806 35.6518 81.8494C33.6915 82.2565 31.6935 82.455 29.6914 82.4414Z" fill="#D78759"/>
<path d="M53.751 26.1021C54.8254 10.6172 62.405 4.55417 72.3043 4.57034C76.516 20.8582 60.2218 26.5535 53.751 26.1021Z" fill="#BAE543"/>
</svg>
