<svg width="159" height="54" viewBox="0 0 159 54" fill="none" xmlns="http://www.w3.org/2000/svg">
<path d="M158.043 51.3516C158.043 52.8137 122.775 54 79.2683 54C35.7616 54 0.492188 52.8137 0.492188 51.3516C0.492188 49.8881 35.7616 48.7018 79.2683 48.7018C122.775 48.7018 158.043 49.8881 158.043 51.3516Z" fill="black" fill-opacity="0.3"/>
<path d="M157.365 42.9156C156.86 42.7504 156.931 41.2989 156.972 39.0636C158.523 39.6807 157.032 32.0206 155.662 28.7897C153.237 23.077 149.949 15.9794 111.867 14.7678C98.0197 6.6332 81.7492 -1.67599 63.7473 1.61357C45.7454 4.90179 23.2423 13.3829 15.4529 16.3259C7.66353 19.2689 5.41362 17.5375 3.85548 24.6351C2.29734 31.7314 -1.16416 35.021 0.393983 39.3475C1.95079 43.6754 8.01009 45.0603 17.8761 45.9253C27.7421 46.7917 95.5966 46.2718 112.733 45.752C129.87 45.2335 165.846 45.6854 157.365 42.9156Z" fill="#E05A01"/>
<path d="M28.2619 24.4621C36.3885 24.4621 42.9756 31.0492 42.9756 39.1745C42.9756 39.6343 43.0662 42.7159 43.1635 46.3813C30.9596 46.3494 21.1749 46.2147 17.8761 45.9255C16.3126 45.7882 14.8464 45.6389 13.4775 45.4657C13.5082 42.3267 13.5482 39.7583 13.5482 39.1745C13.5482 31.0492 20.1366 24.4621 28.2619 24.4621" fill="#191919"/>
<path d="M122.427 24.462C130.554 24.462 137.141 31.0491 137.141 39.1744C137.141 39.5822 137.173 42.3586 137.255 45.4642C129.454 45.6988 120.556 45.5162 112.734 45.7521C111.348 45.7948 109.63 45.8361 107.639 45.8774C107.669 42.5532 107.715 39.7835 107.715 39.1744C107.715 31.0491 114.302 24.462 122.427 24.462" fill="#191919"/>
<path d="M110.029 39.413C110.029 46.344 115.649 51.9634 122.58 51.9634C129.512 51.9634 135.132 46.344 135.132 39.413C135.132 32.4806 129.512 26.8612 122.58 26.8612C115.649 26.8612 110.029 32.4806 110.029 39.413Z" fill="#070000"/>
<path d="M117.135 43.0361C119.739 45.6405 119.388 41.0674 121.992 38.463C124.596 35.8585 129.17 36.2104 126.565 33.6059C123.961 31.0015 119.739 31.0015 117.135 33.6059C114.531 36.2104 114.531 40.4316 117.135 43.0361Z" fill="#E05A01"/>
<path d="M115.565 44.1246L118.951 41.6694L120.48 41.4268L120.236 42.9557L117.77 46.3572C116.903 45.756 116.153 45.0003 115.565 44.1246V44.1246ZM119.545 47.2929C119.357 47.2196 119.173 47.1409 118.993 47.0556L119.749 46.0133L119.545 47.2929ZM122.58 47.8633C122.004 47.8633 121.442 47.8047 120.899 47.6954L121.566 43.5075L122.475 42.2532L123.385 43.5075L124.057 47.7261C123.577 47.8114 123.085 47.8633 122.58 47.8633ZM126.012 47.1303C125.819 47.2169 125.619 47.2929 125.418 47.3648L125.202 46.0133L126.012 47.1303ZM127.251 46.4531L124.715 42.9557L124.472 41.4268L126.002 41.6708L129.523 44.2246C128.913 45.1029 128.142 45.8613 127.251 46.4531ZM129.542 34.6238L126.002 37.1909L124.472 37.4349L124.715 35.9047L127.269 32.3819C128.162 32.979 128.933 33.7401 129.542 34.6238V34.6238ZM125.423 31.4609C125.63 31.5355 125.834 31.6142 126.032 31.7035L125.202 32.8484L125.423 31.4609ZM122.58 30.961C123.087 30.961 123.581 31.013 124.062 31.0983L123.385 35.3542L122.475 36.6085L121.566 35.3542L120.893 31.1303C121.438 31.0197 122.003 30.961 122.58 30.961V30.961ZM118.973 31.7781C119.159 31.6901 119.347 31.6088 119.54 31.5342L119.749 32.8484L118.973 31.7781ZM117.752 32.4805L120.236 35.9047L120.48 37.4349L118.949 37.1909L115.549 34.7251C116.137 33.8454 116.886 33.0857 117.752 32.4805ZM114.871 35.962L115.893 36.7044L114.652 36.5058C114.72 36.3219 114.791 36.1406 114.871 35.962V35.962ZM130.496 36.4752L129.058 36.7031L130.236 35.85C130.331 36.054 130.418 36.2619 130.496 36.4752ZM126.552 40.3392L125.298 39.4302L126.552 38.5211L130.879 37.8321C130.976 38.3439 131.032 38.8717 131.032 39.4129C131.032 39.966 130.975 40.5045 130.873 41.0283L126.552 40.3392ZM130.223 43.0023L129.058 42.1573L130.484 42.3838C130.404 42.5944 130.318 42.7997 130.223 43.0023V43.0023ZM114.283 40.9963C114.186 40.4818 114.13 39.954 114.13 39.4129C114.13 38.8824 114.184 38.3665 114.276 37.864L118.399 38.5211L119.653 39.4302L118.399 40.3392L114.283 40.9963ZM114.665 42.3532L115.893 42.1573L114.884 42.889C114.804 42.7131 114.733 42.5345 114.665 42.3532ZM112.885 39.4129C112.885 44.7671 117.226 49.1069 122.58 49.1069C127.934 49.1069 132.276 44.7671 132.276 39.4129C132.276 34.0573 127.934 29.7175 122.58 29.7175C117.226 29.7175 112.885 34.0573 112.885 39.4129Z" fill="#757575"/>
<path d="M124.214 35.2318L124.601 32.802L125.658 33.2392L124.214 35.2318ZM120.736 35.2318L119.29 33.2392L120.348 32.8007L120.736 35.2318ZM118.276 37.691L115.846 37.3045L116.283 36.2462L118.276 37.691ZM126.673 37.6923L128.667 36.2462L129.105 37.3045L126.673 37.6923ZM128.667 42.6147L126.674 41.1698L129.104 41.5577L128.667 42.6147ZM116.283 42.616L115.846 41.5577L118.277 41.1698L116.283 42.616ZM121.065 42.8346L121.442 40.4621L119.073 40.8406L121.016 39.4304L119.071 38.0216L121.442 38.3988L121.065 36.0276L122.475 37.9709L123.884 36.0276L123.506 38.3988L125.88 38.0202L123.934 39.4304L125.878 40.8406L123.506 40.4621L123.884 42.8346L122.475 40.8899L121.065 42.8346ZM124.6 46.0615L124.214 43.629L125.66 45.623L124.6 46.0615ZM120.348 46.0615L119.29 45.623L120.736 43.6303L120.348 46.0615Z" fill="#999999"/>
<path d="M122.58 28.6419C116.133 28.6419 110.883 33.7002 110.543 40.062C110.531 39.8461 110.51 39.6315 110.51 39.4129C110.51 32.7458 115.915 27.341 122.58 27.341C129.247 27.341 134.651 32.7458 134.651 39.4129C134.651 39.6315 134.63 39.8461 134.619 40.062C134.279 33.7002 129.028 28.6419 122.58 28.6419Z" fill="#262626"/>
<path d="M122.58 49.1535C127.797 49.1535 132.046 45.0603 132.321 39.9127C132.33 40.0873 132.347 40.2606 132.347 40.4392C132.347 45.8333 127.974 50.2065 122.58 50.2065C117.186 50.2065 112.812 45.8333 112.812 40.4392C112.812 40.2606 112.83 40.0873 112.839 39.9127C113.114 45.0603 117.363 49.1535 122.58 49.1535" fill="#262626"/>
<path d="M15.1719 39.413C15.1719 46.344 20.7913 51.9634 27.7223 51.9634C34.6546 51.9634 40.2741 46.344 40.2741 39.413C40.2741 32.4806 34.6546 26.8612 27.7223 26.8612C20.7913 26.8612 15.1719 32.4806 15.1719 39.413Z" fill="#070000"/>
<path d="M22.2776 43.0361C24.882 45.6405 24.5301 41.0674 27.1346 38.463C29.7391 35.8585 34.3122 36.2104 31.709 33.6059C29.1046 31.0015 24.882 31.0015 22.2776 33.6059C19.6731 36.2104 19.6731 40.4316 22.2776 43.0361Z" fill="#E05A01"/>
<path d="M20.7074 44.1246L24.0929 41.6694L25.6218 41.4268L25.3778 42.9557L22.9133 46.3572C22.047 45.756 21.2966 45.0003 20.7074 44.1246V44.1246ZM24.6874 47.2929C24.4995 47.2196 24.3169 47.1409 24.1356 47.0556L24.8913 46.0133L24.6874 47.2929ZM27.7224 47.8633C27.1466 47.8633 26.5854 47.8047 26.0416 47.6954L26.7081 43.5075L27.6184 42.2532L28.5275 43.5075L29.1992 47.7261C28.7194 47.8114 28.2276 47.8633 27.7224 47.8633ZM31.1546 47.1303C30.9613 47.2169 30.7614 47.2929 30.5601 47.3648L30.3442 46.0133L31.1546 47.1303ZM32.3941 46.4531L29.8577 42.9557L29.6138 41.4268L31.1439 41.6708L34.6667 44.2246C34.0563 45.1029 33.2858 45.8613 32.3941 46.4531V46.4531ZM34.6841 34.6238L31.1439 37.1909L29.6138 37.4349L29.8577 35.9047L32.4115 32.3819C33.3045 32.979 34.0749 33.7401 34.6841 34.6238V34.6238ZM30.5654 31.4609C30.772 31.5355 30.976 31.6142 31.1746 31.7035L30.3442 32.8484L30.5654 31.4609ZM27.7224 30.961C28.2302 30.961 28.7234 31.013 29.2059 31.0983L28.5275 35.3542L27.6184 36.6085L26.7094 35.3542L26.0363 31.1303C26.5814 31.0197 27.1453 30.961 27.7224 30.961V30.961ZM24.1156 31.7781C24.3009 31.6901 24.4888 31.6088 24.6821 31.5342L24.8913 32.8484L24.1156 31.7781ZM22.896 32.4805L25.3778 35.9047L25.6218 37.4349L24.0929 37.1909L20.6914 34.7251C21.2792 33.8454 22.0283 33.0857 22.896 32.4805V32.4805ZM20.013 35.962L21.0353 36.7044L19.7957 36.5058C19.8624 36.3219 19.933 36.1406 20.013 35.962V35.962ZM35.6397 36.4752L34.2015 36.7031L35.3785 35.85C35.4744 36.054 35.5597 36.2619 35.6397 36.4752ZM31.6944 40.3392L30.4401 39.4302L31.6944 38.5211L36.0209 37.8321C36.1182 38.3439 36.1742 38.8717 36.1742 39.4129C36.1742 39.966 36.1169 40.5045 36.0156 41.0283L31.6944 40.3392ZM35.3665 43.0023L34.2002 42.1573L35.6264 42.3838C35.5478 42.5944 35.4611 42.7997 35.3665 43.0023V43.0023ZM19.4252 40.9963C19.3279 40.4818 19.2719 39.954 19.2719 39.4129C19.2719 38.8824 19.3266 38.3665 19.4199 37.864L23.5411 38.5211L24.7954 39.4302L23.5425 40.3392L19.4252 40.9963ZM19.8077 42.3532L21.0353 42.1573L20.0263 42.889C19.9463 42.7131 19.8757 42.5345 19.8077 42.3532ZM18.0283 39.4129C18.0283 44.7671 22.3682 49.1069 27.7224 49.1069C33.0779 49.1069 37.4178 44.7671 37.4178 39.4129C37.4178 34.0573 33.0779 29.7175 27.7224 29.7175C22.3682 29.7175 18.0283 34.0573 18.0283 39.4129Z" fill="#757575"/>
<path d="M29.3584 35.2318L29.745 32.802L30.8033 33.2392L29.3584 35.2318ZM25.8796 35.2318L24.4334 33.2392L25.4931 32.8007L25.8796 35.2318ZM23.4191 37.691L20.9893 37.3045L21.4264 36.2462L23.4191 37.691ZM31.8176 37.6923L33.8103 36.2462L34.2488 37.3045L31.8176 37.6923ZM33.8103 42.6147L31.8176 41.1698L34.2488 41.5577L33.8103 42.6147ZM21.4264 42.616L20.9893 41.5577L23.4204 41.1698L21.4264 42.616ZM26.2088 42.8346L26.586 40.4621L24.2162 40.8406L26.1595 39.4304L24.2162 38.0216L26.586 38.3988L26.2088 36.0276L27.619 37.9709L29.0279 36.0276L28.6493 38.3988L31.0232 38.0202L29.0772 39.4304L31.0219 40.8406L28.6493 40.4621L29.0279 42.8346L27.619 40.8899L26.2088 42.8346ZM29.745 46.0615L29.3584 43.629L30.8033 45.623L29.745 46.0615ZM25.4917 46.0615L24.4334 45.623L25.8796 43.6303L25.4917 46.0615" fill="#999999"/>
<path d="M27.723 28.6419C21.2771 28.6419 16.0256 33.7002 15.6857 40.062C15.6737 39.8461 15.6523 39.6315 15.6523 39.4129C15.6523 32.7458 21.0572 27.341 27.723 27.341C34.39 27.341 39.7949 32.7458 39.7949 39.4129C39.7949 39.6315 39.7736 39.8461 39.7616 40.062C39.4217 33.7002 34.1701 28.6419 27.723 28.6419Z" fill="#262626"/>
<path d="M27.7225 49.1535C32.9394 49.1535 37.1886 45.0603 37.4645 39.9127C37.4738 40.0873 37.4912 40.2606 37.4912 40.4392C37.4898 45.8333 33.118 50.2065 27.7225 50.2065C22.3283 50.2065 17.9551 45.8333 17.9551 40.4392C17.9551 40.2606 17.9724 40.0873 17.9817 39.9127C18.2576 45.0603 22.5069 49.1535 27.7225 49.1535Z" fill="#262626"/>
<path d="M152.542 30.4828C151.442 25.4845 147.126 23.0546 139.35 23.0546C137.182 23.0546 135.04 23.2346 133.319 23.3798L132.798 23.4238L132.762 23.7624C137.148 25.1112 140.595 30.3881 140.63 30.4415L140.682 30.5228L140.779 30.5201C140.798 30.5201 142.709 30.4775 145.08 30.4775C147.269 30.4775 150.308 30.5148 152.358 30.6934L152.592 30.7134L152.542 30.4828" fill="#191919"/>
<path d="M152.373 30.52C148.391 30.1735 140.775 30.3468 140.775 30.3468C140.775 30.3468 137.314 24.9806 132.812 23.597C139.044 23.0772 150.469 21.8656 152.373 30.52Z" fill="#96BCBB"/>
<path d="M144.869 30.3038C142.637 27.9219 140.333 25.5987 138.067 23.2515C138.974 23.2248 139.901 23.2195 140.829 23.2595C143.379 25.4774 145.801 27.8393 148.085 30.3291C146.987 30.3091 145.879 30.3025 144.869 30.3038" fill="#FFF48D"/>
<path d="M142.438 23.3718C147.033 23.8316 151.278 25.543 152.372 30.52C151.521 30.4454 150.501 30.3961 149.425 30.3627C147.221 27.9102 144.894 25.571 142.438 23.3718" fill="#FFF48D"/>
<path d="M151.95 29.2685L152.002 29.2738C152.147 29.667 152.275 30.0775 152.373 30.52C148.391 30.1735 140.775 30.3468 140.775 30.3468C140.775 30.3468 137.314 24.9806 132.812 23.597C133.791 23.5144 134.898 23.4158 136.075 23.3411C140.907 26.3068 146.38 28.1782 151.95 29.2685" fill="#EDF1F4"/>
<path d="M147.209 39.0637H156.973C157.106 40.3473 157.224 41.6335 157.366 42.9157L145.516 43.4036C145.025 43.4249 144.899 42.9784 145.235 42.4079L147.209 39.0637" fill="#2B2B2B"/>
<path d="M147.39 38.1147L149.317 34.8478C149.654 34.2774 150.326 33.7975 150.818 33.7775L156.243 33.5536C156.223 35.0864 156.331 36.6033 156.485 38.1147H147.39" fill="#2B2B2B"/>
<path d="M40.8983 15.0571L37.7834 14.9052C33.2902 14.9052 55.5547 3.4024 72.9795 3.4024C83.48 3.4024 101.483 13.5563 103.213 14.5373L103.205 14.6893L40.8983 15.0571" fill="#2B2B2B"/>
<path d="M56.6654 6.99846C56.5721 6.75055 56.4761 6.50532 56.3828 6.25874C61.7783 4.69527 67.7017 3.54497 73.1412 3.54497C83.383 3.54497 100.94 13.4483 102.627 14.4053L102.619 14.5519L59.9216 14.8052C58.7647 12.2327 57.673 9.6469 56.6654 6.99846" fill="#80C2DC"/>
<path d="M54.9977 3.50789C54.899 3.67716 54.8471 3.92376 54.6645 3.98641C47.996 6.28696 35.0711 10.2576 24.8012 14.4575H20.4453C28.6625 11.4225 42.1687 6.66149 54.9977 3.50789Z" fill="#80C2DC"/>
<path d="M83.3218 2.20954C93.4544 4.51676 103.482 9.80431 111.972 14.772L108.367 14.7213C96.8585 6.20554 82.2062 3.0106 83.3218 2.20954" fill="#80C2DC"/>
<path d="M68.7674 43.9355H101.31C104.686 43.9355 104.718 39.585 104.762 33.5657C104.774 31.9822 104.786 30.3441 104.858 28.6194C105.207 20.2235 105.194 18.7107 102.693 14.5081L102.545 14.5974C105.021 18.756 105.033 20.2595 104.685 28.6127C104.613 30.3401 104.601 31.9796 104.589 33.5644C104.546 39.485 104.514 43.7623 101.31 43.7623H68.7674C65.106 43.7623 61.6965 40.9379 58.6335 35.3678C55.9744 30.5321 54.4509 25.1565 54.0484 23.6237C53.2753 20.69 53.4686 18.4455 54.6202 16.9513C55.6585 15.6038 57.4912 14.892 59.9211 14.892V14.7187C57.4366 14.7187 55.5559 15.4545 54.4829 16.846C53.2966 18.3842 53.0941 20.6794 53.8805 23.6677C54.2856 25.2045 55.8131 30.5974 58.4816 35.4504C61.5778 41.0805 65.038 43.9355 68.7674 43.9355" fill="#231F20"/>
<path d="M9.22251 18.404L21.8583 23.2503L14.2422 28.0967L3.50977 26.5385C3.50977 26.5385 4.02959 18.5759 9.22251 18.404" fill="#BE5041"/>
<path d="M7.0515 23.9222C6.03184 23.8902 5.01619 23.8675 4.00586 23.8036C4.53368 21.8842 5.60399 19.5223 7.73927 18.7013C9.46002 20.5247 11.1208 22.4173 12.6776 24.3887C10.8049 24.1941 8.9282 23.9835 7.0515 23.9222Z" fill="#711814"/>
<path d="M7.50575 24.9071C9.50374 25.0217 11.5004 25.2443 13.4957 25.4429C14.0289 26.1453 14.5514 26.8571 15.0539 27.5795L14.2422 28.0967L3.50977 26.5385C3.50977 26.5385 3.55908 25.7895 3.77768 24.7458C5.01459 24.8231 6.25684 24.8365 7.50575 24.9071" fill="#D77C7B"/>
<path d="M20.3001 22.9041L8.69336 18.4523C8.86397 18.4283 9.03991 18.4096 9.22251 18.4043L21.8583 23.2506L14.9499 27.6465L20.3001 22.9041" fill="#1C171D"/>
<path d="M157.43 38.9355C157.43 38.9289 157.429 38.9209 157.429 38.9142C158.138 37.7693 156.858 31.622 155.667 28.803C157.028 32.0205 158.177 38.2704 157.43 38.9355ZM101.244 8.92034C101.236 8.91634 101.225 8.91099 101.216 8.907C92.2163 4.40185 82.4062 0.8777 71.9338 0.875034C82.4182 0.876367 92.2363 4.40852 101.244 8.92034ZM71.9258 0.875034H71.9271H71.9258Z" fill="white"/>
<path d="M157.429 38.9146C157.373 36.3794 156.87 33.507 155.661 31.0159C153.35 26.2588 148.92 18.3055 113.486 18.3055C111.751 18.3055 109.946 18.3241 108.059 18.3641C108.059 17.7457 106.835 16.4821 104.732 14.9293C104.07 13.4284 101.69 11.9663 100.243 11.6811C100.03 11.6384 99.8163 11.6184 99.6057 11.6184C99.599 11.6184 99.5924 11.6184 99.5844 11.6184C92.1722 7.37451 81.0293 2.81471 70.87 2.81471C69.2719 2.81471 67.7004 2.92666 66.1703 3.17057C48.1684 6.04427 39.9991 10.7307 28.435 15.9796C23.4154 18.2588 18.6623 18.6493 14.1358 20.2888L9.22149 18.4041C9.21615 18.4041 9.20949 18.4041 9.20416 18.4041H9.20282C8.90559 18.4148 8.62302 18.4521 8.35645 18.5108C10.0199 17.9496 12.2751 17.5271 15.4527 16.3261C16.743 15.8396 18.4344 15.1998 20.4444 14.4574H24.8002C35.0701 10.2575 47.9951 6.28687 54.6635 3.98632C54.8461 3.92367 54.8981 3.67707 54.9967 3.5078C46.0544 5.70572 36.7815 8.68607 29.2014 11.3172C39.3073 7.80903 52.4176 3.68241 63.7471 1.61378C66.5142 1.10728 69.2426 0.875352 71.9257 0.875352H71.927C71.9297 0.875352 71.931 0.875352 71.9337 0.875352C82.4061 0.878018 92.2162 4.40217 101.216 8.90731C95.4991 6.0736 89.4305 3.59977 83.3219 2.20957C82.2062 3.01063 96.8586 6.20557 108.367 14.7214L111.97 14.772C149.951 15.9929 153.24 23.0825 155.661 28.7899C155.663 28.7939 155.664 28.7979 155.667 28.8033C156.858 31.6223 158.138 37.7696 157.429 38.9146V38.9146ZM29.1094 11.3492C29.1148 11.3478 29.1214 11.3452 29.1268 11.3425C29.1201 11.3452 29.1161 11.3465 29.1094 11.3492ZM29.1414 11.3385C29.1588 11.3318 29.1748 11.3265 29.1907 11.3212C29.1748 11.3265 29.1588 11.3318 29.1414 11.3385Z" fill="#F0AD80"/>
<path d="M24.8012 14.4575H20.4453C22.9111 13.5472 25.8528 12.4809 29.1104 11.3493C29.1171 11.3466 29.1211 11.3453 29.1277 11.3426C29.1331 11.3413 29.137 11.3399 29.1424 11.3386C29.1597 11.3319 29.1757 11.3266 29.1917 11.3213C29.1944 11.3199 29.1997 11.3186 29.2024 11.3173C36.7825 8.68616 46.0554 5.70581 54.9977 3.50789C54.899 3.67716 54.8471 3.92376 54.6645 3.98641C47.996 6.28696 35.0711 10.2576 24.8012 14.4575" fill="#C0E1EE"/>
<path d="M111.969 14.772L108.367 14.7213C96.8585 6.20554 82.2062 3.0106 83.3218 2.20954C89.4304 3.59974 95.499 6.07357 101.216 8.90728C101.225 8.91128 101.236 8.91663 101.244 8.92062C104.925 10.7653 108.469 12.7713 111.867 14.768C111.903 14.7693 111.933 14.7706 111.969 14.772" fill="#C0E1EE"/>
<path d="M4.44043 22.4761C5.02157 20.7833 5.73732 19.8543 6.75165 19.2278C5.65602 20.0102 4.9256 21.2432 4.44043 22.4761Z" fill="#F0AD80"/>
<path d="M6.68341 24.8672C5.72907 24.8285 4.7774 24.8072 3.83105 24.7486C3.83905 24.7113 3.84837 24.6726 3.85637 24.6353C3.92035 24.3447 3.98566 24.0675 4.05097 23.8062C5.04663 23.8689 6.04763 23.8902 7.05129 23.9222C7.25389 23.9288 7.4565 23.9368 7.65909 23.9475C7.3312 24.2208 7.00597 24.53 6.68341 24.8672V24.8672ZM4.42285 22.5333C4.42951 22.5146 4.43618 22.4947 4.44151 22.476C4.92668 21.2431 5.6571 20.0101 6.75273 19.2277C6.77405 19.2158 6.79538 19.2024 6.8167 19.1891C5.67042 19.9795 4.91735 21.2604 4.42285 22.5333V22.5333ZM10.6181 21.8922C9.69174 20.8139 8.73739 19.7596 7.76438 18.7279C7.95365 18.6519 8.15093 18.58 8.35752 18.5107C8.6241 18.452 8.90667 18.4147 9.2039 18.404C9.02796 18.4107 8.85869 18.428 8.69341 18.452L13.8024 20.4114C12.7294 20.8166 11.6671 21.2964 10.6181 21.8922V21.8922ZM14.1369 20.2887L9.22257 18.404C9.21723 18.404 9.21057 18.404 9.20524 18.404C9.21057 18.404 9.21723 18.404 9.22257 18.404L14.1369 20.2887Z" fill="#DFA8A0"/>
<path d="M7.65793 23.9473C7.45533 23.9366 7.25273 23.9286 7.05013 23.9219C6.04647 23.8899 5.04547 23.8686 4.0498 23.806C4.16843 23.3381 4.29239 22.9169 4.42168 22.5331C4.91618 21.2602 5.66926 19.9792 6.81554 19.1888C7.10611 19.0156 7.42067 18.865 7.76322 18.7277C8.73622 19.7593 9.69057 20.8136 10.6169 21.8919C9.62126 22.4584 8.63759 23.1302 7.66325 23.9419C7.66059 23.9433 7.65926 23.9446 7.65793 23.9473" fill="#B88C8A"/>
<path d="M3 27.7368C3.00133 27.7368 3.00133 27.7355 3.00133 27.7341C3.00133 27.7355 3.00133 27.7355 3 27.7368ZM3.01067 27.7048C3.01201 27.7022 3.01334 27.6982 3.01468 27.6955C3.01334 27.6982 3.01201 27.7022 3.01067 27.7048ZM3.02133 27.6715C3.02266 27.6688 3.024 27.6648 3.02533 27.6608C3.024 27.6648 3.02266 27.6688 3.02133 27.6715ZM3.03332 27.6395C3.03465 27.6342 3.03599 27.6302 3.03732 27.6262C3.03599 27.6302 3.03465 27.6342 3.03332 27.6395ZM3.04533 27.6022C3.04533 27.5995 3.04667 27.5969 3.048 27.5942C3.04667 27.5969 3.04533 27.5995 3.04533 27.6022ZM3.05465 27.5729C3.05865 27.5609 3.06264 27.5489 3.06531 27.5369C3.06131 27.5489 3.05865 27.5609 3.05465 27.5729ZM3.06931 27.5275C3.07198 27.5195 3.07332 27.5129 3.07598 27.5036C3.07332 27.5129 3.07198 27.5195 3.06931 27.5275ZM3.07865 27.4969C3.08132 27.4889 3.08397 27.4809 3.08664 27.4729C3.08397 27.4809 3.08132 27.4889 3.07865 27.4969ZM3.08931 27.4622C3.09197 27.4542 3.09465 27.4476 3.09731 27.4396C3.09465 27.4476 3.09197 27.4542 3.08931 27.4622ZM3.09997 27.4316C3.10263 27.4236 3.10531 27.4143 3.10797 27.4049C3.10531 27.4143 3.10263 27.4223 3.09997 27.4316ZM3.10931 27.4009C3.28658 26.8451 3.45719 26.2627 3.61314 25.6522C3.45719 26.2627 3.28658 26.8451 3.10931 27.4009Z" fill="white"/>
<path d="M0.0301212 37.751C-0.257782 34.7866 1.57759 32.0409 2.99977 27.737C3.00111 27.7357 3.00111 27.7357 3.00111 27.7344C3.00377 27.725 3.00778 27.7144 3.01045 27.705C3.01178 27.7024 3.01312 27.6984 3.01445 27.6957C3.01712 27.6877 3.01844 27.6797 3.02111 27.6717C3.02244 27.6691 3.02378 27.665 3.02511 27.661C3.02777 27.6544 3.03043 27.6464 3.0331 27.6397C3.03443 27.6344 3.03577 27.6304 3.0371 27.6264C3.03977 27.6184 3.04244 27.6104 3.0451 27.6024C3.0451 27.5997 3.04644 27.5971 3.04777 27.5944C3.04911 27.5864 3.05176 27.5798 3.05443 27.5731C3.05843 27.5611 3.06109 27.5491 3.06508 27.5371C3.06642 27.5344 3.06775 27.5318 3.06909 27.5278C3.07175 27.5198 3.07309 27.5131 3.07576 27.5038C3.07709 27.5011 3.07843 27.4984 3.07843 27.4971C3.08109 27.4891 3.08375 27.4811 3.08642 27.4731C3.08775 27.4691 3.08908 27.4664 3.08908 27.4625C3.09175 27.4545 3.09442 27.4478 3.09709 27.4398C3.09842 27.4371 3.09841 27.4345 3.09974 27.4318C3.10241 27.4225 3.10508 27.4145 3.10775 27.4051C3.10775 27.4038 3.10908 27.4025 3.10908 27.4011C3.28635 26.8453 3.45697 26.2629 3.61291 25.6524C3.53294 26.1856 3.51028 26.5254 3.50895 26.5388L5.10841 26.7707C2.6479 30.1376 0.644571 34.696 0.136742 37.0979H0.00211954C0.000786659 37.3125 0.0101279 37.5284 0.0301212 37.7443C0.0301212 37.7457 0.0301212 37.7483 0.0301212 37.751" fill="#F0AD80"/>
<path d="M3.50977 26.5386C3.5111 26.5252 3.53376 26.1854 3.61373 25.6522C3.61507 25.6509 3.61507 25.6495 3.61507 25.6482C3.53376 26.184 3.5111 26.5266 3.50977 26.5386" fill="#DFA8A0"/>
<path d="M5.10923 26.7705L3.50977 26.5386C3.5111 26.5266 3.53376 26.184 3.61507 25.6482C3.68971 25.355 3.76169 25.0551 3.831 24.7485C4.77734 24.8072 5.72901 24.8285 6.68335 24.8671C6.14487 25.431 5.61706 26.0761 5.10923 26.7705" fill="#EBBEBD"/>
<path d="M13.8023 20.4116L8.69336 18.4523C8.85864 18.4283 9.02791 18.411 9.20385 18.4043H9.20518C9.21051 18.4043 9.21718 18.4043 9.22251 18.4043L14.1369 20.289C14.0249 20.329 13.9143 20.3703 13.8023 20.4116Z" fill="#8E8B8E"/>
<path d="M30.5285 22.5786C27.7734 21.0298 23.5548 20.6846 20.3492 20.6846C17.7861 20.6846 15.8721 20.9058 15.8721 20.9058C15.8721 20.9058 26.4072 16.8752 56.0959 15.521C55.4427 15.8596 54.9016 16.3021 54.483 16.8459C53.766 17.7762 53.4088 18.9838 53.4114 20.4527C45.6327 20.9938 37.8033 21.6882 30.5285 22.5786V22.5786ZM53.5847 20.4407C53.5834 19.0158 53.9286 17.8482 54.6203 16.9512C55.0988 16.3301 55.7453 15.8449 56.5424 15.501C62.427 15.2397 69.0568 15.0825 76.4983 15.0825C82.5603 15.0825 89.1634 15.1864 96.3383 15.4224C96.5342 16.7726 97.5539 17.9135 98.9614 18.1907C99.244 18.2467 99.5759 18.2734 99.9371 18.2734C101.226 18.2734 102.879 17.9202 103.917 17.2297C104.1 17.6709 104.25 18.1055 104.374 18.5533C96.3649 18.6226 75.1721 18.9452 53.5847 20.4407ZM104.556 18.552C104.425 18.0695 104.262 17.6029 104.062 17.1271C104.493 16.8085 104.794 16.4233 104.882 15.9755C104.894 15.9115 104.903 15.8476 104.906 15.7836C105.63 17.1604 107.725 18.5346 107.725 18.5346C107.725 18.5346 106.594 18.5346 104.556 18.552Z" fill="#F0AD80"/>
<path d="M53.4111 20.4526C53.4085 18.9838 53.7657 17.7762 54.4828 16.8458C54.9013 16.302 55.4425 15.8595 56.0956 15.521C56.2422 15.5143 56.3928 15.5076 56.5421 15.501C55.745 15.8448 55.0986 16.33 54.6201 16.9511C53.9283 17.8482 53.5831 19.0158 53.5844 20.4406C53.5258 20.4446 53.4698 20.4486 53.4111 20.4526V20.4526ZM104.374 18.5533C104.25 18.1054 104.099 17.6709 103.917 17.2297C103.966 17.1964 104.015 17.1617 104.062 17.1271C104.262 17.6029 104.425 18.0694 104.555 18.5519C104.495 18.5519 104.435 18.5533 104.374 18.5533" fill="#918F90"/>
<path d="M143.696 36.9551L137.314 35.7129C133.611 25.7949 127.453 24.2687 122.835 24.2687C122.212 24.2687 121.619 24.2967 121.063 24.334C113.683 24.8458 108.651 30.8851 107.7 36.8924C107.121 29.4056 113.463 22.2147 120.843 21.7029C121.213 21.6776 121.603 21.6642 122.012 21.6642C128.597 21.6642 139.853 25.1391 143.696 36.9551" fill="#F0AD80"/>
<path d="M61.6707 40.438L43.4941 35.5396L59.1222 36.5673C60.0352 38.0908 60.9776 39.381 61.9492 40.434L61.6707 40.438V40.438ZM62.1812 40.43C61.2028 39.389 60.2525 38.1055 59.3328 36.582L104.36 39.5423C104.352 39.6063 104.344 39.6702 104.336 39.7329L62.1812 40.43V40.43ZM104.511 39.7302C104.519 39.6716 104.526 39.6129 104.534 39.5529L106.674 39.6942L104.511 39.7302Z" fill="#F0AD80"/>
<path d="M61.9491 40.4341C60.9774 39.3811 60.0351 38.0909 59.1221 36.5674L59.3327 36.5821C60.2524 38.1055 61.2027 39.3891 62.181 40.4301L61.9491 40.4341V40.4341ZM104.336 39.733C104.344 39.6703 104.352 39.6064 104.36 39.5424L104.533 39.553C104.525 39.613 104.519 39.6717 104.511 39.7303L104.336 39.733Z" fill="#918F90"/>
<path d="M137.577 39.5371L137.255 36.6368L147.18 38.5988L137.577 39.5371" fill="#F0AD80"/>
<path d="M142.334 44.7139L137.25 43.445L145.115 43.2384C145.186 43.3437 145.31 43.405 145.485 43.405C145.494 43.405 145.505 43.405 145.517 43.4037L157.366 42.9158L158.451 43.3983L142.334 44.7139" fill="#F0AD80"/>
<path d="M145.484 43.4048C145.31 43.4048 145.186 43.3435 145.115 43.2382L157.366 42.9156L145.516 43.4035C145.504 43.4048 145.494 43.4048 145.484 43.4048Z" fill="#959595"/>
<path d="M148.685 38.9521L146.266 38.1284L156.687 38.1431L157.411 38.6669L148.685 38.9521Z" fill="#F0AD80"/>
<path d="M54.3496 21.1563C54.3496 21.6628 56.3889 22.0747 58.9041 22.0747C61.4192 22.0747 63.4586 21.6628 63.4586 21.1563C63.4586 20.6498 61.4192 20.238 58.9041 20.238C56.3889 20.238 54.3496 20.6498 54.3496 21.1563Z" fill="#231F20"/>
<path d="M54.8955 20.959C54.8955 21.2962 56.6896 21.5708 58.9035 21.5708C61.1161 21.5708 62.9115 21.2962 62.9115 20.959C62.9115 20.6218 61.1161 20.3486 58.9035 20.3486C56.6896 20.3486 54.8955 20.6218 54.8955 20.959Z" fill="#E05A01"/>
<path d="M104.882 15.9755C104.527 17.7735 100.749 18.5426 98.9612 18.1907C97.1738 17.8388 96.0129 16.0954 96.3674 14.2987C96.7206 12.5006 98.4574 11.3291 100.243 11.6809C102.031 12.0328 105.236 14.1788 104.882 15.9755Z" fill="#200000"/>
<path d="M100.306 14.9517C99.9965 14.9517 99.7099 14.9277 99.466 14.8797C98.4824 14.6864 97.72 14.004 97.3721 13.1323C97.8986 12.3592 98.7809 11.8754 99.7353 11.8754C99.9165 11.8754 100.102 11.8927 100.286 11.9287C101.317 12.1326 102.888 13.0243 103.735 14.0573C102.834 14.6477 101.415 14.9517 100.306 14.9517Z" fill="#908080"/>
<path d="M84.085 14.6626L90.4228 8.32476C92.85 9.37774 95.1199 10.464 97.0326 11.4264L93.855 14.604L89.5738 14.6293L84.085 14.6626" fill="#D9EDF4"/>
<path d="M72.0117 14.7334L75.7465 14.7107V14.7121L72.0117 14.7334Z" fill="#BFBFBF"/>
<path d="M72.0117 14.7334C75.236 11.5105 78.4589 8.28623 81.6818 5.06332C82.6095 5.34189 83.5452 5.64847 84.4809 5.97636L75.7465 14.7121L72.0117 14.7334" fill="#D9EDF4"/>
<path d="M59.9219 14.8052L65.9958 14.7692L59.9219 14.8052ZM72.8908 3.54497C72.8922 3.54497 72.8935 3.54497 72.8948 3.54497C72.8935 3.54497 72.8922 3.54497 72.8908 3.54497ZM72.9535 3.54497C72.9575 3.54497 72.9615 3.54497 72.9655 3.54497C72.9615 3.54497 72.9575 3.54497 72.9535 3.54497ZM73.2254 3.54497C73.2227 3.54497 73.2201 3.54497 73.2174 3.54497C73.2201 3.54497 73.2227 3.54497 73.2254 3.54497ZM73.0161 3.54497C73.0241 3.54497 73.0308 3.54497 73.0388 3.54497C73.0308 3.54497 73.0241 3.54497 73.0161 3.54497ZM73.1974 3.54497C73.1934 3.54497 73.1894 3.54497 73.1854 3.54497C73.1894 3.54497 73.1934 3.54497 73.1974 3.54497ZM73.0788 3.54497C73.1001 3.54497 73.1201 3.54497 73.1414 3.54497C73.1201 3.54497 73.1001 3.54497 73.0788 3.54497ZM73.1694 3.54497C73.1601 3.54497 73.1507 3.54497 73.1414 3.54497C73.1507 3.54497 73.1601 3.54497 73.1694 3.54497Z" fill="#BFBFBF"/>
<path d="M59.9208 14.8052V14.7186C59.9075 14.7186 59.8942 14.7186 59.8822 14.7186C59.321 13.4696 58.7759 12.2181 58.248 10.9572L64.9178 4.2874C67.6089 3.83688 70.3013 3.5623 72.8898 3.54497C72.8911 3.54497 72.8925 3.54497 72.8938 3.54497C72.9138 3.54497 72.9324 3.54497 72.9524 3.54497C72.9564 3.54497 72.9604 3.54497 72.9644 3.54497C72.9818 3.54497 72.9977 3.54497 73.0151 3.54497C73.0231 3.54497 73.0297 3.54497 73.0377 3.54497C73.0511 3.54497 73.0644 3.54497 73.0777 3.54497C73.099 3.54497 73.119 3.54497 73.1404 3.54497C73.1497 3.54497 73.159 3.54497 73.1683 3.54497C73.1737 3.54497 73.179 3.54497 73.1844 3.54497C73.1884 3.54497 73.1924 3.54497 73.1964 3.54497C73.203 3.54497 73.2097 3.54497 73.2163 3.54497C73.219 3.54497 73.2217 3.54497 73.2243 3.54497C73.2323 3.54497 73.2403 3.54497 73.2497 3.54497C74.3773 3.55297 75.5929 3.68091 76.8631 3.89951L65.9948 14.7692L59.9208 14.8052" fill="#D9EDF4"/>
<path d="M59.9205 14.8052C59.9072 14.7759 59.8938 14.7465 59.8818 14.7186C59.8938 14.7186 59.9072 14.7186 59.9205 14.7186V14.8052Z" fill="#BDBBBC"/>
<path d="M6.61317 38.136C6.42257 37.5629 5.80144 37.0977 5.2283 37.0977H0.00205288C-0.00194577 37.8335 0.114024 38.5746 0.393929 39.3476C1.39493 42.1307 4.25928 43.6955 8.79775 44.6885L6.61317 38.136" fill="#191919"/>
<path d="M8.80255 44.6899C8.80121 44.6899 8.79988 44.6886 8.79854 44.6886L6.61396 38.1362C6.42336 37.563 5.80223 37.0978 5.22909 37.0978H0.149473C0.128147 36.8806 5.87821 36.4487 5.87821 36.4487C6.45135 36.4487 7.07247 36.9139 7.26308 37.487C7.26308 37.487 9.08378 44.6899 8.80255 44.6899Z" fill="#F0AD80"/>
<g clip-path="url(#clip0)" filter="url(#filter0_d)">
<path d="M43.0266 14.7008L39.9656 9.1827C39.8232 8.92608 39.4542 8.92608 39.3118 9.1827L36.2508 14.7008C35.0888 17.042 36.1508 19.4743 38.3271 20.2134C38.6961 20.3457 39.0927 20.4229 39.509 20.4316C39.5377 20.4322 39.5666 20.4325 39.5956 20.4325H39.5956C39.6101 20.4325 39.6243 20.4319 39.6387 20.4318C39.6531 20.432 39.6673 20.4325 39.6818 20.4325H39.6818C39.7108 20.4325 39.7397 20.4322 39.7685 20.4316C40.1847 20.4229 40.5813 20.3456 40.9503 20.2134C43.1454 19.4679 44.1828 17.0303 43.0266 14.7008Z" fill="#56544D"/>
<path d="M38.1506 15.3445L39.5814 9.1986C39.6012 9.1137 39.6465 9.04524 39.7057 8.99617C39.5575 8.96971 39.3955 9.03175 39.3118 9.1826L36.2508 14.7007C35.0888 17.0419 36.1508 19.4742 38.3271 20.2133C38.6961 20.3455 39.0928 20.4228 39.509 20.4315C39.5378 20.4321 39.5666 20.4324 39.5956 20.4324C39.6101 20.4324 39.6243 20.4319 39.6387 20.4317C39.6531 20.4319 39.6673 20.4324 39.6818 20.4324H39.6818C39.7108 20.4324 39.7396 20.4321 39.7684 20.4315C40.1847 20.4228 40.5813 20.3455 40.9503 20.2133C41.0907 20.1656 41.2263 20.1109 41.3569 20.0499C39.2177 19.7795 37.6962 17.8005 38.1506 15.3445Z" fill="#3F3E3B"/>
</g>
<defs>
<filter id="filter0_d" x="29.918" y="8.99023" width="19.4423" height="19.4423" filterUnits="userSpaceOnUse" color-interpolation-filters="sRGB">
<feFlood flood-opacity="0" result="BackgroundImageFix"/>
<feColorMatrix in="SourceAlpha" type="matrix" values="0 0 0 0 0 0 0 0 0 0 0 0 0 0 0 0 0 0 127 0"/>
<feOffset dy="4"/>
<feGaussianBlur stdDeviation="2"/>
<feColorMatrix type="matrix" values="0 0 0 0 0 0 0 0 0 0 0 0 0 0 0 0 0 0 0.25 0"/>
<feBlend mode="normal" in2="BackgroundImageFix" result="effect1_dropShadow"/>
<feBlend mode="normal" in="SourceGraphic" in2="effect1_dropShadow" result="shape"/>
</filter>
<clipPath id="clip0">
<rect width="11.4423" height="11.4423" fill="white" transform="translate(33.918 8.99023)"/>
</clipPath>
</defs>
</svg>
