<svg width="165" height="71" viewBox="0 0 165 71" fill="none" xmlns="http://www.w3.org/2000/svg">
<path d="M164.757 67.727C164.757 69.1897 129.477 70.3765 85.956 70.3765C42.4347 70.3765 7.15332 69.1897 7.15332 67.727C7.15332 66.263 42.4347 65.0763 85.956 65.0763C129.477 65.0763 164.757 66.263 164.757 67.727" fill="black" fill-opacity="0.3"/>
<path d="M74.2502 31.3309V1.36022C74.2502 0.725557 73.7355 0.209556 73.0995 0.209556C72.4649 0.209556 71.9502 0.725557 71.9502 1.36022V32.5669C72.7089 32.1389 73.4742 31.7242 74.2502 31.3309Z" fill="#B2B2B2"/>
<path d="M72.8396 32.0789V0.241555C72.3302 0.360221 71.9502 0.81489 71.9502 1.36022V32.5669C72.2449 32.4002 72.5422 32.2402 72.8396 32.0789Z" fill="#F2F2F2"/>
<path d="M74.2503 31.3307V1.36006C74.2503 0.96806 74.0529 0.624068 73.7529 0.417401V31.5947C73.9196 31.5081 74.0836 31.4161 74.2503 31.3307Z" fill="#939393"/>
<path d="M74.3891 23.3322C74.3891 23.9669 73.8745 24.4829 73.2398 24.4829H5.24248C4.60781 24.4829 4.0918 23.9669 4.0918 23.3322C4.0918 22.6976 4.60781 22.1816 5.24248 22.1816H73.2398C73.8745 22.1816 74.3891 22.6976 74.3891 23.3322Z" fill="#B2B2B2"/>
<path d="M74.357 23.0723C74.2397 22.5629 73.785 22.1816 73.2397 22.1816H5.24235C4.69702 22.1816 4.24233 22.5629 4.125 23.0723H74.357" fill="white"/>
<path d="M4.2998 23.9842C4.50647 24.2842 4.85048 24.4829 5.24248 24.4829H73.2398C73.6318 24.4829 73.9758 24.2842 74.1825 23.9842H4.2998" fill="#939393"/>
<path d="M111.877 53.1174C111.877 54.6774 110.613 55.9414 109.053 55.9414H59.4813C57.9213 55.9414 56.6572 54.6774 56.6572 53.1174C56.6572 51.5587 57.9213 50.2947 59.4813 50.2947H109.053C110.613 50.2947 111.877 51.5587 111.877 53.1174Z" fill="#2D2D2D"/>
<path d="M7.34563 52.8481H162.343C163.239 52.1935 163.836 51.1921 163.836 49.6575C163.836 45.6841 164.044 41.2921 162.372 41.0828V34.2868C162.372 29.2681 158.607 30.2095 158.607 30.2095C158.607 30.2095 158.399 28.7455 155.89 26.4441C151.079 25.3988 123.266 23.5175 123.266 23.5175C123.266 23.5175 110.446 7.95347 106.575 2.49214C105.111 0.192142 74.3576 0.689473 74.3576 0.689473C73.9816 1.55214 74.0269 23.5748 74.0269 23.5748C67.9429 23.5748 2.94829 24.7735 2.94829 24.7735C1.38829 34.0735 1.95626 42.5468 1.48426 42.5468C0.438932 42.5468 1.69361 51.3308 1.69361 51.3308C1.69361 51.3308 4.12429 52.1201 7.34563 52.8481" fill="#D60606"/>
<path d="M149.009 30.376L119.436 29.8826L119.625 24.7693L154.695 26.9253L149.009 30.376V30.376ZM118.821 29.872L76.5467 29.168V24.6507L113.876 24.416L119.004 24.7306L118.821 29.872V29.872ZM75.92 29.1573L2.64941 27.9373L3.27741 25.1133L75.92 24.6546V29.1573" fill="#F3B4B4"/>
<path d="M118.623 35.4814L112.925 48.5694L76.5466 48.6254V2.93742L77.5039 2.95476C91.6706 3.20142 102.772 3.54942 104.676 3.85609L105.06 3.91875L105.288 4.23343C108.661 8.89077 116.008 18.3748 119.088 22.3374L118.623 35.4814ZM119.653 22.0428C116.617 18.1374 109.189 8.54943 105.797 3.86543L105.416 3.34009L104.776 3.23742C102.849 2.92675 91.7239 2.57476 77.516 2.32676L75.9199 2.29877V49.2534L113.337 49.1961L119.223 35.6761L119.723 22.1321L119.653 22.0428" fill="#BF0C0C"/>
<path d="M77.4883 3.89483C92.2243 4.15216 102.93 4.52815 104.527 4.78548C107.9 9.44282 115.11 18.7535 118.416 23.0055L77.4883 23.0562V3.89483" fill="#2D2D2D"/>
<path d="M78.1602 4.57894C92.8002 4.83894 102.065 5.18561 104.152 5.41361C107.247 9.66694 113.224 17.4149 117.046 22.3349L78.1602 22.3843V4.57894Z" fill="#80C2DC"/>
<path d="M56.6648 52.4549L56.6462 52.4536L56.5809 52.4456L56.4342 52.427L56.3902 52.4189L56.3129 52.3923L49.6622 40.8723C48.7968 39.3723 46.6902 38.1563 44.9568 38.1563L30.2395 36.8296C28.5075 36.8296 24.8982 39.3723 24.0315 40.8723L17.6568 51.4243L20.2048 52.4883L20.0355 52.5963L2.38086 53.7976L38.3062 61.9536L74.9142 51.9163L56.6648 52.4549ZM115.217 52.6336C115.533 52.6096 115.729 52.3149 115.745 52.2883L119.323 40.0163C119.449 39.8003 120.83 38.3736 121.002 38.1709C121.512 37.7883 123.898 37.2616 124.357 36.8296C125.238 36.2963 127.141 36.8296 128.048 36.8296L141.165 38.1563C142.897 38.1563 145.003 39.3723 145.87 40.8723L152.521 52.3923C155.322 52.0203 160.775 54.1163 160.775 54.1163L135.35 61.535L109.881 54.2323L115.217 52.6336" fill="#2D2D2D"/>
<path d="M18.9223 54.4254L25.6663 40.8721C26.4063 39.3721 28.4103 38.1561 30.1423 38.1561H43.445C45.177 38.1561 47.3863 39.3721 48.3783 40.8721L55.997 52.3921C56.325 52.8867 115.948 52.8867 116.192 52.3921L121.873 40.8721C122.613 39.3721 124.618 38.1561 126.35 38.1561H139.652C141.384 38.1561 143.593 39.3721 144.586 40.8721L152.205 52.3921C152.533 52.8867 160.604 54.1161 160.604 54.1161C161.941 53.5014 162.85 52.4187 162.689 50.5081C162.665 50.2121 162.641 49.9147 162.618 49.6174H154.717L147.688 38.9907C145.925 36.3254 142.413 34.3921 139.336 34.3921H126.034C122.957 34.3921 119.77 36.3254 118.456 38.9907L113.213 49.6174H58.509L51.4797 38.9907C49.717 36.3254 46.205 34.3921 43.1276 34.3921H29.8263C26.7503 34.3921 23.5623 36.3254 22.2477 38.9907L17.0063 49.6174H0.154297C0.450297 51.0574 1.0863 54.4254 1.0863 54.4254C1.0863 54.4254 3.60363 55.3467 8.25697 56.1494C8.25697 56.1494 18.6783 54.9201 18.9223 54.4254" fill="#D4D6D6"/>
<path d="M17.0983 50.7188L22.341 40.0921C23.6556 37.4281 26.8423 35.4934 29.9196 35.4934H43.221C46.297 35.4934 49.8103 37.4281 51.573 40.0921L58.6023 50.7188H113.306L118.548 40.0921C119.862 37.4281 123.05 35.4934 126.126 35.4934H139.428C142.505 35.4934 146.017 37.4281 147.78 40.0921L154.809 50.7188H162.693L162.689 50.5068C162.665 50.2121 162.641 49.9148 162.618 49.6174H154.717L147.688 38.9908C145.925 36.3254 142.413 34.3921 139.336 34.3921H126.034C122.957 34.3921 119.77 36.3254 118.456 38.9908L113.213 49.6174H58.509L51.4797 38.9908C49.717 36.3254 46.205 34.3921 43.1276 34.3921H29.8263C26.7503 34.3921 23.5623 36.3254 22.2477 38.9908L17.0063 49.6174H0.154297C0.236964 50.0161 0.315631 50.3867 0.388965 50.7188H17.0983" fill="white"/>
<path d="M52.9453 55.0522C52.9453 63.1376 46.392 69.6909 38.3066 69.6909C30.2226 69.6909 23.668 63.1376 23.668 55.0522C23.668 46.9682 30.2226 40.4136 38.3066 40.4136C46.392 40.4136 52.9453 46.9682 52.9453 55.0522Z" fill="#242424"/>
<path d="M44.6937 62.3733L43.6684 60.3119L45.723 61.3346C45.407 61.7066 45.0617 62.0519 44.6937 62.3733ZM36.8684 64.6586L37.0111 61.2813L38.3124 59.3199L39.6084 61.2773L39.7524 64.6573C39.279 64.7279 38.8004 64.7759 38.3071 64.7759C37.8164 64.7759 37.3391 64.7279 36.8684 64.6586ZM30.8991 61.3426L32.9471 60.3239L31.9257 62.3773C31.559 62.0573 31.2151 61.7133 30.8991 61.3426V61.3426ZM31.9791 47.6786L32.9364 49.6026L31.0071 48.6426C31.3084 48.2999 31.6324 47.9759 31.9791 47.6786ZM36.3324 47.6373L35.155 45.8599C35.579 45.7146 36.0151 45.5933 36.4644 45.5079L36.3324 47.6373ZM36.3484 62.2813L36.491 64.6013C36.003 64.508 35.5284 64.3746 35.0684 64.2119L36.3484 62.2813ZM34.0217 59.7893L36.1284 58.7399L36.2737 61.084L34.7084 64.0799C33.8044 63.7199 32.9657 63.2293 32.2177 62.6279L34.0217 59.7893ZM32.1791 57.0013L34.5284 57.1466L33.4831 59.2479L30.6577 61.0426C30.067 60.2893 29.5871 59.4466 29.2377 58.5373L32.1791 57.0013ZM30.9817 56.9266L29.1044 58.1719C28.9524 57.7239 28.8324 57.2626 28.7471 56.7893L30.9817 56.9266ZM30.9777 53.0026L28.7737 53.1399C28.8657 52.6773 28.999 52.2306 29.1537 51.7946L30.9777 53.0026ZM34.519 52.784L32.1764 52.9293L29.291 51.4226C29.6537 50.5213 30.1444 49.6879 30.7444 48.9453L33.4711 50.6773L34.519 52.784ZM36.1124 51.184L34.0111 50.1373L32.287 47.4253C33.0364 46.8333 33.8737 46.3519 34.7777 45.9986L36.2577 48.8346L36.1124 51.184ZM35.8564 52.7946C35.695 52.6933 35.5497 52.5586 35.4377 52.384L34.951 51.6173L35.7217 52.1066C35.891 52.2146 36.0244 52.3559 36.1244 52.5133C36.159 52.6626 36.2111 52.8066 36.2777 52.9439C36.1444 52.8786 36.0044 52.8279 35.8564 52.7946V52.7946ZM35.4524 57.5386C35.5604 57.3679 35.7017 57.2359 35.8577 57.1359C36.0084 57.0999 36.151 57.0479 36.2884 56.9813C36.223 57.1159 36.1737 57.2559 36.1391 57.4026C36.0391 57.5639 35.9044 57.7106 35.7297 57.8213L34.9631 58.3079L35.4524 57.5386ZM34.5351 54.1613L33.7297 53.7399L34.6417 53.7786C34.8431 53.7879 35.0284 53.8439 35.1937 53.9293C35.2991 54.0426 35.4164 54.1399 35.5431 54.2253C35.3937 54.2359 35.2471 54.2626 35.1031 54.3066C34.9124 54.2999 34.7191 54.2559 34.5351 54.1613V54.1613ZM34.5431 55.7666C34.7217 55.6733 34.9111 55.6306 35.0964 55.6213C35.2444 55.6666 35.3937 55.6933 35.5471 55.7026C35.4231 55.7866 35.3097 55.8839 35.2057 55.9933C35.0377 56.0826 34.8484 56.1426 34.6417 56.1506L33.7337 56.1893L34.5431 55.7666ZM28.5831 55.0519C28.5831 54.5319 28.6351 54.0253 28.7137 53.5279L31.9777 53.6666L33.9391 54.9666L31.9831 56.2639L28.6884 56.4039C28.6257 55.9613 28.5831 55.5119 28.5831 55.0519V55.0519ZM37.0697 50.3893L37.4924 51.1986C37.5857 51.3773 37.6297 51.5653 37.6377 51.7506C37.5937 51.8986 37.567 52.0493 37.5564 52.2013C37.4724 52.0773 37.3764 51.9639 37.2657 51.8613C37.1764 51.6933 37.1177 51.5039 37.1084 51.2973L37.0697 50.3893ZM37.1244 58.6173C37.1324 58.416 37.1884 58.2306 37.2751 58.0653C37.3871 57.9599 37.4857 57.844 37.5711 57.7173C37.5817 57.8653 37.6084 58.0119 37.6524 58.1573C37.6457 58.3466 37.6017 58.5413 37.5057 58.7239L37.0857 59.5293L37.1244 58.6173ZM38.9524 51.7573C38.959 51.5666 39.0031 51.3733 39.0991 51.1906L39.519 50.3853L39.4804 51.2973C39.4724 51.4986 39.4151 51.6839 39.3297 51.8479C39.2177 51.9546 39.1191 52.0706 39.0337 52.1973C39.0231 52.0479 38.9964 51.9026 38.9524 51.7573ZM39.0484 57.7133C39.1324 57.8359 39.2284 57.9506 39.3391 58.0533C39.4284 58.2213 39.4871 58.4106 39.4964 58.6173L39.5351 59.5253L39.1124 58.716C39.0191 58.5373 38.9751 58.3493 38.9671 58.1626C39.0111 58.0159 39.0377 57.8653 39.0484 57.7133V57.7133ZM39.7284 45.4426L39.5937 48.6319L38.2924 50.5946L36.9964 48.6373L36.8604 45.4466C37.3337 45.3759 37.8151 45.3279 38.3071 45.3279C38.7911 45.3279 39.2631 45.3746 39.7284 45.4426V45.4426ZM45.5937 48.6266L43.6564 49.5906L44.6177 47.6613C44.9657 47.9599 45.2897 48.2839 45.5937 48.6266ZM45.623 52.9866L47.4524 51.7733C47.6097 52.2119 47.7457 52.6599 47.8391 53.1239L45.623 52.9866ZM45.627 56.9119L47.8711 56.7719C47.7857 57.2493 47.6671 57.7133 47.5151 58.1626L45.627 56.9119ZM42.0857 57.1306L44.4284 56.9853L47.3804 58.5266C47.0324 59.4373 46.5537 60.28 45.9631 61.0346L43.1337 59.2373L42.0857 57.1306ZM40.3471 61.0799L40.4924 58.7306L42.5937 59.7773L44.4017 62.6239C43.6551 63.2253 42.8164 63.7159 41.9124 64.0786L40.3471 61.0799ZM40.2724 62.2773L41.5537 64.2093C41.0924 64.3733 40.6191 64.5066 40.1284 64.6L40.2724 62.2773ZM40.2564 47.6319L40.1244 45.5039C40.575 45.5893 41.0111 45.7066 41.4364 45.8519L40.2564 47.6319ZM42.5831 50.1253L40.4764 51.1746L40.3311 48.8306L41.8137 45.9906C42.7191 46.3399 43.5577 46.8199 44.3084 47.4093L42.5831 50.1253ZM42.0764 52.768L43.1217 50.6653L45.8577 48.9279C46.4604 49.6706 46.9524 50.5026 47.3177 51.4026L44.4257 52.9133L42.0764 52.768ZM42.0617 54.1466C41.8831 54.2399 41.6937 54.2839 41.5084 54.2933C41.3604 54.2479 41.211 54.2213 41.0577 54.2106C41.1817 54.1279 41.2951 54.0306 41.3977 53.9199C41.5671 53.8306 41.7564 53.7719 41.9631 53.7639L42.8697 53.7253L42.0617 54.1466ZM41.4111 55.9853C41.3057 55.8719 41.1884 55.7746 41.0617 55.6893C41.2111 55.6786 41.3577 55.6519 41.5017 55.6079C41.6924 55.6146 41.8857 55.6573 42.0697 55.7533L42.8737 56.1733L41.9631 56.1346C41.7617 56.1266 41.5764 56.0706 41.4111 55.9853V55.9853ZM40.3164 52.9333C40.3817 52.7986 40.4311 52.6586 40.4657 52.5119C40.5657 52.3493 40.7004 52.2039 40.8751 52.0933L41.6417 51.6066L41.1524 52.3759C41.0444 52.5466 40.9031 52.6786 40.7471 52.7786C40.5964 52.8133 40.4537 52.8653 40.3164 52.9333V52.9333ZM40.7484 57.1199C40.9097 57.2213 41.0551 57.3559 41.1671 57.5306L41.6537 58.2973L40.8831 57.8079C40.7137 57.6999 40.5804 57.5586 40.4804 57.4013C40.4457 57.2506 40.3937 57.1079 40.3271 56.9706C40.4604 57.0359 40.6004 57.0866 40.7484 57.1199V57.1199ZM48.0324 55.0519C48.0324 55.5066 47.9897 55.9506 47.9297 56.3879L44.627 56.2479L42.6657 54.9479L44.6217 53.6506L47.8977 53.5119C47.9777 54.0146 48.0324 54.5266 48.0324 55.0519V55.0519ZM38.3071 44.4919C32.4751 44.4919 27.7471 49.2199 27.7471 55.0519C27.7471 60.8839 32.4751 65.6133 38.3071 65.6133C44.1404 65.6133 48.8684 60.8839 48.8684 55.0519C48.8684 49.2199 44.1404 44.4919 38.3071 44.4919Z" fill="#E3E5E5"/>
<path d="M38.3071 43.112C45.5178 43.112 51.4257 48.6706 51.9884 55.7373C52.0177 55.372 52.0364 55.0053 52.0364 54.6333C52.0364 47.052 45.8898 40.9053 38.3071 40.9053C30.7258 40.9053 24.5791 47.052 24.5791 54.6333C24.5791 55.0053 24.5977 55.372 24.6271 55.7373C25.1897 48.6706 31.0978 43.112 38.3071 43.112" fill="#383838"/>
<path d="M38.3066 68.1749C30.476 68.1749 24.0826 62.0269 23.688 54.2949C23.6746 54.5456 23.668 54.7976 23.668 55.0522C23.668 63.1376 30.2226 69.6909 38.3066 69.6909C46.392 69.6909 52.9453 63.1376 52.9453 55.0522C52.9453 54.7976 52.9386 54.5456 52.9266 54.2949C52.532 62.0269 46.1373 68.1749 38.3066 68.1749Z" fill="#111111"/>
<path d="M38.3071 44.4921C44.0337 44.4921 48.6844 49.0521 48.8524 54.7388L48.8684 54.4254C48.8684 48.5921 44.1404 43.8641 38.3071 43.8641C32.4751 43.8641 27.7471 48.5921 27.7471 54.4254L27.7631 54.7388C27.9297 49.0521 32.5804 44.4921 38.3071 44.4921Z" fill="#111111"/>
<path d="M38.3071 65.6454C44.0337 65.6454 48.6844 61.0854 48.8524 55.3988L48.8684 55.7121C48.8684 61.5454 44.1404 66.2734 38.3071 66.2734C32.4751 66.2734 27.7471 61.5454 27.7471 55.7121L27.7631 55.3988C27.9297 61.0854 32.5804 65.6454 38.3071 65.6454Z" fill="#383838"/>
<path d="M149.493 55.0522C149.493 63.1376 142.938 69.6909 134.854 69.6909C126.769 69.6909 120.216 63.1376 120.216 55.0522C120.216 46.9682 126.769 40.4136 134.854 40.4136C142.938 40.4136 149.493 46.9682 149.493 55.0522Z" fill="#242424"/>
<path d="M141.241 62.3733L140.214 60.3119L142.269 61.3346C141.954 61.7066 141.609 62.0519 141.241 62.3733ZM133.414 64.6586L133.557 61.2813L134.858 59.3199L136.156 61.2773L136.298 64.6573C135.826 64.7279 135.346 64.7759 134.854 64.7759C134.364 64.7759 133.885 64.7279 133.414 64.6586V64.6586ZM127.446 61.3426L129.494 60.3239L128.472 62.3773C128.105 62.0573 127.761 61.7133 127.446 61.3426ZM128.525 47.6786L129.482 49.6026L127.553 48.6426C127.856 48.2999 128.178 47.9759 128.525 47.6786ZM132.878 47.6373L131.701 45.8599C132.126 45.7146 132.561 45.5933 133.01 45.5079L132.878 47.6373ZM132.894 62.2813L133.038 64.6013C132.549 64.508 132.076 64.3746 131.614 64.2119L132.894 62.2813ZM130.569 59.7893L132.676 58.7399L132.821 61.084L131.256 64.0799C130.35 63.7199 129.512 63.2293 128.765 62.6279L130.569 59.7893ZM128.726 57.0013L131.076 57.1466L130.029 59.2479L127.205 61.0426C126.613 60.2893 126.134 59.4466 125.784 58.5373L128.726 57.0013ZM127.528 56.9266L125.65 58.1719C125.498 57.7239 125.378 57.2626 125.293 56.7893L127.528 56.9266ZM127.524 53.0026L125.32 53.1399C125.412 52.6773 125.545 52.2306 125.701 51.7946L127.524 53.0026ZM131.066 52.784L128.722 52.9293L125.837 51.4226C126.2 50.5213 126.69 49.6879 127.292 48.9453L130.017 50.6773L131.066 52.784ZM132.66 51.184L130.557 50.1373L128.834 47.4253C129.582 46.8333 130.42 46.3519 131.324 45.9986L132.805 48.8346L132.66 51.184ZM132.404 52.7946C132.241 52.6933 132.096 52.5586 131.985 52.384L131.497 51.6173L132.268 52.1066C132.438 52.2146 132.57 52.3559 132.67 52.5133C132.705 52.6626 132.757 52.8066 132.825 52.9439C132.69 52.8786 132.55 52.8279 132.404 52.7946V52.7946ZM131.998 57.5386C132.106 57.3679 132.248 57.2359 132.404 57.1359C132.554 57.0999 132.698 57.0479 132.834 56.9813C132.77 57.1159 132.72 57.2559 132.686 57.4026C132.585 57.5639 132.45 57.7106 132.276 57.8213L131.509 58.3079L131.998 57.5386ZM131.082 54.1613L130.277 53.7399L131.188 53.7786C131.39 53.7879 131.574 53.8439 131.74 53.9293C131.845 54.0426 131.962 54.1399 132.089 54.2253C131.94 54.2359 131.793 54.2626 131.649 54.3066C131.458 54.2999 131.265 54.2559 131.082 54.1613V54.1613ZM131.089 55.7666C131.268 55.6733 131.457 55.6306 131.642 55.6213C131.79 55.6666 131.941 55.6933 132.093 55.7026C131.969 55.7866 131.856 55.8839 131.753 55.9933C131.585 56.0826 131.394 56.1426 131.188 56.1506L130.281 56.1893L131.089 55.7666ZM125.129 55.0519C125.129 54.5319 125.182 54.0253 125.261 53.5279L128.524 53.6666L130.486 54.9666L128.529 56.2639L125.234 56.4039C125.173 55.9613 125.129 55.5119 125.129 55.0519V55.0519ZM133.617 50.3893L134.038 51.1986C134.132 51.3773 134.176 51.5653 134.185 51.7506C134.14 51.8986 134.113 52.0493 134.102 52.2013C134.018 52.0773 133.922 51.9639 133.812 51.8613C133.722 51.6933 133.664 51.5039 133.654 51.2973L133.617 50.3893ZM133.67 58.6173C133.68 58.416 133.736 58.2306 133.821 58.0653C133.934 57.9599 134.032 57.844 134.117 57.7173C134.128 57.8653 134.154 58.0119 134.198 58.1573C134.192 58.3466 134.148 58.5413 134.052 58.7239L133.632 59.5293L133.67 58.6173ZM135.5 51.7573C135.506 51.5666 135.549 51.3733 135.645 51.1906L136.065 50.3853L136.026 51.2973C136.018 51.4986 135.962 51.6839 135.877 51.8479C135.764 51.9546 135.666 52.0706 135.581 52.1973C135.57 52.0479 135.544 51.9026 135.5 51.7573V51.7573ZM135.594 57.7133C135.678 57.8359 135.776 57.9506 135.885 58.0533C135.974 58.2213 136.034 58.4106 136.042 58.6173L136.081 59.5253L135.658 58.716C135.565 58.5373 135.521 58.3493 135.513 58.1626C135.558 58.0159 135.585 57.8653 135.594 57.7133V57.7133ZM136.276 45.4426L136.14 48.6319L134.84 50.5946L133.542 48.6373L133.406 45.4466C133.88 45.3759 134.361 45.3279 134.854 45.3279C135.338 45.3279 135.81 45.3746 136.276 45.4426V45.4426ZM142.14 48.6266L140.204 49.5906L141.164 47.6613C141.512 47.9599 141.837 48.2839 142.14 48.6266ZM142.169 52.9866L144 51.7733C144.157 52.2119 144.292 52.6599 144.385 53.1239L142.169 52.9866ZM142.173 56.9119L144.417 56.7719C144.332 57.2493 144.213 57.7133 144.061 58.1626L142.173 56.9119ZM138.632 57.1306L140.974 56.9853L143.928 58.5266C143.578 59.4373 143.1 60.28 142.509 61.0346L139.681 59.2373L138.632 57.1306ZM136.893 61.0799L137.038 58.7306L139.14 59.7773L140.949 62.6239C140.201 63.2253 139.364 63.7159 138.458 64.0786L136.893 61.0799ZM136.818 62.2773L138.1 64.2093C137.638 64.3733 137.165 64.5066 136.676 64.6L136.818 62.2773ZM136.802 47.6319L136.672 45.5039C137.121 45.5893 137.558 45.7066 137.984 45.8519L136.802 47.6319ZM139.129 50.1253L137.022 51.1746L136.877 48.8306L138.361 45.9906C139.265 46.3399 140.104 46.8199 140.854 47.4093L139.129 50.1253ZM138.622 52.768L139.669 50.6653L142.404 48.9279C143.006 49.6706 143.498 50.5026 143.864 51.4026L140.972 52.9133L138.622 52.768ZM138.608 54.1466C138.429 54.2399 138.241 54.2839 138.054 54.2933C137.908 54.2479 137.757 54.2213 137.605 54.2106C137.728 54.1279 137.842 54.0306 137.945 53.9199C138.113 53.8306 138.302 53.7719 138.509 53.7639L139.417 53.7253L138.608 54.1466ZM137.957 55.9853C137.852 55.8719 137.736 55.7746 137.609 55.6893C137.757 55.6786 137.904 55.6519 138.048 55.6079C138.238 55.6146 138.433 55.6573 138.616 55.7533L139.421 56.1733L138.509 56.1346C138.308 56.1266 138.122 56.0706 137.957 55.9853V55.9853ZM136.862 52.9333C136.928 52.7986 136.977 52.6586 137.012 52.5119C137.113 52.3493 137.248 52.2039 137.422 52.0933L138.189 51.6066L137.7 52.3759C137.592 52.5466 137.45 52.6786 137.293 52.7786C137.142 52.8133 137 52.8653 136.862 52.9333V52.9333ZM137.294 57.1199C137.456 57.2213 137.602 57.3559 137.713 57.5306L138.2 58.2973L137.43 57.8079C137.26 57.6999 137.128 57.5586 137.028 57.4013C136.992 57.2506 136.94 57.1079 136.873 56.9706C137.008 57.0359 137.148 57.0866 137.294 57.1199V57.1199ZM144.578 55.0519C144.578 55.5066 144.536 55.9506 144.476 56.3879L141.173 56.2479L139.212 54.9479L141.168 53.6506L144.445 53.5119C144.525 54.0146 144.578 54.5266 144.578 55.0519ZM134.854 44.4919C129.021 44.4919 124.293 49.2199 124.293 55.0519C124.293 60.8839 129.021 65.6133 134.854 65.6133C140.686 65.6133 145.414 60.8839 145.414 55.0519C145.414 49.2199 140.686 44.4919 134.854 44.4919Z" fill="#E3E5E5"/>
<path d="M134.854 43.112C142.065 43.112 147.972 48.6706 148.534 55.7373C148.564 55.372 148.582 55.0053 148.582 54.6333C148.582 47.052 142.436 40.9053 134.854 40.9053C127.272 40.9053 121.125 47.052 121.125 54.6333C121.125 55.0053 121.144 55.372 121.173 55.7373C121.736 48.6706 127.644 43.112 134.854 43.112" fill="#383838"/>
<path d="M134.854 68.1749C127.024 68.1749 120.629 62.0269 120.234 54.2949C120.222 54.5456 120.216 54.7976 120.216 55.0522C120.216 63.1376 126.769 69.6909 134.854 69.6909C142.938 69.6909 149.493 63.1376 149.493 55.0522C149.493 54.7976 149.486 54.5456 149.473 54.2949C149.078 62.0269 142.685 68.1749 134.854 68.1749" fill="#111111"/>
<path d="M134.854 44.4921C140.581 44.4921 145.232 49.0521 145.398 54.7388L145.414 54.4254C145.414 48.5921 140.686 43.8641 134.854 43.8641C129.021 43.8641 124.293 48.5921 124.293 54.4254L124.309 54.7388C124.477 49.0521 129.128 44.4921 134.854 44.4921Z" fill="#111111"/>
<path d="M134.854 65.6454C140.581 65.6454 145.232 61.0854 145.398 55.3988L145.414 55.7121C145.414 61.5454 140.686 66.2734 134.854 66.2734C129.021 66.2734 124.293 61.5454 124.293 55.7121L124.309 55.3988C124.477 61.0854 129.128 65.6454 134.854 65.6454Z" fill="#383838"/>
<path d="M116.27 52.5481C116.27 53.1827 115.756 53.6987 115.121 53.6987H56.5878C55.9531 53.6987 55.4385 53.1827 55.4385 52.5481C55.4385 51.9134 55.9531 51.3974 56.5878 51.3974H115.121C115.756 51.3974 116.27 51.9134 116.27 52.5481Z" fill="#B2B2B2"/>
<path d="M116.239 52.2881C116.12 51.7788 115.667 51.3974 115.121 51.3974H56.588C56.0427 51.3974 55.588 51.7788 55.4707 52.2881H116.239Z" fill="white"/>
<path d="M55.6455 53.2001C55.8522 53.5001 56.1962 53.6987 56.5882 53.6987H115.121C115.513 53.6987 115.857 53.5001 116.063 53.2001H55.6455Z" fill="#939393"/>
<path d="M85.3705 27.6695H78.5265C78.3865 27.6695 78.2719 27.5549 78.2719 27.4149V26.9602L78.5265 27.0549H85.3705L85.6252 26.9602V27.4149C85.6252 27.5549 85.5105 27.6695 85.3705 27.6695ZM78.5265 25.5202H85.3705C85.5105 25.5202 85.6252 25.6349 85.6252 25.7749V26.6309C85.6252 26.7709 85.5105 26.8855 85.3705 26.8855H78.5265C78.3865 26.8855 78.2719 26.7709 78.2719 26.6309V25.7749C78.2719 25.6349 78.3865 25.5202 78.5265 25.5202ZM85.7905 25.7509C85.7772 25.5282 85.5959 25.3509 85.3705 25.3509H78.5265C78.2999 25.3509 78.1172 25.5309 78.1065 25.7549H78.1025V25.7749V26.6309V27.4149C78.1025 27.6495 78.2932 27.8389 78.5265 27.8389H85.3705C85.6052 27.8389 85.7945 27.6495 85.7945 27.4149V26.6309V25.7749V25.7495L85.7905 25.7509" fill="#BF0C0C"/>
<path d="M162.315 46.4937L152.917 46.2696L150.825 41.8777C150.825 41.8777 158.981 41.8777 161.073 41.8777C163.164 41.8777 162.315 46.4937 162.315 46.4937" fill="#F3B4B4"/>
<path d="M7.01975 42.572L7.52509 34.756L1.54378 34.888C1.06511 35.8186 1.0411 39.668 1.10244 42.7026L7.01975 42.572Z" fill="#7F374D"/>
<path d="M7.40495 36.6053L7.67161 32.4827L1.69027 32.616C1.39827 33.184 1.27561 34.8453 1.23828 36.7427L7.40495 36.6053Z" fill="#70221E"/>
<path d="M154.642 30.3867V29.9147C154.642 29.2214 154.08 28.6601 153.387 28.6601H148.787C148.094 28.6601 147.532 29.2214 147.532 29.9147V30.3867H154.642Z" fill="#E37333"/>
<path d="M161.55 41.3081L162.167 41.2988C163.074 41.2828 163.759 40.4521 163.695 39.4441L163.276 32.7468C163.212 31.7388 162.426 30.9334 161.519 30.9481L160.9 30.9588L161.55 41.3081" fill="#F9F9F9"/>
<path d="M119.496 22.2999C119.271 25.5679 116.824 24.7279 115.648 24.6772C114.471 24.6266 114.147 23.5612 114.289 22.1639C114.491 20.1959 115.217 19.5759 116.393 19.6252C117.569 19.6759 119.688 19.4972 119.496 22.2999Z" fill="#200000"/>
<path d="M114.533 21.064C114.773 21.6773 115.283 22.0986 115.931 22.1266C116.664 22.1573 119.905 22.9 118.731 20.416C118.161 19.7413 117.104 19.836 116.425 19.808C115.664 19.776 114.931 20.2946 114.533 21.064" fill="#2D2D2D"/>
<path d="M160.595 35.5562L131.24 30.4575L160.028 31.3268L160.595 35.5562Z" fill="#F3B4B4"/>
<path d="M78.1602 22.3843V21.7669L94.9495 4.9776C96.3842 5.02427 97.6682 5.06961 98.7962 5.11494C93.0402 10.8696 87.2855 16.6243 81.5308 22.3803L78.1602 22.3843" fill="#D9EDF4"/>
<path d="M90.0645 22.3696L99.2685 22.3576L90.0645 22.3696ZM110.843 14.2976C108.864 11.7163 106.916 9.15098 105.368 7.06564C106.919 9.15231 108.864 11.715 110.843 14.2976Z" fill="#C0C0C0"/>
<path d="M90.0645 22.3696L105.368 7.06564C106.916 9.15098 108.864 11.7163 110.843 14.2976L102.787 22.3536L99.2685 22.3576L90.0658 22.3696" fill="#D9EDF4"/>
<path d="M105.763 22.3496L107.832 22.3469L105.763 22.3496ZM113.728 18.0509C113.205 17.3723 112.671 16.6789 112.133 15.9803V15.9789C112.671 16.6776 113.205 17.3723 113.728 18.0509Z" fill="#C0C0C0"/>
<path d="M105.763 22.3496L112.133 15.9803C112.671 16.6789 113.205 17.3723 113.728 18.0509C113.775 18.1096 113.82 18.1696 113.865 18.2296C112.495 19.6016 111.123 20.9723 109.751 22.3443L107.832 22.3469L105.763 22.3496V22.3496ZM78.1602 18.7949V4.57894C83.5655 4.67494 88.2162 4.78294 92.0642 4.89227C87.4295 9.52694 82.7948 14.1616 78.1602 18.7949Z" fill="#D9EDF4"/>
<g filter="url(#filter0_d)">
<path d="M12.8764 47.903L19.3057 35.6191C19.4512 35.341 19.2448 34.9988 18.9576 35.0421L14.681 35.6871L16.5371 27.2302C16.5715 27.0295 16.3383 26.9145 16.2272 27.0773L9.07157 38.8407C8.88744 39.1103 9.08241 39.4938 9.38563 39.4584L14.1005 38.9077L12.5549 47.7693C12.5176 47.9831 12.7779 48.0913 12.8764 47.903Z" fill="#70AB13"/>
<path d="M11.0484 38.1846C10.9303 38.1951 10.8519 38.0518 10.9147 37.9404L16.4758 27.0462C16.4055 26.9844 16.2948 26.9805 16.2278 27.0786L9.07157 38.8407C8.88744 39.1104 9.08241 39.4938 9.38563 39.4584L14.1005 38.9077L12.5549 47.7693C12.534 47.8889 12.6067 47.973 12.6916 47.9931L15.3403 38.693C15.4645 38.2571 15.1512 37.8203 14.7405 37.8568L11.0484 38.1846Z" fill="#5A890F"/>
</g>
<defs>
<filter id="filter0_d" x="5" y="27" width="18.3536" height="29" filterUnits="userSpaceOnUse" color-interpolation-filters="sRGB">
<feFlood flood-opacity="0" result="BackgroundImageFix"/>
<feColorMatrix in="SourceAlpha" type="matrix" values="0 0 0 0 0 0 0 0 0 0 0 0 0 0 0 0 0 0 127 0"/>
<feOffset dy="4"/>
<feGaussianBlur stdDeviation="2"/>
<feColorMatrix type="matrix" values="0 0 0 0 0 0 0 0 0 0 0 0 0 0 0 0 0 0 0.25 0"/>
<feBlend mode="normal" in2="BackgroundImageFix" result="effect1_dropShadow"/>
<feBlend mode="normal" in="SourceGraphic" in2="effect1_dropShadow" result="shape"/>
</filter>
</defs>
</svg>
