<svg width="160" height="74" viewBox="0 0 160 74" fill="none" xmlns="http://www.w3.org/2000/svg">
<path d="M159.569 70.3947C159.569 71.8574 124.287 73.0454 80.7659 73.0454C37.2451 73.0454 1.96387 71.8574 1.96387 70.3947C1.96387 68.9307 37.2451 67.7441 80.7659 67.7441C124.287 67.7441 159.569 68.9307 159.569 70.3947Z" fill="black" fill-opacity="0.3"/>
<path d="M89.1168 24.9041L121.47 24.8441C116.972 19.7734 107.152 8.66806 102.473 3.11206C100.83 2.81073 97.9428 2.37072 83.748 2.06672L89.1168 24.9041" fill="#2D2D2D"/>
<path d="M85.5566 2.784C98.7186 3.08267 101.656 3.50534 103.072 3.75868C107.543 9.05468 116.411 19.0974 120.938 24.2054L90.605 24.26L85.5566 2.784Z" fill="#80C2DC"/>
<path d="M11.9203 41.6333C11.9203 42.3253 11.3584 42.8879 10.6656 42.8879H1.25469C0.561987 42.8879 0 42.3253 0 41.6333V16.5373C0 15.8453 0.561987 15.2826 1.25469 15.2826H10.6656C11.3584 15.2826 11.9203 15.8453 11.9203 16.5373V41.6333" fill="#2D2D2D"/>
<path d="M10.2658 15.5306H1.65332C1.01895 15.5306 0.504883 16.0453 0.504883 16.68V20.8906C0.504883 20.256 1.01895 19.7413 1.65332 19.7413H10.2658C10.9002 19.7413 11.4143 20.256 11.4143 20.8906V16.68C11.4143 16.0453 10.9002 15.5306 10.2658 15.5306" fill="#383838"/>
<path d="M10.2658 42.4294H1.65332C1.01895 42.4294 0.504883 41.9161 0.504883 41.2814V37.0708C0.504883 37.7055 1.01895 38.2188 1.65332 38.2188H10.2658C10.9002 38.2188 11.4143 37.7055 11.4143 37.0708V41.2814C11.4143 41.9161 10.9002 42.4294 10.2658 42.4294" fill="#111111"/>
<path d="M107.228 54.128C107.228 55.6867 105.964 56.9507 104.405 56.9507H61.1164C59.5571 56.9507 58.293 55.6867 58.293 54.128C58.293 52.568 59.5571 51.304 61.1164 51.304H104.405C105.964 51.304 107.228 52.568 107.228 54.128Z" fill="#2D2D2D"/>
<path d="M14.4356 53.6067H157.023C157.919 52.952 158.516 51.9507 158.516 50.416C158.516 46.4427 158.726 42.0507 157.052 41.8414V35.0454C157.052 30.0254 153.288 30.9667 153.288 30.9667C153.288 30.9667 153.079 29.5027 150.57 27.2027C145.76 26.1574 117.946 24.2747 117.946 24.2747C117.946 24.2747 104.495 6.85868 100.624 1.39734C99.1594 -0.903989 20.1804 0.330678 20.1804 0.330678C17.7908 5.81334 10.0382 25.532 10.0382 25.532C8.47774 34.832 9.04649 43.3054 8.57409 43.3054C7.52878 43.3054 8.78346 52.0893 8.78346 52.0893C8.78346 52.0893 11.2137 52.8787 14.4356 53.6067" fill="#E3E5E5"/>
<path d="M152.243 31.3853L114.816 30.1373L114.991 25.3946L117.109 25.4253L150.047 27.9346L152.243 31.3853ZM143.668 29.2946C142.975 29.2946 142.413 29.8559 142.413 30.5493V31.0213H149.524V30.5493C149.524 29.8559 148.961 29.2946 148.269 29.2946H143.668V29.2946ZM114.2 30.1173L79.7805 28.9706V24.8693L114.367 25.3853L114.2 30.1173V30.1173ZM79.1533 28.9493L78.8398 28.9386V24.8559L79.1533 24.8613V28.9493ZM78.2122 28.9173L48.5018 27.9279L48.2513 24.4013L78.2122 24.8466V28.9173V28.9173ZM47.871 27.9066L11.083 26.6799L11.7106 23.8573L14.0262 23.8906C14.0101 23.9333 13.9945 23.9746 13.9789 24.0146L23.3205 24.0293L47.621 24.3906L47.871 27.9066Z" fill="#F7F7F7"/>
<path d="M114.097 32.9548H48.7262V33.5814H114.097V32.9548ZM114.6 34.8361H49.981V35.4641H114.6V34.8361ZM114.6 27.0988H10.2471V26.4708H114.6V27.0988Z" fill="#CECECE"/>
<path d="M60.1814 49.5788H78.2126V3.92949L77.7527 3.91882C70.8099 3.81748 65.1656 3.76015 55.247 3.75215L54.5714 3.75082L54.3547 4.39082C52.261 10.5735 50.249 16.9042 48.2047 23.7415L48.8735 33.1602L60.1814 49.5788V49.5788ZM78.8402 50.2068H59.8516L48.2599 33.3748L47.5703 23.6708L47.587 23.6161C49.6396 16.7508 51.659 10.3975 53.7599 4.18949L54.1214 3.12416H55.2475C65.1699 3.13349 70.8162 3.19082 77.7651 3.29216L78.8402 3.31748V50.2068V50.2068ZM79.7808 3.94815V49.6348L108.277 49.5802L113.975 36.4908L114.44 23.3481C111.359 19.3855 104.014 9.90018 100.64 5.24418L100.412 4.92816L100.028 4.86683C98.1235 4.56017 94.9047 4.21216 80.738 3.96416L79.7808 3.94815ZM79.1536 50.2642V3.30951L80.749 3.3375C94.9568 3.5855 98.2016 3.93618 100.128 4.24685L100.768 4.35082L101.148 4.87617C104.542 9.56017 111.969 19.1468 115.005 23.0522L115.075 23.1415L114.574 36.6855L108.689 50.2068L79.1536 50.2642" fill="#BFBFBF"/>
<path d="M55.4055 4.69198C53.2316 11.1133 51.1899 17.5747 49.2492 24.0667H77.9014V4.85998C71.4259 4.76531 65.7019 4.70264 55.4055 4.69198V4.69198ZM52.4164 4.69198C40.6254 4.69331 25.7987 4.71463 21.5478 4.7493C19.4508 9.82397 15.756 19.3906 13.9795 24.0146L46.2987 24.0667C48.229 17.5747 50.2576 11.1133 52.4164 4.69198V4.69198ZM80.7222 4.90532C95.4582 5.16132 98.2816 5.53865 99.8784 5.79465C103.252 10.4533 110.461 19.764 113.767 24.0146L80.7222 24.0667V4.90532Z" fill="#2D2D2D"/>
<path d="M81.3931 5.5881C95.0701 5.83744 98.0868 6.19479 99.4973 6.41346C102.609 10.6921 108.583 18.4335 112.397 23.3468L81.3931 23.3934V5.5881ZM14.9551 23.3455C16.8947 18.3041 20.0441 10.1734 21.9988 5.4161C26.6155 5.38676 40.2316 5.36678 51.4837 5.36278C49.554 11.1374 47.6884 17.0508 45.7983 23.3934L14.9551 23.3455V23.3455ZM50.1504 23.3948C52.0577 17.0468 53.9389 11.1348 55.8864 5.36411C65.2348 5.37478 70.7395 5.4281 77.2296 5.52277V23.3948H50.1504" fill="#80C2DC"/>
<path d="M58.3009 53.464L58.2816 53.4626L58.2171 53.456L58.0697 53.436L58.0259 53.428L57.9493 53.4013L51.2988 41.8826C50.4327 40.3813 48.3259 39.1653 46.5931 39.1653H33.2921C31.5592 39.1653 29.4531 40.3813 28.5864 41.8826L21.9359 53.4013L21.8411 53.4973L21.6717 53.6053L10.1426 54.8067L39.9425 62.9626L70.2655 52.9253L58.3009 53.464ZM111.339 53.4787C111.655 53.4547 111.844 53.428 111.859 53.4013L118.51 41.8826C118.635 41.6653 118.792 41.4573 118.963 41.256C119.473 40.8733 119.962 40.4693 120.421 40.0373C121.302 39.504 122.308 39.1653 123.215 39.1653H136.516C138.249 39.1653 140.356 40.3813 141.221 41.8826L147.872 53.4013C150.673 53.0293 156.127 55.1253 156.127 55.1253L130.703 62.5453L105.233 55.2427L111.339 53.4787" fill="#2D2D2D"/>
<path d="M21.1061 55.6414L27.302 41.8827C28.0421 40.3813 30.0468 39.1654 31.7791 39.1654H45.0807C46.8129 39.1654 49.0217 40.3813 50.014 41.8827L57.6332 53.4014C57.9608 53.896 111.299 53.896 111.543 53.4014L117.225 41.8827C117.965 40.3813 119.97 39.1654 121.703 39.1654H135.004C136.736 39.1654 138.945 40.3813 139.937 41.8827L147.556 53.4014C147.884 53.896 155.956 55.1254 155.956 55.1254C157.293 54.512 158.201 53.428 158.041 51.5173C158.016 51.2227 157.993 50.924 157.969 50.628H150.068L143.039 40C141.276 37.336 137.764 35.4014 134.687 35.4014H121.386C118.309 35.4014 115.122 37.336 113.807 40L108.565 50.628H60.1452L53.116 40C51.3535 37.336 47.8411 35.4014 44.764 35.4014H31.4624C28.3859 35.4014 25.1983 37.336 23.8837 40L18.6421 50.628H7.91602C8.21134 52.068 8.84727 55.4347 8.84727 55.4347C8.84727 55.4347 11.3645 56.356 16.0187 57.1587C16.0187 57.1587 20.8619 56.136 21.1061 55.6414" fill="#D4D6D6"/>
<path d="M18.7343 51.7295L23.9764 41.1015C25.2911 38.4375 28.478 36.5028 31.5551 36.5028H44.8567C47.9332 36.5028 51.4463 38.4375 53.2088 41.1015L60.2373 51.7295H108.658L113.9 41.1015C115.215 38.4375 118.401 36.5028 121.479 36.5028H134.78C137.857 36.5028 141.369 38.4375 143.132 41.1015L150.161 51.7295H158.045L158.041 51.5175C158.016 51.2228 157.993 50.9242 157.969 50.6282H150.068L143.039 40.0002C141.276 37.3362 137.764 35.4015 134.687 35.4015H121.386C118.309 35.4015 115.122 37.3362 113.807 40.0002L108.565 50.6282H60.1452L53.116 40.0002C51.3535 37.3362 47.8411 35.4015 44.764 35.4015H31.4624C28.3859 35.4015 25.1983 37.3362 23.8837 40.0002L18.6421 50.6282H7.91602C7.99779 51.0255 8.07696 51.3962 8.14935 51.7295H18.7343Z" fill="white"/>
<path d="M54.5809 56.0614C54.5809 64.1467 48.0272 70.7014 39.9422 70.7014C31.8574 70.7014 25.3037 64.1467 25.3037 56.0614C25.3037 47.9774 31.8574 41.4241 39.9422 41.4241C48.0272 41.4241 54.5809 47.9774 54.5809 56.0614Z" fill="#242424"/>
<path d="M46.3298 63.3826L45.3037 61.3212L47.359 62.3439C47.0428 62.7159 46.6976 63.0612 46.3298 63.3826ZM38.5033 65.6679L38.6465 62.2919L39.947 60.3306L41.2444 62.2866L41.3876 65.6666C40.9152 65.7372 40.435 65.7866 39.9428 65.7866C39.4528 65.7866 38.9746 65.7386 38.5033 65.6679V65.6679ZM32.535 62.3519L34.5829 61.3332L33.561 63.3879C33.1944 63.0679 32.8496 62.7239 32.535 62.3519ZM33.6142 48.6879L34.5714 50.6119L32.6428 49.6519C32.9444 49.3092 33.2673 48.9866 33.6142 48.6879ZM37.9678 48.6466L36.7902 46.8706C37.2148 46.7252 37.6506 46.6039 38.0996 46.5172L37.9678 48.6466ZM37.9834 63.2919L38.1272 65.6106C37.6381 65.5186 37.1642 65.3852 36.7037 65.2212L37.9834 63.2919ZM35.6574 60.7986L37.7648 59.7506L37.9094 62.0932L36.3444 65.0906C35.4392 64.7292 34.6012 64.2399 33.8537 63.6372L35.6574 60.7986ZM33.8152 58.0119L36.1642 58.1572L35.1184 60.2586L32.2933 62.0532C31.7022 61.2986 31.2225 60.4572 30.873 59.5466L33.8152 58.0119ZM32.6173 57.9372L30.7392 59.1826C30.5876 58.7346 30.4678 58.2732 30.3818 57.7986L32.6173 57.9372ZM32.6132 54.0132L30.409 54.1492C30.5012 53.6866 30.6345 53.2399 30.7897 52.8039L32.6132 54.0132ZM36.1548 53.7932L33.8116 53.9386L30.9257 52.4319C31.2886 51.5319 31.7798 50.6986 32.3804 49.9546L35.1058 51.6866L36.1548 53.7932ZM37.7481 52.1932L35.6465 51.1466L33.923 48.4346C34.672 47.8426 35.509 47.3612 36.4126 47.0092L37.8933 49.8439L37.7481 52.1932ZM37.4918 53.8039C37.3304 53.7026 37.1845 53.5692 37.0736 53.3946L36.5866 52.6279L37.3569 53.1159C37.5266 53.2239 37.659 53.3666 37.7594 53.5226C37.7944 53.6732 37.8465 53.8159 37.9137 53.9532C37.7793 53.8879 37.6392 53.8386 37.4918 53.8039ZM37.087 58.5479C37.1954 58.3786 37.3366 58.2452 37.4933 58.1452C37.6438 58.1106 37.787 58.0586 37.9241 57.9906C37.859 58.1252 37.809 58.2666 37.7746 58.4132C37.6741 58.5746 37.5392 58.7199 37.3648 58.8306L36.5981 59.3186L37.087 58.5479ZM36.1704 55.1706L35.3657 54.7506L36.2772 54.7892C36.4788 54.7972 36.6642 54.8546 36.8293 54.9399C36.9345 55.0519 37.0512 55.1506 37.1777 55.2359C37.0293 55.2466 36.8824 55.2732 36.7381 55.3159C36.5481 55.3106 36.3542 55.2666 36.1704 55.1706V55.1706ZM36.1782 56.7772C36.3574 56.6839 36.546 56.6399 36.7318 56.6319C36.8793 56.6759 37.0293 56.7026 37.1818 56.7132C37.0585 56.7972 36.9449 56.8932 36.8418 57.0039C36.6736 57.0932 36.484 57.1519 36.2772 57.1612L35.37 57.1999L36.1782 56.7772ZM30.2184 56.0612C30.2184 55.5426 30.2709 55.0359 30.3496 54.5372L33.6132 54.6759L35.5746 55.9759L33.6184 57.2732L30.3236 57.4132C30.2616 56.9706 30.2184 56.5212 30.2184 56.0612V56.0612ZM38.7053 51.3999L39.1277 52.2079C39.2209 52.3866 39.2652 52.5759 39.2736 52.7612C39.2288 52.9092 39.2022 53.0586 39.1918 53.2119C39.108 53.0879 39.0116 52.9746 38.9012 52.8706C38.8116 52.7026 38.7528 52.5132 38.7438 52.3066L38.7053 51.3999ZM38.7594 59.6279C38.7684 59.4266 38.8246 59.2412 38.91 59.0759C39.0225 58.9706 39.1209 58.8532 39.2058 58.7266C39.2168 58.8759 39.2433 59.0226 39.287 59.1666C39.2809 59.3572 39.237 59.5506 39.1413 59.7346L38.7209 60.5399L38.7594 59.6279ZM40.5881 52.7679C40.5944 52.5772 40.6381 52.3826 40.734 52.1999L41.1542 51.3946L41.1157 52.3066C41.1074 52.5079 41.0512 52.6932 40.9652 52.8586C40.8528 52.9639 40.7548 53.0799 40.6694 53.2066C40.659 53.0586 40.6318 52.9119 40.5881 52.7679V52.7679ZM40.6834 58.7239C40.7678 58.8466 40.8642 58.9599 40.9741 59.0626C41.0637 59.2306 41.1225 59.4212 41.1314 59.6279L41.17 60.5346L40.7476 59.7266C40.6542 59.5466 40.6105 59.3586 40.6022 59.1732C40.647 59.0252 40.6736 58.8759 40.6834 58.7239ZM41.3642 46.4532L41.2288 49.6426L39.9282 51.6039L38.6314 49.6466L38.496 46.4572C38.9694 46.3866 39.4496 46.3372 39.9428 46.3372C40.4272 46.3372 40.899 46.3852 41.3642 46.4532V46.4532ZM47.2293 49.6372L45.2924 50.6012L46.2528 48.6706C46.6012 48.9692 46.9257 49.2932 47.2293 49.6372ZM47.258 53.9972L49.0886 52.7839C49.2454 53.2212 49.3809 53.6692 49.4746 54.1346L47.258 53.9972ZM47.2626 57.9212L49.5058 57.7826C49.4209 58.2586 49.3017 58.7226 49.1501 59.1732L47.2626 57.9212ZM43.7209 58.1399L46.0637 57.9946L49.0162 59.5372C48.6678 60.4466 48.1886 61.2906 47.5985 62.0452L44.7694 60.2466L43.7209 58.1399ZM41.9818 62.0906L42.1272 59.7412L44.2293 60.7866L46.0376 63.6332C45.2908 64.2359 44.4528 64.7266 43.5476 65.0879L41.9818 62.0906ZM41.908 63.2879L43.1886 65.2199C42.7277 65.3826 42.2537 65.5172 41.7642 65.6092L41.908 63.2879ZM41.8918 48.6426L41.76 46.5132C42.21 46.5986 42.6465 46.7172 43.072 46.8612L41.8918 48.6426ZM44.2178 51.1359L42.111 52.1839L41.9662 49.8412L43.4496 46.9999C44.3542 47.3506 45.1928 47.8292 45.9433 48.4199L44.2178 51.1359ZM43.7116 53.7772L44.7574 51.6759L47.4928 49.9372C48.0954 50.6799 48.5881 51.5132 48.9528 52.4132L46.0605 53.9226L43.7116 53.7772ZM43.697 55.1572C43.5184 55.2506 43.3298 55.2946 43.1438 55.3026C42.996 55.2572 42.846 55.2319 42.6938 55.2212C42.8173 55.1372 42.9309 55.0412 43.034 54.9306C43.2022 54.8412 43.3918 54.7826 43.5981 54.7732L44.5058 54.7346L43.697 55.1572ZM43.0465 56.9946C42.9408 56.8826 42.8241 56.7839 42.6976 56.6986C42.8465 56.6879 42.9928 56.6612 43.137 56.6172C43.3277 56.6239 43.5214 56.6679 43.7048 56.7639L44.51 57.1839L43.5981 57.1452C43.397 57.1372 43.2116 57.0799 43.0465 56.9946V56.9946ZM41.9517 53.9426C42.0168 53.8092 42.0662 53.6679 42.1006 53.5212C42.2017 53.3599 42.3366 53.2132 42.511 53.1026L43.2777 52.6159L42.7881 53.3852C42.6804 53.5559 42.5386 53.6879 42.3824 53.7892C42.2318 53.8239 42.0886 53.8759 41.9517 53.9426V53.9426ZM42.3834 58.1306C42.5449 58.2306 42.6908 58.3652 42.8017 58.5399L43.2886 59.3066L42.5189 58.8172C42.3485 58.7092 42.2162 58.5679 42.1157 58.4119C42.0809 58.2612 42.0293 58.1172 41.9616 57.9799C42.096 58.0452 42.2366 58.0959 42.3834 58.1306V58.1306ZM49.6673 56.0612C49.6673 56.5159 49.6252 56.9599 49.5648 57.3986L46.2621 57.2586L44.3006 55.9572L46.2574 54.6612L49.5334 54.5212C49.6137 55.0239 49.6673 55.5359 49.6673 56.0612ZM39.9428 45.5012C34.1105 45.5012 29.3818 50.2292 29.3818 56.0612C29.3818 61.8946 34.1105 66.6226 39.9428 66.6226C45.7757 66.6226 50.5037 61.8946 50.5037 56.0612C50.5037 50.2292 45.7757 45.5012 39.9428 45.5012Z" fill="#E3E5E5"/>
<path d="M39.9424 44.1212C47.1529 44.1212 53.0607 49.6812 53.6232 56.7466C53.6524 56.3826 53.6711 56.0159 53.6711 55.6439C53.6711 48.0612 47.5248 41.9146 39.9424 41.9146C32.3601 41.9146 26.2139 48.0612 26.2139 55.6439C26.2139 56.0159 26.2325 56.3826 26.2617 56.7466C26.8243 49.6812 32.732 44.1212 39.9424 44.1212Z" fill="#383838"/>
<path d="M39.9422 69.1854C32.1121 69.1854 25.7173 63.0361 25.323 55.3041C25.31 55.5548 25.3037 55.8081 25.3037 56.0614C25.3037 64.1467 31.8574 70.7014 39.9422 70.7014C48.0272 70.7014 54.5809 64.1467 54.5809 56.0614C54.5809 55.8081 54.5746 55.5548 54.5616 55.3041C54.1673 63.0361 47.773 69.1854 39.9422 69.1854" fill="#111111"/>
<path d="M39.9428 45.5014C45.6694 45.5014 50.3204 50.0627 50.4876 55.748L50.5037 55.4347C50.5037 49.6027 45.7757 44.8734 39.9428 44.8734C34.1105 44.8734 29.3818 49.6027 29.3818 55.4347L29.3981 55.748C29.5652 50.0627 34.2162 45.5014 39.9428 45.5014Z" fill="#111111"/>
<path d="M39.9428 66.6561C45.6694 66.6561 50.3204 62.0947 50.4876 56.4094L50.5037 56.7227C50.5037 62.5547 45.7757 67.2827 39.9428 67.2827C34.1105 67.2827 29.3818 62.5547 29.3818 56.7227L29.3981 56.4094C29.5652 62.0947 34.2162 66.6561 39.9428 66.6561Z" fill="#383838"/>
<path d="M144.844 56.0614C144.844 64.1467 138.291 70.7014 130.206 70.7014C122.122 70.7014 115.567 64.1467 115.567 56.0614C115.567 47.9774 122.122 41.4241 130.206 41.4241C138.291 41.4241 144.844 47.9774 144.844 56.0614Z" fill="#242424"/>
<path d="M136.592 63.3826L135.567 61.3212L137.622 62.3439C137.306 62.7159 136.96 63.0612 136.592 63.3826ZM128.767 65.6679L128.91 62.2919L130.211 60.3306L131.507 62.2866L131.651 65.6666C131.178 65.7372 130.698 65.7866 130.206 65.7866C129.716 65.7866 129.238 65.7386 128.767 65.6679ZM122.798 62.3519L124.847 61.3332L123.824 63.3879C123.458 63.0679 123.113 62.7239 122.798 62.3519V62.3519ZM123.877 48.6879L124.835 50.6119L122.906 49.6519C123.207 49.3092 123.53 48.9866 123.877 48.6879V48.6879ZM128.231 48.6466L127.053 46.8706C127.478 46.7252 127.914 46.6039 128.363 46.5172L128.231 48.6466ZM128.247 63.2919L128.39 65.6106C127.901 65.5186 127.428 65.3852 126.967 65.2212L128.247 63.2919ZM125.92 60.7986L128.028 59.7506L128.173 62.0932L126.608 65.0906C125.703 64.7292 124.864 64.2399 124.117 63.6372L125.92 60.7986ZM124.078 58.0119L126.427 58.1572L125.382 60.2586L122.557 62.0532C121.965 61.2986 121.486 60.4572 121.136 59.5466L124.078 58.0119ZM122.881 57.9372L121.003 59.1826C120.851 58.7346 120.731 58.2732 120.646 57.7986L122.881 57.9372ZM122.876 54.0132L120.672 54.1492C120.764 53.6866 120.898 53.2399 121.053 52.8039L122.876 54.0132ZM126.418 53.7932L124.075 53.9386L121.189 52.4319C121.552 51.5319 122.043 50.6986 122.643 49.9546L125.37 51.6866L126.418 53.7932ZM128.011 52.1932L125.91 51.1466L124.186 48.4346C124.935 47.8426 125.773 47.3612 126.676 47.0092L128.157 49.8439L128.011 52.1932ZM127.755 53.8039C127.594 53.7026 127.448 53.5692 127.337 53.3946L126.85 52.6279L127.62 53.1159C127.79 53.2239 127.923 53.3666 128.023 53.5226C128.058 53.6732 128.11 53.8159 128.177 53.9532C128.042 53.8879 127.902 53.8386 127.755 53.8039ZM127.35 58.5479C127.459 58.3786 127.6 58.2452 127.756 58.1452C127.907 58.1106 128.05 58.0586 128.187 57.9906C128.122 58.1252 128.072 58.2666 128.038 58.4132C127.937 58.5746 127.802 58.7199 127.628 58.8306L126.861 59.3186L127.35 58.5479ZM126.434 55.1706L125.629 54.7506L126.541 54.7892C126.742 54.7972 126.927 54.8546 127.092 54.9399C127.198 55.0519 127.314 55.1506 127.441 55.2359C127.292 55.2466 127.146 55.2732 127.002 55.3159C126.811 55.3106 126.617 55.2666 126.434 55.1706V55.1706ZM126.442 56.7772C126.62 56.6839 126.809 56.6399 126.995 56.6319C127.143 56.6759 127.293 56.7026 127.445 56.7132C127.322 56.7972 127.208 56.8932 127.105 57.0039C126.937 57.0932 126.747 57.1519 126.541 57.1612L125.633 57.1999L126.442 56.7772ZM120.482 56.0612C120.482 55.5426 120.535 55.0359 120.613 54.5372L123.876 54.6759L125.838 55.9759L123.882 57.2732L120.587 57.4132C120.525 56.9706 120.482 56.5212 120.482 56.0612V56.0612ZM128.969 51.3999L129.391 52.2079C129.485 52.3866 129.528 52.5759 129.537 52.7612C129.492 52.9092 129.465 53.0586 129.455 53.2119C129.371 53.0879 129.275 52.9746 129.164 52.8706C129.075 52.7026 129.016 52.5132 129.008 52.3066L128.969 51.3999ZM129.023 59.6279C129.032 59.4266 129.088 59.2412 129.173 59.0759C129.286 58.9706 129.384 58.8532 129.469 58.7266C129.48 58.8759 129.507 59.0226 129.551 59.1666C129.544 59.3572 129.5 59.5506 129.405 59.7346L128.985 60.5399L129.023 59.6279ZM130.851 52.7679C130.858 52.5772 130.902 52.3826 130.998 52.1999L131.418 51.3946L131.379 52.3066C131.371 52.5079 131.314 52.6932 131.228 52.8586C131.116 52.9639 131.018 53.0799 130.932 53.2066C130.922 53.0586 130.895 52.9119 130.851 52.7679ZM130.947 58.7239C131.031 58.8466 131.127 58.9599 131.238 59.0626C131.327 59.2306 131.386 59.4212 131.395 59.6279L131.434 60.5346L131.011 59.7266C130.918 59.5466 130.874 59.3586 130.866 59.1732C130.91 59.0252 130.936 58.8759 130.947 58.7239V58.7239ZM131.627 46.4532L131.492 49.6426L130.192 51.6039L128.894 49.6466L128.759 46.4572C129.232 46.3866 129.713 46.3372 130.206 46.3372C130.69 46.3372 131.162 46.3852 131.627 46.4532ZM137.492 49.6372L135.555 50.6012L136.516 48.6706C136.864 48.9692 137.188 49.2932 137.492 49.6372ZM137.522 53.9972L139.351 52.7839C139.508 53.2212 139.644 53.6692 139.738 54.1346L137.522 53.9972ZM137.526 57.9212L139.77 57.7826C139.684 58.2586 139.566 58.7226 139.414 59.1732L137.526 57.9212ZM133.984 58.1399L136.327 57.9946L139.279 59.5372C138.931 60.4466 138.452 61.2906 137.862 62.0452L135.032 60.2466L133.984 58.1399ZM132.246 62.0906L132.391 59.7412L134.492 60.7866L136.3 63.6332C135.554 64.2359 134.715 64.7266 133.811 65.0879L132.246 62.0906ZM132.171 63.2879L133.452 65.2199C132.991 65.3826 132.516 65.5172 132.027 65.6092L132.171 63.2879ZM132.155 48.6426L132.023 46.5132C132.474 46.5986 132.91 46.7172 133.335 46.8612L132.155 48.6426ZM134.482 51.1359L132.374 52.1839L132.23 49.8412L133.712 46.9999C134.618 47.3506 135.456 47.8292 136.207 48.4199L134.482 51.1359ZM133.975 53.7772L135.02 51.6759L137.756 49.9372C138.359 50.6799 138.851 51.5132 139.216 52.4132L136.323 53.9226L133.975 53.7772ZM133.96 55.1572C133.782 55.2506 133.592 55.2946 133.407 55.3026C133.259 55.2572 133.11 55.2319 132.956 55.2212C133.08 55.1372 133.194 55.0412 133.298 54.9306C133.466 54.8412 133.655 54.7826 133.862 54.7732L134.768 54.7346L133.96 55.1572ZM133.31 56.9946C133.204 56.8826 133.087 56.7839 132.96 56.6986C133.11 56.6879 133.256 56.6612 133.4 56.6172C133.591 56.6239 133.784 56.6679 133.968 56.7639L134.774 57.1839L133.862 57.1452C133.66 57.1372 133.475 57.0799 133.31 56.9946ZM132.215 53.9426C132.28 53.8092 132.33 53.6679 132.364 53.5212C132.464 53.3599 132.599 53.2132 132.774 53.1026L133.54 52.6159L133.051 53.3852C132.943 53.5559 132.802 53.6879 132.646 53.7892C132.495 53.8239 132.352 53.8759 132.215 53.9426V53.9426ZM132.647 58.1306C132.808 58.2306 132.954 58.3652 133.066 58.5399L133.552 59.3066L132.782 58.8172C132.611 58.7092 132.479 58.5679 132.379 58.4119C132.344 58.2612 132.292 58.1172 132.224 57.9799C132.359 58.0452 132.499 58.0959 132.647 58.1306V58.1306ZM139.93 56.0612C139.93 56.5159 139.888 56.9599 139.828 57.3986L136.526 57.2586L134.564 55.9572L136.52 54.6612L139.796 54.5212C139.878 55.0239 139.93 55.5359 139.93 56.0612ZM130.206 45.5012C124.374 45.5012 119.646 50.2292 119.646 56.0612C119.646 61.8946 124.374 66.6226 130.206 66.6226C136.039 66.6226 140.767 61.8946 140.767 56.0612C140.767 50.2292 136.039 45.5012 130.206 45.5012" fill="#E3E5E5"/>
<path d="M130.205 44.1212C137.416 44.1212 143.324 49.6812 143.886 56.7466C143.916 56.3826 143.934 56.0159 143.934 55.6439C143.934 48.0612 137.788 41.9146 130.205 41.9146C122.623 41.9146 116.477 48.0612 116.477 55.6439C116.477 56.0159 116.496 56.3826 116.525 56.7466C117.087 49.6812 122.995 44.1212 130.205 44.1212" fill="#383838"/>
<path d="M130.206 69.1854C122.376 69.1854 115.982 63.0361 115.587 55.3041C115.574 55.5548 115.567 55.8081 115.567 56.0614C115.567 64.1467 122.122 70.7014 130.206 70.7014C138.291 70.7014 144.844 64.1467 144.844 56.0614C144.844 55.8081 144.838 55.5548 144.826 55.3041C144.431 63.0361 138.036 69.1854 130.206 69.1854Z" fill="#111111"/>
<path d="M130.206 45.5014C135.932 45.5014 140.583 50.0627 140.751 55.748L140.767 55.4347C140.767 49.6027 136.039 44.8734 130.206 44.8734C124.374 44.8734 119.646 49.6027 119.646 55.4347L119.661 55.748C119.828 50.0627 124.479 45.5014 130.206 45.5014" fill="#111111"/>
<path d="M130.206 66.6561C135.932 66.6561 140.583 62.0947 140.751 56.4094L140.767 56.7227C140.767 62.5547 136.039 67.2827 130.206 67.2827C124.374 67.2827 119.646 62.5547 119.646 56.7227L119.661 56.4094C119.828 62.0947 124.479 66.6561 130.206 66.6561" fill="#383838"/>
<path d="M113.555 54.4934C113.555 55.1294 113.04 55.644 112.404 55.644H58.0318C57.397 55.644 56.8818 55.1294 56.8818 54.4934C56.8818 53.8587 57.397 53.344 58.0318 53.344H112.404C113.04 53.344 113.555 53.8587 113.555 54.4934" fill="#B2B2B2"/>
<path d="M113.522 54.2334C113.404 53.7241 112.949 53.3441 112.404 53.3441H58.0317C57.4865 53.3441 57.0322 53.7241 56.9141 54.2334H113.522Z" fill="white"/>
<path d="M57.0898 55.1454C57.2966 55.4467 57.6398 55.644 58.032 55.644H112.404C112.797 55.644 113.14 55.4467 113.347 55.1454H57.0898Z" fill="#939393"/>
<path d="M56.5866 29.456H49.7424C49.6022 29.456 49.4881 29.3414 49.4881 29.2V28.7467L49.7424 28.84H56.5866L56.8408 28.7467V29.2C56.8408 29.3414 56.7266 29.456 56.5866 29.456ZM49.7424 27.3054H56.5866C56.7266 27.3054 56.8408 27.42 56.8408 27.56V28.416C56.8408 28.556 56.7266 28.6707 56.5866 28.6707H49.7424C49.6022 28.6707 49.4881 28.556 49.4881 28.416V27.56C49.4881 27.42 49.6022 27.3054 49.7424 27.3054ZM57.0053 27.536C56.9924 27.3134 56.8116 27.136 56.5866 27.136H49.7424C49.5152 27.136 49.3329 27.316 49.322 27.54H49.3184V27.56V28.416V29.2C49.3184 29.4347 49.5085 29.624 49.7424 29.624H56.5866C56.8204 29.624 57.0105 29.4347 57.0105 29.2V28.416V27.56V27.536H57.0053" fill="#BFBFBF"/>
<path d="M87.9371 29.456H81.0928C80.9528 29.456 80.8387 29.3414 80.8387 29.2V28.7467L81.0928 28.84H87.9371L88.1913 28.7467V29.2C88.1913 29.3414 88.0772 29.456 87.9371 29.456ZM81.0928 27.3054H87.9371C88.0772 27.3054 88.1913 27.42 88.1913 27.56V28.416C88.1913 28.556 88.0772 28.6707 87.9371 28.6707H81.0928C80.9528 28.6707 80.8387 28.556 80.8387 28.416V27.56C80.8387 27.42 80.9528 27.3054 81.0928 27.3054ZM88.3564 27.536C88.3428 27.3134 88.1621 27.136 87.9371 27.136H81.0928C80.8657 27.136 80.6835 27.316 80.6725 27.54H80.6689V27.56V28.416V29.2C80.6689 29.4347 80.8591 29.624 81.0928 29.624H87.9371C88.1709 29.624 88.3611 29.4347 88.3611 29.2V28.416V27.56V27.536H88.3564" fill="#BFBFBF"/>
<path d="M157.667 47.5039L148.27 47.2786L146.178 42.8879C146.178 42.8879 154.334 42.8879 156.424 42.8879C158.516 42.8879 157.667 47.5039 157.667 47.5039" fill="#F7F7F7"/>
<path d="M13.8556 49.2146V43.4613H8.37172C7.98891 44.1399 8.19464 46.9759 8.43162 49.2146H13.8556" fill="#7F374D"/>
<path d="M13.8561 44.8228V41.7881H8.37227C8.13842 42.2028 8.12487 43.4254 8.20301 44.8228H13.8561" fill="#70221E"/>
<path d="M149.525 31.0215V30.5495C149.525 29.8561 148.962 29.2948 148.27 29.2948H143.669C142.975 29.2948 142.414 29.8561 142.414 30.5495V31.0215H149.525" fill="#E37333"/>
<path d="M114.847 23.3095C114.622 26.5788 112.175 25.7375 110.999 25.6881C109.823 25.6375 109.498 24.5708 109.641 23.1748C109.842 21.2055 110.569 20.5855 111.746 20.6361C112.922 20.6855 115.04 20.5081 114.847 23.3095" fill="#200000"/>
<path d="M109.885 22.0733C110.125 22.6866 110.634 23.1093 111.282 23.1359C112.015 23.1679 115.257 23.9106 114.083 21.4253C113.512 20.7506 112.456 20.8466 111.777 20.8172C111.016 20.7852 110.282 21.3053 109.885 22.0733Z" fill="#2D2D2D"/>
<path d="M155.947 36.5667L126.591 31.4667L155.38 32.3373L155.947 36.5667Z" fill="#F7F7F7"/>
<path d="M68.1525 23.3948H50.1504C50.8613 21.0281 51.5692 18.7375 52.278 16.4761L63.3697 5.38543C68.6124 5.41077 72.6812 5.4561 77.2296 5.52277V14.3174C74.204 17.3441 71.178 20.3694 68.1525 23.3948" fill="#D9EDF4"/>
<path d="M102.818 10.8748C102.042 9.84676 101.31 8.87073 100.651 7.98273C101.31 8.87073 102.042 9.84676 102.819 10.8748" fill="#C0C0C0"/>
<path d="M81.3936 23.3933V18.6787L94.1088 5.96265C97.429 6.12798 98.715 6.292 99.4978 6.41333C99.8484 6.896 100.235 7.4213 100.652 7.98263C101.311 8.87063 102.042 9.84666 102.819 10.8747L90.3134 23.38L81.3936 23.3933Z" fill="#D9EDF4"/>
<path d="M49.8267 10.4041C50.3753 8.70672 50.9267 7.02938 51.4835 5.36271C50.9278 7.02538 50.3778 8.70672 49.8304 10.4L49.8267 10.4041V10.4041ZM40.5674 5.37072C42.509 5.36939 44.4851 5.36671 46.4403 5.36538C44.4851 5.36671 42.509 5.36939 40.5674 5.37072V5.37072ZM46.4653 5.36538C46.4814 5.36538 46.4971 5.36538 46.5132 5.36538C46.4976 5.36538 46.481 5.36538 46.4653 5.36538ZM46.5455 5.36538C46.5528 5.36538 46.5606 5.36538 46.5679 5.36538C46.56 5.36538 46.5532 5.36538 46.5455 5.36538Z" fill="#C0C0C0"/>
<path d="M36.8508 23.3801L22.5811 23.3574L40.5675 5.37079C42.5091 5.36945 44.4852 5.36678 46.4404 5.36545C46.4487 5.36545 46.4571 5.36545 46.4653 5.36545C46.4811 5.36545 46.4977 5.36545 46.5133 5.36545C46.5243 5.36545 46.5347 5.36545 46.5456 5.36545C46.5533 5.36545 46.5601 5.36545 46.568 5.36545C48.2325 5.36411 49.882 5.36278 51.4836 5.36278C50.9268 7.02944 50.3753 8.70679 49.8268 10.4041L36.8508 23.3801" fill="#D9EDF4"/>
<path d="M109.315 19.3652C108.402 18.1826 107.452 16.9492 106.504 15.7119H106.504C107.452 16.9492 108.402 18.1826 109.315 19.3652Z" fill="#C0C0C0"/>
<path d="M98.8496 23.3667L106.504 15.712C107.452 16.9494 108.402 18.1827 109.315 19.3654L105.323 23.3574L98.8496 23.3667" fill="#D9EDF4"/>
<path d="M30.085 5.38794C30.512 5.38661 30.949 5.38527 31.3948 5.38527C30.949 5.38527 30.5126 5.38661 30.085 5.38794" fill="#C0C0C0"/>
<path d="M15.5107 21.9041C16.065 20.4681 16.6873 18.8574 17.3326 17.1974L29.1405 5.39071C29.4498 5.38937 29.765 5.38804 30.0853 5.38804C30.5129 5.3867 30.9493 5.38537 31.3951 5.38537C31.605 5.38403 31.817 5.38403 32.0311 5.38403L15.5107 21.9041" fill="#D9EDF4"/>
<path d="M83.8665 5.63599C83.0832 5.61999 82.2602 5.60397 81.3936 5.58797C82.2613 5.60397 83.0842 5.61999 83.8665 5.63599Z" fill="#C0C0C0"/>
<path d="M81.3936 10.1548V5.58812C82.2602 5.60412 83.0832 5.62013 83.8665 5.63613C84.564 5.65213 85.2296 5.66678 85.866 5.68278C84.3754 7.17345 82.8842 8.66412 81.3936 10.1548Z" fill="#D9EDF4"/>
<g filter="url(#filter0_d)">
<path d="M28.5072 23.9123L34.3242 12.7982C34.4559 12.5466 34.2691 12.237 34.0093 12.2762L30.14 12.8598L31.8192 5.20825C31.8504 5.02669 31.6395 4.92266 31.5389 5.06997L25.0648 15.713C24.8982 15.957 25.0746 16.3039 25.3489 16.2719L29.6148 15.7736L28.2163 23.7913C28.1826 23.9847 28.4181 24.0826 28.5072 23.9123Z" fill="#70AB13"/>
<path d="M26.8533 15.1201C26.7465 15.1295 26.6755 14.9999 26.7323 14.8991L31.7638 5.04245C31.7002 4.98659 31.6001 4.98299 31.5394 5.07183L25.0648 15.7137C24.8982 15.9577 25.0746 16.3046 25.3489 16.2726L29.6148 15.7743L28.2163 23.792C28.1974 23.9001 28.2632 23.9762 28.34 23.9944L30.7364 15.58C30.8488 15.1856 30.5654 14.7905 30.1938 14.8235L26.8533 15.1201Z" fill="#5A890F"/>
</g>
<defs>
<filter id="filter0_d" x="21" y="5" width="17.3675" height="27" filterUnits="userSpaceOnUse" color-interpolation-filters="sRGB">
<feFlood flood-opacity="0" result="BackgroundImageFix"/>
<feColorMatrix in="SourceAlpha" type="matrix" values="0 0 0 0 0 0 0 0 0 0 0 0 0 0 0 0 0 0 127 0"/>
<feOffset dy="4"/>
<feGaussianBlur stdDeviation="2"/>
<feColorMatrix type="matrix" values="0 0 0 0 0 0 0 0 0 0 0 0 0 0 0 0 0 0 0.25 0"/>
<feBlend mode="normal" in2="BackgroundImageFix" result="effect1_dropShadow"/>
<feBlend mode="normal" in="SourceGraphic" in2="effect1_dropShadow" result="shape"/>
</filter>
</defs>
</svg>
