<svg width="163" height="62" viewBox="0 0 163 62" fill="none" xmlns="http://www.w3.org/2000/svg">
<path d="M162.088 58.4415C162.088 59.9042 126.808 61.0908 83.287 61.0908C39.7657 61.0908 4.48438 59.9042 4.48438 58.4415C4.48438 56.9775 39.7657 55.7908 83.287 55.7908C126.808 55.7908 162.088 56.9775 162.088 58.4415Z" fill="black" fill-opacity="0.3"/>
<path d="M161.22 37.4747C161.68 40.368 162.343 44.0814 162.343 44.0814C164.495 44.956 159.868 54.1787 154.344 54.1787C154.344 54.1787 67.9733 53.9334 13.888 53.9334C12.32 53.9334 7.27063 53.6907 4.62263 53.1147C3.28529 52.824 -1.20937 39.604 1.65596 38.912C2.24263 34.5987 1.73728 26.9934 2.42528 22.6014C1.87728 20.8734 4.59462 17.44 5.73195 15.7547C6.19062 14.8414 8.87996 9.63737 12.8013 5.07338L12.9 4.95471C13.7813 3.88404 16.3733 0.736053 25.2773 0.468053L25.908 0.44805C27.712 0.394717 38.3639 0.589371 48.6586 0.785371C58.1719 0.966704 67.3799 1.14805 69.0253 1.13072C69.3413 1.12805 69.6373 1.12671 69.9093 1.12538C75.9279 1.11871 84.3413 2.06804 90.2973 4.80671L125.284 20.0654C128.944 21.76 139.603 23.8534 141.92 24.4507C159.849 29.0747 160.732 34.544 161.22 37.4747Z" fill="#4A7ECA"/>
<path d="M113.579 23.7402C113.352 23.7402 113.097 23.7309 112.823 23.7122L14.244 18.0536C12.2693 17.9202 10.6213 16.9669 9.93734 15.5629C9.42534 14.5122 9.52267 13.3602 10.2107 12.3149C10.4467 11.7829 12.1733 8.02824 15.1427 4.50824L15.2253 4.4069C15.8933 3.57757 17.9267 1.05224 25.668 0.890903C25.7853 0.88957 25.9413 0.888234 26.1307 0.888234C29.332 0.888234 42.7627 1.2309 53.5547 1.5069C60.4933 1.68557 66.488 1.83758 67.7627 1.84824C73.7693 1.89624 81.8667 2.83624 86.5814 5.32957L107.592 16.5429C115.451 20.7376 115.901 21.8816 115.68 22.7696C115.437 23.7402 114.087 23.7402 113.579 23.7402" fill="#BCBCBC"/>
<path d="M107.266 17.1519C113.376 20.4133 117.872 23.3586 112.869 23.0226L14.2837 17.364C11.2797 17.1613 9.3264 14.8426 10.8171 12.648C10.8171 12.648 12.5637 8.63594 15.6704 4.95328C16.1904 4.33594 17.8504 1.74395 25.6824 1.58129C29.0477 1.51195 64.3904 2.51195 67.7571 2.53861C73.3957 2.58395 81.5664 3.45861 86.2584 5.93995L107.266 17.1519Z" fill="#232122"/>
<path d="M26.2644 2.25991L25.6978 2.27191C19.8138 2.39458 17.6204 3.88925 16.7178 4.79992C17.3778 8.97325 18.5364 13.0319 19.9924 16.9999L30.6044 17.6079C30.8231 16.4932 31.0591 15.3799 31.3204 14.2719C32.1178 10.8852 33.1018 7.53857 34.3444 4.28791C34.5858 3.65591 34.8538 3.03724 35.1364 2.42391C30.6044 2.31191 27.1618 2.24125 26.2644 2.25991Z" fill="#80C2DC"/>
<path d="M36.4388 5.07459C35.2481 8.23193 34.2601 11.4653 33.4868 14.7493C33.2535 15.7413 33.0401 16.7373 32.8428 17.7373L65.6121 19.5933C65.5014 13.0666 64.6921 8.47992 63.8908 3.05459C57.8228 2.90526 45.6641 2.69059 37.5654 2.48525C37.1588 3.33325 36.7708 4.19193 36.4388 5.07459" fill="#80C2DC"/>
<path d="M85.9346 6.55098C81.4399 4.17364 73.5946 3.27631 67.7519 3.22964C67.4839 3.22697 67.1933 3.22697 66.8826 3.22697C66.6199 3.22697 66.1666 3.2203 65.5586 3.2083C66.4786 8.66164 66.9306 14.1816 67.1493 19.707L99.1386 21.543C100.067 19.391 100.984 17.2323 101.933 15.0896L85.9346 6.55098" fill="#80C2DC"/>
<path d="M1.72168 46.7254C2.65368 49.952 3.99101 52.9774 4.62301 53.1147C7.27101 53.6907 12.3203 53.9334 13.887 53.9334C67.9737 53.9334 154.344 54.1787 154.344 54.1787C156.575 54.1787 158.262 52.828 159.962 51.1934C161.998 47.1454 160.36 46.9 160.36 46.9C135.63 46.8854 1.72168 46.7254 1.72168 46.7254" fill="#2F5C91"/>
<path d="M146.41 52.0654C137.446 52.0654 142.836 50.008 110.614 50.008C99.3323 50.008 85.5563 51.7094 71.2563 51.6907C67.4896 51.6854 46.0749 48.9934 42.3829 48.9894C32.8709 48.98 22.2869 51.632 13.8869 51.632C12.3203 51.632 7.27093 51.388 4.62293 50.8134C3.70427 50.6134 3.14159 50.5254 2.93359 50.2534C3.59093 51.8747 4.2376 53.0307 4.62293 53.1147C7.27093 53.6907 12.3309 54.0774 13.8989 54.0774C67.9843 54.0774 154.344 54.1787 154.344 54.1787C156.452 54.1787 158.43 52.836 159.948 51.1267C156.588 51.216 157.395 52.0654 146.41 52.0654" fill="#191919"/>
<path d="M27.3144 31.6321C35.605 31.6321 42.3264 38.3534 42.3264 46.6441C42.3264 47.1121 42.4197 50.2561 42.5184 53.9961C30.0677 53.9628 16.973 53.9321 12.3197 53.9321C12.3384 52.0414 12.3037 48.6188 12.3037 46.6441C12.3037 38.3534 19.025 31.6321 27.3144 31.6321Z" fill="#191919"/>
<path d="M123.597 32.4949C131.886 32.6389 138.488 39.4762 138.344 47.7655C138.336 48.1815 138.318 50.9509 138.348 54.1202C134.378 54.1695 130.133 54.1242 125.884 54.0789C121.609 54.0335 117.332 53.9882 113.329 54.0402C111.914 54.0575 110.161 54.0695 108.129 54.0762C108.22 50.6855 108.314 47.8602 108.325 47.2402C108.47 38.9509 115.308 32.3495 123.597 32.4949" fill="#191919"/>
<path d="M110.737 46.8856C110.737 53.9576 116.471 59.6909 123.543 59.6909C130.615 59.6909 136.348 53.9576 136.348 46.8856C136.348 39.8136 130.615 34.0803 123.543 34.0803C116.471 34.0803 110.737 39.8136 110.737 46.8856Z" fill="#070000"/>
<path d="M116.385 51.6933L119.838 49.1893L121.398 48.94L121.15 50.5014L118.634 53.9707C117.752 53.3573 116.985 52.5867 116.385 51.6933V51.6933ZM120.445 54.9253C120.254 54.852 120.066 54.7707 119.882 54.684L120.653 53.62L120.445 54.9253ZM123.542 55.508C122.954 55.508 122.381 55.448 121.826 55.336L122.508 51.064L123.436 49.784L124.362 51.0627L125.049 55.368C124.558 55.4547 124.057 55.508 123.542 55.508ZM127.044 54.76C126.846 54.848 126.642 54.9267 126.437 55L126.217 53.62L127.044 54.76ZM128.308 54.0693L125.72 50.5014L125.472 48.94L127.032 49.1893L130.626 51.7947C130.004 52.692 129.217 53.464 128.308 54.0693V54.0693ZM130.644 42L127.033 44.6187L125.472 44.868L125.72 43.308L128.326 39.7133C129.237 40.3213 130.024 41.0987 130.644 42V42ZM126.442 38.7733C126.653 38.8493 126.861 38.9293 127.064 39.02L126.217 40.188L126.442 38.7733ZM123.542 38.2627C124.06 38.2627 124.562 38.316 125.054 38.404L124.362 42.7453L123.436 44.024L122.508 42.7453L121.821 38.436C122.377 38.3227 122.953 38.2627 123.542 38.2627ZM119.862 39.096C120.052 39.0067 120.244 38.924 120.44 38.848L120.653 40.188L119.862 39.096ZM118.617 39.8133L121.15 43.3067L121.398 44.868L119.838 44.6187L116.369 42.104C116.968 41.2067 117.733 40.4307 118.617 39.8133V39.8133ZM115.676 43.3653L116.72 44.1227L115.454 43.92C115.522 43.7333 115.594 43.5467 115.676 43.3653ZM131.618 43.888L130.152 44.1227L131.353 43.2507C131.45 43.4587 131.538 43.672 131.618 43.888ZM127.594 47.832L126.314 46.904L127.594 45.976L132.009 45.2733C132.108 45.796 132.165 46.3333 132.165 46.8853C132.165 47.4493 132.106 48 132.004 48.5347L127.594 47.832ZM131.34 50.548L130.152 49.6853L131.606 49.9174C131.525 50.132 131.437 50.3427 131.34 50.548ZM115.076 48.5014C114.977 47.9774 114.92 47.4387 114.92 46.8853C114.92 46.3453 114.976 45.8187 115.07 45.3067L119.276 45.976L120.556 46.904L119.277 47.832L115.076 48.5014ZM115.466 49.8853L116.72 49.6853L115.689 50.4333C115.609 50.2533 115.536 50.0707 115.466 49.8853ZM113.65 46.8853C113.65 52.348 118.08 56.7773 123.542 56.7773C129.005 56.7773 133.434 52.348 133.434 46.8853C133.434 41.4227 129.005 36.9947 123.542 36.9947C118.08 36.9947 113.65 41.4227 113.65 46.8853Z" fill="#757575"/>
<path d="M125.209 42.62L125.605 40.14L126.684 40.5866L125.209 42.62ZM121.661 42.62L120.187 40.5866L121.267 40.14L121.661 42.62ZM119.151 45.1293L116.672 44.7346L117.119 43.656L119.151 45.1293ZM127.719 45.1293L129.753 43.6546L130.2 44.7346L127.719 45.1293ZM129.753 50.1533L127.72 48.6786L130.199 49.0733L129.753 50.1533ZM117.119 50.1533L116.672 49.0733L119.152 48.6786L117.119 50.1533ZM121.997 50.3773L122.381 47.9573L119.964 48.3426L121.947 46.904L119.964 45.4653L122.381 45.852L121.997 43.432L123.436 45.4146L124.873 43.432L124.488 45.8506L126.909 45.4653L124.924 46.904L126.907 48.3426L124.488 47.9573L124.873 50.376L123.436 48.3933L121.997 50.3773ZM125.604 53.668L125.209 51.188L126.685 53.2213L125.604 53.668ZM121.265 53.668L120.187 53.2213L121.661 51.188L121.265 53.668Z" fill="#999999"/>
<path d="M123.542 35.8973C116.965 35.8973 111.608 41.0573 111.261 47.5493C111.249 47.328 111.228 47.1093 111.228 46.8853C111.228 40.084 116.741 34.5706 123.542 34.5706C130.344 34.5706 135.857 40.084 135.857 46.8853C135.857 47.1093 135.836 47.328 135.824 47.5493C135.477 41.0573 130.12 35.8973 123.542 35.8973Z" fill="#262626"/>
<path d="M123.542 56.8241C128.865 56.8241 133.2 52.6481 133.481 47.3961C133.49 47.5748 133.508 47.7521 133.508 47.9321C133.508 53.4361 129.046 57.8975 123.542 57.8975C118.038 57.8975 113.577 53.4361 113.577 47.9321C113.577 47.7521 113.594 47.5748 113.604 47.3961C113.885 52.6481 118.22 56.8241 123.542 56.8241Z" fill="#262626"/>
<path d="M13.96 46.8856C13.96 53.9576 19.6933 59.6909 26.7653 59.6909C33.8373 59.6909 39.5706 53.9576 39.5706 46.8856C39.5706 39.8136 33.8373 34.0803 26.7653 34.0803C19.6933 34.0803 13.96 39.8136 13.96 46.8856Z" fill="#070000"/>
<path d="M19.6064 51.6933L23.061 49.1893L24.621 48.94L24.373 50.5014L21.857 53.9707C20.973 53.3573 20.2077 52.5867 19.6064 51.6933V51.6933ZM23.6677 54.9253C23.4757 54.852 23.289 54.7707 23.105 54.684L23.8757 53.62L23.6677 54.9253ZM26.765 55.508C26.177 55.508 25.6037 55.448 25.049 55.336L25.7304 51.064L26.657 49.784L27.585 51.0627L28.2717 55.368C27.781 55.4547 27.2797 55.508 26.765 55.508V55.508ZM30.2664 54.76C30.0677 54.848 29.865 54.9267 29.6597 55L29.4397 53.62L30.2664 54.76ZM31.5304 54.0693L28.9424 50.5014L28.6944 48.94L30.2544 49.1893L33.849 51.7947C33.2264 52.692 32.4397 53.464 31.5304 54.0693V54.0693ZM33.8664 42L30.2544 44.6187L28.6944 44.868L28.9424 43.308L31.549 39.7133C32.4597 40.3213 33.245 41.0987 33.8664 42ZM29.665 38.7733C29.8757 38.8493 30.0837 38.9293 30.2864 39.02L29.4397 40.188L29.665 38.7733ZM26.765 38.2627C27.549 38.2627 27.205 38.2133 28.277 38.404L27.585 42.7453L26.657 44.024L25.7304 42.7453L25.0437 38.436C25.5997 38.3227 26.1757 38.2627 26.765 38.2627V38.2627ZM23.0837 39.096C23.273 39.0067 23.465 38.924 23.6624 38.848L23.8757 40.188L23.0837 39.096ZM21.8397 39.8133L24.373 43.3067L24.621 44.868L23.061 44.6187L19.5917 42.104C20.1904 41.2067 20.9557 40.4307 21.8397 39.8133V39.8133ZM18.8984 43.3653L19.941 44.1227L18.677 43.92C18.745 43.7333 18.817 43.5467 18.8984 43.3653ZM34.841 43.888L33.3744 44.1227L34.5757 43.2507C34.673 43.4587 34.761 43.672 34.841 43.888ZM30.817 47.832L29.537 46.904L30.817 45.976L35.2317 45.2733C35.3304 45.796 35.3877 46.3333 35.3877 46.8853C35.3877 47.4493 35.329 48 35.225 48.5347L30.817 47.832ZM34.5624 50.548L33.373 49.6853L34.8277 49.9174C34.7477 50.132 34.6584 50.3427 34.5624 50.548ZM18.2984 48.5014C18.1997 47.9774 18.1424 47.4387 18.1424 46.8853C18.1424 46.3453 18.1984 45.8187 18.293 45.3067L22.4984 45.976L23.7784 46.904L22.4984 47.832L18.2984 48.5014ZM18.689 49.8853L19.9424 49.6853L18.9117 50.4333C18.8304 50.2533 18.7584 50.0707 18.689 49.8853ZM16.873 46.8853C16.873 52.348 21.3024 56.7773 26.765 56.7773C32.2277 56.7773 36.6557 52.348 36.6557 46.8853C36.6557 41.4227 32.2277 36.9947 26.765 36.9947C21.3024 36.9947 16.873 41.4227 16.873 46.8853Z" fill="#757575"/>
<path d="M28.4319 42.62L28.8279 40.14L29.9065 40.5866L28.4319 42.62ZM24.8839 42.62L23.4079 40.5866L24.4892 40.14L24.8839 42.62ZM22.3732 45.1293L19.8945 44.7346L20.3399 43.656L22.3732 45.1293ZM30.9412 45.1293L32.9745 43.6546L33.4225 44.7346L30.9412 45.1293ZM32.9745 50.1533L30.9425 48.6786L33.4212 49.0733L32.9745 50.1533ZM20.3399 50.1533L19.8945 49.0733L22.3745 48.6786L20.3399 50.1533ZM25.2199 50.3773L25.6039 47.9573L23.1865 48.3426L25.1692 46.904L23.1865 45.4653L25.6039 45.852L25.2199 43.432L26.6585 45.4146L28.0959 43.432L27.7092 45.8506L30.1305 45.4653L28.1465 46.904L30.1292 48.3426L27.7092 47.9573L28.0959 50.376L26.6585 48.3933L25.2199 50.3773ZM28.8265 53.668L28.4319 51.188L29.9079 53.2213L28.8265 53.668ZM24.4879 53.668L23.4079 53.2213L24.8839 51.188L24.4879 53.668Z" fill="#999999"/>
<path d="M26.7652 35.8973C20.1879 35.8973 14.8292 41.0573 14.4839 47.5493C14.4719 47.328 14.4492 47.1093 14.4492 46.8853C14.4492 40.084 19.9639 34.5706 26.7652 34.5706C33.5666 34.5706 39.0799 40.084 39.0799 46.8853C39.0799 47.1093 39.0585 47.328 39.0465 47.5493C38.6999 41.0573 33.3426 35.8973 26.7652 35.8973" fill="#262626"/>
<path d="M26.7651 56.8241C32.0878 56.8241 36.4225 52.6481 36.7025 47.3961C36.7131 47.5748 36.7305 47.7521 36.7305 47.9321C36.7305 53.4361 32.2678 57.8975 26.7651 57.8975C21.2611 57.8975 16.7998 53.4361 16.7998 47.9321C16.7998 47.7521 16.8171 47.5748 16.8265 47.3961C17.1065 52.6481 21.4425 56.8241 26.7651 56.8241Z" fill="#262626"/>
<path d="M91.1308 6.79071C92.9135 7.66138 113.887 18.3187 116.405 19.428C123.2 22.4174 128.907 22.7574 130.701 21.82C128.497 21.2374 126.503 20.6294 125.284 20.0654L89.6815 4.53339C89.3601 4.44939 88.2095 5.36405 91.1308 6.79071" fill="#232122"/>
<path d="M91.9454 6.79065C93.7294 7.66131 114.249 17.8586 116.745 19.02C121.7 21.3266 128.275 22.0773 130.701 21.82C128.497 21.2373 126.503 20.6293 125.284 20.0653L90.2974 4.80665C89.3694 4.37998 89.0241 5.36398 91.9454 6.79065Z" fill="#80C2DC"/>
<path d="M115.742 22.1054L115.581 22.1627C115.998 23.3414 116.052 24.9747 115.137 30.2214C106.369 36.4334 106.224 42.7534 106.153 45.7934C106.144 46.1814 106.134 46.5121 106.109 46.7827C105.021 46.7801 89.0822 46.7507 71.0249 46.7241V46.7201L70.9596 46.7241C70.5662 46.7227 70.1716 46.7227 69.7769 46.7214C69.6289 46.6854 69.4849 46.6281 69.3529 46.5107C68.2236 45.5121 67.4409 41.0481 66.5396 20.3547L66.3662 20.3627C67.2769 41.2334 68.0476 45.5867 69.2382 46.6401L69.3822 46.7214C61.2916 46.7094 52.8649 46.6974 45.2236 46.6881L45.2316 46.5841C45.3676 44.6254 45.7302 39.4241 42.4929 35.2254C40.5009 32.6401 37.8462 31.1707 35.5049 29.8761C32.7449 28.3507 30.5662 27.1441 30.7916 24.7454L30.8209 24.4347C30.9102 23.4294 31.0982 21.3401 31.6102 18.3681L31.4396 18.3387C30.9276 21.3174 30.7396 23.412 30.6489 24.4187L30.6209 24.7307C30.3836 27.2401 32.6062 28.4707 35.4209 30.0267C37.7489 31.3147 40.3862 32.7734 42.3569 35.3294C45.5529 39.4761 45.1942 44.6321 45.0596 46.5721L45.0396 46.8614H45.1316C52.9182 46.8694 61.5276 46.8814 69.7676 46.8947C69.8836 46.9201 70.0009 46.9401 70.1222 46.9401C70.2596 46.9401 70.4009 46.9294 70.5436 46.9187C70.6782 46.9067 70.8196 46.8987 70.9636 46.8961C89.5596 46.9254 105.95 46.9547 106.189 46.9561V46.8694L106.274 46.8787C106.308 46.5907 106.316 46.2227 106.326 45.7974C106.396 42.7827 106.54 36.5094 115.266 30.3414L115.294 30.3214L115.301 30.2867C116.229 24.9747 116.173 23.3134 115.742 22.1054" fill="#244D7F"/>
<path d="M77.2398 24.4017C77.2398 25.0697 76.6985 25.575 76.0318 25.531L69.7012 25.115C69.0345 25.071 68.4932 24.4937 68.4932 23.827C68.4932 23.159 69.0345 22.6537 69.7012 22.6977L76.0318 23.1137C76.6985 23.1577 77.2398 23.735 77.2398 24.4017Z" fill="#244D7F"/>
<path d="M76.0196 23.2866L69.6903 22.8692L69.6209 22.8679C69.2169 22.8679 68.8796 23.1066 68.7383 23.4546C68.8649 23.8972 69.2663 24.2412 69.7423 24.2732L76.0716 24.6892L76.141 24.6919C76.545 24.6919 76.8823 24.4519 77.0236 24.1039C76.8956 23.6612 76.4943 23.3172 76.0196 23.2866" fill="#4A7ECA"/>
<path d="M40.8156 21.8988C40.8156 22.5668 40.2757 23.0721 39.6077 23.0281L33.2783 22.6108C32.6103 22.5668 32.0703 21.9908 32.0703 21.3241C32.0703 20.6561 32.6103 20.1508 33.2783 20.1948L39.6077 20.6108C40.2757 20.6548 40.8156 21.2321 40.8156 21.8988" fill="#244D7F"/>
<path d="M39.5971 20.7827L33.2665 20.3667L33.1985 20.364C32.7945 20.364 32.4571 20.604 32.3145 20.952C32.4425 21.3947 32.8438 21.7387 33.3185 21.7693L39.6478 22.1867L39.7171 22.188C40.1211 22.188 40.4585 21.9493 40.6011 21.6013C40.4731 21.1587 40.0718 20.8147 39.5971 20.7827" fill="#4A7ECA"/>
<path d="M160.387 50.6094C160.392 50.5947 160.691 49.844 160.836 49.008C161.347 47.0467 160.36 46.9 160.36 46.9C157.387 46.8387 153.788 46.8214 150.367 46.8214C148.485 46.8214 146.656 46.8267 145.017 46.832C143.379 46.836 141.929 46.8414 140.801 46.8414C139.353 46.8414 138.435 46.8334 138.331 46.8067C138.329 46.7774 138.328 46.7494 138.325 46.72C138.397 45.5387 138.06 43.748 137.235 41.824C136.651 40.3974 135.853 39.0787 134.881 37.9094C132.613 35.096 129.133 32.7027 124.173 32.32C123.791 32.2907 123.412 32.276 123.035 32.276C115.303 32.276 108.817 38.4134 108.22 46.848C108.121 46.848 108.019 46.848 107.92 46.848C107.031 41.2907 110.267 29.996 123.732 29.996C138.923 29.996 141.633 44.944 142.843 44.944C144.051 44.944 161.652 44.0814 161.652 44.0814C161.657 44.0814 161.663 44.0814 161.669 44.0814C161.903 45.464 162.124 46.728 162.245 47.4174C161.531 49.0027 160.419 50.564 160.387 50.6094" fill="#6E98D5"/>
<path d="M160.836 49.0083C160.981 48.171 160.972 47.2496 160.36 46.9003C160.36 46.9003 161.347 47.047 160.836 49.0083ZM108.219 46.867H107.923C107.923 46.8603 107.921 46.855 107.92 46.8483C108.019 46.8483 108.121 46.8483 108.22 46.8483C108.219 46.855 108.219 46.8603 108.219 46.867Z" fill="#597DA7"/>
<path d="M138.33 46.8066C138.322 46.8053 138.318 46.8027 138.319 46.8013C138.322 46.7747 138.324 46.7466 138.325 46.72C138.328 46.7493 138.329 46.7773 138.33 46.8066V46.8066ZM137.234 41.824C136.678 40.5306 135.902 39.1773 134.881 37.9093C135.853 39.0786 136.65 40.3973 137.234 41.824Z" fill="#474747"/>
<path d="M43.1463 46.7549H42.3277L42.3263 46.6442C42.3263 38.3536 35.605 31.6322 27.3143 31.6322C19.025 31.6322 12.3037 38.3536 12.3037 46.6442V46.6669H11.4263C11.421 45.7216 11.417 44.8229 11.417 44.1122C11.417 35.8216 18.5317 29.1002 27.309 29.1002C36.0863 29.1002 43.201 35.8216 43.201 44.1122C43.201 44.3576 43.233 45.4762 43.1463 46.7549" fill="#6E98D5"/>
<path d="M43.8096 37.3457C43.4562 36.6244 43.0229 35.911 42.4936 35.2257C41.7696 34.2844 40.9562 33.4924 40.1042 32.8017C38.7656 31.6417 36.9749 30.3937 34.6016 29.235L66.8989 30.9657C67.0096 32.8537 67.1216 34.5177 67.2336 35.9817L43.8096 37.3457V37.3457ZM67.4082 35.971C67.2962 34.5124 67.1856 32.8564 67.0736 30.975L111.404 33.3497C111.383 33.371 111.362 33.3924 111.342 33.4137L67.4082 35.971ZM111.6 33.3977C111.612 33.3857 111.624 33.375 111.636 33.363L111.938 33.379L111.6 33.3977Z" fill="#6E98D5"/>
<path d="M43.7502 37.3481C43.7502 37.3481 42.9515 35.2708 40.1035 32.8015C40.9555 33.4921 41.7688 34.2841 42.4928 35.2255C43.0222 35.9108 43.4555 36.6241 43.8088 37.3455L43.7502 37.3481V37.3481ZM67.2328 35.9815C67.1208 34.5175 67.0088 32.8535 66.8982 30.9655L67.0728 30.9748C67.1848 32.8561 67.2955 34.5121 67.4075 35.9708L67.2328 35.9815ZM111.341 33.4135C111.361 33.3921 111.382 33.3708 111.404 33.3495L111.636 33.3628C111.624 33.3748 111.612 33.3855 111.6 33.3975L111.341 33.4135" fill="#507199"/>
<path d="M97.6123 26.2026C96.8803 26.2026 96.1389 26.2013 95.3842 26.196C86.1216 26.136 76.3069 25.916 66.7856 25.636C66.7189 24.3 66.6523 22.88 66.5856 21.3693C85.2776 22.4626 104.475 23.556 115.87 24.2C115.868 24.6187 115.843 25.104 115.79 25.6813C111.115 25.964 104.978 26.2026 97.6123 26.2026ZM69.6216 22.6946C68.9923 22.6946 68.4936 23.1866 68.4936 23.8266C68.4936 24.4933 69.0349 25.0706 69.7016 25.1146L76.0323 25.5306C76.0589 25.532 76.0856 25.5333 76.1123 25.5333C76.7416 25.5333 77.2403 25.0427 77.2403 24.4013C77.2403 23.7347 76.6989 23.1573 76.0323 23.1133L69.7016 22.6973C69.6749 22.696 69.6483 22.6946 69.6216 22.6946V22.6946ZM115.964 25.672C116.015 25.1053 116.04 24.6253 116.042 24.2093C122.344 24.5653 126.214 24.7826 126.214 24.7826C126.214 24.7826 122.574 25.268 115.964 25.672ZM66.6109 25.632C53.3563 25.2413 40.6749 24.7386 30.8243 24.3946C30.9069 23.4813 31.0669 21.7226 31.4629 19.2586C41.0923 19.8626 53.6296 20.6106 66.4109 21.3586C66.4789 22.872 66.5456 24.2946 66.6109 25.632ZM33.1976 20.192C32.5683 20.192 32.0709 20.6826 32.0709 21.324C32.0709 21.9906 32.6109 22.5666 33.2789 22.6106L39.6083 23.028C39.6349 23.0293 39.6629 23.0306 39.6896 23.0306C40.3189 23.0306 40.8163 22.5386 40.8163 21.8986C40.8163 21.232 40.2763 20.6546 39.6083 20.6106L33.2789 20.1946C33.2523 20.1933 33.2243 20.192 33.1976 20.192V20.192ZM30.6523 24.3893C24.0043 24.1573 18.6616 23.9986 15.3256 23.9986C12.3509 23.9986 6.45226 23.5546 5.86426 19.38C6.31892 18.496 7.52425 16.2413 9.27625 13.628C9.13892 15.468 9.9616 17.1426 12.9216 17.8293C13.3389 17.9453 13.7829 18.0213 14.2443 18.0533C15.9856 18.2506 22.3763 18.6866 31.2896 19.2466C30.8936 21.7186 30.7336 23.4786 30.6523 24.3893" fill="#6E98D5"/>
<path d="M14.2436 18.0532C13.7822 18.0212 13.3382 17.9452 12.9209 17.8292C13.3209 17.9226 13.7609 17.9972 14.2436 18.0532Z" fill="#C9C9C9"/>
<path d="M115.79 25.6816C115.843 25.1043 115.868 24.619 115.87 24.2003C115.928 24.203 115.984 24.207 116.042 24.2096C116.04 24.6256 116.015 25.1056 115.964 25.6723C115.906 25.675 115.848 25.679 115.79 25.6816ZM66.7857 25.6363C66.727 25.635 66.6697 25.6336 66.611 25.6323C66.5457 24.295 66.479 22.8723 66.411 21.359C66.471 21.363 66.5257 21.3656 66.5857 21.3696C66.6523 22.8803 66.719 24.3003 66.7857 25.6363ZM30.8243 24.395C30.767 24.3936 30.7097 24.391 30.6523 24.3896C30.7337 23.479 30.8937 21.719 31.2897 19.247C31.347 19.251 31.4057 19.255 31.463 19.259C31.067 21.723 30.907 23.4816 30.8243 24.395Z" fill="#507199"/>
<path d="M76.1118 25.5337C76.0852 25.5337 76.0585 25.5324 76.0318 25.531L69.7012 25.115C69.0345 25.071 68.4932 24.4937 68.4932 23.827C68.4932 23.187 68.9918 22.695 69.6212 22.695C69.6478 22.695 69.6745 22.6964 69.7012 22.6977L76.0318 23.1137C76.6985 23.1577 77.2398 23.735 77.2398 24.4017C77.2398 25.043 76.7412 25.5337 76.1118 25.5337ZM69.6212 22.8684C69.2172 22.8684 68.8798 23.107 68.7385 23.455C68.8652 23.8977 69.2665 24.2417 69.7425 24.2737L76.0718 24.6897L76.1412 24.6924C76.5452 24.6924 76.8825 24.4523 77.0238 24.1043C76.8958 23.6617 76.4945 23.3177 76.0198 23.287L69.6905 22.8697L69.6212 22.8684" fill="#507199"/>
<path d="M76.141 24.6919L76.0716 24.6892L69.7423 24.2732C69.2663 24.2412 68.8649 23.8972 68.7383 23.4546C68.8796 23.1066 69.2169 22.8679 69.6209 22.8679L69.6903 22.8692L76.0196 23.2866C76.4943 23.3172 76.8956 23.6612 77.0236 24.1039C76.8823 24.4519 76.545 24.6919 76.141 24.6919" fill="#6E98D5"/>
<path d="M39.689 23.0308C39.6623 23.0308 39.6343 23.0294 39.6077 23.0281L33.2783 22.6108C32.6103 22.5668 32.0703 21.9908 32.0703 21.3241C32.0703 20.6828 32.5676 20.1921 33.197 20.1921C33.2236 20.1921 33.2516 20.1934 33.2783 20.1948L39.6077 20.6108C40.2757 20.6548 40.8156 21.2321 40.8156 21.8988C40.8156 22.5388 40.3183 23.0308 39.689 23.0308V23.0308ZM33.1983 20.3641C32.7943 20.3641 32.457 20.6041 32.3143 20.9521C32.4423 21.3947 32.8436 21.7388 33.3183 21.7694L39.6476 22.1868L39.717 22.1881C40.121 22.1881 40.4583 21.9494 40.601 21.6014C40.473 21.1588 40.0716 20.8148 39.597 20.7828L33.2663 20.3668L33.1983 20.3641" fill="#507199"/>
<path d="M39.7171 22.188L39.6478 22.1867L33.3185 21.7693C32.8438 21.7387 32.4425 21.3947 32.3145 20.952C32.4571 20.604 32.7945 20.364 33.1985 20.364L33.2665 20.3667L39.5971 20.7827C40.0718 20.8147 40.4731 21.1587 40.6011 21.6013C40.4585 21.9493 40.1211 22.188 39.7171 22.188" fill="#6E98D5"/>
<path d="M1.86426 40.4829C1.89359 39.9816 1.91493 39.4589 1.93226 38.9229C4.46959 39.0282 10.4696 39.5376 12.1323 39.6482C11.9229 39.9349 9.5016 40.2296 5.6896 40.2296C4.7816 40.2296 3.79625 40.2122 2.74292 40.1749C2.72559 40.1749 2.70959 40.1749 2.69359 40.1749C2.36025 40.1749 2.08692 40.2949 1.86426 40.4829" fill="#6E98D5"/>
<path d="M1.74032 30.5734C4.04166 30.5734 5.54431 31.364 5.54431 28.6027C5.54431 25.84 4.85365 18.1294 6.34965 15.2534C7.84565 12.376 11.4136 7.08273 11.4136 7.08273C11.4136 7.08273 10.723 6.50672 8.88165 9.15338C7.04032 11.8 1.63098 20.0867 1.63098 20.8921C1.63098 21.6974 1.16566 30.5734 1.74032 30.5734" fill="#5C1F24"/>
<path d="M7.57715 11.98C8.73315 10.092 10.0078 8.15597 10.6052 7.25597C10.2052 7.51731 9.64115 8.05997 8.88115 9.1533C8.54649 9.63464 8.09315 10.3026 7.57715 11.0773V11.98Z" fill="#C7212B"/>
<path d="M5.35164 16.5079V14.4799C3.45831 17.4266 1.63031 20.4239 1.63031 20.8919C1.63031 21.2186 1.55431 22.8746 1.50098 24.7266H4.97563C4.88897 22.0586 4.85431 18.7732 5.35164 16.5079" fill="#C7212B"/>
<path d="M5.08278 28.1802C5.08145 27.8362 5.07079 27.4228 5.05479 26.9535H1.45612C1.45213 27.3815 1.45213 27.7948 1.45612 28.1802H5.08278Z" fill="#D86B32"/>
<path d="M162.415 44.1147C162.414 44.1147 162.414 44.1147 162.414 44.1147C162.414 44.1147 162.414 44.1147 162.415 44.1147ZM162.398 44.1054C162.396 44.1054 162.396 44.1054 162.396 44.1054C162.396 44.1054 162.396 44.1054 162.398 44.1054ZM162.379 44.0974V44.0961C162.379 44.0961 162.379 44.0961 162.379 44.0974ZM162.371 44.0934L162.37 44.0921L162.371 44.0934ZM162.354 44.0854C162.352 44.0854 162.352 44.0841 162.351 44.0841C162.352 44.0841 162.352 44.0854 162.354 44.0854ZM68.7738 1.13208C66.5938 1.13208 57.7658 0.958736 48.6591 0.785403C57.7671 0.958736 66.5951 1.13208 68.7738 1.13208ZM68.7764 1.13208C68.8724 1.13208 68.9551 1.13208 69.0258 1.13075C68.9551 1.13208 68.8724 1.13208 68.7764 1.13208ZM70.0485 1.12541C70.0258 1.12541 70.0018 1.12541 69.9791 1.12541C70.0018 1.12541 70.0258 1.12541 70.0485 1.12541ZM48.6591 0.785403C48.6391 0.785403 48.6191 0.785418 48.5991 0.784085C48.6191 0.785418 48.6391 0.785403 48.6591 0.785403ZM48.2205 0.777411C48.1445 0.776078 48.0671 0.774741 47.9911 0.773408C48.0671 0.774741 48.1445 0.776078 48.2205 0.777411ZM47.7751 0.769404C47.7258 0.76807 47.6764 0.766751 47.6271 0.766751C47.6764 0.766751 47.7258 0.76807 47.7751 0.769404ZM47.3031 0.760077C47.2111 0.758744 47.1191 0.756072 47.0271 0.754739C47.1191 0.756072 47.2111 0.758744 47.3031 0.760077ZM46.8045 0.750751C46.7991 0.750751 46.7938 0.750751 46.7885 0.750751C46.7938 0.750751 46.7991 0.750751 46.8045 0.750751ZM46.2978 0.741409C46.1645 0.738742 46.0298 0.736084 45.8965 0.733417C46.0298 0.736084 46.1645 0.738742 46.2978 0.741409ZM45.7591 0.730748C45.6284 0.728081 45.4978 0.725408 45.3658 0.724075C45.4978 0.725408 45.6284 0.728081 45.7591 0.730748ZM45.1965 0.720071C45.0778 0.718738 44.9605 0.716081 44.8418 0.713414C44.9605 0.716081 45.0778 0.718738 45.1965 0.720071ZM43.9258 0.69608C43.9244 0.69608 43.9218 0.69608 43.9191 0.69608C43.9218 0.69608 43.9244 0.69608 43.9258 0.69608ZM43.9191 0.69608C37.0391 0.56808 30.6418 0.457409 27.5631 0.441409C30.6418 0.457409 37.0391 0.56808 43.9191 0.69608ZM25.9258 0.448082C26.1338 0.442749 26.4538 0.440074 26.8738 0.440074C26.4551 0.440074 26.1338 0.442749 25.9258 0.448082ZM27.4165 0.440074C27.2205 0.440074 27.0405 0.440074 26.8751 0.440074C27.0405 0.440074 27.2205 0.440074 27.4165 0.440074Z" fill="white"/>
<path d="M162.268 47.54C162.26 47.5014 162.253 47.46 162.245 47.4174C162.971 45.812 163.288 44.184 161.669 44.0814C161.516 43.1827 161.359 42.2334 161.22 41.3587C160.732 38.428 159.849 32.9587 141.92 28.3347C139.603 27.7374 128.944 25.644 125.284 23.9494L104.411 14.8454L86.5812 5.32938C81.8666 2.83605 73.7692 1.89605 67.7626 1.84805C66.4879 1.83738 60.4932 1.68538 53.5546 1.50671C42.7626 1.23071 29.3319 0.88804 26.1306 0.88804C25.9412 0.88804 25.7852 0.889376 25.6679 0.890709C17.9266 1.05204 15.8932 3.57738 15.2252 4.40671L15.1426 4.50804C12.3172 7.85604 10.6172 11.4187 10.2559 12.2147C9.91324 12.6934 9.58656 13.1654 9.27589 13.628C9.51323 10.4814 12.5639 6.85204 12.5639 6.85204C7.11723 12.908 5.50523 16.8374 5.8639 19.38C5.8079 19.4867 5.7639 19.5734 5.7319 19.6387C5.64123 19.772 5.54124 19.9174 5.43457 20.0707C5.52924 18.1254 5.78257 16.3427 6.34923 15.2534C7.84523 12.376 11.4132 7.08272 11.4132 7.08272C11.4132 7.08272 11.3519 7.03071 11.2172 7.02938C11.7186 6.37338 12.2479 5.71737 12.8012 5.07337L12.8999 4.95471C13.7812 3.88404 16.3732 0.736053 25.2772 0.468053L25.9079 0.44805C25.9132 0.44805 25.9186 0.44805 25.9252 0.44805C26.1332 0.442716 26.4546 0.440042 26.8732 0.440042C26.8732 0.440042 26.8732 0.440042 26.8746 0.440042C27.0399 0.440042 27.2199 0.440042 27.4159 0.440042C27.4626 0.441375 27.5119 0.441377 27.5626 0.441377C30.6412 0.457377 37.0386 0.568048 43.9186 0.696048C43.9212 0.696048 43.9239 0.696048 43.9252 0.696048C44.2306 0.702714 44.5359 0.708048 44.8412 0.713382C44.9599 0.716048 45.0772 0.718705 45.1959 0.720039C45.2519 0.721372 45.3092 0.722709 45.3652 0.724043C45.4972 0.725376 45.6279 0.728049 45.7586 0.730716C45.8039 0.732049 45.8506 0.732052 45.8959 0.733385C46.0292 0.736052 46.1639 0.73871 46.2972 0.741376C46.4612 0.744043 46.6239 0.746719 46.7879 0.750719C46.7932 0.750719 46.7986 0.750719 46.8039 0.750719C46.8786 0.752052 46.9532 0.753373 47.0266 0.754707C47.1186 0.75604 47.2106 0.758712 47.3026 0.760045C47.4119 0.762712 47.5186 0.764052 47.6266 0.766718C47.6759 0.766718 47.7252 0.768038 47.7746 0.769371C47.8466 0.770705 47.9186 0.772042 47.9906 0.773375C48.0666 0.774709 48.1439 0.776046 48.2199 0.777379C48.3466 0.780046 48.4719 0.782719 48.5986 0.784052C48.6186 0.785386 48.6386 0.785371 48.6586 0.785371C57.7652 0.958704 66.5932 1.13205 68.7732 1.13205C68.7746 1.13205 68.7746 1.13205 68.7759 1.13205C68.8719 1.13205 68.9546 1.13205 69.0252 1.13072C69.3412 1.12805 69.6372 1.12671 69.9092 1.12538C69.9319 1.12538 69.9546 1.12538 69.9786 1.12538C70.0012 1.12538 70.0252 1.12538 70.0479 1.12538C75.8506 1.13338 83.8172 2.02538 89.6799 4.53338C89.6666 4.52938 89.6519 4.52805 89.6359 4.52805C89.2692 4.52805 88.3332 5.42404 91.1306 6.79071C92.9132 7.66138 113.887 18.3187 116.405 19.428C121.067 21.4787 125.217 22.2827 127.943 22.2827C129.056 22.2827 129.932 22.148 130.508 21.9107C134.975 23.0427 140.359 24.0481 141.92 24.4507C159.849 29.0747 160.732 34.544 161.22 37.4747C161.68 40.368 162.343 44.0814 162.343 44.0814C162.345 44.0814 162.348 44.0827 162.351 44.084C162.352 44.084 162.352 44.0854 162.353 44.0854C162.356 44.0867 162.359 44.0867 162.361 44.088C162.364 44.0894 162.367 44.0907 162.369 44.092L162.371 44.0934C162.373 44.0947 162.376 44.0947 162.379 44.096V44.0974C162.381 44.0987 162.385 44.1001 162.388 44.1014C162.391 44.1027 162.393 44.104 162.396 44.1054C162.396 44.1054 162.396 44.1054 162.397 44.1054C162.4 44.1067 162.403 44.108 162.405 44.1094C162.408 44.1107 162.411 44.112 162.413 44.1147C162.413 44.1147 162.413 44.1147 162.415 44.1147C162.42 44.1174 162.425 44.12 162.431 44.124C163.121 44.5147 162.98 45.9094 162.268 47.54" fill="#6E98D5"/>
<path d="M104.411 14.8457L96.3892 11.347L86.2585 5.94037C81.5665 3.45903 73.3959 2.58436 67.7572 2.53903C64.5039 2.51236 31.3905 1.5777 26.1292 1.5777C25.9465 1.5777 25.7959 1.57904 25.6825 1.58171C17.8505 1.74437 16.1905 4.33636 15.6705 4.9537C14.5199 6.3177 13.5559 7.72704 12.7972 8.9617C11.8785 10.0324 11.0265 11.1377 10.2559 12.215C10.6172 11.419 12.3172 7.85637 15.1425 4.50837L15.2252 4.40703C15.8932 3.5777 17.9265 1.05237 25.6679 0.891033C25.7852 0.889699 25.9412 0.888363 26.1305 0.888363C29.3318 0.888363 42.7625 1.23103 53.5545 1.50703C60.4932 1.6857 66.4878 1.83771 67.7625 1.84837C73.7692 1.89637 81.8665 2.83637 86.5812 5.3297L104.411 14.8457" fill="#C9C9C9"/>
<path d="M96.3889 11.3467L90.2969 8.69067C89.7689 8.44801 89.2195 8.21867 88.6555 8.00267L87.6649 7.47334L85.9342 6.55068C85.9262 6.54668 85.9182 6.54134 85.9089 6.53734C85.9075 6.536 85.9062 6.53602 85.9049 6.53468C85.8982 6.53068 85.8902 6.52667 85.8835 6.52401C85.8822 6.52267 85.8809 6.52267 85.8796 6.52134C85.8716 6.51734 85.8635 6.51334 85.8569 6.50934C85.8555 6.50934 85.8542 6.50934 85.8542 6.50801C85.8462 6.50401 85.8382 6.50001 85.8302 6.49601C85.8289 6.49601 85.8289 6.49468 85.8275 6.49468C85.7835 6.47201 85.7409 6.44934 85.6969 6.42801C85.6942 6.42668 85.6929 6.42534 85.6902 6.42401C85.6835 6.42134 85.6782 6.41868 85.6715 6.41468C85.6689 6.41335 85.6662 6.41201 85.6622 6.41068C85.6569 6.40801 85.6529 6.40534 85.6476 6.40267C85.6436 6.40134 85.6395 6.39868 85.6355 6.39735C85.6315 6.39468 85.6275 6.39334 85.6235 6.39067C85.6182 6.38801 85.6129 6.38668 85.6075 6.38402C85.6075 6.38268 85.6062 6.38268 85.6049 6.38135C81.0635 4.13068 73.4542 3.27468 67.7515 3.22935C67.4835 3.22668 67.1929 3.22668 66.8822 3.22668C66.6195 3.22668 66.1662 3.22001 65.5582 3.20801C65.6582 3.79867 65.7515 4.39068 65.8409 4.98402C65.3315 4.97602 64.7742 4.96667 64.1742 4.95734C64.1342 4.69201 64.0942 4.42668 64.0542 4.15868C63.9995 3.79468 63.9449 3.42667 63.8902 3.05467C61.5635 2.99734 58.3422 2.93068 54.7969 2.85868C52.1742 2.80534 49.3742 2.74801 46.6289 2.69067C44.8355 2.65334 43.0662 2.61468 41.3849 2.57601C40.0449 2.54534 38.7609 2.51467 37.5649 2.48534C37.2542 3.132 36.9555 3.78535 36.6835 4.44935C35.8582 4.43602 35.0609 4.42268 34.2969 4.41068C34.3129 4.36934 34.3275 4.328 34.3435 4.288C34.5849 3.65601 34.8529 3.03734 35.1355 2.42401C34.8462 2.41734 34.5609 2.40934 34.2809 2.40267C32.6889 2.364 31.2516 2.33201 30.0409 2.30667C28.4862 2.27601 27.3035 2.25734 26.6382 2.25734C26.4849 2.25734 26.3595 2.25868 26.2635 2.26001L25.6969 2.27201C20.2129 2.38534 17.9342 3.69334 16.9195 4.60801C16.9195 4.60801 16.9182 4.60801 16.9182 4.60934C16.9169 4.61068 16.9155 4.61201 16.9142 4.61335C16.9129 4.61335 16.9115 4.61468 16.9102 4.61602C16.9089 4.61735 16.9089 4.61735 16.9076 4.61735C16.8382 4.68135 16.7755 4.74135 16.7169 4.80002C16.7209 4.82668 16.7249 4.85335 16.7302 4.87868C16.7302 4.88135 16.7302 4.88267 16.7302 4.88534C16.7849 5.228 16.8435 5.56934 16.9049 5.90934C14.4542 6.95068 13.4009 8.22934 12.8995 8.83867L12.8009 8.95734C12.7995 8.95867 12.7982 8.96001 12.7969 8.96134C13.5555 7.72668 14.5195 6.31734 15.6702 4.95334C16.1902 4.336 17.8502 1.74401 25.6822 1.58135C25.7955 1.57868 25.9462 1.57734 26.1289 1.57734C31.3902 1.57734 64.5035 2.51201 67.7569 2.53867C73.3955 2.58401 81.5662 3.45867 86.2582 5.94001L96.3889 11.3467" fill="#4F4D4E"/>
<path d="M16.9058 5.90967C16.8444 5.56967 16.7858 5.22833 16.7311 4.88566C16.7858 5.22833 16.8444 5.56967 16.9058 5.90967ZM16.7311 4.879C16.7258 4.85367 16.7218 4.82701 16.7178 4.80034C16.7218 4.82701 16.7258 4.85367 16.7311 4.879ZM16.9084 4.61768C16.9098 4.61768 16.9098 4.61767 16.9111 4.61634C16.9098 4.61767 16.9098 4.61768 16.9084 4.61768ZM16.9151 4.61367C16.9164 4.61234 16.9178 4.611 16.9191 4.60967C16.9178 4.611 16.9164 4.61234 16.9151 4.61367ZM16.9204 4.60833C17.9351 3.69367 20.2138 2.38566 25.6978 2.27233L26.2644 2.26034C26.3604 2.259 26.4858 2.25767 26.6391 2.25767C27.3044 2.25767 28.4871 2.27633 30.0418 2.307C29.8564 2.30433 29.6764 2.30034 29.5031 2.29634L27.4738 4.32567C27.2551 4.32433 27.0551 4.323 26.8724 4.323C26.4431 4.323 26.1164 4.32701 25.9084 4.33234L25.2778 4.35233C24.6071 4.37233 23.9711 4.40833 23.3684 4.459L25.5524 2.27633C20.1751 2.411 17.9258 3.70167 16.9204 4.60833V4.60833ZM34.2978 4.411C33.6031 4.399 32.9378 4.38967 32.3058 4.38034C32.9644 3.72167 33.6231 3.06166 34.2818 2.403C34.5618 2.40966 34.8471 2.41767 35.1364 2.42433C34.8538 3.03767 34.5858 3.65633 34.3444 4.28833C34.3284 4.32833 34.3138 4.36967 34.2978 4.411" fill="#99CEE3"/>
<path d="M64.1743 4.95752C63.8836 4.95219 63.5823 4.94819 63.2716 4.94285L64.0543 4.15885C64.0943 4.42685 64.1343 4.69219 64.1743 4.95752ZM51.0556 4.71486C50.2596 4.70019 49.4583 4.68551 48.6543 4.66951C47.3436 4.64418 46.0276 4.62019 44.7249 4.59486C45.3596 3.96019 45.9943 3.32552 46.6289 2.69085C49.3743 2.74819 52.1743 2.80552 54.7969 2.85885C54.1903 2.84552 53.5729 2.83352 52.9503 2.82018C52.3183 3.45218 51.6863 4.08419 51.0556 4.71486V4.71486ZM39.4623 4.49886C38.5103 4.48153 37.5809 4.46553 36.6836 4.44953C36.9556 3.78553 37.2543 3.13218 37.5649 2.48551C38.7609 2.51485 40.0449 2.54552 41.3849 2.57619C40.7449 3.21752 40.1036 3.85753 39.4623 4.49886" fill="#99CEE3"/>
<path d="M88.6559 8.00293C88.2893 7.86293 87.9173 7.72961 87.5386 7.60028C87.5799 7.55894 87.6226 7.51627 87.6653 7.4736L88.6559 8.00293V8.00293ZM85.9093 6.5376C85.9079 6.53626 85.9066 6.53628 85.9053 6.53494C85.9066 6.53628 85.9079 6.53626 85.9093 6.5376ZM85.8839 6.52427C85.8826 6.52293 85.8813 6.52293 85.8799 6.5216C85.8813 6.52293 85.8826 6.52293 85.8839 6.52427ZM85.8573 6.5096C85.8559 6.5096 85.8546 6.50827 85.8546 6.50827C85.8546 6.5096 85.8559 6.5096 85.8573 6.5096ZM85.8306 6.49627C85.8293 6.49627 85.8293 6.49494 85.8279 6.49494C85.8293 6.49494 85.8293 6.49627 85.8306 6.49627ZM85.6973 6.42827C85.6946 6.42694 85.6933 6.4256 85.6906 6.42427C85.6933 6.4256 85.6946 6.42694 85.6973 6.42827ZM85.6719 6.41494C85.6693 6.41361 85.6653 6.41227 85.6626 6.41094C85.6666 6.41227 85.6693 6.41361 85.6719 6.41494ZM85.6479 6.40293C85.6439 6.4016 85.6399 6.39894 85.6359 6.39761C85.6399 6.39894 85.6439 6.4016 85.6479 6.40293ZM85.6239 6.39093C85.6186 6.38827 85.6133 6.38694 85.6079 6.38428C85.6133 6.38694 85.6186 6.38827 85.6239 6.39093ZM85.6053 6.38161C84.7026 5.93494 83.6773 5.54294 82.5719 5.20161L81.6799 6.09227C77.6053 5.32027 73.4079 5.0096 69.9786 5.0096C69.9546 5.0096 69.9319 5.0096 69.9093 5.0096C69.6373 5.0096 69.3413 5.01227 69.0253 5.01494C68.9546 5.01627 68.8706 5.01628 68.7733 5.01628C68.5079 5.01628 68.1439 5.0136 67.6933 5.00827C68.2733 4.42827 68.8546 3.84694 69.4359 3.26694C68.9906 3.25094 68.5519 3.24028 68.1239 3.23361L66.3666 4.99227C66.1986 4.9896 66.0226 4.98694 65.8413 4.98428C65.7519 4.39094 65.6586 3.79893 65.5586 3.20827C66.1666 3.22027 66.6199 3.22694 66.8826 3.22694C67.1933 3.22694 67.4839 3.22694 67.7519 3.22961C73.4546 3.27494 81.0639 4.13094 85.6053 6.38161" fill="#99CEE3"/>
<path d="M90.0009 4.67188L89.6982 4.54121C89.7889 4.57988 89.8769 4.61721 89.9649 4.65721C89.9769 4.66254 89.9876 4.66654 89.9996 4.67188H90.0009" fill="#6E98D5"/>
<path d="M127.943 22.2827C125.218 22.2827 121.067 21.4787 116.406 19.428C113.887 18.3187 92.9137 7.66137 91.131 6.79071C88.3337 5.42404 89.2697 4.52804 89.6363 4.52804C89.6523 4.52804 89.667 4.52938 89.6803 4.53338C89.687 4.53605 89.6937 4.53871 89.699 4.54137L90.0017 4.67204C90.1003 4.71737 90.2003 4.76137 90.2977 4.80671C90.2883 4.80271 90.279 4.79738 90.2697 4.79338C90.1323 4.73471 90.0083 4.70671 89.9083 4.70671C89.3443 4.70671 89.491 5.58538 91.9163 6.77604C91.927 6.78138 91.9363 6.78537 91.9457 6.79071C91.9483 6.79071 91.9496 6.79204 91.951 6.79338C91.9523 6.79338 91.9523 6.79338 91.9536 6.79338C91.9536 6.79471 91.955 6.79471 91.955 6.79471C91.959 6.79604 91.9617 6.79738 91.9657 6.80005C91.9697 6.80138 91.975 6.80404 91.9803 6.80671C91.983 6.80804 91.9843 6.80938 91.987 6.81071C92.0256 6.82938 92.0723 6.85204 92.1256 6.87738C92.1256 6.87871 92.1256 6.87871 92.1256 6.87871C92.183 6.90671 92.2483 6.93871 92.3216 6.97471C92.3536 6.99071 92.387 7.00671 92.423 7.02404C92.4256 7.02537 92.4283 7.02671 92.431 7.02804C93.015 7.31738 93.9923 7.80005 95.2256 8.41205C96.1883 8.88805 97.307 9.44271 98.5216 10.044C99.9256 10.74 101.456 11.4987 103.016 12.2707C103.034 12.2787 103.05 12.2867 103.066 12.2947C103.078 12.3014 103.09 12.3067 103.102 12.312C106.282 13.8867 109.571 15.5134 112.152 16.7827C112.722 17.0627 113.256 17.3254 113.748 17.5667C115.208 18.2827 116.284 18.8054 116.746 19.02C121.09 21.0427 126.679 21.8681 129.626 21.8681C129.862 21.8681 130.082 21.8627 130.282 21.852C130.356 21.872 130.432 21.8907 130.508 21.9107C129.932 22.148 129.056 22.2827 127.943 22.2827" fill="#4F4D4E"/>
<path d="M129.625 21.8682C126.679 21.8682 121.089 21.0428 116.745 19.0201C116.284 18.8055 115.208 18.2828 113.748 17.5668L115.409 15.9042L125.201 20.2308C126.353 20.7655 128.208 21.3215 130.281 21.8521C130.081 21.8628 129.861 21.8682 129.625 21.8682ZM112.152 16.7828C109.571 15.5135 106.281 13.8868 103.101 12.3122C104.311 12.9108 105.536 13.5175 106.733 14.1095C107.204 13.6375 107.676 13.1668 108.147 12.6948L113.76 15.1748C113.224 15.7108 112.688 16.2468 112.152 16.7828V16.7828ZM103.065 12.2948C103.049 12.2868 103.033 12.2788 103.016 12.2708C103.032 12.2788 103.049 12.2868 103.065 12.2948ZM98.5215 10.0442C97.3068 9.44282 96.1881 8.88816 95.2255 8.41216C95.5561 8.08149 95.8855 7.75215 96.2148 7.42149L99.6335 8.93216L98.5215 10.0442V10.0442ZM92.4308 7.02816C92.4281 7.02683 92.4255 7.02549 92.4228 7.02415C92.4255 7.02549 92.4281 7.02683 92.4308 7.02816ZM92.3215 6.97482C92.2481 6.93882 92.1828 6.90683 92.1255 6.87883C92.1828 6.90683 92.2481 6.93882 92.3215 6.97482ZM92.1255 6.87749C92.0721 6.85216 92.0255 6.82949 91.9868 6.81082C92.0255 6.82949 92.0721 6.85216 92.1255 6.87749ZM91.9802 6.80682C91.9748 6.80415 91.9695 6.8015 91.9655 6.80016C91.9695 6.8015 91.9748 6.80415 91.9802 6.80682ZM91.9548 6.79483C91.9548 6.79483 91.9535 6.79482 91.9535 6.79349C91.9535 6.79482 91.9548 6.79483 91.9548 6.79483ZM91.9508 6.79349C91.9495 6.79216 91.9482 6.79082 91.9455 6.79082C91.9482 6.79082 91.9495 6.79216 91.9508 6.79349ZM91.9162 6.77616C89.4908 5.58549 89.3442 4.70682 89.9082 4.70682C89.3455 4.70682 89.4908 5.58549 91.9162 6.77616ZM90.2975 4.80682C90.2881 4.80282 90.2788 4.79749 90.2695 4.79349C90.2788 4.79749 90.2881 4.80282 90.2975 4.80682Z" fill="#99CEE3"/>
<path d="M162.245 47.4175C162.124 46.7281 161.902 45.4641 161.669 44.0815C163.288 44.1841 162.97 45.8121 162.245 47.4175Z" fill="#8BADDD"/>
<path d="M5.86404 19.3799C5.50538 16.8372 7.11738 12.9079 12.564 6.85187C12.564 6.85187 9.51337 10.4812 9.27604 13.6279C7.52404 16.2412 6.31871 18.4959 5.86404 19.3799Z" fill="#8BADDD"/>
<path d="M2.35884 26.9536H2.07617C2.10284 26.1816 2.14017 25.4336 2.19217 24.727H2.62018C2.37218 25.395 2.2735 26.0056 2.4255 26.4856C2.4015 26.6376 2.37884 26.7936 2.35884 26.9536ZM4.93752 20.7776C4.97218 19.2296 5.08551 17.723 5.35218 16.5083V16.3043C5.49085 16.1069 5.61884 15.9216 5.73218 15.7549C6.12551 14.9709 8.16551 11.0203 11.2175 7.02962C11.3522 7.03096 11.4135 7.08296 11.4135 7.08296C11.4135 7.08296 7.84551 12.3763 6.34951 15.2536C5.78285 16.3429 5.52951 18.1256 5.43485 20.0709C5.28151 20.2896 5.11352 20.527 4.93752 20.7776" fill="#7D4C50"/>
<path d="M2.62039 24.7266H2.19238C2.24972 23.9626 2.32438 23.2479 2.42572 22.6012C1.93238 21.0439 4.08839 18.1039 5.35239 16.3039V16.5079C5.08573 17.7226 4.97239 19.2292 4.93773 20.7772C4.10706 21.9599 3.09239 23.4492 2.62039 24.7266" fill="#D24D55"/>
<path d="M1.55469 38.9429H1.55602C1.55469 38.9429 1.55469 38.9429 1.55469 38.9429ZM1.57069 38.9375C1.57202 38.9375 1.57202 38.9375 1.57336 38.9362C1.57202 38.9375 1.57202 38.9375 1.57069 38.9375ZM1.57734 38.9349C1.57868 38.9349 1.57868 38.9349 1.58001 38.9349C1.57868 38.9349 1.57868 38.9349 1.57734 38.9349ZM1.58402 38.9335C1.58535 38.9322 1.58669 38.9322 1.58802 38.9322C1.58669 38.9322 1.58535 38.9322 1.58402 38.9335ZM1.59334 38.9295C1.59468 38.9295 1.59601 38.9295 1.59735 38.9282C1.59601 38.9295 1.59468 38.9295 1.59334 38.9295ZM1.60135 38.9282C1.60135 38.9269 1.60269 38.9269 1.60402 38.9269C1.60269 38.9269 1.60135 38.9269 1.60135 38.9282ZM1.60802 38.9255C1.61069 38.9255 1.61201 38.9242 1.61468 38.9242C1.61201 38.9242 1.60936 38.9255 1.60802 38.9255ZM1.61735 38.9229C1.61868 38.9229 1.62002 38.9215 1.62135 38.9215C1.62002 38.9215 1.61868 38.9229 1.61735 38.9229ZM1.62534 38.9202C1.62668 38.9202 1.62801 38.9202 1.62935 38.9189C1.62801 38.9202 1.62668 38.9202 1.62534 38.9202ZM1.63201 38.9189C1.63468 38.9175 1.63735 38.9175 1.63869 38.9162C1.63735 38.9175 1.63468 38.9175 1.63201 38.9189ZM1.64136 38.9162C1.64269 38.9162 1.64535 38.9149 1.64668 38.9149C1.64535 38.9149 1.64269 38.9162 1.64136 38.9162ZM1.64935 38.9149C1.65202 38.9135 1.65469 38.9135 1.65602 38.9122C1.65469 38.9135 1.65202 38.9135 1.64935 38.9149Z" fill="white"/>
<path d="M0.954734 43.4692C0.562734 41.2012 0.601395 39.3266 1.53206 38.9519C1.54006 38.9492 1.54673 38.9452 1.55473 38.9426C1.55473 38.9426 1.55474 38.9426 1.55607 38.9426C1.5614 38.9412 1.56673 38.9386 1.57073 38.9372C1.57207 38.9372 1.57207 38.9372 1.5734 38.9359C1.57474 38.9359 1.57606 38.9359 1.57739 38.9346C1.57872 38.9346 1.57873 38.9346 1.58006 38.9346C1.58139 38.9333 1.58273 38.9333 1.58406 38.9333C1.5854 38.9319 1.58673 38.9319 1.58807 38.9319C1.59073 38.9306 1.59206 38.9306 1.59339 38.9292C1.59472 38.9292 1.59606 38.9292 1.59739 38.9279C1.59873 38.9279 1.60006 38.9279 1.6014 38.9279C1.6014 38.9266 1.60273 38.9266 1.60407 38.9266C1.6054 38.9266 1.60674 38.9252 1.60807 38.9252C1.6094 38.9252 1.61206 38.9239 1.61473 38.9239C1.61606 38.9226 1.61606 38.9226 1.6174 38.9226C1.61873 38.9226 1.62007 38.9212 1.6214 38.9212C1.62273 38.9212 1.62405 38.9212 1.62539 38.9199C1.62672 38.9199 1.62806 38.9199 1.62939 38.9186C1.63073 38.9186 1.63073 38.9186 1.63206 38.9186C1.63473 38.9172 1.6374 38.9173 1.63873 38.9159C1.64007 38.9159 1.64007 38.9159 1.6414 38.9159C1.64274 38.9159 1.64539 38.9146 1.64673 38.9146C1.64806 38.9146 1.64806 38.9146 1.6494 38.9146C1.65206 38.9133 1.65474 38.9132 1.65607 38.9119C0.217402 39.4519 0.908071 42.7146 0.908071 42.7146C0.908071 42.7146 1.06406 41.1599 1.86406 40.4826C1.81739 41.3213 1.75074 42.1012 1.65607 42.7959C1.33474 42.8732 1.1054 43.1106 0.954734 43.4692V43.4692ZM1.93206 38.9226C1.83473 38.9186 1.74274 38.9146 1.65607 38.9119C1.9574 36.7039 1.97073 33.6359 2.0054 30.5759C2.03207 30.5772 2.05873 30.5772 2.0854 30.5786C1.9854 33.2599 2.01473 36.2732 1.93206 38.9226" fill="#6E98D5"/>
<path d="M0.907906 42.7148C0.907906 42.7148 0.217237 39.4522 1.6559 38.9122C1.74257 38.9148 1.83456 38.9188 1.9319 38.9228C1.91456 39.4588 1.89323 39.9815 1.8639 40.4828C1.0639 41.1602 0.907906 42.7148 0.907906 42.7148" fill="#8BADDD"/>
<path d="M2.08488 30.5786C2.05821 30.5773 2.03155 30.5773 2.00488 30.5759C2.01422 29.7719 2.02487 28.9666 2.0422 28.1799H2.2262C2.16087 28.9319 2.11688 29.7399 2.08488 30.5786" fill="#7D4C50"/>
<path d="M2.22697 28.1802H2.04297C2.0523 27.7655 2.06297 27.3562 2.0763 26.9535H2.35897C2.30697 27.3428 2.2643 27.7522 2.22697 28.1802" fill="#E0895B"/>
<path d="M161.317 37.4844C161.317 37.4844 156.228 37.403 155.177 37.403C154.127 37.403 152.753 31.1817 146.048 29.4857C152.188 30.2124 158.975 31.5857 160.671 34.979C161.236 36.919 161.317 37.4844 161.317 37.4844Z" fill="#2F5C91"/>
<path d="M160.024 35.3828C158.587 32.5068 153.491 31.0815 148.232 30.2722C153.076 32.5828 154.252 37.4028 155.178 37.4028C155.98 37.4028 159.139 37.4508 160.586 37.4722C160.502 37.1028 160.338 36.4535 160.024 35.3828Z" fill="white"/>
<path d="M152.506 33.7856C152.506 33.7856 155.871 32.1763 155.71 32.1123C153.574 31.263 150.924 30.687 148.232 30.2723C150.172 31.1976 151.523 32.5256 152.506 33.7856" fill="#C7DEF9"/>
<path d="M154.008 36.0108C154.517 36.8415 154.861 37.4028 155.177 37.4028C155.98 37.4028 159.138 37.4508 160.585 37.4722C160.518 37.1815 160.402 36.7162 160.204 36.0108H154.008Z" fill="#D86B32"/>
<path d="M161.34 38.2174H156.503C155.79 38.2174 155.211 38.7961 155.211 39.5107C155.211 40.2241 155.79 40.8027 156.503 40.8027H161.772C161.631 39.9761 161.48 39.0801 161.34 38.2174Z" fill="#2F5C91"/>
<path d="M161.243 39.5106C161.243 38.9746 160.808 38.5413 160.274 38.5413H155.65C155.382 38.7773 155.211 39.124 155.211 39.5106C155.211 39.8973 155.382 40.2426 155.65 40.48H160.274C160.808 40.48 161.243 40.0453 161.243 39.5106Z" fill="white"/>
<path d="M78.1121 20.3359L77.9561 20.3266L78.1121 20.3359ZM90.5134 8.99461L89.7147 8.56795L90.5134 8.99461Z" fill="#BDBCBC"/>
<path d="M79.1147 20.3936L78.1121 20.3362L77.9561 20.3269L89.7147 8.56823L90.5134 8.99489L79.1147 20.3936Z" fill="#D9EDF4"/>
<path d="M74.981 20.1562L68.0156 19.7562L74.9823 20.1562C74.981 20.1562 74.981 20.1562 74.981 20.1562" fill="#BDBCBC"/>
<path d="M74.9823 20.1562L68.0156 19.7563L81.6796 6.09225C83.6996 6.47492 85.6876 6.97226 87.5383 7.60026C83.353 11.7856 79.1676 15.9709 74.981 20.1562" fill="#D9EDF4"/>
<path d="M53.7785 18.9229L53.0025 18.8789L52.5078 18.8509L64.4638 6.89352C64.5225 7.28552 64.5785 7.6762 64.6345 8.06686L53.7785 18.9229Z" fill="#D9EDF4"/>
<path d="M49.5322 18.6826L37.7549 18.016C42.1882 13.5826 46.6229 9.14795 51.0562 4.71462C55.6202 4.80262 59.9682 4.88528 63.2722 4.94261L49.5322 18.6826Z" fill="#D9EDF4"/>
<path d="M31.3359 14.2026C31.5013 13.5013 31.6759 12.8013 31.8573 12.104C31.8586 12.1026 31.8599 12.1027 31.8599 12.1013C31.6773 12.8 31.5026 13.5 31.3359 14.2026Z" fill="#BDBCBC"/>
<path d="M30.6037 17.6079L26.5837 17.3772C28.341 15.6199 30.0997 13.8612 31.857 12.1039C31.6757 12.8012 31.501 13.5012 31.3357 14.2026C31.3304 14.2252 31.325 14.2492 31.3197 14.2719C31.0584 15.3799 30.8224 16.4932 30.6037 17.6079ZM19.9104 16.7732C19.4704 15.5639 19.0584 14.3466 18.6797 13.1186L27.473 4.32524C28.6384 4.33058 30.3037 4.35058 32.305 4.37991C28.173 8.51058 24.0424 12.6412 19.9104 16.7732Z" fill="#D9EDF4"/>
<path d="M33.4453 14.9253C33.4586 14.8666 33.4733 14.808 33.4867 14.7493C33.4733 14.808 33.4586 14.8666 33.4453 14.9253ZM33.5067 14.6653C33.5093 14.6533 33.512 14.6426 33.5146 14.632C33.512 14.644 33.5093 14.6533 33.5067 14.6653ZM33.528 14.5786C33.5306 14.5666 33.5333 14.556 33.536 14.5453C33.5333 14.556 33.5306 14.5666 33.528 14.5786ZM33.5493 14.4866C33.552 14.4773 33.5533 14.468 33.556 14.46C33.5533 14.4693 33.552 14.4773 33.5493 14.4866Z" fill="#BDBCBC"/>
<path d="M33.1719 16.1479C33.2599 15.7399 33.3505 15.3319 33.4452 14.9253C33.4585 14.8666 33.4732 14.808 33.4865 14.7493C33.4932 14.7213 33.4999 14.6933 33.5065 14.6653C33.5092 14.6533 33.5119 14.6439 33.5145 14.6319C33.5185 14.6146 33.5225 14.5959 33.5279 14.5786C33.5305 14.5666 33.5332 14.5559 33.5359 14.5453C33.5399 14.5253 33.5439 14.5053 33.5492 14.4866C33.5519 14.4773 33.5532 14.4693 33.5559 14.4599C34.0092 12.5639 34.5359 10.6853 35.1319 8.82928C36.5759 7.38528 38.0199 5.94262 39.4625 4.49862C41.1585 4.52928 42.9292 4.56128 44.7252 4.59461C40.8732 8.44661 37.0225 12.2973 33.1719 16.1479" fill="#D9EDF4"/>
<path d="M17.8053 10.0229C17.4573 8.66295 17.1546 7.29229 16.9053 5.90962C18.4413 5.25762 20.5266 4.69895 23.3679 4.45895L17.8053 10.0229Z" fill="#D9EDF4"/>
<path d="M66.0719 6.63086C66.0185 6.23619 65.9665 5.84286 65.9092 5.44953L65.9105 5.44819C65.9678 5.84019 66.0225 6.23352 66.0745 6.62686C66.0732 6.62819 66.0732 6.62953 66.0719 6.63086Z" fill="#BDBCBC"/>
<path d="M66.0742 6.62695C66.0222 6.23362 65.9675 5.84029 65.9102 5.44829L66.3662 4.99229C66.8662 4.99895 67.3102 5.00428 67.6928 5.00828C67.1528 5.54828 66.6142 6.08695 66.0742 6.62695Z" fill="#D9EDF4"/>
<path d="M87.6655 7.47363L85.9348 6.55098L87.6655 7.47363ZM85.9348 6.55098C85.9268 6.54698 85.9188 6.54163 85.9095 6.53763C85.9188 6.54163 85.9268 6.54698 85.9348 6.55098ZM85.9055 6.53498C85.8988 6.53098 85.8908 6.52697 85.8841 6.5243C85.8908 6.52697 85.8988 6.53098 85.9055 6.53498ZM85.8801 6.52163C85.8721 6.51763 85.8641 6.51364 85.8575 6.50964C85.8641 6.51364 85.8721 6.51763 85.8801 6.52163ZM85.8548 6.5083C85.8468 6.5043 85.8388 6.50031 85.8308 6.49631C85.8388 6.50031 85.8468 6.5043 85.8548 6.5083ZM85.8281 6.49497C85.7841 6.4723 85.7415 6.44964 85.6975 6.4283C85.7415 6.44964 85.7841 6.4723 85.8281 6.49497ZM85.6908 6.4243C85.6841 6.42163 85.6775 6.41897 85.6721 6.41497C85.6788 6.41897 85.6841 6.42163 85.6908 6.4243ZM85.6628 6.41097C85.6575 6.4083 85.6535 6.40563 85.6481 6.40296C85.6535 6.40563 85.6575 6.4083 85.6628 6.41097ZM85.6361 6.39764C85.6321 6.39497 85.6281 6.39363 85.6241 6.39097C85.6281 6.39363 85.6321 6.39497 85.6361 6.39764ZM85.6081 6.38431C85.6081 6.38298 85.6068 6.38297 85.6055 6.38164C85.6068 6.38297 85.6081 6.38298 85.6081 6.38431Z" fill="#CAC9CA"/>
<path d="M87.5383 7.6001C85.6877 6.9721 83.6997 6.47476 81.6797 6.09209L82.5717 5.20143C83.677 5.54277 84.7023 5.93476 85.605 6.38143C85.6063 6.38276 85.6077 6.38276 85.6077 6.3841C85.613 6.38676 85.6183 6.38809 85.6237 6.39076C85.6277 6.39342 85.6317 6.39476 85.6357 6.39743C85.6397 6.39876 85.6437 6.40142 85.6477 6.40275C85.653 6.40542 85.657 6.40809 85.6623 6.41076C85.665 6.41209 85.669 6.41343 85.6717 6.41476C85.677 6.41876 85.6837 6.42142 85.6903 6.42409C85.693 6.42542 85.6943 6.42676 85.697 6.42809C85.741 6.44943 85.7837 6.47209 85.8277 6.49476C85.829 6.49476 85.829 6.49609 85.8303 6.49609C85.8383 6.50009 85.8463 6.50409 85.8543 6.50809C85.8543 6.50809 85.8557 6.50942 85.857 6.50942C85.8637 6.51342 85.8717 6.51742 85.8797 6.52142C85.881 6.52275 85.8823 6.52276 85.8837 6.52409C85.8903 6.52676 85.8983 6.53077 85.905 6.53477C85.9063 6.5361 85.9077 6.53609 85.909 6.53742C85.9184 6.54142 85.9263 6.54676 85.9343 6.55076L87.665 7.47342C87.6223 7.51609 87.5797 7.55876 87.5383 7.6001" fill="#E0F0F7"/>
<path d="M16.7311 4.88525C16.7311 4.88259 16.7311 4.88126 16.7311 4.8786C16.7311 4.88126 16.7311 4.88259 16.7311 4.88525ZM16.7178 4.79993C16.7764 4.74127 16.8391 4.68127 16.9084 4.61727C16.8391 4.68127 16.7764 4.74127 16.7178 4.79993ZM16.9111 4.61593C16.9124 4.6146 16.9138 4.61326 16.9151 4.61326C16.9138 4.61326 16.9124 4.6146 16.9111 4.61593ZM16.9191 4.60926C16.9191 4.60793 16.9204 4.60793 16.9204 4.60793C16.9204 4.60793 16.9191 4.60793 16.9191 4.60926Z" fill="#CAC9CA"/>
<path d="M16.9058 5.90967C16.8444 5.56967 16.7858 5.22833 16.7311 4.88566C16.7311 4.88299 16.7311 4.88167 16.7311 4.879C16.7258 4.85367 16.7218 4.82701 16.7178 4.80034C16.7764 4.74168 16.8391 4.68168 16.9084 4.61768C16.9098 4.61768 16.9098 4.61767 16.9111 4.61634C16.9124 4.61501 16.9138 4.61367 16.9151 4.61367C16.9164 4.61234 16.9178 4.611 16.9191 4.60967C16.9191 4.60833 16.9204 4.60833 16.9204 4.60833C17.9258 3.70167 20.1751 2.411 25.5524 2.27633L23.3684 4.459C20.5271 4.699 18.4418 5.25767 16.9058 5.90967" fill="#E0F0F7"/>
<path d="M67.6929 5.0083C67.3102 5.0043 66.8662 4.99897 66.3662 4.9923L68.1236 3.23364C68.5516 3.24031 68.9902 3.25098 69.4355 3.26698C68.8542 3.84698 68.2729 4.4283 67.6929 5.0083Z" fill="#E0F0F7"/>
<path d="M64.0542 4.15869C63.9995 3.79469 63.9449 3.42669 63.8902 3.05469C63.9449 3.42669 63.9995 3.79469 64.0542 4.15869ZM63.8902 3.05469C61.5636 2.99735 58.3422 2.93069 54.7969 2.85869C58.3422 2.93069 61.5636 2.99735 63.8902 3.05469Z" fill="#CAC9CA"/>
<path d="M63.2717 4.94287C59.9677 4.88554 55.6197 4.80288 51.0557 4.71488C51.6863 4.08421 52.3183 3.4522 52.9503 2.8202C53.573 2.83353 54.1903 2.84554 54.797 2.85887C58.3423 2.93087 61.5637 2.99753 63.8903 3.05487C63.945 3.42687 63.9997 3.79487 64.0543 4.15887L63.2717 4.94287" fill="#E0F0F7"/>
<path d="M46.6297 2.69092C44.8364 2.65358 43.0671 2.61492 41.3857 2.57625C43.0671 2.61492 44.8364 2.65358 46.6297 2.69092Z" fill="#CAC9CA"/>
<path d="M44.7256 4.59473C42.9296 4.56139 41.1589 4.5294 39.4629 4.49873C40.1042 3.8574 40.7456 3.21739 41.3856 2.57606C43.0669 2.61472 44.8362 2.65339 46.6296 2.69072C45.9949 3.32539 45.3602 3.96006 44.7256 4.59473" fill="#E0F0F7"/>
<path d="M34.281 2.40283C32.689 2.3655 31.2517 2.33217 30.041 2.30684C31.2517 2.33217 32.689 2.36417 34.281 2.40283Z" fill="#CAC9CA"/>
<path d="M32.3056 4.37988C30.3043 4.35055 28.639 4.33054 27.4736 4.32521L29.503 2.29588C29.6763 2.29988 29.8563 2.30388 30.0416 2.30654C31.2523 2.33188 32.6896 2.36521 34.2816 2.40254C33.623 3.06121 32.9643 3.72122 32.3056 4.37988" fill="#E0F0F7"/>
<path d="M114.065 15.1719L113.854 15.0799L114.065 15.1719Z" fill="#BDBCBC"/>
<path d="M115.409 15.9043L113.76 15.175C113.79 15.1443 113.822 15.1123 113.854 15.0803L114.065 15.1723L115.51 15.803L115.409 15.9043Z" fill="#D9EDF4"/>
<path d="M113.748 17.5669C113.256 17.3256 112.722 17.0629 112.152 16.7829C112.722 17.0629 113.256 17.3256 113.748 17.5669Z" fill="#CAC9CA"/>
<path d="M113.748 17.5669C113.256 17.3256 112.722 17.0629 112.152 16.7829C112.688 16.2469 113.224 15.7109 113.76 15.1749L115.41 15.9042L113.748 17.5669Z" fill="#E0F0F7"/>
<path d="M108.219 12.6226L99.6709 8.89456L108.219 12.6226Z" fill="#BDBCBC"/>
<path d="M108.147 12.6948L99.6338 8.93216L99.6711 8.89482L108.219 12.6228C108.195 12.6468 108.171 12.6708 108.147 12.6948" fill="#D9EDF4"/>
<path d="M103.101 12.312C103.089 12.3067 103.077 12.3013 103.065 12.2947C103.077 12.3 103.091 12.3067 103.101 12.312ZM103.016 12.2707C101.456 11.4987 99.9255 10.74 98.5215 10.044C99.9255 10.74 101.456 11.4987 103.016 12.2707Z" fill="#CAC9CA"/>
<path d="M106.733 14.1094C105.536 13.5174 104.311 12.9107 103.101 12.312C103.091 12.3067 103.077 12.3 103.065 12.2947C103.049 12.2867 103.032 12.2787 103.016 12.2707C101.456 11.4987 99.9255 10.74 98.5215 10.044L99.6335 8.93205L108.147 12.6947C107.676 13.1667 107.204 13.6374 106.733 14.1094" fill="#E0F0F7"/>
<path d="M96.2382 7.39746L90.2969 4.80679L96.2382 7.39746Z" fill="#BDBCBC"/>
<path d="M96.2142 7.42139L90.2969 4.80672L96.2382 7.3974C96.2302 7.4054 96.2222 7.41339 96.2142 7.42139" fill="#D9EDF4"/>
<path d="M95.2255 8.41211C93.9922 7.80011 93.0149 7.31744 92.4309 7.02811C93.0149 7.31744 93.9909 7.80011 95.2255 8.41211ZM92.4229 7.0241C92.3869 7.00677 92.3535 6.99077 92.3215 6.97477C92.3535 6.99077 92.3882 7.00677 92.4229 7.0241ZM92.1255 6.87878C92.1255 6.87878 92.1255 6.87877 92.1255 6.87744C92.1255 6.87877 92.1255 6.87878 92.1255 6.87878ZM91.9868 6.81077C91.9842 6.80944 91.9829 6.8081 91.9802 6.80677C91.9815 6.8081 91.9842 6.80944 91.9868 6.81077ZM91.9655 6.80011C91.9615 6.79745 91.9589 6.79611 91.9549 6.79478C91.9589 6.79611 91.9615 6.79745 91.9655 6.80011ZM91.9535 6.79344C91.9522 6.79344 91.9522 6.79344 91.9508 6.79344C91.9522 6.79344 91.9522 6.79344 91.9535 6.79344ZM91.9455 6.79077C91.9362 6.78544 91.9269 6.78144 91.9162 6.77611C91.9269 6.78144 91.9362 6.78544 91.9455 6.79077ZM90.2695 4.79344C90.1322 4.73477 90.0082 4.70677 89.9082 4.70677C90.0082 4.70677 90.1322 4.73477 90.2695 4.79344Z" fill="#CAC9CA"/>
<path d="M95.2249 8.41211C93.9902 7.80011 93.0142 7.31744 92.4302 7.02811C92.4276 7.02678 92.4249 7.02544 92.4222 7.0241C92.3875 7.00677 92.3529 6.99077 92.3209 6.97477C92.2475 6.93877 92.1822 6.90678 92.1249 6.87878C92.1249 6.87878 92.1249 6.87877 92.1249 6.87744C92.0716 6.85211 92.0249 6.82944 91.9862 6.81077C91.9835 6.80944 91.9809 6.8081 91.9796 6.80677C91.9742 6.8041 91.9689 6.80145 91.9649 6.80011C91.9609 6.79745 91.9582 6.79611 91.9542 6.79478C91.9542 6.79478 91.9529 6.79477 91.9529 6.79344C91.9515 6.79344 91.9515 6.79344 91.9502 6.79344C91.9489 6.79211 91.9476 6.79077 91.9449 6.79077C91.9356 6.78544 91.9262 6.78144 91.9156 6.77611C89.4902 5.58544 89.3449 4.70677 89.9076 4.70677C90.0076 4.70677 90.1316 4.73477 90.2689 4.79344C90.2782 4.79744 90.2876 4.80277 90.2969 4.80677L96.2142 7.42144C95.8849 7.7521 95.5556 8.08144 95.2249 8.41211" fill="#E0F0F7"/>
<path d="M148.961 35.4899L146.286 30.185C146.161 29.9383 145.839 29.9383 145.714 30.185L143.039 35.4899C142.024 37.7405 142.952 40.0788 144.854 40.7893C145.176 40.9165 145.523 40.9908 145.887 40.9991C145.912 40.9997 145.937 41 145.962 41H145.962C145.975 41 145.988 40.9995 146 40.9994C146.013 40.9995 146.025 41 146.038 41H146.038C146.063 41 146.088 40.9997 146.114 40.9991C146.477 40.9908 146.824 40.9165 147.146 40.7893C149.065 40.0727 149.971 37.7293 148.961 35.4899Z" fill="#56544D"/>
<path d="M144.7 36.1087L145.95 30.2003C145.967 30.1187 146.007 30.0529 146.059 30.0057C145.929 29.9803 145.788 30.0399 145.714 30.1849L143.039 35.4898C142.024 37.7405 142.952 40.0787 144.854 40.7893C145.176 40.9164 145.523 40.9907 145.887 40.999C145.912 40.9996 145.937 40.9999 145.962 40.9999C145.975 40.9999 145.988 40.9994 146 40.9993C146.013 40.9994 146.025 40.9999 146.038 40.9999H146.038C146.063 40.9999 146.088 40.9996 146.114 40.999C146.477 40.9907 146.824 40.9164 147.146 40.7893C147.269 40.7434 147.388 40.6908 147.502 40.6322C145.632 40.3722 144.302 38.4697 144.7 36.1087Z" fill="#3F3E3B"/>
</svg>
