<svg width="158" height="54" viewBox="0 0 158 54" fill="none" xmlns="http://www.w3.org/2000/svg">
<path d="M157.757 49.3798C157.757 50.8428 122.477 52.0293 78.956 52.0293C35.4347 52.0293 0.15332 50.8428 0.15332 49.3798C0.15332 47.9158 35.4347 46.7293 78.956 46.7293C122.477 46.7293 157.757 47.9158 157.757 49.3798" fill="black" fill-opacity="0.3"/>
<path d="M7.51102 26.3096C6.88035 28.8014 5.66968 30.644 4.80701 30.4252C3.94301 30.2071 3.75499 28.0096 4.38566 25.5175C5.01499 23.0252 6.227 21.1831 7.08966 21.4014C7.95366 21.62 8.14169 23.8175 7.51102 26.3096" fill="#D60606"/>
<path d="M42.6255 11.8627C43.5162 13.3573 43.0255 15.2907 41.5308 16.1797C40.0362 17.0704 38.1029 16.5797 37.2122 15.0855L35.6015 12.3788C34.7108 10.884 35.2015 8.95066 36.6962 8.06159C38.1908 7.17039 40.1242 7.66159 41.0135 9.15586L42.6255 11.8627" fill="#070000"/>
<path d="M70.3052 13.5962C71.1959 15.0908 70.7052 17.0242 69.2105 17.9148C67.7159 18.8039 65.7825 18.3148 64.8918 16.82L63.2812 14.1132C62.3905 12.619 62.8812 10.6842 64.3759 9.7951C65.8705 8.9039 67.8038 9.3951 68.6932 10.8894L70.3052 13.5962" fill="#070000"/>
<path d="M155.348 41.625C154.843 41.4599 154.913 40.0079 154.955 37.7719C156.508 38.3891 157.587 28.6078 156.215 25.3745C153.791 19.6599 132.411 13.4693 109.836 13.4693C100.277 7.85314 89.5734 2.48394 81.2201 0.834475C80.7548 0.742742 78.0334 1.51874 81.8628 3.51048C88.6068 7.01728 102.717 13.4626 91.2321 13.4626C50.6614 13.4626 42.1334 13.2949 41.1268 11.2813C36.9321 4.57034 23.7308 12.7266 17.6388 15.0266C9.84679 17.9703 4.99212 19.249 6.03745 23.3386C6.86812 26.5823 5.95611 28.0105 4.42944 28.5198C2.72011 29.0906 4.85745 41.8105 8.57079 42.7881C11.3175 43.5105 15.9281 44.2735 20.0641 44.636C26.5174 45.2026 90.1134 45.0865 110.701 44.4641C127.844 43.9438 163.832 44.3959 155.348 41.625" fill="#861E29"/>
<path d="M155.348 41.625C155.086 41.5402 154.98 41.1 154.944 40.3891C146.43 41.3094 123.94 41.1829 111.363 41.5547C90.3029 42.1797 25.2483 42.2948 18.6469 41.7282C14.4163 41.3652 9.70025 40.6026 6.88958 39.8797C6.42558 39.7599 5.98427 39.4599 5.57227 39.0318C6.36293 40.9615 7.3856 42.4761 8.57093 42.7881C11.3176 43.5105 15.9283 44.2735 20.0643 44.636C26.5176 45.2026 90.1136 45.0865 110.702 44.4641C127.844 43.9438 163.834 44.3959 155.348 41.625Z" fill="#540C16"/>
<path d="M154.955 30.7268C154.913 32.9617 154.843 34.4148 155.348 34.5789C155.848 34.7429 156.18 34.8935 156.384 35.0347C156.864 32.5799 157.02 29.044 156.588 26.7216C156.263 29.1404 155.66 31.0071 154.955 30.7268Z" fill="#191919"/>
<path d="M30.4537 23.1652C38.5817 23.1652 45.1711 29.7548 45.1711 37.884C45.1711 38.3439 45.2631 41.4251 45.3604 45.0918C33.1524 45.06 23.3644 44.9267 20.0644 44.6361C18.5004 44.5001 17.0338 44.3496 15.6631 44.1762C15.6938 41.0361 15.7351 38.4668 15.7351 37.884C15.7351 29.7548 22.3244 23.1652 30.4537 23.1652Z" fill="#191919"/>
<path d="M120.398 23.1654C128.526 23.1654 135.116 29.755 135.116 37.8842C135.116 38.2909 135.148 41.068 135.232 44.1748C127.426 44.4097 118.525 44.2269 110.701 44.4644C109.316 44.5055 107.596 44.5466 105.604 44.5894C105.636 41.2628 105.68 38.4919 105.68 37.8842C105.68 29.755 112.269 23.1654 120.398 23.1654Z" fill="#191919"/>
<path d="M107.996 38.1216C107.996 45.0549 113.617 50.6763 120.552 50.6763C127.485 50.6763 133.107 45.0549 133.107 38.1216C133.107 31.1867 127.485 25.5653 120.552 25.5653C113.617 25.5653 107.996 31.1867 107.996 38.1216" fill="#070000"/>
<path d="M115.104 41.7453C117.71 44.3506 117.358 39.7761 119.963 37.1703C122.568 34.5651 127.143 34.9173 124.539 32.3121C121.934 29.7069 117.71 29.7069 115.104 32.3121C112.499 34.9173 112.499 39.1411 115.104 41.7453" fill="#D60606"/>
<path d="M113.534 42.8345L116.92 40.3798L118.45 40.136L118.207 41.6668L115.74 45.0678C114.874 44.4668 114.123 43.7105 113.534 42.8345V42.8345ZM117.515 46.0037C117.327 45.9319 117.144 45.8522 116.963 45.7668L117.719 44.7241L117.515 46.0037ZM120.552 46.5746C119.975 46.5746 119.414 46.5162 118.87 46.4069L119.536 42.2173L120.447 40.9626L121.356 42.2173L122.028 46.4371C121.548 46.5225 121.056 46.5746 120.552 46.5746V46.5746ZM123.984 45.8428C123.791 45.9293 123.591 46.0037 123.39 46.0761L123.174 44.7241L123.984 45.8428ZM125.224 45.1642L122.687 41.6652L122.443 40.136L123.974 40.3798L127.498 42.9345C126.887 43.8131 126.116 44.572 125.224 45.1642V45.1642ZM127.515 33.3308L123.974 35.8985L122.443 36.1428L122.687 34.6121L125.243 31.0881C126.135 31.6855 126.906 32.448 127.515 33.3308ZM123.395 30.1668C123.602 30.2412 123.806 30.3199 124.004 30.4095L123.174 31.5548L123.395 30.1668ZM120.552 29.6668C121.059 29.6668 121.552 29.7188 122.035 29.8037L121.356 34.0616L120.447 35.3157L119.538 34.0616L118.864 29.836C119.41 29.7251 119.974 29.6668 120.552 29.6668V29.6668ZM116.943 30.484C117.128 30.396 117.318 30.3147 117.51 30.2403L117.719 31.5548L116.943 30.484ZM115.723 31.1865L118.207 34.6121L118.45 36.1428L116.92 35.8985L113.518 33.4319C114.106 32.5521 114.855 31.7917 115.723 31.1865V31.1865ZM112.839 34.6693L113.862 35.4121L112.622 35.2131C112.688 35.0293 112.759 34.848 112.839 34.6693ZM128.471 35.1829L127.032 35.4121L128.21 34.5573C128.306 34.7616 128.391 34.9693 128.471 35.1829ZM124.524 39.0496L123.271 38.1387L124.526 37.2293L128.854 36.5403C128.95 37.0521 129.006 37.5797 129.006 38.1215C129.006 38.6745 128.95 39.2131 128.847 39.7371L124.524 39.0496ZM128.198 41.7121L127.032 40.8668L128.458 41.0933C128.379 41.3037 128.292 41.5095 128.198 41.7121V41.7121ZM112.251 39.7053C112.154 39.1907 112.098 38.6627 112.098 38.1215C112.098 37.5907 112.152 37.0745 112.246 36.572L116.368 37.2293L117.623 38.1387L116.37 39.0496L112.251 39.7053ZM112.634 41.0626L113.862 40.8668L112.852 41.5985C112.772 41.4241 112.702 41.2438 112.634 41.0626ZM110.854 38.1215C110.854 43.4772 115.195 47.8188 120.552 47.8188C125.908 47.8188 130.25 43.4772 130.25 38.1215C130.25 32.7641 125.908 28.4225 120.552 28.4225C115.195 28.4225 110.854 32.7641 110.854 38.1215Z" fill="#F9EFF0"/>
<path d="M122.186 33.9387L122.573 31.5079L123.632 31.9455L122.186 33.9387ZM118.706 33.9387L117.26 31.9455L118.32 31.5069L118.706 33.9387ZM116.245 36.3985L113.814 36.0121L114.252 34.9532L116.245 36.3985ZM124.646 36.4001L126.64 34.9532L127.078 36.0121L124.646 36.4001ZM126.64 41.3241L124.646 39.8788L127.078 40.2668L126.64 41.3241ZM114.252 41.3251L113.814 40.2668L116.246 39.8788L114.252 41.3251ZM119.036 41.5439L119.413 39.1704L117.042 39.5496L118.986 38.1403L117.042 36.7293L119.413 37.1069L119.036 34.7345L120.446 36.6797L121.856 34.7345L121.477 37.1069L123.852 36.7283L121.905 38.1403L123.85 39.5496L121.477 39.1704L121.856 41.5439L120.446 39.5985L119.036 41.5439ZM122.573 44.772L122.186 42.3386L123.632 44.3334L122.573 44.772ZM118.318 44.772L117.26 44.3334L118.706 42.3402L118.318 44.772" fill="#999999"/>
<path d="M120.552 27.3465C114.102 27.3465 108.849 32.407 108.509 38.7705C108.497 38.5549 108.476 38.3404 108.476 38.1216C108.476 31.4522 113.882 26.0456 120.552 26.0456C127.22 26.0456 132.626 31.4522 132.626 38.1216C132.626 38.3404 132.605 38.5549 132.593 38.7705C132.253 32.407 127 27.3465 120.552 27.3465" fill="#262626"/>
<path d="M120.552 47.8653C125.77 47.8653 130.02 43.7705 130.296 38.6216C130.306 38.7961 130.323 38.9694 130.323 39.1481C130.323 44.5439 125.948 48.9189 120.552 48.9189C115.155 48.9189 110.78 44.5439 110.78 39.1481C110.78 38.9694 110.798 38.7961 110.807 38.6216C111.083 43.7705 115.334 47.8653 120.552 47.8653" fill="#262626"/>
<path d="M17.3574 38.1216C17.3574 45.0549 22.9788 50.6763 29.9134 50.6763C36.8481 50.6763 42.4694 45.0549 42.4694 38.1216C42.4694 31.1867 36.8481 25.5653 29.9134 25.5653C22.9788 25.5653 17.3574 31.1867 17.3574 38.1216" fill="#070000"/>
<path d="M24.4667 41.7453C27.0707 44.3506 26.72 39.7761 29.3254 37.1703C31.9294 34.5651 36.5054 34.9173 33.9 32.3121C31.2947 29.7069 27.072 29.7069 24.4667 32.3121C21.8614 34.9173 21.8614 39.1411 24.4667 41.7453" fill="#D60606"/>
<path d="M22.8948 42.8345L26.2828 40.3798L27.8122 40.136L27.5682 41.6668L25.1015 45.0678C24.2348 44.4668 23.4842 43.7105 22.8948 42.8345V42.8345ZM26.8775 46.0037C26.6895 45.9319 26.5055 45.8522 26.3242 45.7668L27.0802 44.7241L26.8775 46.0037ZM29.9135 46.5746C29.3375 46.5746 28.7748 46.5162 28.2308 46.4069L28.8988 42.2173L29.8082 40.9626L30.7175 42.2173L31.3908 46.4371C30.9095 46.5225 30.4188 46.5746 29.9135 46.5746V46.5746ZM33.3468 45.8428C33.1522 45.9293 32.9535 46.0037 32.7508 46.0761L32.5362 44.7241L33.3468 45.8428ZM34.5855 45.1642L32.0482 41.6652L31.8055 40.136L33.3348 40.3798L36.8588 42.9345C36.2482 43.8131 35.4775 44.572 34.5855 45.1642V45.1642ZM36.8762 33.3308L33.3362 35.8985L31.8055 36.1428L32.0482 34.6121L34.6042 31.0881C35.4962 31.6855 36.2682 32.448 36.8762 33.3308ZM32.7575 30.1668C32.9642 30.2412 33.1682 30.3199 33.3668 30.4095L32.5362 31.5548L32.7575 30.1668ZM29.9135 29.6668C30.4202 29.6668 30.9135 29.7188 31.3962 29.8037L30.7175 34.0616L29.8082 35.3157L28.8988 34.0616L28.2255 29.836C28.7708 29.7251 29.3348 29.6668 29.9135 29.6668V29.6668ZM26.3055 30.484C26.4908 30.396 26.6788 30.3147 26.8722 30.2403L27.0815 31.5548L26.3055 30.484ZM25.0841 31.1865L27.5682 34.6121L27.8122 36.1428L26.2815 35.8985L22.8802 33.4319C23.4668 32.5521 24.2175 31.7917 25.0841 31.1865ZM22.2002 34.6693L23.2228 35.4121L21.9828 35.2131C22.0508 35.0293 22.1215 34.848 22.2002 34.6693ZM37.8322 35.1829L36.3935 35.4121L37.5722 34.5573C37.6668 34.7616 37.7535 34.9693 37.8322 35.1829ZM33.8868 39.0496L32.6322 38.1387L33.8868 37.2293L38.2148 36.5403C38.3122 37.0521 38.3682 37.5797 38.3682 38.1215C38.3682 38.6745 38.3108 39.2131 38.2095 39.7371L33.8868 39.0496ZM37.5588 41.7121L36.3935 40.8668L37.8202 41.0933C37.7402 41.3037 37.6535 41.5095 37.5588 41.7121V41.7121ZM21.6122 39.7053C21.5148 39.1907 21.4588 38.6627 21.4588 38.1215C21.4588 37.5907 21.5135 37.0745 21.6068 36.572L25.7308 37.2293L26.9855 38.1387L25.7308 39.0496L21.6122 39.7053ZM21.9962 41.0626L23.2242 40.8668L22.2135 41.5985C22.1348 41.4241 22.0628 41.2438 21.9962 41.0626ZM20.2148 38.1215C20.2148 43.4772 24.5575 47.8188 29.9135 47.8188C35.2695 47.8188 39.6122 43.4772 39.6122 38.1215C39.6122 32.7641 35.2695 28.4225 29.9135 28.4225C24.5575 28.4225 20.2148 32.7641 20.2148 38.1215Z" fill="#F9EFF0"/>
<path d="M31.5478 33.9387L31.9358 31.5079L32.9931 31.9455L31.5478 33.9387ZM28.0678 33.9387L26.6224 31.9455L27.6811 31.5069L28.0678 33.9387ZM25.6078 36.3985L23.1758 36.0121L23.6145 34.9532L25.6078 36.3985ZM34.0078 36.4001L36.0024 34.9532L36.4411 36.0121L34.0078 36.4001ZM36.0024 41.3241L34.0091 39.8788L36.4398 40.2668L36.0024 41.3241ZM23.6145 41.3251L23.1758 40.2668L25.6078 39.8788L23.6145 41.3251ZM28.3984 41.5439L28.7744 39.1704L26.4051 39.5496L28.3478 38.1403L26.4038 36.7293L28.7744 37.1069L28.3984 34.7345L29.8091 36.6797L31.2184 34.7345L30.8398 37.1069L33.2131 36.7283L31.2678 38.1403L33.2118 39.5496L30.8398 39.1704L31.2184 41.5439L29.8091 39.5985L28.3984 41.5439ZM31.9344 44.772L31.5478 42.3386L32.9944 44.3334L31.9344 44.772ZM27.6811 44.772L26.6224 44.3334L28.0678 42.3402L27.6811 44.772" fill="#999999"/>
<path d="M29.9135 27.3465C23.4642 27.3465 18.2109 32.407 17.8709 38.7705C17.8602 38.5549 17.8389 38.3404 17.8389 38.1216C17.8389 31.4522 23.2442 26.0456 29.9135 26.0456C36.5815 26.0456 41.9882 31.4522 41.9882 38.1216C41.9882 38.3404 41.9669 38.5549 41.9562 38.7705C41.6162 32.407 36.3629 27.3465 29.9135 27.3465" fill="#262626"/>
<path d="M29.9132 47.8653C35.1319 47.8653 39.3826 43.7705 39.6572 38.6216C39.6666 38.7961 39.6839 38.9694 39.6839 39.1481C39.6839 44.5439 35.3092 48.9189 29.9132 48.9189C24.5172 48.9189 20.1426 44.5439 20.1426 39.1481C20.1426 38.9694 20.1599 38.7961 20.1692 38.6216C20.4439 43.7705 24.6946 47.8653 29.9132 47.8653" fill="#262626"/>
<path d="M146.051 37.4463L147.979 34.1787C148.316 33.6078 148.988 33.1282 149.479 33.1078L154.361 33.1463C155.153 33.1463 155.892 37.4463 155.149 37.4463H146.051" fill="#2B2B2B"/>
<path d="M139.503 41.749L142.087 39.0949C142.423 38.524 143.151 38.272 143.643 38.2506L154.336 37.9001C155.128 37.9001 155.155 41.36 154.412 41.36L139.503 41.749Z" fill="#2B2B2B"/>
<path d="M81.2809 0.905502C91.4156 3.21324 101.446 8.50283 109.941 13.4722L106.333 13.4216C94.8222 4.90284 80.1636 1.7071 81.2809 0.905502Z" fill="#80C2DC"/>
<path d="M67.5213 42.6455H99.2733C102.652 42.6455 102.684 38.295 102.727 32.2721C102.739 30.6882 102.751 29.0497 102.823 27.3241C103.173 18.9252 103.16 17.4122 100.659 13.208L100.509 13.2976C102.985 17.4574 102.997 18.9617 102.649 27.3174C102.577 29.0456 102.565 30.6856 102.555 32.2705C102.511 38.1934 102.48 42.4721 99.2733 42.4721H67.5213C63.8599 42.4721 60.4493 39.6465 57.3853 34.0746C54.7239 29.2372 53.2013 23.8601 52.7973 22.3268C52.0253 19.3918 52.2186 17.1465 53.3706 15.6522C54.4093 14.3038 56.2426 13.5918 58.6719 13.5918V13.4189C56.1866 13.4189 54.3066 14.1549 53.2333 15.5465C52.0466 17.0856 51.8439 19.3814 52.6306 22.3705C53.0346 23.908 54.5626 29.3028 57.2333 34.1574C60.3306 39.7893 63.7919 42.6455 67.5213 42.6455" fill="#231F20"/>
<path d="M32.7203 21.2812C29.9643 19.7318 25.743 19.388 22.5376 19.388C19.9736 19.388 18.0576 19.6078 18.0576 19.6078C29.979 17.7438 41.7629 16.5959 52.9576 15.9463C52.3843 16.8797 52.1203 18.0495 52.167 19.4454C45.747 19.8771 39.3523 20.4703 32.7203 21.2812V21.2812ZM52.339 19.4334C52.2936 18.0239 52.571 16.8531 53.1696 15.9344C61.843 15.4359 70.159 15.237 77.9136 15.237C83.9363 15.237 89.6216 15.3572 94.867 15.5506C95.3376 16.2224 96.0576 16.7214 96.9256 16.8917C97.2069 16.9479 97.5403 16.9761 97.9003 16.9761C99.191 16.9761 100.844 16.6214 101.882 15.9307C102.207 16.7121 102.43 17.4735 102.575 18.3239C101.042 18.3214 99.5323 18.3198 98.0443 18.3198C80.7843 18.3198 66.4936 18.4864 52.339 19.4334ZM129.208 18.3693C123.422 18.3693 117.967 18.3572 112.788 18.3454C109.327 18.337 105.986 18.3293 102.754 18.3239C102.606 17.4506 102.379 16.6703 102.046 15.8703C119.504 16.7854 130.575 18.3693 130.575 18.3693C130.118 18.3693 129.662 18.3693 129.208 18.3693" fill="#C38F94"/>
<path d="M52.1664 19.4458C52.1197 18.0499 52.3837 16.8801 52.957 15.9467C53.0264 15.9431 53.0997 15.939 53.1691 15.9349C52.5704 16.8535 52.2931 18.0243 52.3384 19.4338C52.2797 19.4374 52.2237 19.4415 52.1664 19.4458V19.4458ZM102.753 18.3243C102.694 18.3243 102.633 18.3243 102.574 18.3243C102.429 17.4739 102.206 16.7125 101.881 15.9311C101.913 15.9098 101.944 15.8885 101.974 15.8671C101.998 15.8682 102.021 15.8697 102.045 15.8707C102.378 16.6707 102.605 17.451 102.753 18.3243" fill="#918F90"/>
<path d="M141.673 35.6626L135.289 34.4198C131.585 24.4985 125.427 22.9719 120.805 22.9719C120.184 22.9719 119.589 23.0001 119.033 23.0386C111.651 23.5495 106.617 29.5906 105.665 35.6001C105.088 28.1105 111.431 20.9173 118.813 20.4053C119.183 20.3797 119.575 20.3667 119.983 20.3667C126.569 20.3667 137.829 23.8438 141.673 35.6626" fill="#C38F94"/>
<path d="M104.71 36.1123L102.669 35.8602C102.669 35.8284 102.67 35.7951 102.672 35.7618L104.71 36.1123ZM102.496 35.8388L57.2357 30.256L55.2664 29.619C54.9611 28.8815 54.6824 28.1628 54.4317 27.479L102.5 35.732C102.498 35.768 102.497 35.8028 102.496 35.8388V35.8388ZM55.0504 29.5498L42.0664 25.356L54.2357 27.4456C54.4797 28.1159 54.7517 28.8227 55.0504 29.5498Z" fill="#C38F94"/>
<path d="M102.67 35.8604L102.496 35.839C102.498 35.803 102.499 35.7682 102.5 35.7322L102.672 35.762C102.671 35.7953 102.67 35.8286 102.67 35.8604V35.8604ZM55.267 29.6192L55.051 29.55C54.7523 28.8229 54.4803 28.1161 54.2363 27.4458L54.4323 27.4792C54.683 28.163 54.9617 28.8817 55.267 29.6192Z" fill="#918F90"/>
<path d="M135.555 38.2456L135.232 35.344L145.16 37.3071L135.555 38.2456" fill="#C38F94"/>
<path d="M140.311 43.4243L135.226 42.155L155.348 41.6254L156.434 42.1082L140.311 43.4243Z" fill="#AA868B"/>
<path d="M53.0986 19.8585C53.0986 20.3653 55.1386 20.7773 57.6546 20.7773C60.172 20.7773 62.2106 20.3653 62.2106 19.8585C62.2106 19.3523 60.172 18.9404 57.6546 18.9404C55.1386 18.9404 53.0986 19.3523 53.0986 19.8585" fill="#231F20"/>
<path d="M53.6465 19.6619C53.6465 19.9989 55.4411 20.2739 57.6545 20.2739C59.8691 20.2739 61.6638 19.9989 61.6638 19.6619C61.6638 19.3243 59.8691 19.051 57.6545 19.051C55.4411 19.051 53.6465 19.3243 53.6465 19.6619Z" fill="#540C16"/>
<path d="M102.847 14.6762C102.493 16.4746 98.712 17.2439 96.9253 16.8918C95.1373 16.5403 93.9746 14.7961 94.3293 12.9986C94.684 11.2002 96.42 10.0278 98.208 10.3798C99.9946 10.7319 103.201 12.8789 102.847 14.6762" fill="#200000"/>
<path d="M98.2706 13.6523C97.9599 13.6523 97.6733 13.6295 97.4306 13.5815C96.4453 13.3867 95.6839 12.7039 95.3359 11.8321C95.8613 11.0586 96.7439 10.5747 97.6986 10.5747C97.8813 10.5747 98.0653 10.5919 98.2506 10.6285C99.2813 10.8321 100.853 11.7242 101.7 12.7575C100.8 13.3498 99.3799 13.6534 98.2706 13.6523" fill="#908080"/>
<path d="M156.212 35.8188C156.212 35.8188 156.212 35.8188 156.212 35.8174C156.212 35.8188 156.212 35.8188 156.212 35.8188ZM81.2198 0.834581C81.1944 0.829381 81.1638 0.826719 81.1291 0.826719C81.1251 0.826719 81.1211 0.826719 81.1184 0.826719C81.1211 0.826719 81.1251 0.826719 81.1291 0.826719C81.1651 0.826719 81.1944 0.829381 81.2198 0.834581ZM81.1064 0.828314C81.1078 0.828314 81.1091 0.828314 81.1091 0.828314C81.1091 0.828314 81.1078 0.828314 81.1064 0.828314ZM81.1104 0.828314C81.1118 0.828314 81.1131 0.826719 81.1131 0.826719C81.1118 0.826719 81.1118 0.828314 81.1104 0.828314ZM81.1145 0.826719C81.1145 0.826719 81.1158 0.826719 81.1171 0.826719C81.1158 0.826719 81.1145 0.826719 81.1145 0.826719Z" fill="white"/>
<path d="M156.212 35.8188C156.079 35.496 155.959 35.1403 155.851 34.7616C156.063 34.848 156.227 34.9308 156.35 35.0106C156.303 35.3002 156.256 35.5704 156.212 35.8174C156.212 35.8188 156.212 35.8188 156.212 35.8188V35.8188ZM155.095 30.7548C155.056 30.7548 155.018 30.748 154.978 30.7346C154.731 29.5704 154.452 28.5319 154.035 27.8907C150.307 22.1762 140.278 17.1532 106.052 13.9668C96.7843 8.82258 89.3043 3.92152 81.7576 2.50698C81.7363 2.50272 81.711 2.50125 81.6803 2.50125C81.4577 2.50125 81.0123 2.61058 80.7497 2.84285C78.8137 1.45325 80.523 0.843914 81.1057 0.828314C81.107 0.828314 81.107 0.828314 81.107 0.828314C81.1083 0.828314 81.1097 0.828314 81.1097 0.828314H81.111C81.1123 0.828314 81.1123 0.826719 81.1137 0.826719H81.115C81.115 0.826719 81.1163 0.826719 81.1176 0.826719C81.1176 0.826719 81.1176 0.826719 81.119 0.826719C81.1216 0.826719 81.1257 0.826719 81.1297 0.826719C81.1643 0.826719 81.195 0.829381 81.2203 0.834581C85.503 1.67978 90.4056 3.50378 95.4536 5.83712C90.855 3.75845 86.079 1.99858 81.2817 0.905381C80.1643 1.70698 94.823 4.90272 106.334 13.4215L109.942 13.472C109.939 13.4704 109.938 13.4705 109.936 13.4694C133.715 13.6491 154.308 20.1158 156.138 25.4772C156.31 25.9824 156.443 26.5106 156.542 27.0507C156.231 29.148 155.708 30.7548 155.095 30.7548" fill="#C38F94"/>
<path d="M156.35 35.0107C156.227 34.931 156.063 34.8482 155.851 34.7618C155.498 33.5242 155.258 32.0498 154.978 30.7347C155.018 30.7482 155.056 30.755 155.095 30.755C155.708 30.755 156.231 29.1482 156.542 27.0509C157.048 29.8123 156.69 32.9107 156.35 35.0107" fill="#8C8C8C"/>
<path d="M109.941 13.4722L106.333 13.4216C94.8222 4.90284 80.1636 1.7071 81.2809 0.905502C86.0783 1.9987 90.8542 3.75857 95.4529 5.83724C100.25 8.05497 105.178 10.732 109.836 13.4695C109.869 13.4695 109.902 13.4695 109.936 13.4695C109.937 13.4706 109.938 13.4706 109.941 13.4722Z" fill="#C0E1EE"/>
<path d="M5.90234 22.0918C5.98101 20.7549 6.86102 19.7507 8.38102 18.8371C6.86102 19.7507 5.98101 20.7549 5.90234 22.0918V22.0918ZM91.2317 13.4627C91.241 13.4627 91.249 13.4627 91.257 13.4627C91.249 13.4627 91.2397 13.4627 91.2317 13.4627ZM91.2597 13.4627C91.269 13.4627 91.277 13.4627 91.2863 13.4627C91.277 13.4627 91.269 13.4627 91.2597 13.4627ZM91.2863 13.4627C92.6277 13.4601 93.6103 13.3679 94.2957 13.2013C94.2943 13.2038 94.2943 13.2054 94.2943 13.207C93.6063 13.3694 92.6223 13.4601 91.2863 13.4627Z" fill="white"/>
<path d="M4.3623 28.5508L4.36364 28.5497L4.3623 28.5508ZM4.36764 28.5481C4.36898 28.5465 4.36898 28.5465 4.37031 28.5456C4.36898 28.5465 4.36898 28.5465 4.36764 28.5481ZM4.37031 28.5456C4.39031 28.5361 4.40897 28.5268 4.42897 28.52C5.60364 28.1294 6.41432 27.1934 6.34766 25.3038C6.41432 27.1918 5.60364 28.1294 4.42897 28.52C4.40897 28.5278 4.39031 28.5361 4.37031 28.5456ZM5.93164 22.807C5.89831 22.5574 5.88898 22.32 5.90231 22.0919C5.88898 22.32 5.89831 22.5574 5.93164 22.807Z" fill="#EB8383"/>
<path d="M3.94577 32.4336C3.72843 30.4295 3.83508 28.8456 4.36308 28.5508L4.36442 28.5497C4.36575 28.5497 4.36709 28.5481 4.36842 28.5481C4.36975 28.5465 4.36976 28.5465 4.37109 28.5456C4.39109 28.5361 4.40975 28.5279 4.42975 28.52C5.60442 28.1295 6.4151 27.1919 6.34843 25.3039C6.32843 24.7372 6.22976 24.0867 6.03776 23.3388C5.99109 23.156 5.95642 22.9789 5.93242 22.8071C5.89909 22.5575 5.88976 22.32 5.90309 22.0919C5.98176 20.7549 6.86177 19.7508 8.38177 18.8372C10.4338 17.6039 13.6524 16.5336 17.6391 15.0268C22.0218 13.3721 30.0844 8.68666 35.8244 8.68666C38.0631 8.68666 39.9497 9.40026 41.1271 11.2815C42.1337 13.2951 50.6618 13.4628 91.2324 13.4628C91.2404 13.4628 91.2497 13.4628 91.2577 13.4628C91.2591 13.4628 91.2604 13.4628 91.2604 13.4628C91.2697 13.4628 91.2777 13.4628 91.2871 13.4628C92.6231 13.4601 93.6071 13.3695 94.2951 13.2071C94.2751 13.3601 94.2657 13.5132 94.2657 13.6653C93.6271 13.8388 92.6751 13.9388 91.3498 13.9481C72.6604 14.0883 61.8351 14.3831 54.8671 14.4071C55.8711 13.8695 57.1551 13.5919 58.6724 13.5919V13.4189C56.9884 13.4189 55.5818 13.756 54.5164 14.408C54.3391 14.408 54.1644 14.408 53.9924 14.408C47.3657 14.408 44.4017 14.1216 41.1271 13.1268C39.0297 12.3388 37.0764 12.02 35.2164 12.02C30.2071 12.02 25.8844 14.3336 21.2978 15.9935C13.0751 18.9695 7.98043 20.2976 8.04843 24.4825C8.10443 27.8883 6.82175 29.4284 5.12841 29.9951C4.67375 30.1465 4.26177 31.0856 3.94577 32.4336" fill="#C38F94"/>
<path d="M54.5156 14.4082C55.581 13.7562 56.9876 13.4191 58.6716 13.4191V13.5921C57.1543 13.5921 55.8703 13.8697 54.8663 14.4073C54.7476 14.4073 54.6316 14.4073 54.5156 14.4082Z" fill="#918F90"/>
<path d="M94.2656 13.6655C94.2656 13.5134 94.275 13.3603 94.295 13.2073C94.295 13.2057 94.295 13.2041 94.2963 13.2015C94.7843 13.0843 95.1203 12.9286 95.3256 12.7406C95.359 13.1363 95.0416 13.4551 94.2656 13.6655Z" fill="#908080"/>
<path d="M154.868 28.6131C155.749 29.9188 155.371 31.0215 153.985 31.0215H146.036C144.651 31.0215 143.079 29.9188 142.547 28.6131L142.011 27.295C141.524 26.1027 142.159 25.172 143.409 25.172H150.28C151.529 25.172 153.172 26.1027 153.977 27.295L154.868 28.6131" fill="#540C16"/>
<path d="M145.646 30.708C144.482 30.708 143.111 29.7585 142.654 28.6347L142.116 27.3159C141.951 26.9096 141.951 26.5508 142.115 26.3055C142.278 26.0653 142.598 25.932 143.018 25.932H149.888C150.979 25.932 152.439 26.7789 153.14 27.8189L154.031 29.1372C154.444 29.7465 154.468 30.1935 154.355 30.4071C154.216 30.668 153.819 30.708 153.595 30.708H145.646" fill="white"/>
<path d="M146.875 39.9191C147.387 39.304 147.304 38.8056 146.689 38.8056H144.633C144.019 38.8056 143.104 39.304 142.591 39.9191C142.077 40.5347 142.16 41.0337 142.776 41.0337H144.832C145.447 41.0337 146.361 40.5347 146.875 39.9191Z" fill="white"/>
<path d="M154.409 30.1943C154.428 29.949 154.337 29.5891 154.031 29.137L153.14 27.8187C152.439 26.7787 150.979 25.9318 149.888 25.9318H143.017C142.597 25.9318 142.277 26.0641 142.115 26.3053C141.967 26.5266 141.971 26.8463 142.091 27.2026C146.663 26.6761 151.401 26.9094 154.409 30.1943" fill="#DEFCFF"/>
<path d="M143.12 29.3919C143.752 30.1533 144.757 30.708 145.645 30.708H150.595C148.144 30.0295 145.652 29.6013 143.12 29.3919" fill="#DEFCFF"/>
<g filter="url(#filter0_d)">
<path d="M27.4928 50.2271L34.9445 35.9897C35.1132 35.6674 34.8739 35.2707 34.5411 35.321L29.5844 36.0685L31.7356 26.2668C31.7755 26.0342 31.5053 25.9009 31.3765 26.0896L23.083 39.7236C22.8695 40.0361 23.0955 40.4806 23.447 40.4395L28.9116 39.8012L27.1202 50.0721C27.0769 50.3198 27.3786 50.4453 27.4928 50.2271Z" fill="#70AB13"/>
<path d="M25.3741 38.9648C25.2373 38.977 25.1464 38.8109 25.2191 38.6818L31.6646 26.0552C31.5831 25.9836 31.4548 25.979 31.3772 26.0928L23.083 39.7253C22.8695 40.0379 23.0955 40.4823 23.447 40.4412L28.9116 39.803L27.1202 50.0738C27.096 50.2123 27.1802 50.3098 27.2787 50.3331L30.3485 39.554C30.4924 39.0488 30.1294 38.5427 29.6534 38.5849L25.3741 38.9648Z" fill="#5A890F"/>
</g>
<defs>
<filter id="filter0_d" x="19" y="26" width="20" height="32.3394" filterUnits="userSpaceOnUse" color-interpolation-filters="sRGB">
<feFlood flood-opacity="0" result="BackgroundImageFix"/>
<feColorMatrix in="SourceAlpha" type="matrix" values="0 0 0 0 0 0 0 0 0 0 0 0 0 0 0 0 0 0 127 0"/>
<feOffset dy="4"/>
<feGaussianBlur stdDeviation="2"/>
<feColorMatrix type="matrix" values="0 0 0 0 0 0 0 0 0 0 0 0 0 0 0 0 0 0 0.25 0"/>
<feBlend mode="normal" in2="BackgroundImageFix" result="effect1_dropShadow"/>
<feBlend mode="normal" in="SourceGraphic" in2="effect1_dropShadow" result="shape"/>
</filter>
</defs>
</svg>
