<svg width="158" height="54" viewBox="0 0 158 54" fill="none" xmlns="http://www.w3.org/2000/svg">
<path d="M157.604 50.7868C157.604 52.2508 122.323 53.4375 78.8027 53.4375C35.2813 53.4375 0 52.2508 0 50.7868C0 49.3242 35.2813 48.1375 78.8027 48.1375C122.323 48.1375 157.604 49.3242 157.604 50.7868Z" fill="black" fill-opacity="0.3"/>
<path d="M19.1131 8.49744C12.5597 13.3601 7.96508 18.2481 8.85042 19.4134C9.73575 20.5788 15.7651 17.5814 22.3184 12.7174C28.8718 7.85343 33.4664 2.96675 32.5811 1.80142C31.6957 0.636082 25.6664 3.63344 19.1131 8.49744Z" fill="#80C2DC"/>
<path d="M124.274 18.5428C119.972 16.7601 84.7031 3.46282 84.7031 3.46282C83.2324 2.75616 81.1164 2.25213 79.9031 2.30013L66.3564 2.83346C66.3564 2.83346 77.1938 20.3095 85.3284 20.6748L124.208 19.9268C124.238 19.4655 124.258 19.0055 124.274 18.5428Z" fill="#80C2DC"/>
<path d="M155.242 41.1282L155.106 35.3015C154.366 29.5001 151.828 26.0802 146.149 23.8935C143.305 22.7975 126.536 18.1508 123.502 18.0535C117.878 18.4908 90.0731 6.41613 83.2464 3.14013C80.5344 1.8388 74.8464 0.184145 66.0437 0.184145C57.4597 0.184145 39.2664 -0.581196 33.0317 1.00947C28.2624 2.22814 14.3891 11.5295 9.08241 18.6068C6.11174 22.5681 4.20507 41.1282 4.20507 41.1282C3.87573 43.9055 5.51974 46.1948 7.88241 46.1948H140.417C142.778 46.1948 156.281 43.9055 155.242 41.1282" fill="#C8E064"/>
<path d="M156.691 42.472V40.1294C156.691 35.088 156.239 33.9347 152.749 33.9347H129.493V37.1907C129.493 39.3787 127.72 41.152 125.532 41.152H35.7402C33.5522 41.152 31.7788 39.3787 31.7788 37.1907V33.9347H6.34015C4.16282 33.9347 2.39881 35.708 2.39881 37.896V42.472C2.39881 44.66 2.31884 46.4333 4.49484 46.4333H144.281C151.049 46.4333 156.691 44.66 156.691 42.472Z" fill="#B2C443"/>
<path d="M41.7323 40.5161C41.7323 32.6215 35.3097 26.1988 27.415 26.1988C19.5203 26.1988 13.0977 32.6215 13.0977 40.5161C13.0977 42.5348 13.5283 44.4522 14.287 46.1948H40.543C41.303 44.4522 41.7323 42.5348 41.7323 40.5161Z" fill="#B2C443"/>
<path d="M140.107 40.5161C140.107 32.6215 133.684 26.1988 125.79 26.1988C117.895 26.1988 111.474 32.6215 111.474 40.5161C111.474 42.5348 111.903 44.4522 112.662 46.1948H138.919C139.678 44.4522 140.107 42.5348 140.107 40.5161Z" fill="#B2C443"/>
<path d="M144.281 43.8427H4.49484C2.49751 43.8427 2.40148 42.3467 2.39881 40.408V42.472C2.39881 44.66 2.31884 46.4333 4.49484 46.4333H144.281C151.049 46.4333 156.691 44.66 156.691 42.472V40.1294L156.689 39.8907C156.672 42.0747 151.04 43.8427 144.281 43.8427" fill="#2A2A2B"/>
<path d="M40.2771 40.143C40.2771 33.0496 34.5078 27.279 27.4144 27.279C20.3224 27.279 14.5518 33.0496 14.5518 40.143C14.5518 42.415 15.1491 44.5469 16.1864 46.4016H38.6424C39.6798 44.5469 40.2771 42.415 40.2771 40.143" fill="#070707"/>
<path d="M38.9574 40.1429C38.9574 46.5175 33.7894 51.6855 27.4147 51.6855C21.0401 51.6855 15.8721 46.5175 15.8721 40.1429C15.8721 33.7682 21.0401 28.6002 27.4147 28.6002C33.7894 28.6002 38.9574 33.7682 38.9574 40.1429Z" fill="#2A2A2B"/>
<path d="M37.2935 40.1428C37.2935 45.5975 32.8708 50.0215 27.4148 50.0215C21.9588 50.0215 17.5361 45.5975 17.5361 40.1428C17.5361 34.6868 21.9588 30.2642 27.4148 30.2642C32.8708 30.2642 37.2935 34.6868 37.2935 40.1428Z" fill="#091119"/>
<path d="M33.9029 42.1054L30.8335 40.9667C30.7095 40.9201 30.6189 40.5667 30.6189 40.1721C30.6189 39.7761 30.7095 39.4227 30.8335 39.3774L33.9029 38.2387C34.8189 37.8987 35.8362 38.7081 35.8362 40.1721C35.8362 41.6361 34.8189 42.4441 33.9029 42.1054ZM33.3535 46.0787C32.3189 47.1134 31.0282 46.9667 30.6202 46.0787L29.2549 43.1041C29.2002 42.9841 29.3869 42.6694 29.6655 42.3908C29.9455 42.1108 30.2589 41.9254 30.3789 41.9801L33.3535 43.3454C34.2415 43.7521 34.3895 45.0441 33.3535 46.0787ZM27.4229 48.5014C25.9589 48.5014 25.1496 47.4841 25.4896 46.5681L26.6282 43.4987C26.6736 43.3747 27.0269 43.2854 27.4229 43.2854C27.8176 43.2854 28.1709 43.3747 28.2175 43.4987L29.3549 46.5681C29.6949 47.4841 28.8856 48.5014 27.4229 48.5014V48.5014ZM21.5149 46.0201C20.4802 44.9841 20.6282 43.6934 21.5149 43.2854L24.4909 41.9201C24.6109 41.8654 24.9242 42.0521 25.2042 42.3308C25.4829 42.6108 25.6695 42.9241 25.6135 43.0441L24.2495 46.0201C23.8415 46.9068 22.5509 47.0548 21.5149 46.0201ZM19.0936 40.0881C19.0936 38.6241 20.1109 37.8148 21.0269 38.1548L24.0949 39.2934C24.2189 39.3388 24.3095 39.6934 24.3095 40.0881C24.3095 40.4828 24.2189 40.8361 24.0949 40.8827L21.0269 42.0214C20.1109 42.3601 19.0936 41.5508 19.0936 40.0881ZM21.5749 34.1814C22.6095 33.1454 23.9015 33.2934 24.3082 34.1814L25.6735 37.1548C25.7282 37.2761 25.5429 37.5894 25.2629 37.8694C24.9842 38.1481 24.6695 38.3347 24.5495 38.2787L21.5749 36.9147C20.6869 36.5067 20.5402 35.2161 21.5749 34.1814V34.1814ZM27.5069 31.7588C28.9709 31.7588 29.7789 32.7761 29.4402 33.6921L28.3015 36.7601C28.2549 36.8841 27.9015 36.9747 27.5069 36.9747C27.1122 36.9747 26.7575 36.8841 26.7122 36.7601L25.5735 33.6921C25.2335 32.7761 26.0429 31.7588 27.5069 31.7588ZM33.4135 34.2401C34.4482 35.2747 34.3015 36.5667 33.4135 36.9747L30.4389 38.3387C30.3189 38.3934 30.0042 38.2081 29.7256 37.9294C29.4456 37.6494 29.2602 37.3361 29.3149 37.2147L30.6802 34.2401C31.0869 33.3534 32.3789 33.2054 33.4135 34.2401ZM27.4149 31.4827C22.6322 31.4827 18.7549 35.3601 18.7549 40.1427C18.7549 44.9254 22.6322 48.8027 27.4149 48.8027C32.1975 48.8027 36.0749 44.9254 36.0749 40.1427C36.0749 35.3601 32.1975 31.4827 27.4149 31.4827Z" fill="#DCDFE2"/>
<path d="M138.653 40.143C138.653 33.0496 132.883 27.279 125.789 27.279C118.697 27.279 112.927 33.0496 112.927 40.143C112.927 42.415 113.524 44.5469 114.563 46.4016H137.017C138.055 44.5469 138.653 42.415 138.653 40.143Z" fill="#070707"/>
<path d="M137.332 40.1429C137.332 46.5175 132.164 51.6855 125.789 51.6855C119.415 51.6855 114.248 46.5175 114.248 40.1429C114.248 33.7682 119.415 28.6002 125.789 28.6002C132.164 28.6002 137.332 33.7682 137.332 40.1429Z" fill="#2A2A2B"/>
<path d="M135.668 40.1428C135.668 45.5975 131.246 50.0215 125.79 50.0215C120.334 50.0215 115.911 45.5975 115.911 40.1428C115.911 34.6868 120.334 30.2642 125.79 30.2642C131.246 30.2642 135.668 34.6868 135.668 40.1428Z" fill="#091119"/>
<path d="M132.277 42.1054L129.208 40.9667C129.084 40.9201 128.994 40.5667 128.994 40.1721C128.994 39.7761 129.084 39.4227 129.208 39.3774L132.277 38.2387C133.193 37.8987 134.21 38.7081 134.21 40.1721C134.21 41.6361 133.193 42.4441 132.277 42.1054ZM131.729 46.0787C130.693 47.1134 129.402 46.9667 128.994 46.0787L127.63 43.1041C127.574 42.9841 127.761 42.6694 128.04 42.3908C128.32 42.1108 128.633 41.9254 128.753 41.9801L131.729 43.3454C132.616 43.7521 132.764 45.0441 131.729 46.0787ZM125.797 48.5014C124.333 48.5014 123.524 47.4841 123.864 46.5681L125.002 43.4987C125.048 43.3747 125.402 43.2854 125.797 43.2854C126.192 43.2854 126.545 43.3747 126.592 43.4987L127.73 46.5681C128.069 47.4841 127.261 48.5014 125.797 48.5014ZM119.89 46.0201C118.854 44.9841 119.002 43.6934 119.89 43.2854L122.865 41.9201C122.985 41.8654 123.298 42.0521 123.578 42.3308C123.857 42.6108 124.044 42.9241 123.989 43.0441L122.624 46.0201C122.216 46.9068 120.925 47.0548 119.89 46.0201ZM117.468 40.0881C117.468 38.6241 118.485 37.8148 119.401 38.1548L122.469 39.2934C122.593 39.3388 122.684 39.6934 122.684 40.0881C122.684 40.4828 122.593 40.8361 122.469 40.8827L119.401 42.0214C118.485 42.3601 117.468 41.5508 117.468 40.0881ZM119.949 34.1814C120.984 33.1454 122.276 33.2934 122.682 34.1814L124.048 37.1548C124.104 37.2761 123.917 37.5894 123.637 37.8694C123.358 38.1481 123.044 38.3347 122.924 38.2787L119.949 36.9147C119.061 36.5067 118.914 35.2161 119.949 34.1814V34.1814ZM125.881 31.7588C127.345 31.7588 128.153 32.7761 127.814 33.6921L126.676 36.7601C126.629 36.8841 126.276 36.9747 125.881 36.9747C125.486 36.9747 125.132 36.8841 125.086 36.7601L123.948 33.6921C123.608 32.7761 124.417 31.7588 125.881 31.7588ZM131.788 34.2401C132.822 35.2747 132.676 36.5667 131.788 36.9747L128.813 38.3387C128.693 38.3934 128.378 38.2081 128.1 37.9294C127.82 37.6494 127.634 37.3361 127.689 37.2147L129.054 34.2401C129.461 33.3534 130.753 33.2054 131.788 34.2401ZM125.789 31.4827C121.006 31.4827 117.129 35.3601 117.129 40.1427C117.129 44.9254 121.006 48.8027 125.789 48.8027C130.572 48.8027 134.449 44.9254 134.449 40.1427C134.449 35.3601 130.572 31.4827 125.789 31.4827Z" fill="#DCDFE2"/>
<path d="M81.7438 4.98408C80.5491 4.35608 78.5758 3.87206 77.2798 3.87073L63.4238 3.85341C63.4238 3.85341 65.5185 17.8721 65.5425 18.1641L115.857 20.3361C117.664 20.4134 117.494 19.7014 115.885 18.6454C115.072 18.1107 81.7438 4.98408 81.7438 4.98408Z" fill="#80C2DC"/>
<path d="M37.0212 17.4587L20.4466 16.7067C18.1852 16.6041 17.4372 15.8067 17.1906 15.3414C16.9959 14.9721 16.9692 14.5694 17.1012 14.1481C22.3492 9.80673 28.2612 5.58674 31.3572 3.49074C32.1052 3.26274 33.1092 3.15741 33.9412 3.15741C33.9772 3.15741 34.0132 3.15741 34.0479 3.15741L39.9519 3.22274C39.9519 3.22274 38.4612 10.4561 37.8639 13.4414C37.4092 15.7081 37.1706 16.8947 37.1346 17.0334L37.0212 17.4587V17.4587ZM30.7519 16.6534L36.4132 16.9027C36.4146 16.9027 36.4146 16.9014 36.4146 16.9C36.4146 16.8987 36.4146 16.8987 36.4146 16.8974C36.4812 16.6334 37.2172 12.916 37.9052 9.49871V9.50005C38.5012 6.54538 39.0612 3.82006 39.1226 3.74539H39.1266C39.1266 3.74406 39.1252 3.74273 39.1252 3.74273C39.1239 3.74273 39.1239 3.74406 39.1226 3.74539L34.0479 3.68273C34.0106 3.6814 33.9732 3.6814 33.9359 3.6814C32.7732 3.6814 31.5372 3.90273 31.0999 4.21073L29.5839 5.27606L19.3546 12.4721C16.9066 14.1934 17.0986 16.0187 20.3586 16.1947C20.3599 16.1947 20.3613 16.1947 20.3613 16.1947C20.3653 16.1947 20.3692 16.1961 20.3732 16.1961C20.3759 16.1961 20.3772 16.1961 20.3799 16.1961C20.3839 16.1961 20.3879 16.1961 20.3932 16.1961C20.3972 16.1961 20.4012 16.1974 20.4052 16.1974C20.4066 16.1974 20.4092 16.1974 20.4119 16.1974C20.4159 16.1974 20.4199 16.1974 20.4239 16.1974C20.4252 16.1974 20.4279 16.1974 20.4293 16.1974C20.4346 16.1987 20.4412 16.1987 20.4466 16.1987L23.7039 16.3427L30.7519 16.6534" fill="#91B452"/>
<path d="M39.1266 3.74551L34.0479 3.68285C32.8532 3.66685 31.5505 3.89351 31.0999 4.21084L19.3545 12.4722C16.8852 14.2082 17.1012 16.0522 20.4465 16.1988L36.4132 16.9028C36.5199 16.5002 39.0532 3.57884 39.1266 3.74551" fill="#80C2DC"/>
<path d="M64.8042 40.9976L42.3442 40.7869C42.3562 40.6082 42.3695 40.4375 42.3642 40.2749C42.2842 37.8215 41.4602 34.9402 40.2242 32.7122C39.6495 31.5642 38.9242 30.5056 38.0762 29.5589L38.1842 24.4709C38.3615 24.4722 38.5468 24.4749 38.7388 24.4762L38.6242 29.7589C41.3029 32.1469 42.8228 36.9202 42.9348 40.3095L64.1535 40.3655L63.8255 24.7535C64.0415 24.7562 64.2562 24.7589 64.4722 24.7616L64.8042 40.9976V40.9976ZM64.3975 21.0749C64.1788 21.0629 63.9642 21.0509 63.7468 21.0389L63.6815 17.8949L61.5855 3.85088L54.4722 3.84154H53.7815L40.8708 3.82422C40.8562 3.90289 40.6668 5.1602 40.4122 6.8682C40.4042 6.91753 40.3975 6.96688 40.3895 7.01621C40.3735 7.12421 40.3575 7.23354 40.3402 7.34421C39.8468 10.6482 39.1522 15.3242 38.9015 17.0162L38.8482 19.4535C38.6628 19.4402 38.4749 19.4255 38.2922 19.4109L38.3442 16.9549L38.3495 16.9189C38.5442 15.6042 40.2668 3.99089 40.3148 3.73089L40.3975 3.29356L62.1495 3.28555L64.3322 17.8855L64.3975 21.0749" fill="#91B452"/>
<path d="M63.6814 18.1709V17.8949L61.5854 3.85091L40.8707 3.82425C40.8214 4.08292 38.9014 17.0162 38.9014 17.0162V17.0963L63.6814 18.1709Z" fill="#80C2DC"/>
<path d="M44.9918 19.2295L39.5771 18.9628V17.7055L44.9918 17.9508V19.2295" fill="#0D5E56"/>
<path d="M73.1643 20.6147L66.7656 20.3001V18.9361L73.1643 19.2254V20.6147Z" fill="#0D5E56"/>
<path d="M111.484 41.0642L65.2176 40.9282L64.9883 24.7668C65.2323 24.7695 65.4736 24.7722 65.7189 24.7749L66.1109 40.1722L111.12 40.3282L111.474 39.1309C111.475 39.3002 111.488 39.4668 111.5 39.6335C111.482 39.9255 111.474 40.2202 111.474 40.5162C111.474 40.7002 111.476 40.8829 111.484 41.0642" fill="#91B452"/>
<path d="M111.982 41.0669L111.484 41.0643C111.476 40.8829 111.474 40.7002 111.474 40.5162C111.474 40.2202 111.482 39.9256 111.5 39.6336C111.503 39.6869 111.507 39.7416 111.51 39.7963C111.528 39.4149 111.563 39.0363 111.611 38.6643L112.883 34.3589C113.384 33.3096 114.01 32.3309 114.739 31.4402L111.982 41.0669" fill="#82A13B"/>
<path d="M113.782 31.3176L115.554 25.3203C115.868 25.323 116.18 25.327 116.49 25.3296L115.346 29.323C114.768 29.939 114.244 30.607 113.782 31.3176ZM116.836 24.1163C116.536 24.0936 116.235 24.0723 115.928 24.0496L117.095 20.1029C117.316 19.8269 116.908 19.3323 115.984 18.7096C115.951 18.6883 115.919 18.667 115.886 18.6443C115.456 18.363 105.956 14.5683 97.0885 11.051C96.8805 10.967 96.6725 10.8856 96.4645 10.8029C91.4685 8.82161 86.7471 6.95764 84.0551 5.89631C83.6125 5.72164 83.2245 5.56828 82.9005 5.44028C82.1605 5.14828 81.7445 4.9843 81.7445 4.9843C80.5498 4.3563 78.5765 3.87228 77.2805 3.87095L69.7338 3.86164L63.4245 3.85363C63.4245 3.85363 63.5098 4.42031 63.6458 5.32831C63.7218 5.84164 63.8151 6.4683 63.9178 7.1603C64.0191 7.8363 64.1298 8.58029 64.2445 9.35096C64.2925 9.67229 64.3418 9.99897 64.3898 10.327C64.7258 12.579 65.0725 14.9216 65.2978 16.4536C65.3231 16.6243 65.3458 16.7856 65.3685 16.9349C65.4738 17.6576 65.5391 18.115 65.5431 18.1643L65.5511 18.1656L65.6271 21.1443C65.3965 21.131 65.1658 21.1189 64.9365 21.1056L64.8951 18.2456L64.8898 18.1763C64.8511 17.8176 63.3538 7.75097 62.7831 3.92697L62.6885 3.2843L77.2805 3.27896C77.2818 3.27896 77.2831 3.27896 77.2831 3.27896C78.7378 3.27896 80.8205 3.79229 82.1285 4.47762C84.3965 5.71762 115.604 17.615 116.431 18.1563C117.543 18.8843 118.047 19.4776 118.01 20.0203L116.836 24.1163" fill="#91B452"/>
<path d="M117.094 20.1028L117.138 19.9495C117.158 19.6601 116.757 19.2308 115.984 18.7095C116.908 19.3321 117.316 19.8268 117.094 20.1028V20.1028ZM65.5505 18.1654L65.5425 18.1641L65.5505 18.1654ZM82.8998 5.44012C82.1598 5.14812 81.7438 4.98413 81.7438 4.98413C80.5491 4.35613 78.5758 3.87212 77.2798 3.87079C78.5758 3.87212 80.5491 4.35613 81.7438 4.98413C81.7438 4.98413 82.1598 5.14812 82.8998 5.44012ZM69.7331 3.86148L63.4238 3.85347L69.7331 3.86148Z" fill="#5F9FA6"/>
<path d="M36.4133 16.9028L30.752 16.6535L36.4133 16.9028C36.4146 16.9028 36.4146 16.9015 36.4146 16.9002C36.4146 16.9015 36.4146 16.9028 36.4133 16.9028ZM36.4146 16.8975C36.4813 16.6335 37.2173 12.9148 37.9053 9.50016V9.49883C37.2173 12.9162 36.4813 16.6335 36.4146 16.8975" fill="#DEE8CB"/>
<path d="M36.4133 16.9028L30.752 16.6535L37.9053 9.50016C37.2173 12.9148 36.4813 16.6335 36.4146 16.8975C36.4146 16.8989 36.4146 16.8988 36.4146 16.9002C36.4146 16.9015 36.4146 16.9028 36.4133 16.9028Z" fill="#D9EDF4"/>
<path d="M17.6943 14.6494C17.7157 14.0027 18.2797 13.2267 19.3543 12.4721L21.101 11.2427L17.6943 14.6494" fill="#D9EDF4"/>
<path d="M23.7037 16.3428L20.4464 16.1988C20.4411 16.1988 20.4344 16.1988 20.4291 16.1975C20.4344 16.1988 20.4411 16.1988 20.4464 16.1988L23.7037 16.3428ZM20.4237 16.1975C20.4197 16.1975 20.4157 16.1975 20.4117 16.1975C20.4157 16.1975 20.4197 16.1975 20.4237 16.1975ZM20.405 16.1975C20.401 16.1975 20.3971 16.1961 20.3931 16.1961C20.3971 16.1961 20.401 16.1975 20.405 16.1975ZM20.3797 16.1961C20.3771 16.1961 20.3757 16.1961 20.373 16.1961C20.3757 16.1961 20.3784 16.1961 20.3797 16.1961ZM20.3611 16.1948C20.3611 16.1948 20.3597 16.1948 20.3584 16.1948C20.3597 16.1948 20.3597 16.1948 20.3611 16.1948ZM29.5837 5.27611L31.0997 4.21078L29.5837 5.27611Z" fill="#DEE8CB"/>
<path d="M23.7042 16.3428L20.4469 16.1988C20.4415 16.1988 20.4349 16.1988 20.4296 16.1975C20.4282 16.1975 20.4256 16.1975 20.4242 16.1975C20.4202 16.1975 20.4162 16.1975 20.4122 16.1975C20.4095 16.1975 20.4082 16.1975 20.4055 16.1975C20.4015 16.1975 20.3976 16.1961 20.3936 16.1961C20.3882 16.1961 20.3842 16.1961 20.3802 16.1961C20.3789 16.1961 20.3762 16.1961 20.3735 16.1961C20.3695 16.1961 20.3656 16.1948 20.3616 16.1948C20.3602 16.1948 20.3602 16.1948 20.3589 16.1948C19.7789 16.1628 19.2962 16.0788 18.9082 15.9535C22.4669 12.3948 26.0255 8.83611 29.5842 5.27611L31.1002 4.21077C31.5375 3.90277 32.7735 3.68144 33.9362 3.68144C33.9735 3.68144 34.0109 3.68145 34.0482 3.68278L36.3362 3.71077C32.1255 7.92144 27.9149 12.1321 23.7042 16.3428" fill="#D9EDF4"/>
<path d="M39.3281 14.1443C39.6255 12.1456 40.0228 9.47095 40.3401 7.34429C40.3574 7.23229 40.3735 7.12429 40.3895 7.01629C40.0655 9.18963 39.6401 12.0416 39.3281 14.143V14.1443Z" fill="#EEF6D0"/>
<path d="M40.3398 7.34424C40.3572 7.23357 40.3732 7.12424 40.3892 7.01624C40.3732 7.12424 40.3572 7.23224 40.3398 7.34424Z" fill="#DEE8CB"/>
<path d="M39.3281 14.143C39.6401 12.0416 40.0655 9.18963 40.3895 7.01629L43.5774 3.8283L49.6361 3.83628L39.3281 14.1443" fill="#D9EDF4"/>
<path d="M41.1214 17.1921L38.9014 17.0961V17.0868V17.0961L41.1214 17.1921ZM54.472 3.84146H53.776H53.7814H54.472Z" fill="#EEF6D0"/>
<path d="M41.1214 17.1921L38.9014 17.0961V17.0868C43.3174 12.6708 47.7334 8.25479 52.1494 3.83879L53.776 3.84146H54.472L41.1214 17.1921" fill="#D9EDF4"/>
<path d="M62.3173 8.76025L62.0439 6.92826L62.3173 8.76025Z" fill="#EEF6D0"/>
<path d="M53.3556 17.7229L51.3369 17.6349C54.9062 14.0655 58.4756 10.4976 62.0436 6.92824L62.3169 8.76024C59.3303 11.7469 56.3423 14.7349 53.3556 17.7229" fill="#D9EDF4"/>
<path d="M63.6813 18.1709L55.7666 17.8269C58.0599 15.5349 60.3519 13.2416 62.6439 10.9496L63.6813 17.8949V18.1709" fill="#D9EDF4"/>
<path d="M63.9188 7.16016C63.8148 6.46682 63.7215 5.84282 63.6455 5.32816L65.1175 3.85482L67.2202 3.85749L63.9175 7.16016" fill="#D9EDF4"/>
<path d="M63.9175 7.16016C63.8148 6.46816 63.7215 5.84149 63.6455 5.32816C63.7215 5.84282 63.8148 6.46682 63.9188 7.16016H63.9175Z" fill="#DEE8CB"/>
<path d="M65.3681 16.9348C65.3455 16.7841 65.3228 16.6242 65.2975 16.4535C65.0721 14.9215 64.7255 12.5802 64.3895 10.3268C64.3415 9.99751 64.2921 9.67216 64.2441 9.35083L69.7335 3.86151L77.2801 3.87082C77.6015 3.87082 77.9641 3.9015 78.3455 3.95617L65.3681 16.9348" fill="#D9EDF4"/>
<path d="M65.3681 16.9348C65.3455 16.7855 65.3228 16.6242 65.2975 16.4535C65.3228 16.6242 65.3455 16.7841 65.3681 16.9348ZM64.3895 10.3268C64.3415 9.99884 64.2921 9.67216 64.2441 9.35083C64.2921 9.67216 64.3415 9.99751 64.3895 10.3268ZM77.2801 3.87082L69.7335 3.86151L77.2801 3.87082Z" fill="#DEE8CB"/>
<path d="M77.9076 18.6987L77.8477 18.6961L77.9076 18.6987ZM84.0676 5.9014C83.6676 5.74273 83.3103 5.60275 83.005 5.48141C83.3076 5.60008 83.6583 5.74009 84.0543 5.89609C84.0597 5.89743 84.0636 5.89873 84.0676 5.9014Z" fill="#EEF6D0"/>
<path d="M77.9077 18.6987L77.8478 18.6961L69.9824 18.3561C74.2878 14.0508 78.5944 9.7454 82.8997 5.44007C82.9331 5.4534 82.9691 5.46675 83.0051 5.48141C83.3104 5.60275 83.6677 5.74273 84.0677 5.9014C85.2917 6.38407 86.9331 7.03074 88.8264 7.78008C85.1878 11.4201 81.5477 15.0587 77.9077 18.6987" fill="#D9EDF4"/>
<path d="M84.0551 5.89624C83.6591 5.74024 83.3084 5.60023 83.0057 5.48156C82.9697 5.46689 82.9337 5.45355 82.9004 5.44022C83.2244 5.56822 83.6124 5.72157 84.0551 5.89624Z" fill="#DEE8CB"/>
<path d="M83.0057 5.48145C82.9697 5.46678 82.9337 5.45344 82.9004 5.4401C82.9337 5.45344 82.9697 5.46678 83.0057 5.48145Z" fill="#CFE2E4"/>
<path d="M92.0441 19.3081L91.7441 19.2961L92.0441 19.3081ZM97.1655 11.0814C96.9308 10.9881 96.6975 10.8961 96.4641 10.8028C96.6721 10.8854 96.8788 10.9668 97.0882 11.0508C97.1135 11.0601 97.1401 11.0708 97.1655 11.0814" fill="#EEF6D0"/>
<path d="M92.0443 19.3081L91.7443 19.2961L88.127 19.1388L96.4643 10.8028C96.6976 10.8961 96.9309 10.9881 97.1656 11.0814C97.9043 11.3748 98.6469 11.6695 99.3883 11.9641L92.0443 19.3081" fill="#D9EDF4"/>
<path d="M97.0879 11.0508C96.8786 10.9668 96.6719 10.8854 96.4639 10.8028C96.6719 10.8854 96.8799 10.9668 97.0879 11.0508Z" fill="#DEE8CB"/>
<path d="M101.327 19.7083L94.4561 19.4123L101.189 12.6789C102.959 13.3829 104.691 14.0736 106.313 14.7229L101.327 19.7083" fill="#D9EDF4"/>
<path d="M149.804 25.7574L139.144 25.8774C138.713 25.8774 138.669 26.3467 139.017 26.9027L141.023 30.6387C141.272 31.0387 141.775 31.4094 142.164 31.484L154.808 33.5574C154.516 31.3187 153.545 28.3067 149.804 25.7574" fill="#0D5E56"/>
<path d="M154.815 33.2788C154.588 32.1748 154.144 29.0802 150.548 26.2975H139.714C139.275 26.2908 139.182 26.6935 139.479 27.1801L141.344 30.2255C141.567 30.5868 142.056 30.9308 142.455 31.0028L154.815 33.2788" fill="#F9F9F9"/>
<path d="M141.843 26.3336L139.714 26.2976C139.275 26.291 139.182 26.6936 139.479 27.1803L141.344 30.2256C141.567 30.587 142.056 30.9309 142.455 31.0029L145.566 31.575L141.843 26.3336" fill="#F49625"/>
<path d="M155.382 37.9828C155.382 38.8494 154.68 39.5508 153.814 39.5508H149.233C148.368 39.5508 147.665 38.8494 147.665 37.9828C147.665 37.1174 148.368 36.4148 149.233 36.4148H153.814C154.68 36.4148 155.382 37.1174 155.382 37.9828Z" fill="#2A2A2B"/>
<path d="M152.246 37.9216C152.246 38.5936 151.702 39.1389 151.03 39.1389H149.874C149.202 39.1389 148.656 38.5936 148.656 37.9216C148.656 37.2496 149.202 36.7042 149.874 36.7042H151.03C151.702 36.7042 152.246 37.2496 152.246 37.9216Z" fill="#F9F9F9"/>
<path d="M6.28223 27.2334H8.61556C10.0742 27.2334 11.5382 26.0508 11.8862 24.5934L12.4315 22.3054C12.7782 20.8467 11.8782 19.6641 10.4196 19.6641H8.46621C7.63288 21.4028 6.89689 24.2081 6.28223 27.2334Z" fill="#124F2A"/>
<path d="M6.4082 26.5735C6.99754 23.8162 7.6002 21.7202 8.20553 20.3242H10.4202C10.9055 20.3242 11.3122 20.5015 11.5655 20.8215C11.8335 21.1615 11.9136 21.6335 11.7896 22.1522L11.2442 24.4402C10.9682 25.5962 9.76554 26.5735 8.61621 26.5735H6.4082Z" fill="#DB3535"/>
<path d="M6.88154 24.5135C6.72288 25.1535 6.56554 25.8388 6.4082 26.5735H8.61621C9.74021 26.5735 10.9095 25.6375 11.2189 24.5135H6.88154" fill="#F49625"/>
<path d="M130.252 25.4495C130.199 25.4495 130.147 25.4495 130.092 25.4481C130.078 25.4441 130.063 25.4401 130.05 25.4348C130.116 25.4401 130.186 25.4455 130.252 25.4495ZM121.714 25.3788C120.084 25.3641 118.338 25.3481 116.49 25.3295L116.682 24.6575C119.026 24.7748 121.24 24.8908 123.287 25.0081C122.752 25.1028 122.227 25.2268 121.714 25.3788V25.3788ZM115.554 25.3201C101.451 25.1788 81.9589 24.9588 65.7189 24.7748L65.663 22.5721C83.215 23.2388 101.768 23.9281 115.762 24.6121L115.554 25.3201V25.3201ZM64.9883 24.7668C64.8163 24.7654 64.6429 24.7628 64.4723 24.7615L64.427 22.5241C64.6056 22.5308 64.7776 22.5375 64.9563 22.5441L64.9883 24.7668V24.7668ZM63.8256 24.7535C52.8189 24.6295 43.5149 24.5241 38.7389 24.4761L38.8043 21.5028C46.3336 21.8268 54.9043 22.1614 63.7776 22.5001L63.8256 24.7535ZM38.1843 24.4708C36.7176 24.4575 35.7656 24.4481 35.4323 24.4481C35.3856 24.4481 35.351 24.4495 35.3283 24.4495C35.3243 24.4495 35.3189 24.4495 35.3136 24.4495C33.5376 24.4495 14.4336 20.1708 14.4336 20.1708C14.5109 20.1695 14.6003 20.1694 14.7003 20.1694C14.7936 20.1694 14.8989 20.1695 15.0149 20.1708C19.3496 20.5855 27.7616 21.0241 38.2483 21.4788L38.1843 24.4708Z" fill="#91B452"/>
<path d="M64.4716 24.7615C64.2556 24.7588 64.0409 24.7561 63.8249 24.7535L63.7769 22.5001C63.9929 22.5081 64.2103 22.5161 64.4263 22.5241L64.4716 24.7615ZM38.7382 24.4761C38.5462 24.4748 38.3609 24.4721 38.1836 24.4708L38.2476 21.4788C38.4316 21.4868 38.6169 21.4948 38.8036 21.5028L38.7382 24.4761" fill="#6B9646"/>
<path d="M116.489 25.3296C116.18 25.3269 115.868 25.3229 115.553 25.3202L115.761 24.6122C116.072 24.6282 116.375 24.6429 116.681 24.6576L116.489 25.3296ZM65.7187 24.7749C65.4734 24.7722 65.2321 24.7696 64.9881 24.7669L64.9561 22.5442C65.1921 22.5536 65.4267 22.5629 65.6627 22.5722L65.7187 24.7749" fill="#6B9646"/>
<path d="M130.252 25.4495C130.186 25.4455 130.116 25.4401 130.048 25.4348C130.016 25.4241 129.984 25.4148 129.952 25.4055C130.055 25.4201 130.154 25.4348 130.252 25.4495ZM123.383 24.9908C121.306 24.8615 119.072 24.7281 116.7 24.5921L116.836 24.1161C119.866 24.3441 122.599 24.5748 124.959 24.8121C124.426 24.8428 123.899 24.9028 123.383 24.9908ZM115.783 24.5401C101.671 23.7388 83.0752 22.8535 65.6512 22.0881L65.6272 21.1441C83.4565 22.1375 102.435 23.0575 115.929 24.0495L115.783 24.5401V24.5401ZM64.9498 22.0575C64.7712 22.0495 64.5952 22.0428 64.4165 22.0348L64.3978 21.0748C64.5765 21.0855 64.7565 21.0961 64.9365 21.1055L64.9498 22.0575ZM63.7685 22.0055C54.8272 21.6161 46.2512 21.2615 38.8152 20.9695L38.8485 19.4535C46.2352 20.0135 54.8165 20.5361 63.7472 21.0388L63.7685 22.0055V22.0055ZM38.2592 20.9481C26.5725 20.4908 17.7965 20.1935 15.0152 20.1708C13.4632 20.0228 12.4352 19.8775 12.0205 19.7361C12.0205 19.7361 14.4818 16.5228 16.0938 16.5228C16.2245 16.5228 16.3512 16.5441 16.4685 16.5908C19.2098 17.6548 27.4072 18.5761 38.2925 19.4108L38.2592 20.9481" fill="#E9F3C1"/>
<path d="M64.4161 22.0349C64.1988 22.0242 63.9854 22.0162 63.7681 22.0056L63.7468 21.0389C63.9641 21.0509 64.1788 21.0629 64.3974 21.0749L64.4161 22.0349ZM38.8148 20.9696C38.6294 20.9629 38.4441 20.9549 38.2588 20.9483L38.2921 19.4109C38.4748 19.4256 38.6628 19.4403 38.8481 19.4536L38.8148 20.9696Z" fill="#D3E1BA"/>
<path d="M116.7 24.592C116.397 24.5747 116.09 24.5574 115.782 24.54L115.928 24.0494C116.234 24.072 116.536 24.0934 116.836 24.116L116.7 24.592V24.592ZM65.6502 22.088C65.4156 22.0787 65.1822 22.068 64.9489 22.0574L64.9355 21.1054C65.1649 21.1187 65.3956 21.1307 65.6262 21.144L65.6502 22.088" fill="#D3E1BA"/>
<path d="M130.252 25.4495C130.185 25.4455 130.116 25.4401 130.049 25.4348H130.048C130.116 25.4401 130.185 25.4455 130.252 25.4495ZM123.287 25.0081C121.24 24.8908 119.025 24.7748 116.681 24.6575L116.7 24.5921C119.072 24.7281 121.305 24.8615 123.383 24.9908C123.351 24.9961 123.319 25.0015 123.287 25.0081ZM115.761 24.6121C101.768 23.9281 83.2147 23.2388 65.6627 22.5721L65.6506 22.0881C83.0746 22.8535 101.671 23.7388 115.783 24.5401L115.761 24.6121V24.6121ZM64.956 22.5441C64.7773 22.5375 64.6053 22.5308 64.4267 22.5241L64.416 22.0348C64.5946 22.0428 64.7706 22.0495 64.9493 22.0575L64.956 22.5441V22.5441ZM63.7773 22.5001C54.904 22.1614 46.3333 21.8268 38.804 21.5028L38.8146 20.9695C46.2506 21.2615 54.8266 21.6161 63.768 22.0055L63.7773 22.5001ZM38.248 21.4788C27.7613 21.0241 19.3493 20.5855 15.0146 20.1708C17.796 20.1935 26.572 20.4908 38.2587 20.9481L38.248 21.4788Z" fill="#D3E1BA"/>
<path d="M64.4267 22.5242C64.2107 22.5162 63.9934 22.5081 63.7774 22.5001L63.768 22.0055C63.9854 22.0162 64.1987 22.0241 64.416 22.0348L64.4267 22.5242ZM38.804 21.5028C38.6174 21.4948 38.432 21.4868 38.248 21.4788L38.2587 20.9482C38.4441 20.9548 38.6294 20.9628 38.8147 20.9695L38.804 21.5028Z" fill="#C4D5B5"/>
<path d="M116.681 24.6575C116.375 24.6428 116.072 24.6281 115.761 24.6121L115.783 24.5401C116.091 24.5575 116.397 24.5748 116.7 24.5921L116.681 24.6575V24.6575ZM65.6626 22.5721C65.4266 22.5628 65.1919 22.5535 64.9559 22.5441L64.9492 22.0575C65.1826 22.0681 65.4159 22.0788 65.6506 22.0881L65.6626 22.5721Z" fill="#C4D5B5"/>
<path d="M154.882 34.0215C154.808 34.0135 154.734 34.0095 154.662 34.0095C154.612 34.0095 154.564 34.0108 154.516 34.0148C154.459 33.8321 154.398 33.6548 154.332 33.4788L154.787 33.5535C154.82 33.7081 154.851 33.8628 154.882 34.0215ZM5.12305 33.9602C5.46838 31.6255 5.90438 29.0081 6.41904 26.5735H6.42038C6.37371 26.7921 6.32837 27.0121 6.28304 27.2335H6.8097C6.2457 29.3335 5.76169 31.7055 5.36836 33.9135L5.12305 33.9602" fill="#E9F3C1"/>
<path d="M146.243 23.9294C146.24 23.9281 146.239 23.9281 146.238 23.9268C146.239 23.9281 146.24 23.9281 146.243 23.9294ZM146.212 23.9174C146.208 23.9161 146.203 23.9134 146.199 23.9121C146.203 23.9134 146.208 23.9161 146.212 23.9174ZM146.182 23.9054C146.171 23.9014 146.16 23.8974 146.15 23.8934C146.16 23.8974 146.171 23.9014 146.182 23.9054ZM7.23633 23.1628C7.69633 21.4921 8.20167 20.0721 8.74567 19.1254C8.20167 20.0721 7.69766 21.4908 7.23766 23.1601C7.23766 23.1614 7.23633 23.1628 7.23633 23.1628ZM123.183 18.0641C123.148 18.0641 123.114 18.0641 123.078 18.0641C119.043 16.4708 108.224 12.3588 99.1003 8.90275C108.483 12.2374 119.571 16.2174 123.503 18.0534C123.403 18.0614 123.296 18.0641 123.183 18.0641ZM35.1777 0.608091C38.6217 0.130757 43.7377 8.28065e-05 49.019 8.28065e-05C43.7377 8.28065e-05 38.6217 0.130757 35.1777 0.608091Z" fill="white"/>
<path d="M8.74512 19.1255C8.85578 18.9322 8.96779 18.7588 9.08245 18.6068C11.0238 16.0188 14.1105 13.1335 17.4785 10.4535C14.1105 13.1335 11.0238 16.0188 9.08245 18.6068C8.96779 18.7588 8.85578 18.9322 8.74512 19.1255Z" fill="#CCE7F1"/>
<path d="M123.077 18.0642C116.607 17.9389 89.9159 6.34019 83.2465 3.14019C83.0639 3.05352 82.8679 2.96285 82.6572 2.87352C83.4719 3.16419 84.1466 3.4442 84.6612 3.6922C86.1466 4.32154 92.1559 6.43618 99.0999 8.90285C108.224 12.3588 119.043 16.4709 123.077 18.0642Z" fill="#CCE7F1"/>
<path d="M143.947 25.8228C137.752 24.3614 122.068 21.2001 118.687 18.6107C111.221 15.0881 82.388 3.50542 78.7587 3.09209C74.648 2.62409 63.9226 2.41208 53.7706 2.41208C42.856 2.41208 32.6026 2.65742 31.9506 3.09209C31.7666 3.21476 31.568 3.34809 31.3573 3.49076C31.0533 3.58409 30.792 3.6974 30.6 3.8334L18.8826 12.0948C17.9146 12.7761 17.3093 13.4841 17.1013 14.1481C14.8186 16.0347 12.6627 17.9454 10.9187 19.7134C10.7613 19.6814 10.5947 19.6641 10.42 19.6641H8.46663C8.06397 20.5054 7.68266 21.5961 7.32799 22.8414C7.29733 22.9454 7.26797 23.0521 7.2373 23.1601C7.6973 21.4908 8.20131 20.0721 8.74531 19.1254C8.85598 18.9321 8.96798 18.7587 9.08265 18.6067C11.024 16.0187 14.1106 13.1334 17.4786 10.4534C23.32 5.80809 30.0066 1.78274 33.032 1.00941C33.64 0.854742 34.3626 0.721408 35.1773 0.608074C38.6213 0.130741 43.7373 6.66433e-05 49.0186 6.66433e-05C55.308 6.66433e-05 61.8333 0.184084 66.044 0.184084C73.1733 0.184084 79.188 1.63207 82.6573 2.87341C82.868 2.96274 83.064 3.05341 83.2466 3.14007C89.916 6.34007 116.607 17.9388 123.077 18.0641C123.113 18.0641 123.148 18.0641 123.183 18.0641C123.296 18.0641 123.403 18.0614 123.503 18.0534C126.536 18.1508 143.305 22.7974 146.149 23.8934C146.16 23.8974 146.171 23.9014 146.181 23.9054C146.187 23.9081 146.193 23.9094 146.199 23.9121C146.203 23.9134 146.208 23.9161 146.212 23.9174C146.22 23.9201 146.229 23.9241 146.237 23.9268C146.239 23.9281 146.24 23.9281 146.243 23.9294C147.603 24.4601 148.78 25.0641 149.793 25.7574L143.947 25.8228" fill="#E9F3C1"/>
<path d="M17.1016 14.1482C17.3096 13.4842 17.9149 12.7762 18.8829 12.0949L30.6002 3.83351C30.7922 3.69751 31.0536 3.5842 31.3576 3.49087C28.2616 5.58687 22.3496 9.80686 17.1016 14.1482" fill="#D3E1BA"/>
<path d="M154.786 33.5535L154.332 33.4788C154.293 33.3748 154.253 33.2708 154.212 33.1681L154.722 33.2628C154.744 33.3575 154.766 33.4561 154.786 33.5535ZM150.528 26.2975H145.818C145.382 26.1708 144.742 26.0108 143.946 25.8228L149.793 25.7575C150.048 25.9308 150.293 26.1121 150.528 26.2975" fill="#9EBFBB"/>
<path d="M154.722 33.2629L154.212 33.1682C152.936 29.9909 150.454 27.8722 146.149 26.4002C146.057 26.3696 145.946 26.3349 145.818 26.2976H150.528C152.722 28.0389 154.036 30.2936 154.722 33.2629" fill="#FDFDFD"/>
<path d="M6.80889 27.2334H6.28223C6.32756 27.0121 6.3729 26.7921 6.41956 26.5734H6.99157C6.93024 26.7894 6.86889 27.0107 6.80889 27.2334V27.2334ZM7.32757 22.8414C7.68224 21.5961 8.06354 20.5054 8.46621 19.6641H10.4196C10.5942 19.6641 10.7609 19.6814 10.9182 19.7134C10.7156 19.9201 10.5182 20.1228 10.3262 20.3241H8.20488C7.91155 21.0001 7.61824 21.8414 7.32757 22.8414Z" fill="#A0B9AA"/>
<path d="M7.65205 24.5134H6.88672C7.00005 24.0494 7.11737 23.5974 7.23604 23.1628C7.23604 23.1628 7.23737 23.1614 7.23737 23.1601C7.26804 23.0521 7.29739 22.9454 7.32806 22.8414C7.61873 21.8414 7.91204 21.0001 8.20537 20.3241H10.3267C9.87739 20.7988 9.46005 21.2614 9.08271 21.7081C8.57205 22.3121 8.09472 23.2961 7.65205 24.5134Z" fill="#F1AEAE"/>
<path d="M6.99229 26.5735H6.41895C6.56828 25.8682 6.72428 25.1775 6.88695 24.5135H7.65228C7.42161 25.1455 7.20295 25.8388 6.99229 26.5735Z" fill="#FBD5A8"/>
<path d="M2.72646 42.9121C2.42513 42.2934 2.39977 41.4094 2.39844 40.4081V37.8961C2.39844 35.7081 4.16245 33.9348 6.33978 33.9348H14.0638C14.0518 33.9641 14.0411 33.9935 14.0291 34.0228L6.91045 35.8001C4.66778 36.3601 2.81311 38.5868 2.76911 40.7748L2.72646 42.9121" fill="#E0E7B4"/>
<path d="M2.67721 45.3655C2.38521 44.6428 2.39853 43.6188 2.39853 42.4722V40.4082C2.39986 41.4095 2.42522 42.2935 2.72656 42.9122L2.67721 45.3508V45.3655" fill="#AAAAAA"/>
<path d="M156.377 40.6309C156.127 37.7069 155.28 36.1962 152.513 35.6842L139.416 33.9348H152.749C156.239 33.9348 156.691 35.0882 156.691 40.1295L156.689 39.8909C156.688 40.0762 156.645 40.2602 156.565 40.4388L156.377 40.6309" fill="#E0E7B4"/>
<path d="M156.565 40.4387C156.645 40.2601 156.688 40.0761 156.689 39.8907L156.691 40.1294V40.3107L156.565 40.4387" fill="#AAAAAA"/>
<path d="M111.817 43.6201H41.3867C41.5641 42.8335 41.676 42.0215 41.716 41.1921C51.1414 41.4415 101.965 42.8054 111.779 43.4428C111.792 43.5014 111.804 43.5601 111.817 43.6201" fill="#E0E7B4"/>
<path d="M41.3862 43.6201H39.7969C40.0209 42.8255 40.1715 42.0001 40.2382 41.1535C40.3569 41.1561 40.8689 41.1695 41.7156 41.1921C41.6756 42.0215 41.5636 42.8335 41.3862 43.6201Z" fill="#E0E7B4"/>
<path d="M113.408 43.6201H111.817C111.804 43.5601 111.792 43.5014 111.778 43.4428C112.738 43.5054 113.305 43.5601 113.404 43.6068C113.405 43.6108 113.406 43.6148 113.408 43.6201" fill="#E0E7B4"/>
<path d="M39.7971 43.6201H39.7852C40.0105 42.8268 40.1451 42.0001 40.2118 41.1521C40.2118 41.1521 40.2211 41.1521 40.2385 41.1535C40.1718 42.0001 40.0211 42.8255 39.7971 43.6201" fill="#9C9C9C"/>
<path d="M113.42 43.6201H113.408C113.407 43.6148 113.406 43.6108 113.404 43.6068C113.414 43.6108 113.419 43.6148 113.42 43.6201" fill="#9C9C9C"/>
<path d="M41.7058 39.6335C41.2485 32.1482 35.0138 26.1989 27.4151 26.1989C21.8925 26.1989 17.0898 29.3429 14.7031 33.9349H14.0645C16.1418 28.5882 21.3431 24.7882 27.4151 24.7882C31.6458 24.7882 35.4525 26.6322 38.0765 29.5589L38.0671 29.9602L38.2591 30.1309C38.9818 30.7776 39.6485 31.6749 40.2245 32.7122C41.1898 34.6376 41.7325 36.8096 41.7325 39.1056C41.7325 39.2842 41.7178 39.4589 41.7058 39.6335" fill="#E9F3C1"/>
<path d="M13.1257 39.6348C13.1137 39.4588 13.0977 39.2841 13.0977 39.1054C13.0977 37.3161 13.4284 35.6028 14.0297 34.0228L14.383 33.9348H14.0643H14.703C13.8057 35.6601 13.2497 37.5894 13.1257 39.6348" fill="#E0E7B4"/>
<path d="M41.6957 39.7961C41.317 32.2361 35.0663 26.1988 27.4143 26.1988C19.7637 26.1988 13.513 32.2361 13.1343 39.7961C13.1316 39.7415 13.1277 39.6881 13.125 39.6348C13.249 37.5894 13.805 35.6601 14.7023 33.9348C17.089 29.3428 21.8917 26.1988 27.4143 26.1988C35.013 26.1988 41.2476 32.1481 41.705 39.6334C41.701 39.6881 41.6983 39.7415 41.6957 39.7961" fill="#E0E7B4"/>
<path d="M40.2238 32.7122C39.6478 31.6748 38.9811 30.7775 38.2584 30.1308L38.0664 29.9602L38.0757 29.5588C38.9237 30.5055 39.6491 31.5642 40.2238 32.7122" fill="#D3E1BA"/>
<path d="M14.0293 34.0227C14.0413 33.9934 14.0519 33.964 14.0639 33.9347H14.3826L14.0293 34.0227Z" fill="#F3F5E1"/>
<path d="M139.142 33.9348H138.503C136.116 29.3428 131.314 26.1988 125.79 26.1988C121.35 26.1988 117.375 28.2308 114.747 31.4135L115.346 29.3228C117.06 27.4935 119.248 26.1122 121.714 25.3788C125.075 25.4108 127.931 25.4348 130.092 25.4482C134.239 26.7575 137.576 29.9081 139.142 33.9348" fill="#E9F3C1"/>
<path d="M140.08 39.6335C139.955 37.5882 139.4 35.6602 138.503 33.9349H139.142C139.766 35.5389 140.107 37.2829 140.107 39.1056C140.107 39.2842 140.092 39.4575 140.08 39.6335" fill="#E0E7B4"/>
<path d="M140.07 39.7961C139.692 32.2361 133.441 26.1988 125.789 26.1988C121.338 26.1988 117.361 28.2428 114.738 31.4401L114.746 31.4135C117.374 28.2308 121.349 26.1988 125.789 26.1988C131.313 26.1988 136.116 29.3428 138.502 33.9348C139.4 35.6601 139.954 37.5881 140.08 39.6334C140.076 39.6868 140.073 39.7415 140.07 39.7961" fill="#E0E7B4"/>
<path d="M111.474 39.1309C111.474 39.1229 111.474 39.1148 111.474 39.1055C111.474 36.2362 112.322 33.5602 113.782 31.3175L112.911 34.2655C112.232 35.6588 111.772 37.1762 111.578 38.7762L111.474 39.1309" fill="#E9F3C1"/>
<path d="M111.577 38.7761C111.772 37.1761 112.232 35.6588 112.91 34.2654L112.882 34.3588C112.245 35.6935 111.808 37.1415 111.61 38.6641L111.577 38.7761Z" fill="#E0E7B4"/>
<path d="M111.5 39.6335C111.488 39.4669 111.475 39.3002 111.474 39.1309L111.578 38.7762C111.544 39.0602 111.518 39.3455 111.5 39.6335" fill="#D3E1BA"/>
<path d="M111.509 39.7961C111.507 39.7415 111.503 39.6868 111.5 39.6334C111.517 39.3454 111.544 39.0601 111.577 38.7761L111.611 38.6641C111.563 39.0361 111.528 39.4148 111.509 39.7961" fill="#CDD9B1"/>
<path d="M112.911 34.2654L113.782 31.3174C114.244 30.6067 114.768 29.9387 115.346 29.3227L114.747 31.4134C114.028 32.2841 113.41 33.2414 112.911 34.2654" fill="#D3E1BA"/>
<path d="M112.883 34.3589L112.911 34.2655C113.409 33.2415 114.028 32.2842 114.747 31.4135L114.739 31.4402C114.009 32.3309 113.384 33.3096 112.883 34.3589Z" fill="#CDD9B1"/>
<path d="M129.952 25.4055C128.567 25.2029 126.888 25.0055 124.959 24.8122C125.235 24.7962 125.511 24.7882 125.79 24.7882C127.238 24.7882 128.635 25.0042 129.952 25.4055" fill="#E9F3C1"/>
<path d="M130.092 25.4482C127.93 25.4349 125.074 25.4109 121.713 25.3789C122.226 25.2269 122.752 25.1029 123.286 25.0082C125.805 25.1509 128.073 25.2936 130.049 25.4349C130.062 25.4402 130.077 25.4442 130.092 25.4482" fill="#D3E1BA"/>
<path d="M130.048 25.4348C128.087 25.2935 125.848 25.1442 123.383 24.9908C123.899 24.9028 124.425 24.8428 124.959 24.8122C126.888 25.0055 128.567 25.2028 129.952 25.4055C129.984 25.4148 130.016 25.4241 130.048 25.4348" fill="#F6FAE6"/>
<path d="M130.05 25.4348C128.074 25.2935 125.806 25.1508 123.287 25.0082C123.319 25.0015 123.351 24.9962 123.383 24.9908C125.848 25.1442 128.087 25.2935 130.048 25.4348H130.05Z" fill="#EDF3E3"/>
<path d="M27.4144 50.7534C21.9157 50.7534 17.457 46.2948 17.457 40.7961C17.457 40.6254 17.4744 40.4601 17.4824 40.2921C17.509 40.8188 17.5757 41.3347 17.681 41.8361C18.4837 46.4854 22.537 50.0214 27.4144 50.0214C32.2917 50.0214 36.3437 46.4867 37.1477 41.8401C37.253 41.3374 37.321 40.8201 37.3464 40.2921C37.3557 40.4601 37.3717 40.6254 37.3717 40.7961C37.3717 46.2948 32.9144 50.7534 27.4144 50.7534" fill="#515152"/>
<path d="M27.415 50.0215C22.5376 50.0215 18.4843 46.4855 17.6816 41.8361C18.6243 46.3535 22.619 49.7468 27.415 49.7468C32.211 49.7468 36.2043 46.3548 37.1483 41.8401C36.3443 46.4868 32.2923 50.0215 27.415 50.0215Z" fill="#373D43"/>
<path d="M38.9281 40.7256C38.6228 34.6243 33.5934 29.7669 27.4147 29.7669C21.2374 29.7669 16.2081 34.6243 15.9014 40.7256C15.8921 40.5309 15.8721 40.3389 15.8721 40.1429C15.8721 33.7682 21.0401 28.6002 27.4147 28.6002C33.7894 28.6002 38.9574 33.7682 38.9574 40.1429C38.9574 40.3389 38.9374 40.5309 38.9281 40.7256" fill="#515152"/>
<path d="M125.698 50.7534C120.199 50.7534 115.74 46.2948 115.74 40.7961C115.74 40.6254 115.758 40.4601 115.766 40.2921C115.836 41.6961 116.196 43.0227 116.787 44.2147C118.339 47.6387 121.786 50.0214 125.79 50.0214C131.062 50.0214 135.37 45.8921 135.654 40.6908C135.655 40.7254 135.656 40.7601 135.656 40.7961C135.656 46.2948 131.198 50.7534 125.698 50.7534Z" fill="#515152"/>
<path d="M125.79 50.0215C121.786 50.0215 118.339 47.6388 116.787 44.2148C118.414 47.4935 121.79 49.7468 125.698 49.7468C131.027 49.7468 135.367 45.5562 135.631 40.2922C135.638 40.4255 135.65 40.5575 135.654 40.6908C135.37 45.8922 131.062 50.0215 125.79 50.0215" fill="#373D43"/>
<path d="M114.185 40.7256C114.174 40.5309 114.154 40.3389 114.154 40.1429C114.154 33.7682 119.322 28.6002 125.697 28.6002C125.713 28.6002 125.728 28.6002 125.744 28.6002C119.452 28.6242 114.348 33.6829 114.249 39.9576C114.218 40.2109 114.197 40.4669 114.185 40.7256Z" fill="#353535"/>
<path d="M137.21 40.7256C136.905 34.6243 131.876 29.7669 125.697 29.7669C119.781 29.7669 114.918 34.2203 114.249 39.9576C114.348 33.6829 119.452 28.6242 125.744 28.6002C132.097 28.6256 137.24 33.7842 137.24 40.1429C137.24 40.3389 137.22 40.5309 137.21 40.7256Z" fill="#515152"/>
<g filter="url(#filter0_d)">
<path d="M106.692 40.9077L112.815 29.2087C112.954 28.9438 112.757 28.6179 112.483 28.6592L108.41 29.2734L110.178 21.2192C110.211 21.0281 109.989 20.9186 109.883 21.0737L103.068 32.2768C102.893 32.5336 103.078 32.8988 103.367 32.8651L107.858 32.3406L106.386 40.7803C106.35 40.9839 106.598 41.087 106.692 40.9077Z" fill="#70AB13"/>
<path d="M104.951 31.6521C104.838 31.6621 104.764 31.5256 104.823 31.4195L110.12 21.0441C110.053 20.9853 109.947 20.9815 109.884 21.075L103.068 32.277C102.893 32.5338 103.078 32.899 103.367 32.8653L107.858 32.3408L106.386 40.7804C106.366 40.8943 106.435 40.9744 106.516 40.9935L109.038 32.1363C109.157 31.7211 108.858 31.3052 108.467 31.3399L104.951 31.6521Z" fill="#5A890F"/>
</g>
<defs>
<filter id="filter0_d" x="99" y="21" width="17.8605" height="28" filterUnits="userSpaceOnUse" color-interpolation-filters="sRGB">
<feFlood flood-opacity="0" result="BackgroundImageFix"/>
<feColorMatrix in="SourceAlpha" type="matrix" values="0 0 0 0 0 0 0 0 0 0 0 0 0 0 0 0 0 0 127 0"/>
<feOffset dy="4"/>
<feGaussianBlur stdDeviation="2"/>
<feColorMatrix type="matrix" values="0 0 0 0 0 0 0 0 0 0 0 0 0 0 0 0 0 0 0.25 0"/>
<feBlend mode="normal" in2="BackgroundImageFix" result="effect1_dropShadow"/>
<feBlend mode="normal" in="SourceGraphic" in2="effect1_dropShadow" result="shape"/>
</filter>
</defs>
</svg>
