<svg width="159" height="53" viewBox="0 0 159 53" fill="none" xmlns="http://www.w3.org/2000/svg">
<path d="M158.64 50.2689C158.64 51.7773 123.128 53 79.3207 53C35.5132 53 0 51.7773 0 50.2689C0 48.7618 35.5132 47.5391 79.3207 47.5391C123.128 47.5391 158.64 48.7618 158.64 50.2689Z" fill="black" fill-opacity="0.3"/>
<path d="M151.892 40.5052L148.966 28.6122C147.294 26.3194 145.693 22.8217 130.649 20.9986L106.94 17.9845C99.0656 13.2037 87.4055 7.52715 79.3127 4.35093C74.3174 2.39051 51.5567 1.54562 43.0706 2.34929C36.2944 2.99086 33.6209 4.26026 26.8232 11.4686C22.1607 16.4143 14.602 15.9636 11.5139 21.0206C8.58005 22.4397 9.51952 29.6701 9.51952 29.6701C8.2821 34.9455 8.33577 36.0445 11.3515 40.8789C14.8933 46.5582 17.8593 45.9043 19.8349 45.9043L145.42 46.1213C148.09 46.1213 153.956 44.2763 151.892 40.5052" fill="#191919"/>
<path d="M155.877 33.6143L151.966 27.0599C150.22 24.7657 148.548 21.2693 132.84 19.4449L108.086 16.4322C99.8647 11.65 87.6905 5.97344 79.2407 2.79722C74.0253 0.836803 50.2594 -0.00809351 41.4002 0.79558C34.3247 1.43852 31.5331 2.70656 24.4361 9.91626C19.567 14.8619 11.6754 14.41 8.45172 19.4669C5.38905 20.8874 6.37012 28.1177 6.37012 28.1177C5.07768 33.3918 5.1327 34.4922 8.28127 39.3252C10.1307 42.1648 11.8298 43.4219 13.3235 43.9673C14.8186 44.514 16.1084 38.9419 17.1391 38.9419C17.1391 38.9419 19.975 44.5676 44.6052 44.5676C62.8134 44.5676 95.9377 44.4838 97.4301 44.4838C103.405 44.4838 110.234 38.2962 115.654 38.2962C121.701 38.2962 134.961 38.0572 142.616 38.0572C144.323 38.0572 146.177 43.6939 151.013 43.6939C151.568 43.6939 158.031 37.384 155.877 33.6143" fill="#689552"/>
<path d="M154.742 31.7131L153.563 29.7349L152.819 28.4888L151.967 27.0601L154.744 31.7131C154.744 31.7131 154.744 31.7131 154.742 31.7131" fill="white"/>
<path d="M151.313 31.4753C147.775 30.9519 144.479 29.677 142.305 28.1287C142.191 27.8815 142.104 27.6342 142.05 27.3869C142.015 27.2262 141.996 27.0682 141.988 26.913C142.011 26.8704 142.034 26.8264 142.059 26.7838C142.104 26.9418 142.168 27.0984 142.25 27.2564C142.271 27.2701 142.293 27.2825 142.314 27.2963C144.114 28.4063 146.812 29.302 149.705 29.6482L151.313 31.4753" fill="#86AA75"/>
<path d="M98.0468 39.1743C98.0173 38.4393 98.0186 37.1947 98.0226 35.6189C98.0334 29.7102 98.0508 19.8202 96.3826 17.89L96.1692 18.0824C97.7663 19.9301 97.7475 30.1361 97.7381 35.6189C97.7341 37.1974 97.7328 38.4448 97.7623 39.1853C97.8348 40.9699 97.6818 41.9151 97.2496 42.3451C96.8819 42.7105 96.2766 42.7435 95.3546 42.6748C94.2769 42.5965 81.4249 42.5607 69.4198 42.5443V42.5429C67.6657 42.5429 67.6282 42.2393 67.4416 40.7762L67.3946 40.419C67.2081 39.026 66.8927 36.2701 66.5263 33.0774C65.878 27.4173 65.0714 20.3725 64.6138 17.7485L64.3346 17.7993C64.7896 20.4151 65.5962 27.4544 66.2444 33.1117C66.6095 36.3058 66.9262 39.063 67.1128 40.4588L67.1584 40.8146C67.2725 41.7049 67.345 42.2461 67.7932 42.5415C58.7931 42.5305 50.6023 42.5291 48.6831 42.5291L48.3717 42.5305C45.9694 42.5442 45.2433 42.5442 44.842 35.9679C44.4917 30.2336 40.4346 25.5229 36.6069 23.8317C36.0607 23.5913 35.6406 23.5034 35.3024 23.4333C34.6595 23.3014 34.3669 23.2396 34.0234 22.2395C33.7898 21.5608 33.1698 19.7598 33.9509 15.2111L33.9576 14.358C32.6799 19.2308 33.3778 21.2407 33.7549 22.337C34.1522 23.4938 34.5642 23.5789 35.246 23.7191C35.5708 23.7864 35.9761 23.8702 36.4942 24.0996C39.526 25.4377 44.175 29.7088 44.5588 35.9857C44.9762 42.8369 45.8325 42.8383 48.3731 42.8218L48.6831 42.8204C53.2556 42.8204 93.4031 42.8245 95.3344 42.966C95.5773 42.9839 95.8001 42.9949 96.0041 42.9949C96.6456 42.9949 97.11 42.8877 97.4469 42.5539C97.9502 42.0538 98.1246 41.0743 98.0468 39.1743Z" fill="#4C7038"/>
<path d="M39.923 3.80577C37.8844 5.692 31.6235 16.2812 34.5734 16.5725C42.3375 17.3418 81.1939 18.1661 96.7153 18.2595C97.8587 18.2664 80.551 5.79502 77.9594 4.34291C75.3249 2.8647 43.1387 0.831489 39.923 3.80577" fill="#D6D6D6"/>
<path d="M96.2755 17.9846C80.4776 17.8733 42.2627 17.0449 34.5256 16.2756C34.2437 16.2481 34.182 16.119 34.1524 16.0572C33.3271 14.3138 38.223 5.84297 40.1342 4.07489C41.2723 3.02256 46.9413 2.49777 55.5334 2.63515C65.2435 2.79039 76.403 3.79325 77.878 4.61753C80.4253 6.04491 94.1201 15.9459 96.2755 17.9846Z" fill="#232122"/>
<path d="M63.6231 17.1233C54.8122 16.9007 39.209 16.4515 34.4768 15.9775L34.3855 15.9611C33.7547 14.3881 38.4024 6.13838 40.3444 4.34557C41.4288 3.34407 47.1824 2.82338 55.5853 2.9539C57.173 2.97862 58.8493 3.02809 60.5739 3.09815C61.3671 7.61109 62.3723 12.2161 63.6231 17.1233Z" fill="#80C2DC"/>
<path d="M87.0726 17.6025C80.3675 17.5009 72.6397 17.3456 65.2528 17.1629C64.0221 12.2516 63.041 7.65897 62.2773 3.17488C70.0186 3.5568 76.7425 4.30552 77.7974 4.89351C79.2817 5.72328 84.6783 9.52595 88.981 12.6761C88.3274 14.4716 87.702 16.0859 87.0726 17.6025" fill="#80C2DC"/>
<path d="M34.0516 2.36051C31.1822 3.58731 28.5222 5.76616 24.4368 9.91641C22.723 11.657 20.636 12.7286 18.5088 13.6064C24.214 14.6917 31.1809 6.27307 32.7511 4.57093C33.7121 3.52959 34.0301 3.00482 34.0516 2.36051Z" fill="#232122"/>
<path d="M32.4898 4.30422C33.24 3.49093 33.5957 2.99223 33.7272 2.5059C30.9786 3.75743 28.3682 5.92257 24.4372 9.91621C22.8414 11.5373 20.9195 12.5745 18.9453 13.4208C24.5083 13.7505 30.9839 5.93767 32.4898 4.30422Z" fill="#80C2DC"/>
<path d="M79.3162 3.79484C81.2126 4.57104 99.4221 15.0559 102.267 16.2209C104.503 17.1358 107.91 17.9313 110.464 16.7223L108.087 16.4324C99.9254 11.6846 87.8694 6.05749 79.4276 2.8689C78.7901 3.10795 78.425 3.43079 79.3162 3.79484" fill="#232122"/>
<path d="M108.99 16.5422L108.086 16.4323C99.984 11.7201 88.0461 6.13975 79.615 2.94017C79.1949 3.16822 79.0688 3.44436 79.7908 3.7356C81.6375 4.47883 99.3693 14.6477 102.139 15.7619C104.001 16.512 106.693 17.1535 108.99 16.5422" fill="#80C2DC"/>
<path d="M29.8484 24.164C37.289 23.9758 43.4707 29.9972 43.6546 37.6149C43.664 38.0449 43.6559 45.1502 48.0204 45.1502C36.8448 45.403 20.0202 44.3287 16.8113 44.3287C16.8113 43.0675 16.7214 38.8417 16.7093 38.2963C16.5254 30.6799 22.4078 24.3522 29.8484 24.164" fill="#191919"/>
<path d="M17.5205 38.2276C17.6923 45.3343 23.4593 50.9518 30.402 50.7773C37.3433 50.6014 42.8325 44.6982 42.6607 37.5916C42.4889 30.4849 36.7219 24.8674 29.7806 25.0433C22.8379 25.2191 17.3487 31.1223 17.5205 38.2276" fill="#070000"/>
<path d="M24.7284 41.7624C27.4005 44.3672 26.9348 39.6867 29.4794 36.9514C32.0227 34.2162 36.6127 34.4593 33.9392 31.856C31.2671 29.2526 27.0381 29.3598 24.4949 32.095C21.9516 34.8316 22.0549 39.1591 24.7284 41.7624" fill="#D60606"/>
<path d="M23.1816 42.919L26.5113 40.3171L28.0373 40.0272L27.8306 41.6029L25.4457 45.1501C24.5639 44.5566 23.7936 43.801 23.1816 42.919ZM27.2468 46.065C27.0562 45.9963 26.871 45.9194 26.6871 45.837L27.4186 44.7489L27.2468 46.065ZM30.3001 46.5733C29.723 46.5884 29.1593 46.5431 28.6117 46.4442L29.1767 42.1332L30.0558 40.8254L30.9979 42.0879L31.7764 46.3961C31.2972 46.495 30.806 46.561 30.3001 46.5733ZM33.7197 45.7353C33.5265 45.8287 33.3292 45.9125 33.1292 45.9908L32.8796 44.6102L33.7197 45.7353ZM34.9424 45.0099L32.3159 41.4889L32.034 39.9269L33.5721 40.1371L37.1635 42.6662C36.5744 43.5839 35.8214 44.3794 34.9424 45.0099V45.0099ZM36.9434 32.8243L33.462 35.5458L31.9361 35.8343L32.1414 34.26L34.6136 30.585C35.5222 31.173 36.3127 31.9341 36.9434 32.8243ZM32.7413 29.6866C32.9493 29.758 33.156 29.8322 33.3574 29.9201L32.5534 31.114L32.7413 29.6866ZM29.8813 29.2456C30.3886 29.2332 30.8852 29.2744 31.3697 29.35L30.7966 33.7297L29.9162 35.0375L28.9754 33.775L28.1956 29.4627C28.7392 29.3349 29.3029 29.2607 29.8813 29.2456V29.2456ZM26.2899 30.1757C26.4724 30.0809 26.6589 29.9916 26.8509 29.9105L27.0924 31.2513L26.2899 30.1757ZM25.0847 30.9257L27.6561 34.374L27.938 35.936L26.3999 35.7244L22.9333 33.2832C23.4996 32.3668 24.2311 31.5687 25.0847 30.9257ZM22.2837 34.5691L23.3265 35.3027L22.0797 35.1323C22.1428 34.9414 22.2085 34.7532 22.2837 34.5691V34.5691ZM37.946 34.6982L36.5113 34.9688L37.6695 34.0635C37.7702 34.271 37.8614 34.4825 37.946 34.6982V34.6982ZM34.0915 38.7605L32.8138 37.8593L34.0472 36.8949L38.3634 36.0789C38.4721 36.6023 38.5419 37.1408 38.5553 37.6958C38.5687 38.2632 38.5244 38.8169 38.4359 39.3568L34.0915 38.7605ZM37.8346 41.3955L36.6468 40.5588L38.0802 40.7567C38.0064 40.9737 37.9245 41.1867 37.8346 41.3955V41.3955ZM21.8193 39.7428C21.7093 39.2194 21.6408 38.6795 21.6274 38.1244C21.614 37.5818 21.6556 37.0515 21.7375 36.5336L25.8805 37.1023L27.1595 38.0036L25.9262 38.9666L21.8193 39.7428ZM22.2367 41.1248L23.4621 40.8927L22.4689 41.6689C22.3844 41.4916 22.3092 41.3089 22.2367 41.1248ZM20.3819 38.1547C20.5135 43.6444 24.9692 47.9842 30.3309 47.8482C35.6939 47.7136 39.9336 43.1526 39.8008 37.6642C39.6679 32.1745 35.2135 27.8347 29.8505 27.9707C24.4888 28.1067 20.2491 32.6664 20.3819 38.1547" fill="#F9EFF0"/>
<path d="M31.6253 33.5828L31.9528 31.081L33.0225 31.5028L31.6253 33.5828ZM28.1413 33.6707L26.6435 31.6649L27.693 31.1882L28.1413 33.6707ZM25.7389 36.2548L23.2949 35.9196L23.707 34.8233L25.7389 36.2548ZM34.1485 36.0418L36.1093 34.5101L36.575 35.583L34.1485 36.0418ZM36.2676 41.0384L34.2357 39.6082L36.6797 39.9434L36.2676 41.0384ZM23.8653 41.3529L23.3996 40.28L25.8248 39.8212L23.8653 41.3529ZM28.6593 41.456L28.9787 39.0147L26.6153 39.4626L28.5251 37.9693L26.5442 36.5721L28.9277 36.8991L28.4915 34.4785L29.9517 36.4361L31.314 34.407L30.9945 36.8469L33.362 36.399L31.4482 37.8951L33.4304 39.2895L31.0455 38.9625L31.4831 41.3845L30.0229 39.4269L28.6593 41.456ZM32.2803 44.6748L31.8333 42.191L33.3298 44.1981L32.2803 44.6748ZM28.0218 44.782L26.9508 44.3602L28.3493 42.2803L28.0218 44.782Z" fill="#999999"/>
<path d="M29.8244 26.8691C23.3675 27.0326 18.234 32.3505 18.0501 38.8816C18.034 38.6604 18.0072 38.4406 18.0018 38.2167C17.8367 31.382 23.1152 25.7055 29.7921 25.5365C36.4677 25.3675 42.0146 30.7693 42.1797 37.604C42.1851 37.8293 42.169 38.0491 42.1623 38.2716C41.6643 31.7571 36.2798 26.7056 29.8244 26.8691" fill="#262626"/>
<path d="M30.3325 47.8965C35.5573 47.7646 39.7111 43.4605 39.8587 38.1754C39.8721 38.3554 39.895 38.5326 39.899 38.7153C40.0319 44.2449 35.7613 48.8389 30.358 48.9749C24.9561 49.1123 20.4681 44.7395 20.3352 39.2099C20.3299 39.0272 20.3433 38.85 20.3486 38.67C20.7513 43.9399 25.1077 48.0283 30.3325 47.8965" fill="#262626"/>
<path d="M128.794 24.1638C136.236 23.9756 142.416 29.997 142.6 37.6147C142.611 38.0447 142.743 41.1152 142.914 44.5497C131.74 44.8024 118.754 45.5388 115.545 45.5388C115.545 44.2763 115.668 38.8415 115.655 38.2961C115.471 30.6798 121.354 24.3521 128.794 24.1638" fill="#191919"/>
<path d="M116.469 38.2276C116.641 45.3343 122.408 50.9518 129.349 50.7773C136.292 50.6014 141.779 44.6982 141.609 37.5916C141.437 30.4849 135.67 24.8674 128.728 25.0433C121.786 25.2191 116.297 31.1223 116.469 38.2276" fill="#070000"/>
<path d="M123.674 41.7624C126.348 44.3672 125.882 39.6867 128.425 36.9514C130.969 34.2162 135.558 34.4593 132.886 31.856C130.213 29.2526 125.985 29.3598 123.441 32.095C120.897 34.8316 121.002 39.1591 123.674 41.7624" fill="#D60606"/>
<path d="M122.129 42.919L125.459 40.3171L126.984 40.0272L126.778 41.6029L124.392 45.1501C123.51 44.5566 122.74 43.801 122.129 42.919V42.919ZM126.193 46.065C126.004 45.9963 125.817 45.9194 125.635 45.837L126.365 44.7489L126.193 46.065ZM129.248 46.5733C128.671 46.5884 128.106 46.5431 127.559 46.4442L128.123 42.1332L129.003 40.8254L129.946 42.0879L130.723 46.3961C130.244 46.495 129.752 46.561 129.248 46.5733ZM132.666 45.7353C132.474 45.8287 132.277 45.9125 132.077 45.9908L131.827 44.6102L132.666 45.7353ZM133.89 45.0099L131.264 41.4889L130.982 39.9269L132.52 40.1371L136.111 42.6662C135.521 43.5839 134.768 44.3794 133.89 45.0099ZM135.891 32.8243L132.41 35.5458L130.882 35.8343L131.089 34.26L133.56 30.585C134.468 31.173 135.259 31.9341 135.891 32.8243V32.8243ZM131.688 29.6866C131.897 29.758 132.102 29.8322 132.304 29.9201L131.501 31.114L131.688 29.6866ZM128.829 29.2456C129.336 29.2332 129.831 29.2744 130.317 29.35L129.743 33.7297L128.864 35.0375L127.922 33.775L127.143 29.4627C127.687 29.3349 128.251 29.2607 128.829 29.2456V29.2456ZM125.236 30.1757C125.42 30.0809 125.607 29.9916 125.797 29.9105L126.04 31.2513L125.236 30.1757ZM124.032 30.9257L126.604 34.374L126.886 35.936L125.348 35.7244L121.881 33.2832C122.447 32.3668 123.179 31.5687 124.032 30.9257ZM121.231 34.5691L122.273 35.3027L121.026 35.1323C121.089 34.9414 121.156 34.7532 121.231 34.5691V34.5691ZM136.894 34.6982L135.459 34.9688L136.617 34.0635C136.718 34.271 136.809 34.4825 136.894 34.6982V34.6982ZM133.039 38.7605L131.76 37.8593L132.993 36.8949L137.31 36.0789C137.42 36.6023 137.488 37.1408 137.502 37.6958C137.516 38.2632 137.472 38.8169 137.383 39.3568L133.039 38.7605ZM136.781 41.3955L135.593 40.5588L137.026 40.7567C136.953 40.9737 136.871 41.1867 136.781 41.3955ZM120.767 39.7428C120.657 39.2194 120.587 38.6795 120.574 38.1244C120.56 37.5818 120.603 37.0515 120.684 36.5336L124.828 37.1023L126.107 38.0036L124.874 38.9666L120.767 39.7428ZM121.184 41.1248L122.408 40.8927L121.415 41.6689C121.332 41.4916 121.255 41.3089 121.184 41.1248ZM119.328 38.1547C119.461 43.6444 123.916 47.9842 129.279 47.8482C134.64 47.7136 138.88 43.1526 138.747 37.6642C138.616 32.1745 134.161 27.8347 128.798 27.9707C123.435 28.1067 119.195 32.6664 119.328 38.1547Z" fill="#F9EFF0"/>
<path d="M130.571 33.5828L130.898 31.081L131.969 31.5028L130.571 33.5828ZM127.088 33.6707L125.59 31.6649L126.64 31.1882L127.088 33.6707ZM124.684 36.2548L122.24 35.9196L122.654 34.8233L124.684 36.2548ZM133.095 36.0418L135.056 34.5101L135.52 35.583L133.095 36.0418ZM135.213 41.0384L133.181 39.6082L135.625 39.9434L135.213 41.0384ZM122.811 41.3529L122.346 40.28L124.771 39.8212L122.811 41.3529ZM127.606 41.456L127.924 39.0147L125.561 39.4626L127.472 37.9693L125.491 36.5721L127.873 36.8991L127.437 34.4785L128.897 36.4361L130.261 34.407L129.94 36.8469L132.307 36.399L130.393 37.8951L132.376 39.2895L129.991 38.9625L130.428 41.3845L128.97 39.4269L127.606 41.456ZM131.227 44.6748L130.779 42.191L132.276 44.1981L131.227 44.6748ZM126.967 44.782L125.896 44.3602L127.296 42.2803L126.967 44.782Z" fill="#999999"/>
<path d="M128.772 26.8691C122.315 27.0326 117.181 32.3505 116.999 38.8816C116.981 38.6604 116.956 38.4406 116.949 38.2167C116.784 31.382 122.062 25.7055 128.739 25.5365C135.416 25.3675 140.962 30.7693 141.127 37.604C141.132 37.8293 141.116 38.0491 141.111 38.2716C140.613 31.7571 135.228 26.7056 128.772 26.8691" fill="#262626"/>
<path d="M129.279 47.8965C134.504 47.7646 138.659 43.4605 138.807 38.1754C138.82 38.3554 138.842 38.5326 138.846 38.7153C138.98 44.2449 134.708 48.8389 129.306 48.9749C123.903 49.1123 119.416 44.7395 119.282 39.2099C119.278 39.0272 119.291 38.85 119.295 38.67C119.698 43.9399 124.056 48.0283 129.279 47.8965" fill="#262626"/>
<path d="M72.1185 19.8943C72.2567 20.5359 71.8595 21.0428 71.2327 21.0249L67.0454 20.9027C66.4186 20.8848 65.7986 20.3477 65.6603 19.7047C65.5221 19.0618 65.918 18.5562 66.5461 18.5741L70.7321 18.6963C71.3602 18.7142 71.9803 19.2514 72.1185 19.8943Z" fill="#4C7038"/>
<path d="M70.6411 18.861L66.6564 18.7387C66.18 18.7236 65.8471 19.0506 65.7988 19.5135C66.0136 20.0411 66.5222 20.445 67.0362 20.4615L71.0209 20.5837C71.4987 20.5988 71.8302 20.2719 71.8785 19.8089C71.6638 19.2828 71.1565 18.8775 70.6411 18.861Z" fill="#3D592C"/>
<path d="M70.6411 18.8392L66.6564 18.7389C66.18 18.7265 65.8471 18.9917 65.7988 19.3681C66.0136 19.7967 66.5222 20.1264 67.0362 20.1388L71.0209 20.2391C71.4987 20.2515 71.8302 19.985 71.8785 19.6085C71.6638 19.1799 71.1565 18.8516 70.6411 18.8392Z" fill="#689552"/>
<path d="M41.0358 18.8736C41.174 19.5166 40.7768 20.0235 40.15 20.0056L35.9627 19.8834C35.3359 19.8642 34.7145 19.3283 34.5763 18.6868C34.4381 18.0438 34.8353 17.5369 35.4621 17.5548L39.6494 17.6771C40.2775 17.6963 40.8976 18.2321 41.0358 18.8736Z" fill="#4C7038"/>
<path d="M39.5581 17.8431L35.5734 17.7194C35.0956 17.7043 34.7641 18.0313 34.7158 18.4942C34.9306 19.0204 35.4392 19.4257 35.9532 19.4422L39.9379 19.5644C40.4157 19.5796 40.7472 19.2526 40.7955 18.7896C40.5808 18.2634 40.0721 17.8582 39.5581 17.8431Z" fill="#3D592C"/>
<path d="M39.5581 17.8185L35.5734 17.7182C35.0956 17.7073 34.7641 17.9724 34.7158 18.3488C34.9306 18.7774 35.4392 19.1072 35.9532 19.1195L39.9379 19.2198C40.4157 19.2322 40.7472 18.967 40.7955 18.5892C40.5808 18.162 40.0721 17.8323 39.5581 17.8185Z" fill="#689552"/>
<path d="M153.562 29.7347L151.966 27.06C151.239 26.1052 150.523 24.9415 148.806 23.7765C144.55 23.3575 141.538 24.6476 142.039 26.7096C142.083 26.8923 142.156 27.0751 142.249 27.2564C144.124 28.4337 147.011 29.3762 150.081 29.6908C151.35 29.8199 152.525 29.8282 153.562 29.7347Z" fill="#4E6D3D"/>
<path d="M153.563 29.7347L151.967 27.06C151.375 26.2824 150.791 25.3688 149.669 24.4277C145.82 24.0238 142.861 24.8151 141.988 26.3607L142.039 26.7096C142.084 26.8923 142.156 27.0751 142.25 27.2564C144.125 28.4337 147.012 29.3762 150.081 29.6908C151.351 29.8199 152.525 29.8282 153.563 29.7347" fill="#F9EFF0"/>
<path d="M142.25 27.2563C142.47 27.3936 142.706 27.5296 142.953 27.6602C143.941 26.5323 145.097 25.5088 146.117 24.4139C144.059 24.6488 142.565 25.3384 141.988 26.3605L142.039 26.7095C142.084 26.8922 142.156 27.0749 142.25 27.2563Z" fill="white"/>
<path d="M146.425 27.2414C147.352 26.3168 148.286 25.4018 149.172 24.4361L149.212 24.3907C148.766 24.355 148.328 24.3316 147.909 24.3261L147.631 24.6682C146.606 25.8964 145.3 27.0147 144.184 28.2387C144.496 28.3679 144.825 28.4902 145.161 28.6069C145.586 28.1577 145.986 27.6782 146.425 27.2414" fill="white"/>
<path d="M150.789 25.9225L150.951 25.7287C150.769 25.5076 150.57 25.2823 150.346 25.0542C150.142 25.2754 149.943 25.5021 149.737 25.7205C148.729 26.7893 147.809 27.6644 146.537 29.0314C146.87 29.122 147.212 29.2031 147.558 29.28C148.588 28.1219 149.784 27.0957 150.789 25.9225Z" fill="white"/>
<path d="M151.755 26.7769C150.909 27.7317 149.939 28.6178 149.049 29.5575C149.39 29.6083 149.733 29.655 150.081 29.6908C151.351 29.8199 152.525 29.8282 153.562 29.7347L151.967 27.06L151.755 26.7769" fill="white"/>
<path d="M151.146 28.4681C147.748 28.3445 144.504 27.7482 142.101 26.9019L142.25 27.2564C144.124 28.4337 147.011 29.3762 150.081 29.6908C151.35 29.8199 152.525 29.8282 153.562 29.7347L152.819 28.4887C152.278 28.4956 151.721 28.4901 151.146 28.4681" fill="#D86B32"/>
<path d="M155.305 37.9419C155.305 36.498 155.082 35.3688 153.587 35.3688C152.318 35.3688 144.579 35.0281 142.459 34.087C142.436 33.9634 142.412 33.8411 142.385 33.7188C145.619 33.7161 150.433 33.6817 153.237 33.6611L154.944 35.5996C155.363 36.3016 155.45 37.097 155.317 37.9213C155.313 37.9281 155.309 37.935 155.305 37.9419V37.9419ZM142.024 33.8109C141.997 33.7806 141.974 33.7504 141.958 33.7188C141.97 33.7188 141.982 33.7188 141.994 33.7188C142.005 33.7491 142.014 33.7793 142.024 33.8109Z" fill="#86AA75"/>
<path d="M14.1861 32.2378C13.2601 32.2378 12.1904 32.1746 11.1275 32.11C10.0659 32.0468 9.01097 31.9836 8.11176 31.9836C7.82321 31.9836 7.55078 31.9891 7.2998 32.0043C7.40851 31.522 7.5387 30.9973 7.68633 30.4189C7.68633 30.4189 7.55481 29.4916 7.54005 28.2538C10.5021 28.3348 16.4489 28.7263 18.8929 28.7497C18.4285 29.4338 18.0218 30.1606 17.6809 30.9244C17.0703 31.6031 16.1805 32.1787 14.7552 32.2282C14.574 32.235 14.3834 32.2378 14.1861 32.2378" fill="#86AA75"/>
<path d="M16.1993 19.6097H8.1883C6.12684 20.8901 6.13623 25.0486 6.2691 27.0378H11.31C12.0965 27.0378 13.1621 26.3853 13.6909 25.5816L16.6637 21.0659C17.1924 20.2609 16.9844 19.6097 16.1993 19.6097" fill="#4E6D3D"/>
<path d="M15.3501 20.169H7.54979C6.20098 21.7544 6.15534 24.9553 6.25466 26.7756H10.4621C11.2473 26.7756 12.3129 26.1959 12.843 25.4802L15.8144 21.4645C16.3446 20.7501 16.1365 20.169 15.3501 20.169" fill="#D60606"/>
<path d="M112.947 21.9055C112.947 21.9055 116.451 23.7986 114.37 25.2644C115.67 25.2493 116.873 24.6393 116.873 23.6667C116.873 23.0155 115.206 21.9055 112.947 21.9055" fill="#191919"/>
<path d="M15.3293 22.1187L15.8138 21.4647C16.3439 20.7503 16.1359 20.1692 15.3494 20.1692H11.9982C11.7701 20.8163 11.5553 21.4661 11.3486 22.1187H15.3293Z" fill="#D86B32"/>
<path d="M10.9446 23.429C10.6185 24.5336 10.3232 25.6477 10.0615 26.7756H10.4615C11.2466 26.7756 12.3122 26.1959 12.8423 25.4802L14.3603 23.429H10.9446" fill="#D86B32"/>
<path d="M117.595 23.9414C117.638 23.7642 117.669 23.576 117.68 23.3685C117.681 23.3342 117.68 23.3012 117.675 23.2683C117.677 23.2202 117.679 23.1707 117.679 23.1199C117.679 21.0303 111.618 20.8188 105.553 20.8188C104.043 20.8188 102.533 20.8311 101.117 20.8325C103.424 20.5852 106.805 20.3146 109.933 20.3146C114.187 20.3146 117.975 20.8133 117.975 22.5456C117.975 23.1171 117.836 23.576 117.595 23.9414" fill="#86AA75"/>
<path d="M101.034 20.8324C108.151 20.8324 117.679 20.5 117.679 23.1198C117.679 26.7013 112.25 25.8235 110.258 25.8235C112.882 25.5363 116.148 25.4663 116.148 23.6666C116.148 22.1073 112.412 21.5702 101.034 20.8324Z" fill="#4C7038"/>
<path d="M156.093 34.0718C156.092 34.0704 156.092 34.0691 156.09 34.0677C156.092 34.0691 156.092 34.0704 156.093 34.0718ZM156.089 34.0622C156.088 34.0608 156.088 34.0581 156.086 34.0567C156.088 34.0581 156.088 34.0608 156.089 34.0622ZM156.085 34.0512C156.084 34.0498 156.082 34.0471 156.082 34.0457C156.082 34.0471 156.084 34.0498 156.085 34.0512ZM156.081 34.0416C156.08 34.0388 156.078 34.0361 156.078 34.0333C156.078 34.0361 156.08 34.0388 156.081 34.0416ZM156.076 34.0306C156.076 34.0278 156.074 34.0251 156.073 34.0223C156.074 34.0251 156.076 34.0278 156.076 34.0306ZM156.072 34.0196C156.07 34.0168 156.069 34.0127 156.069 34.01C156.069 34.0127 156.07 34.0168 156.072 34.0196ZM156.068 34.0086C156.066 34.0045 156.065 34.0017 156.063 33.9976C156.065 34.0017 156.066 34.0045 156.068 34.0086ZM156.063 33.9976C156.022 33.8973 155.976 33.7998 155.925 33.7022C155.976 33.7998 156.022 33.8973 156.063 33.9976ZM155.925 33.7022C155.923 33.6981 155.921 33.6954 155.92 33.6912C155.921 33.6954 155.924 33.6995 155.925 33.7022ZM155.919 33.6912C155.917 33.6885 155.916 33.6844 155.913 33.6816C155.916 33.6844 155.917 33.6885 155.919 33.6912ZM155.913 33.6789C155.912 33.6761 155.909 33.6734 155.908 33.6706C155.909 33.6734 155.911 33.6761 155.913 33.6789ZM155.906 33.6679C155.905 33.6651 155.904 33.6624 155.902 33.6596C155.904 33.6624 155.905 33.6651 155.906 33.6679ZM155.901 33.6569C155.9 33.6541 155.897 33.6514 155.896 33.6487C155.897 33.6514 155.898 33.6541 155.901 33.6569ZM155.894 33.6459C155.893 33.6432 155.892 33.6418 155.89 33.6377C155.892 33.6404 155.893 33.6432 155.894 33.6459ZM155.889 33.6349C155.886 33.6322 155.885 33.6294 155.884 33.6267C155.885 33.6294 155.886 33.6322 155.889 33.6349ZM155.882 33.6239C155.881 33.6212 155.878 33.6171 155.877 33.6143C155.878 33.6171 155.881 33.6212 155.882 33.6239Z" fill="white"/>
<path d="M154.819 39.5244C155.057 38.99 155.232 38.4487 155.318 37.9212C156.442 35.9594 156.086 33.6459 155.448 33.6459C155.263 33.6459 154.434 33.6528 153.238 33.661L151.313 31.4753C151.476 31.4987 151.641 31.522 151.805 31.5412C152.75 31.6621 153.646 31.7143 154.492 31.7143C154.576 31.7143 154.659 31.7143 154.743 31.713L155.878 33.6143C155.879 33.6171 155.882 33.6212 155.883 33.6239C155.883 33.6253 155.885 33.6253 155.885 33.6267C155.886 33.6294 155.887 33.6322 155.89 33.6349C155.89 33.6363 155.89 33.6377 155.891 33.6377C155.893 33.6418 155.894 33.6432 155.895 33.6459C155.895 33.6473 155.897 33.6487 155.897 33.6487C155.898 33.6514 155.901 33.6541 155.902 33.6569C155.902 33.6583 155.902 33.6583 155.903 33.6596C155.905 33.6624 155.906 33.6651 155.907 33.6679C155.907 33.6693 155.909 33.6693 155.909 33.6706C155.91 33.6734 155.913 33.6761 155.914 33.6789C155.914 33.6803 155.914 33.6803 155.914 33.6816C155.917 33.6844 155.918 33.6885 155.92 33.6912H155.921C155.922 33.6953 155.924 33.6981 155.926 33.7022C155.977 33.7998 156.023 33.8973 156.064 33.9976C156.066 34.0017 156.067 34.0045 156.069 34.0086C156.069 34.0086 156.069 34.01 156.07 34.01C156.07 34.0127 156.071 34.0168 156.073 34.0196C156.073 34.0196 156.074 34.021 156.074 34.0223C156.075 34.0251 156.077 34.0278 156.077 34.0306C156.078 34.032 156.078 34.032 156.079 34.0333C156.079 34.0361 156.081 34.0388 156.082 34.0416C156.082 34.0429 156.082 34.0443 156.083 34.0457C156.083 34.0471 156.085 34.0498 156.086 34.0512C156.086 34.0539 156.087 34.0553 156.087 34.0567C156.089 34.0581 156.089 34.0608 156.09 34.0622C156.09 34.0636 156.091 34.0663 156.091 34.0677C156.093 34.0691 156.093 34.0704 156.094 34.0718C156.718 35.7231 155.941 37.7536 154.819 39.5244" fill="#86AA75"/>
<path d="M154.491 31.7144C153.645 31.7144 152.749 31.6621 151.804 31.5413C151.64 31.522 151.475 31.4987 151.313 31.4753L149.705 29.6482C149.83 29.6633 149.955 29.677 150.081 29.6907C150.789 29.7636 151.469 29.7979 152.111 29.7979C152.619 29.7979 153.103 29.7759 153.562 29.7347L154.742 31.713C154.659 31.7144 154.576 31.7144 154.491 31.7144" fill="#9EBB91"/>
<path d="M7.78607 38.5547C5.13274 34.3577 5.15018 33.0993 6.37015 28.1179C6.37015 28.1179 6.21984 27.0148 6.21984 25.5846C6.21984 23.355 6.58489 20.3326 8.45175 19.4671C10.5414 16.1892 14.5919 15.2262 18.5094 13.6078C18.8517 13.6724 19.1993 13.7026 19.5496 13.7026C25.032 13.704 31.2741 6.17007 32.7504 4.57097C33.7114 3.52962 34.0295 3.00485 34.0509 2.36054C31.3345 3.5214 28.806 5.53677 25.079 9.26801C31.709 2.63118 34.5421 1.4181 41.4003 0.795764C43.6536 0.592441 46.868 0.493534 50.497 0.493534C61.1439 0.493534 75.3513 1.33568 79.2407 2.7974C87.5913 5.93654 99.5816 11.5183 107.798 16.2648C99.642 11.5526 87.7697 6.02034 79.4273 2.86884C78.7898 3.10788 78.4247 3.43072 79.3159 3.79478C81.2123 4.57098 99.4218 15.0558 102.267 16.2208C103.688 16.8033 105.585 17.3363 107.433 17.3363C108.492 17.3363 109.533 17.1619 110.463 16.7223L132.84 19.4451C147.945 21.1995 150.071 24.5007 151.764 26.7894C151.201 26.0284 150.591 25.156 149.471 24.2658C149.47 24.2658 149.47 24.2658 149.47 24.2658C149.266 24.1037 149.046 23.9402 148.806 23.7767C148.265 23.7245 147.744 23.6984 147.248 23.6984C144.829 23.6984 142.998 24.3084 142.296 25.3085C137.592 23.366 130.874 21.4165 122.562 20.492L98.2837 18.3571C96.637 17.4407 95.0319 16.4337 93.475 15.3896C88.575 11.6172 79.7507 5.34717 77.959 4.34293C77.4007 4.02833 75.5124 3.69037 72.855 3.37989C70.8969 3.10513 68.5965 2.90732 66.1378 2.77406C61.8673 2.47594 57.0357 2.2781 52.6833 2.2781C46.4117 2.2781 41.1291 2.68888 39.9226 3.80578C39.6421 4.06543 39.2811 4.48992 38.8744 5.0312C37.1565 6.68526 36.1822 9.51942 33.4134 14.2796C30.999 18.4313 21.5909 18.2952 15.2454 19.61H8.1887C6.12724 20.8903 6.13663 25.0488 6.26949 27.0381H7.56596C7.54181 27.4612 7.5351 27.872 7.53913 28.2539C7.19555 28.2443 6.89088 28.2402 6.63723 28.2402C5.92323 29.6676 5.72058 31.5195 5.64944 32.5814C5.79305 32.2201 6.41445 32.0594 7.29889 32.0044C6.67079 34.7809 6.72313 36.1904 7.96859 38.4489L7.87331 38.5286L7.78607 38.5547V38.5547ZM24.2469 10.1046C24.2482 10.1033 24.2509 10.1005 24.2536 10.0978C24.2523 10.0991 24.2509 10.1005 24.2509 10.1005C24.2496 10.1019 24.2482 10.1033 24.2469 10.1046ZM24.2724 10.0799C24.2764 10.0758 24.2804 10.0717 24.2845 10.0675C24.2831 10.0689 24.2818 10.0703 24.2805 10.0717C24.2778 10.0744 24.2751 10.0772 24.2724 10.0799ZM24.2992 10.0538C24.3046 10.0483 24.31 10.0414 24.3154 10.0373C24.314 10.0387 24.3127 10.0401 24.3113 10.0414C24.3073 10.0456 24.3033 10.0497 24.2992 10.0538V10.0538ZM24.3288 10.025C24.3341 10.0195 24.3395 10.014 24.3449 10.0085C24.3422 10.0099 24.3408 10.0126 24.3382 10.0154C24.3355 10.0167 24.3341 10.0195 24.3315 10.0209C24.3301 10.0222 24.3301 10.0236 24.3288 10.025V10.025ZM24.3543 9.99885C24.3623 9.99061 24.369 9.98375 24.3771 9.97688C24.3757 9.97826 24.3744 9.97964 24.3731 9.98101C24.3677 9.98513 24.3623 9.99061 24.3583 9.99473C24.357 9.9961 24.3556 9.99748 24.3543 9.99885V9.99885ZM24.3851 9.96863C24.3918 9.96176 24.3972 9.95628 24.4039 9.94941C24.4012 9.95079 24.3999 9.95354 24.3972 9.95629C24.3959 9.95766 24.3945 9.95901 24.3918 9.96038C24.3892 9.96313 24.3878 9.96589 24.3851 9.96863V9.96863ZM24.412 9.94116C24.42 9.93292 24.4281 9.92469 24.4361 9.91644C24.4294 9.92194 24.4227 9.92879 24.4173 9.93566C24.416 9.93704 24.4147 9.93841 24.4147 9.93841C24.4133 9.93979 24.412 9.93979 24.412 9.94116ZM24.9649 9.38202C24.9676 9.37927 24.9703 9.37655 24.973 9.3738C24.9703 9.37655 24.9676 9.37927 24.9649 9.38202ZM25.0025 9.34492C25.0065 9.33943 25.0119 9.33532 25.0173 9.32983C25.0119 9.33532 25.0079 9.33943 25.0025 9.34492ZM25.0401 9.30783C25.0468 9.30096 25.0535 9.2941 25.0602 9.28723C25.0535 9.2941 25.0468 9.30096 25.0401 9.30783Z" fill="#86AA75"/>
<path d="M151.763 26.7893C151.2 26.0282 150.589 25.1559 149.47 24.2657C149.47 24.2657 149.47 24.2657 149.471 24.2657C150.59 25.1559 151.201 26.0282 151.763 26.7893Z" fill="#9EBB91"/>
<path d="M93.4756 15.3894C87.3731 11.2996 82.0154 6.6438 77.8777 4.61745C77.8321 4.59272 77.777 4.56661 77.7126 4.54051C76.6336 4.05555 74.9385 3.67364 72.8556 3.37965C75.5129 3.69013 77.4013 4.02809 77.9596 4.34269C79.7513 5.34693 88.5756 11.6169 93.4756 15.3894V15.3894ZM38.875 5.03096C39.2817 4.48968 39.6427 4.06519 39.9232 3.80554C41.1297 2.68864 46.4122 2.27786 52.6838 2.27786C57.0363 2.27786 61.8678 2.4757 66.1384 2.77382C63.3294 2.6227 60.3164 2.55675 57.3758 2.55675C55.7532 2.55675 54.1521 2.57734 52.6208 2.61443C45.6687 2.62955 41.1378 3.14749 40.1339 4.0748C40.1084 4.09953 40.0815 4.12427 40.0533 4.15174C39.6145 4.39903 39.2293 4.69026 38.875 5.03096" fill="#DEDEDE"/>
<path d="M77.8781 4.61768C77.8244 4.59157 77.7707 4.56684 77.713 4.54073C77.7774 4.56684 77.8324 4.59295 77.8781 4.61768ZM40.0537 4.15197C40.0819 4.1245 40.1088 4.09976 40.1342 4.07503C41.1381 3.14772 45.6691 2.62978 52.6211 2.61466C49.545 2.68885 46.7468 2.83175 44.6061 3.01859C42.542 3.19718 41.1354 3.54338 40.0537 4.15197" fill="#4F4D4E"/>
<path d="M19.5499 13.7024C19.1996 13.7024 18.852 13.6722 18.5098 13.6076C18.6574 13.5458 18.805 13.484 18.9513 13.4208C19.064 13.4277 19.1768 13.4304 19.2895 13.4304C24.7733 13.4304 31.0141 5.90334 32.489 4.30424C33.2393 3.49095 33.5949 2.99224 33.7265 2.50592C31.0423 3.7286 28.4896 5.82229 24.7116 9.63734C24.7961 9.55079 24.8807 9.46697 24.9653 9.3818C24.9679 9.37905 24.9706 9.37633 24.9733 9.37358C24.9827 9.36396 24.9934 9.35432 25.0028 9.3447C25.0082 9.33921 25.0122 9.3351 25.0176 9.32961C25.0243 9.32274 25.0324 9.31447 25.0404 9.30761C25.0471 9.30074 25.0538 9.29388 25.0605 9.28701C25.0672 9.28014 25.0726 9.27466 25.0793 9.26779C28.8063 5.53655 31.3348 3.52118 34.0513 2.36032C34.0298 3.00463 33.7117 3.5294 32.7508 4.57074C31.2745 6.16985 25.0324 13.7038 19.5499 13.7024V13.7024ZM24.2445 10.1058C24.2459 10.1058 24.2459 10.1058 24.2472 10.1044C24.2486 10.103 24.2499 10.1017 24.2512 10.1003C24.2486 10.103 24.2472 10.1044 24.2445 10.1058V10.1058ZM24.2808 10.0714C24.2821 10.0701 24.2835 10.0687 24.2848 10.0673C24.2861 10.0659 24.2875 10.0646 24.2888 10.0632C24.2861 10.0659 24.2835 10.0687 24.2808 10.0714V10.0714ZM24.2996 10.0536C24.3036 10.0495 24.3076 10.0453 24.3117 10.0412C24.3076 10.0453 24.3036 10.0495 24.2996 10.0536ZM24.3237 10.0289C24.3264 10.0261 24.3278 10.0261 24.3291 10.0248C24.3304 10.0234 24.3304 10.022 24.3318 10.0206C24.3291 10.0234 24.3264 10.0261 24.3237 10.0289V10.0289ZM24.3385 10.0151C24.3412 10.0124 24.3425 10.0096 24.3452 10.0083C24.3452 10.0069 24.3466 10.0069 24.3479 10.0055C24.3452 10.0083 24.3412 10.011 24.3385 10.0151ZM24.3586 9.99451C24.3626 9.99038 24.368 9.98491 24.3734 9.98079C24.368 9.98491 24.3626 9.99038 24.3586 9.99451ZM24.3801 9.97254C24.3814 9.97116 24.3841 9.96841 24.3855 9.96841C24.3881 9.96566 24.3895 9.96291 24.3922 9.96016C24.3881 9.96428 24.3841 9.96842 24.3801 9.97254ZM24.3975 9.95607C24.4002 9.95332 24.4016 9.95057 24.4043 9.94919C24.4043 9.94782 24.4043 9.94782 24.4056 9.94782C24.4029 9.95057 24.4002 9.95332 24.3975 9.95607V9.95607ZM24.411 9.94094H24.4123C24.4123 9.93957 24.4137 9.93957 24.415 9.93819C24.4137 9.93957 24.4123 9.94094 24.411 9.94094ZM24.4177 9.93544C24.423 9.92857 24.4297 9.92172 24.4365 9.91622C24.4297 9.92172 24.423 9.92857 24.4177 9.93544ZM24.4767 9.875C24.4781 9.875 24.4781 9.875 24.4781 9.87363H24.4794C24.4781 9.87363 24.4781 9.875 24.4767 9.875ZM24.5599 9.79119C24.5613 9.78981 24.5613 9.78844 24.5626 9.78844C24.5626 9.78844 24.5613 9.78981 24.5599 9.79119ZM24.6015 9.74862C24.6029 9.74725 24.6042 9.74587 24.6056 9.7445C24.6042 9.74587 24.6029 9.74725 24.6015 9.74862ZM24.6391 9.71015C24.6431 9.70603 24.6458 9.70328 24.6499 9.70053C24.6458 9.70328 24.6431 9.70603 24.6391 9.71015ZM24.6754 9.67443C24.6848 9.66482 24.6928 9.65658 24.7022 9.64696C24.6928 9.65658 24.6848 9.66482 24.6754 9.67443Z" fill="#4F4D4E"/>
<path d="M19.2894 13.4307C19.1766 13.4307 19.0639 13.4279 18.9512 13.4211C20.8462 12.6105 22.6903 11.6173 24.2444 10.1061C24.2471 10.1047 24.2484 10.1033 24.2511 10.1006C24.2511 10.1006 24.2525 10.0992 24.2538 10.0978C24.2605 10.0923 24.2659 10.0855 24.2726 10.08C24.2753 10.0772 24.278 10.0745 24.2807 10.0717C24.2833 10.069 24.286 10.0662 24.2887 10.0635C24.2927 10.0607 24.2954 10.0566 24.2994 10.0539C24.3035 10.0498 24.3075 10.0456 24.3115 10.0415C24.3129 10.0401 24.3142 10.0388 24.3156 10.0374C24.3182 10.0346 24.3209 10.0319 24.3236 10.0291C24.3263 10.0264 24.329 10.0237 24.3317 10.0209C24.3343 10.0195 24.3357 10.0168 24.3384 10.0154C24.341 10.0113 24.3451 10.0085 24.3478 10.0058C24.3504 10.003 24.3518 10.0003 24.3545 9.99891C24.3558 9.99754 24.3571 9.99616 24.3585 9.99479C24.3625 9.99067 24.3679 9.98519 24.3733 9.98107C24.3746 9.9797 24.3759 9.97832 24.3773 9.97694C24.3786 9.97557 24.3786 9.97419 24.38 9.97282C24.384 9.9687 24.388 9.96456 24.392 9.96044C24.3947 9.95907 24.3961 9.95772 24.3974 9.95635C24.4001 9.9536 24.4028 9.95085 24.4055 9.9481C24.4068 9.94673 24.4095 9.94397 24.4108 9.94122C24.4122 9.94122 24.4135 9.93985 24.4149 9.93847C24.4149 9.93847 24.4162 9.9371 24.4175 9.93572C24.4229 9.92885 24.4296 9.922 24.4363 9.91651C24.4497 9.90277 24.4632 9.88902 24.4766 9.87528C24.4779 9.87528 24.4779 9.87391 24.4793 9.87391C24.4927 9.8588 24.5061 9.84505 24.5195 9.83131C24.533 9.81895 24.5464 9.80383 24.5598 9.79147C24.5611 9.79009 24.5625 9.78872 24.5625 9.78872C24.5759 9.77498 24.588 9.76264 24.6014 9.74891C24.6027 9.74753 24.6041 9.74615 24.6054 9.74478C24.6162 9.73379 24.6282 9.72143 24.639 9.71044C24.643 9.70631 24.6457 9.70356 24.6497 9.70081C24.6578 9.69119 24.6672 9.68296 24.6752 9.67471C24.6846 9.6651 24.6927 9.65686 24.7021 9.64725C24.7047 9.6445 24.7088 9.64174 24.7115 9.63762C28.4895 5.82258 31.0421 3.72888 33.7263 2.5062C33.5948 2.99253 33.2391 3.49123 32.4889 4.30452C31.0139 5.90362 24.7732 13.4307 19.2894 13.4307" fill="#99CEE3"/>
<path d="M108.039 16.4048C108.025 16.3965 108.013 16.3897 108 16.3814C108.013 16.3897 108.027 16.3979 108.039 16.4048ZM107.991 16.3759C107.979 16.3691 107.965 16.3622 107.953 16.3539C107.965 16.3622 107.979 16.3691 107.991 16.3759ZM107.942 16.3484C107.928 16.3402 107.914 16.332 107.899 16.3237C107.914 16.332 107.928 16.3402 107.942 16.3484ZM107.894 16.321C107.882 16.3141 107.871 16.3072 107.859 16.3004C107.871 16.3072 107.883 16.3141 107.894 16.321ZM107.846 16.2921C107.831 16.2839 107.817 16.2756 107.803 16.2674C107.817 16.2756 107.831 16.2839 107.846 16.2921Z" fill="#86AA75"/>
<path d="M107.433 17.3362C105.585 17.3362 103.689 16.8031 102.267 16.2206C99.4221 15.0557 81.2126 4.57082 79.3162 3.79462C78.425 3.43056 78.7901 3.10772 79.4276 2.86868C87.7701 6.02018 99.6423 11.5525 107.798 16.2646C107.8 16.266 107.801 16.266 107.802 16.2674C107.817 16.2756 107.83 16.2838 107.845 16.2921C107.851 16.2948 107.855 16.2976 107.859 16.3003C107.871 16.3072 107.881 16.3141 107.893 16.3209C107.896 16.3223 107.898 16.3223 107.899 16.3237C107.914 16.3319 107.927 16.3402 107.942 16.3484C107.946 16.3498 107.95 16.3525 107.953 16.3539C107.965 16.3621 107.978 16.369 107.99 16.3759C107.994 16.3786 107.997 16.38 108 16.3814C108.013 16.3896 108.025 16.3965 108.038 16.4047C99.9375 11.6981 88.0304 6.1342 79.6155 2.94012C79.1954 3.16817 79.0692 3.44431 79.7913 3.73555C81.638 4.47878 99.3698 14.6477 102.14 15.7618C103.481 16.3017 105.252 16.7853 106.997 16.7867C107.675 16.7867 108.348 16.7138 108.99 16.5421L108.087 16.4322L110.464 16.7221C109.534 17.1617 108.492 17.3362 107.433 17.3362" fill="#4F4D4E"/>
<path d="M106.997 16.7866C105.252 16.7852 103.48 16.3017 102.139 15.7618C99.3693 14.6476 81.6375 4.47874 79.7908 3.73552C79.0688 3.44427 79.1949 3.16813 79.615 2.94008C88.03 6.13417 99.937 11.6981 108.038 16.4047C108.054 16.4143 108.07 16.4226 108.086 16.4322L108.99 16.5421C108.348 16.7138 107.674 16.7866 106.997 16.7866" fill="#99CEE3"/>
<path d="M151.763 26.7893L151.76 26.7866C151.233 26.0722 150.661 25.2603 149.668 24.4278C148.997 24.3563 148.353 24.3233 147.741 24.3233C145.568 24.3233 143.818 24.7534 142.776 25.5089C142.619 25.4416 142.458 25.3743 142.296 25.3084C142.998 24.3083 144.828 23.6983 147.247 23.6983C147.743 23.6983 148.264 23.7244 148.805 23.7766C149.045 23.9401 149.265 24.1035 149.469 24.2657C150.589 25.1559 151.199 26.0282 151.763 26.7893Z" fill="#718A64"/>
<path d="M150.171 28.4202C149.61 28.3844 149.054 28.3364 148.509 28.2759C149.28 27.4997 150.081 26.7483 150.788 25.9226L150.951 25.7289C150.768 25.5077 150.57 25.2824 150.345 25.0544C150.141 25.2755 149.943 25.5022 149.736 25.7207C149.022 26.4776 148.352 27.137 147.57 27.9448C147.22 27.7237 146.832 27.4942 146.408 27.2593C146.413 27.2538 146.42 27.2469 146.425 27.2414C147.353 26.3169 148.287 25.4019 149.172 24.4361L149.213 24.3908C148.766 24.3551 148.328 24.3317 147.91 24.3262L147.632 24.6683C147.014 25.4074 146.294 26.1081 145.576 26.8156C145.188 26.615 144.776 26.4117 144.34 26.207C144.938 25.6107 145.549 25.0241 146.117 24.4142C144.697 24.5763 143.546 24.9554 142.779 25.5091C142.779 25.5091 142.779 25.5091 142.777 25.5091C143.819 24.7535 145.569 24.3235 147.742 24.3235C148.354 24.3235 148.998 24.3565 149.669 24.4279C150.662 25.2604 151.234 26.0724 151.761 26.7867L151.755 26.7771C151.257 27.3404 150.713 27.8789 150.171 28.4202" fill="#FAF2F3"/>
<path d="M144.34 26.2068C143.85 25.976 143.33 25.7425 142.779 25.5089C143.547 24.9553 144.697 24.5761 146.117 24.414C145.549 25.024 144.939 25.6106 144.34 26.2068" fill="white"/>
<path d="M146.407 27.2593C146.144 27.1137 145.866 26.9653 145.575 26.8155C146.293 26.108 147.014 25.4074 147.631 24.6683L147.909 24.3262C148.328 24.3317 148.765 24.355 149.212 24.3908L149.172 24.4361C148.286 25.4019 147.352 26.3168 146.425 27.2414C146.419 27.2469 146.413 27.2538 146.407 27.2593" fill="white"/>
<path d="M148.51 28.2756C148.335 28.2578 148.162 28.2372 147.99 28.2166C147.858 28.1259 147.717 28.0366 147.57 27.9446C148.353 27.1368 149.022 26.4774 149.736 25.7204C149.943 25.502 150.142 25.2753 150.346 25.0541C150.57 25.2821 150.769 25.5074 150.951 25.7286L150.789 25.9223C150.081 26.748 149.28 27.4994 148.51 28.2756Z" fill="white"/>
<path d="M152.389 28.4915C151.984 28.4915 151.571 28.4846 151.147 28.4681C150.819 28.4571 150.494 28.4406 150.171 28.42C150.713 27.8787 151.257 27.3402 151.755 26.777L151.761 26.7866L151.764 26.7893C151.832 26.8813 151.9 26.9707 151.967 27.06L152.819 28.4887C152.677 28.4901 152.533 28.4915 152.389 28.4915" fill="white"/>
<path d="M152.112 29.7979C151.469 29.7979 150.79 29.7635 150.081 29.6907C149.955 29.677 149.83 29.6632 149.705 29.6481C149.395 29.2593 148.818 28.7689 147.99 28.2166C148.162 28.2372 148.335 28.2578 148.51 28.2757C149.055 28.3361 149.61 28.3842 150.171 28.4199C150.495 28.4405 150.819 28.457 151.147 28.468C151.571 28.4845 151.984 28.4914 152.39 28.4914C152.533 28.4914 152.677 28.49 152.819 28.4886L153.563 29.7347C153.104 29.7759 152.619 29.7979 152.112 29.7979" fill="#E0895B"/>
<path d="M155.319 37.9211C155.451 37.0969 155.364 36.3014 154.945 35.5994L153.238 33.661C154.434 33.6527 155.264 33.6459 155.449 33.6459C156.086 33.6459 156.442 35.9594 155.319 37.9211" fill="#9EBB91"/>
<path d="M5.65039 32.5813C5.72152 31.5194 5.92418 29.6675 6.63817 28.2401C6.89183 28.2401 7.1965 28.2442 7.54008 28.2538C7.55484 29.4916 7.68636 30.4189 7.68636 30.4189C7.53873 30.9973 7.40854 31.5221 7.29983 32.0043C6.41539 32.0593 5.794 32.22 5.65039 32.5813" fill="#9EBB91"/>
<path d="M7.56557 27.0378H6.2691C6.13623 25.0486 6.12684 20.8901 8.1883 19.6097H15.245C14.4666 19.7704 13.7352 19.9545 13.0668 20.1688H7.54812C6.19931 21.7542 6.15368 24.9552 6.25299 26.7755H7.58436C7.57765 26.8634 7.57094 26.9499 7.56557 27.0378" fill="#718A64"/>
<path d="M7.58603 26.7756H6.25466C6.15534 24.9553 6.20098 21.7544 7.54979 20.169H13.0685H11.9988C11.9438 20.327 11.8888 20.485 11.8351 20.6416C10.9104 21.0661 10.1843 21.5909 9.73741 22.2641C8.24768 22.9249 7.72829 24.9224 7.58603 26.7756" fill="#DE3838"/>
<path d="M11.834 20.6414C11.8877 20.4847 11.9427 20.3268 11.9977 20.1688H13.0674C12.6258 20.3117 12.2138 20.4683 11.834 20.6414Z" fill="#E0895B"/>
<path d="M115.468 37.8169C115.45 37.5669 115.42 37.3196 115.413 37.0668C115.369 35.2465 115.668 33.4977 116.248 31.8876C116.692 30.9053 117.216 30.0783 117.821 28.8405C117.81 28.8405 117.8 28.8391 117.789 28.8391C120.181 25.2618 124.161 22.8713 128.719 22.7573C128.833 22.7546 128.949 22.7518 129.063 22.7518C135.558 22.7518 141.039 27.4227 142.386 33.7189C142.253 33.7189 142.123 33.7189 141.995 33.7189C141.752 32.988 141.452 32.2846 141.1 31.6142C138.852 27.1727 134.321 24.16 129.134 24.16C129.022 24.16 128.908 24.1613 128.794 24.1641C125.175 24.2561 121.924 25.8003 119.561 28.2401C117.115 30.6937 115.573 34.0788 115.468 37.8169Z" fill="#86AA75"/>
<path d="M141.1 31.614C138.795 27.2233 134.273 24.2559 129.098 24.2559C128.983 24.2559 128.869 24.2573 128.755 24.2601C125.164 24.3521 121.936 25.855 119.561 28.24C121.924 25.8001 125.175 24.2559 128.794 24.1639C128.908 24.1611 129.022 24.1598 129.134 24.1598C134.321 24.1598 138.852 27.1725 141.1 31.614Z" fill="#474747"/>
<path d="M142.679 37.1287C142.591 35.9774 142.367 34.866 142.024 33.8109C142.116 33.9071 142.263 33.9992 142.459 34.0871C142.597 34.8303 142.679 35.5941 142.698 36.3758C142.703 36.63 142.686 36.8773 142.679 37.1287Z" fill="#86AA75"/>
<path d="M142.459 34.0872C142.263 33.9992 142.115 33.9072 142.024 33.811C142.014 33.7794 142.005 33.7492 141.994 33.719C142.122 33.719 142.252 33.719 142.385 33.719C142.412 33.8413 142.436 33.9635 142.459 34.0872" fill="#9EBB91"/>
<path d="M16.5125 37.8169C16.4937 37.5669 16.4629 37.3196 16.4575 37.0668C16.4038 34.8756 16.8467 32.7915 17.6801 30.9245C18.417 30.1044 18.7458 29.1317 19.1175 28.7526C19.0464 28.7526 18.9699 28.7512 18.8921 28.7498C21.2904 25.2219 25.2415 22.8713 29.7617 22.7573C29.8771 22.7546 29.9925 22.7518 30.1053 22.7518C31.6648 22.7518 33.1639 23.0211 34.5624 23.517C34.6671 23.5706 34.7798 23.6091 34.9019 23.642C39.9523 25.586 43.6001 30.5138 43.741 36.3758C43.7477 36.6299 43.7289 36.8772 43.7222 37.1286C43.5853 35.3413 43.1236 33.6515 42.3962 32.1211C40.2435 27.4049 35.5676 24.16 30.1872 24.16C30.0744 24.16 29.9603 24.1613 29.8476 24.1641C26.3904 24.252 23.27 25.6643 20.9374 27.9159C18.3002 30.3915 16.6212 33.9126 16.5125 37.8169" fill="#86AA75"/>
<path d="M34.902 23.6418C34.7799 23.6089 34.6672 23.5704 34.5625 23.5168C34.6766 23.5567 34.7893 23.5979 34.902 23.6418Z" fill="#708D60"/>
<path d="M42.3963 32.1213C40.1818 27.4532 35.5127 24.2563 30.1416 24.2563C30.0275 24.2563 29.9135 24.2577 29.798 24.2605C26.373 24.3484 23.2781 25.7208 20.9375 27.9162C23.2701 25.6645 26.3904 24.2522 29.8477 24.1643C29.9604 24.1615 30.0745 24.1602 30.1872 24.1602C35.5677 24.1602 40.2436 27.4051 42.3963 32.1213" fill="#474747"/>
<path d="M17.6807 30.9246C18.0216 30.1607 18.4282 29.434 18.8926 28.7498C18.9704 28.7512 19.0469 28.7526 19.118 28.7526C18.7463 29.1317 18.4175 30.1044 17.6807 30.9246Z" fill="#9EBB91"/>
<path d="M65.6068 22.1719C65.4847 22.1719 65.3612 22.1719 65.2377 22.1719C65.0901 21 64.9492 19.9491 64.8244 19.0877L65.6887 19.1248C65.6269 19.2938 65.6149 19.4916 65.6605 19.7045C65.7987 20.3475 66.4188 20.8846 67.0455 20.9025L71.2329 21.0247C71.2436 21.0247 71.2544 21.0247 71.2651 21.0247C71.8744 21.0247 72.2542 20.5247 72.1187 19.8941C72.0798 19.7141 72.0046 19.5424 71.8999 19.3886L97.0213 20.456C97.0629 20.6717 97.1018 20.897 97.1381 21.1319C91.0785 21.5701 80.1015 22.1719 65.6068 22.1719V22.1719ZM64.9519 22.1719C55.996 22.1609 45.7263 21.9191 34.4581 21.2693C33.9709 20.9368 33.7145 20.5096 33.5991 20.0672C33.5736 19.6977 33.5615 19.2759 33.5723 18.7951C33.677 18.2084 33.889 17.7743 33.889 17.7743L34.7855 17.8114C34.5869 18.0189 34.501 18.3307 34.5762 18.6865C34.7144 19.3281 35.3358 19.8639 35.9626 19.8831L40.1499 20.0054C40.1606 20.0054 40.1714 20.0054 40.1835 20.0054C40.7914 20.0054 41.1712 19.5053 41.0357 18.8734C40.9686 18.5602 40.7861 18.2717 40.5431 18.056L64.5345 19.0753C64.6606 19.9353 64.8016 20.9918 64.9519 22.1719V22.1719ZM97.4226 21.1113C97.3877 20.8887 97.3515 20.6744 97.3112 20.467L102.457 20.6868C102.457 20.6868 100.7 20.8723 97.4226 21.1113Z" fill="#86AA75"/>
<path d="M65.2371 22.1719C65.1418 22.1719 65.0465 22.1719 64.9512 22.1719C64.8009 20.9918 64.66 19.9353 64.5338 19.0753L64.8237 19.0877C64.9486 19.9491 65.0895 21 65.2371 22.1719ZM97.1374 21.1319C97.1012 20.897 97.0623 20.6717 97.0207 20.456L97.3106 20.467C97.3508 20.6744 97.3871 20.8887 97.422 21.1113C97.3294 21.1182 97.2341 21.125 97.1374 21.1319ZM33.5985 20.0672C33.4831 19.6317 33.5045 19.1811 33.5716 18.7951C33.5609 19.2759 33.573 19.6977 33.5985 20.0672Z" fill="#708D60"/>
<path d="M71.265 21.0249C71.2542 21.0249 71.2435 21.0249 71.2328 21.0249L67.0454 20.9026C66.4187 20.8848 65.7986 20.3476 65.6604 19.7047C65.6148 19.4918 65.6268 19.2939 65.6886 19.125L65.8738 19.1332C65.8349 19.2046 65.8094 19.2829 65.7986 19.3681C65.804 19.3791 65.8107 19.3915 65.8161 19.4025C65.8094 19.4382 65.8027 19.4753 65.7986 19.5137C66.0134 20.0413 66.522 20.4452 67.036 20.4617L71.0207 20.5839C71.0315 20.5853 71.0409 20.5853 71.0516 20.5853C71.5133 20.5853 71.8314 20.2625 71.8783 19.8091C71.8689 19.7858 71.8595 19.7638 71.8488 19.7404C71.8622 19.6992 71.873 19.6552 71.8783 19.6085C71.8381 19.5289 71.7884 19.4533 71.7294 19.3818L71.8998 19.3887C72.0045 19.5426 72.0796 19.7143 72.1186 19.8943C72.2541 20.5248 71.8743 21.0249 71.265 21.0249" fill="#708D60"/>
<path d="M71.0518 20.5852C71.0411 20.5852 71.0317 20.5852 71.0209 20.5838L67.0362 20.4616C66.5222 20.4451 66.0136 20.0412 65.7988 19.5136C65.8029 19.4752 65.8096 19.4381 65.8163 19.4024C66.0404 19.8131 66.5356 20.1264 67.0362 20.1387L71.0209 20.239C71.0317 20.239 71.0411 20.239 71.0518 20.239C71.4558 20.239 71.7497 20.0384 71.849 19.7403C71.8597 19.7637 71.8691 19.7857 71.8785 19.809C71.8315 20.2624 71.5135 20.5852 71.0518 20.5852Z" fill="#647A56"/>
<path d="M71.0518 20.239C71.0411 20.239 71.0317 20.239 71.0209 20.239L67.0362 20.1387C66.5356 20.1264 66.0404 19.8132 65.8163 19.4024C65.8109 19.3914 65.8042 19.379 65.7988 19.368C65.8096 19.2829 65.8351 19.2045 65.874 19.1331L71.7296 19.3818C71.7886 19.4532 71.8383 19.5288 71.8785 19.6085C71.8732 19.6552 71.8624 19.6991 71.849 19.7403C71.7497 20.0385 71.4558 20.239 71.0518 20.239Z" fill="#86AA75"/>
<path d="M40.1831 20.0056C40.171 20.0056 40.1603 20.0056 40.1495 20.0056L35.9622 19.8834C35.3354 19.8641 34.714 19.3283 34.5758 18.6868C34.5006 18.3309 34.5865 18.0191 34.7851 17.8117L35.0831 17.8254C34.8764 17.9353 34.7449 18.1221 34.7154 18.3488C34.7207 18.3612 34.7261 18.3722 34.7328 18.3831C34.7248 18.4189 34.7194 18.456 34.7154 18.4944C34.9301 19.0206 35.4388 19.4259 35.9528 19.4423L39.9375 19.5646C39.9469 19.566 39.9576 19.566 39.9683 19.566C40.4287 19.566 40.7481 19.2431 40.7951 18.7898C40.7857 18.7664 40.7749 18.7445 40.7655 18.7211C40.779 18.6799 40.7897 18.6359 40.7951 18.5892C40.6864 18.3735 40.5038 18.184 40.2837 18.0466L40.5427 18.0562C40.7857 18.2719 40.9682 18.5604 41.0353 18.8736C41.1709 19.5056 40.791 20.0056 40.1831 20.0056" fill="#708D60"/>
<path d="M39.9688 19.5659C39.958 19.5659 39.9473 19.5659 39.9379 19.5645L35.9532 19.4423C35.4392 19.4258 34.9306 19.0205 34.7158 18.4943C34.7198 18.4559 34.7252 18.4188 34.7333 18.3831C34.9574 18.7952 35.4526 19.1071 35.9532 19.1194L39.9379 19.2197C39.9473 19.2197 39.958 19.2197 39.9688 19.2197C40.3727 19.2197 40.6667 19.0191 40.766 18.721C40.7754 18.7444 40.7861 18.7663 40.7955 18.7897C40.7485 19.2431 40.4291 19.5659 39.9688 19.5659Z" fill="#647A56"/>
<path d="M39.9688 19.2197C39.958 19.2197 39.9473 19.2197 39.9379 19.2197L35.9532 19.1194C35.4526 19.1071 34.9574 18.7952 34.7333 18.3831C34.7266 18.3721 34.7212 18.3611 34.7158 18.3487C34.7453 18.122 34.8769 17.9352 35.0836 17.8253L40.2842 18.0465C40.5043 18.1839 40.6868 18.3735 40.7955 18.5891C40.7901 18.6358 40.7794 18.6798 40.766 18.721C40.6667 19.0191 40.3727 19.2197 39.9688 19.2197" fill="#86AA75"/>
<path d="M74.3373 39.666C72.0491 39.666 69.7058 39.5561 67.2605 39.3679C67.1799 38.7126 67.086 37.9226 66.9826 37.0324C70.9485 36.7755 74.4608 36.1285 78.2737 34.6654C83.1885 32.7791 90.1043 30.9177 97.7046 29.7733C97.7449 31.9109 97.7408 33.9771 97.7381 35.6188C97.7368 35.7273 97.7368 35.8331 97.7368 35.9375C94.9198 36.3483 91.8423 36.961 88.5153 37.8691C83.7401 39.1728 79.1608 39.666 74.3373 39.666ZM66.9706 39.3445C60.8278 38.8596 54.0314 37.8993 45.8379 36.9953C52.2102 36.9953 57.2175 37.1822 61.5149 37.1822C63.3563 37.1822 65.0661 37.1478 66.6981 37.0503C66.7988 37.9199 66.8914 38.6961 66.9706 39.3445V39.3445ZM98.0213 35.8977C98.0213 35.8056 98.0213 35.7136 98.0227 35.6188C98.0254 33.896 98.0294 31.8353 97.9918 29.7307C102.578 29.0534 107.408 28.6385 112.194 28.6385C114.072 28.6385 115.941 28.7017 117.789 28.8391C117.16 29.7801 116.64 30.8022 116.248 31.8875C115.856 32.7558 115.528 33.7463 115.261 35.2479C113.649 35.2479 111.562 35.1517 109.023 35.1517C105.989 35.1517 102.311 35.2904 98.0213 35.8977" fill="#86AA75"/>
<path d="M67.2606 39.3679C67.164 39.3597 67.0673 39.3528 66.9707 39.3446C66.8915 38.6961 66.7989 37.92 66.6982 37.0503C66.7935 37.0448 66.8875 37.0393 66.9828 37.0325C67.0861 37.9227 67.1801 38.7126 67.2606 39.3679V39.3679ZM97.737 35.9375C97.737 35.8331 97.7369 35.7273 97.7383 35.6188C97.741 33.9771 97.745 31.911 97.7047 29.7733C97.8014 29.7582 97.8953 29.7445 97.992 29.7307C98.0295 31.8354 98.0255 33.8961 98.0228 35.6188C98.0215 35.7136 98.0215 35.8057 98.0215 35.8977C97.9275 35.9114 97.8323 35.9238 97.737 35.9375Z" fill="#708D60"/>
<path d="M116.248 31.8875C116.64 30.8021 117.159 29.78 117.789 28.839C117.8 28.839 117.81 28.8404 117.821 28.8404C117.216 30.0782 116.692 30.9052 116.248 31.8875Z" fill="#9EBB91"/>
<path d="M65.1211 16.6248C64.2715 13.2026 63.5428 9.92886 62.9268 6.74027C64.0125 5.62886 65.0996 4.51608 66.1854 3.40468C71.0142 3.73164 75.0325 4.18365 76.8671 4.59991L65.1211 16.6248Z" fill="#D9EDF4"/>
<path d="M75.7435 17.3994C73.2861 17.35 70.7951 17.295 68.3203 17.2373L79.3926 5.90346C80.579 6.69065 82.1882 7.80614 83.9182 9.03157C81.1937 11.8204 78.4693 14.6106 75.7435 17.3994Z" fill="#D9EDF4"/>
<path d="M37.0167 16.1726C37.014 16.1726 37.01 16.1726 37.006 16.1712C37.01 16.1726 37.014 16.1726 37.0167 16.1726ZM36.9805 16.1699C35.9887 16.108 35.1499 16.0448 34.507 15.9803C35.1499 16.0448 35.9887 16.108 36.9805 16.1699ZM34.503 15.9803C34.5003 15.9803 34.4963 15.9803 34.4936 15.9789C34.4963 15.9803 34.5003 15.9803 34.503 15.9803ZM34.3271 15.5915C34.3258 13.3824 38.5239 6.02708 40.3451 4.34555C38.5239 6.02708 34.3258 13.3824 34.3271 15.5915ZM40.3451 4.34555C40.3465 4.3428 40.3491 4.34142 40.3505 4.34005C40.3491 4.34142 40.3465 4.3428 40.3451 4.34555ZM40.3518 4.33867C40.3532 4.3373 40.3545 4.33592 40.3558 4.33455C40.3545 4.33592 40.3532 4.3373 40.3518 4.33867ZM40.3572 4.33317C40.3585 4.33317 40.3599 4.33042 40.3612 4.33042C40.3599 4.33042 40.3585 4.33317 40.3572 4.33317ZM40.3639 4.32767C40.3652 4.32767 40.3666 4.32495 40.3679 4.32495C40.3666 4.32495 40.3652 4.32767 40.3639 4.32767ZM40.3693 4.32358C40.3706 4.3222 40.3719 4.32083 40.3733 4.31945C40.3719 4.32083 40.3706 4.3222 40.3693 4.32358ZM40.3746 4.31808C40.3773 4.3167 40.3787 4.31533 40.38 4.31395C40.3787 4.31533 40.3773 4.3167 40.3746 4.31808ZM40.3814 4.31395C40.3827 4.3112 40.384 4.3112 40.3867 4.30845C40.384 4.3112 40.3827 4.31258 40.3814 4.31395ZM40.3867 4.30845C40.9799 3.81938 42.7099 3.44708 45.3297 3.21491C42.7099 3.44708 40.9799 3.81938 40.3867 4.30845ZM45.3471 3.21354C45.3498 3.21354 45.3511 3.21354 45.3538 3.21354C45.3511 3.21354 45.3498 3.21354 45.3471 3.21354ZM45.3739 3.21216C45.3753 3.21216 45.378 3.21079 45.3807 3.21079C45.378 3.21079 45.3753 3.21216 45.3739 3.21216ZM45.3995 3.20941C45.4021 3.20941 45.4048 3.20941 45.4062 3.20941C45.4048 3.20941 45.4021 3.20941 45.3995 3.20941ZM45.4249 3.20666C45.4276 3.20666 45.4303 3.20666 45.433 3.20666C45.4303 3.20666 45.4276 3.20666 45.4249 3.20666ZM45.4531 3.20391C45.4531 3.20391 45.4531 3.20391 45.4545 3.20391C45.4531 3.20391 45.4531 3.20391 45.4531 3.20391Z" fill="#BDBCBC"/>
<path d="M38.1817 16.2415C37.775 16.2181 37.3858 16.1947 37.0167 16.1728C37.014 16.1728 37.01 16.1728 37.006 16.1714C36.9979 16.1714 36.9885 16.17 36.9805 16.17C35.9887 16.1082 35.1499 16.045 34.507 15.9804C34.5056 15.9804 34.5043 15.9804 34.503 15.9804C34.5003 15.9804 34.4963 15.9804 34.4936 15.979C34.4882 15.979 34.4828 15.979 34.4775 15.9777L34.3862 15.9612C34.3728 15.9296 34.362 15.8939 34.354 15.8554C34.3365 15.7785 34.3271 15.6905 34.3271 15.5916C34.3258 13.3825 38.5239 6.02724 40.3451 4.3457C40.3465 4.34296 40.3491 4.34158 40.3505 4.3402C40.3505 4.3402 40.3518 4.3402 40.3518 4.33883C40.3532 4.33746 40.3545 4.33608 40.3558 4.3347C40.3572 4.3347 40.3572 4.3347 40.3572 4.33333C40.3585 4.33333 40.3599 4.33058 40.3612 4.33058C40.3626 4.3292 40.3626 4.3292 40.3639 4.32783C40.3652 4.32783 40.3666 4.32511 40.3679 4.32511C40.3679 4.32374 40.3693 4.32374 40.3693 4.32374C40.3706 4.32236 40.3719 4.32098 40.3733 4.31961C40.3746 4.31961 40.3746 4.31824 40.3746 4.31824C40.3773 4.31686 40.3787 4.31548 40.38 4.31411H40.3814C40.3827 4.31274 40.384 4.31136 40.3867 4.30861C40.9799 3.81954 42.7099 3.44724 45.3297 3.21507C45.3364 3.21507 45.3417 3.21507 45.3471 3.21369C45.3498 3.21369 45.3511 3.21369 45.3538 3.21369C45.3605 3.21232 45.3672 3.21232 45.3739 3.21232C45.3753 3.21232 45.378 3.21094 45.3807 3.21094C45.386 3.21094 45.3927 3.20957 45.3995 3.20957C45.4021 3.20957 45.4048 3.20957 45.4062 3.20957C45.4129 3.2082 45.4196 3.20819 45.4249 3.20682C45.4276 3.20682 45.4303 3.20682 45.433 3.20682C45.4397 3.20544 45.4464 3.20544 45.4531 3.20407C45.4531 3.20407 45.4531 3.20407 45.4545 3.20407C47.0529 3.06669 48.9761 2.98016 51.1678 2.94856L38.1817 16.2415" fill="#D9EDF4"/>
<path d="M55.6561 2.95508C55.632 2.95508 55.6092 2.95373 55.585 2.95373C55.6092 2.95373 55.632 2.95508 55.6561 2.95508ZM55.585 2.95373C55.4589 2.95105 55.3354 2.94974 55.2119 2.94839C55.3354 2.94974 55.4602 2.95105 55.585 2.95373Z" fill="#BDBCBC"/>
<path d="M43.3496 16.4841C42.131 16.4347 40.9714 16.3825 39.9004 16.3303C44.2636 11.8654 48.6254 7.3992 52.9872 2.93435C53.0341 2.93435 53.0798 2.93435 53.1268 2.93435C53.8018 2.93435 54.4957 2.93848 55.2124 2.9481C55.3359 2.94948 55.4593 2.95082 55.5855 2.95357C55.6096 2.95357 55.6325 2.95494 55.6566 2.95494C55.9519 2.95906 56.2498 2.96595 56.5505 2.97145L43.3496 16.4841Z" fill="#D9EDF4"/>
<path d="M63.6228 17.1233C62.729 17.1013 61.7653 17.0752 60.7507 17.0491C61.7653 17.0752 62.729 17.1013 63.6228 17.1233ZM60.7346 17.0477C60.7252 17.0477 60.7158 17.0477 60.7051 17.0477C60.7145 17.0477 60.7252 17.0477 60.7346 17.0477ZM63.5986 17.0299C63.596 17.0161 63.5919 17.001 63.5879 16.9873C63.5919 17.001 63.596 17.0161 63.5986 17.0299ZM63.5758 16.9378C63.5678 16.9035 63.5584 16.8719 63.5503 16.8375C63.5584 16.8719 63.5678 16.9048 63.5758 16.9378ZM63.549 16.8307C62.7907 13.844 62.125 10.9687 61.5425 8.15649C61.5425 8.15649 61.5425 8.15649 61.5439 8.15512C62.125 10.9687 62.7907 13.844 63.549 16.8307Z" fill="#BDBCBC"/>
<path d="M63.6229 17.1233C62.729 17.1013 61.7654 17.0752 60.7508 17.0491C60.7454 17.0477 60.7401 17.0477 60.7347 17.0477C60.7253 17.0477 60.7145 17.0477 60.7051 17.0477C58.3578 16.9845 55.738 16.9103 53.0713 16.8279C55.8951 13.9374 58.7188 11.047 61.5426 8.15649C62.1251 10.9687 62.7908 13.844 63.5491 16.8307C63.5491 16.8334 63.5504 16.8362 63.5504 16.8375C63.5585 16.8719 63.5678 16.9035 63.5759 16.9378C63.5799 16.9543 63.584 16.9708 63.588 16.9873C63.592 17.001 63.596 17.0161 63.5987 17.0299C63.6068 17.0615 63.6148 17.0917 63.6229 17.1233" fill="#D9EDF4"/>
<path d="M92.9629 17.5519C92.6381 19.2362 89.1795 19.956 87.5448 19.6263C85.9088 19.2966 84.8458 17.6645 85.1693 15.9803C85.4941 14.296 87.0831 13.1983 88.7178 13.528C90.3538 13.8578 93.2863 15.8676 92.9629 17.5519" fill="#547C3E"/>
<path d="M88.7754 16.593C88.4909 16.593 88.2292 16.571 88.0064 16.5257C87.1058 16.3444 86.4093 15.7042 86.0898 14.8881C86.5717 14.1628 87.3782 13.7108 88.2519 13.7108C88.4184 13.7108 88.5875 13.7259 88.7566 13.7603C89.7001 13.9512 91.1375 14.7865 91.9132 15.755C91.0891 16.3087 89.79 16.593 88.7754 16.593Z" fill="#AABE9F"/>
<g filter="url(#filter0_d)">
<path d="M51.803 40.9168L58.0052 29.0667C58.1457 28.7984 57.9465 28.4683 57.6694 28.5101L53.5439 29.1323L55.3344 20.974C55.3676 20.7804 55.1427 20.6695 55.0355 20.8266L48.1325 32.1745C47.9549 32.4346 48.143 32.8045 48.4355 32.7704L52.9839 32.2391L51.4928 40.7878C51.4568 40.994 51.7079 41.0985 51.803 40.9168Z" fill="#70AB13"/>
<path d="M50.0395 31.5412C49.9256 31.5513 49.85 31.4131 49.9105 31.3056L55.2753 20.7961C55.2075 20.7365 55.1007 20.7327 55.036 20.8274L48.1325 32.1741C47.9549 32.4343 48.143 32.8042 48.4355 32.77L52.9839 32.2388L51.4928 40.7875C51.4727 40.9028 51.5428 40.9839 51.6247 41.0033L54.1799 32.0316C54.2997 31.6111 53.9975 31.1898 53.6013 31.225L50.0395 31.5412Z" fill="#5A890F"/>
</g>
<defs>
<filter id="filter0_d" x="44.0635" y="20.752" width="17.988" height="28.2584" filterUnits="userSpaceOnUse" color-interpolation-filters="sRGB">
<feFlood flood-opacity="0" result="BackgroundImageFix"/>
<feColorMatrix in="SourceAlpha" type="matrix" values="0 0 0 0 0 0 0 0 0 0 0 0 0 0 0 0 0 0 127 0"/>
<feOffset dy="4"/>
<feGaussianBlur stdDeviation="2"/>
<feColorMatrix type="matrix" values="0 0 0 0 0 0 0 0 0 0 0 0 0 0 0 0 0 0 0.25 0"/>
<feBlend mode="normal" in2="BackgroundImageFix" result="effect1_dropShadow"/>
<feBlend mode="normal" in="SourceGraphic" in2="effect1_dropShadow" result="shape"/>
</filter>
</defs>
</svg>
