<svg width="80" height="50" viewBox="0 0 80 50" fill="none" xmlns="http://www.w3.org/2000/svg">
<ellipse rx="37" ry="7" transform="matrix(-0.982682 -0.1853 -0.1853 0.982682 37.8027 35.921)" fill="black" fill-opacity="0.2"/>
<path d="M48.9779 38.8561L46.6524 38.5776C45.368 38.4239 44.4366 37.383 44.5719 36.2527L43.8452 36.1657L46.7853 11.6088L47.5119 11.6958C47.6472 10.5655 48.7981 9.77397 50.0825 9.92774L52.408 10.2062C53.3305 10.3166 54.0694 10.8851 54.3632 11.6152C54.3964 11.6977 54.4818 11.7563 54.5796 11.768L54.5801 11.7681C54.678 11.7798 54.7747 11.7431 54.8265 11.6706C55.2843 11.0305 56.1366 10.6526 57.059 10.763L59.3846 11.0414C60.307 11.1519 61.046 11.7204 61.3398 12.4504C61.373 12.533 61.4583 12.5916 61.5562 12.6033L61.5566 12.6033C61.6544 12.6151 61.7511 12.5784 61.8029 12.5059C62.2608 11.8657 63.113 11.4878 64.0355 11.5982L66.361 11.8767C67.2835 11.9871 68.0224 12.5556 68.3162 13.2857C68.3495 13.3682 68.4348 13.4268 68.5326 13.4385L68.533 13.4386C68.6308 13.4503 68.7276 13.4136 68.7794 13.3411C69.2372 12.7009 70.0895 12.323 71.0119 12.4335C73.5805 12.741 75.4435 14.8227 75.1728 17.0831L72.7228 37.5474C72.4521 39.8079 70.1505 41.3909 67.5819 41.0834C66.6594 40.9729 65.9204 40.4045 65.6266 39.6744C65.5934 39.5918 65.5081 39.5332 65.4103 39.5215L65.4099 39.5215C65.312 39.5097 65.2153 39.5464 65.1635 39.6189C64.7057 40.2591 63.8534 40.637 62.9309 40.5266L60.6054 40.2481C59.6829 40.1377 58.944 39.5693 58.6502 38.8391C58.617 38.7566 58.5317 38.698 58.4338 38.6863L58.4334 38.6862C58.3356 38.6745 58.2389 38.7112 58.1871 38.7837C57.7292 39.4239 56.877 39.8018 55.9545 39.6913L53.629 39.4129C52.7065 39.3025 51.9675 38.734 51.6738 38.0039C51.6405 37.9213 51.5552 37.8627 51.4574 37.851L51.4568 37.8509C51.359 37.8392 51.2623 37.8759 51.2105 37.9484C50.7527 38.5886 49.9004 38.9665 48.9779 38.8561Z" fill="#D8E2F3"/>
<path d="M51.2104 37.9485C50.7525 38.5887 49.9003 38.9666 48.9778 38.8561L46.6523 38.5777C45.3679 38.4239 44.4364 37.3831 44.5718 36.2528L44.9239 33.3111C44.7886 34.4414 45.7201 35.4822 47.0045 35.636L49.33 35.9144C50.2525 36.0249 51.1047 35.647 51.5626 35.0068C51.6143 34.9344 51.7111 34.8976 51.8089 34.9093L51.8095 34.9094C51.9073 34.9211 51.9926 34.9796 52.0258 35.0623C52.3196 35.7924 53.0586 36.3608 53.981 36.4713L56.3066 36.7497C57.229 36.8601 58.0813 36.4822 58.5391 35.8421C58.5909 35.7697 58.6877 35.7329 58.7855 35.7446L58.786 35.7446C58.8839 35.7564 58.9692 35.8149 59.0024 35.8975C59.2962 36.6277 60.0352 37.1961 60.9576 37.3065L63.2832 37.5849C64.2056 37.6954 65.0579 37.3175 65.5157 36.6773C65.5675 36.6049 65.6642 36.5681 65.7621 36.5798L65.7626 36.5799C65.8605 36.5916 65.9458 36.6501 65.979 36.7328C66.2728 37.4629 67.0117 38.0313 67.9342 38.1418C70.5028 38.4493 72.8045 36.8662 73.0751 34.6058L72.7229 37.5475C72.4523 39.808 70.1506 41.391 67.582 41.0835C66.6595 40.973 65.9206 40.4046 65.6268 39.6745C65.5936 39.5919 65.5083 39.5333 65.4104 39.5216L65.4099 39.5215C65.3121 39.5098 65.2153 39.5465 65.1635 39.619C64.7057 40.2592 63.8534 40.6371 62.931 40.5266L60.6054 40.2482C59.683 40.1378 58.944 39.5694 58.6502 38.8392C58.617 38.7567 58.5317 38.698 58.4338 38.6863L58.4333 38.6863C58.3355 38.6746 58.2387 38.7113 58.1869 38.7838C57.7291 39.4239 56.8769 39.8018 55.9544 39.6914L53.6289 39.413C52.7064 39.3025 51.9674 38.7341 51.6736 38.004C51.6404 37.9214 51.5551 37.8628 51.4573 37.8511L51.4567 37.851C51.359 37.8393 51.2622 37.876 51.2104 37.9485Z" fill="#BACDEA"/>
<path d="M50.9489 32.8648L53.6064 10.6677C53.9507 10.9163 54.2147 11.2448 54.3639 11.6152C54.3971 11.6978 54.4824 11.7564 54.5803 11.7681L54.5808 11.7682C54.6786 11.7799 54.7754 11.7432 54.8272 11.6707C55.0594 11.3459 55.3937 11.089 55.7867 10.9287L53.1292 33.1258C53.0658 33.6556 52.5264 34.0266 51.9243 33.9545C51.322 33.8825 50.8855 33.3946 50.9489 32.8648Z" fill="#BACDEA"/>
<path d="M58.1873 38.784C57.955 39.1088 57.6208 39.3657 57.2276 39.5259L59.8852 17.3288C59.9486 16.7989 60.4879 16.4279 61.0901 16.5C61.6922 16.5721 62.1287 17.0599 62.0653 17.5898L59.4078 39.7868C59.0637 39.5384 58.7995 39.2099 58.6505 38.8394C58.6172 38.7569 58.5319 38.6983 58.4341 38.6866L58.4336 38.6865C58.336 38.6748 58.2391 38.7115 58.1873 38.784Z" fill="#BACDEA"/>
<path d="M64.902 34.5354L67.5596 12.3382C67.9038 12.5868 68.1679 12.9153 68.317 13.2857C68.3502 13.3683 68.4355 13.4269 68.5334 13.4386L68.5339 13.4387C68.6318 13.4504 68.7285 13.4137 68.7803 13.3412C69.0125 13.0164 69.3466 12.7595 69.7398 12.5992L67.0823 34.7963C67.0189 35.3261 66.4795 35.6971 65.8774 35.625C65.2751 35.553 64.8386 35.0651 64.902 34.5354Z" fill="#BACDEA"/>
<path d="M44.4495 37.276L47.6345 10.6726C47.7022 10.1075 47.2365 9.58712 46.5943 9.51023L32.6415 7.83974C31.9993 7.76286 31.4239 8.15871 31.3563 8.72371L30.6295 8.6367L27.4444 35.2402L28.1711 35.3272C28.1034 35.8924 28.5692 36.4127 29.2113 36.4896L43.1641 38.1601C43.8065 38.237 44.3818 37.8412 44.4495 37.276Z" fill="#62A4FB"/>
<path d="M28.1714 35.3271L27.4447 35.2401L27.7969 32.2984L28.5235 32.3854C28.4559 32.9505 28.9216 33.4709 29.5637 33.5478L43.5166 35.2183C44.1588 35.2952 44.7342 34.8994 44.8018 34.3343L44.4496 37.276C44.382 37.8411 43.8066 38.2368 43.1644 38.16L29.2116 36.4895C28.5695 36.4126 28.1037 35.8922 28.1714 35.3271Z" fill="#5392F9"/>
<path d="M10.4254 25.9373L11.8954 13.6587L7.09908 13.0845C5.89497 12.9403 4.81611 13.6824 4.68925 14.742L3.67861 23.1835C3.55174 24.2431 4.42493 25.2189 5.62905 25.363L10.4254 25.9373Z" fill="#EDF6FF"/>
<path d="M10.8066 15.6046L9.82661 23.7903L16.1651 24.5492L17.1451 16.3634L10.8066 15.6046Z" fill="#BACDEA"/>
<path d="M38.691 26.2727L39.4414 20.0055C39.5048 19.4757 39.0681 18.9878 38.4661 18.9157L35.9953 18.6199C35.3934 18.5478 34.8539 18.9189 34.7904 19.4486L34.0401 25.7159C33.9767 26.2456 34.4133 26.7335 35.0153 26.8056L37.4861 27.1014C38.0881 27.1735 38.6276 26.8025 38.691 26.2727Z" fill="#EDF6FF"/>
<path d="M16.3013 16.2622C16.9779 10.6112 22.7321 6.65334 29.1537 7.42216L30.3164 7.56136C30.9586 7.63825 31.4243 8.15873 31.3566 8.72374L28.1715 35.3273C28.1039 35.8924 27.5285 36.2881 26.8864 36.2112L25.7237 36.072C19.3021 35.3032 14.6448 30.0989 15.3213 24.4479L16.3013 16.2622Z" fill="#D8E2F3"/>
<path d="M10.4254 25.9373L11.8954 13.6587L7.09908 13.0845C5.89497 12.9403 4.81611 13.6824 4.68925 14.742L3.67861 23.1835C3.55174 24.2431 4.42493 25.2189 5.62905 25.363L10.4254 25.9373Z" fill="#EDF6FF"/>
<path d="M3.69371 23.0557L4.0459 20.114C3.91058 21.2443 4.84204 22.2851 6.12641 22.4389L10.7773 22.9957L10.4251 25.9374L5.77422 25.3806C4.48985 25.2268 3.55839 24.186 3.69371 23.0557Z" fill="#D8E2F3"/>
<path d="M11.5152 26.0678L12.9852 13.7892C13.0487 13.2594 12.6121 12.7716 12.01 12.6995C11.4079 12.6274 10.8685 12.9984 10.8051 13.5282L9.33505 25.8068C9.27161 26.3366 9.70814 26.8244 10.3103 26.8965C10.9123 26.9686 11.4517 26.5977 11.5152 26.0678Z" fill="#D8E2F3"/>
<path d="M15.3207 24.4478L15.6729 21.5061C14.9963 27.1571 19.6536 32.3614 26.0752 33.1303L27.2379 33.2695C27.8801 33.3463 28.4554 32.9506 28.5231 32.3855L28.1709 35.3272C28.1032 35.8923 27.5277 36.288 26.8857 36.2111L25.723 36.0719C19.3014 35.3031 14.6441 30.0989 15.3207 24.4478Z" fill="#BACDEA"/>
<path d="M34.0472 25.652L34.3994 22.7103C34.3318 23.2755 34.7976 23.7958 35.4396 23.8727L37.7651 24.1511C38.4073 24.228 38.9827 23.8323 39.0503 23.2672L38.6981 26.2089C38.6305 26.774 38.0551 27.1697 37.4129 27.0928L35.0874 26.8144C34.4452 26.7375 33.9796 26.2172 34.0472 25.652Z" fill="#D8E2F3"/>
<path d="M41.5266 13.055L42.0166 8.96216L44.1967 9.22317L43.7067 13.316C43.6433 13.8458 43.1039 14.2168 42.5018 14.1447C41.8998 14.0727 41.4632 13.5847 41.5266 13.055Z" fill="#5392F9"/>
<path d="M40.7667 37.8728L38.5866 37.6118L39.0766 33.519C39.14 32.9891 39.6793 32.6182 40.2815 32.6903C40.8836 32.7623 41.3201 33.2502 41.2567 33.78L40.7667 37.8728Z" fill="#5392F9"/>
</svg>
