<svg width="71" height="48" viewBox="0 0 71 48" fill="none" xmlns="http://www.w3.org/2000/svg">
<ellipse cx="35.265" cy="37.0001" rx="35.265" ry="11" fill="black" fill-opacity="0.2"/>
<path d="M63.757 7.53451C70.8646 19.6244 66.7144 30.7031 63.1559 34.453L61.4491 34.1059C60.7072 25.7237 59.5243 8.48117 60.7279 6.56906C61.9316 4.65696 62.8138 6.42737 63.757 7.53451Z" fill="#C1C1C1"/>
<path fill-rule="evenodd" clip-rule="evenodd" d="M60.044 6.98212C60.1057 6.73079 60.187 6.48997 60.3049 6.30267C60.6285 5.78852 60.9899 5.42068 61.4237 5.28145C61.8917 5.13121 62.3075 5.28647 62.6268 5.50982C62.9345 5.72506 63.2087 6.04011 63.4451 6.33473C63.5491 6.46432 63.6437 6.58695 63.7348 6.70511C63.8702 6.88064 63.998 7.0463 64.1377 7.21023L64.166 7.24345L64.1881 7.28107C71.4131 19.5706 67.2246 30.892 63.5187 34.7972L63.328 34.9982L60.984 34.5215L60.9511 34.15C60.5798 29.9542 60.0979 23.5399 59.8595 17.9324C59.7403 15.1297 59.6816 12.5206 59.7287 10.488C59.7523 9.47264 59.8024 8.59123 59.8867 7.89721C59.9287 7.55036 59.9803 7.24169 60.044 6.98212ZM61.9146 33.6903L62.979 33.9068C66.346 30.126 70.1818 19.4855 63.3476 7.82463C63.2062 7.65648 63.057 7.46362 62.9163 7.2817C62.8279 7.1674 62.7429 7.05742 62.6652 6.96059C62.4333 6.67163 62.2348 6.45599 62.0536 6.32925C61.884 6.21062 61.7947 6.2126 61.7293 6.23359C61.6296 6.26559 61.4294 6.39348 61.1512 6.83539C61.1186 6.88711 61.0681 7.00506 61.0152 7.22047C60.9644 7.42764 60.9187 7.69367 60.8794 8.01766C60.8008 8.66532 60.7517 9.51017 60.7285 10.5112C60.6821 12.5113 60.7397 15.0952 60.8586 17.8899C61.0892 23.3145 61.5489 29.5032 61.9146 33.6903Z" fill="black"/>
<path d="M31.4428 35.2837C18.2918 41.7662 14.5556 38.7295 10.8228 35.8237C14.4503 29.7214 16.9903 13.6785 17.0909 5.88364C22.9022 3.38083 25.6805 9.73373 28.8359 10.5387C43.6925 14.3288 48.1167 8.72792 52.3277 4.96085C66.4472 -7.67014 74.0933 43.178 53.1274 35.4994C48.3804 33.7608 38.0542 33.4129 31.4428 35.2837Z" fill="#FF5939"/>
<path fill-rule="evenodd" clip-rule="evenodd" d="M10.168 35.9473L10.3933 35.5682C12.1582 32.5993 13.688 27.1407 14.7887 21.3943C15.886 15.6661 16.5415 9.73715 16.5913 5.87721L16.5955 5.55279L16.8935 5.42445C18.4379 4.75931 19.809 4.67337 21.0451 4.95439C22.27 5.23285 23.3266 5.86351 24.2617 6.57231C24.8644 7.0291 25.4478 7.54484 25.992 8.02586C26.2761 8.27695 26.5494 8.51857 26.8092 8.73742C27.6016 9.40494 28.2912 9.88368 28.9598 10.0543C36.3186 11.9316 41.0249 11.4664 44.3883 10.1196C47.2326 8.9806 49.153 7.20517 50.9658 5.5291C51.3108 5.21019 51.6518 4.89487 51.9946 4.58822C53.829 2.94728 55.628 2.27787 57.3306 2.46452C59.024 2.65014 60.5069 3.67037 61.7432 5.16492C64.2066 8.14282 65.8493 13.1863 66.3822 18.3214C66.9151 23.4561 66.3526 28.8202 64.2665 32.4405C63.2171 34.2619 61.7675 35.6647 59.8599 36.3447C57.9527 37.0245 55.6554 36.9576 52.9558 35.9689C50.6583 35.1274 46.954 34.608 42.9758 34.538C39.0219 34.4683 34.8598 34.8438 31.6229 35.7525C25.0385 38.9931 20.7262 39.8973 17.5503 39.5717C14.4079 39.2496 12.4525 37.7266 10.6216 36.3005C10.5864 36.273 10.5512 36.2456 10.516 36.2182L10.168 35.9473ZM11.4727 35.6955C13.2215 37.0523 14.9427 38.2992 17.6523 38.5769C20.5588 38.8749 24.6788 38.0606 31.2221 34.8352L31.2631 34.815L31.307 34.8026C34.6754 33.8495 38.9624 33.4671 42.9934 33.5381C47.0179 33.609 50.8502 34.1328 53.2997 35.0299C55.8416 35.9608 57.8916 35.9846 59.5241 35.4027C61.1562 34.821 62.4387 33.6098 63.4001 31.9413C65.3358 28.5819 65.9104 23.4632 65.3876 18.4246C64.8647 13.3863 63.2589 8.56602 60.9727 5.80232C59.8342 4.42607 58.5671 3.60605 57.2216 3.45856C55.8855 3.3121 54.3569 3.81672 52.6614 5.33352C52.3375 5.62323 52.0094 5.92712 51.6724 6.23917C49.8591 7.91857 47.7905 9.83441 44.7601 11.0479C41.1445 12.4957 36.2104 12.936 28.7126 11.0232C27.8035 10.7913 26.9625 10.1741 26.165 9.50223C25.8669 9.25118 25.5761 8.99376 25.2842 8.73548C24.7608 8.27229 24.2343 7.80631 23.6577 7.36925C22.7774 6.70205 21.8526 6.16346 20.8235 5.92951C19.8804 5.71511 18.8192 5.7496 17.5856 6.22219C17.5032 10.1571 16.845 15.9749 15.7709 21.5825C14.7131 27.1042 13.2379 32.501 11.4727 35.6955Z" fill="black"/>
<path d="M12.4375 32.6469C12.2038 33.6978 10.9535 35.8201 10.9535 35.8201C15.3661 39.7528 19.5252 38.9907 20.9574 38.8227C21.5756 38.4931 21.579 35.9635 21.5059 34.8336C15.4641 35.5142 13.1208 33.8044 12.4375 32.6469Z" fill="#CE3E23"/>
<path d="M22.7958 19.2589C19.2821 16.739 16.6557 17.5175 15.9768 18.1883C17.2388 10.5284 17.2474 6.86695 17.2216 5.87967C20.3264 4.75359 22.8455 6.19796 23.5117 6.7029C24.3569 15.0389 23.3866 18.5469 22.7958 19.2589Z" fill="#CE3E23"/>
<path d="M36.6761 30.649L30.2806 35.7791C33.8884 33.9131 41.9775 33.6142 45.6443 33.997L36.6761 30.649Z" fill="#CE3E23"/>
<path d="M40.9424 24.0075C39.9038 24.2436 33.1364 15.1705 29.8937 11.0328C42.106 13.5861 46.3273 10.2107 49.525 7.64561C49.9712 9.72346 42.2406 23.7123 40.9424 24.0075Z" fill="#CE3E23"/>
<path d="M54.9495 10.3199C53.0715 14.5824 45.7164 21.7929 42.0069 24.7632C49.2845 23.3972 58.0338 15.4629 58.3666 11.1445C58.659 7.3496 57.0451 5.56352 54.9495 10.3199Z" fill="#CE3E23"/>
<path d="M24.0468 7.98875C22.2323 9.90082 30.3958 16.0486 34.9168 19.1291C33.5656 17.4036 28.1916 11.6675 27.6696 11.6812C25.5473 10.4308 24.1807 8.11584 24.0468 7.98875Z" fill="white" fill-opacity="0.3"/>
<path d="M43.4952 31.7029C44.7399 31.3568 52.5034 33.2518 56.2295 34.2425C61.6315 36.0598 61.3978 32.6705 63.2878 29.4868C66.6899 23.756 60.3004 25.1248 56.6804 26.5256C52.853 27.984 45.8997 28.7668 42.9014 28.9759C36.1356 29.9367 41.9394 32.1354 43.4952 31.7029Z" fill="white" fill-opacity="0.3"/>
<path d="M42.7237 22.1895C39.4702 25.618 41.9931 24.2111 43.6612 23.0791C44.3865 22.8512 50.3385 15.4168 53.5501 11.7195C58.3317 4.80329 55.0203 5.35515 53.0082 5.98747C51.1948 6.55735 46.77 17.1209 42.7237 22.1895Z" fill="white" fill-opacity="0.3"/>
<path d="M19.4391 19.4594C21.2396 19.7299 22.2663 22.8305 21.7322 26.3848C21.1982 29.939 19.3057 32.601 17.5052 32.3305C15.7047 32.0599 14.678 28.9593 15.2121 25.4051C15.7461 21.8509 17.6386 19.1889 19.4391 19.4594Z" fill="white" fill-opacity="0.3"/>
<path d="M9.08179 33.9513C3.9721 27.4248 10.6615 -0.306176 14.6767 8.4692C17.172 24.0033 11.9865 31.9298 9.08179 33.9513Z" fill="#E9E9E9"/>
<path fill-rule="evenodd" clip-rule="evenodd" d="M9.19225 33.2368C11.9554 30.927 16.5286 23.2643 14.1936 8.61647C13.7134 7.5918 13.2834 7.30665 13.0123 7.27316C12.7418 7.23976 12.3264 7.42235 11.7882 8.13278C10.7442 9.51091 9.70957 12.2693 8.94426 15.5845C8.18387 18.8784 7.70706 22.6429 7.73536 25.9781C7.74951 27.6455 7.88985 29.1936 8.17863 30.5159C8.41892 31.6162 8.75692 32.5365 9.19225 33.2368ZM13.1349 6.2807C13.9728 6.38419 14.6187 7.1415 15.131 8.26114L15.1593 8.32286L15.17 8.38987C17.6839 24.0391 12.4831 32.1931 9.36707 34.3617L8.97913 34.6317L8.68776 34.2595C7.98443 33.3612 7.50813 32.1327 7.20165 30.7293C6.89392 29.3201 6.74993 27.6996 6.73539 25.9865C6.70633 22.5608 7.19475 18.7173 7.96989 15.3595C8.74012 12.0231 9.81135 9.08622 10.9911 7.52892C11.5649 6.77163 12.2909 6.17647 13.1349 6.2807Z" fill="black"/>
<path d="M9.28453 7.00316C3.68434 15.8996 4.37805 24.1091 5.46934 30.8715C5.85694 33.2733 6.52972 34.822 7.29469 35.7449C7.85471 35.7566 8.5037 35.0765 9.18143 33.9085C4.07175 27.3819 10.7611 -0.349015 14.7763 8.42636C14.5818 6.21706 13.9926 4.65682 12.8683 4.22017C11.5397 4.61746 10.1871 5.56938 9.28453 7.00316Z" fill="#989898"/>
<path fill-rule="evenodd" clip-rule="evenodd" d="M9.70809 7.26952C4.20665 16.0091 4.87806 24.0665 5.96337 30.7918C6.30912 32.9343 6.8786 34.3286 7.49524 35.1862C7.58437 35.1386 7.69973 35.0555 7.84213 34.9142C8.06812 34.6899 8.31704 34.3631 8.58262 33.9356C7.99066 33.0693 7.57767 31.9486 7.30205 30.6865C6.99431 29.2773 6.85032 27.6567 6.83579 25.9437C6.80672 22.518 7.29514 18.6745 8.07028 15.3167C8.84051 11.9803 9.91174 9.04341 11.0915 7.4861C11.6653 6.72881 12.3913 6.13365 13.2352 6.23788C13.4869 6.26896 13.7213 6.35904 13.9399 6.5002C13.8724 6.26602 13.7967 6.05138 13.7126 5.85722C13.4662 5.28825 13.1678 4.9368 12.836 4.75534C11.678 5.14794 10.505 6.00358 9.70809 7.26952ZM4.97614 30.9512C3.87888 24.1517 3.16288 15.7901 8.86181 6.73679C9.8296 5.19935 11.2823 4.17267 12.7255 3.74113L12.8898 3.69198L13.0498 3.75409C13.7826 4.03873 14.2885 4.67075 14.6302 5.45982C14.9722 6.24941 15.1752 7.25101 15.2748 8.38251L14.3221 8.63439C13.8306 7.56019 13.3891 7.26448 13.1127 7.23034C12.8422 7.19694 12.4268 7.37953 11.8886 8.08996C10.8446 9.46809 9.80996 12.2265 9.04466 15.5417C8.28426 18.8355 7.80745 22.6 7.83575 25.9352C7.8499 27.6027 7.99024 29.1508 8.27902 30.4731C8.56906 31.8012 9.00145 32.867 9.57555 33.6003L9.78416 33.8667L9.61432 34.1594C9.26506 34.7614 8.90777 35.2655 8.54654 35.624C8.19773 35.9702 7.76992 36.2549 7.2847 36.2448L7.05608 36.2401L6.91016 36.064C6.06644 35.0461 5.37129 33.3997 4.97614 30.9512Z" fill="black"/>
<path d="M11.2191 35.9445C16.185 26.0981 17.2242 12.5847 17.123 7.05881C17.1617 4.40798 15.0478 3.56859 12.8695 4.21991C18.4109 6.37212 10.9546 35.8209 7.29592 35.7447C8.68472 37.4202 10.3774 37.0333 11.2191 35.9445Z" fill="#C1C1C1"/>
<path fill-rule="evenodd" clip-rule="evenodd" d="M6.21274 35.2221L7.3058 35.2448C7.36377 35.246 7.49239 35.2173 7.70155 35.0429C7.90591 34.8725 8.14064 34.6009 8.3986 34.2199C8.91328 33.4599 9.46764 32.3443 10.0256 30.9661C11.139 28.2159 12.2333 24.5038 13.0433 20.7135C13.8538 16.9208 14.3731 13.0798 14.3504 10.0681C14.3391 8.55942 14.1916 7.2892 13.8938 6.34614C13.5922 5.39115 13.171 4.87362 12.688 4.68602L11.3295 4.15839L12.7258 3.74089C13.9021 3.38917 15.127 3.4192 16.0772 3.96813C17.0549 4.53295 17.6417 5.58871 17.6225 7.05774C17.7232 12.6221 16.6819 26.2223 11.665 36.1697L11.6434 36.2125L11.6141 36.2504C11.1147 36.8964 10.3489 37.352 9.47878 37.381C8.59492 37.4104 7.68472 36.9979 6.91043 36.0638L6.21274 35.2221ZM10.7947 35.6745C15.6879 25.9377 16.7229 12.5521 16.6225 7.06799L16.6224 7.05976L16.6225 7.05153C16.6397 5.87412 16.1892 5.18771 15.577 4.83403C15.17 4.5989 14.6504 4.48718 14.0691 4.5134C14.4093 4.92858 14.6618 5.45744 14.8474 6.04499C15.1881 7.12405 15.3387 8.50702 15.3504 10.0606C15.3738 13.1736 14.8394 17.0934 14.0212 20.9225C13.2024 24.7539 12.093 28.5242 10.9525 31.3414C10.3835 32.747 9.79834 33.9364 9.2266 34.7806C8.94136 35.2019 8.64615 35.5572 8.34203 35.8109C8.29293 35.8518 8.24225 35.8912 8.19005 35.9285C8.63442 36.276 9.0689 36.3941 9.44548 36.3815C9.96477 36.3642 10.4535 36.0966 10.7947 35.6745Z" fill="black"/>
<path d="M13.2355 9.66122C14.3599 9.92449 14.6874 12.6321 13.967 15.7089C13.2466 18.7856 11.7511 21.0664 10.6267 20.8031C9.50231 20.5398 9.17482 17.8322 9.89522 14.7555C10.6156 11.6787 12.1111 9.39796 13.2355 9.66122Z" fill="#6C6C6C"/>
<path d="M6.42138 27.3202C15.9189 15.9709 12.0938 9.5412 3.83581 23.3394C1.68552 26.0077 4.91001 29.4493 6.42138 27.3202Z" fill="#C2C2C2"/>
<path fill-rule="evenodd" clip-rule="evenodd" d="M3.42459 23.0537C5.49409 19.6002 7.30867 17.3707 8.73674 16.1626C9.44675 15.5619 10.1044 15.1764 10.684 15.0537C10.9804 14.9909 11.2789 14.9923 11.5555 15.0926C11.8383 15.1951 12.0592 15.3874 12.2131 15.6373C12.5053 16.1118 12.5498 16.7769 12.4502 17.503C12.3478 18.249 12.0809 19.1484 11.6456 20.1664C10.7755 22.2014 9.20825 24.7673 6.81741 27.6266C6.34155 28.286 5.685 28.5581 5.01097 28.4671C4.36649 28.3802 3.78169 27.9729 3.3622 27.437C2.5206 26.3619 2.20759 24.5898 3.42459 23.0537ZM5.14471 27.4761C5.42741 27.5143 5.73523 27.4236 6.01411 27.0308L6.02562 27.0146L6.03838 26.9993C8.38947 24.1898 9.90179 21.7013 10.7261 19.7733C11.1388 18.8081 11.373 17.9977 11.4595 17.367C11.5488 16.7164 11.4701 16.3379 11.3616 16.1617C11.3152 16.0863 11.2664 16.0515 11.2145 16.0326C11.1563 16.0115 11.0552 15.9972 10.8912 16.032C10.5499 16.1042 10.0441 16.3664 9.38261 16.926C8.07171 18.035 6.31757 20.1671 4.26529 23.5962L4.24742 23.6261L4.22557 23.6532C3.31842 24.7788 3.54385 26.0467 4.14964 26.8206C4.45642 27.2125 4.82673 27.4332 5.14471 27.4761Z" fill="black"/>
<path d="M5.65636 23.0308C6.23298 23.0157 6.71878 23.7046 6.74143 24.5695C6.76408 25.4345 6.315 26.1479 5.73839 26.163C5.16177 26.1781 4.67597 25.4892 4.65332 24.6242C4.63067 23.7593 5.07975 23.0459 5.65636 23.0308Z" fill="#989898"/>
<path fill-rule="evenodd" clip-rule="evenodd" d="M5.54746 23.9972C5.54749 23.997 5.54918 23.9982 5.55245 24.0013C5.54906 23.999 5.54743 23.9974 5.54746 23.9972ZM5.68853 24.2591C5.6647 24.3529 5.64955 24.467 5.65298 24.5981C5.65641 24.7291 5.67752 24.8423 5.70622 24.9347C5.73005 24.8409 5.7452 24.7268 5.74177 24.5957C5.73834 24.4646 5.71723 24.3515 5.68853 24.2591ZM5.57905 25.2036C5.57901 25.2034 5.58056 25.2018 5.58382 25.1992C5.58072 25.2025 5.57909 25.2038 5.57905 25.2036ZM5.84729 25.1965C5.84726 25.1967 5.84557 25.1956 5.8423 25.1925C5.84569 25.1948 5.84732 25.1964 5.84729 25.1965ZM5.81093 23.9945C5.81403 23.9913 5.81566 23.99 5.8157 23.9902C5.81574 23.9904 5.81419 23.992 5.81093 23.9945ZM6.74143 24.5695C6.71878 23.7046 6.23298 23.0157 5.65636 23.0308C5.07975 23.0459 4.63067 23.7593 4.65332 24.6242C4.67597 25.4892 5.16177 26.1781 5.73839 26.163C6.315 26.1479 6.76408 25.4345 6.74143 24.5695Z" fill="black"/>
</svg>
