<svg width="70" height="48" viewBox="0 0 70 48" fill="none" xmlns="http://www.w3.org/2000/svg">
<mask id="mask0" mask-type="alpha" maskUnits="userSpaceOnUse" x="0" y="0" width="70" height="48">
<rect x="0.400391" y="0.699951" width="68.65" height="47" fill="#C4C4C4"/>
</mask>
<g mask="url(#mask0)">
<path d="M22.7351 26.7054C-12.7305 32.4843 -1.03123 65.3641 23.6535 59.0438C24.8919 58.726 25.8104 57.7048 25.7431 56.4298C25.6631 54.9531 24.3064 53.7319 22.8696 54.0747C0.77038 59.3891 0.367146 33.0481 23.7143 32.6284C25.3463 32.5964 26.4215 30.8377 26.1751 29.22C25.9255 27.5703 24.3799 26.4395 22.7351 26.7054Z" fill="#D49256"/>
<path d="M14.0215 27.9289C16.7863 27.1024 19.884 26.4009 23.3592 25.8339C25.4168 25.5008 27.356 26.9167 27.6696 28.9828C27.9736 31.0074 26.6039 32.907 24.5847 33.2498C21.4487 33.7815 18.5687 34.3613 15.9703 35.0757L14.0215 27.9289Z" fill="#7888CD"/>
<path d="M36.2008 27.399C37.628 26.6014 39.4264 27.0979 40.252 28.5105C44.2621 35.3541 46.4234 39 49.2117 42C52 45 53.5 46.5 56.2191 48.8111C57.5806 49.9682 59.5 52 59.5 52L55 55L48.841 49.5358L45.5 46.5718C42.6222 43.4922 39.1905 38.6217 35.0584 31.5089C34.2232 30.0674 34.748 28.2126 36.2008 27.399Z" fill="#D49256"/>
<path d="M39.2656 39.2432C37.5184 36.9399 35.7744 34.2844 34.0272 31.2284C32.9904 29.4153 33.6368 27.0992 35.4576 26.0806C37.2432 25.0843 39.5024 25.7026 40.5296 27.474C42.1296 30.2289 43.6816 32.7211 45.2656 34.909L39.2656 39.2432Z" fill="#6D7EC7"/>
<path d="M26.3819 25.2768L34.5067 25.0333C37.918 24.9308 40.766 27.6184 40.8684 31.0332L41.7388 60.1813L21.521 60.7832L20.6442 31.3759C20.5482 28.1053 23.1147 25.3729 26.3819 25.2768Z" fill="#7888CD"/>
<path d="M30.4308 29.2425C32.2612 29.4251 33.8932 28.0925 34.0788 26.2634L34.5428 21.6537C34.7284 19.8246 33.394 18.1908 31.5668 18.005C29.7364 17.8193 28.1043 19.1551 27.9219 20.9842L27.4547 25.5907C27.2691 27.423 28.6036 29.0567 30.4308 29.2425Z" fill="#D49256"/>
<path d="M33.5503 1.43705C37.9727 1.69972 41.2879 5.60144 40.8335 10.0157L40.0527 17.534C39.6399 21.5029 36.1775 24.4468 32.1967 24.2098C28.2158 23.9727 25.1247 20.6412 25.1855 16.6498L25.3006 9.0899C25.3742 4.65323 29.1246 1.17437 33.5503 1.43705Z" fill="#D49256"/>
<path d="M32.965 18.8698C32.645 18.8474 32.3795 19.1965 32.4339 19.581C32.6227 20.8687 33.5123 21.8682 34.6387 21.9419L35.2114 21.9771C36.341 22.0508 37.349 21.1731 37.701 19.9205C37.8066 19.5489 37.5891 19.1677 37.2691 19.1453L32.965 18.8698Z" fill="white"/>
<path d="M24.8694 18.5911C24.4086 18.5655 24.0598 18.1683 24.0886 17.7102L24.7734 6.17798L26.4341 6.27726L25.7494 17.8095C25.7206 18.2676 25.327 18.62 24.8694 18.5911Z" fill="#3C3532"/>
<path d="M25.3323 16.4641L26.577 16.541L26.7915 12.9276L25.5466 12.8507C24.5514 12.793 23.6938 13.5522 23.6362 14.5517C23.5754 15.5479 24.3339 16.4065 25.3323 16.4641Z" fill="#D49256"/>
<path d="M35.5114 12.1522L35.2106 17.1783C35.1882 17.5339 35.4058 17.8638 35.745 17.9824L36.6218 18.2931C37.2234 18.5077 37.7962 17.9087 37.5626 17.316L35.5114 12.1522Z" fill="#BB7F46"/>
<path d="M27.6397 10.7077C26.7213 10.6533 26.0238 9.86522 26.0782 8.94584L26.3213 4.84229L29.6429 5.0409L29.3997 9.14445C29.3453 10.0638 28.5581 10.7622 27.6397 10.7077Z" fill="#3C3532"/>
<path d="M26.5898 14.1864C26.9354 14.2088 27.2331 13.9429 27.2523 13.597L27.5979 7.81159L26.3466 7.73792L26.001 13.5233C25.9818 13.8693 26.2442 14.1672 26.5898 14.1864Z" fill="#3C3532"/>
<path d="M24.6576 8.36902L27.0544 8.50995L26.792 12.9019L24.3984 12.7609L24.6576 8.36902Z" fill="#3C3532"/>
<path d="M37.1344 11.7454L39.8288 12.7256L40.12 12.591L39.9984 12.306L37.3712 11.1367L37.0672 11.268L37 11.4571L37.1344 11.7454Z" fill="#3C3532"/>
<path d="M33.8898 11.3579L31.0801 11.9216L30.8145 11.7455L30.9745 11.4828L33.7458 10.7236L34.0274 10.8966L34.069 11.092L33.8898 11.3579Z" fill="#3C3532"/>
<path d="M37.931 14.2409C37.9022 14.7566 38.0686 15.189 38.3022 15.2019C38.539 15.2147 38.7533 14.8079 38.7853 14.289C38.8141 13.7732 38.6477 13.344 38.4141 13.328C38.1774 13.3152 37.963 13.722 37.931 14.2409Z" fill="#3C3532"/>
<path d="M32.8077 13.9335C32.7757 14.4524 32.9421 14.8816 33.1757 14.8977C33.4124 14.9105 33.6268 14.5037 33.6588 13.9847C33.6876 13.469 33.5244 13.0366 33.2876 13.0238C33.054 13.0078 32.8364 13.4178 32.8077 13.9335Z" fill="#3C3532"/>
<path d="M43.7682 4.8518L26.9651 3.84914C25.8355 3.78187 24.866 4.64358 24.7956 5.77437L24.6611 8.07437L40.7859 9.03538C42.7379 9.15391 44.4146 7.66434 44.5298 5.71028C44.5554 5.26181 44.2162 4.87743 43.7682 4.8518Z" fill="#3C3532"/>
<path d="M38.6449 1.27692L30.1681 0.770808C28.2929 0.658692 26.6833 2.09057 26.5713 3.96771L26.5586 4.16631L42.0241 5.08887C42.1425 3.10281 40.6289 1.39544 38.6449 1.27692Z" fill="#3C3532"/>
<path d="M27.5891 24.2548C27.5891 24.2548 27.5186 25.4272 28.885 26.9328C30.5906 28.8196 31.9378 29.0438 31.9378 29.0438L30.1394 32.4233C30.1394 32.4233 27.3682 30.1842 26.6866 28.3391C26.005 26.4939 26.3826 25.2767 26.3826 25.2767L27.5891 24.2548Z" fill="#8FA0D8"/>
<path d="M34.2543 24.5046L34.8814 25.0364C34.8814 25.0364 36.267 26.8367 35.6271 28.6946C34.9871 30.5526 33.8127 32.3433 33.8127 32.3433L31.9375 29.0438C31.9375 29.0438 33.2783 28.2109 33.6623 27.2627C34.0079 26.4234 34.2543 24.5046 34.2543 24.5046Z" fill="#8FA0D8"/>
<path d="M29.2786 32.7308L31.6595 31.7473L31.5123 29.9694L29.0002 29.3993C28.5937 29.3064 28.2161 29.6363 28.2513 30.0495L28.4337 32.215C28.4689 32.6283 28.8946 32.8909 29.2786 32.7308Z" fill="#EF4331"/>
<path d="M34.8751 32.2601L32.3662 31.6899L32.2158 29.9121L34.5966 28.9286C34.9806 28.7716 35.4094 29.0311 35.4446 29.4475L35.6238 31.6098C35.659 32.023 35.2815 32.353 34.8751 32.2601Z" fill="#EF4331"/>
<path d="M32.0341 31.978C31.5284 32.0197 31.0836 31.6449 31.042 31.1356L31.0036 30.6775C30.9588 30.1714 31.3364 29.7229 31.842 29.6813C32.3508 29.6396 32.7957 30.0144 32.8373 30.5237L32.8758 30.9818C32.9174 31.4911 32.5429 31.9364 32.0341 31.978Z" fill="#D23622"/>
</g>
</svg>
