<svg width="73" height="122" viewBox="0 0 73 122" fill="none" xmlns="http://www.w3.org/2000/svg">
<mask id="mask0" mask-type="alpha" maskUnits="userSpaceOnUse" x="0" y="0" width="73" height="122">
<rect x="0.599609" width="71.42" height="121.8" fill="#C4C4C4"/>
</mask>
<g mask="url(#mask0)">
<path d="M43.582 74.6803V76.25H45.0668V74.6739C45.0668 72.659 46.6989 71.0221 48.7149 71.0221H52.1772C54.1932 71.0221 55.8253 72.659 55.8253 74.6739V76.25H57.3101V74.6803C57.3101 71.7493 54.9356 69.3755 52.0108 69.3755H48.8812C45.9564 69.3755 43.582 71.7493 43.582 74.6803Z" fill="#405564"/>
<path d="M63.7615 127.997H39.5088V75.7822H63.7615C68.3183 75.7822 72.0143 79.4789 72.0143 84.0437V119.736C72.0143 124.297 68.3183 127.997 63.7615 127.997Z" fill="#412B29"/>
<path d="M40.8591 127.997H35.7615C31.2047 127.997 27.5088 124.297 27.5088 119.736V84.0437C27.5088 79.4789 31.2047 75.7822 35.7615 75.7822H40.8591C45.4159 75.7822 49.1086 79.4789 49.1086 84.0437V119.736C49.1086 124.297 45.4159 127.997 40.8591 127.997Z" fill="#4F3532"/>
<path d="M7.71643 74.1804L7.13082 73.7415L5.82851 69.3721C5.72931 69.0454 5.91491 68.7058 6.23811 68.6065C6.5645 68.5072 6.90686 68.6962 7.00286 69.0197L8.30525 73.3892C8.40125 73.7159 8.21884 74.0587 7.89245 74.1548L7.71643 74.1804Z" fill="#FBC89A"/>
<path d="M18.417 28.7758C0.88097 44.687 0.960982 51.8658 1.86978 66.8448C1.94658 68.1197 2.96736 69.1352 4.24096 69.2025C5.71616 69.2858 6.94497 68.0749 6.88737 66.5981C6.18337 48.9027 11.8986 42.9187 22.4554 33.2093C23.6586 32.1041 23.7546 30.2334 22.6698 29.0097C21.5658 27.7635 19.6522 27.6546 18.417 28.7758Z" fill="#FBC89A"/>
<path d="M0.808268 66.1943C0.0850733 51.2025 0.309084 43.902 17.301 28.5033C19.1314 26.844 22.0113 27.2188 23.3617 29.2882C24.4497 30.9475 24.1618 33.1515 22.693 34.4841C12.4658 43.7354 7.26588 47.8037 8.22908 65.9925C8.24828 66.3192 7.99548 66.5947 7.66908 66.6011L1.39389 66.7421C1.08349 66.7485 0.821068 66.505 0.808268 66.1943Z" fill="#440F11"/>
<path d="M15.2401 114.098C13.9121 114.098 12.8369 115.174 12.8369 116.503V116.868H17.64V116.503C17.64 115.174 16.5648 114.098 15.2401 114.098Z" fill="#FBC89A"/>
<path d="M17.6657 116.868H12.8368L2.88477 119.985H18.5457L17.6657 116.868Z" fill="#440F11"/>
<path d="M18.5452 119.986H2.8843L2.78516 120.082V121.792L2.8843 121.888L18.5452 121.892L18.6411 121.792V120.082L18.5452 119.986Z" fill="#440F11"/>
<path d="M12.8363 116.868C11.2043 93.724 13.5051 79.139 18.7691 63.6218C19.5307 61.3699 22.0044 60.1942 24.2348 61.0079C26.4268 61.8055 27.5628 64.2241 26.7852 66.4216C21.2204 82.1438 17.6395 97.4367 17.6395 116.868H12.8363Z" fill="#412771"/>
<path d="M12.7273 115.158H17.5593L18.0425 115.642V116.382L17.5593 116.868H12.7273L12.2441 116.382V115.642L12.7273 115.158Z" fill="#311F50"/>
<path d="M27.1984 116.853H32.0271L35.1984 119.973H26.3184L27.1984 116.853Z" fill="#440F11"/>
<path d="M26.3187 119.973H35.1987L35.2979 120.069V121.779L35.1987 121.875H26.3187L26.2227 121.779V120.069L26.3187 119.973Z" fill="#440F11"/>
<path d="M29.5888 114.085C30.9136 114.085 31.9888 115.161 31.9888 116.487V116.853H27.1855V116.487C27.1855 115.161 28.2608 114.085 29.5888 114.085Z" fill="#FBC89A"/>
<path d="M38.7311 64.0384L32.0942 116.881L27.3262 116.282C27.8894 99.2147 28.4846 79.7734 30.3022 63.0422C30.5582 60.6845 32.699 58.9995 35.051 59.2942C37.3742 59.5857 39.0223 61.7127 38.7311 64.0384Z" fill="#412771"/>
<path d="M27.3654 114.719L32.1878 115.017L32.6422 115.53L32.5974 116.27L32.0822 116.725L27.2598 116.427L26.8086 115.914L26.8534 115.174L27.3654 114.719Z" fill="#311F50"/>
<path d="M28.6511 66.9887C25.8223 66.8926 18.552 66.4666 18.6256 64.2531L18.8143 58.6216C18.8623 57.2089 20.0463 56.1005 21.4607 56.1486L36.5552 56.6579C37.9696 56.7059 39.0768 57.8912 39.0288 59.3039L38.8399 64.9354C38.7631 67.1489 31.4799 67.0848 28.6511 66.9887Z" fill="#412771"/>
<path d="M28.6413 23.7721C22.9837 23.8297 18.4429 28.4683 18.5005 34.1318L18.7502 59.2207L38.9741 59.0189L38.7213 33.6641C38.6669 28.1479 34.1517 23.7176 28.6413 23.7721Z" fill="#A26A26"/>
<path d="M38.9584 57.4588L18.7344 57.6606L18.7504 59.2207L38.9744 59.0189L38.9584 57.4588Z" fill="#6E471A"/>
<path d="M18.8237 60.566C17.8925 60.4154 17.2269 59.5761 17.3005 58.6311L18.1229 47.9799L17.7901 30.0441C17.7613 28.5001 18.6829 27.097 20.1101 26.5044L24.6254 24.6368L26.203 42.6655L25.5822 55.0754C25.4094 58.551 22.2605 61.1105 18.8237 60.566Z" fill="#4B1615"/>
<path d="M28.6099 29.3458L28.5043 29.349C26.3859 29.3682 24.6484 27.664 24.6292 25.5434L24.626 24.6368C25.858 24.0955 27.2147 23.7879 28.6419 23.7719C29.9731 23.7591 31.2434 24.009 32.4082 24.4702V25.4633C32.4306 27.5871 30.7283 29.3265 28.6099 29.3458Z" fill="#6E471A"/>
<path d="M30.5071 28.0229C29.0543 29.1505 26.9648 28.8878 25.8352 27.4367L22.9967 23.7816C21.8671 22.3273 22.1296 20.2355 23.5792 19.1047C25.032 17.9771 27.1215 18.2398 28.2511 19.6909L31.0896 23.346C32.2192 24.8003 31.9567 26.8921 30.5071 28.0229Z" fill="#FAB47B"/>
<path d="M38.5165 28.955C55.3872 45.5742 55.0096 52.7433 53.4864 67.6742C53.3584 68.9428 52.296 69.9166 51.0192 69.9326C49.5407 69.9519 48.3631 68.6929 48.4847 67.2194C49.9151 49.5688 44.4495 43.3542 34.2989 33.2187C33.1437 32.0623 33.1244 30.1916 34.2573 29.0127C35.4125 27.8114 37.3293 27.7858 38.5165 28.955Z" fill="#FBC89A"/>
<path d="M45.7489 69.2856C45.4353 69.2856 45.1537 69.0582 45.0993 68.7347C45.0385 68.3759 45.2784 68.0331 45.6368 67.9723C46.776 67.7736 48.3664 66.047 49.0448 65.307L49.9792 65.2686L50.0176 66.204C49.1184 67.181 47.4448 69.0037 45.864 69.276L45.7489 69.2856Z" fill="#FBC89A"/>
<path d="M52.2452 64.7464L50.8915 64.6151C49.7043 64.4998 48.6515 65.3679 48.5363 66.5563C48.5363 66.5563 48.0327 71.1637 48.0007 71.5001C47.9687 71.8364 48.2308 72.23 48.5007 72.4999C49.0007 73 52 73 52.5 72.5C53 72 53.0003 71.5001 53.0003 71.5001C53 71 53.5796 66.3673 53.5796 66.3673C53.6564 65.5505 53.0612 64.8233 52.2452 64.7464Z" fill="#FBC89A"/>
<path d="M32.9561 21.3086V6.85498C33.6024 6.85498 34.1302 7.38035 34.1302 8.03063V20.1361C34.1302 20.7832 33.6024 21.3086 32.9561 21.3086Z" fill="#3D3F43"/>
<path d="M16.7535 26.0913H16.7119V19.8928H18.9102V23.929C18.9102 25.1239 17.9438 26.0913 16.7535 26.0913Z" fill="#3D3F43"/>
<path d="M19.519 24.5151C19.0422 24.5151 18.6582 24.1307 18.6582 23.6534V19.1783C18.6582 18.7042 19.0422 18.3198 19.519 18.3198C19.9925 18.3198 20.3765 18.7042 20.3765 19.1783V23.6534C20.3765 24.1307 19.9925 24.5151 19.519 24.5151Z" fill="#3D3F43"/>
<path d="M16.4974 24.4287H17.3293V4.6799C16.2415 4.6799 15.3584 5.56404 15.3584 6.64998V23.2883C15.3584 23.9194 15.8671 24.4287 16.4974 24.4287Z" fill="#3D3F43"/>
<path d="M33.4673 19.7485H31.4961V4.42358C32.5841 4.42358 33.4673 5.30768 33.4673 6.39363V19.7485Z" fill="#3D3F43"/>
<path d="M16.6896 26.8823C16.2864 26.8823 15.96 26.5556 15.96 26.1519V6.78439H17.4224V26.1519C17.4224 26.5556 17.096 26.8823 16.6896 26.8823Z" fill="#3D3F43"/>
<path d="M24.3479 1.97293C19.9159 1.97293 16.3799 5.66963 16.5687 10.1031L16.9016 17.6566C17.0808 21.6448 20.3575 24.7874 24.3479 24.7874C28.335 24.7874 31.6182 21.6448 31.7942 17.6566L32.1302 10.1031C32.319 5.66963 28.7798 1.97293 24.3479 1.97293Z" fill="#FBC89A"/>
<path d="M23.2439 28.939H21.6503C19.0519 28.939 16.9463 26.8312 16.9463 24.23V19.0245H31.6151V20.5589C31.6151 25.1878 27.8679 28.939 23.2439 28.939Z" fill="#3D3F43"/>
<path d="M16.9463 18.182C17.3847 18.7074 17.9415 19.0245 18.5494 19.0245H16.9463V18.182Z" fill="#3D3F43"/>
<path d="M18.0762 22.6604H24.7737V19.4602C24.7737 18.7523 24.2009 18.1821 23.4969 18.1821H19.3498C18.6458 18.1821 18.0762 18.7523 18.0762 19.4602V22.6604Z" fill="#3D3F43"/>
<path d="M19.9542 20.9292C20.7617 21.5017 21.6796 21.4993 22.4887 20.9292C22.725 20.7627 22.8928 20.6322 23.0135 20.407C23.4997 19.4999 22.9997 19.5 22.4887 19.8816C21.857 20.3534 20.5521 20.4579 19.9542 19.8816C19.3564 19.3054 18.9664 19.7623 19.4327 20.407C19.6047 20.645 19.7191 20.7625 19.9542 20.9292Z" fill="#FBC89A"/>
<path d="M31.1632 20.1393H29.9121V14.7353H31.1632V20.1393Z" fill="#3D3F43"/>
<path d="M26.1387 19.0245H29.9115V15.2477C29.9115 17.3331 28.2219 19.0245 26.1387 19.0245Z" fill="#3D3F43"/>
<path d="M31.7392 19.6139C32.2 19.6139 32.5712 19.2423 32.5712 18.781V7.22968H30.9072V18.781C30.9072 19.2423 31.2816 19.6139 31.7392 19.6139Z" fill="#3D3F43"/>
<path d="M31.6592 17.4646H30.4111V13.8448H31.6592C32.6577 13.8448 33.4673 14.6553 33.4673 15.6547C33.4673 16.6541 32.6577 17.4646 31.6592 17.4646Z" fill="#FBC89A"/>
<path d="M21.7554 12.5537V17.4004C21.7554 17.9065 21.5474 18.3902 21.1825 18.7394L20.9169 18.9892C20.2769 19.5979 19.2561 18.9091 19.5793 18.0859L21.7554 12.5537Z" fill="#F38B79"/>
<path d="M29.6982 11.5798C30.6166 11.5798 31.3622 10.8366 31.3622 9.91406V5.80417H28.0342V9.91406C28.0342 10.8366 28.7798 11.5798 29.6982 11.5798Z" fill="#3D3F43"/>
<path d="M30.5393 15.1165C30.1905 15.1165 29.9121 14.8345 29.9121 14.4886V8.69366H31.1632V14.4886C31.1632 14.8345 30.8848 15.1165 30.5393 15.1165Z" fill="#3D3F43"/>
<path d="M32.8113 9.4241H30.4111V13.8223H32.8113V9.4241Z" fill="#3D3F43"/>
<path d="M20.1295 11.5225L17.2827 11.8632L17.0321 11.6671L17.2118 11.4197L20.0349 10.8768L20.3027 11.0725L20.3252 11.2719L20.1295 11.5225Z" fill="#3D3F43"/>
<path d="M23.181 11.568L26.0373 11.813L26.2822 11.6075L26.093 11.3667L23.2527 10.9196L22.9948 11.1223L22.976 11.3231L23.181 11.568Z" fill="#3D3F43"/>
<path d="M25.1315 14.5047C25.1315 15.0236 24.9427 15.4432 24.7059 15.4432C24.4723 15.4432 24.2803 15.0236 24.2803 14.5047C24.2803 13.9857 24.4723 13.5661 24.7059 13.5661C24.9427 13.5661 25.1315 13.9857 25.1315 14.5047Z" fill="#3D3F43"/>
<path d="M19.4159 14.5047C19.4159 15.0236 19.2239 15.4432 18.9871 15.4432C18.7535 15.4432 18.5615 15.0236 18.5615 14.5047C18.5615 13.9857 18.7535 13.5661 18.9871 13.5661C19.2239 13.5661 19.4159 13.9857 19.4159 14.5047Z" fill="#3D3F43"/>
<path d="M28.12 11.0995C28.12 7.90249 23.1823 8.6937 22.3407 5.31092C21.0383 7.72628 17.0223 7.36432 16.5679 10.1032C16.1327 9.19666 15.96 8.21963 15.96 7.1465C15.96 3.33446 19.048 0.23996 22.8592 0.23996C23.3872 0.23996 23.8992 0.304044 24.3952 0.416162C24.888 0.304044 25.4031 0.23996 25.9311 0.23996C29.7391 0.23996 32.8271 3.33446 32.8271 7.1465C32.8271 10.1929 30.856 12.778 28.12 13.6942V11.0995Z" fill="#3D3F43"/>
<path d="M31.1643 20.7961C29.4843 20.7961 28.1211 19.4347 28.1211 17.7497V12.5538H31.1643V20.7961Z" fill="#3D3F43"/>
<path d="M30.431 26.8438C30.0246 26.8438 29.6982 26.5138 29.6982 26.1102V19.2165H31.1638V26.1102C31.1638 26.5138 30.8374 26.8438 30.431 26.8438Z" fill="#3D3F43"/>
<path d="M32.0592 23.916C32.696 23.916 33.2112 23.4003 33.2112 22.7628V18.9187H30.9072V22.7628C30.9072 23.4003 31.4225 23.916 32.0592 23.916Z" fill="#3D3F43"/>
<path d="M20.011 14.194C20.8622 13.7263 21.8959 13.7263 22.7471 14.194L22.9359 13.8512C21.9663 13.3194 20.7919 13.3194 19.8223 13.8512L20.011 14.194Z" fill="#2B2C2E"/>
<path d="M24.6709 16.8718H25.2534C26.3414 16.8718 27.2246 15.9877 27.2246 14.8986V13.9023C27.2246 13.2488 26.6934 12.7171 26.0406 12.7171H23.2277C22.5749 12.7171 22.0469 13.2456 22.0469 13.8991V14.2451C22.0469 15.6962 23.2213 16.8718 24.6709 16.8718Z" fill="#2B2C2E"/>
<path d="M18.0881 16.8718H17.5057C16.4177 16.8718 15.5312 15.9877 15.5312 14.8986V13.9023C15.5312 13.2488 16.0625 12.7171 16.7185 12.7171H19.5313C20.1841 12.7171 20.7122 13.2456 20.7122 13.8991V14.2451C20.7122 15.6962 19.5377 16.8718 18.0881 16.8718Z" fill="#2B2C2E"/>
<path d="M24.4527 13.9506H26.0591L26.427 13.5822L26.0591 13.217H24.4527L24.0879 13.5822L24.4527 13.9506Z" fill="#5E6167"/>
<path d="M17.867 13.9506H19.4733L19.8381 13.5822L19.4733 13.217H17.867L17.499 13.5822L17.867 13.9506Z" fill="#5E6167"/>
<path d="M31.5631 24.182L37.1695 26.4468C38.5807 27.017 39.5055 28.388 39.5055 29.9096V48.4988L40.3759 58.9162C40.4591 59.9029 39.7359 60.7742 38.7535 60.8735L35.3871 61.1778C32.3919 61.4469 29.7743 59.1789 29.6079 56.1773L28.9263 43.9084C28.8783 43.0627 28.9167 42.2138 29.0383 41.3777L31.5631 24.182Z" fill="#4B1615"/>
<path d="M54.4566 67.1107C55.9767 52.1829 56.1431 44.8792 39.9957 28.5964C38.2549 26.841 35.3589 27.062 33.8997 29.0545C32.7253 30.6562 32.8949 32.873 34.2933 34.2792C44.0085 44.0624 48.9878 48.4029 47.0549 66.518C47.0197 66.8384 47.2598 67.1299 47.583 67.1523L53.8422 67.6296C54.1526 67.652 54.4246 67.4214 54.4566 67.1107Z" fill="#4B1615"/>
<path d="M3.23071 63.971L4.59072 63.8941C5.77793 63.8301 6.79558 64.7431 6.86278 65.9315L7.03879 69.167C7.05799 69.5033 6.79878 69.7948 6.46277 69.8141L2.69313 70.0222C2.35712 70.0383 2.06591 69.7788 2.04671 69.4425L1.83234 65.5343C1.78754 64.7174 2.4147 64.0159 3.23071 63.971Z" fill="#FBC89A"/>
<path d="M5.62435 75.2024C5.31078 75.2024 5.04203 74.9621 5.01324 74.6418L4.5589 69.3082C4.5301 68.9718 4.77968 68.6739 5.11885 68.6451C5.44202 68.613 5.75234 68.8661 5.78114 69.2057L6.23555 74.5361C6.26755 74.8757 6.01477 75.1736 5.6788 75.2024H5.62435Z" fill="#FBC89A"/>
<path d="M3.40683 74.7761L3.34285 74.7729C3.00685 74.7377 2.76047 74.4334 2.79887 74.097L3.30761 69.2567C3.34281 68.9171 3.65324 68.6769 3.98284 68.7089C4.31883 68.7442 4.56522 69.0485 4.52682 69.3848L4.01799 74.2251C3.98599 74.5422 3.71723 74.7761 3.40683 74.7761Z" fill="#FBC89A"/>
<path d="M1.53449 73.8953L1.36489 73.8696C1.0385 73.7735 0.852962 73.434 0.945759 73.1072L2.07854 69.2279C2.17454 68.9044 2.52009 68.7154 2.84008 68.8115C3.16647 68.9076 3.35208 69.2472 3.25608 69.5739L2.12651 73.4532L1.53449 73.8953Z" fill="#FBC89A"/>
<path d="M9.55984 68.7761L9.42225 68.7601C7.8542 68.4238 6.25731 66.5338 5.39648 65.5215L5.47328 64.5861L6.40449 64.6661C7.10851 65.4958 8.57098 67.2225 9.70062 67.4659C10.0558 67.5428 10.2831 67.8952 10.2063 68.254C10.1391 68.5615 9.86705 68.7761 9.55984 68.7761Z" fill="#FBC89A"/>
<path d="M4.80114 71.4351L5.86368 71.3678L6.24451 70.9385L5.81251 70.5573L4.74996 70.6246L4.36914 71.0571L4.80114 71.4351Z" fill="#F79331"/>
<path d="M4.6582 71.0347C4.6582 70.6823 4.93978 70.4004 5.29175 70.4004C5.64052 70.4004 5.92529 70.6823 5.92529 71.0347C5.92529 71.3839 5.64052 71.6689 5.29175 71.6689C4.93978 71.6689 4.6582 71.3839 4.6582 71.0347Z" fill="#F79331"/>
<path d="M4.875 71.0347L5.29092 70.6183L5.70691 71.0347L5.29092 71.4512L4.875 71.0347Z" fill="#CD6428"/>
</g>
</svg>
