<svg width="71" height="124" viewBox="0 0 71 124" fill="none" xmlns="http://www.w3.org/2000/svg">
<path d="M49.0791 83.815V84.9973H50.1991V83.8124C50.1991 82.2933 51.4278 81.0607 52.9446 81.0607H55.5527C57.0695 81.0607 58.3014 82.2933 58.3014 83.8124V84.9973H59.4182V83.815C59.4182 81.6088 57.6294 79.8207 55.4278 79.8207H53.0727C50.8679 79.8207 49.0791 81.6088 49.0791 83.815Z" fill="#405564"/>
<path d="M64.2751 123.964H46.0127V84.6458H64.2751C67.7087 84.6458 70.4895 87.4286 70.4895 90.8662V117.742C70.4895 121.18 67.7087 123.964 64.2751 123.964Z" fill="#C11B64"/>
<path d="M47.0277 123.964H43.1909C39.7605 123.964 36.9766 121.18 36.9766 117.742V90.8662C36.9766 87.4286 39.7605 84.6458 43.1909 84.6458H47.0277C50.4613 84.6458 53.2421 87.4286 53.2421 90.8662V117.742C53.2421 121.18 50.4613 123.964 47.0277 123.964Z" fill="#D82B34"/>
<path d="M32.3077 26.0587C64.0646 40.5764 49.5142 54.111 32.8294 59.1301C31.7926 59.4405 30.6726 59.0827 30.1734 58.1178C29.5942 57.003 30.0933 55.6166 31.2613 55.1547C50.1382 47.653 51.1014 38.8754 30.2085 30.7036C28.9157 30.2007 28.3749 28.6406 28.9317 27.3689C29.4949 26.0683 31.0181 25.4693 32.3077 26.0587Z" fill="#FBC89A"/>
<path d="M39.194 28.9705C37.1044 27.6859 34.714 26.4302 31.9845 25.2033C30.3685 24.4761 28.4645 25.2161 27.7573 26.8467C27.0629 28.4419 27.7733 30.3031 29.3573 31.0239C31.8181 32.1483 34.0549 33.2567 36.0325 34.4131L39.194 28.9705Z" fill="#BBE6BD"/>
<path d="M15.6766 26.9652C-12.3203 47.8506 5.23491 48.5489 22.6013 49.9392C23.6829 50.0266 24.6974 49.4398 24.9854 48.3926C25.3182 47.1788 24.5534 45.8136 23.299 45.7248C2.77736 44.2218 2.77732 43.0394 18.7038 31.0687C19.8142 30.2326 20.0605 28.6662 19.2509 27.5354C18.4253 26.3854 16.8094 26.1195 15.6766 26.9652Z" fill="#FBC89A"/>
<path d="M9.55566 31.2644C11.3285 29.5698 13.402 27.8368 15.8116 26.0653C17.242 25.0146 19.2548 25.3381 20.2916 26.7796C21.306 28.1923 20.9989 30.1624 19.6037 31.2003C17.4373 32.8181 15.4821 34.3717 13.7893 35.9189L9.55566 31.2644Z" fill="#BBE6BD"/>
<path d="M28.6278 116.487C29.9526 116.487 31.0278 117.563 31.0278 118.893V119.257H26.2246V118.893C26.2246 117.563 27.2998 116.487 28.6278 116.487Z" fill="#FBC89A"/>
<path d="M26.1466 119.278H30.9755L35.8074 122.395L25.2666 122.397L26.1466 119.278Z" fill="#849EAC"/>
<path d="M25.2605 122.397L35.8174 122.394L35.907 122.483V123.871L35.8174 123.957H25.2605L25.1709 123.871V122.483L25.2605 122.397Z" fill="#E7EBEE"/>
<path d="M26.2246 65.9986V119.257H31.031C32.599 102.251 34.4294 82.8865 34.711 66.0585C34.7526 63.6887 32.8358 61.7503 30.4678 61.7503C28.1254 61.7503 26.2246 63.6499 26.2246 65.9986Z" fill="#405564"/>
<path d="M31.1365 117.544H26.3077L25.8213 118.031V118.77L26.3077 119.257H31.1365L31.6229 118.77V118.031L31.1365 117.544Z" fill="#405564"/>
<path d="M16.8502 116.487C18.1782 116.487 19.2534 117.563 19.2534 118.893V119.257H14.4502V118.893C14.4502 117.563 15.5254 116.487 16.8502 116.487Z" fill="#FBC89A"/>
<path d="M14.4601 119.278H19.289L24.121 122.395L13.5801 122.397L14.4601 119.278Z" fill="#849EAC"/>
<path d="M13.574 122.397L24.1308 122.394L24.2204 122.483V123.871L24.1308 123.957H13.574L13.4844 123.871V122.483L13.574 122.397Z" fill="#E7EBEE"/>
<path d="M14.4502 65.9986V119.257H19.2534C20.8246 102.251 22.655 82.8865 22.9366 66.0585C22.975 63.6887 21.0614 61.7503 18.6934 61.7503C16.351 61.7503 14.4502 63.6499 14.4502 65.9986Z" fill="#405564"/>
<path d="M19.3631 117.544H14.5311L14.0479 118.031V118.77L14.5311 119.257H19.3631L19.8463 118.77V118.031L19.3631 117.544Z" fill="#405564"/>
<path d="M24.5859 67.7896C21.7539 67.7896 14.4707 67.6066 14.4707 65.3931V59.7584C14.4707 58.3418 15.6195 57.1957 17.0307 57.1957H32.1379C33.5491 57.1957 34.6979 58.3418 34.6979 59.7584V65.3931C34.6979 67.6066 27.4147 67.7896 24.5859 67.7896Z" fill="#405564"/>
<path d="M20.3907 24.7583H28.9219C32.1123 24.7583 34.6979 27.3466 34.6979 30.5404V60.1038H14.4707V30.6846C14.4707 27.4107 17.1203 24.7583 20.3907 24.7583Z" fill="#BBE6BD"/>
<path d="M14.4707 58.5471H34.6979V60.1038H14.4707V58.5471Z" fill="#74CD7F"/>
<path d="M24.9826 27.0229H25.0881C27.2065 27.0229 28.9249 26.2253 28.9249 25.2451V24.7582H21.1426V25.2451C21.1426 26.2253 22.8642 27.0229 24.9826 27.0229Z" fill="#74CD7F"/>
<path d="M25.034 26.395C23.1972 26.395 21.7061 25.7223 21.7061 24.8926V20.9076C21.7061 19.0657 23.1972 17.5761 25.034 17.5761C26.874 17.5761 28.362 19.0657 28.362 20.9076V24.8926C28.362 25.7223 26.874 26.395 25.034 26.395Z" fill="#FBC89A"/>
<path d="M24.8062 0.463867C29.2383 0.463867 32.7775 4.16056 32.5855 8.59083L32.2527 16.1444C32.0767 20.1326 28.7967 23.2751 24.8094 23.2751C20.819 23.2783 17.5358 20.1358 17.3598 16.1444L17.027 8.59083C16.835 4.16056 20.3742 0.463867 24.8062 0.463867Z" fill="#FBC89A"/>
<path d="M32.064 13.5271C31.6832 13.5271 31.376 13.2196 31.376 12.8384V7.7931C31.376 7.4119 31.6832 7.10437 32.064 7.10437C32.4448 7.10437 32.752 7.4119 32.752 7.7931V12.8384C32.752 13.2196 32.4448 13.5271 32.064 13.5271Z" fill="#BE3322"/>
<path d="M32.3199 13.6362H29.9072V7.54016H32.3199V13.6362Z" fill="#BE3322"/>
<path d="M32.0379 15.9521H30.793V12.3322H32.0379C33.0363 12.3322 33.8459 13.1427 33.8459 14.1422C33.8459 15.1417 33.0363 15.9521 32.0379 15.9521Z" fill="#FBC89A"/>
<path d="M30.1343 5.71731L30.0991 5.72373V5.71731H29.1615C28.7807 3.99389 27.2511 2.69971 25.4111 2.69971H21.5807C19.7407 2.69971 18.2111 3.99389 17.8303 5.71731H16.8575C16.4095 5.74294 16.0703 6.14336 16.0703 6.59504C16.0703 8.36971 16.0703 14.9334 16.0703 17.2719C16.0703 17.73 16.4415 18.1048 16.9023 18.1048H17.0079C17.4111 18.1048 17.7343 18.4284 17.7343 18.8288C17.7343 19.9564 18.6495 20.8726 19.7759 20.8726H27.2159C28.3455 20.8726 29.2575 19.9564 29.2575 18.8288C29.2575 18.4284 29.5839 18.1048 29.9839 18.1048H30.0895C30.5503 18.1048 30.9214 17.73 30.9214 17.2719V6.59824C30.9214 6.14657 30.5855 5.74294 30.1343 5.71731Z" fill="#BE3322"/>
</svg>
