<svg width="52" height="21" viewBox="0 0 52 21" fill="none" xmlns="http://www.w3.org/2000/svg">
<path d="M52 10.5C52 16.299 40.3594 21 26 21C11.6406 21 0 16.299 0 10.5C0 4.70101 11.6406 0 26 0C40.3594 0 52 4.70101 52 10.5Z" fill="#61391C"/>
<path d="M52 10.5C52 16.299 40.3594 21 26 21C11.6406 21 0 16.299 0 10.5C0 4.70101 11.6406 0 26 0C40.3594 0 52 4.70101 52 10.5Z" fill="#61391C"/>
<path d="M5 16.6921C9.72973 19.3037 17.3743 21 26 21C34.6257 21 42.2703 19.3037 47 16.6921C30.2 8.84571 12 13.4227 5 16.6921Z" fill="#371B06"/>
</svg>
