<svg width="175" height="118" viewBox="0 0 175 118" fill="none" xmlns="http://www.w3.org/2000/svg">
<path d="M18.75 16L18.75 101L13.75 101L13.75 16L18.75 16Z" fill="#3A383C"/>
<path d="M25.7497 113.5C34.7496 113.5 34.2496 100 25.7497 100L15.4997 100L5.2497 100C-1.7503 100 -1.7503 113.5 5.2497 113.5L25.7497 113.5Z" fill="#615E63"/>
<path d="M25.7497 17.5C34.7496 17.5 34.2496 4 25.7497 4L15.4997 4L5.2497 4C-1.7503 4 -1.7503 17.5 5.2497 17.5L25.7497 17.5Z" fill="#615E63"/>
<path d="M169.06 11.6927L141.75 7L141.75 112C148.578 110.24 163.94 107.131 169.06 105.547C171.905 104.668 174.75 103.201 174.75 97.3352L174.75 19.905C174.75 14.1004 171.526 12.0838 169.06 11.6927Z" fill="#01A34E"/>
<path d="M165.75 19.933L141.75 16L141.75 104C147.75 102.525 161.25 99.9196 165.75 98.5922C168.25 97.8548 170.75 96.6257 170.75 91.7095L170.75 26.8156C170.75 21.9508 167.917 20.2607 165.75 19.933Z" fill="#0E832C"/>
<path d="M160.784 26.2179L141.75 23L141.75 95C146.509 93.7933 157.216 91.6615 160.784 90.5754C162.767 89.9721 164.75 88.9665 164.75 84.9441L164.75 31.8492C164.75 27.8689 162.503 26.486 160.784 26.2179Z" fill="#055821"/>
<path d="M141.75 0L141.75 118L133.75 118L133.75 -3.49691e-07L141.75 0Z" fill="#0E832C"/>
<path d="M133.75 0L133.75 118L125.75 118L125.75 -3.49691e-07L133.75 0Z" fill="#01A34E"/>
<path d="M125.75 109.5L125.75 8.5C125.75 8.5 43.25 18 30.75 19C18.25 20 10.25 27 10.25 31.5L10.25 87C10.75 96.5 22.25 98 30.75 99.5C39.25 101 125.75 109.5 125.75 109.5Z" fill="#0E832C"/>
<path d="M119.75 89L119.75 16.5C90.5833 19.3333 30.65 25.4 24.25 27C17.85 28.6 15.5833 33 15.25 35L15.25 74C15.25 78.5 21.75 81.3125 27.25 82C32.75 82.6875 119.75 89 119.75 89Z" fill="#01A34E"/>
<path d="M77.1673 57.5271L75.4857 54.5845L73.9093 64.5685L82.5271 66.9857L80.9507 64.1481L88.5175 59.7341C89.1061 57.6322 85.3297 54.9348 83.3679 53.8488L77.1673 57.5271Z" fill="white"/>
<path d="M76.6413 49.119L80.0044 42.0776C82.4216 43.4438 85.7846 45.5457 87.6763 46.8069C89.568 48.068 90.3487 48.6986 90.619 51.5361C90.8892 54.3737 90.8884 56.5314 89.1476 59.5234C90.0725 56.7489 81.1954 51.4311 76.6413 49.119Z" fill="white" fill-opacity="0.6"/>
<path d="M69.8029 45.8064L68.1539 48.7674L77.5144 44.9533L75.1265 36.3273L73.5131 39.1441L63.4479 32.8291C61.8222 34.1953 61.2116 38.3654 61.2967 40.6061L69.8029 45.8064Z" fill="white"/>
<path d="M60.7714 51.1155L53.196 51.1154C52.9531 48.1309 53.2254 43.3384 53.1959 40.9057C53.1664 38.4729 53.2464 37.4133 55.4657 35.7222C57.685 34.0312 59.8972 32.3744 63.3988 32.5137C60.547 33.0388 60.0947 45.6249 60.7714 51.1155Z" fill="white" fill-opacity="0.6"/>
<path d="M60.8229 58.7978L64.2497 58.7505L56.4321 52.3257L49.8316 58.9089L53.1125 58.9041L52.9749 67.9573C54.4865 69.542 58.7969 67.4774 60.7632 66.2471L60.8229 58.7978Z" fill="white"/>
<path d="M70.4406 61.3101L74.5393 67.7207C72.1464 69.1289 67.4349 72.3894 65.396 73.3954C63.3572 74.4015 62.1023 75.0028 59.5107 73.8159C56.9192 72.629 54.713 71.7764 52.9948 68.7714C54.9334 70.9612 66.1589 64.0945 70.4406 61.3101Z" fill="white" fill-opacity="0.6"/>
<path d="M102.408 55.4253C102.461 55.4253 102.53 55.4426 102.6 55.4603L113.274 58.7147C113.886 58.9071 114.184 59.6945 114.184 60.4994C114.184 61.3043 113.886 62.0915 113.274 62.284L102.6 65.5561C102.531 65.5736 102.461 65.5911 102.408 65.5911C101.761 65.5911 101.288 64.5937 101.288 63.8413C101.288 63.4038 101.428 63.0539 101.796 62.9489L103.983 62.354L103.983 58.6622L101.796 58.0672C101.429 57.9622 101.288 57.6123 101.288 57.1748C101.288 56.4229 101.761 55.4253 102.408 55.4253ZM106.082 61.777L110.772 60.4997L106.082 59.2223L106.082 61.777Z" fill="#FCFCFC"/>
<path d="M114.184 74.12C114.184 74.7071 113.543 74.9561 112.956 74.9561C112.281 74.9561 111.694 74.6535 111.694 74.12L111.694 70.0888L102.037 70.0888C101.468 70.0888 101.184 69.3952 101.184 68.7019C101.184 68.0085 101.468 67.3147 102.037 67.3147L111.694 67.3147L113.286 67.3147C113.511 67.3147 114.184 67.3452 114.184 68.0631L114.184 74.12Z" fill="#FCFCFC"/>
<path d="M102.408 74.9421C102.461 74.9421 102.53 74.9594 102.6 74.9771L113.274 78.2315C113.886 78.424 114.184 79.2114 114.184 80.0163C114.184 80.8212 113.886 81.6084 113.274 81.8008L102.6 85.0729C102.531 85.0904 102.461 85.1079 102.408 85.1079C101.761 85.1079 101.288 84.1105 101.288 83.3581C101.288 82.9207 101.428 82.5707 101.796 82.4657L103.983 81.8708L103.983 78.179L101.796 77.5841C101.429 77.4791 101.288 77.1291 101.288 76.6917C101.288 75.9397 101.761 74.9421 102.408 74.9421ZM106.082 81.2938L110.772 80.0165L106.082 78.7392L106.082 81.2938Z" fill="#FCFCFC"/>
<path d="M102.078 41.5167C102.007 41.5204 101.936 41.5243 101.886 41.5396C101.274 41.7277 101.289 42.2447 101.289 42.8811C101.289 43.4357 101.701 43.7426 102.078 43.7351L104.313 43.7351L106.46 43.7351L111.263 43.7351L102.435 46.2862C101.693 46.7956 101.69 48.3846 102.528 48.9344L111.396 51.4994L106.496 51.4994L104.349 51.4994L102.112 51.4994C101.734 51.4919 101.402 51.7452 101.37 52.1221C101.323 52.6767 101.373 53.3846 101.855 53.5328C101.905 53.5481 101.976 53.552 102.047 53.5557L112.901 53.5557C113.535 53.5517 114.184 52.9018 114.184 51.764C114.184 50.8473 113.93 50.4887 113.407 50.1288C112.884 49.7689 104.764 47.6172 104.764 47.6172C104.764 47.6172 113.006 45.4399 113.407 45.0661C113.809 44.6923 114.184 44.0679 114.184 43.2914C114.184 42.449 113.535 41.5207 112.901 41.5167L102.078 41.5167Z" fill="#FCFCFC"/>
<path d="M109.344 33.4561C109.344 33.4561 112.447 32.0769 112.676 31.962C112.906 31.8471 112.908 31.8731 112.996 31.8731C113.69 31.8731 114.184 32.4083 114.184 33.2262C114.184 33.5819 114.041 33.9198 113.668 34.1154L109.688 35.5248L109.688 37.0033L113.33 37.0033C113.899 37.0033 114.184 37.4584 114.184 38.1518C114.184 38.8454 113.899 39.2022 113.33 39.2022L103.602 39.2023L102.967 39.2023C102.398 39.2023 101.184 39.0491 101.184 37.8153L101.184 34.0017C101.184 33.1028 101.872 32.9922 102.294 32.9922C102.716 32.9922 103.304 33.2165 103.304 34.0017L103.304 37.0033L106.011 37.0033L107.505 37.0033L107.505 35.2426C107.505 33.9559 108.539 33.8008 109.344 33.4561Z" fill="#FCFCFC"/>
<path d="M102.02 22C101.575 22 101.184 22.409 101.184 23.0313L101.184 26.7126C101.184 29.0599 102.286 30.9094 105.274 30.9094L105.363 30.9094C108.351 30.9094 109.489 28.9887 109.489 26.5347L109.489 24.7741L111.765 24.7741L113.33 24.7741C113.899 24.7741 114.184 23.9027 114.184 23.2093C114.184 22.516 113.899 22.0002 113.33 22.0002L102.02 22ZM103.602 24.7741L107.354 24.7741L107.354 26.5347C107.354 27.5309 106.785 28.1355 105.576 28.1355L105.38 28.1355C104.171 28.1355 103.602 27.5309 103.602 26.5347L103.602 24.7741Z" fill="#FCFCFC"/>
<path d="M113.33 24.7741C113.899 24.7741 114.184 23.9027 114.184 23.2093L114.184 29.5403C114.184 30.1274 113.561 30.3763 112.992 30.3763C112.334 30.3763 111.765 30.0738 111.765 29.5403L111.765 24.7741L113.33 24.7741Z" fill="#FCFCFC"/>
</svg>
