<svg width="80" height="126" viewBox="0 0 80 126" fill="none" xmlns="http://www.w3.org/2000/svg">
<path d="M7.50164 17.5052C8.1837 18.7415 9.04908 20.7797 8.73171 23.1502C8.46165 25.1727 7.45237 26.5289 6.70132 27.5824C3.70502 31.7906 1.43416 35.9811 0.850667 37.2587C-1.4971 42.4025 1.5544 48.4661 3.502 52.5092C10.2949 66.602 14.7046 81.7523 21.4562 95.8667C24.5412 102.318 29.1421 112.129 34.5374 124.445C35.3732 124.693 36.209 124.943 37.0448 125.192C38.4345 124.947 39.84 124.669 41.2593 124.353C56.028 121.069 68.3779 114.679 78.3682 107.599C78.6678 107.119 79.0385 106.427 79.3223 105.547C79.5135 104.957 79.8289 103.78 79.7658 102.377C79.685 100.572 79.0147 99.2376 78.8452 98.8857C71.8236 84.3074 66.722 68.8859 60.4515 53.9735C57.3093 46.5045 53.1618 39.4522 50.4454 31.8201C50.1142 30.8924 48.9867 27.6433 46.3078 24.2607C45.2472 22.9202 44.2694 21.6858 42.584 20.5596C38.6356 17.9179 33.9342 17.9573 33.1496 17.973C30.932 18.0182 29.2269 18.5017 26.9954 17.5366C25.9014 17.0629 25.1838 16.4595 24.896 16.2001C23.3269 14.7869 22.7651 13.0788 22.5581 12.2729C20.4094 12.8233 18.1385 13.4837 15.7671 14.2837C12.755 15.2999 9.99528 16.3966 7.50164 17.5052Z" fill="#B7DFF9"/>
<path d="M21.4255 95.771C24.5105 102.222 29.1114 112.034 34.5067 124.35C35.3406 124.597 36.1744 124.846 37.0083 125.095L37.0141 125.097C38.4039 124.851 39.8094 124.574 41.2287 124.257C55.9973 120.973 68.3472 114.583 78.3375 107.503C78.6372 107.024 79.0078 106.332 79.2917 105.451C79.4829 104.862 79.7983 103.684 79.7352 102.281C79.6544 100.476 78.9841 99.1418 78.8146 98.79C71.793 84.2117 66.6914 68.7902 60.4208 53.8777C59.9367 52.727 59.4288 51.5862 58.9058 50.4516C58.9007 50.4402 58.8955 50.4289 58.8902 50.4177C58.8954 50.429 58.9006 50.4403 58.9058 50.4516C59.9937 52.8712 56.4577 58.0551 53.9693 61.5283C49.3009 66.5133 46.2771 69.5042 34.5067 67.5103C25.0904 65.9151 16.2454 72.1629 13 75.4862C15.6185 82.3316 18.2655 89.1648 21.4255 95.771Z" fill="#FCD86F"/>
<path d="M21.4255 95.771C24.5105 102.222 29.1114 112.034 34.5067 124.35C35.3406 124.597 36.1744 124.846 37.0083 125.095L37.0141 125.097C38.4039 124.851 39.8094 124.574 41.2287 124.257C55.9973 120.973 68.3472 114.583 78.3375 107.503C78.6372 107.024 79.0078 106.332 79.2917 105.451C79.4829 104.862 79.7983 103.684 79.7352 102.281C79.6544 100.476 78.9841 99.1418 78.8146 98.79C71.793 84.2117 66.6914 68.7902 60.4208 53.8777C59.9367 52.727 59.4288 51.5862 58.9058 50.4516C58.9007 50.4402 58.8955 50.4289 58.8902 50.4177C58.8954 50.429 58.9006 50.4403 58.9058 50.4516C59.9937 52.8712 56.4577 58.0551 53.9693 61.5283C49.3009 66.5133 46.2771 69.5042 34.5067 67.5103C25.0904 65.9151 16.2454 72.1629 13 75.4862C15.6185 82.3316 18.2655 89.1648 21.4255 95.771Z" fill="#B7DFF9" fill-opacity="0.2"/>
<path d="M23.6503 9.4373C22.2428 9.43337 20.6974 9.53753 19.0455 9.82449C12.3295 10.99 7.56106 14.526 4.95508 16.8669C5.11672 17.2384 5.3927 17.7475 5.85988 18.2546C6.17134 18.5927 6.48672 18.8403 6.75087 19.0172C8.86601 17.6669 11.6396 16.1535 15.0478 14.8818C18.4817 13.6022 21.5923 12.93 24.0899 12.5664C24.1076 12.1988 24.1057 11.7782 24.0603 11.3203C23.9854 10.5734 23.8198 9.93654 23.6503 9.4373Z" fill="#DBADD8"/>
<path d="M24.8591 9.5179C23.4595 9.5808 21.9653 9.73411 20.3982 10.0191C13.1874 11.3242 7.80201 14.758 4.41936 17.4704C3.89106 16.81 3.35684 16.0611 2.84629 15.2179C1.25944 12.5959 0.504455 10.0545 0.125977 8.0929C1.5709 6.5932 3.75897 4.69255 6.80059 3.1673C12.7892 0.165949 18.4566 0.447012 21.0231 0.74184C22.0797 2.08822 23.3531 4.06555 24.1889 6.67576C24.5161 7.6939 24.7251 8.65307 24.8591 9.5179Z" fill="#FCCDF7"/>
<path d="M7.58292 4.38589C6.43565 4.8871 5.18192 5.5259 3.87891 6.34159C3.2284 6.74649 2.62717 7.15923 2.07324 7.56806C2.39456 8.46238 2.74543 9.38224 3.1318 10.3237C3.82962 12.0239 4.56293 13.6061 5.30215 15.0665C5.94478 14.4376 6.77863 13.7241 7.82537 13.042C9.1126 12.2047 10.3269 11.6721 11.3007 11.3261C10.0628 9.01273 8.82285 6.69931 7.58292 4.38589Z" fill="#FFE9FD"/>
<path d="M11.7796 22.1242C12.0162 23.1758 12.2547 24.8268 11.9097 26.7412C11.2218 30.5504 8.93709 31.4703 7.12945 35.2107C4.84673 39.9319 5.52485 44.5921 5.72 45.9248C6.35277 50.2725 8.47184 53.2719 9.23669 54.3962C12.7889 59.6225 11.2927 60.0097 25.1999 92.8144C27.934 99.2652 31.9771 108.651 37.1516 120.108C38.0683 119.984 39.182 119.76 40.4101 119.345C41.6796 118.915 42.7283 118.394 43.5444 117.918C39.6197 105.293 35.3302 95.6172 32.2274 89.2548C26.2033 76.8936 21.421 63.9369 15.0578 51.7467C13.3744 48.5193 9.51465 41.2822 12.2488 35.7591C13.1575 33.9272 14.4428 32.9837 15.2293 30.4463C16.4061 26.641 15.3259 22.9085 14.1944 20.3061C13.9381 20.3277 13.3428 20.4162 12.7514 20.8486C12.1305 21.3066 11.8723 21.8844 11.7796 22.1242Z" fill="#E1F2FF"/>
<path d="M12.9054 17.3407C12.3692 17.1166 11.7029 17.5981 11.1174 18.0188C10.7685 18.2703 10.5142 18.5239 10.3506 18.7047C10.4984 19.1784 10.6483 19.6501 10.7961 20.1218C11.1628 19.8781 11.6122 19.6147 12.1444 19.373C12.5466 19.1902 13.0316 19.0015 13.5953 18.8482C13.5914 18.1544 13.3509 17.5274 12.9054 17.3407Z" fill="#E1F2FF"/>
<path d="M37.6582 22.8006C39.0992 23.2664 41.2065 24.1587 43.1639 25.9611C45.1155 27.7596 46.0577 29.6681 46.4697 30.5271C53.7141 45.5672 55.7622 51.1179 55.7622 51.1179C58.4155 58.3137 61.1772 65.4701 63.8621 72.6561C65.6776 77.5168 67.1698 81.4892 68.1377 84.064C67.5404 84.3352 66.9431 84.6085 66.3459 84.8797C63.5664 77.965 61.2048 72.2433 59.5056 68.1629C50.6862 46.9981 47.2503 40.1955 45.9414 37.6462C42.6218 31.1796 39.6295 26.0594 37.6582 22.8006Z" fill="#E1F2FF"/>
<path d="M74.1537 99.6702C73.657 100.551 72.8823 101.781 71.7547 103.1C70.0417 105.109 68.3485 106.345 67.1302 107.184C64.0551 109.301 57.8614 113.12 49.5742 117.692C53.2743 116.965 57.9678 115.685 63.0931 113.338C68.9339 110.663 73.3987 107.489 76.5389 104.881C75.7426 103.143 74.9481 101.408 74.1537 99.6702Z" fill="#E1F2FF"/>
</svg>
