<svg width="91" height="160" viewBox="0 0 91 160" fill="none" xmlns="http://www.w3.org/2000/svg">
<path d="M32.8821 20.1977L29.3574 20.4722L36.3008 108.948L39.8234 108.673L32.8821 20.1977Z" fill="#211C1D"/>
<path d="M39.9297 19.6474L36.4043 19.9225L43.3483 108.398L46.8716 108.124L39.9297 19.6474Z" fill="#211C1D"/>
<path d="M36.4061 19.9225L32.8828 20.1977L39.8241 108.673L43.3502 108.398L36.4061 19.9225Z" fill="#505256"/>
<path d="M36.4293 10.8849L31.4481 11.2736L29.3574 20.4722L39.9315 19.6474L36.4293 10.8849Z" fill="#F89D81"/>
<path d="M33.9465 3.94641L32.8509 4.03181L31.4492 11.2735L36.4598 10.8821L33.9465 3.94641Z" fill="#211C1D"/>
<path d="M46.0176 22.8764L49.5529 22.9016L48.9096 111.645L45.375 111.62L46.0176 22.8764Z" fill="#F6C628"/>
<path d="M38.9466 22.8254L42.4817 22.8513L41.8398 111.594L38.3047 111.569L38.9466 22.8254Z" fill="#F6C628"/>
<path d="M42.4817 22.8512L46.0177 22.8764L45.3751 111.62L41.8398 111.594L42.4817 22.8512Z" fill="#F1EF1D"/>
<path d="M41.8174 13.8375L46.814 13.8732L49.5535 22.9017L38.9473 22.8254L41.8174 13.8375Z" fill="#F89D81"/>
<path d="M43.8005 6.74141L44.9016 6.7491L46.8125 13.8732L41.7871 13.8368L43.8005 6.74141Z" fill="#F1EF1D"/>
<path d="M65.6411 32.2277L69.1468 32.6786L57.7772 120.698L54.2715 120.248L65.6411 32.2277Z" fill="#2C3992"/>
<path d="M58.6268 31.3274L62.1332 31.7776L50.7628 119.797L47.2578 119.346L58.6268 31.3274Z" fill="#2C3992"/>
<path d="M62.1321 31.7775L65.6385 32.2277L54.2688 120.247L50.7617 119.797L62.1321 31.7775Z" fill="#424DA9"/>
<path d="M62.5625 22.7505L67.5183 23.3869L69.1455 32.6786L58.627 31.3274L62.5625 22.7505Z" fill="#F89D81"/>
<path d="M65.3908 15.9443L66.4807 16.0843L67.5179 23.3869L62.5332 22.7463L65.3908 15.9443Z" fill="#2C3992"/>
<path d="M84.5445 31.6641L88.0151 32.3314L71.1593 119.472L67.6895 118.805L84.5445 31.6641Z" fill="#8C1A8E"/>
<path d="M77.6019 30.3296L81.0725 30.9968L64.2174 118.137L60.7461 117.469L77.6019 30.3296Z" fill="#8C1A8E"/>
<path d="M81.0758 30.9968L84.5479 31.6641L67.6927 118.804L64.2207 118.137L81.0758 30.9968Z" fill="#A734A0"/>
<path d="M82.0705 22.0132L86.9758 22.957L88.0187 32.3313L77.6055 30.3296L82.0705 22.0132Z" fill="#F89D81"/>
<path d="M85.3193 15.3967L86.3987 15.604L86.9752 22.957L82.041 22.0076L85.3193 15.3967Z" fill="#8C1A8E"/>
<path d="M23.5717 38.7784L20.1172 39.529L39.0945 126.235L42.5476 125.484L23.5717 38.7784Z" fill="#41B93C"/>
<path d="M30.4811 37.2758L27.0273 38.0263L46.0046 124.732L49.4576 123.982L30.4811 37.2758Z" fill="#41B93C"/>
<path d="M27.024 38.0264L23.5703 38.7784L42.5462 125.484L46.0013 124.732L27.024 38.0264Z" fill="#80CC2A"/>
<path d="M25.8126 29.0701L20.9318 30.1322L20.1172 39.5296L30.4799 37.2758L25.8126 29.0701Z" fill="#F89D81"/>
<path d="M22.4049 22.5341L21.3297 22.768L20.9336 30.1322L25.8425 29.0638L22.4049 22.5341Z" fill="#41B93C"/>
<path d="M4.26446 39.8804L0.933594 41.0622L30.7926 124.668L34.1213 123.485L4.26446 39.8804Z" fill="#EC1D27"/>
<path d="M10.9253 37.5161L7.59375 38.6986L37.4514 122.303L40.7822 121.121L10.9253 37.5161Z" fill="#EC1D27"/>
<path d="M7.59186 38.6986L4.26172 39.8804L34.1186 123.485L37.4495 122.303L7.59186 38.6986Z" fill="#ED3E46"/>
<path d="M5.24884 29.9676L0.542969 31.6389L0.930618 41.0623L10.9231 37.516L5.24884 29.9676Z" fill="#F89D81"/>
<path d="M1.03583 23.9162L0 24.2837L0.543532 31.6389L5.2782 29.9578L1.03583 23.9162Z" fill="#EC1D27"/>
<path d="M54.6542 16.1319L51.133 15.819L43.2305 104.215L46.7516 104.528L54.6542 16.1319Z" fill="#F14625"/>
<path d="M61.6965 16.7578L58.1747 16.4449L50.2734 104.841L53.7932 105.154L61.6965 16.7578Z" fill="#F14625"/>
<path d="M58.1738 16.4448L54.6526 16.1319L46.75 104.528L50.2726 104.841L58.1738 16.4448Z" fill="#F35D37"/>
<path d="M59.7054 7.53677L54.7277 7.09428L51.1328 15.8196L61.697 16.7578L59.7054 7.53677Z" fill="#F89D81"/>
<path d="M58.4106 0.283229L57.3151 0.185898L54.7266 7.09437L59.7344 7.53894L58.4106 0.283229Z" fill="#F14625"/>
<path d="M72.9407 24.7563L69.4525 24.1892L55.1172 111.777L58.606 112.344L72.9407 24.7563Z" fill="#BE1C2D"/>
<path d="M79.9192 25.892L76.4304 25.3242L62.0957 112.911L65.5839 113.479L79.9192 25.892Z" fill="#BE1C2D"/>
<path d="M76.4297 25.3241L72.9401 24.7563L58.6055 112.344L62.095 112.911L76.4297 25.3241Z" fill="#EC1D27"/>
<path d="M78.6071 16.5505L73.6751 15.7482L69.4531 24.1892L79.9197 25.892L78.6071 16.5505Z" fill="#F89D81"/>
<path d="M77.8453 9.22202L76.761 9.0463L73.6738 15.7481L78.6346 16.5554L77.8453 9.22202Z" fill="#BE1C2D"/>
<path d="M13.8375 28.622L10.3887 29.3921L29.8625 115.989L33.3135 115.217L13.8375 28.622Z" fill="#5DC6F2"/>
<path d="M20.7373 27.0795L17.2871 27.8504L36.7623 114.446L40.2118 113.675L20.7373 27.0795Z" fill="#5DC6F2"/>
<path d="M17.2862 27.8503L13.8359 28.6219L33.3119 115.217L36.7614 114.446L17.2862 27.8503Z" fill="#63CBD3"/>
<path d="M16.025 18.9003L11.1492 19.9904L10.3887 29.3928L20.7379 27.0795L16.025 18.9003Z" fill="#F89D81"/>
<path d="M12.5762 12.3839L11.5045 12.6241L11.1484 19.9904L16.0531 18.894L12.5762 12.3839Z" fill="#50ACE4"/>
<path d="M10.7266 81.9036L23.3687 154.811H23.505C23.505 157.514 34.0656 159.705 47.0927 159.705C60.1183 159.705 70.6783 157.514 70.6783 154.811H70.8152L83.4574 81.9036L69.1199 86.3314L47.0927 88.6482L23.854 86.3314L10.7266 81.9036Z" fill="#FFD068"/>
<path d="M70.668 154.958C70.668 154.957 70.668 154.957 70.668 154.957V154.958ZM70.6708 154.935C70.6708 154.934 70.6708 154.934 70.6708 154.934C70.6708 154.934 70.6708 154.934 70.6708 154.935ZM70.6722 154.924V154.923V154.924ZM70.6736 154.913C70.6736 154.912 70.6736 154.912 70.6736 154.911C70.6736 154.912 70.6736 154.912 70.6736 154.913ZM70.6743 154.902C70.6743 154.901 70.6743 154.901 70.6743 154.9C70.6743 154.901 70.6743 154.901 70.6743 154.902ZM70.6757 154.88C70.6764 154.879 70.6764 154.878 70.6764 154.878C70.6764 154.878 70.6764 154.879 70.6757 154.88ZM70.6764 154.868C70.6764 154.868 70.6764 154.867 70.6771 154.867C70.6764 154.867 70.6764 154.868 70.6764 154.868ZM70.6771 154.857C70.6771 154.856 70.6771 154.855 70.6771 154.854C70.6771 154.855 70.6771 154.856 70.6771 154.857ZM70.6778 154.846C70.6778 154.845 70.6778 154.845 70.6778 154.844C70.6778 154.845 70.6778 154.845 70.6778 154.846ZM70.6778 154.834C70.6778 154.833 70.6778 154.833 70.6778 154.832C70.6778 154.833 70.6778 154.833 70.6778 154.834ZM70.6785 154.823C70.6785 154.823 70.6785 154.822 70.6785 154.821C70.6785 154.822 70.6785 154.823 70.6785 154.823Z" fill="#847A90"/>
<path d="M57.5566 159.197L62.6811 87.6701L66.2999 86.6283L69.1181 86.3314L73.9799 84.8296L76.4371 84.6328L76.9392 83.9159L83.4556 81.9036L70.8133 154.811H70.6764C70.6764 154.815 70.6764 154.818 70.6764 154.821C70.6764 154.823 70.6764 154.823 70.6764 154.824C70.6757 154.827 70.6757 154.83 70.6757 154.832C70.6757 154.833 70.6757 154.834 70.6757 154.834C70.6757 154.838 70.6757 154.841 70.6757 154.844C70.6757 154.845 70.6757 154.846 70.6757 154.846C70.6757 154.849 70.6757 154.852 70.675 154.855C70.675 154.855 70.675 154.856 70.675 154.858C70.675 154.86 70.675 154.864 70.675 154.867C70.6743 154.867 70.6743 154.868 70.6743 154.868C70.6743 154.872 70.6743 154.874 70.6743 154.878C70.6743 154.879 70.6743 154.879 70.6736 154.88C70.6736 154.887 70.6729 154.893 70.6722 154.9C70.6722 154.901 70.6722 154.902 70.6722 154.902C70.6722 154.906 70.6715 154.909 70.6715 154.911C70.6715 154.912 70.6715 154.912 70.6715 154.913C70.6708 154.916 70.6708 154.92 70.6701 154.923V154.924C70.6694 154.928 70.6694 154.931 70.6687 154.935C70.6687 154.935 70.6687 154.935 70.6687 154.935C70.668 154.942 70.6673 154.949 70.6659 154.957C70.6659 154.957 70.6659 154.957 70.6659 154.958C70.6645 154.965 70.6637 154.972 70.6623 154.979C70.3611 156.831 65.1025 158.42 57.5566 159.197Z" fill="#FFC850"/>
<path d="M22.2832 85.0543L33.0124 158.738C36.8306 159.328 41.54 159.683 46.6448 159.703C46.359 151.643 44.3877 96.2399 44.0134 88.3422L23.8528 86.3313L22.2832 85.0543Z" fill="#FFDC64"/>
<path d="M41.4576 87.4397L40.7645 84.2729L42.0012 84.4486L42.0349 84.4479L42.0138 87.3949L41.4576 87.4397ZM40.6367 83.6883L40.6016 83.53L40.6163 83.5287L40.6367 83.6883Z" fill="#B29323"/>
<path d="M42.0156 87.3948L42.0367 84.448L44.9573 84.357L45.0044 84.3584L44.7523 87.1757L42.0156 87.3948Z" fill="#AEB11D"/>
<path d="M38.5874 87.6702L37.8654 87.549L37.0859 83.9852L37.1105 83.9887L40.6036 83.5301L40.6388 83.6884L40.7111 84.2646L40.7666 84.273L41.4597 87.4398L38.5874 87.6702Z" fill="#348939"/>
<path d="M37.8639 87.549L34.1966 86.9342L33.2324 82.6472L33.6011 83.5287L37.0844 83.9852L37.8639 87.549Z" fill="#61972F"/>
<path d="M44.752 87.1758L45.0041 84.3584L48.4648 84.4487L48.5455 84.4431L48.3264 86.8888L44.752 87.1758Z" fill="#B23B20"/>
<path d="M58.6875 86.0576L59.0976 82.8797L59.1756 82.8839L59.7289 82.608L59.8862 82.6409L59.3357 86.0051L58.6875 86.0576Z" fill="#27326D"/>
<path d="M55.4746 86.3146L55.674 84.0825L55.7569 84.0804L55.8489 82.7004L59.0948 82.8797L58.6847 86.0576L55.4746 86.3146Z" fill="#303D94"/>
<path d="M51.9023 86.6016L52.1179 84.1818L52.2493 84.1727L55.6749 84.0824L55.4755 86.3145L51.9023 86.6016Z" fill="#B23B20"/>
<path d="M78.4551 81.7503L78.458 81.7364L78.4558 81.7503H78.4551Z" fill="#BBB9B8"/>
<path d="M74.2812 84.7379L74.8494 81.7979L74.9618 81.7797L78.8397 79.5708L78.4612 81.737L78.4584 81.7503L76.9415 83.9159L74.2812 84.7379Z" fill="#681F6B"/>
<path d="M70.2246 85.1312L70.7696 81.8013L71.1776 81.9638L71.0849 82.4238L71.1292 82.4161L70.6102 85.1004L70.2246 85.1312Z" fill="#681F6B"/>
<path d="M70.6074 85.1005L71.1264 82.4161L74.847 81.7979L74.2789 84.7378L73.9797 84.8295L70.6074 85.1005Z" fill="#8C2493"/>
<path d="M48.3281 86.8887L48.5472 84.4431L52.1204 84.1819L51.9048 86.6017L48.3281 86.8887Z" fill="#BD4A2D"/>
<path d="M59.3359 86.0051L59.8865 82.6409L63.2377 83.3445L63.3522 83.3522L62.9652 85.7139L59.3359 86.0051Z" fill="#8D1A29"/>
<path d="M66.5957 85.4225L66.8934 83.6043L67.1161 83.6204L70.5311 82.8838L70.7158 81.7797L70.7699 81.8014L70.2249 85.1313L66.5957 85.4225Z" fill="#8D1A29"/>
<path d="M62.9648 85.7138L63.3518 83.3522L66.8926 83.6042L66.5948 85.4225L62.9648 85.7138Z" fill="#B01D23"/>
<path d="M34.1998 86.9342L30.4343 86.3027L29.666 82.8852L29.7264 82.8838L33.1422 82.4238L33.2356 82.6471L34.1998 86.9342Z" fill="#418FB7"/>
<path d="M16.049 83.3921L14.584 82.8838L15.334 81.389L16.049 83.3921Z" fill="#BBB9B8"/>
<path d="M20.2288 84.5916L18.8306 84.357L16.0489 83.3922L15.334 81.389L15.4147 81.2273L18.7386 81.0432L18.9373 80.9752L20.2288 84.5916Z" fill="#B01D23"/>
<path d="M22.9011 85.0396L20.229 84.5915L18.9375 80.9752L21.6925 80.0307L22.1539 81.9638L22.2129 81.9792L22.9011 85.0396Z" fill="#B0363C"/>
<path d="M26.6674 85.6711L22.9011 85.0396L22.2129 81.9792L26.0318 82.9763L26.0606 82.9756L26.6674 85.6711Z" fill="#418FB7"/>
<path d="M30.4321 86.3026L26.6673 85.6711L26.0605 82.9755L29.6639 82.8852L30.4321 86.3026Z" fill="#41A2A7"/>
<path d="M73.9824 84.8295L76.9418 83.9131L76.4396 84.6322L73.9824 84.8295Z" fill="#5A872D"/>
<path d="M79.1448 78.2012L78.4587 81.7502C74.3687 83.4761 63.6163 85.7019 47.0927 85.7019C30.5684 85.7019 19.7844 83.4558 15.6937 81.7292L14.3004 78.463C12.0096 79.4523 10.7266 80.56 10.7266 81.7292C10.7266 85.8965 27.0072 89.2748 47.0927 89.2748C67.1761 89.2748 83.4574 85.8965 83.4574 81.7292C83.4574 80.532 81.9882 79.1625 79.1448 78.2012Z" fill="#FFC850"/>
<path d="M61.2349 60.9459C61.7646 59.1474 64.1506 58.7668 65.2166 60.3107L82.181 84.8803L53.7201 86.8464L61.2349 60.9459Z" fill="#FFC850"/>
<path d="M79.5936 85.059L62.2646 86.2563L64.5628 67.6761C64.7235 66.377 66.41 65.9653 67.1545 67.0435L79.5936 85.059Z" fill="#EBAF4B"/>
<path d="M33.7313 60.5559C33.2945 58.7326 30.9313 58.2309 29.7874 59.7185L11.5851 83.3911L39.9079 86.8057L33.7313 60.5559Z" fill="#FFC850"/>
<path d="M14.1601 83.7018L31.4051 85.781L30.0629 67.1078C29.969 65.8023 28.3058 65.3051 27.507 66.344L14.1601 83.7018Z" fill="#EBAF4B"/>
<path d="M87.3075 133.978C87.1342 133.978 86.9581 133.938 86.7934 133.852C80.043 130.353 69.4779 128.273 69.3715 128.253C68.7665 128.135 68.3718 127.551 68.4895 126.947C68.6079 126.343 69.1884 125.949 69.799 126.068C70.2439 126.154 80.784 128.228 87.8238 131.877C88.3705 132.161 88.5837 132.833 88.2991 133.378C88.1002 133.759 87.711 133.978 87.3075 133.978Z" fill="#E1A546"/>
<path d="M89.5446 126.187C89.4487 126.187 89.3511 126.174 89.2541 126.148C82.9964 124.471 71.6179 124.789 71.5056 124.794C70.8787 124.812 70.3739 124.33 70.356 123.715C70.3374 123.101 70.8221 122.588 71.4381 122.569C71.9179 122.554 83.2615 122.237 89.8342 123.998C90.4294 124.158 90.7822 124.768 90.6224 125.362C90.4882 125.859 90.0374 126.186 89.5446 126.187Z" fill="#E1A546"/>
<path d="M5.45564 133.977C5.0523 133.977 4.66298 133.759 4.46407 133.378C4.17946 132.832 4.39265 132.16 4.93937 131.877C11.9793 128.227 22.5193 126.154 22.9642 126.067C23.5698 125.946 24.1553 126.343 24.2736 126.947C24.3914 127.55 23.9967 128.135 23.3916 128.252C23.2853 128.273 12.7201 130.352 5.96976 133.852C5.80508 133.937 5.62908 133.977 5.45564 133.977Z" fill="#E1A546"/>
<path d="M3.22157 126.186C2.72875 126.186 2.27797 125.858 2.14389 125.362C1.9842 124.768 2.33686 124.157 2.9321 123.998C9.50532 122.235 20.8473 122.555 21.3281 122.569C21.9441 122.587 22.4287 123.1 22.4103 123.715C22.3917 124.329 21.858 124.816 21.2606 124.794C21.1462 124.79 9.76594 124.47 3.51225 126.148C3.41508 126.174 3.31752 126.186 3.22157 126.186Z" fill="#E1A546"/>
<path d="M49.3376 132.189V134.415C49.3376 136.874 47.3383 138.867 44.8719 138.867C42.4056 138.867 40.4062 136.874 40.4062 134.415V132.189L44.8719 129.963L49.3376 132.189Z" fill="#FF8087"/>
<path d="M44.8719 129.963L40.4062 132.189V134.415C40.4062 134.768 40.4579 135.107 40.5358 135.437C41.6593 135.298 42.7443 134.973 43.7555 134.476V135.528C43.7555 136.143 44.2553 136.641 44.8719 136.641C45.4886 136.641 45.9884 136.143 45.9884 135.528V134.476C46.9997 134.973 48.0848 135.298 49.2081 135.437C49.286 135.107 49.3376 134.768 49.3376 134.415V132.189L44.8719 129.963Z" fill="#E6646E"/>
<path d="M50.4518 133.302C48.8726 133.302 47.3506 132.834 46.0515 131.948C45.3558 131.474 44.3839 131.474 43.6872 131.948C42.3887 132.834 40.8667 133.302 39.2874 133.302C37.3659 133.302 35.5151 132.593 34.076 131.306C33.617 130.896 33.5788 130.192 33.9904 129.734C34.402 129.277 35.1063 129.239 35.5675 129.649C37.4422 131.326 40.3762 131.509 42.4275 130.11C43.8884 129.116 45.8515 129.116 47.3113 130.11C49.3632 131.509 52.2976 131.325 54.1724 129.649C54.6309 129.24 55.3362 129.277 55.749 129.735C56.1605 130.193 56.1219 130.897 55.6629 131.307C54.2235 132.593 52.3734 133.302 50.4518 133.302Z" fill="#EBAF4B"/>
<path d="M47.2793 123.063H42.3486C41.2841 123.063 40.6946 124.293 41.3639 125.119L43.8294 128.16C44.3361 128.785 45.2918 128.785 45.7986 128.16L48.2641 125.119C48.9332 124.293 48.3439 123.063 47.2793 123.063Z" fill="#5D5360"/>
<path d="M45.6777 128.207L43.2122 123.342C43.1675 123.253 43.1424 123.156 43.1086 123.063H42.3486C41.2841 123.063 40.6947 124.293 41.3638 125.118L43.8293 128.159C44.3077 128.749 45.1744 128.762 45.6975 128.238C45.6916 128.227 45.6838 128.219 45.6777 128.207Z" fill="#4B3F4E"/>
<path d="M58.1536 117.327C56.0045 117.327 54.2461 115.574 54.2461 113.431V111.205C54.2461 109.062 56.0045 107.309 58.1536 107.309C60.3028 107.309 62.0612 109.062 62.0612 111.205V113.431C62.0612 115.574 60.3028 117.327 58.1536 117.327Z" fill="#4B3F4E"/>
<path d="M58.1558 107.309C57.9647 107.309 57.7815 107.339 57.5977 107.366V112.875C57.5977 114.104 58.5973 115.101 59.8305 115.101C61.0637 115.101 62.0634 114.104 62.0634 112.875V111.205C62.0634 109.062 60.305 107.309 58.1558 107.309Z" fill="#5D5360"/>
<path d="M58.1532 111.762C59.0781 111.762 59.8279 111.015 59.8279 110.093C59.8279 109.17 59.0781 108.423 58.1532 108.423C57.2283 108.423 56.4785 109.17 56.4785 110.093C56.4785 111.015 57.2283 111.762 58.1532 111.762Z" fill="white"/>
<path d="M32.8743 116.277C30.7252 116.277 28.9668 114.524 28.9668 112.381V110.155C28.9668 108.012 30.7252 106.259 32.8743 106.259C35.0235 106.259 36.7819 108.012 36.7819 110.155V112.381C36.7819 114.524 35.0235 116.277 32.8743 116.277Z" fill="#4B3F4E"/>
<path d="M32.8746 106.259C32.6835 106.259 32.5002 106.289 32.3164 106.316V111.824C32.3164 113.054 33.3161 114.051 34.5493 114.051C35.7825 114.051 36.7821 113.054 36.7821 111.824V110.155C36.7821 108.012 35.0236 106.259 32.8746 106.259Z" fill="#5D5360"/>
<path d="M32.8759 110.712C33.8008 110.712 34.5505 109.964 34.5505 109.042C34.5505 108.12 33.8008 107.373 32.8759 107.373C31.951 107.373 31.2012 108.12 31.2012 109.042C31.2012 109.964 31.951 110.712 32.8759 110.712Z" fill="white"/>
</svg>
