<svg width="550" height="791" viewBox="0 0 550 791" fill="none" xmlns="http://www.w3.org/2000/svg">
<mask id="mask0" mask-type="alpha" maskUnits="userSpaceOnUse" x="0" y="0" width="550" height="791">
<rect width="550" height="791" fill="#C4C4C4"/>
</mask>
<g mask="url(#mask0)">
<path d="M176.843 368.879C176.843 368.879 192.135 342.571 186.584 312.37C181.188 283.014 126.802 267.175 134.425 231.01C141.644 196.76 175.101 202.462 185.283 176.967C195.465 151.474 139.756 112.225 181.487 44.5709C221.803 -20.79 329.945 -17.4215 361.771 83.1891C376.633 130.172 356.567 173.92 382.505 205.969C394.401 220.668 410.796 225.594 427.111 230.484C446.367 236.256 465.509 241.975 477.003 263.655C498.233 303.701 455.318 346.033 399.395 331.218C353.984 319.188 335.699 311.723 316.388 324.652C293.866 339.731 302.873 360.302 284.115 370.098C272.547 376.138 260.397 370.442 248.47 364.847C241.054 361.368 233.725 357.928 226.673 357.371C204.214 355.598 180.381 373.891 180.381 373.891L176.843 368.879Z" fill="#FABB1E"/>
<path d="M180.381 373.892L176.843 368.88C176.843 368.88 177.938 366.995 179.436 363.657C180.919 360.35 182.798 355.616 184.4 349.871C186.087 350.847 187.829 351.779 189.622 352.662L190.116 351.65C188.306 350.759 186.55 349.818 184.849 348.832L184.536 349.377C187.283 339.316 189.136 326.254 186.584 312.371C181.188 283.015 126.802 267.175 134.425 231.01C135.157 227.532 136.162 224.465 137.384 221.737C147.994 198.055 175.079 199.795 184.742 178.248C184.929 177.83 185.11 177.403 185.283 176.967C194.735 153.303 147.414 117.789 173.947 58.7048C175.999 54.1366 178.492 49.4273 181.487 44.5711C181.571 44.4347 181.654 44.3009 181.739 44.1661C183.261 48.0619 185.223 52.3955 187.568 57.0209C182.964 64.1867 181.79 73.4147 185.219 81.9174C187.935 88.6492 193.036 93.6899 199.147 96.455C202.73 98.0765 206.66 98.9158 210.661 98.8533L210.666 98.8557C211.081 98.849 211.492 98.834 211.91 98.8056C212.097 98.7932 212.284 98.7791 212.477 98.7641C212.696 98.7477 212.916 98.7257 213.134 98.7008C213.356 98.679 213.579 98.6501 213.797 98.6199C213.981 98.5979 214.167 98.5687 214.355 98.5398C214.358 98.5396 214.361 98.5394 214.365 98.5379C214.753 99.0214 215.14 99.498 215.526 99.9656L215.143 100.449C210.822 105.605 207.398 111.477 204.583 117.511C208.868 112.367 212.898 107.21 217.548 102.589C217.578 102.556 217.608 102.524 217.638 102.493C218.263 103.225 218.883 103.937 219.496 104.63C218.467 105.711 217.461 106.814 216.48 107.94C213.064 111.882 209.9 116.059 207.074 120.468C201.385 129.256 197.275 139.167 195.242 149.481C193.334 159.821 193.583 170.515 196.056 180.542C198.379 190.625 202.778 199.968 208.044 208.555C213.371 217.136 219.778 224.896 226.666 232.084C233.575 239.266 241.027 245.846 248.774 252.009C241.47 245.32 234.518 238.26 228.196 230.701C221.894 223.139 216.16 215.102 211.609 206.484C207.112 197.864 203.594 188.735 202.108 179.309C200.471 169.919 200.963 160.333 203.275 151.299C207.236 136.41 216.303 123.377 227.638 112.944C229.082 114.238 230.447 115.348 231.715 116.257C229.77 117.768 227.894 119.375 226.08 121.048C221.605 125.182 217.562 129.832 214.142 134.969C210.727 140.093 208.044 145.822 206.638 151.905C205.953 154.946 205.613 158.067 205.692 161.168C205.849 164.268 206.369 167.327 207.394 170.188C207.267 167.144 207.312 164.179 207.71 161.268C208.099 158.357 208.841 155.532 209.732 152.776C211.597 147.278 214.357 142.123 217.573 137.25C219.15 134.789 220.883 132.419 222.71 130.113C224.494 127.771 226.438 125.548 228.366 123.3C230.091 121.351 231.855 119.431 233.656 117.531C234.226 117.87 234.772 118.157 235.29 118.391C237.203 119.257 238.742 119.398 239.8 118.711C242.18 117.16 241.742 111.676 239.082 103.82C245.555 99.3383 252.467 95.3567 259.647 91.8523C263.917 89.7207 268.297 87.7774 272.713 85.9475C274.917 85.0274 277.143 84.1554 279.371 83.3236C281.567 82.4986 283.908 81.6623 285.952 81.0107L280.483 65.4082C277.883 66.4455 275.633 67.4388 273.267 68.5193C270.93 69.5819 268.622 70.6788 266.338 71.8243C261.762 74.1058 257.25 76.4983 252.835 79.0976C246.357 82.8443 240.061 86.9877 234.049 91.6023C233.62 90.6896 233.172 89.7607 232.708 88.8211C237.518 84.9209 242.586 81.3291 247.817 77.9606C253.329 74.4277 259.005 71.1353 264.928 68.0914C258.408 69.5308 252.16 72.0917 246.219 75.1752C244.744 75.9673 243.258 76.7478 241.813 77.5994L237.53 80.2484C236.788 80.7546 236.047 81.2642 235.31 81.7806C237.798 75.5141 237.975 68.3107 235.255 61.5634C232.54 54.8319 227.438 49.7908 221.328 47.026C217.729 45.3975 213.779 44.559 209.76 44.6299C209.376 44.6355 208.99 44.6505 208.605 44.6736L208.604 44.6748C207.278 44.7555 205.948 44.936 204.624 45.2211C204.667 45.2111 204.711 45.2012 204.754 45.1926C200.031 39.3462 195.549 34.5101 191.651 31.0266C218.83 1.00742 263.072 -7.8106 300.772 9.24755C326.819 21.0335 349.743 45.1662 361.771 83.1893C376.633 130.172 356.567 173.92 382.505 205.969C388.936 213.916 396.682 219.006 405.019 222.778C412.104 225.984 419.616 228.238 427.111 230.484C434.604 232.73 442.082 234.969 449.098 238.143C451.728 239.333 454.29 240.654 456.767 242.157L449.257 249.897C448.846 249.951 448.435 250.008 448.026 250.065L448.159 251.029L447.61 251.594L450.59 250.863L447.61 251.594L468.955 252.108C471.922 255.369 474.625 259.17 477.003 263.656C484.052 276.952 484.03 290.501 478.807 302.126C468.301 325.512 436.75 341.114 399.396 331.219C359.283 320.593 340.335 313.528 323.15 320.934C323.867 320.354 324.583 319.772 325.302 319.188L324.596 318.312C323.031 319.585 321.472 320.848 319.917 322.1L320.145 322.388C318.892 323.059 317.643 323.812 316.388 324.653C313.74 326.424 311.528 328.273 309.657 330.17C309.529 330.269 309.401 330.366 309.273 330.464L309.316 330.522C305.714 334.265 303.402 338.195 301.648 342.109C299.302 347.341 297.952 352.545 295.847 357.238C293.566 362.327 290.397 366.817 284.115 370.098C274.068 375.344 263.581 371.736 253.183 367.031C251.61 366.319 250.037 365.583 248.47 364.847C246.901 364.111 245.337 363.377 243.778 362.672C243.329 362.469 242.881 362.268 242.434 362.07L242.39 361.507C242.033 361.534 241.676 361.561 241.319 361.586C236.35 359.447 231.449 357.749 226.673 357.372C221.372 356.953 215.991 357.653 210.867 358.966C210.499 358.882 210.132 358.795 209.768 358.708L209.626 359.297C193.601 363.744 180.381 373.892 180.381 373.892ZM202.574 356.686C200.651 356.065 198.775 355.392 196.947 354.672L196.538 355.721C198.387 356.45 200.285 357.129 202.231 357.758L202.574 356.686ZM255.602 359.353C253.676 359.827 251.731 360.235 249.768 360.574L249.96 361.684C251.947 361.341 253.917 360.926 255.869 360.447L255.602 359.353ZM268.352 355.224C266.496 355.967 264.627 356.655 262.745 357.283L263.099 358.352C265.004 357.717 266.892 357.021 268.767 356.27L268.352 355.224ZM280.53 349.507C278.759 350.457 276.981 351.36 275.191 352.216L275.675 353.234C277.479 352.37 279.272 351.458 281.057 350.502L280.53 349.507ZM292.131 342.632C290.438 343.724 288.743 344.784 287.041 345.806L287.616 346.773C289.329 345.744 291.036 344.678 292.738 343.578L292.131 342.632ZM303.252 334.961C301.623 336.15 299.993 337.313 298.36 338.448L298.999 339.375C300.64 338.233 302.276 337.064 303.911 335.872L303.252 334.961ZM335.085 309.733C333.525 311.01 331.972 312.282 330.426 313.549L331.134 314.423C332.681 313.155 334.234 311.882 335.793 310.607L335.085 309.733ZM345.615 301.193C344.042 302.452 342.479 303.713 340.923 304.974L341.628 305.851C343.183 304.591 344.744 303.331 346.314 302.074L345.615 301.193ZM405.467 318.061L405.466 318.062C405.466 318.062 407.476 325.163 413.018 327.671C415.4 328.749 418.432 328.977 422.239 327.43C434.643 322.383 428.07 309.514 427.8 308.997L398.072 235.284L375.748 244.366L386.909 272.046C386.204 272.457 385.501 272.872 384.8 273.289L385.373 274.258C386.024 273.869 386.678 273.483 387.335 273.1L405.467 318.061ZM356.295 292.833C354.694 294.054 353.104 295.284 351.524 296.517L352.213 297.407C353.79 296.176 355.376 294.948 356.973 293.73L356.295 292.833ZM367.19 284.812C365.551 285.971 363.926 287.145 362.312 288.329L362.975 289.238C364.582 288.058 366.203 286.888 367.837 285.732L367.19 284.812ZM378.406 277.243C376.716 278.325 375.04 279.425 373.378 280.541L374.001 281.476C375.656 280.366 377.325 279.271 379.009 278.193L378.406 277.243ZM414.545 258.719C412.659 259.436 410.794 260.185 408.949 260.963L409.384 262.002C411.217 261.228 413.069 260.485 414.942 259.773L414.545 258.719ZM255.768 119.26L255.728 119.242L255.323 119.699L255.176 119.886L252.663 122.762C236.988 136.58 305.926 213.847 331.101 225.243C334.615 226.834 337.273 227.139 338.733 225.812L339.258 225.219L341.442 222.777L342.474 221.613L342.302 221.515C344.932 215.37 333.057 201.505 330.321 194.549C330.765 194.711 331.24 194.909 331.736 195.134C333.371 195.873 335.243 196.902 337.074 197.911C338.902 198.92 340.688 199.909 342.144 200.568C343.421 201.146 344.445 201.469 345.026 201.333C345.289 201.289 347.859 198.37 348.605 197.509L348.705 197.394L348.807 197.281L348.775 197.253C348.955 196.779 348.756 195.874 348.035 194.447C337.169 172.575 297.231 131.226 272.504 120.038C265.265 116.762 259.336 116.071 255.815 119.207L255.768 119.26ZM427.409 254.435C425.467 254.991 423.546 255.582 421.646 256.204L421.994 257.274C423.88 256.657 425.788 256.071 427.716 255.52L427.409 254.435ZM440.595 251.295C438.607 251.675 436.644 252.093 434.7 252.546L434.953 253.642C436.882 253.192 438.832 252.779 440.804 252.401L440.595 251.295ZM319.929 184.272C318.158 183.47 316.151 182.063 314.257 180.197C312.749 178.697 311.521 177.132 310.671 175.645C310.052 174.574 309.626 173.558 309.424 172.665C309.231 171.798 309.248 171.047 309.504 170.476C309.571 170.328 309.655 170.191 309.754 170.07C309.754 170.068 309.754 170.068 309.755 170.067C309.758 170.065 309.759 170.061 309.762 170.058C309.763 170.057 309.765 170.055 309.766 170.054C309.768 170.052 309.77 170.049 309.772 170.047C309.775 170.043 309.777 170.039 309.78 170.036C309.782 170.035 309.783 170.033 309.784 170.032C309.786 170.03 309.789 170.026 309.791 170.024C309.793 170.023 309.793 170.022 309.794 170.02C309.797 170.017 309.8 170.013 309.803 170.011C309.804 170.01 309.804 170.01 309.804 170.008C309.811 170 309.82 169.992 309.827 169.984L309.827 169.983C309.83 169.979 309.834 169.976 309.837 169.972C309.839 169.971 309.839 169.971 309.839 169.97C309.843 169.967 309.846 169.963 309.848 169.961C309.849 169.96 309.851 169.959 309.851 169.959C309.855 169.954 309.858 169.95 309.861 169.947C310.738 169.06 312.453 169.186 314.477 170.102C316.25 170.904 318.259 172.311 320.152 174.178C321.583 175.595 322.754 177.079 323.597 178.483C323.601 178.488 323.604 178.494 323.608 178.499C323.609 178.501 323.609 178.503 323.611 178.504C323.797 178.816 323.968 179.123 324.121 179.425C324.602 180.374 324.916 181.267 325.04 182.055C325.125 182.568 325.128 183.037 325.041 183.442C325.006 183.602 324.958 183.752 324.896 183.89C324.807 184.089 324.688 184.267 324.539 184.419C323.668 185.311 321.954 185.188 319.929 184.272ZM233.089 114.408C231.858 113.85 230.457 112.964 228.918 111.785C229.146 111.582 229.376 111.38 229.606 111.178C230.586 111.886 231.483 112.429 232.286 112.792C233.649 113.409 234.74 113.509 235.493 113.024C235.813 112.818 236.064 112.507 236.247 112.1C236.803 110.863 236.735 108.736 236.116 105.93C236.635 105.551 237.158 105.174 237.684 104.8C238.403 107.532 238.728 109.813 238.613 111.529C236.961 112.511 235.356 113.572 233.796 114.698C233.567 114.614 233.332 114.517 233.089 114.408ZM236 115.089C236.818 114.247 237.643 113.411 238.474 112.576C238.266 113.566 237.85 114.285 237.217 114.697C236.867 114.926 236.46 115.055 236 115.089ZM220.365 103.727C219.741 103.049 219.107 102.347 218.465 101.619C218.685 101.392 218.905 101.167 219.128 100.943C219.764 101.681 220.391 102.391 221.007 103.071C220.792 103.289 220.578 103.507 220.365 103.727ZM216.252 99.0472C216.046 98.8045 215.84 98.5581 215.635 98.3101C215.993 98.2367 216.352 98.154 216.709 98.0635C216.765 98.1314 216.819 98.1972 216.874 98.2648C216.818 98.3318 216.764 98.3994 216.71 98.4688L216.252 99.0472ZM223.238 100.869C222.582 100.296 221.893 99.6529 221.177 98.9435C222.296 97.8753 223.427 96.8206 224.536 95.7476C225.824 94.647 227.079 93.5082 228.353 92.3948C228.751 93.4201 229.103 94.3945 229.403 95.311C228.782 95.8272 228.163 96.3494 227.549 96.8754C226.083 98.1868 224.644 99.5138 223.238 100.869ZM231.709 93.4339C231.305 92.5197 230.877 91.5868 230.429 90.6326C230.875 90.2681 231.328 89.9097 231.788 89.5611C232.238 90.5094 232.669 91.4403 233.078 92.3534C232.62 92.7113 232.163 93.0712 231.709 93.4339ZM188.295 55.948C185.891 51.016 184.002 46.5011 182.715 42.6344C183.047 42.1228 183.383 41.619 183.724 41.1161C184.805 44.8549 186.668 49.5179 189.182 54.7715C188.875 55.1562 188.579 55.548 188.295 55.948ZM191.054 52.6603C188.819 47.1061 187.914 42.9545 188.715 41.1589C188.858 40.8352 189.057 40.5891 189.314 40.4236C189.903 40.0445 190.756 40.1224 191.824 40.6056C193.757 41.4803 196.392 43.6823 199.434 46.8985C196.211 48.3095 193.394 50.285 191.054 52.6603ZM201.903 45.9553C197.137 40.2344 192.776 35.9205 189.413 33.5933C189.778 33.1574 190.146 32.7289 190.517 32.3025C194.216 35.1536 198.702 39.7006 203.526 45.4806C202.984 45.6206 202.443 45.7793 201.903 45.9553Z" fill="#FDDB79"/>
<path d="M154.541 188.947C147.827 194.083 141.798 199.198 136.755 204.829C131.706 210.427 127.864 216.515 125.699 223.096C124.584 226.377 123.877 229.808 123.623 233.363C123.328 236.912 123.341 240.583 123.751 244.339C124.419 251.884 126.339 259.637 128.191 267.951C121.979 262.129 117.33 254.748 114.558 246.334C113.113 242.15 112.398 237.629 112.281 233.039C112.276 231.886 112.253 230.733 112.349 229.577L112.7 226.108C113.124 223.816 113.596 221.519 114.353 219.3C115.85 214.864 118.077 210.695 120.877 207.067C123.673 203.433 126.98 200.309 130.577 197.748C134.18 195.19 138.048 193.148 142.066 191.632C146.098 190.169 150.262 189.088 154.541 188.947Z" fill="#FABB1E"/>
<path d="M128.191 267.951C121.979 262.129 117.33 254.748 114.559 246.334C113.114 242.15 112.398 237.629 112.281 233.039C112.276 231.887 112.253 230.733 112.349 229.577L112.7 226.108C113.125 223.816 113.596 221.519 114.354 219.3C114.792 218 115.293 216.724 115.853 215.477C117.204 212.468 118.897 209.633 120.877 207.067C123.673 203.433 126.98 200.309 130.577 197.748C134.18 195.19 138.048 193.148 142.066 191.632C146.098 190.169 150.262 189.088 154.541 188.948C147.827 194.083 141.798 199.198 136.755 204.829C132.791 209.224 129.571 213.922 127.322 218.923C126.707 220.291 126.164 221.683 125.699 223.096C124.584 226.377 123.877 229.808 123.624 233.363C123.328 236.912 123.341 240.583 123.751 244.34C124.42 251.884 126.34 259.637 128.191 267.951Z" fill="#FDDB79"/>
<path d="M259.26 381.667C265.059 381.884 270.173 382.281 275.018 382.212C279.838 382.18 284.227 381.681 288.025 380.4C291.821 379.125 295.23 377.124 298.571 373.961C301.942 370.837 305.06 366.761 308.819 362.27C309.904 368.04 308.97 373.972 306.186 379.507C304.741 382.23 302.823 384.867 300.306 386.988C297.827 389.129 294.866 390.792 291.751 391.814C285.467 393.899 278.938 393.369 273.382 391.481C270.584 390.518 267.965 389.221 265.579 387.595C263.211 385.948 260.992 384.08 259.26 381.667Z" fill="#FABB1E"/>
<path d="M270.415 390.304C268.718 389.536 267.101 388.633 265.579 387.595C263.211 385.949 260.992 384.08 259.26 381.667C265.059 381.884 270.173 382.281 275.018 382.212C279.838 382.18 284.227 381.681 288.025 380.4C291.821 379.125 295.23 377.124 298.571 373.961C301.942 370.837 305.059 366.761 308.819 362.27C309.824 367.612 309.097 373.093 306.774 378.268C306.588 378.683 306.391 379.096 306.186 379.507C304.741 382.23 302.823 384.867 300.306 386.988C297.826 389.129 294.866 390.792 291.751 391.814C285.467 393.899 278.938 393.369 273.382 391.481C272.369 391.133 271.379 390.74 270.415 390.304Z" fill="#FDDB79"/>
<path d="M349.317 33.1493C353.797 34.9969 357.755 37.9061 361.444 41.0676C363.213 42.7213 365.05 44.3649 366.62 46.2249C367.446 47.1257 368.244 48.0532 369.045 48.9839C369.798 49.9455 370.535 50.9198 371.25 51.9139C377.043 59.8323 381.247 68.9047 383.982 78.3432C385.045 83.1316 386.306 87.8972 386.633 92.784L386.986 96.4276C387.11 97.6399 387.227 98.851 387.178 100.072C387.181 102.507 387.128 104.937 387.052 107.355C387.053 109.775 386.724 112.181 386.36 114.571C386.017 116.962 385.623 119.339 385.202 121.693C384.72 124.045 383.963 126.356 383.269 128.651C382.559 130.945 381.763 133.21 380.877 135.433C380.04 130.611 379.765 125.957 379.332 121.353C379.019 119.049 378.732 116.764 378.498 114.497C378.363 113.362 378.272 112.231 378.169 111.102C378.082 109.974 377.793 108.86 377.653 107.741C377.294 105.508 376.958 103.287 376.678 101.068C376.571 99.954 376.287 98.8672 376.076 97.7734L375.416 94.4998C374.967 92.3221 374.703 90.114 374.036 88.0002L372.462 81.5676C370.005 73.1093 367.043 64.8361 363.231 56.7896C359.423 48.7201 354.958 40.8951 349.317 33.1493Z" fill="#FABB1E"/>
<path d="M380.877 135.433C380.04 130.611 379.765 125.957 379.332 121.353C379.02 119.049 378.732 116.764 378.498 114.497C378.363 113.362 378.272 112.231 378.169 111.102C378.082 109.974 377.793 108.86 377.653 107.741C377.294 105.508 376.958 103.287 376.678 101.068C376.571 99.9539 376.287 98.8671 376.076 97.7734L375.416 94.4998C374.967 92.322 374.703 90.114 374.036 88.0002L372.462 81.5676C370.005 73.1093 367.043 64.8361 363.231 56.7896C359.423 48.7201 354.958 40.8951 349.317 33.1493C349.634 33.2796 349.949 33.4154 350.261 33.5566C354.356 35.4097 358.015 38.1308 361.444 41.0676C363.213 42.7213 365.05 44.3648 366.62 46.2249C367.446 47.1257 368.244 48.0532 369.045 48.9839C369.798 49.9455 370.535 50.9198 371.25 51.9139C377.043 59.8323 381.248 68.9047 383.982 78.3432C385.045 83.1316 386.306 87.8972 386.633 92.784L386.986 96.4276C387.11 97.6398 387.227 98.851 387.178 100.072C387.182 102.507 387.128 104.937 387.052 107.355C387.053 109.775 386.724 112.181 386.36 114.571C386.017 116.962 385.623 119.339 385.202 121.693C384.72 124.044 383.963 126.356 383.269 128.651C382.559 130.945 381.763 133.21 380.877 135.433Z" fill="#FDDB79"/>
<path d="M220.373 96.8672C206.557 102.487 190.819 95.7942 185.222 81.9176C179.626 68.0414 186.29 52.2364 200.107 46.6155C213.924 40.9949 229.661 47.6875 235.258 61.5637C240.854 75.4413 234.19 91.2465 220.373 96.8672Z" fill="#33535F"/>
<path d="M223.452 95.3845C223.31 93.6238 222.85 90.2053 221.006 85.7239C218.776 80.2939 210.053 68.3126 207.548 61.165C204.016 51.1172 206.727 46.5655 208.605 44.6743C212.11 44.465 215.577 44.9467 218.835 46.0483C217.432 48.4955 213.372 56.4312 220.888 71.3883C224.771 79.1029 231.705 83.1217 234.056 84.4884C231.69 88.9623 228.071 92.7869 223.452 95.3845Z" fill="#273E47"/>
<path d="M205.309 98.3989C196.565 96.7616 188.808 90.8187 185.219 81.9213C183.961 78.8003 183.322 75.5843 183.247 72.4074C184.428 72.6981 186.616 73.5319 188.072 74.3815C194.531 78.1426 197.895 86.2139 198.869 89.4298C200.423 94.5789 203.487 97.2057 205.309 98.3989Z" fill="#273E47"/>
<path d="M219.492 97.207C219.261 97.2951 219.032 97.3724 218.798 97.4511C218.588 97.5272 218.375 97.5923 218.162 97.6589C217.679 97.8079 217.197 97.9458 216.713 98.064C216.277 98.1732 215.837 98.274 215.4 98.358C215.237 98.3929 215.075 98.4166 214.91 98.4473C214.724 98.4802 214.54 98.5138 214.358 98.5403C214.171 98.5693 213.984 98.5985 213.8 98.6205C213.583 98.6507 213.359 98.6796 213.138 98.7014C212.919 98.7263 212.699 98.7483 212.48 98.7646C212.288 98.7796 212.1 98.7938 211.913 98.8062C211.495 98.8346 211.084 98.8496 210.67 98.8563L210.663 98.8534C209.096 98.0601 207.626 96.331 206.146 93.1002C203.939 88.3014 203.327 81.2695 198.841 72.2195C194.609 63.6668 188.013 59.7878 186.549 58.7581L186.547 58.7539C189.141 53.9779 193.172 49.9577 198.335 47.4119C199.624 48.5652 203.086 52.9959 204.862 68.2909C205.536 74.1076 206.584 78.7604 207.823 82.4805C211.454 93.349 216.759 96.2685 219.372 97.0767L219.374 97.081L219.492 97.207Z" fill="#273E47"/>
<path d="M219.104 58.7818C217.993 59.2345 216.562 58.2854 215.908 56.662C215.253 55.0395 215.623 53.3572 216.733 52.9059C217.845 52.4534 219.276 53.4026 219.93 55.0262C220.585 56.6484 220.215 58.3307 219.104 58.7818Z" fill="#17282F"/>
<path d="M212.298 54.794C211.672 55.0479 210.846 54.465 210.453 53.4917C210.06 52.5183 210.249 51.5216 210.876 51.268C211.502 51.0128 212.328 51.5959 212.721 52.569C213.114 53.544 212.924 54.5388 212.298 54.794Z" fill="#17282F"/>
<path d="M204.07 93.2911C203.121 93.677 201.887 92.839 201.314 91.4185C200.741 89.9993 201.046 88.5348 201.997 88.148C202.946 87.762 204.179 88.6002 204.752 90.0205C205.325 91.441 205.02 92.9043 204.07 93.2911Z" fill="#17282F"/>
<path d="M199.865 90.4686C199.36 90.6746 198.732 90.2969 198.462 89.6278C198.192 88.9588 198.382 88.2492 198.887 88.0445C199.392 87.8383 200.021 88.2149 200.291 88.884C200.561 89.553 200.37 90.2624 199.865 90.4686Z" fill="#17282F"/>
<path d="M201.043 88.1085C200.74 88.2323 200.355 87.9869 200.184 87.5594C200.012 87.1318 200.119 86.6861 200.422 86.5623C200.726 86.439 201.11 86.6841 201.282 87.1118C201.454 87.5379 201.347 87.9849 201.043 88.1085Z" fill="#17282F"/>
<path d="M189.053 76.2233C188.204 76.5676 187.145 75.9269 186.687 74.7907C186.229 73.6541 186.546 72.4535 187.394 72.1092C188.242 71.7634 189.302 72.4043 189.759 73.5418C190.218 74.6768 189.902 75.878 189.053 76.2233Z" fill="#17282F"/>
<path d="M192.095 74.0464C191.61 74.2437 191.038 73.9601 190.817 73.4122C190.596 72.8641 190.81 72.261 191.295 72.0621C191.78 71.8662 192.351 72.1496 192.573 72.6977C192.794 73.2458 192.579 73.8489 192.095 74.0464Z" fill="#17282F"/>
<path d="M216.711 98.0642C212.021 92.3364 206.928 85.2881 201.929 77.4457C196.784 69.3855 192.442 61.5853 189.185 54.7764C183.398 42.6799 181.054 33.7099 183.776 31.9587C186.451 30.2321 193.559 35.9356 201.906 45.9584C201.303 46.1565 200.702 46.3753 200.106 46.6178C199.882 46.7093 199.66 46.8048 199.437 46.9017C194.714 41.9086 190.972 39.3571 189.315 40.4244C187.633 41.5078 188.419 46.1098 191.056 52.6631C193.638 59.0758 197.993 67.363 203.526 76.0355C209.071 84.7244 214.757 92.1712 219.491 97.2071C224.298 102.332 228.121 104.965 229.803 103.883C231.452 102.818 230.714 98.3538 228.194 91.9886C228.883 91.3794 229.54 90.7281 230.152 90.0498C235.896 102.09 238.208 111.276 235.494 113.025C232.731 114.804 225.416 108.702 216.711 98.0642Z" fill="#FABB1E"/>
<path d="M232.285 112.792C231.482 112.429 230.585 111.887 229.605 111.178C231.465 109.552 233.379 107.994 235.336 106.506C235.595 106.313 235.854 106.122 236.115 105.931C236.734 108.736 236.802 110.864 236.246 112.101C236.063 112.508 235.812 112.819 235.492 113.025C234.739 113.51 233.648 113.41 232.285 112.792Z" fill="#D59814"/>
<path d="M221.009 103.072C220.393 102.392 219.766 101.682 219.13 100.944C219.803 100.267 220.49 99.6023 221.179 98.9442C221.895 99.6536 222.584 100.296 223.24 100.87C222.486 101.596 221.742 102.33 221.009 103.072Z" fill="#D59814"/>
<path d="M216.874 98.2648C216.819 98.1971 216.764 98.1314 216.709 98.0634C212.019 92.3356 206.926 85.2873 201.927 77.4449C201.074 76.1102 200.243 74.7805 199.437 73.4619C195.372 66.8265 191.9 60.4574 189.183 54.7756C184.086 44.1198 181.659 35.8914 183.014 32.884C183.198 32.4778 183.45 32.1669 183.774 31.9579C184.531 31.4686 185.644 31.575 187.038 32.2059C190.572 33.8048 195.919 38.771 201.904 45.9576C201.301 46.1557 200.7 46.3746 200.104 46.617C199.88 46.7085 199.658 46.8041 199.435 46.9009C196.393 43.6828 193.757 41.4803 191.823 40.6056C190.756 40.1224 189.903 40.0445 189.313 40.4236C189.057 40.5891 188.858 40.8352 188.714 41.1588C187.914 42.9544 188.818 47.1077 191.054 52.6624C193.636 59.075 197.991 67.3622 203.524 76.0347C208.752 84.2259 214.105 91.3144 218.667 96.3174L218.403 96.5999C217.899 97.1608 217.356 97.6843 216.874 98.2648Z" fill="#D59814"/>
<path d="M229.404 95.3112C229.104 94.3947 228.752 93.4203 228.354 92.395C229.037 91.798 229.726 91.2075 230.429 90.6328C230.878 91.587 231.305 92.52 231.709 93.4341C230.935 94.0523 230.168 94.6768 229.404 95.3112Z" fill="#D59814"/>
<path d="M214.365 98.5373C209.666 92.6952 204.738 85.8635 199.917 78.3849L199.911 78.382C195.111 70.9477 190.944 63.679 187.569 57.0213C179.24 40.5858 175.744 27.8412 179.583 25.3403C183.387 22.8659 193.366 31.0974 204.755 45.193C204.346 45.2799 203.938 45.3783 203.532 45.4862C193.814 33.8401 185.464 27.1989 182.17 29.3471C178.842 31.5128 181.536 42.0743 188.296 55.9502C191.572 62.6638 195.793 70.1506 200.752 77.8402C205.738 85.5714 210.852 92.5434 215.635 98.3084C225.444 110.116 233.904 116.858 237.219 114.698C240.495 112.563 237.917 102.248 231.348 88.6403C231.611 88.3078 231.867 87.9726 232.114 87.6262C240.228 103.771 243.596 116.239 239.802 118.711C235.968 121.203 225.858 112.825 214.365 98.5373Z" fill="#FABB1E"/>
<path d="M371.099 35.8583C370.477 36.0381 369.827 35.678 369.647 35.0548C369.467 34.4296 369.825 33.7779 370.446 33.5961C371.068 33.4149 371.719 33.775 371.898 34.3996C372.079 35.0234 371.72 35.6779 371.099 35.8583Z" fill="#E7E8E5"/>
<path d="M248.773 252.009C241.027 245.847 233.574 239.266 226.665 232.085C219.777 224.896 213.37 217.137 208.043 208.556C202.777 199.968 198.378 190.625 196.055 180.543C193.582 170.516 193.333 159.822 195.241 149.481C197.274 139.167 201.384 129.257 207.073 120.469C209.899 116.06 213.063 111.883 216.479 107.94C217.46 106.815 218.466 105.712 219.495 104.63C222.388 107.896 225.131 110.699 227.637 112.945C216.302 123.378 207.235 136.411 203.274 151.299C200.962 160.334 200.47 169.92 202.107 179.31C203.593 188.735 207.111 197.864 211.608 206.484C216.159 215.102 221.893 223.14 228.196 230.702C234.517 238.26 241.469 245.321 248.773 252.009ZM228.917 111.786C226.389 109.846 223.489 107.111 220.364 103.727C220.577 103.507 220.791 103.289 221.006 103.072C224.242 106.652 227.176 109.423 229.605 111.178C229.375 111.38 229.145 111.583 228.917 111.786ZM227.284 103.701C226.154 103.19 224.786 102.224 223.237 100.87C224.643 99.5143 226.082 98.1873 227.548 96.8759C228.162 96.3499 228.781 95.8277 229.402 95.3115C230.619 99.0215 231.008 101.779 230.396 103.152C230.252 103.472 230.055 103.717 229.8 103.882C229.209 104.262 228.354 104.185 227.284 103.701Z" fill="#FEF1C3"/>
<path d="M236.116 105.931C235.381 102.602 233.872 98.3165 231.709 93.4342C232.164 93.0715 232.62 92.7116 233.078 92.3537C235.198 97.0816 236.764 101.31 237.684 104.8C237.158 105.175 236.636 105.551 236.116 105.931Z" fill="#FEF1C3"/>
<path d="M239.078 103.82C237.854 100.199 236.156 96.0774 234.046 91.6023C240.058 86.9878 246.354 82.8444 252.831 79.0976C257.246 76.4983 261.758 74.1058 266.334 71.8243C268.618 70.6788 270.927 69.582 273.263 68.5193C275.629 67.4388 277.879 66.4455 280.479 65.4082L285.948 81.0108C283.905 81.6623 281.563 82.4987 279.367 83.3237C277.139 84.1554 274.913 85.0274 272.709 85.9476C268.293 87.7774 263.913 89.7207 259.644 91.8523C252.463 95.3568 245.551 99.3384 239.078 103.82Z" fill="#FEF1C3"/>
<path d="M229.606 111.178C227.176 109.423 224.243 106.651 221.006 103.072C221.74 102.33 222.484 101.596 223.238 100.87C224.786 102.224 226.155 103.189 227.285 103.701C228.355 104.185 229.21 104.262 229.801 103.882C230.056 103.717 230.253 103.472 230.397 103.152C231.009 101.779 230.62 99.0214 229.403 95.3114C230.167 94.6769 230.934 94.0524 231.709 93.4343C233.871 98.3165 235.381 102.602 236.116 105.931C235.855 106.122 235.596 106.313 235.337 106.505C233.38 107.993 231.465 109.552 229.606 111.178Z" fill="#ECD38D"/>
<path d="M227.639 112.944C225.133 110.698 222.39 107.896 219.497 104.63C219.785 104.327 220.075 104.027 220.366 103.727C223.491 107.111 226.391 109.846 228.919 111.786C228.49 112.168 228.063 112.555 227.639 112.944ZM237.685 104.8C236.764 101.31 235.199 97.0816 233.079 92.3537C233.402 92.1014 233.726 91.851 234.051 91.6026C236.161 96.0776 237.859 100.199 239.083 103.82C238.614 104.145 238.148 104.471 237.685 104.8Z" fill="#FDE390"/>
<path d="M207.394 170.188C206.368 167.327 205.848 164.269 205.691 161.168C205.613 158.067 205.952 154.946 206.638 151.905C208.043 145.822 210.727 140.093 214.141 134.969C217.561 129.832 221.604 125.182 226.08 121.048C227.894 119.375 229.77 117.768 231.715 116.257C232.389 116.74 233.037 117.165 233.655 117.531C231.855 119.431 230.091 121.351 228.365 123.3C226.437 125.549 224.494 127.771 222.709 130.113C220.883 132.419 219.149 134.789 217.573 137.25C214.356 142.123 211.596 147.278 209.732 152.776C208.84 155.532 208.099 158.357 207.71 161.268C207.312 164.18 207.266 167.144 207.394 170.188ZM233.795 114.698C235.356 113.572 236.96 112.511 238.613 111.529C238.588 111.905 238.542 112.255 238.474 112.576C237.642 113.411 236.818 114.247 236 115.089C235.362 115.136 234.624 115.002 233.795 114.698Z" fill="#FEF1C3"/>
<path d="M233.654 117.531C233.036 117.165 232.388 116.74 231.713 116.257C232.399 115.725 233.092 115.205 233.794 114.698C234.623 115.002 235.361 115.136 235.999 115.089C235.21 115.9 234.428 116.714 233.654 117.531ZM238.472 112.576C238.541 112.255 238.587 111.905 238.611 111.529C239.313 111.112 240.023 110.71 240.741 110.323C239.979 111.072 239.223 111.822 238.472 112.576Z" fill="#FDE390"/>
<path d="M204.586 117.512C207.401 111.477 210.825 105.606 215.145 100.45L215.528 99.9659C216.238 100.832 216.943 101.675 217.64 102.493C217.611 102.524 217.581 102.557 217.551 102.589C212.9 107.21 208.87 112.367 204.586 117.512ZM218.468 101.619C217.739 100.793 217.001 99.9356 216.254 99.0475L216.712 98.469C216.766 98.3996 216.821 98.3321 216.877 98.2651C217.64 99.1934 218.391 100.089 219.13 100.943C218.908 101.167 218.687 101.392 218.468 101.619ZM221.18 98.9438C220.634 98.4018 220.07 97.8225 219.493 97.2072C219.788 97.0984 220.081 96.9854 220.373 96.8672C221.444 96.4312 222.471 95.9342 223.454 95.3823C223.454 95.3839 223.454 95.3839 223.454 95.3841C225.179 94.4151 226.765 93.2731 228.197 91.9921C228.251 92.127 228.303 92.2611 228.355 92.395C227.081 93.5085 225.827 94.6473 224.539 95.7478C223.43 96.8209 222.299 97.8756 221.18 98.9438ZM229.022 91.221C229.303 90.9478 229.577 90.6696 229.844 90.3855C229.578 90.6701 229.304 90.948 229.022 91.221ZM230.431 90.6329C230.34 90.4402 230.247 90.2449 230.154 90.0498C230.461 89.7124 230.758 89.3694 231.046 89.0187C231.149 88.8939 231.25 88.7681 231.35 88.6421C231.499 88.9499 231.646 89.2571 231.791 89.5614C231.331 89.91 230.878 90.2684 230.431 90.6329ZM232.711 88.8214C232.515 88.4249 232.316 88.0269 232.115 87.6261C233.418 85.8144 234.492 83.8474 235.312 81.7809C236.049 81.2645 236.791 80.7549 237.532 80.2487L241.816 77.5997C243.261 76.7481 244.747 75.9676 246.221 75.1755C252.162 72.092 258.41 69.5311 264.93 68.0917C259.007 71.1356 253.332 74.428 247.82 77.9609C242.589 81.3294 237.52 84.9212 232.711 88.8214Z" fill="#FEF1C3"/>
<path d="M219.489 97.207C219.489 97.207 219.489 97.2068 219.488 97.2065C219.448 97.1638 219.408 97.1208 219.368 97.0782L219.368 97.0763L219.367 97.0761C219.135 96.8294 218.902 96.5758 218.667 96.3175L221.851 92.9078C222.214 92.5743 222.576 92.2373 222.937 91.9017C223.249 93.3806 223.384 94.5615 223.45 95.3821C222.468 95.9341 221.44 96.4311 220.369 96.8671C220.077 96.9853 219.784 97.0983 219.489 97.207ZM231.042 89.0185C231.145 88.8935 231.246 88.7679 231.347 88.6405L231.346 88.6419C231.246 88.7679 231.145 88.8937 231.042 89.0185ZM231.876 87.9496C231.917 87.8938 231.957 87.8395 231.997 87.7851C231.957 87.8395 231.917 87.8938 231.876 87.9496ZM232.111 87.6259C232.83 86.6238 233.48 85.5751 234.054 84.4878C233.694 84.2768 233.224 84.0051 232.674 83.6657C233.543 83.0262 234.423 82.3982 235.308 81.7807C234.488 83.8472 233.415 85.8142 232.112 87.6277" fill="#A6B7B9"/>
<path d="M223.452 95.3839C223.452 95.3836 223.452 95.3836 223.452 95.382C223.385 94.5614 223.251 93.3805 222.938 91.9016C225.04 89.9454 227.134 87.9707 229.395 86.2016C230.466 85.3261 231.563 84.4846 232.676 83.6656C233.226 84.005 233.695 84.2767 234.056 84.4877C233.481 85.575 232.832 86.6237 232.113 87.6261C232.113 87.6259 232.113 87.6259 232.113 87.6259C232.075 87.6794 232.037 87.7316 231.998 87.785C231.958 87.8394 231.918 87.8937 231.878 87.9495C231.705 88.1825 231.528 88.4106 231.347 88.6399C231.347 88.6402 231.347 88.6402 231.348 88.6404C231.247 88.7678 231.146 88.8934 231.044 89.0184C230.756 89.3691 230.459 89.7122 230.152 90.0495C230.152 90.0494 230.152 90.0494 230.151 90.0491C230.049 90.1612 229.947 90.2729 229.842 90.3853C229.574 90.6693 229.301 90.9475 229.02 91.2207C228.75 91.4824 228.475 91.7382 228.193 91.9879C228.194 91.9884 228.194 91.9903 228.194 91.9918C226.762 93.2728 225.176 94.4148 223.452 95.3839Z" fill="#A1AEB1"/>
<path d="M219.369 97.0786C219.369 97.0784 219.369 97.0782 219.369 97.0772L219.369 97.0773L219.369 97.0786Z" fill="#A1AEB1"/>
<path d="M219.128 100.943C218.389 100.088 217.637 99.1932 216.874 98.2649C217.357 97.6845 217.9 97.161 218.404 96.6L218.668 96.3175C218.945 96.6208 219.219 96.9176 219.49 97.2065C220.067 97.8221 220.631 98.4014 221.178 98.9436C220.488 99.6017 219.801 100.266 219.128 100.943Z" fill="#ECD38D"/>
<path d="M228.357 92.3957C228.305 92.2617 228.253 92.1276 228.198 91.9927C228.199 91.9911 228.198 91.9893 228.197 91.9888C228.885 91.3795 229.543 90.7282 230.155 90.05C230.248 90.2452 230.341 90.4405 230.433 90.6335C229.73 91.2081 229.04 91.7987 228.357 92.3957Z" fill="#ECD38D"/>
<path d="M217.639 102.494C216.942 101.676 216.237 100.833 215.527 99.9665L216.253 99.0481C217 99.9363 217.739 100.794 218.467 101.619C218.188 101.908 217.912 102.199 217.639 102.494ZM231.79 89.5621C231.645 89.2577 231.498 88.9506 231.349 88.6427L231.35 88.6414C231.349 88.6411 231.349 88.6411 231.348 88.6409C231.53 88.4115 231.706 88.1834 231.879 87.9504C231.92 87.8946 231.96 87.8403 232 87.7859C232.038 87.7326 232.076 87.6803 232.114 87.6268C232.315 88.0276 232.514 88.4256 232.71 88.8221C232.464 89.0221 232.22 89.2212 231.975 89.4218C231.913 89.468 231.851 89.5156 231.79 89.5621Z" fill="#FDE390"/>
<path d="M327.421 35.4452C327.268 34.9143 312.429 17.7508 289.66 23.1176C268.725 28.0527 253.281 48.0846 255.112 49.5539C257.355 51.3524 269.09 43.7587 285.059 43.8734C290.721 43.9137 297.32 49.3918 297.32 49.3918L327.421 35.4452Z" fill="#FABB1E"/>
<path d="M341.965 85.896C342.12 86.4288 338.708 108.899 316.606 116.581C296.286 123.644 272.573 114.999 273.34 112.775C274.276 110.051 288.238 110.173 301.674 101.506C306.44 98.4326 309.104 90.2626 309.104 90.2626L341.965 85.896Z" fill="#FABB1E"/>
<path d="M289.415 90.8077L280.446 59.7015C280.446 59.7015 298.537 38.5368 325.655 32.5056C339.191 29.5053 353.747 29.6773 366.232 31.3536C383.469 33.6417 396.724 38.8236 397.766 42.4399C398.813 46.0728 390.362 57.5492 377.014 68.7503C367.347 76.85 355.136 84.8068 342.097 89.5358C315.967 98.9907 289.415 90.8077 289.415 90.8077Z" fill="#E7E8E5"/>
<path d="M280.756 90.7372L273.161 64.3971L281.129 62.0793L288.723 88.4206L280.756 90.7372Z" fill="#FABB1E"/>
<path d="M343.296 74.9145C334.854 77.3701 326.028 72.4858 323.583 64.0068C321.138 55.5279 326.001 46.6645 334.444 44.2089C342.887 41.7533 351.712 46.6376 354.157 55.1166C356.602 63.5955 351.74 72.4595 343.296 74.9145Z" fill="#FABB1E"/>
<path d="M341.945 70.2119C336.088 71.9153 329.967 68.5278 328.269 62.6453C326.574 56.7654 329.946 50.6156 335.803 48.9121C341.661 47.2093 347.784 50.596 349.478 56.4786C351.174 62.3605 347.801 68.5084 341.945 70.2119Z" fill="#33535F"/>
<path d="M377.012 68.7505L366.23 31.3539C383.467 33.642 396.721 38.8239 397.764 42.4402C398.811 46.0731 390.36 57.5495 377.012 68.7505Z" fill="#FABB1E"/>
<path d="M373.169 43.0409C372.547 43.2208 371.897 42.8627 371.717 42.2375C371.537 41.6143 371.895 40.9591 372.517 40.7793C373.139 40.5995 373.79 40.9583 373.969 41.5829C374.149 42.2081 373.791 42.8598 373.169 43.0409Z" fill="#E7E8E5"/>
<path d="M375.238 50.224C374.615 50.4052 373.965 50.0451 373.786 49.4205C373.605 48.7967 373.964 48.1436 374.586 47.9624C375.208 47.7826 375.857 48.1421 376.038 48.7659C376.217 49.3905 375.86 50.0442 375.238 50.224Z" fill="#E7E8E5"/>
<path d="M377.318 57.4091C376.696 57.5889 376.045 57.2288 375.866 56.6056C375.685 55.9804 376.043 55.3287 376.666 55.1475C377.287 54.9657 377.937 55.3258 378.117 55.949C378.297 56.5742 377.939 57.2273 377.318 57.4091Z" fill="#E7E8E5"/>
<path d="M379.383 64.5922C378.761 64.7721 378.11 64.4133 377.93 63.7881C377.751 63.1635 378.108 62.5098 378.731 62.3306C379.352 62.1502 380.003 62.509 380.183 63.1341C380.362 63.7587 380.004 64.4104 379.383 64.5922Z" fill="#E7E8E5"/>
<path d="M142.501 259.718C142.194 260.663 141.917 261.638 141.673 262.643L142.762 262.911C143.001 261.933 143.27 260.984 143.567 260.067L142.501 259.718Z" fill="#17282F"/>
<path d="M140.458 270.164C140.285 272.129 140.209 274.163 140.232 276.252L141.353 276.239C141.331 274.186 141.406 272.189 141.574 270.264L140.458 270.164ZM140.724 283.839C140.956 285.813 141.267 287.819 141.662 289.846L142.763 289.629C142.373 287.631 142.066 285.653 141.839 283.708L140.724 283.839ZM143.446 297.227C144 299.146 144.628 301.072 145.33 303.001L146.383 302.613C145.69 300.709 145.07 298.807 144.523 296.913L143.446 297.227ZM148.221 310.015C149.06 311.832 149.968 313.642 150.946 315.436L151.93 314.895C150.964 313.124 150.067 311.336 149.238 309.541L148.221 310.015ZM154.848 321.938C155.95 323.611 157.117 325.264 158.351 326.888L159.243 326.204C158.025 324.6 156.872 322.969 155.784 321.317L154.848 321.938ZM163.187 332.723C164.529 334.208 165.933 335.66 167.402 337.077L168.178 336.264C166.728 334.867 165.342 333.432 164.017 331.965L163.187 332.723ZM173.075 342.092C174.627 343.348 176.24 344.565 177.91 345.736L178.553 344.813C176.902 343.656 175.312 342.455 173.779 341.215L173.075 342.092ZM184.288 349.808C186.011 350.806 187.788 351.759 189.621 352.662L190.115 351.65C188.305 350.759 186.55 349.818 184.848 348.832L184.288 349.808ZM196.537 355.721C198.386 356.45 200.284 357.129 202.23 357.758L202.574 356.686C200.65 356.065 198.774 355.392 196.946 354.672L196.537 355.721ZM209.505 359.803C211.432 360.268 213.402 360.684 215.418 361.049L215.617 359.94C213.622 359.579 211.674 359.167 209.767 358.708L209.505 359.803ZM222.888 362.139C224.855 362.361 226.861 362.533 228.904 362.659L228.972 361.534C226.948 361.411 224.96 361.239 223.013 361.02L222.888 362.139ZM236.449 362.887C238.48 362.876 240.489 362.788 242.477 362.63L242.389 361.507C240.425 361.664 238.445 361.75 236.443 361.761L236.449 362.887ZM249.959 361.684C251.946 361.341 253.916 360.926 255.868 360.447L255.601 359.353C253.675 359.827 251.73 360.235 249.768 360.574L249.959 361.684ZM263.098 358.352C265.003 357.717 266.891 357.021 268.766 356.27L268.352 355.224C266.495 355.967 264.626 356.655 262.744 357.283L263.098 358.352ZM275.674 353.234C277.478 352.37 279.271 351.458 281.057 350.502L280.529 349.507C278.758 350.457 276.98 351.36 275.19 352.216L275.674 353.234ZM287.615 346.773C289.328 345.744 291.035 344.678 292.737 343.578L292.13 342.632C290.438 343.724 288.742 344.784 287.04 345.806L287.615 346.773ZM298.998 339.375C300.639 338.233 302.275 337.064 303.91 335.872L303.251 334.961C301.622 336.15 299.992 337.313 298.359 338.448L298.998 339.375ZM309.95 331.361C311.539 330.148 313.128 328.916 314.718 327.669L314.027 326.782C312.441 328.026 310.856 329.255 309.272 330.464L309.95 331.361ZM320.617 322.979C322.174 321.727 323.736 320.461 325.301 319.188L324.595 318.312C323.03 319.585 321.471 320.848 319.916 322.1L320.617 322.979ZM331.133 314.423C332.68 313.155 334.233 311.882 335.793 310.607L335.084 309.733C333.524 311.01 331.971 312.282 330.425 313.549L331.133 314.423ZM341.627 305.851C343.182 304.591 344.743 303.33 346.313 302.074L345.614 301.193C344.041 302.451 342.478 303.713 340.922 304.974L341.627 305.851ZM352.212 297.407C353.789 296.176 355.375 294.948 356.972 293.73L356.294 292.833C354.693 294.054 353.104 295.284 351.523 296.517L352.212 297.407ZM362.975 289.238C364.582 288.058 366.202 286.888 367.836 285.732L367.189 284.812C365.55 285.971 363.925 287.145 362.312 288.329L362.975 289.238ZM374.001 281.476C375.655 280.366 377.324 279.271 379.008 278.193L378.406 277.243C376.715 278.325 375.039 279.425 373.377 280.541L374.001 281.476ZM385.372 274.258C387.087 273.234 388.817 272.233 390.566 271.253L390.018 270.269C388.261 271.253 386.522 272.262 384.799 273.289L385.372 274.258ZM397.171 267.709C398.945 266.801 400.736 265.916 402.546 265.06L402.069 264.04C400.247 264.903 398.444 265.792 396.66 266.706L397.171 267.709ZM409.383 262.002C411.216 261.228 413.068 260.485 414.941 259.773L414.544 258.719C412.658 259.436 410.793 260.185 408.948 260.963L409.383 262.002ZM421.993 257.274C423.879 256.657 425.787 256.071 427.715 255.52L427.408 254.435C425.466 254.991 423.545 255.582 421.645 256.204L421.993 257.274ZM434.952 253.642C436.881 253.192 438.832 252.778 440.803 252.401L440.594 251.295C438.607 251.675 436.643 252.093 434.7 252.546L434.952 253.642ZM448.179 251.18C450.139 250.906 452.118 250.668 454.122 250.468L454.011 249.347C451.993 249.549 449.997 249.788 448.025 250.065L448.179 251.18Z" fill="#17282F"/>
<path d="M461.897 249.897C462.884 249.848 463.879 249.81 464.878 249.781L464.846 248.657C463.839 248.685 462.838 248.723 461.842 248.772L461.897 249.897Z" fill="#17282F"/>
<path d="M466.185 232.452L447.611 251.595L471.169 245.811L548.684 251.69L466.185 232.452Z" fill="#FABB1E"/>
<path d="M447.611 251.595L466.185 232.452L548.684 251.69L548.243 251.657L526.948 250.042L471.169 245.811L447.611 251.595Z" fill="#F4AC12"/>
<path d="M471.014 252.158L447.611 251.595L471.169 245.811L471.014 252.158Z" fill="#FABB1E"/>
<path d="M447.611 251.595L471.169 245.811L471.014 252.158L447.611 251.595Z" fill="#B58418"/>
<path d="M471.169 245.811L548.684 251.691L470.009 280.524L471.169 245.811Z" fill="#FABB1E"/>
<path d="M466.186 232.453L446.55 201.97L548.684 251.691L466.186 232.453Z" fill="#FABB1E"/>
<path d="M282.254 273.964C272.487 301.795 253.02 302.897 248.239 309.825C245.674 313.581 241.144 323.58 241.144 323.58L211.407 316.825C211.407 316.825 211.619 305.846 210.894 301.342C209.566 293.028 192.445 283.616 195.572 254.278C197.613 234.998 218.35 208.535 249.82 215.682C281.288 222.83 288.652 255.676 282.254 273.964Z" fill="#FABB1E"/>
<path d="M219.276 320.523L221.15 271.009L219.655 270.952L217.781 320.464" fill="white"/>
<path d="M233.839 324.11L253.359 278.606L251.987 278.012L232.465 323.516" fill="white"/>
<path d="M220.377 272.953C220.377 272.967 220.297 275.19 220.675 277.644C220.866 278.872 221.17 280.157 221.669 281.263C222.169 282.365 222.872 283.309 223.897 283.777C224.092 283.865 224.299 283.935 224.516 283.984C225.842 284.268 227.214 283.459 228.467 282.229C229.723 280.987 230.874 279.263 231.669 277.493C232.334 276.008 232.75 274.496 232.734 273.186C232.727 271.888 232.231 270.717 231.055 270.19C230.86 270.102 230.65 270.033 230.425 269.982C229.744 269.822 229.098 269.95 228.582 270.306C228.064 270.66 227.67 271.211 227.366 271.887C226.336 274.21 226.278 278.129 227.059 281.807C227.856 285.474 229.473 288.918 232.1 290.129C232.384 290.257 232.68 290.358 232.984 290.428C235.13 290.907 237.277 289.788 239.137 288.017C241.004 286.236 242.62 283.762 243.711 281.335C244.52 279.527 245.038 277.751 245.128 276.281C245.173 275.545 245.112 274.881 244.902 274.321C244.697 273.763 244.321 273.302 243.78 273.058C243.647 272.998 243.506 272.952 243.357 272.918C242.531 272.726 241.745 272.948 241.114 273.435C240.479 273.923 239.973 274.658 239.577 275.538C238.693 277.516 238.357 280.257 238.736 282.774C239.116 285.278 240.221 287.605 242.36 288.579C242.659 288.715 242.976 288.822 243.311 288.899C244.383 289.137 245.45 288.675 246.436 287.943C249.385 285.734 251.995 280.808 252.013 280.79L251.354 280.434C251.354 280.435 251.069 280.968 250.579 281.768C249.845 282.964 248.654 284.745 247.334 286.127C246.674 286.819 245.983 287.409 245.319 287.779C244.651 288.15 244.032 288.293 243.477 288.167C243.19 288.101 242.921 288.01 242.667 287.895C240.874 287.092 239.834 285.038 239.474 282.66C239.114 280.293 239.446 277.651 240.259 275.847C240.618 275.042 241.072 274.411 241.567 274.034C242.066 273.657 242.582 273.516 243.192 273.651L243.472 273.743C243.812 273.9 244.042 274.165 244.203 274.586C244.697 275.845 244.214 278.414 243.029 281.027C241.976 283.374 240.397 285.784 238.623 287.471C236.844 289.169 234.91 290.104 233.149 289.696C232.894 289.638 232.647 289.553 232.407 289.444C230.179 288.459 228.543 285.215 227.791 281.649C227.022 278.098 227.119 274.24 228.048 272.196C228.313 271.601 228.642 271.17 229.002 270.928C229.363 270.686 229.75 270.602 230.26 270.713C230.441 270.755 230.602 270.808 230.748 270.874C231.592 271.263 231.96 272.045 231.986 273.197C232.003 274.336 231.624 275.771 230.988 277.184C230.23 278.873 229.115 280.536 227.943 281.694C226.768 282.865 225.55 283.467 224.681 283.252C224.514 283.214 224.354 283.16 224.204 283.092C223.421 282.741 222.809 281.966 222.35 280.953C221.662 279.438 221.346 277.432 221.215 275.816C221.148 275.008 221.126 274.297 221.119 273.788C221.114 273.28 221.124 272.98 221.124 272.98L220.377 272.953Z" fill="white"/>
<path d="M243.291 330.293L206.602 321.959L208.221 314.757L244.914 323.091L243.291 330.293Z" fill="#33535F"/>
<path d="M241.407 338.659L204.716 330.325L206.338 323.124L243.029 331.456L241.407 338.659Z" fill="#33535F"/>
<path d="M239.529 347.025L202.838 338.692L204.46 331.49L241.151 339.823L239.529 347.025Z" fill="#33535F"/>
<path d="M250.469 210.442C250.264 208.508 250.509 206.667 250.858 204.848C251.253 203.039 251.757 201.253 252.71 199.559C252.918 201.495 252.675 203.335 252.322 205.153C251.922 206.961 251.419 208.748 250.469 210.442Z" fill="#17282F"/>
<path d="M224.272 211.747C223.134 210.175 222.43 208.459 221.826 206.707C221.268 204.942 220.815 203.141 220.798 201.197C221.94 202.767 222.645 204.483 223.245 206.235C223.801 208.002 224.254 209.803 224.272 211.747Z" fill="#17282F"/>
<path d="M202.236 226.03C200.468 225.24 199.002 224.107 197.608 222.894C196.245 221.646 194.957 220.314 193.974 218.637C195.746 219.425 197.211 220.558 198.603 221.774C199.962 223.025 201.252 224.356 202.236 226.03Z" fill="#17282F"/>
<path d="M190.265 249.466C188.34 249.669 186.507 249.425 184.696 249.073C182.894 248.676 181.115 248.171 179.429 247.212C181.355 247.004 183.188 247.251 184.999 247.604C186.8 248.004 188.579 248.511 190.265 249.466Z" fill="#17282F"/>
<path d="M191.566 275.773C190 276.917 188.292 277.625 186.549 278.232C184.79 278.793 182.997 279.247 181.06 279.265C182.625 278.117 184.334 277.409 186.078 276.806C187.838 276.249 189.63 275.793 191.566 275.773Z" fill="#17282F"/>
<path d="M277.355 294.342C279.124 295.13 280.59 296.265 281.984 297.478C283.346 298.726 284.635 300.057 285.617 301.735C283.846 300.946 282.381 299.814 280.989 298.598C279.63 297.347 278.339 296.016 277.355 294.342Z" fill="#17282F"/>
<path d="M289.325 270.905C291.25 270.701 293.083 270.945 294.894 271.297C296.696 271.694 298.474 272.2 300.161 273.158C298.235 273.367 296.402 273.121 294.591 272.766C292.79 272.366 291.01 271.861 289.325 270.905Z" fill="#17282F"/>
<path d="M288.025 244.597C289.592 243.453 291.301 242.746 293.044 242.141C294.802 241.579 296.594 241.125 298.533 241.107C296.966 242.255 295.257 242.962 293.513 243.565C291.755 244.122 289.961 244.577 288.025 244.597Z" fill="#17282F"/>
<path d="M273.806 222.466C274.592 220.689 275.721 219.218 276.929 217.818C278.171 216.45 279.498 215.156 281.168 214.168C280.383 215.947 279.255 217.419 278.044 218.817C276.799 220.184 275.473 221.478 273.806 222.466Z" fill="#17282F"/>
<path d="M317.678 275.697L311.245 274.112L307.098 279.798L308.592 272.912L303.149 269.118L309.712 270.344L313.729 265.017L312.417 271.567L317.678 275.697Z" fill="white"/>
<path d="M453.747 317.668L447.313 316.085L443.167 321.771L444.659 314.884L439.217 311.09L445.78 312.314L449.798 306.988L448.487 313.539L453.747 317.668Z" fill="white"/>
<path d="M201.243 207.114L194.81 205.529L190.663 211.215L192.156 204.328L186.713 200.536L193.277 201.76L197.294 196.434L195.982 202.984L201.243 207.114Z" fill="white"/>
<path d="M263.781 24.5092L257.348 22.9258L253.201 28.6116L254.693 21.7248L249.252 17.9316L255.816 19.1557L259.832 13.8294L258.52 20.3794L263.781 24.5092Z" fill="white"/>
<path d="M455.807 284.584L452.21 283.698L449.892 286.877L450.727 283.027L447.686 280.908L451.354 281.593L453.599 278.614L452.866 282.277L455.807 284.584Z" fill="white"/>
<path d="M272.035 185.927L268.439 185.041L266.122 188.219L266.956 184.37L263.915 182.249L267.582 182.934L269.828 179.957L269.096 183.618L272.035 185.927Z" fill="white"/>
<path d="M366.639 209.479L363.042 208.594L360.724 211.772L361.559 207.923L358.518 205.803L362.186 206.488L364.43 203.51L363.698 207.172L366.639 209.479Z" fill="white"/>
<path d="M270.836 337.272L267.24 336.386L264.924 339.565L265.758 335.716L262.715 333.596L266.384 334.279L268.63 331.303L267.896 334.963L270.836 337.272Z" fill="white"/>
<path d="M179.122 206.948L175.527 206.063L173.209 209.24L174.044 205.391L171.002 203.272L174.67 203.955L176.915 200.978L176.182 204.639L179.122 206.948Z" fill="white"/>
<path d="M221.201 102.254L217.606 101.369L215.288 104.547L216.123 100.698L213.081 98.5782L216.749 99.2628L218.994 96.2846L218.261 99.9469L221.201 102.254Z" fill="white"/>
<path d="M344.073 298.975C342.835 298.415 341.967 300.346 343.206 300.907C344.444 301.467 345.314 299.536 344.073 298.975Z" fill="white"/>
<path d="M236.495 32.598C235.257 32.0378 234.387 33.9701 235.628 34.5313C236.866 35.0916 237.735 33.1592 236.495 32.598Z" fill="white"/>
<path d="M437.003 301.596C435.765 301.036 434.897 302.967 436.136 303.528C437.374 304.088 438.243 302.157 437.003 301.596Z" fill="white"/>
<path d="M341.932 123.002C340.694 122.442 339.826 124.373 341.066 124.934C342.304 125.494 343.172 123.563 341.932 123.002Z" fill="white"/>
<path d="M235.981 151.401C234.744 150.841 233.874 152.772 235.115 153.333C236.353 153.894 237.221 151.962 235.981 151.401Z" fill="white"/>
<path d="M195.9 112.419C194.662 111.859 193.793 113.791 195.033 114.352C196.271 114.913 197.141 112.98 195.9 112.419Z" fill="white"/>
<path d="M178.19 91.7289C177.314 91.3322 176.697 92.7029 177.575 93.1001C178.451 93.4967 179.068 92.126 178.19 91.7289Z" fill="white"/>
<path d="M267.445 285.427C266.568 285.03 265.952 286.401 266.83 286.798C267.707 287.195 268.324 285.824 267.445 285.427Z" fill="white"/>
<path d="M182.101 271.512C181.225 271.116 180.608 272.486 181.486 272.884C182.363 273.28 182.979 271.909 182.101 271.512Z" fill="white"/>
<path d="M321.004 295.525C318.631 294.451 316.965 298.154 319.342 299.23C321.716 300.304 323.382 296.601 321.004 295.525Z" fill="white"/>
<path d="M166.462 249.324C164.088 248.25 162.421 251.953 164.799 253.029C167.174 254.103 168.839 250.4 166.462 249.324Z" fill="white"/>
<path d="M321.928 262.85C320.189 265.343 316.768 265.947 314.284 264.201C311.801 262.453 311.199 259.017 312.939 256.523C314.678 254.029 318.101 253.425 320.584 255.172C323.066 256.918 323.668 260.356 321.928 262.85Z" fill="#33535F"/>
<path d="M334.365 237.687L337.799 240.104L321.964 262.798L318.531 260.382L334.365 237.687Z" fill="#33535F"/>
<path d="M341.058 266.522C339.318 269.014 335.896 269.62 333.413 267.872C330.93 266.126 330.329 262.689 332.067 260.196C333.808 257.702 337.23 257.096 339.713 258.844C342.196 260.591 342.798 264.028 341.058 266.522Z" fill="#33535F"/>
<path d="M353.5 241.36L356.933 243.776L341.098 266.471L337.666 264.055L353.5 241.36Z" fill="#33535F"/>
<path d="M356.905 243.824L332.252 240.72L334.369 237.687L359.023 240.79L356.905 243.824Z" fill="#33535F"/>
<path d="M352.91 249.544L328.258 246.441L330.375 243.406L355.027 246.509L352.91 249.544Z" fill="#33535F"/>
<path d="M229.998 187.468C228.805 189.177 226.459 189.591 224.758 188.393C223.057 187.197 222.644 184.841 223.836 183.132C225.028 181.423 227.375 181.009 229.076 182.205C230.777 183.403 231.19 185.759 229.998 187.468Z" fill="#33535F"/>
<path d="M238.521 170.221L240.875 171.877L230.022 187.431L227.668 185.776L238.521 170.221Z" fill="#33535F"/>
<path d="M249.308 171.843L251.661 173.499L248.524 177.995L246.17 176.34L249.308 171.843Z" fill="#33535F"/>
<path d="M251.242 174.096L237.067 172.3L238.518 170.221L252.693 172.016L251.242 174.096Z" fill="#33535F"/>
<path d="M248.511 178.017L234.337 176.221L235.788 174.141L249.963 175.936L248.511 178.017Z" fill="#33535F"/>
<path d="M282.516 319.936C281.324 321.646 278.978 322.061 277.277 320.863C275.575 319.666 275.162 317.31 276.356 315.6C277.547 313.891 279.893 313.476 281.594 314.674C283.296 315.871 283.708 318.229 282.516 319.936Z" fill="#33535F"/>
<path d="M291.039 302.689L293.393 304.346L282.539 319.902L280.186 318.244L291.039 302.689Z" fill="#33535F"/>
<path d="M301.825 304.31L304.18 305.967L301.042 310.464L298.687 308.807L301.825 304.31Z" fill="#33535F"/>
<path d="M303.767 306.566L289.592 304.771L291.043 302.69L305.218 304.487L303.767 306.566Z" fill="#33535F"/>
<path d="M301.031 310.485L286.855 308.69L288.307 306.61L302.482 308.406L301.031 310.485Z" fill="#33535F"/>
<path d="M320.15 174.178C324.198 178.171 326.158 182.758 324.537 184.419C322.905 186.09 318.313 184.199 314.255 180.197C310.21 176.203 308.239 171.607 309.859 169.947C311.5 168.285 316.093 170.177 320.15 174.178ZM342.3 221.515L339.568 220.077C337.077 211.214 324.136 197.085 327.219 194.364C327.779 193.878 328.886 194.031 330.319 194.549C332.225 195.246 334.686 196.596 337.072 197.911C340.503 199.803 343.779 201.626 345.024 201.333C345.287 201.289 347.857 198.371 348.603 197.509L348.703 197.395L348.805 197.281L348.773 197.253L339.116 189.003C321.003 162.738 278.837 122.702 259.485 120.966L255.766 119.26L255.726 119.242L255.321 119.699L255.174 119.886L252.661 122.762C234.796 138.51 326.814 236.652 338.731 225.812L339.256 225.219L341.44 222.777L342.472 221.613L342.3 221.515Z" fill="#FABB1E"/>
<path d="M309.858 169.947C311.499 168.285 316.092 170.177 320.149 174.179C324.197 178.171 326.157 182.758 324.536 184.419C322.904 186.091 318.313 184.199 314.254 180.197C310.209 176.204 308.238 171.607 309.858 169.947ZM342.299 221.516C344.929 215.371 333.054 201.505 330.318 194.55C329.653 192.873 329.53 191.589 330.267 190.926C331.625 189.724 336.079 192.103 340.283 194.371C344.084 196.419 347.681 198.377 348.602 197.509L348.702 197.395L348.772 197.254C348.952 196.78 348.753 195.874 348.032 194.448C333.986 166.173 271.362 105.358 255.812 119.207L255.765 119.26C255.607 119.398 255.458 119.545 255.32 119.699L255.173 119.887C239.594 138.182 329.128 234.085 341.337 222.871L341.439 222.777L341.789 222.382C342.01 222.113 342.17 221.828 342.299 221.516Z" fill="#FABB1E"/>
<path d="M314.26 180.197C311.65 177.621 309.902 174.793 309.427 172.665C309.628 173.558 310.054 174.575 310.673 175.645C311.523 177.132 312.751 178.697 314.26 180.197Z" fill="#CAAE60"/>
<path d="M325.04 183.442C325.127 183.036 325.124 182.567 325.04 182.055C324.916 181.267 324.601 180.374 324.12 179.425C324.921 181.003 325.262 182.422 325.04 183.442ZM323.61 178.504C323.608 178.503 323.608 178.501 323.607 178.499C323.608 178.501 323.609 178.502 323.61 178.504ZM323.596 178.483C322.753 177.079 321.582 175.595 320.151 174.178C318.258 172.31 316.249 170.904 314.477 170.102C312.452 169.186 310.737 169.06 309.86 169.947C309.857 169.95 309.854 169.954 309.85 169.959C309.854 169.954 309.857 169.95 309.86 169.947C310.737 169.06 312.452 169.186 314.477 170.102C316.249 170.904 318.258 172.31 320.151 174.178C321.583 175.59 322.753 177.077 323.596 178.483ZM309.753 170.069C309.753 170.068 309.753 170.068 309.754 170.067C309.753 170.068 309.753 170.068 309.753 170.069ZM309.761 170.058C309.762 170.057 309.764 170.055 309.765 170.053C309.764 170.055 309.762 170.057 309.761 170.058ZM309.771 170.046C309.775 170.043 309.776 170.039 309.78 170.035C309.776 170.039 309.775 170.043 309.771 170.046ZM309.783 170.032C309.785 170.03 309.789 170.026 309.79 170.024C309.789 170.026 309.785 170.03 309.783 170.032ZM309.793 170.02C309.796 170.017 309.799 170.013 309.802 170.011C309.799 170.013 309.796 170.017 309.793 170.02ZM309.803 170.008C309.81 170 309.819 169.992 309.826 169.984C309.819 169.992 309.81 170 309.803 170.008ZM309.826 169.982C309.83 169.979 309.833 169.975 309.836 169.972C309.833 169.975 309.83 169.979 309.826 169.982ZM309.839 169.97C309.842 169.966 309.844 169.964 309.848 169.961C309.845 169.963 309.842 169.966 309.839 169.97Z" fill="#CAAE60"/>
<path d="M333.27 222.317C308.776 211.232 245.632 140.405 254.142 121.524C254.413 120.923 254.755 120.378 255.173 119.887L255.32 119.699C255.458 119.544 255.607 119.398 255.765 119.26L255.812 119.207C259.333 116.072 265.262 116.763 272.501 120.038C297.228 131.227 337.166 172.575 348.032 194.448C348.753 195.874 348.952 196.78 348.773 197.254L348.703 197.395L348.602 197.509C348.097 197.984 346.79 197.612 345.085 196.84C343.678 196.203 342.001 195.297 340.283 194.371C338.565 193.444 336.804 192.499 335.231 191.787C332.956 190.757 331.07 190.215 330.267 190.926C330.121 191.059 330.008 191.216 329.926 191.394C329.6 192.117 329.786 193.207 330.318 194.55C333.055 201.505 344.929 215.371 342.299 221.516C342.283 221.555 342.266 221.593 342.249 221.631C342.129 221.9 341.982 222.146 341.789 222.382L341.44 222.777L341.337 222.871C339.78 224.302 336.966 223.99 333.27 222.317ZM314.255 180.197C316.148 182.064 318.156 183.471 319.927 184.272C321.951 185.188 323.666 185.312 324.537 184.419C324.791 184.164 324.956 183.832 325.039 183.443C325.26 182.423 324.919 181.003 324.118 179.425C323.965 179.124 323.795 178.816 323.608 178.504C323.607 178.502 323.606 178.502 323.605 178.5C323.601 178.495 323.599 178.489 323.595 178.483C322.751 177.077 321.581 175.591 320.149 174.179C318.257 172.311 316.247 170.904 314.475 170.102C312.45 169.186 310.735 169.061 309.859 169.947C309.855 169.951 309.852 169.954 309.848 169.959C309.848 169.959 309.846 169.96 309.846 169.961C309.843 169.965 309.84 169.967 309.837 169.97C309.836 169.972 309.836 169.972 309.834 169.973C309.831 169.976 309.828 169.98 309.825 169.983L309.824 169.984C309.817 169.993 309.809 170.001 309.802 170.009C309.801 170.01 309.801 170.01 309.8 170.012C309.798 170.014 309.794 170.017 309.791 170.021C309.791 170.022 309.79 170.023 309.788 170.024C309.787 170.027 309.784 170.03 309.781 170.033C309.78 170.034 309.78 170.035 309.778 170.036C309.775 170.04 309.773 170.044 309.77 170.047C309.767 170.049 309.766 170.052 309.763 170.054C309.763 170.055 309.76 170.058 309.759 170.059C309.757 170.061 309.755 170.065 309.752 170.067C309.752 170.069 309.752 170.069 309.751 170.07C309.267 170.666 309.178 171.575 309.422 172.665C309.897 174.793 311.645 177.621 314.255 180.197Z" fill="#D59814"/>
<path d="M325.037 182.055C324.196 180.576 322.968 179.01 321.459 177.512C317.403 173.509 312.809 171.619 311.168 173.281C310.649 173.803 310.501 174.639 310.667 175.645C309.239 173.176 308.838 170.991 309.858 169.947C311.499 168.285 316.092 170.177 320.149 174.178C322.905 176.906 324.696 179.886 325.037 182.055Z" fill="#FABB1E"/>
<path d="M315.428 188.838C313.917 187.702 312.156 186.842 310.323 186.845C308.13 186.848 306.574 188.456 306.962 190.687C307.751 195.225 314.923 202.393 319.862 199.311C324.343 196.513 319.441 191.455 315.428 188.838Z" fill="#33535F"/>
<path d="M293.821 176.228C293.983 176.312 294.169 176.398 294.364 176.482C294.954 176.795 295.55 177.055 296.159 177.183C296.854 177.331 297.496 177.298 298.062 177.139C298.503 177.054 298.888 176.876 299.159 176.557C299.949 175.87 300.315 174.733 299.928 173.274C299.433 171.406 297.915 170.026 296.868 168.447C295.336 166.137 295.223 163.592 293.119 161.643C290.798 159.491 287.076 157.902 284.545 159.363C277.81 163.247 289.837 174.151 293.821 176.228Z" fill="#FABB1E"/>
<path d="M304.806 151.575C304.109 156.439 297.986 154.199 295.668 152.15C293.552 150.263 287.103 143.99 290.868 141.103C293.115 139.352 295.862 140.96 297.906 143.042C301.415 144.963 305.29 148.235 304.806 151.575Z" fill="#17282F"/>
<path d="M270.022 127.356C264.42 127.551 264.278 134.401 266.516 138.023C268.177 140.695 270.773 143.354 273.052 145.528C274.586 146.979 276.711 148.069 278.744 146.887C282.693 144.546 280.98 140.08 278.675 136.605C277.153 132.031 274.494 127.194 270.022 127.356Z" fill="#E7E8E5"/>
<path d="M321.537 163.827C321.537 163.827 341.69 160.898 362.419 156.942C383.15 152.984 429.32 153.616 430.304 155.076C431.288 156.534 385.006 165.281 364.243 166.699C343.483 168.115 322.381 168.204 322.381 168.204L321.537 163.827Z" fill="#33535F"/>
<path d="M322.037 163.001L337.586 160.008L338.362 168.575L322.77 168.79L322.037 163.001Z" fill="#E7E8E5"/>
<path d="M322.037 163.001C318.157 161.245 313.847 159.241 307.768 162.286C300.425 165.961 295.461 163.829 295.461 163.829C295.461 163.829 308.341 177.563 322.769 168.791L322.037 163.001Z" fill="#17282F"/>
<path d="M294.708 163.604C295.769 163.14 300.414 165.105 304.526 163.416C308.4 161.824 312.647 173.623 307.102 171.87C300.802 169.878 292.755 164.455 294.708 163.604Z" fill="#FABB1E"/>
<path d="M405.465 318.063C405.465 318.063 409.576 332.579 422.238 327.431C434.897 322.279 427.791 308.982 427.791 308.982L405.465 318.063Z" fill="#F578BA"/>
<path d="M398.075 235.285L375.75 244.366L405.831 318.959L428.157 309.877L398.075 235.285Z" fill="#FABB1E"/>
<path d="M405.831 318.959L387.338 273.101L386.912 272.047L375.75 244.366L398.075 235.285L428.157 309.877L405.831 318.959ZM409.162 313.885C406.999 308.149 404.797 302.429 402.552 296.725L395.755 279.644L388.798 262.625C386.46 256.962 384.076 251.315 381.657 245.683C383.822 251.42 386.022 257.139 388.268 262.842L395.063 279.925L402.019 296.943C404.358 302.607 406.742 308.253 409.162 313.885ZM413.589 312.085C411.424 306.348 409.224 300.628 406.979 294.925L400.183 277.842L393.225 260.825C390.887 255.16 388.503 249.515 386.084 243.883C388.248 249.618 390.449 255.339 392.695 261.042L399.49 278.123L406.447 295.142C408.783 300.806 411.167 306.453 413.589 312.085ZM418.015 310.283C415.851 304.548 413.652 298.827 411.405 293.124L404.609 276.042L397.651 259.024C395.314 253.36 392.93 247.714 390.51 242.082C392.676 247.818 394.875 253.539 397.121 259.241L403.917 276.323L410.873 293.341C413.211 299.005 415.595 304.651 418.015 310.283ZM422.443 308.482C420.277 302.747 418.078 297.026 415.832 291.324L409.036 274.242L402.08 257.224C399.74 251.559 397.356 245.913 394.937 240.282C397.103 246.016 399.302 251.738 401.549 257.439L408.343 274.522L415.3 291.541C417.638 297.205 420.021 302.85 422.443 308.482Z" fill="#F4AC12"/>
<path d="M422.441 308.482C420.019 302.85 417.637 297.205 415.298 291.541L408.341 274.523L401.547 257.439C399.301 251.739 397.102 246.016 394.935 240.282C397.354 245.913 399.738 251.559 402.078 257.224L409.034 274.242L415.83 291.324C418.076 297.026 420.275 302.747 422.441 308.482Z" fill="#D79B14"/>
<path d="M418.011 310.282C415.591 304.651 413.207 299.005 410.868 293.341L403.912 276.323L397.117 259.241C394.871 253.538 392.671 247.817 390.506 242.082C392.926 247.713 395.31 253.36 397.647 259.024L404.604 276.041L411.4 293.124C413.647 298.827 415.847 304.548 418.011 310.282Z" fill="#D79B14"/>
<path d="M413.587 312.084C411.166 306.452 408.782 300.806 406.445 295.142L399.488 278.123L392.693 261.041C390.448 255.339 388.247 249.617 386.083 243.883C388.501 249.515 390.886 255.16 393.223 260.825L400.181 277.842L406.977 294.925C409.222 300.628 411.423 306.348 413.587 312.084Z" fill="#D79B14"/>
<path d="M409.161 313.884C406.741 308.253 404.357 302.606 402.019 296.943L395.063 279.925L388.268 262.841C386.022 257.139 383.822 251.419 381.657 245.683C384.075 251.315 386.459 256.961 388.798 262.625L395.755 279.643L402.551 296.724C404.796 302.428 406.998 308.148 409.161 313.884Z" fill="#D79B14"/>
<path d="M427.808 303.621L401.74 314.225L404.303 320.58L430.372 309.974L427.808 303.621Z" fill="#273E47"/>
<path d="M424.976 296.596L398.906 307.201L401.47 313.556L427.541 302.951L424.976 296.596Z" fill="#273E47"/>
<path d="M398.087 235.285L383.181 222.569L378.281 218.359L377.63 224.826L375.735 244.377L379.308 246.714L380.207 242.558L383.78 244.896L384.677 240.739L388.2 243.096L389.146 238.922L392.671 241.279L393.617 237.104L397.141 239.461L398.087 235.285Z" fill="white"/>
<path d="M383.177 222.569L378.277 218.359L377.626 224.826L383.177 222.569Z" fill="#17282F"/>
<g clip-path="url(#clip0)">
<path fill-rule="evenodd" clip-rule="evenodd" d="M54.9287 355.8C59.9014 370.523 78.665 372.761 91.9377 371.423C122.961 368.297 142.66 341.175 175.489 354.67C169.839 342.997 152.99 339.159 141.284 338.87C111.869 338.146 85.0911 355.8 54.9287 355.8Z" fill="#AA3C28"/>
<path fill-rule="evenodd" clip-rule="evenodd" d="M62.7793 365.967C92.2968 388.226 71.1904 376.135 98.6669 376.135C108.606 373.51 166.501 352.956 176.05 355.235C156.404 335.253 127.807 358.952 108.76 366.589C91.8314 373.376 79.3577 371.661 62.7793 365.967Z" fill="#B9614E"/>
<path fill-rule="evenodd" clip-rule="evenodd" d="M178.293 358.624C166.517 381.784 120.399 387.549 96.9844 388.562L99.7881 390.821C112.646 390.821 125.224 390.345 137.919 388.039C145.854 386.598 155.663 383.384 163.713 384.608C163.713 380.61 168.581 381.136 171.564 379.148C176.208 376.051 176.658 370.166 180.536 367.097C178.663 364.63 179.507 361.426 178.293 358.624Z" fill="#B9614E"/>
<path fill-rule="evenodd" clip-rule="evenodd" d="M68.9471 370.486C59.9752 368.227 59.4145 369.357 55.4893 369.357C71.9443 381.229 66.6996 404.122 72.8723 422.454H73.9938C75.8695 410.709 72.9018 396.52 73.433 384.043C98.445 394.31 128.797 390.308 153.62 380.04C159.178 377.741 185.961 364.842 176.61 355.8C168.311 347.775 147.98 352.905 139.041 356.761C119.606 365.145 102.976 376.81 80.7227 374.899C75.5877 374.458 73.433 372.746 68.9471 370.486Z" fill="#AA3C28"/>
<path fill-rule="evenodd" clip-rule="evenodd" d="M179.414 365.402C176.854 374.084 167.788 381.669 159.228 383.478C167.64 401.396 171.853 420.603 174.368 440.53H177.171C177.538 432.031 178.542 411.608 188.386 410.027C190.307 395.646 199.601 368.227 179.414 365.402Z" fill="#AA3C28"/>
<path d="M148.012 496.452L114.368 497.017L112.686 506.054L149.134 502.665L148.012 496.452Z" fill="#4C7B9E"/>
<path fill-rule="evenodd" clip-rule="evenodd" d="M73.4336 384.043C75.6766 389.369 90.9708 394.511 101.471 395.569C121.278 397.565 141.016 392.428 160.91 392.373C162.471 404.047 166.509 415.486 166.509 427.394C166.509 457.832 147.921 489.577 114.929 492.498C114.929 499.841 117.174 518.019 114.929 527.519L152.499 529.779L147.452 497.438C145.694 493.78 145.05 490.072 144.088 486.141C156.62 480.134 170.069 466.197 173.246 452.249C187.374 451.905 200.236 432.211 194.843 418.373C187.706 400.058 179.104 417.466 177.732 425.135L174.929 434.737C171.564 423.44 170.252 415.607 168.113 403.67C167.149 398.278 167.316 391.259 163.632 386.892C158.746 381.099 151.285 385.359 145.209 386.302C127.695 389.02 111.418 392.128 93.6203 389.127C88.2905 388.228 76.2373 385.173 73.4336 384.043Z" fill="#DAAA85"/>
<path fill-rule="evenodd" clip-rule="evenodd" d="M73.4343 384.043C72.3128 389.692 73.4343 401.294 73.4343 406.638C75.2258 429.308 61.8527 450.032 75.2202 472.145C93.307 502.062 137.988 497.651 155.495 469.903C173.247 447.308 168.2 417.935 161.471 391.386L141.284 393.081C137.484 392.794 127.266 394.211 121.098 395.34C103.745 395.34 88.8098 392.623 73.4343 384.043Z" fill="#EABB95"/>
<path fill-rule="evenodd" clip-rule="evenodd" d="M120.274 400.262C120.274 400.262 119.416 402.684 123.341 402.039C126.979 401.549 130.898 400.122 134.556 400.953C140.43 402.287 144.646 405.699 150.513 406.482C151.154 406.567 152.566 406.638 152.306 405.508C149.458 393.154 123.795 387.258 120.274 400.262Z" fill="#AA3C28"/>
<path fill-rule="evenodd" clip-rule="evenodd" d="M74.7073 405.983C74.5441 407.681 76.4114 407.809 77.203 407.58C84.0662 403.709 84.9745 401.912 94.3333 402.584C96.5763 403.149 100.475 402.702 99.2273 399.859C91.9376 391.951 75.6761 395.905 74.7073 405.983Z" fill="#AA3C28"/>
<path d="M123.052 426.588C124.281 430.167 140.317 433.631 145.793 427.071C140.544 428.845 132.329 429.673 123.052 426.588Z" fill="#643D1F"/>
<path d="M78.8135 426.869C79.8509 430.428 93.9293 433.693 98.8354 427.075C94.1897 428.911 86.9449 429.837 78.8135 426.869Z" fill="#643D1F"/>
<path fill-rule="evenodd" clip-rule="evenodd" d="M90.8177 449.567C90.8177 449.567 91.3784 450.132 91.9392 450.132C92.5586 450.132 93.0607 447.873 93.0607 447.873C95.8644 441.094 107.64 440.53 110.444 450.697C111.565 451.827 109.883 452.957 111.565 450.132C113.809 438.835 89.1355 436.575 90.8177 449.567Z" fill="#DAAA85"/>
<path d="M114.218 475.98C109.786 475.98 106.193 472.964 106.193 469.243C106.193 465.523 109.786 462.507 114.218 462.507C118.65 462.507 122.243 465.523 122.243 469.243C122.243 472.964 118.65 475.98 114.218 475.98Z" fill="#CD6975"/>
<path d="M120.909 465.201C118.902 462.507 112.883 460.486 107.533 465.201C112.215 466.548 116.896 466.548 120.909 465.201Z" fill="white"/>
<path d="M43.729 620.722C60.7756 617.559 82.9661 576.662 82.9661 568.189L45.4112 563.671C37.7476 584.006 26.6824 623.885 43.729 620.722Z" fill="#DAAA85"/>
<path d="M59.4147 612.249C59.4147 612.249 60.6042 619.757 59.4147 620.157C57.7324 620.722 54.9287 611.119 54.9287 611.119L59.4147 612.249Z" fill="#4C7B9E"/>
<path fill-rule="evenodd" clip-rule="evenodd" d="M82.9668 517.916C70.4987 523.669 50.8835 545.377 47.5504 559.152C46.2876 564.367 47.9138 570.79 48.3007 576.097C49.0072 585.807 47.703 597.152 49.7598 606.598C50.6603 610.732 53.4113 615.745 58.2898 613.324C58.2898 613.324 73.2503 594.142 73.995 586.265C75.5381 569.93 70.8492 530.006 82.9668 517.916Z" fill="#568CB4"/>
<path d="M59.4149 620.157C59.4149 620.157 48.7608 621.852 45.957 621.852C44.8356 613.379 44.8356 602.759 44.8356 600.952C44.8356 599.144 37.5459 589.842 37.5459 584.571C40.7234 585.135 46.3832 586.952 48.7608 590.784C51.5645 595.303 59.4149 620.157 59.4149 620.157Z" fill="#5DA4D8"/>
<path d="M19.042 542.206C18.7478 540.511 19.3678 540.511 19.042 537.116C18.7162 533.721 16.9742 531.141 15.7015 528.643C14.55 526.383 11.2156 520.17 7.85162 516.216C-0.585425 500.578 -1.68178 490.232 7.85162 491.137C10.0948 486.278 16.2621 487.408 16.2621 487.408C18.0564 482.889 25.4216 482.701 26.9169 483.454C26.1311 481.554 26.7435 481.334 25.234 477.041C24.1125 473.851 23.3384 468.258 22.4302 463.684C21.3088 458.035 21.8694 455.211 25.2338 455.211C27.7416 455.211 29.5328 455.211 31.402 460.859C32.5236 464.249 35.033 473.42 36.6214 477.041L42.0562 494.301C43.739 495.881 44.1302 496.668 44.8603 498.139L44.8606 498.141C47.384 503.224 47.6005 506.904 46.5431 511.697C45.9823 514.239 45.4216 520.17 44.8606 522.995C43.8217 528.226 44.2756 529.214 44.3417 536.557C44.4435 547.871 47.3472 559.374 48.0997 570.449C49.1775 586.285 49.7707 613.379 47.0793 617.898C45.397 620.722 41.4379 622.435 38.1073 623.67C26.9118 627.824 17.8081 620.911 15.3195 609.989C11.7318 594.244 14.7344 574.819 17.4887 559.152C18.5527 553.099 20.1787 548.751 19.042 542.206Z" fill="#EABB95"/>
<path d="M27.6736 526.954C27.604 527.515 27.6736 531.473 28.2343 530.908C28.7951 530.344 28.2343 525.825 29.3558 523C29.9166 521.306 29.8758 519.859 30.4773 517.917C30.9902 516.26 32.1595 513.962 32.7203 513.398C33.8418 511.703 37.6148 507.49 37.767 507.184C38.3277 506.054 35.1875 508.314 34.4025 509.444C33.281 510.573 32.1595 512.268 30.4773 515.092C29.2467 518.167 27.8931 525.186 27.6736 526.954Z" fill="#DAAA85"/>
<path d="M24.6752 506.614C26.021 506.614 24.8621 507.367 24.1145 507.743C23.9433 507.743 22.5733 508.26 20.3018 509.153L20.529 508.051C22.4153 507.182 23.6325 506.614 24.6752 506.614Z" fill="#DAAA85"/>
<path d="M12.5339 513.397C11.9732 513.396 12.3139 512.268 13.4354 511.703C13.9329 511.452 14.8527 510.86 16.0907 510.178L16.9545 510.715C15.1635 511.825 12.807 513.397 12.5339 513.397Z" fill="#DAAA85"/>
<path d="M35.8649 537.687C36.9864 537.122 36.9864 538.063 35.8649 538.816C33.622 539.946 27.9662 541.641 26.893 541.641C25.5515 541.641 25.1417 540.511 27.4538 540.511C29.6968 540.511 33.3572 538.95 35.8649 537.687Z" fill="#DAAA85"/>
<path d="M15.2405 487.871C15.4972 487.884 15.7109 487.904 15.8682 487.922C16.3277 489.071 16.958 490.716 17.4899 492.252C17.7801 493.091 18.039 493.889 18.2243 494.556C18.3627 495.052 18.4502 495.44 18.4883 495.707C17.8205 496.285 17.283 497.094 17.3535 498.107C17.4293 499.192 18.1943 500.297 19.7427 501.408C19.9063 501.799 20.0244 502.26 20.1733 502.901C20.1945 502.993 20.2161 503.086 20.2386 503.185C20.3894 503.84 20.574 504.643 20.8632 505.642C21.1464 506.62 21.0158 507.823 20.5593 508.865C20.1 509.913 19.3606 510.691 18.5311 510.944C17.748 511.183 16.7179 511.004 15.525 509.774C14.3185 508.531 13.0046 506.262 11.7557 502.49L8.45508 491.188C9.49119 489.124 11.3317 488.304 13.0001 488.007C13.8592 487.853 14.6564 487.843 15.2405 487.871ZM19.9707 494.797C19.8137 494.864 19.656 494.94 19.5003 495.022C19.4464 494.781 19.3791 494.52 19.3041 494.25C19.1099 493.553 18.8427 492.729 18.5488 491.88C17.9961 490.284 17.3408 488.578 16.8737 487.414C17.7203 485.546 19.6676 484.539 21.7543 484.076C22.8218 483.839 23.89 483.755 24.7914 483.762C25.5381 483.77 26.1399 483.84 26.5212 483.929C26.5321 483.952 26.5436 483.978 26.556 484.005C26.6473 484.206 26.7779 484.496 26.9348 484.85C27.2487 485.559 27.6669 486.525 28.0846 487.553C28.5029 488.582 28.9178 489.668 29.2274 490.618C29.4425 491.277 29.5944 491.838 29.6702 492.257C27.3325 492.535 24.637 493.137 20.005 494.784L19.9877 494.79L19.9707 494.797ZM27.468 483.299L27.4428 483.244C27.174 482.437 27.0378 481.894 26.831 481.036C26.8148 480.97 26.7982 480.901 26.7812 480.83C26.5757 479.977 26.2969 478.818 25.7796 476.893C24.9026 473.63 23.5416 468.092 22.9911 463.615L22.9885 463.593L22.9844 463.573C22.4217 460.751 22.3119 458.757 22.6893 457.492C22.8717 456.881 23.1589 456.47 23.5405 456.205C23.928 455.936 24.472 455.776 25.2382 455.776C26.5201 455.776 27.4111 455.791 28.2388 456.379C29.0806 456.977 29.9485 458.24 30.8745 461.038C31.2264 462.102 31.715 463.736 32.2714 465.596C32.5973 466.685 32.9464 467.852 33.305 469.03C34.2638 472.175 35.2922 475.389 36.1005 477.241L41.1523 493.284C39.6731 492.729 38.1687 492.511 36.3937 492.255C35.7379 492.16 35.0453 492.059 34.3033 491.935L34.239 491.924L34.1741 491.928C33.7183 491.959 33.2803 491.983 32.8522 492.008C32.149 492.049 31.4728 492.087 30.7886 492.145C30.699 491.602 30.514 490.944 30.2929 490.265C29.9716 489.279 29.5454 488.166 29.1225 487.125C28.699 486.083 28.276 485.106 27.9591 484.389C27.8005 484.032 27.6684 483.739 27.5756 483.534C27.5412 483.459 27.5123 483.395 27.4894 483.346C27.4814 483.329 27.4744 483.313 27.468 483.299Z" stroke="#DAAA85"/>
<path d="M201.282 630.889C200.161 630.325 199.039 628.63 199.039 628.63L240.534 633.149L235.487 635.973C235.487 635.973 213.288 636.936 201.282 630.889Z" fill="#4C7B9E"/>
<path d="M196.796 617.897C196.796 617.897 195.052 617.901 195.114 618.462C195.675 623.546 245.02 626.37 245.02 620.157C245.02 619.362 243.899 618.462 243.899 618.462L196.796 617.897Z" fill="#4C7B9E"/>
<path fill-rule="evenodd" clip-rule="evenodd" d="M190.884 742.093C193.589 740.74 194.141 739.795 195.901 737.786C197.614 735.83 197.638 734.059 199.369 733.354C200.443 732.916 201.28 737.122 200.94 739.76C200.539 742.868 201.196 747.571 200.939 749.643C200.49 753.271 200.558 759.937 200.693 762.841C200.877 766.855 205.12 766.898 205.12 766.898C205.12 766.898 207.442 765.313 207.747 763.183C208.079 760.874 208.031 755.845 207.961 752.825C207.847 747.911 207.586 743.502 208.001 743.19C208.588 742.748 208.792 743.464 208.912 744.063C209.032 744.663 209.676 749.882 209.844 751.989C210.18 756.202 211.136 766.222 211.232 767.277C211.502 770.438 211.172 774.599 215.302 774.93C219.473 774.741 219.631 771.578 219.409 768.98C219.309 767.804 218.555 755.304 218.186 751.611C217.91 748.85 218.158 745.197 218.67 745.271C219.183 745.346 219.442 754.365 220.653 760.319C221.14 762.709 221.103 768.715 224.669 769.235C228.236 769.755 227.715 766.092 227.648 762.92C227.58 759.748 227.08 756.069 226.939 753.432C226.79 750.671 226.062 747.742 226.406 745.345C226.439 742.186 227.092 744.918 227.092 744.918C227.092 744.918 228.057 755.752 229.975 757.647C231.35 759.005 232.85 758.968 233.562 758.169C234.274 757.372 234.004 750.329 233.824 749.06C233.644 747.793 233.585 743.633 233.277 738.439C231.314 730.246 230.815 723.318 230.028 720.114C229.243 716.912 228.878 715.313 227.983 713.147C226.993 710.753 225.277 708.273 224.821 707.136C223.953 704.974 224.265 704.475 224.118 702.893C223.549 696.782 225.362 692.9 226.782 687.406C230.459 673.185 237.644 653.557 235.489 638.798C233.993 628.558 223.108 623.486 212.499 626.485C209.343 627.376 202.477 629.543 200.723 632.019C197.916 635.98 199.585 660.084 199.423 674.743C199.309 684.994 201.145 695.8 200.415 706.224C199.94 712.989 197.36 712.782 194.965 716.777C193.975 719.222 192.985 722.113 192.284 724.412C190.881 729.009 190.418 729.848 188.528 732.484C186.714 735.012 180.806 738.144 182.15 740.869C183.492 743.592 188.52 743.276 190.884 742.093Z" fill="#EABB95"/>
<path d="M239.975 619.027C234.367 574.968 207.825 531.285 191.751 520.741V574.403C191.751 590.219 196.845 614.4 204.648 624.676C210.866 632.864 225.364 657.343 232.124 651.789C234.367 645.011 241.044 627.431 239.975 619.027Z" fill="#EABB95"/>
<path d="M200.162 633.149L201.284 629.76L238.293 633.149L236.61 637.103L200.162 633.149Z" fill="#DAAA85"/>
<path fill-rule="evenodd" clip-rule="evenodd" d="M108.76 717.314C109.787 725.502 110.833 733.912 111.003 742.168C93.4515 742.156 80.4942 736.985 65.0219 729.741L63.9004 791.876H117.732C117.732 783.665 119.529 753.015 119.529 753.015L133.433 751.206C133.433 751.206 137.972 778.271 139.041 791.876H195.115C195.115 772.69 193.264 753.427 192.872 734.26C171.485 736.996 151.871 741.038 130.069 741.038L132.872 717.314C125.058 717.935 116.583 718.309 108.76 717.314Z" fill="#568CB4"/>
<path d="M163.713 716.176L163.153 705.444C149.134 704.125 107.158 705.115 104.915 708.73C102.672 712.345 101.737 718.812 102.111 722.954C111.083 726.57 151.938 722.201 163.713 716.176Z" fill="#4C7B9E"/>
<path fill-rule="evenodd" clip-rule="evenodd" d="M115.491 519.046C105.987 570.618 101.473 666.417 101.473 718.444H135.117C139.078 667.899 147.592 569.67 147.453 519.046C140.163 528.084 123.341 528.649 115.491 519.046Z" fill="white"/>
<path d="M65.0215 734.157V730.203C79.0401 728.884 107.638 727.153 109.881 730.768C112.124 734.383 113.059 740.849 112.685 744.992C103.713 748.607 76.7971 740.182 65.0215 734.157Z" fill="#4C7B9E"/>
<path d="M192.873 737.084L192.312 726.352C178.293 725.033 136.317 726.023 134.074 729.638C131.831 733.253 130.897 739.72 131.27 743.862C140.242 747.478 181.097 743.109 192.873 737.084Z" fill="#4C7B9E"/>
<path fill-rule="evenodd" clip-rule="evenodd" d="M80.7244 519.046C74.0992 523.421 71.3278 542.348 70.0703 549.549C66.9063 567.661 66.172 585.917 65.8254 604.341C65.2568 634.488 60.5488 667.349 60.5376 697.543C60.5343 706.68 60.5376 730.306 60.5376 730.306C75.6777 737.649 92.5 743.862 111.005 742.168C110.838 721.829 107.032 701.555 106.535 681.162C105.844 652.785 112.106 596.428 112.126 568.189C112.224 563.208 117.135 535.886 116.612 530.908L115.491 504.36C106.519 508.314 87.1701 515.216 80.7244 519.046Z" fill="#5DA4D8"/>
<path fill-rule="evenodd" clip-rule="evenodd" d="M136.237 530.908C136.237 570.079 136.21 645.46 134.511 684.55C133.687 703.445 130.068 722.102 130.068 741.038C151.851 741.038 175.48 738.306 196.796 734.26C196.796 734.26 195.933 708.714 194.184 690.199C192.78 675.358 191.007 659.91 190.645 645.011C190.45 636.981 190.645 630.325 190.645 619.027C190.645 607.73 194.184 548.419 194.184 548.419C199.982 534.862 188.386 526.954 188.386 513.398C186.332 512.619 153.059 500.406 145.208 505.489C142.965 514.527 142.965 513.398 140.162 521.306C137.358 527.237 137.358 527.519 136.237 530.908Z" fill="#5DA4D8"/>
<path d="M118.293 529.779L116.611 532.603C116.611 532.603 94.5939 535.974 94.742 535.427C95.0156 534.416 96.4242 532.038 96.4242 532.038C102.4 528.519 118.293 529.779 118.293 529.779Z" fill="#4C7B9E"/>
<path d="M136.238 531.473L135.677 528.649C135.677 528.649 158.667 529.214 162.592 537.122C162.844 537.628 136.238 531.473 136.238 531.473Z" fill="#4C7B9E"/>
<path d="M160.91 518.481C160.349 515.092 154.74 530.841 162.592 537.122C162.591 528.649 161.002 519.039 160.91 518.481Z" fill="#4C7B9E"/>
<path fill-rule="evenodd" clip-rule="evenodd" d="M148.012 496.452C147.023 501.733 135.676 528.649 135.676 528.649C135.676 528.649 157.082 532.497 161.47 535.347C161.047 525.421 161.47 510.008 156.984 500.406C153.62 499.276 151.084 497.311 148.012 496.452ZM94.7412 533.733C94.7412 533.733 110.442 530.908 118.293 529.779C118.232 522.348 115.489 504.36 114.368 497.017C109.321 500.406 107.078 501.535 103.713 503.795C100.909 509.444 98.5049 518.567 94.7412 533.733Z" fill="#568CB4"/>
<path fill-rule="evenodd" clip-rule="evenodd" d="M239.415 633.149C249.853 623.238 239.765 586.815 235.01 576.098C226.29 556.438 217.008 522.596 193.995 514.755C175.656 508.508 177.172 539.381 183.901 552.938C190.63 569.884 190.63 584.571 193.995 598.692C195.476 604.91 196.179 621.696 200.163 628.065C200.163 628.065 208.013 628.912 216.424 629.76C222.032 630.325 232.686 632.584 239.415 633.149Z" fill="#568CB4"/>
<path d="M195.115 618.462L199.04 628.63C200.723 631.454 238.853 633.149 240.535 633.149C241.881 633.149 244.273 622.981 245.021 620.157C243.227 621.061 209.695 621.287 195.115 618.462Z" fill="#5DA4D8"/>
<path d="M103.714 603.211C105.262 603.211 106.518 601.947 106.518 600.387C106.518 598.827 105.262 597.562 103.714 597.562C102.165 597.562 100.91 598.827 100.91 600.387C100.91 601.947 102.165 603.211 103.714 603.211Z" fill="white"/>
<path d="M102.592 728.611C104.14 728.611 105.396 727.347 105.396 725.787C105.396 724.227 104.14 722.962 102.592 722.962C101.043 722.962 99.7881 724.227 99.7881 725.787C99.7881 727.347 101.043 728.611 102.592 728.611Z" fill="white"/>
<path d="M101.471 696.979C103.019 696.979 104.274 695.714 104.274 694.154C104.274 692.595 103.019 691.33 101.471 691.33C99.9223 691.33 98.667 692.595 98.667 694.154C98.667 695.714 99.9223 696.979 101.471 696.979Z" fill="white"/>
<path d="M101.471 663.087C103.019 663.087 104.274 661.822 104.274 660.262C104.274 658.702 103.019 657.438 101.471 657.438C99.9223 657.438 98.667 658.702 98.667 660.262C98.667 661.822 99.9223 663.087 101.471 663.087Z" fill="white"/>
<path d="M102.592 631.454C104.14 631.454 105.396 630.19 105.396 628.63C105.396 627.07 104.14 625.806 102.592 625.806C101.043 625.806 99.7881 627.07 99.7881 628.63C99.7881 630.19 101.043 631.454 102.592 631.454Z" fill="white"/>
<path d="M104.835 574.968C106.383 574.968 107.639 573.703 107.639 572.144C107.639 570.584 106.383 569.319 104.835 569.319C103.287 569.319 102.031 570.584 102.031 572.144C102.031 573.703 103.287 574.968 104.835 574.968Z" fill="white"/>
<path d="M109.32 545.595C110.869 545.595 112.124 544.33 112.124 542.77C112.124 541.211 110.869 539.946 109.32 539.946C107.772 539.946 106.517 541.211 106.517 542.77C106.517 544.33 107.772 545.595 109.32 545.595Z" fill="white"/>
<path d="M7.85715 491C9.67858 498.139 11.5002 505.277 12.1069 509.441C12.5361 512.387 8.46429 517.77 2.99988 504.087M19.8215 501.595C20.2701 501.735 21.731 502.06 22.25 502.19M36.8214 502.785C35.1192 503.261 33.8065 503.356 32.5714 503.312M22.25 502.19C23.8903 502.601 24.8319 502.764 26.5 503C29.0478 502.871 30.7228 503.247 32.5714 503.312M22.25 502.19C23.0597 503.564 23.4643 504.569 24.6786 505.759C26.5 506.949 31.3571 507.544 32.5714 503.312" stroke="#DAAA85"/>
</g>
</g>
<defs>
<clipPath id="clip0">
<rect width="282.614" height="454.151" fill="white" transform="translate(0 338.849)"/>
</clipPath>
</defs>
</svg>
