<svg width="95" height="160" viewBox="0 0 95 160" fill="none" xmlns="http://www.w3.org/2000/svg">
<mask id="mask0" mask-type="alpha" maskUnits="userSpaceOnUse" x="0" y="0" width="95" height="160">
<rect width="94.72" height="160" fill="#C4C4C4"/>
</mask>
<g mask="url(#mask0)">
<path d="M26.0224 14.1102C23.1352 13.974 20.2493 13.836 17.3621 13.6999C14.2538 18.9688 13.354 23.6453 13.0482 26.3699C11.6975 38.3698 17.9071 47.5206 19.8102 50.3246C21.6872 53.0891 23.5739 55.1164 24.8843 56.4037C27.363 62.3312 31.3233 71.6479 36.4528 83.0071C43.5927 98.8129 47.3658 106.102 54.3916 121.307C58.0459 129.22 63.3595 140.959 69.5469 155.571C70.9175 155.47 73.8507 155.069 76.8393 153.064C80.2158 150.799 81.7132 147.796 82.2544 146.545C80.1319 141.794 76.8809 134.677 72.687 126.118C64.5756 109.563 63.6709 109.528 57.4102 96.354C51.5369 84.0005 50.1845 79.5136 43.5727 66.8075C40.9894 61.8423 38.7392 57.8086 37.2043 55.1121C37.7778 52.755 38.4067 49.1913 38.2012 44.8736C37.9092 38.7027 36.0662 34.2326 33.5871 28.3604C32.0237 24.6583 29.6295 19.6765 26.0224 14.1102Z" fill="#AF802E"/>
<path d="M29.1799 47.5747C32.5482 53.8019 35.2658 54.3165 36.0864 54.3938C36.9002 54.4698 37.6416 54.2433 38.3054 53.8374C38.8046 51.5227 39.2526 48.3438 39.0752 44.5997C38.7831 38.4288 36.9402 33.9586 34.461 28.0864C32.8977 24.3843 30.5034 19.4025 26.8964 13.8362C24.3256 16.6625 22.8802 22.2469 22.7842 25.6733C22.5179 35.255 26.147 41.9697 29.1799 47.5747Z" fill="#996E29"/>
<path d="M26.7051 16.2979C28.1843 15.3251 29.7399 14.1774 31.314 12.8203C35.7063 9.03363 38.6734 4.97695 40.647 1.66405C43.7764 3.35563 49.6458 7.08409 54.1914 14.0907C55.9451 16.7946 61.7324 26.0276 59.771 38.3742C57.9603 49.7712 50.6985 56.5828 48.4804 58.5132C47.4371 57.2877 45.0016 54.7853 41.0281 53.5413C38.7473 52.8288 36.7311 52.77 35.3575 52.8491C32.2965 49.8319 21.0898 34.7582 26.7051 16.2979Z" fill="#EDB06E"/>
<path d="M48.0729 58.1094C48.2207 58.2719 48.354 58.4238 48.4692 58.5582C50.6873 56.6277 57.9491 49.8162 59.7598 38.4192C61.7211 26.0726 55.9339 16.8395 54.1802 14.1357C49.6346 7.12906 43.7652 3.4006 40.6358 1.70902C37.4238 14.9931 38.4197 39.9274 48.0729 58.1094Z" fill="#FFC884"/>
<path d="M55.9851 21.8959C55.652 18.8509 54.142 16.7337 51.8153 13.4708C49.4614 10.1702 47.0521 7.84385 45.3808 6.39499C45.0129 7.76728 44.6128 9.73034 44.5661 12.1058C44.4522 17.7267 46.3835 21.8921 47.3491 23.918C48.9274 27.2244 50.9251 29.808 52.7977 31.7469C54.1142 30.0302 56.4698 26.3628 55.9851 21.8959Z" fill="#FFE4CA"/>
<path d="M27.5901 19.2219C28.5183 18.8233 29.4866 18.3434 30.476 17.7665C33.813 15.8232 36.2471 13.4314 37.9695 11.3356C37.5863 12.0429 36.9945 13.039 36.1531 14.1243C34.235 16.5993 32.2331 17.9725 31.0071 18.7973C30.0924 19.413 28.8152 20.1842 27.19 20.9071C27.322 20.3463 27.4551 19.7836 27.5901 19.2219Z" fill="#FFC884"/>
<path d="M32.6437 48.4604C33.733 48.4008 35.0347 48.4283 36.4766 48.6772C40.0172 49.2831 42.59 50.8917 44.0435 51.9854C42.9156 51.4403 41.4981 50.8741 39.8165 50.4549C37.3904 49.8488 35.2556 49.7573 33.6696 49.8176C33.3279 49.3662 32.9843 48.9137 32.6437 48.4604Z" fill="#FFC884"/>
<path d="M32.3441 47.8104C33.3325 47.6496 34.6339 47.5456 36.1398 47.7113C38.6397 47.9843 40.5401 48.8755 41.6685 49.5243C40.9649 48.7946 39.9275 47.8956 38.5021 47.1659C35.4526 45.5993 32.533 45.7761 31.2411 45.9358C31.6101 46.5614 31.9771 47.1859 32.3441 47.8104Z" fill="#FFC884"/>
<path d="M72.3072 155.061C71.0127 152.192 69.4112 148.663 67.5808 144.667C53.8643 114.725 52.1478 112.87 45.7258 97.5266C41.4535 87.3178 40.1937 83.3113 34.9506 71.6646C31.7471 64.5488 28.9419 58.7666 27.032 54.9134C25.7656 53.802 24.0013 52.0921 22.2325 49.7435C21.0043 48.1079 11.4769 35.0252 16.2011 21.0063C16.8125 19.1929 17.9169 16.6065 20.0308 13.7802C19.1412 13.738 18.2516 13.6959 17.362 13.6537C14.2538 18.9226 13.354 23.5991 13.0482 26.3238C11.6975 38.3236 17.9071 47.4744 19.8102 50.2784C21.6872 53.0429 23.5738 55.0703 24.8843 56.3575C27.363 62.285 31.3233 71.6017 36.4528 82.9609C43.5927 98.7667 47.3658 106.056 54.3916 121.261C58.0459 129.174 63.3595 140.912 69.5469 155.525C70.1805 155.479 71.153 155.365 72.3072 155.061Z" fill="#996E29"/>
</g>
</svg>
