<svg width="15" height="13" viewBox="0 0 15 13" fill="none" xmlns="http://www.w3.org/2000/svg">
<path d="M10.5475 10.6918C9.81998 10.328 8.38766 10.5781 7.93294 10.6918C7.25088 10.616 6.11409 10.328 5.65937 10.2371C5.09096 10.1234 4.9773 9.555 4.86362 9.44133C4.74994 9.32765 5.54569 8.30456 5.65937 8.19089C5.77304 8.07721 8.27396 8.19089 8.38764 8.30456C8.47858 8.39551 9.86545 8.87295 10.5475 9.10031V10.6918Z" fill="#C1D8D5"/>
<path d="M7.70605 5.23554C9.5249 -0.789367 14.1857 0.34742 11.4574 6.25864L9.07019 8.5322L7.70605 5.23554Z" fill="#C1D8D5"/>
<path d="M4.49868 13C3.96424 13.0003 3.40555 12.87 2.83959 12.5498C-0.191821 10.831 1.75435 6.6874 1.75435 6.6874C1.75435 6.6874 1.33601 6.40548 1.00255 5.93834C0.902515 5.3172 0.954058 4.47749 1.75435 4.01065C2.09538 3.81179 2.44429 3.7257 2.7929 3.7257C3.8633 3.7257 4.93188 4.53539 5.77097 5.37479C5.77097 5.37479 4.99008 0.927717 6.57247 0.927717C6.57399 0.927717 6.57581 0.927717 6.57733 0.927717C8.16882 0.939843 8.17487 3.85909 7.62922 5.22292C7.62922 5.22292 8.25884 4.74334 8.8148 4.74334C9.0655 4.74334 9.30105 4.84066 9.45717 5.12319C9.93613 5.9838 9.50869 7.61167 9.46322 7.78476C9.55113 7.53315 10.8334 3.91032 12.3127 3.07395C12.2157 4.28651 11.5306 5.96865 11.5306 5.96865C11.5306 5.96865 11.6701 5.95076 11.8883 5.94439C11.9378 5.94288 11.9911 5.94196 12.0478 5.94196C12.923 5.94196 14.6087 6.1572 14.6742 7.79992C14.6754 7.83053 14.676 7.86085 14.676 7.89086C14.676 7.86085 14.6754 7.83053 14.6742 7.79992C14.6087 6.1572 12.923 5.94196 12.0478 5.94196C11.9911 5.94196 11.9378 5.94288 11.8883 5.94439C12.5916 5.97804 15.3017 9.67 10.603 10.6855L10.5424 10.6885C10.1817 9.97041 9.47232 9.01522 8.1961 8.76088C7.81808 8.68509 7.48978 8.65417 7.20513 8.65417C5.89314 8.65417 5.51633 9.31562 5.51633 9.31562C5.66396 9.2941 5.83523 9.28168 6.02075 9.28168C6.91653 9.28168 8.14728 9.57118 8.68718 10.543V10.5464C8.51378 10.7662 6.71343 13 4.49868 13ZM1.88712 8.01212C1.88712 8.01212 1.19141 9.48599 2.66922 10.0165C2.66922 10.0165 2.13872 11.3112 3.19972 11.665C3.30733 11.7007 3.41556 11.7168 3.52287 11.7168C4.47473 11.7168 5.37203 10.4524 5.37203 10.4524C5.37203 10.4524 4.29679 11.1127 3.50832 11.1127C3.43648 11.1127 3.36675 11.1072 3.30067 11.0954C2.50977 10.9517 2.99752 9.86431 2.99752 9.86431C2.99752 9.86431 1.53245 9.56177 1.88712 8.01212ZM3.1106 5.60032C3.37797 5.60032 4.53476 5.69915 4.87943 7.3831C4.87943 7.3831 5.15104 6.15022 4.46897 5.48847C4.28345 5.3084 4.08369 5.24505 3.89453 5.24505C3.44497 5.24505 3.05512 5.60185 3.05512 5.60185C3.05512 5.60185 3.07483 5.60032 3.1106 5.60032Z" fill="#F7FFFE"/>
<path d="M3.52397 11.7168C3.41666 11.7168 3.30843 11.7007 3.20082 11.665C2.13982 11.3112 2.67032 10.0165 2.67032 10.0165C1.19251 9.48598 1.88822 8.0121 1.88822 8.0121C1.53355 9.56176 2.99863 9.8643 2.99863 9.8643C2.99863 9.8643 2.51087 10.9517 3.30177 11.0954C3.36785 11.1072 3.43758 11.1126 3.50942 11.1126C4.29789 11.1126 5.37313 10.4524 5.37313 10.4524C5.37313 10.4524 4.47583 11.7168 3.52397 11.7168Z" fill="#DBF7F3"/>
<path d="M4.87997 7.38306C4.5353 5.69911 3.37851 5.60028 3.11114 5.60028C3.07537 5.60028 3.05566 5.60181 3.05566 5.60181C3.05566 5.60181 3.44552 5.24501 3.89507 5.24501C4.08423 5.24501 4.284 5.30836 4.46952 5.48843C5.15159 6.15018 4.87997 7.38306 4.87997 7.38306Z" fill="#DBF7F3"/>
<path d="M7.12207 7.38302C7.12207 7.38302 7.3464 6.89042 8.02998 7.38302C8.71357 7.87562 8.63778 8.31396 8.63778 8.31396C8.63778 8.31396 8.82724 7.11777 8.22096 6.85252C7.61467 6.58727 7.12207 7.38302 7.12207 7.38302Z" fill="#C1D8D5"/>
</svg>
