<svg width="13" height="15" viewBox="0 0 13 15" fill="none" xmlns="http://www.w3.org/2000/svg">
<path d="M3.29657 7.42886C3.20563 7.24698 3.6376 6.06473 3.86496 5.49634C4.50915 5.64791 5.86573 5.97379 6.13856 6.06473C6.41139 6.15567 7.01009 7.16361 7.27534 7.65622L6.59327 8.90668L5.00178 9.13403C4.47127 8.64143 3.38751 7.61075 3.29657 7.42886Z" fill="#AAC5C1"/>
<path d="M8.41241 9.36136L7.50299 8.79297L6.36621 10.7255L6.9346 11.7486L8.41241 12.8854C8.52609 12.6959 8.75345 12.2488 8.75345 11.9759V10.7255L8.41241 9.36136Z" fill="#AAC5C1"/>
<path d="M8.61619 14.9292C8.45704 14.9292 8.30031 14.9095 8.14813 14.8752C7.45697 13.7961 7.03257 12.4562 7.03257 12.4562C7.03257 12.4562 5.76089 12.8293 4.29794 12.8293C4.05694 12.8293 3.81109 12.819 3.56464 12.7957C2.70069 12.1315 2.78859 11.2433 2.78859 11.2433C2.78859 11.2433 2.6734 11.2639 2.49334 11.2639C2.04287 11.2639 1.1862 11.1354 0.718147 10.2338C0.0603307 8.97005 1.476 8.66691 1.476 8.66691C0.912157 7.9906 1.28805 6.97235 1.58513 6.28089C2.40664 5.66551 3.24331 5.40814 3.24331 5.40814C3.24331 5.40814 2.40058 3.5405 2.47333 2.09785C2.73888 1.78864 3.06718 1.57916 3.44004 1.57916C3.66285 1.57916 3.90203 1.65435 4.15273 1.82775C5.06215 2.45252 6.22318 3.66508 6.57786 5.18079C6.57786 5.18079 6.40537 1.80744 7.36027 1.80744C7.4024 1.80744 7.44697 1.8141 7.49335 1.82775C8.59981 2.14938 8.69985 6.5419 8.69985 6.5419C8.69985 6.5419 9.6984 5.93258 10.7558 5.93258C11.4463 5.93258 12.1617 6.19236 12.6407 7.05086C13.7305 9.00188 12.1684 10.5461 10.1155 10.5461C9.88422 10.5461 9.64687 10.5264 9.40617 10.4855C9.40617 10.4855 11.3281 13.3141 9.76084 14.5266C9.38373 14.8186 8.99299 14.9292 8.61619 14.9292ZM7.43302 11.0451L7.43181 11.0463C7.88137 11.3543 8.24513 12.2031 8.24513 12.2031C8.44703 11.2433 7.65553 10.8568 7.65553 10.8568C8.06143 10.4633 8.30879 9.87675 7.49425 9.17195C7.49425 9.17195 7.94199 10.3342 6.83068 11.3949C6.83068 11.3949 7.132 11.2697 7.43302 11.0451ZM4.10211 6.19147C5.43472 6.78987 5.97158 8.41409 5.97158 8.41409C6.17347 6.19116 4.10211 6.19147 4.10211 6.19147Z" fill="#F7FFFE"/>
<path d="M3.56464 12.7957C2.14594 12.6592 0.715114 12.0772 0.199774 10.4099C0.060632 9.96037 -0.000302016 9.54628 1.12522e-06 9.16584C0.00181997 7.80685 0.786957 6.87561 1.58513 6.28084C1.28805 6.97231 0.912158 7.99056 1.476 8.66687C1.476 8.66687 0.0603318 8.97001 0.718148 10.2338C1.1862 11.1353 2.04287 11.2639 2.49334 11.2639C2.6734 11.2639 2.7886 11.2433 2.7886 11.2433C2.7886 11.2433 2.70069 12.1315 3.56464 12.7957Z" fill="#DBF7F3"/>
</svg>
