<svg width="215" height="525" viewBox="0 0 215 525" fill="none" xmlns="http://www.w3.org/2000/svg">
<ellipse cx="176" cy="508" rx="90" ry="17" fill="black" fill-opacity="0.2"/>
<g clip-path="url(#clip0)">
<path fill-rule="evenodd" clip-rule="evenodd" d="M161.264 405.606C166.479 408.032 172.574 408.074 178.314 408.09C179.771 441.987 185.674 477.141 192.522 510.29C174.742 510.303 157.943 511.648 140.662 506.032C142.713 489.9 145.392 473.974 146.935 457.771C147.796 448.743 146.045 436.013 148.477 427.253C149.56 423.352 156.145 422.844 158.573 419.446C161.92 414.759 160.065 410.594 161.264 405.606Z" fill="#594220"/>
<path fill-rule="evenodd" clip-rule="evenodd" d="M206.73 308.729C199.982 321.149 189.892 340.361 183.997 354.506C182.746 351.527 181.296 340.074 182.152 337.118C183.715 331.725 190.766 325.516 194.026 320.794C199.271 316.891 203.178 306.955 206.73 308.729Z" fill="#594220"/>
<path fill-rule="evenodd" clip-rule="evenodd" d="M159.843 266.501C159.843 281.92 158.444 300.653 161.264 315.826C158.105 313.612 156.884 309.382 153.449 307.54C151.392 306.436 148.141 307.81 146.7 305.89C145.17 303.852 145.623 297.648 145.635 295.244C145.674 287.248 145.714 279.086 146.345 271.114C151.25 271.009 155.582 268.74 159.843 266.501Z" fill="#594220"/>
<path d="M157.001 268.275L159.843 266.146L161.97 314.407L158.418 310.503L157.001 268.275Z" fill="#45341B"/>
<path d="M146.345 271.114L150.603 270.759V305.535L144.92 303.761L146.345 271.114Z" fill="#45341B"/>
<path d="M184.348 348.828C187.758 346.273 199.745 321.504 204.244 309.794C204.955 309.321 206.447 308.658 206.731 309.794C207.015 310.929 190.865 340.667 183.997 354.861L184.348 348.828Z" fill="#45341B"/>
<path d="M171.561 408.09H178.31C175.752 418.878 186.716 480.719 192.518 510.29C174.331 513.129 148.595 508.516 138.531 505.677C143.93 502.27 146.814 452.33 147.051 427.963L152.379 425.124C155.505 429.95 150.13 479.181 147.051 503.193C170.495 515.968 182.217 504.967 182.927 503.193C183.496 501.774 175.586 439.2 171.561 408.09Z" fill="#45341B"/>
<path d="M180.796 336.763L183.283 341.376C189.818 333.144 200.929 315.945 203.889 309.084L180.796 336.763Z" fill="#45341B"/>
<path fill-rule="evenodd" clip-rule="evenodd" d="M132.848 31.9375C126.256 27.6002 123.025 25.1569 115.087 26.9694C117.419 23.035 129.07 16.1073 132.8 22.227C133.914 24.4854 132.848 31.9375 132.848 31.9375Z" fill="#688210"/>
<path fill-rule="evenodd" clip-rule="evenodd" d="M222.36 48.2611C245.035 50.594 247.361 90.9269 225.912 97.2319C233.087 104.405 242.884 118.737 228.044 124.405C225.945 125.206 223.875 125.52 221.65 125.621C224.566 129.693 227.562 133.95 227.978 139.106C229.644 159.822 208.733 174.362 190.392 163.946C198.206 185.237 187.129 207.716 162.685 202.506C153.202 200.484 149.695 193.689 142.794 188.076C141.443 195.524 136.041 204.71 129.296 206.529C115.107 210.353 96.6087 198.075 94.4854 182.399C87.3813 193.044 70.6541 199.432 67.7045 178.85C67.3573 176.427 67.7578 174.129 68.2 171.753C48.3092 188.076 22.8763 162.623 31.2583 141.235C34.5653 132.798 45.3788 131.361 52.5708 127.75C52.5708 128.815 22.3781 111.781 39.0729 89.0701C46.8875 75.9403 64.2137 77.5407 71.7521 79.4889C67.6201 68.1626 71.7521 36.1958 109.404 46.8417C109.404 38.9175 108.48 32.4426 115.088 26.9694C122.444 24.6399 127.253 26.8397 132.848 31.9375C131.072 -2.48404 171.778 1.32769 179.735 19.1625C183.183 12.6273 184.737 6.23665 191.812 2.42488C206.981 -5.74619 227.982 7.77015 231.319 23.4208C233.419 33.2711 228.217 41.0012 222.36 48.2611Z" fill="#769413"/>
<path fill-rule="evenodd" clip-rule="evenodd" d="M187.55 5.67778C184.353 9.22638 182.222 14.9042 179.735 19.1625C176.176 13.7883 170.051 9.6602 164.106 7.09721C175.118 0.354856 180.153 2.83179 187.55 5.67778Z" fill="#688210"/>
<path fill-rule="evenodd" clip-rule="evenodd" d="M249.356 62.4555C257.606 60.9198 266.743 59.7457 274.22 64.5628C284.166 70.9703 287.532 87.9303 281.356 97.9417C277.537 104.133 271.512 107.292 264.985 110.007C282.843 123.639 273.906 155.414 250.777 155.429C252.541 159.669 254.633 163.556 255.039 168.204C261.885 168.56 266.404 173.323 268.537 179.56C261.357 174.567 251.346 167.487 242.252 166.854C233.33 166.232 223.459 173.627 223.883 183.108C224.032 186.433 225.614 189.895 226.622 193.044C223.519 192.011 220.65 190.687 217.387 190.206C217.801 181.35 207.289 184.357 202.496 188.107C195.185 193.83 193.233 201.282 193.233 210.078C193.858 204.01 199.541 199.143 205.31 197.303C203.797 207.583 203.71 216.435 215.256 220.724V221.433C203.987 226.385 207.437 235.226 218.097 237.757C216.352 241.517 212.757 244.168 211.945 248.403C209.9 259.072 219.523 267.482 229.464 267.565C227.922 271.797 224.74 275.685 224.585 280.34C224.273 289.812 234.551 298.131 243.672 295.386C248.736 293.862 252.272 289.663 256.46 286.728C256.467 297.063 262.271 309.551 274.931 306.165C279.959 304.819 282.14 300.519 286.297 298.083C290.04 310.671 301.681 305.386 302.637 294.535C308.194 296.258 311.578 298.124 317.556 297.374C317.547 309.937 306.853 321.322 293.401 317.503C287.79 315.91 284.279 311.502 280.614 307.31C275.118 323.82 248.937 321.337 245.093 305.181C236.568 317.503 221.619 314.003 225.201 298.793C212.314 303.486 199.054 293.5 200.412 279.631C200.893 274.71 204.324 270.457 207.441 266.856C189.325 267.565 176.391 254.276 186.915 238.469C190.202 233.535 195.362 231.889 200.337 229.24C195.402 226.621 193.942 221.726 193.233 216.465C191.85 216.785 190.547 217.194 189.325 217.686C180.763 221.137 176.209 228.691 176.183 238.467C162.687 238.467 153.6 231.502 149.187 218.594H148.476C140.509 239.082 106.714 230.775 102.299 212.207C94.6971 217.596 81.0704 228.838 76.6729 212.917C76.0922 210.811 76.014 207.594 76.014 206.529C76.014 205.465 25.9296 237.047 35.5202 180.979C26.5672 182.708 15.0966 182.965 7.8797 176.488C-8.09402 162.151 1.50284 137.133 20.6015 132.718V131.299C15.0647 128.424 13.8863 119.974 14.2717 114.265C15.2112 100.316 24.6677 89.0391 39.0723 90.1347C37.9623 93.4402 36.0886 96.5666 35.6517 100.071C34.0674 112.784 42.9148 121.168 52.5703 127.75C46.1099 132.354 38.8006 132.798 35.1419 141.235C28.5466 156.446 39.7641 173.962 56.1223 175.17C60.5092 175.494 64.2246 173.173 68.1994 171.753C67.2021 179.643 69.8343 190.47 80.2765 189.236C85.6428 188.602 89.9364 184.928 94.4848 182.399C98.8326 203.163 135.778 211.673 142.793 188.076C150.357 192.148 153.348 200.077 162.685 202.342C176.024 205.578 190.159 194.721 192.291 181.689C193.281 175.642 191.531 169.821 190.391 163.946C208.28 171.275 228.536 162.273 228.004 140.525C227.863 134.727 224.099 130.541 221.649 125.621C223.867 125.427 225.984 125.02 228.043 124.124C243.314 117.479 231.665 105.391 225.912 97.2319C245.796 88.6585 245.874 52.5005 222.36 48.2611C227.88 38.6757 233.068 33.035 230.885 21.2917C245.674 21.4155 256.493 33.5944 254.915 48.2611C254.345 53.5669 251.553 57.7536 249.356 62.4555Z" fill="#688210"/>
<path fill-rule="evenodd" clip-rule="evenodd" d="M93.7744 44.7125C77.5219 46.1389 67.9987 65.3163 71.7515 79.4889C60.4194 77.2937 53.1723 78.398 43.3348 84.4569C39.7632 69.47 52.461 64.1902 63.9369 71.6819C61.5774 53.0311 75.4572 42.3998 93.7744 44.7125Z" fill="#688210"/>
<path fill-rule="evenodd" clip-rule="evenodd" d="M36.2306 180.624C31.3936 194.931 43.3259 211.959 60.3848 214.514C57.219 216.91 45.4838 215.699 41.9139 214.514C30.1681 210.613 17.8681 183.007 36.2306 180.624Z" fill="#4E5C08"/>
<path fill-rule="evenodd" clip-rule="evenodd" d="M217.743 190.56C209.367 192.006 194.795 209.591 193.233 218.24V210.078C193.233 201.133 194.78 193.281 202.496 187.582C207.442 183.93 218.453 181.334 217.743 190.56Z" fill="#4E5C08"/>
<path fill-rule="evenodd" clip-rule="evenodd" d="M287.007 199.787C295.092 196.676 300.997 195.92 306.899 203.69C308.948 206.389 311.07 210.136 313.49 212.495C318.385 217.264 325.06 219.994 329.399 225.009C333.047 229.226 330.266 231.464 332.119 236.338C333.196 239.168 338.476 243.431 339.628 246.274C344.313 257.837 336.025 269.142 323.95 269.694C335.316 287.083 322.193 298.923 311.873 297.942C308.544 297.626 305.621 295.881 302.637 294.535C302.134 305.512 288.742 311.566 286.298 298.083C283.212 300.809 281.063 304.116 277.062 305.69C263.293 311.103 256.461 298.258 256.46 286.728C252.862 290.292 248.779 294.362 243.673 295.576C233.933 297.894 224.298 290.487 224.53 280.34C224.638 275.633 227.338 271.601 229.464 267.565C218.487 267.535 209.049 258.6 212.1 246.983C213.055 243.345 216.012 240.749 218.098 237.757C207.337 236.146 202.896 225.101 215.256 221.433V220.724C200.987 217.12 199.543 194.66 214.545 190.64C218.822 189.495 222.818 191.26 226.623 193.044C218.098 179.842 226.427 166.116 242.252 166.814C251.889 167.238 261.483 174.539 268.838 179.842C271.006 181.404 273.931 180.911 276.352 181.95C285.38 185.825 287.007 190.757 287.007 199.787Z" fill="#769413"/>
<path fill-rule="evenodd" clip-rule="evenodd" d="M76.014 205.11C76.0593 207.291 76.2023 210.823 76.8843 212.917C82.1955 229.24 94.0107 216.147 102.299 212.207C108.82 231.338 137.366 237.745 148.476 218.594H149.187C155.057 230.557 162.206 238.465 176.183 238.467C176.19 227.319 181.491 218.198 193.233 216.465C194.342 221.818 195.926 225.802 200.337 229.24C190.986 236.31 183.999 238.641 183.997 251.951C177.02 250.864 173.38 245.637 168.368 241.306C168.331 255.06 163.297 270.977 147.056 271.114H146.345C129.948 271.112 126.701 260.992 120.06 248.403C113.772 260.228 92.9441 257.684 84.5674 249.748C78.877 244.356 78.1453 238.053 78.1453 230.66C72.8003 232.72 66.9127 234.666 61.0979 233.201C54.4387 231.524 50.9372 218.11 54.7015 212.917C64.2922 213.626 76.014 205.11 76.014 205.11Z" fill="#4E5C08"/>
<path fill-rule="evenodd" clip-rule="evenodd" d="M207.441 266.856C204.796 271.099 200.898 275.133 200.412 280.34C199.099 294.406 213.277 301.945 225.201 298.793C224.188 304.501 227.179 312.471 234.437 311.262C238.471 310.59 241.799 307.348 245.093 305.181C250.679 321.537 272.844 322.849 280.614 307.31C298.355 321.668 271.742 349.466 254.339 334.756C250.671 331.654 248.741 327.373 247.224 322.924H245.803C240.538 333.21 222.633 329.788 216.04 322.893C212.084 318.756 211.704 314.151 211.703 308.729C198.482 312.441 188.822 305.131 197.495 292.406C186.617 292.308 179.749 283.072 180.509 272.533C180.784 268.718 182.477 262.99 186.194 261.1C188.759 259.796 191.107 262.443 193.232 263.539C197.397 265.686 202.811 266.487 207.441 266.856Z" fill="#4E5C08"/>
<path fill-rule="evenodd" clip-rule="evenodd" d="M151.319 359.829C149.836 372.389 153.48 383.405 144.557 394.603C133.052 409.04 117.224 400.577 116.508 383.96C99.4583 394.603 88.7079 373.61 99.4583 360.539C86.7569 359.958 80.7139 347.219 82.64 335.699C84.6168 323.869 96.653 314.264 108.694 316.04C114.618 316.914 118.521 320.669 122.902 324.343C122.902 261.533 204.955 332.86 151.319 359.829Z" fill="#769413"/>
<path fill-rule="evenodd" clip-rule="evenodd" d="M164.816 376.862C176.359 408.5 116.508 432.576 104.431 396.735C97.9581 398.838 91.1452 399.99 84.5392 397.477C73.1708 393.152 69.8824 380.085 76.7246 370.475C51.3192 359.312 69.6498 326.916 89.5121 322.214C87.4217 326.906 83.8901 330.481 82.7756 335.699C80.3673 346.976 87.5247 359.491 99.458 360.539C94.0153 369.57 93.3537 385.654 107.983 386.637C111.075 386.844 113.712 384.974 116.508 383.96C117.902 401.468 133.866 408.269 145.094 393.186C153.442 381.974 149.118 371.846 151.318 359.829C168.368 351.667 169.299 335.377 166.948 321.504C190.651 330.678 190.762 371.441 164.816 376.862Z" fill="#688210"/>
<path fill-rule="evenodd" clip-rule="evenodd" d="M67.134 341.376C62.5163 354.506 66.0684 365.862 76.7246 370.475C74.3838 374.921 73.1761 378.193 73.1725 383.25C65.3091 383.249 57.8426 381.882 53.2596 374.733C46.1492 363.641 53.3049 343.532 67.134 341.376Z" fill="#4E5C08"/>
<path fill-rule="evenodd" clip-rule="evenodd" d="M161.264 405.961C166.31 427.131 129.58 440.118 124.322 418.026C121.196 421.02 119.165 424.977 115.084 426.939C104.627 431.966 101.589 421.83 101.589 413.768C90.8084 422.616 74.126 418.735 70.2791 404.542C68.7322 398.835 71.2915 391.156 73.8827 386.089L74.5931 388.218C81.4282 400.023 92.913 399.397 104.431 396.735C109.985 408.393 121.085 415.059 134.268 413.645C151.434 411.804 169.565 394.795 164.816 376.863C171.299 374.984 176.411 371.335 180.09 365.507C198.135 369.828 197.096 396.995 183.997 406.211C176.91 411.198 168.619 409.382 161.264 405.961Z" fill="#4E5C08"/>
<path d="M114.733 351.667C83.119 339.957 117.929 311.213 127.165 333.57C130.362 278.566 191.813 342.796 144.57 346.699C166.238 366.217 127.165 378.282 127.165 360.539C108.694 376.863 106.563 356.99 114.733 351.667Z" fill="#8FB01B"/>
<path d="M197.141 26.2597C214.759 36.1958 199.272 56.8961 189.326 66.0042C218.453 72.7465 198.562 115.33 178.315 109.297C189.397 131.441 170.855 132.245 160.199 129.879C154.516 161.817 121.481 147.622 115.798 138.041C92.7095 176.011 35.8762 138.041 69.621 119.233C34.9527 107.026 67.845 75.2306 95.196 84.457C88.0918 63.4492 105.971 65.7676 115.798 69.5528C113.809 33.4989 142.202 37.7336 156.647 44.3576C159.844 27.3243 175.118 13.8396 197.141 26.2597Z" fill="#8FB01B"/>
</g>
<defs>
<clipPath id="clip0">
<rect width="341" height="511" fill="white" transform="matrix(-1 0 0 1 341 0)"/>
</clipPath>
</defs>
</svg>
