<svg width="239" height="720" viewBox="0 0 239 720" fill="none" xmlns="http://www.w3.org/2000/svg">
<g clip-path="url(#clip0)">
<ellipse cx="4" cy="723.5" rx="135" ry="25.5" fill="#5A890F"/>
<path fill-rule="evenodd" clip-rule="evenodd" d="M4.9072 589.756C-2.66218 593.283 -11.5103 593.345 -19.8428 593.368C-21.9582 642.654 -30.5265 693.769 -40.4678 741.968C-14.6569 741.986 9.72834 743.942 34.8135 735.777C31.8358 712.32 27.9479 689.164 25.7075 665.604C24.4584 652.478 26.9991 633.969 23.4697 621.231C21.897 615.559 12.3387 614.82 8.81438 609.879C3.95462 603.064 6.64743 597.008 4.9072 589.756Z" fill="#594220"/>
<path fill-rule="evenodd" clip-rule="evenodd" d="M6.96972 387.495C6.96972 409.915 8.99999 437.154 4.90723 459.215C9.49241 455.996 11.2649 449.845 16.251 447.166C19.2365 445.561 23.9557 447.559 26.0478 444.768C28.2688 441.804 27.6115 432.783 27.5934 429.289C27.538 417.661 27.4787 405.794 26.5634 394.203C19.4427 394.051 13.1546 390.751 6.96972 387.495Z" fill="#594220"/>
<path d="M11.0942 390.075L6.96922 386.979L3.88181 457.151L9.03806 451.476L11.0942 390.075Z" fill="#45341B"/>
<path d="M26.563 394.203L20.3818 393.687V444.252L28.6318 441.672L26.563 394.203Z" fill="#45341B"/>
<path d="M-28.6026 507.201C-33.5526 503.486 -50.9526 467.471 -57.4839 450.444C-58.5151 449.756 -60.6808 448.793 -61.0933 450.444C-61.5058 452.095 -38.062 495.333 -28.0933 515.972L-28.6026 507.201Z" fill="#45341B"/>
<path d="M-10.04 593.368H-19.8369C-16.1244 609.054 -32.04 698.97 -40.4619 741.968C-14.0619 746.096 23.2974 739.388 37.9067 735.26C30.0692 730.307 25.8818 657.693 25.5381 622.262L17.8037 618.135C13.2662 625.152 21.0693 696.734 25.5381 731.649C-8.49316 750.224 -25.5088 734.228 -26.54 731.649C-27.365 729.585 -15.8838 638.602 -10.04 593.368Z" fill="#45341B"/>
<path d="M-23.4463 489.658L-27.0557 496.365C-36.5432 484.395 -52.6714 459.387 -56.9683 449.412L-23.4463 489.658Z" fill="#45341B"/>
<path fill-rule="evenodd" clip-rule="evenodd" d="M46.1566 46.4375C55.7253 40.1311 60.4162 36.5785 71.9378 39.2139C68.5528 33.4932 51.6403 23.4203 46.2262 32.3183C44.6097 35.6021 46.1566 46.4375 46.1566 46.4375Z" fill="#688210"/>
<path fill-rule="evenodd" clip-rule="evenodd" d="M-83.7803 70.1723C-116.695 73.5643 -120.071 132.209 -88.9365 141.376C-99.3509 151.806 -113.573 172.646 -92.0303 180.886C-88.9842 182.051 -85.9794 182.507 -82.7491 182.654C-86.9823 188.575 -91.3316 194.765 -91.9349 202.261C-94.3532 232.384 -63.9983 253.524 -37.3741 238.379C-48.7178 269.338 -32.638 302.022 2.84469 294.446C16.6106 291.506 21.7011 281.625 31.7197 273.465C33.6803 284.294 41.5217 297.652 51.3134 300.296C71.91 305.855 98.7625 288.003 101.845 265.21C112.157 280.689 136.438 289.976 140.72 260.05C141.224 256.527 140.643 253.186 140.001 249.731C168.875 273.465 205.793 236.456 193.626 205.357C188.825 193.09 173.129 191 162.688 185.75C162.688 187.298 206.517 162.531 182.282 129.509C170.938 110.418 145.788 112.745 134.845 115.578C140.843 99.1093 134.845 52.6292 80.1884 68.1084C80.1884 56.5866 81.5303 47.172 71.9384 39.2139C61.2598 35.8267 54.2783 39.0253 46.1572 46.4375C48.7353 -3.61179 -10.354 1.93051 -21.9053 27.8625C-26.9094 18.3603 -29.1653 9.0682 -39.4366 3.52585C-61.455 -8.355 -91.9413 11.2979 -96.7844 34.0542C-99.833 48.3766 -92.2817 59.6162 -83.7803 70.1723Z" fill="#769413"/>
<path fill-rule="evenodd" clip-rule="evenodd" d="M-33.249 8.2556C-28.6085 13.4153 -25.5147 21.6709 -21.9053 27.8625C-16.7387 20.0484 -7.84682 14.0461 0.782164 10.3195C-15.2022 0.51601 -22.5111 4.1175 -33.249 8.2556Z" fill="#688210"/>
<path fill-rule="evenodd" clip-rule="evenodd" d="M-122.968 90.8111C-134.945 88.5782 -148.208 86.8709 -159.062 93.8751C-173.499 103.192 -178.386 127.852 -169.42 142.408C-163.876 151.411 -155.129 156.004 -145.655 159.951C-171.578 179.772 -158.605 225.974 -125.03 225.996C-127.592 232.16 -130.628 237.813 -131.218 244.571C-141.156 245.088 -147.715 252.014 -150.812 261.082C-140.389 253.822 -125.857 243.529 -112.655 242.608C-99.7054 241.703 -85.3761 252.456 -85.991 266.242C-86.2076 271.076 -88.5034 276.11 -89.9678 280.689C-85.4625 279.186 -81.2975 277.262 -76.5615 276.561C-77.1622 263.685 -61.9036 268.057 -54.9452 273.51C-44.3324 281.831 -41.499 292.666 -41.499 305.456C-42.4065 296.632 -50.6565 289.556 -59.0303 286.881C-56.8337 301.828 -56.7074 314.699 -73.4678 320.935V321.967C-57.1096 329.167 -62.1176 342.021 -77.5928 345.701C-75.0598 351.168 -69.8403 355.024 -68.6621 361.181C-65.6934 376.693 -79.663 388.922 -94.0928 389.043C-91.855 395.196 -87.235 400.849 -87.0107 407.618C-86.5569 421.389 -101.477 433.486 -114.718 429.495C-122.068 427.279 -127.201 421.174 -133.28 416.906C-133.291 431.933 -141.716 450.09 -160.093 445.168C-167.392 443.211 -170.558 436.959 -176.593 433.417C-182.026 451.72 -198.924 444.035 -200.312 428.257C-208.378 430.762 -213.29 433.476 -221.968 432.385C-221.956 450.653 -206.432 467.206 -186.905 461.653C-178.76 459.337 -173.664 452.927 -168.343 446.832C-160.364 470.838 -122.359 467.228 -116.78 443.736C-104.405 461.653 -82.7052 456.564 -87.9053 434.449C-69.1971 441.272 -49.9488 426.753 -51.9198 406.586C-52.6185 399.432 -57.5994 393.247 -62.124 388.011C-35.8272 389.043 -17.0506 369.72 -32.3286 346.737C-37.0994 339.563 -44.5902 337.17 -51.8115 333.318C-44.6482 329.51 -42.529 322.392 -41.499 314.743C-39.4914 315.208 -37.6001 315.802 -35.8272 316.518C-23.3973 321.536 -16.7874 332.519 -16.749 346.733C2.84217 346.733 16.0318 336.606 22.4385 317.839H23.4697C35.0352 347.629 84.0931 335.55 90.501 308.551C101.537 316.388 121.317 332.734 127.701 309.583C128.544 306.522 128.657 301.844 128.657 300.296C128.657 298.748 201.36 344.669 187.438 263.146C200.435 265.66 217.086 266.033 227.562 256.615C250.75 235.77 236.819 199.392 209.095 192.974V190.91C217.132 186.73 218.843 174.444 218.283 166.143C216.919 145.86 203.192 129.464 182.282 131.057C183.894 135.863 186.613 140.409 187.248 145.504C189.547 163.989 176.704 176.18 162.688 185.75C172.066 192.445 182.677 193.09 187.988 205.357C197.562 227.474 181.278 252.943 157.532 254.699C151.164 255.17 145.771 251.796 140.001 249.731C141.449 261.203 137.628 276.946 122.47 275.151C114.68 274.23 108.447 268.887 101.845 265.21C95.5335 295.402 41.9033 307.775 31.7197 273.465C20.7395 279.386 16.3979 290.914 2.84474 294.207C-16.5183 298.913 -37.0376 283.127 -40.1326 264.178C-41.5686 255.386 -39.0292 246.921 -37.374 238.379C-63.3422 249.037 -92.7457 235.946 -91.9735 204.325C-91.7686 195.895 -86.3043 189.808 -82.749 182.654C-85.9678 182.373 -89.0409 181.781 -92.0303 180.478C-114.198 170.815 -97.2871 153.24 -88.9365 141.376C-117.801 128.911 -117.913 76.3363 -83.7803 70.1723C-91.7931 56.2349 -99.3238 48.0333 -96.1553 30.9584C-117.623 31.1384 -133.329 48.8467 -131.038 70.1723C-130.21 77.8869 -126.157 83.9744 -122.968 90.8111Z" fill="#688210"/>
<path fill-rule="evenodd" clip-rule="evenodd" d="M102.876 65.0125C126.468 67.0866 140.292 94.9708 134.845 115.578C151.294 112.386 161.815 113.992 176.095 122.801C181.279 101.01 162.847 93.3333 146.189 104.226C149.614 77.1078 129.465 61.6499 102.876 65.0125Z" fill="#688210"/>
<path fill-rule="evenodd" clip-rule="evenodd" d="M186.407 262.63C193.429 283.433 176.108 308.192 151.345 311.905C155.94 315.389 172.975 313.629 178.157 311.905C195.208 306.233 213.062 266.095 186.407 262.63Z" fill="#4E5C08"/>
<path fill-rule="evenodd" clip-rule="evenodd" d="M128.657 298.232C128.591 301.404 128.384 306.539 127.394 309.583C119.684 333.318 102.533 314.28 90.5009 308.551C81.0354 336.369 39.5985 345.683 23.4697 317.839H22.4385C13.9178 335.232 3.53953 346.731 -16.749 346.733C-16.7593 330.524 -24.455 317.262 -41.499 314.743C-43.1091 322.526 -45.4088 328.318 -51.8115 333.318C-38.2377 343.597 -28.0953 346.986 -28.0928 366.34C-17.9646 364.759 -12.6807 357.159 -5.40528 350.861C-5.35114 370.86 1.95655 394.004 25.5322 394.203H26.5635C50.366 394.2 55.0788 379.486 64.7197 361.181C73.8476 378.374 104.081 374.676 116.241 363.136C124.501 355.297 125.563 346.132 125.563 335.382C133.322 338.377 141.869 341.207 150.31 339.078C159.976 336.638 165.059 317.135 159.595 309.583C145.673 310.615 128.657 298.232 128.657 298.232Z" fill="#4E5C08"/>
<path fill-rule="evenodd" clip-rule="evenodd" d="M19.3448 523.196C21.4976 541.459 16.2073 557.476 29.1598 573.757C45.8609 594.748 68.8371 582.444 69.8761 558.282C94.6261 573.757 110.232 543.234 94.6261 524.228C113.064 523.383 121.836 504.861 119.04 488.11C116.17 470.91 98.6983 456.944 81.2199 459.526C72.6205 460.797 66.9551 466.256 60.5948 471.599C60.5949 380.272 -58.5144 483.982 19.3448 523.196Z" fill="#769413"/>
<path fill-rule="evenodd" clip-rule="evenodd" d="M-0.249569 547.962C-17.0048 593.964 69.8754 628.97 87.4067 576.857C96.8027 579.915 106.692 581.59 116.282 577.936C132.784 571.648 137.558 552.649 127.625 538.675C164.504 522.444 137.895 475.339 109.063 468.503C112.097 475.325 117.224 480.524 118.842 488.11C122.338 504.507 111.948 522.704 94.6254 524.228C102.526 537.359 103.486 560.746 82.2504 562.175C77.7619 562.475 73.9334 559.756 69.8754 558.282C67.8516 583.739 44.6781 593.628 28.3792 571.697C16.262 555.395 22.5385 540.669 19.3442 523.196C-5.40587 511.328 -6.75681 487.643 -3.34337 467.471C-37.751 480.81 -37.9121 540.08 -0.249569 547.962Z" fill="#688210"/>
<path fill-rule="evenodd" clip-rule="evenodd" d="M141.548 496.365C148.251 515.456 143.095 531.967 127.626 538.675C131.024 545.139 132.777 549.897 132.782 557.25C144.197 557.249 155.035 555.261 161.688 544.867C172.01 528.739 161.622 499.5 141.548 496.365Z" fill="#4E5C08"/>
<path fill-rule="evenodd" clip-rule="evenodd" d="M4.90684 590.272C-2.41762 621.054 50.8993 639.937 58.5318 607.815C63.0693 612.168 66.0187 617.922 71.942 620.774C87.122 628.084 91.5318 613.347 91.5318 601.624C107.181 614.489 131.397 608.846 136.982 588.208C139.227 579.91 135.512 568.746 131.751 561.378L130.719 564.474C120.797 581.637 104.126 580.728 87.4068 576.857C79.3437 593.808 63.2318 603.5 44.0944 601.444C19.1768 598.768 -7.14332 574.036 -0.249415 547.963C-9.66086 545.232 -17.0807 539.925 -22.4213 531.451C-48.6151 537.735 -47.1068 577.235 -28.0931 590.636C-17.8051 597.887 -5.77047 595.246 4.90684 590.272Z" fill="#4E5C08"/>
<path d="M72.4533 511.329C118.344 494.301 67.8126 452.508 54.4064 485.014C49.7658 405.038 -39.4374 498.429 29.1408 504.105C-2.31235 532.483 54.4064 550.026 54.4064 524.228C81.2189 547.963 84.3126 519.068 72.4533 511.329Z" fill="#8FB01B"/>
<path d="M-47.1713 38.1819C-72.7463 52.6292 -50.265 82.7275 -35.8275 95.9708C-78.1088 105.774 -49.2338 167.691 -19.8432 158.919C-35.9307 191.116 -9.01503 192.286 6.45372 188.846C14.7037 235.283 62.6568 214.644 70.9068 200.713C104.422 255.922 186.922 200.713 137.938 173.367C188.263 155.617 140.516 109.386 100.813 122.801C111.126 92.2558 85.1725 95.6269 70.9068 101.131C73.7943 48.7078 32.5787 54.865 11.61 64.4965C6.96935 39.7298 -15.2025 20.1229 -47.1713 38.1819Z" fill="#8FB01B"/>
</g>
<defs>
<clipPath id="clip0">
<rect width="495" height="743" fill="white" transform="translate(-256)"/>
</clipPath>
</defs>
</svg>
