<svg width="506" height="759" viewBox="0 0 506 759" fill="none" xmlns="http://www.w3.org/2000/svg">
<ellipse cx="259.937" cy="723.552" rx="135" ry="25.5" fill="#5A890F"/>
<path fill-rule="evenodd" clip-rule="evenodd" d="M266.114 601.714C258.392 605.312 249.365 605.375 240.864 605.399C238.706 655.68 229.964 707.827 219.822 756.999C246.155 757.018 271.032 759.013 296.624 750.683C293.586 726.753 289.62 703.129 287.334 679.094C286.06 665.702 288.652 646.819 285.051 633.824C283.447 628.038 273.696 627.284 270.1 622.244C265.142 615.291 267.889 609.113 266.114 601.714Z" fill="#594220"/>
<path fill-rule="evenodd" clip-rule="evenodd" d="M198.781 458.01C208.776 476.434 223.718 504.932 232.448 525.914C234.301 521.495 236.449 504.506 235.181 500.121C232.866 492.121 222.424 482.911 217.597 475.907C209.828 470.117 204.042 455.378 198.781 458.01Z" fill="#594220"/>
<path fill-rule="evenodd" clip-rule="evenodd" d="M268.218 395.37C268.218 418.243 270.29 446.031 266.114 468.538C270.792 465.253 272.6 458.979 277.687 456.245C280.733 454.608 285.548 456.647 287.682 453.799C289.948 450.775 289.277 441.572 289.259 438.007C289.202 426.145 289.142 414.038 288.208 402.213C280.943 402.058 274.528 398.691 268.218 395.37Z" fill="#594220"/>
<path d="M272.427 398.002L268.218 394.844L265.069 466.432L270.329 460.642L272.427 398.002Z" fill="#45341B"/>
<path d="M288.208 402.213L281.902 401.687V453.273L290.319 450.641L288.208 402.213Z" fill="#45341B"/>
<path d="M231.928 517.492C226.878 513.702 209.126 476.96 202.463 459.589C201.411 458.887 199.202 457.905 198.781 459.589C198.36 461.274 222.277 505.385 232.448 526.441L231.928 517.492Z" fill="#45341B"/>
<path d="M250.865 605.399H240.871C244.658 621.401 228.421 713.133 219.829 756.999C246.762 761.21 284.876 754.367 299.781 750.156C291.785 745.103 287.513 671.022 287.162 634.877L279.272 630.666C274.643 637.825 282.603 710.852 287.162 746.471C252.444 765.421 235.084 749.103 234.032 746.471C233.19 744.366 244.904 651.546 250.865 605.399Z" fill="#45341B"/>
<path d="M237.188 499.595L233.506 506.438C223.827 494.226 207.373 468.713 202.989 458.537L237.188 499.595Z" fill="#45341B"/>
<path fill-rule="evenodd" clip-rule="evenodd" d="M308.197 47.4268C317.959 40.9931 322.745 37.3687 334.499 40.0574C331.046 34.2212 313.792 23.9449 308.268 33.0226C306.619 36.3727 308.197 47.4268 308.197 47.4268Z" fill="#688210"/>
<path fill-rule="evenodd" clip-rule="evenodd" d="M175.635 71.6408C142.055 75.1012 138.611 134.93 170.375 144.282C159.75 154.922 145.24 176.183 167.218 184.589C170.326 185.778 173.392 186.244 176.687 186.394C172.368 192.434 167.931 198.749 167.316 206.396C164.849 237.127 195.817 258.694 222.979 243.244C211.406 274.827 227.811 308.171 264.01 300.442C278.054 297.443 283.247 287.363 293.468 279.038C295.469 290.086 303.468 303.712 313.458 306.41C334.471 312.082 361.866 293.869 365.01 270.616C375.531 286.407 400.303 295.882 404.671 265.352C405.185 261.758 404.592 258.35 403.937 254.824C433.394 279.038 471.059 241.281 458.646 209.555C453.748 197.04 437.734 194.908 427.083 189.552C427.083 191.131 471.797 165.864 447.073 132.175C435.5 112.699 409.841 115.073 398.677 117.963C404.796 101.162 398.677 53.7435 342.916 69.5352C342.916 57.7808 344.285 48.1762 334.5 40.0574C323.605 36.6018 316.483 39.865 308.198 47.4269C310.828 -3.63287 250.545 2.02132 238.76 28.4769C233.655 18.7828 231.353 9.30311 220.875 3.64887C198.411 -8.47183 167.309 11.5779 162.368 34.7935C159.258 49.405 166.962 60.8716 175.635 71.6408Z" fill="#769413"/>
<path fill-rule="evenodd" clip-rule="evenodd" d="M227.188 8.47411C231.922 13.738 235.078 22.1602 238.76 28.4769C244.031 20.505 253.103 14.3815 261.906 10.5797C245.599 0.578274 238.142 4.25247 227.188 8.47411Z" fill="#688210"/>
<path fill-rule="evenodd" clip-rule="evenodd" d="M135.655 92.6963C123.436 90.4182 109.906 88.6765 98.8323 95.8221C84.1029 105.327 79.1179 130.485 88.2644 145.335C93.9211 154.519 102.844 159.206 112.509 163.232C86.0631 183.454 99.2979 230.588 133.551 230.61C130.938 236.899 127.84 242.666 127.239 249.56C117.1 250.088 110.408 257.153 107.249 266.405C117.882 258.998 132.708 248.497 146.176 247.557C159.388 246.635 174.006 257.605 173.379 271.669C173.158 276.601 170.816 281.736 169.322 286.407C173.918 284.874 178.167 282.911 182.999 282.196C182.386 269.06 197.953 273.52 205.052 279.084C215.879 287.572 218.77 298.626 218.77 311.674C217.844 302.673 209.427 295.453 200.884 292.724C203.125 307.974 203.254 321.104 186.155 327.466V328.519C202.844 335.864 197.735 348.978 181.947 352.732C184.531 358.31 189.856 362.243 191.058 368.524C194.087 384.35 179.835 396.825 165.114 396.949C167.397 403.226 172.11 408.993 172.339 415.899C172.802 429.948 157.581 442.29 144.072 438.218C136.573 435.957 131.336 429.729 125.134 425.374C125.124 440.705 116.528 459.229 97.7803 454.207C90.3334 452.211 87.1032 445.832 80.9469 442.219C75.4044 460.891 58.1642 453.052 56.749 436.955C48.5199 439.51 43.5083 442.279 34.6553 441.166C34.6676 459.803 50.5052 476.69 70.4261 471.025C78.7364 468.662 83.9354 462.123 89.3636 455.905C97.5033 480.395 136.276 476.713 141.968 452.746C154.593 471.025 176.731 465.834 171.426 443.271C190.512 450.233 210.149 435.42 208.139 414.846C207.426 407.548 202.344 401.238 197.728 395.896C224.556 396.949 243.712 377.236 228.126 353.789C223.258 346.47 215.616 344.029 208.249 340.099C215.557 336.214 217.719 328.953 218.77 321.149C220.818 321.624 222.748 322.23 224.556 322.96C237.237 328.079 243.981 339.284 244.02 353.785C264.007 353.785 277.463 343.453 283.999 324.307H285.051C296.85 354.698 346.899 342.376 353.436 314.832C364.695 322.827 384.875 339.503 391.388 315.885C392.248 312.762 392.364 307.989 392.364 306.41C392.364 304.831 466.535 351.68 452.332 268.51C465.591 271.075 482.578 271.455 493.266 261.847C516.922 240.581 502.71 203.47 474.426 196.921V194.816C482.626 190.552 484.371 178.017 483.8 169.549C482.409 148.857 468.404 132.129 447.072 133.755C448.716 138.658 451.491 143.295 452.138 148.494C454.484 167.351 441.381 179.789 427.082 189.552C436.65 196.382 447.474 197.04 452.893 209.555C462.66 232.118 446.047 258.101 421.822 259.893C415.325 260.374 409.823 256.931 403.937 254.824C405.413 266.528 401.515 282.588 386.051 280.758C378.104 279.818 371.745 274.368 365.009 270.616C358.571 301.417 303.857 314.04 293.468 279.038C282.266 285.078 277.836 296.839 264.009 300.199C244.255 304.999 223.321 288.895 220.164 269.563C218.699 260.593 221.29 251.958 222.978 243.244C196.485 254.116 166.488 240.762 167.276 208.502C167.485 199.902 173.059 193.692 176.687 186.394C173.403 186.107 170.267 185.503 167.218 184.173C144.602 174.316 161.855 156.385 170.374 144.282C140.926 131.565 140.812 77.9293 175.634 71.6407C167.46 57.4221 159.777 49.0548 163.009 31.6352C141.108 31.8189 125.085 49.8847 127.422 71.6407C128.266 79.5112 132.402 85.7215 135.655 92.6963Z" fill="#688210"/>
<path fill-rule="evenodd" clip-rule="evenodd" d="M366.062 66.3769C390.131 68.4928 404.234 96.94 398.676 117.963C415.458 114.707 426.191 116.345 440.759 125.332C446.049 103.101 427.244 95.2695 410.249 106.382C413.743 78.7164 393.188 62.9464 366.062 66.3769Z" fill="#688210"/>
<path fill-rule="evenodd" clip-rule="evenodd" d="M91.4678 149.546C91.4678 161.473 93.142 173.005 99.8844 183.235C104.441 176.457 106.87 169.341 112.509 163.232C105.775 159.299 98.6085 152.551 91.4678 149.546Z" fill="#4E5C08"/>
<path fill-rule="evenodd" clip-rule="evenodd" d="M127.239 249.56C128.237 242.792 131.687 237.091 133.551 230.61C111.703 230.55 99.0034 212.277 98.8327 191.657C71.0007 192.251 54.6749 232.192 76.9338 251.331C82.1862 255.848 101.413 263.162 108.207 260.506C115.524 257.647 118.558 250.456 127.239 249.56Z" fill="#4E5C08"/>
<path fill-rule="evenodd" clip-rule="evenodd" d="M56.7495 295.356C65.572 292.558 71.3398 294.599 79.8953 296.935C79.8953 280.141 89.3216 268.562 107.25 268.51C99.7711 263.727 94.4626 255.647 85.1558 254.121C60.0488 250.006 50.605 275.87 56.7495 295.356Z" fill="#688210"/>
<path fill-rule="evenodd" clip-rule="evenodd" d="M451.281 267.984C458.444 289.206 440.773 314.465 415.51 318.254C420.198 321.808 437.577 320.012 442.864 318.254C460.259 312.468 478.474 271.518 451.281 267.984Z" fill="#4E5C08"/>
<path fill-rule="evenodd" clip-rule="evenodd" d="M182.473 282.723C194.877 284.868 216.457 310.952 218.77 323.781V311.674C218.77 298.406 216.479 286.759 205.052 278.305C197.729 272.887 181.421 269.037 182.473 282.723Z" fill="#4E5C08"/>
<path fill-rule="evenodd" clip-rule="evenodd" d="M79.8966 296.409C67.923 291.794 59.1787 290.672 50.4382 302.199C47.403 306.202 44.2611 311.761 40.6768 315.26C33.4285 322.333 23.5424 326.384 17.1162 333.823C11.7143 340.078 15.8329 343.398 13.088 350.627C11.4936 354.825 3.67363 361.149 1.96808 365.366C-4.96997 382.518 7.30396 399.288 25.187 400.107C8.35361 425.9 27.789 443.463 43.0724 442.009C48.0018 441.539 52.331 438.952 56.7495 436.955C57.4949 453.238 77.3273 462.219 80.9474 442.219C85.5172 446.261 88.6994 451.167 94.6245 453.502C115.016 461.532 125.133 442.478 125.135 425.374C130.464 430.662 136.511 436.698 144.072 438.5C158.496 441.937 172.765 430.95 172.421 415.899C172.262 408.917 168.262 402.935 165.114 396.949C181.37 396.904 195.347 383.65 190.83 366.419C189.415 361.022 185.035 357.171 181.947 352.732C197.883 350.343 204.459 333.959 186.156 328.519V327.466C207.287 322.12 209.425 288.804 187.208 282.841C180.874 281.142 174.956 283.761 169.322 286.407C181.947 266.823 169.612 246.462 146.177 247.498C131.904 248.127 117.697 258.958 106.803 266.823C103.593 269.141 99.261 268.409 95.6766 269.95C82.3064 275.698 79.8966 283.015 79.8966 296.409Z" fill="#769413"/>
<path fill-rule="evenodd" clip-rule="evenodd" d="M25.1875 326.939C37.1947 326.546 45.3334 310.366 50.4375 301.146C38.6576 305.107 27.4526 314.224 25.1875 326.939Z" fill="#688210"/>
<path fill-rule="evenodd" clip-rule="evenodd" d="M392.364 304.305C392.296 307.541 392.085 312.78 391.075 315.885C383.209 340.099 365.712 320.677 353.436 314.832C343.78 343.211 301.506 352.714 285.051 324.307H283.999C275.306 342.052 264.718 353.783 244.02 353.785C244.009 337.249 236.158 323.719 218.77 321.149C217.127 329.09 214.781 334.998 208.249 340.099C222.097 350.586 232.444 354.043 232.447 373.788C242.78 372.175 248.17 364.421 255.593 357.996C255.648 378.399 263.103 402.01 287.155 402.213H288.207C312.491 402.21 317.299 387.199 327.134 368.524C336.447 386.065 367.291 382.292 379.697 370.519C388.124 362.522 389.207 353.172 389.207 342.205C397.123 345.26 405.842 348.148 414.453 345.975C424.315 343.486 429.501 323.589 423.926 315.885C409.723 316.938 392.364 304.305 392.364 304.305Z" fill="#4E5C08"/>
<path fill-rule="evenodd" clip-rule="evenodd" d="M197.729 395.896C201.645 402.191 207.419 408.174 208.138 415.899C210.083 436.764 189.086 447.947 171.427 443.271C172.927 451.738 168.498 463.561 157.75 461.767C151.775 460.771 146.846 455.961 141.968 452.746C133.696 477.009 100.871 478.955 89.3643 455.905C63.0898 477.204 102.503 518.438 128.276 496.617C133.707 492.016 136.566 485.665 138.812 479.066H140.916C148.714 494.324 175.23 489.247 184.993 479.021C190.852 472.883 191.415 466.053 191.416 458.01C210.997 463.516 225.303 452.673 212.458 433.796C228.568 433.652 238.739 419.951 237.613 404.319C237.206 398.659 234.699 390.163 229.194 387.358C225.396 385.424 221.919 389.351 218.771 390.977C212.603 394.162 204.586 395.35 197.729 395.896Z" fill="#4E5C08"/>
<path fill-rule="evenodd" clip-rule="evenodd" d="M8.35352 393.264C8.35352 403.791 9.34324 413.038 18.8743 419.057C18.8971 411.121 21.9871 406.997 25.1868 400.107C19.0795 399.57 14.14 398.002 8.35352 393.264Z" fill="#688210"/>
<path fill-rule="evenodd" clip-rule="evenodd" d="M280.843 533.81C283.039 552.442 277.642 568.782 290.856 585.392C307.895 606.807 331.335 594.254 332.395 569.605C357.645 585.392 373.566 554.253 357.645 534.863C376.455 534.001 385.404 515.105 382.552 498.016C379.625 480.469 361.8 466.221 343.968 468.855C335.195 470.151 329.415 475.721 322.926 481.171C322.927 388 201.411 493.805 280.843 533.81Z" fill="#769413"/>
<path fill-rule="evenodd" clip-rule="evenodd" d="M260.853 559.077C243.76 606.007 332.395 641.72 350.28 588.555C359.866 591.675 369.956 593.383 379.739 589.656C396.575 583.241 401.445 563.858 391.312 549.602C428.935 533.043 401.789 484.988 372.374 478.013C375.47 484.973 380.7 490.276 382.351 498.016C385.917 514.744 375.317 533.309 357.645 534.863C365.705 548.259 366.685 572.118 345.02 573.576C340.441 573.883 336.535 571.109 332.395 569.605C330.33 595.575 306.689 605.665 290.06 583.291C277.698 566.659 284.102 551.636 280.843 533.81C255.593 521.703 254.215 497.539 257.697 476.96C222.594 490.569 222.43 551.035 260.853 559.077Z" fill="#688210"/>
<path fill-rule="evenodd" clip-rule="evenodd" d="M405.515 506.438C412.353 525.914 407.093 542.759 391.312 549.602C394.778 556.196 396.567 561.051 396.572 568.552C408.217 568.551 419.275 566.523 426.062 555.919C436.592 539.465 425.995 509.636 405.515 506.438Z" fill="#4E5C08"/>
<path fill-rule="evenodd" clip-rule="evenodd" d="M266.114 602.241C258.642 633.644 313.036 652.908 320.823 620.138C325.452 624.578 328.461 630.449 334.504 633.358C349.99 640.816 354.489 625.781 354.489 613.821C370.455 626.947 395.16 621.189 400.857 600.135C403.148 591.67 399.358 580.28 395.52 572.763L394.468 575.921C384.346 593.432 367.338 592.504 350.281 588.555C342.055 605.848 325.618 615.736 306.093 613.638C280.673 610.908 253.821 585.677 260.854 559.077C251.252 556.291 243.683 550.877 238.234 542.232C211.511 548.643 213.05 588.94 232.448 602.612C242.943 610.009 255.221 607.315 266.114 602.241Z" fill="#4E5C08"/>
<path d="M335.025 521.703C381.842 504.332 330.29 461.695 316.613 494.858C311.879 413.267 220.874 508.543 290.837 514.334C258.749 543.285 316.613 561.182 316.613 534.863C343.967 559.077 347.124 529.599 335.025 521.703Z" fill="#8FB01B"/>
<path d="M212.984 39.0046C186.892 53.7435 209.827 84.4495 224.557 97.9602C181.421 107.962 210.88 171.128 240.864 162.18C224.451 195.026 251.911 196.219 267.692 192.71C276.109 240.085 325.031 219.03 333.447 204.817C367.64 261.141 451.807 204.817 401.833 176.919C453.174 158.811 404.463 111.646 363.958 125.332C374.479 94.1702 348.001 97.6093 333.447 103.224C336.393 49.743 294.345 56.0245 272.952 65.8505C268.218 40.5838 245.598 20.581 212.984 39.0046Z" fill="#8FB01B"/>
<path d="M101.989 281.67C81.7887 264.825 79.5443 285.53 80.947 297.988C47.2804 283.249 42.7213 312.551 44.6502 329.045C-8.48018 314.832 9.93132 398.528 44.6502 375.893C38.8636 421.689 92.5199 403.792 89.8898 384.316C106.302 404.95 112.159 385.193 113.036 372.735C153.436 381.578 150.209 351.855 143.546 335.888C185.629 335.888 175.634 262.193 138.812 287.986C163.01 241.138 105.671 254.824 101.989 281.67Z" fill="#8FB01B"/>
</svg>
