<svg width="379" height="515" viewBox="0 0 379 515" fill="none" xmlns="http://www.w3.org/2000/svg">
<ellipse cx="175" cy="489.5" rx="135" ry="25.5" fill="black" fill-opacity="0.2"/>
<path d="M125.177 315.326C84.6433 357.289 70.1387 328.042 67.9531 308.173C144.847 255.519 310.08 162.372 355.859 211.012C401.638 259.652 367.383 291.284 344.534 301.02C344.057 353.475 300.622 342.745 278.965 330.824C273.554 337.95 267.866 341.954 262.275 343.79C298.039 360.627 282.541 373.741 262.275 356.455C256.314 386.259 245.584 365.396 249.757 344.622C240.113 342.912 231.777 336.307 227.106 330.824C198.017 360.866 184.387 334.996 181.208 318.306C158.319 359.316 134.317 333.407 125.177 315.326Z" fill="#61630D"/>
<path d="M13.7179 258.249C-14.417 221.53 7.16105 201.224 21.4669 195.661C57.2316 194.468 127.45 206.986 122.204 266.594C116.959 326.202 77.4983 315.671 58.4238 302.955C2.63082 323.937 5.3728 281.893 13.7179 258.249Z" fill="#737504"/>
<path d="M304.008 280.304C279.211 308.439 251.553 290.437 240.824 277.919C253.54 230.432 289.225 140.702 330.236 161.684C371.246 182.666 360.437 218.908 349.906 234.406C377.564 287.814 330.832 287.258 304.008 280.304Z" fill="#737504"/>
<path d="M138.886 305.788C121.719 320.571 109.48 310.358 105.506 303.404L123.984 219.953C171.074 223.529 264.897 241.65 263.467 285.522C262.036 329.393 233.067 317.312 218.761 305.788C204.932 315.325 189.156 308.173 182.996 303.404C171.074 337.738 148.622 319.299 138.886 305.788Z" fill="#2D3C01"/>
<path d="M142.463 326.055L143.655 283.733C153.59 280.753 173.101 275.269 171.671 277.176C170.24 279.084 172.267 324.465 173.459 346.918L215.78 293.271L225.318 302.212L174.651 380.894C171.313 385.186 174.452 451.43 176.439 484.016C218.88 493.553 192.136 494.745 173.459 494.149C166.306 502.256 154.583 496.335 149.616 492.361C97.1608 497.606 120.607 488.983 138.886 484.016C141.748 481.154 141.271 391.425 140.675 346.918L132.926 336.188C122.792 341.553 123.984 330.227 128.753 328.439L108.486 302.212L114.447 290.29L142.463 326.055Z" fill="#992108"/>
<path d="M118.62 315.326L108.486 302.212L114.447 290.29C119.613 297.244 131.257 310.915 129.349 309.961C127.442 309.007 121.401 313.537 118.62 315.326Z" fill="#5A2108"/>
<path d="M143.059 308.173L142.463 281.945L172.267 270.024L171.671 307.576C171.194 305.192 152.795 307.179 143.059 308.173Z" fill="#5A2108"/>
<path d="M215.184 317.71C215.661 315.326 205.846 311.948 201.475 311.153L215.78 293.271L225.318 302.212L215.184 317.71Z" fill="#5A2108"/>
<path d="M157.961 389.835C151.006 405.929 141.27 445.747 157.961 476.267C165.312 459.576 175.605 418.924 157.961 389.835Z" fill="#B73A0A"/>
<path d="M159.861 39.7009C169.994 28.5741 192.645 14.7848 202.182 48.642C221.257 38.1113 261.432 28.9714 269.539 76.6577C291.793 66.7231 341.069 71.889 304.708 120.768C324.776 132.689 351.798 161.897 299.343 183.356C329.147 195.277 343.453 272.171 264.77 257.269C252.054 275.351 217.323 303.048 180.127 269.191C171.186 278.728 147.82 292.677 125.884 272.171C111.578 303.763 37.6646 306.744 63.296 239.387C37.6646 233.029 -3.34562 208.272 37.6646 160.109C25.3456 154.744 8.0991 141.153 37.6646 129.709C28.5247 109.045 24.7893 67.7166 82.9665 67.7166C84.6597 57.7047 88.715 45.4398 95.7205 36.1244C85.7071 28.9714 72.1179 15.7385 97.8685 20.0303C95.7205 5.12821 102.637 -18.1188 111.578 23.6897C123.408 19.3652 139.24 22.3876 159.861 39.7009Z" fill="#858704"/>
<path d="M129.778 149.696C37.982 190.229 64.2094 45.382 117.857 87.7036C129.778 16.1742 194.155 51.3428 197.731 76.3781C256.743 28.6918 280.586 139.562 206.672 137.178C206.672 201.555 141.104 186.653 129.778 149.696Z" fill="#A9AC06"/>
<path d="M147.232 122.792C144.848 160.345 69.7418 129.349 127.561 98.3523C140.079 10.1332 245.585 103.718 147.232 122.792Z" fill="#B0B70C"/>
<ellipse cx="219.357" cy="94.1804" rx="21.4588" ry="19.0745" fill="#ABB10C"/>
<circle cx="94.7769" cy="194.918" r="25.6314" fill="#999C05"/>
<circle cx="271.216" cy="144.847" r="24.4392" fill="#9DA005"/>
</svg>
