<svg width="405" height="158" viewBox="0 0 405 158" fill="none" xmlns="http://www.w3.org/2000/svg">
<path d="M41.3081 113.555C-30.6883 96.3918 7.53356 87.6311 35.644 85.3963C37.6579 64.4977 62.0763 66.4081 74.0337 69.9756C85.1101 -6.72455 123.542 18.7975 141.373 41.146C149.428 22.9096 164.868 27.7369 171.581 32.4301C208.083 -38.6378 255.283 24.3851 248.361 57.9075C279.576 43.4257 288.638 62.6007 289.268 73.9985C309.406 59.5167 320.315 70.6462 323.252 78.0213C439.05 41.1465 420.799 161.158 333.321 120.26C323.252 147.615 288.848 145.961 272.905 141.715C230.613 169.069 204.936 151.771 197.384 139.703C182.783 140.776 174.938 137.468 172.84 135.68C150.184 148.553 123.122 139.703 112.423 133.669C79.6977 139.033 51.3775 122.495 41.3081 113.555Z" fill="white"/>
<path d="M149.554 87.4079C73.5303 92.2351 112.423 118.249 142.632 118.249C148.17 138.631 176.406 137.469 189.832 134.34L274.793 141.044C303.994 149.09 324.739 141.044 335.839 120.931C415.364 157.557 399.001 59.6706 292.414 96.7943C282.849 60.8579 258.22 75.5632 247.102 87.4079C231.998 11.2441 210.181 35.1123 201.16 56.5668C188.07 39.9395 179.763 54.1085 177.245 63.2714C152.701 26.3964 121.864 73.3283 149.554 87.4079Z" fill="#F0FAF9"/>
<path d="M192.979 118.248C159.246 115.03 165.917 129.422 173.469 137.021C183.035 140.239 194.657 141.044 199.272 141.044C219.915 170.544 256.351 153.335 273.133 141.044C351.171 157.135 311.924 98.1352 262.206 118.248C245.592 88.2118 230.529 105.733 225.075 118.248C209.971 56.5668 178.504 97.4648 192.979 118.248Z" fill="white"/>
</svg>
