<svg width="403" height="135" viewBox="0 0 403 135" fill="none" xmlns="http://www.w3.org/2000/svg">
<path d="M50.9554 36.5827C33.0332 27.6984 24.9476 54.4746 23.1451 68.9733C-21.9245 62.0049 6.65858 124.935 42.4578 115.246C51.11 129.312 72.8432 121.107 82.6284 115.246C98.6966 140.418 130.524 128.819 144.429 119.873C166.678 148.747 235.585 128.819 267.258 115.246C277.764 129.312 329.317 124.192 353.78 119.873C422.378 127.276 403.993 108.151 386.225 97.6622C382.517 68.0479 356.355 76.0684 343.737 83.7805C301.712 31.2151 271.121 52.0068 261.078 68.9733C265.404 47.5029 252.066 47.688 244.856 50.4644C243.62 20.1098 226.83 23.0095 218.59 28.2537C209.938 3.8219 188.72 35.3488 179.192 54.1662C174.866 42.3205 164.515 49.2305 159.879 54.1662C156.171 30.4748 137.219 29.4876 128.207 31.9555C124.498 5.30261 98.8511 4.80905 86.4909 7.89388C48.1744 -15.0571 46.8354 17.4568 50.9554 36.5827Z" fill="white"/>
<path d="M91.6347 84.2158C68.7683 63.4858 60.9918 82.3649 59.9617 94.3957C21.3361 111.979 54.5545 135.115 82.3645 114.756C97.2484 141.408 130.282 128.946 144.938 119.383C165.95 149.737 235.579 128.946 267.767 114.756C280.745 130.303 330.34 124.318 353.516 119.383C359.696 122.344 375.661 121.851 382.871 121.234C384.725 112.349 365.618 110.128 355.833 110.128C360.159 80.514 338.065 86.0667 326.478 92.5448C305.466 64.4112 275.492 78.9716 263.132 89.7685C250.772 29.0591 217.296 60.7711 202.104 84.2158C194.688 60.5244 174.293 68.7916 165.023 75.8867C141.075 25.9125 118.672 52.7505 124.08 73.1105C104.922 53.8612 94.4672 72.4935 91.6347 84.2158Z" fill="#F0FAF9"/>
</svg>
