<svg width="196" height="118" viewBox="0 0 196 118" fill="none" xmlns="http://www.w3.org/2000/svg">
<path d="M26.3926 74.6038V63.5251H59.4021L79.7157 92.3296H45.6905L39.0886 79.5891L26.3926 74.6038Z" fill="black" stroke="black"/>
<path d="M137.101 41.3677V7.57788H150.304C151.93 15.1113 150.304 33.2434 149.289 41.3677H137.101Z" fill="#3D4137"/>
<path d="M152.336 43.0295C151.222 42.7865 151.964 34.9008 154.875 36.3823C162.493 40.2598 187.885 48.0148 190.932 49.6766C192.774 50.6812 192.455 56.8777 188.9 57.9856C184.901 56.2972 180.739 54.5373 176.712 52.8421C175.087 52.7157 175.019 55.1106 175.189 56.3238C171.126 54.8467 163.102 51.7816 163.508 51.3384C163.915 50.8953 163.339 48.3435 163 47.123C157.484 44.8584 153.435 43.2693 152.336 43.0295Z" fill="#3D4137"/>
<path d="M186.869 81.8046C181.79 70.1721 155.891 65.7406 149.289 93.4372C139.132 93.973 125.42 94.545 107.646 95.099C82.7618 94.545 71.8705 92.619 62.4482 82.9125C72.605 85.6822 87.8402 87.2801 110.185 87.2801C145.702 85.6077 144.21 85.3385 150.304 75.7114C165.032 52.4463 188.759 66.5369 194.002 76.8193C188.738 72.831 187.392 78.481 186.869 81.8046Z" fill="#3D4137"/>
<path d="M194.486 85.1282C195.94 83.1471 195.643 80.0385 194.002 76.8193M194.002 76.8193C188.759 66.5369 165.032 52.4463 150.304 75.7114C144.21 85.3385 145.702 85.6077 110.185 87.2801C87.8402 87.2801 72.605 85.6822 62.4482 82.9125C71.8705 92.619 82.7618 94.545 107.646 95.099C125.42 94.545 139.132 93.973 149.289 93.4372C155.891 65.7406 181.79 70.1721 186.869 81.8046C187.392 78.481 188.738 72.831 194.002 76.8193ZM163 47.123C157.484 44.8584 153.435 43.2693 152.336 43.0295C151.222 42.7865 151.964 34.9008 154.875 36.3823C162.493 40.2598 187.885 48.0148 190.932 49.6766C192.774 50.6812 192.455 56.8777 188.9 57.9856C184.901 56.2972 180.739 54.5373 176.712 52.8421M163 47.123C163.339 48.3435 163.915 50.8953 163.508 51.3384C163.102 51.7816 171.126 54.8467 175.189 56.3238C175.019 55.1106 175.087 52.7157 176.712 52.8421M163 47.123C166.991 48.761 171.748 50.7524 176.712 52.8421M137.101 7.57788V41.3677H149.289C150.304 33.2434 151.93 15.1113 150.304 7.57788H137.101Z" stroke="black"/>
<path d="M36.5488 63.5252V46.9073H74.1289C76.9728 46.9073 81.7465 42.8451 83.7779 40.8141H113.74V6.47034H120.85V40.8141H149.289C149.362 41.987 149.44 43.2926 149.521 44.6916C156.907 53.0005 183.314 49.6769 183.314 66.8488C175.189 61.3095 158.43 62.4174 150.305 76.2656C145.595 84.2926 143.703 88.4521 117.803 86.7903C112.928 87.6766 90.3798 87.1048 83.7779 85.9969C83.7779 85.9969 77.6837 86.7903 62.9564 82.9128C64.9878 85.4978 71.996 91.2218 83.7779 93.4375C44.6742 96.2071 61.9407 53.5545 1 71.2803C6.58623 66.2949 22.3293 61.7526 36.5488 63.5252Z" fill="#595D55"/>
<path d="M36.5488 63.5252C36.5487 56.8781 36.5488 46.9073 36.5488 46.9073C47.8905 46.9073 71.285 46.9073 74.1289 46.9073C76.9728 46.9073 81.7465 42.8451 83.7779 40.8141M36.5488 63.5252C44.4275 65.1962 52.7996 67.9567 62.9564 82.9128M36.5488 63.5252C22.3293 61.7526 6.58623 66.2949 1 71.2803C61.9407 53.5545 44.6742 96.2071 83.7779 93.4375C71.996 91.2218 64.9878 85.4978 62.9564 82.9128M83.7779 85.9969V40.8141M83.7779 85.9969C90.3798 87.1048 112.928 87.6766 117.803 86.7903M83.7779 85.9969C83.7779 85.9969 77.6837 86.7903 62.9564 82.9128M83.7779 40.8141H113.74M117.803 86.7903V40.8141M117.803 86.7903C143.703 88.4521 145.595 84.2926 150.305 76.2656M117.803 40.8141H113.74M117.803 40.8141H120.85M150.305 76.2656C151.357 74.472 150.191 56.2857 149.521 44.6916M150.305 76.2656C158.43 62.4174 175.189 61.3095 183.314 66.8488C183.314 49.677 156.907 53.0005 149.521 44.6916M149.521 44.6916C149.44 43.2926 149.362 41.987 149.289 40.8141H120.85M113.74 40.8141V6.47034H120.85V40.8141" stroke="black"/>
<path d="M80.2222 5.91626H83.777L149.796 7.02412C128.467 -2.94667 94.4417 1.48482 80.2222 5.91626Z" fill="black"/>
<path d="M83.777 41.9218V5.91626M83.777 5.91626H80.2222C94.4417 1.48482 128.467 -2.94667 149.796 7.02412L83.777 5.91626Z" stroke="black"/>
<path d="M26.3919 78.4813L27.4076 93.9914M26.3919 111.163L27.4076 93.9914M27.4076 93.9914L31.4703 79.5892M27.4076 93.9914L38.0722 84.0206M27.4076 93.9914L41.6271 88.4521M27.4076 93.9914L43.6585 95.0993M27.4076 93.9914L20.8057 78.4813M27.4076 93.9914L17.2508 81.8049M27.4076 93.9914L12.6803 85.6824M27.4076 93.9914L11.1567 90.6678M27.4076 93.9914L11.1567 96.761M27.4076 93.9914L12.1724 100.639M27.4076 93.9914L14.2038 106.732M27.4076 93.9914L20.2978 110.609M27.4076 93.9914L29.9468 111.163M27.4076 93.9914L36.0409 109.501M27.4076 93.9914L41.1193 106.732M27.4076 93.9914L43.6585 101.192" stroke="black"/>
<path d="M44.2214 95.0994C44.2214 106.002 36.1864 114.311 26.9 114.311C17.6137 114.311 9.57861 106.002 9.57861 95.0994C9.57861 84.1969 17.6137 75.8882 26.9 75.8882C36.1864 75.8882 44.2214 84.1969 44.2214 95.0994Z" stroke="black" stroke-width="7"/>
<path d="M31.987 94.545C31.987 97.9818 29.4424 100.692 26.3929 100.692C23.3434 100.692 20.7988 97.9818 20.7988 94.545C20.7988 91.1082 23.3434 88.3978 26.3929 88.3978C29.4424 88.3978 31.987 91.1082 31.987 94.545Z" fill="#F8B135" stroke="black"/>
<path d="M176.356 80.3333L169.461 93.9432M160.033 107.74L169.461 93.9432M169.461 93.9432L180.061 84.2801M169.461 93.9432L183.384 91.9192M169.461 93.9432L184.152 97.7477M169.461 93.9432L182.535 104.529M169.461 93.9432L171.671 77.0138M169.461 93.9432L167.03 77.6885M169.461 93.9432L161.261 78.2241M169.461 93.9432L157.494 81.4995M169.461 93.9432L154.45 86.6091M169.461 93.9432L153.365 90.4642M169.461 93.9432L152.025 96.781M169.461 93.9432L155.199 103.654M169.461 93.9432L163.014 109.852M169.461 93.9432L168.954 112.08M169.461 93.9432L174.596 112.775M169.461 93.9432L179.492 109.639" stroke="black"/>
<path d="M187.431 95.0994C187.431 106.002 179.396 114.311 170.109 114.311C160.823 114.311 152.788 106.002 152.788 95.0994C152.788 84.1969 160.823 75.8882 170.109 75.8882C179.396 75.8882 187.431 84.1969 187.431 95.0994Z" stroke="black" stroke-width="7"/>
<path d="M175.195 94.545C175.195 97.9818 172.651 100.692 169.601 100.692C166.552 100.692 164.007 97.9818 164.007 94.545C164.007 91.1082 166.552 88.3978 169.601 88.3978C172.651 88.3978 175.195 91.1082 175.195 94.545Z" fill="#F8B135" stroke="black"/>
<path d="M36.5484 46.9072V63.5251H26.8994V46.9072H28.9308C28.9308 44.1375 28.4229 40.26 30.9621 40.26C33.9198 40.26 32.9935 43.5836 32.9935 46.9072H36.5484Z" fill="#EBCF60"/>
<path d="M32.9935 46.9072H36.5484V63.5251H26.8994V46.9072H28.9308M32.9935 46.9072C32.9935 43.5836 33.9198 40.26 30.9621 40.26C28.4229 40.26 28.9308 44.1375 28.9308 46.9072M32.9935 46.9072H28.9308" stroke="black"/>
<path d="M20.3267 63.5212C20.3175 63.5237 20.3079 63.525 20.2979 63.525C20.3075 63.5237 20.3171 63.5225 20.3267 63.5212C21.0741 63.3179 19.6105 54.9794 18.7744 50.7846C23.5142 50.046 32.9939 49.8983 32.9939 55.216C32.9939 60.5217 24.5682 62.96 20.3267 63.5212Z" fill="#F8B135"/>
<path d="M20.2979 63.525C21.1105 63.525 19.6208 55.0314 18.7744 50.7846C23.5142 50.046 32.9939 49.8983 32.9939 55.216C32.9939 60.5338 24.5299 62.9711 20.2979 63.525Z" stroke="black"/>
<path d="M68.542 51.3386L69.5577 60.2015M72.0969 51.3386L72.6047 60.7555M76.1596 51.3386V60.7555M80.2223 51.3386V60.7555M109.169 48.569H114.248" stroke="black"/>
</svg>
