<svg width="135" height="157" viewBox="0 0 135 157" fill="none" xmlns="http://www.w3.org/2000/svg">
<rect x="62.0884" y="10" width="70.7353" height="147" fill="#E2E2E2"/>
<rect x="61" y="4" width="74" height="9" fill="#6A6E8B"/>
<rect x="71.8823" width="15.2353" height="4" fill="#6A6E8B"/>
<path d="M70.2061 68.5H77.8678H82.2649V84.5H77.8678H70.2061V68.5Z" fill="#7DCCEB" stroke="#73AEC5"/>
<path d="M112.647 116.5H120.309H124.706V132.5H120.309H112.647V116.5Z" fill="#7DCCEB" stroke="#73AEC5"/>
<path d="M91.9707 92.5H99.6325H104.03V108.5H99.6325H91.9707V92.5Z" fill="#7DCCEB" stroke="#73AEC5"/>
<path d="M70.2061 92.5H77.8678H82.2649V108.5H77.8678H70.2061V92.5Z" fill="#7DCCEB" stroke="#73AEC5"/>
<path d="M113.735 68.5H121.397H125.794V84.5H121.397H113.735V68.5Z" fill="#7DCCEB" stroke="#73AEC5"/>
<path d="M113.735 44.5H121.397H125.794V60.5H121.397H113.735V44.5Z" fill="#7DCCEB" stroke="#73AEC5"/>
<path d="M113.235 61.0001V59.0001H114.868C114.505 58.0001 114.759 56.1001 116.5 56.5001C116.5 55.5 118.894 54.9002 119.765 56.5001C119.765 55.5 123.465 55.8 123.029 57H123.029C124.118 57 125.75 57 125.206 59L126.294 59.0001V61.0001H113.235Z" fill="#37C360"/>
<path d="M113.235 59.0001V61.0001H126.294V59.0001L125.206 59L114.868 59.0001H113.235Z" fill="#BEC2C1"/>
<path d="M71.2939 20.5H78.9557H83.3528V36.5H78.9557H71.2939V20.5Z" fill="#7DCCEB" stroke="#73AEC5"/>
<path d="M70.7939 37.0001V35.0001H72.4263C72.0636 34.0001 72.3175 32.1001 74.0587 32.5001C74.0587 31.5 76.4528 30.9002 77.3234 32.5001C77.3234 31.5 81.0234 31.8 80.5881 33H80.5881C81.6763 33 83.3086 33 82.7645 35L83.8528 35.0001V37.0001H70.7939Z" fill="#37C360"/>
<path d="M70.7939 35.0001V37.0001H83.8528V35.0001L82.7645 35L72.4263 35.0001H70.7939Z" fill="#BEC2C1"/>
<path d="M91.9707 68.5H99.6325H104.03V84.5H99.6325H91.9707V68.5Z" fill="#7DCCEB" stroke="#73AEC5"/>
<path d="M91.4707 85.0001V83.0001H93.1031C92.7403 82.0001 92.9942 80.1001 94.7354 80.5001C94.7354 79.5 97.1295 78.9002 98.0001 80.5001C98.0001 79.5 101.7 79.8 101.265 81H101.265C102.353 81 103.985 81 103.441 83L104.53 83.0001V85.0001H91.4707Z" fill="#37C360"/>
<path d="M91.4707 83.0001V85.0001H104.53V83.0001L103.441 83L93.1031 83.0001H91.4707Z" fill="#BEC2C1"/>
<path d="M113.735 92.5H121.397H125.794V108.5H121.397H113.735V92.5Z" fill="#7DCCEB" stroke="#73AEC5"/>
<path d="M113.235 109V107H114.868C114.505 106 114.759 104.1 116.5 104.5C116.5 103.5 118.894 102.9 119.765 104.5C119.765 103.5 123.465 103.8 123.029 105H123.029C124.118 105 125.75 105 125.206 107L126.294 107V109H113.235Z" fill="#37C360"/>
<path d="M113.235 107V109H126.294V107L125.206 107L114.868 107H113.235Z" fill="#BEC2C1"/>
<path d="M91.9707 116.5H99.6325H104.03V132.5H99.6325H91.9707V116.5Z" fill="#7DCCEB" stroke="#73AEC5"/>
<path d="M70.2061 116.5H77.8678H82.2649V132.5H77.8678H70.2061V116.5Z" fill="#7DCCEB" stroke="#73AEC5"/>
<path d="M69.7061 133V131H71.3384C70.9757 130 71.2296 128.1 72.9708 128.5C72.9708 127.5 75.3649 126.9 76.2355 128.5C76.2355 127.5 79.9355 127.8 79.5002 129H79.5002C80.5884 129 82.2208 129 81.6766 131L82.7649 131V133H69.7061Z" fill="#37C360"/>
<path d="M69.7061 131V133H82.7649V131L81.6766 131L71.3384 131H69.7061Z" fill="#BEC2C1"/>
<path d="M91.9707 44.5H99.6325H104.03V60.5H99.6325H91.9707V44.5Z" fill="#7DCCEB" stroke="#73AEC5"/>
<path d="M70.2061 44.5H77.8678H82.2649V60.5H77.8678H70.2061V44.5Z" fill="#7DCCEB" stroke="#73AEC5"/>
<path d="M113.735 20.5H121.397H125.794V36.5H121.397H113.735V20.5Z" fill="#7DCCEB" stroke="#73AEC5"/>
<path d="M91.9707 20.5H99.6325H104.03V36.5H99.6325H91.9707V20.5Z" fill="#7DCCEB" stroke="#73AEC5"/>
<rect x="62.0884" y="143" width="70.7353" height="14" fill="#73AEC5"/>
<rect x="91.4707" y="138" width="13.0588" height="18" fill="#6A6E8B"/>
<path d="M99.0882 146.5H101.809M88.75 156.5H90.9265M107.25 156.5H105.074M105.074 156.5V155.5H90.9265V156.5M105.074 156.5H90.9265" stroke="#7F8095"/>
<rect x="5.5" y="82" width="57" height="74" fill="#E2E2E2"/>
<path d="M0 83L5.5 65H16.5V59H24V65H62.5L68 83H0Z" fill="#686EA3"/>
<path d="M25.5 156H41.5V138.952C41.5 126.774 25.4984 127.261 25.5 138.952C25.5005 142.848 25.5 149.7 25.5 156Z" fill="#73AEC5"/>
<rect x="28.5" y="135" width="10" height="19" fill="#6A6E8B"/>
<path d="M39 153.919V155.5H28.1667V153.919H39Z" fill="#7F8095"/>
<path d="M34.4167 144.189H36.5M24.5 155.5H28.1667M42.5 155.5H39M39 155.5V153.919H28.1667V155.5M39 155.5H28.1667" stroke="#7F8095"/>
<path d="M28 86.5H34.375H38V101.5H34.375H28V86.5Z" fill="#7DCCEB" stroke="#73AEC5"/>
<path d="M27.5 102V100.118H28.875C28.5694 99.1765 28.7833 97.3883 30.25 97.7648C30.25 96.8235 32.2667 96.2589 33 97.7648C33 96.8235 36.1167 97.1058 35.75 98.2352H35.75C36.6667 98.2352 38.0417 98.2352 37.5833 100.118L38.5 100.118V102H27.5Z" fill="#37C360"/>
<path d="M27.5 100.118V102H38.5V100.118L37.5833 100.117L28.875 100.118H27.5Z" fill="#BEC2C1"/>
<path d="M28 108.5H34.375H38V123.5H34.375H28V108.5Z" fill="#7DCCEB" stroke="#73AEC5"/>
<path d="M27.5 124V122.118H28.875C28.5694 121.177 28.7833 119.388 30.25 119.765C30.25 118.823 32.2667 118.259 33 119.765C33 118.823 36.1167 119.106 35.75 120.235H35.75C36.6667 120.235 38.0417 120.235 37.5833 122.118L38.5 122.118V124H27.5Z" fill="#37C360"/>
<path d="M27.5 122.118V124H38.5V122.118L37.5833 122.117L28.875 122.118H27.5Z" fill="#BEC2C1"/>
<path d="M45 130.5H51.375H55V145.5H51.375H45V130.5Z" fill="#7DCCEB" stroke="#73AEC5"/>
<path d="M44.5 146V144.118H45.875C45.5694 143.177 45.7833 141.388 47.25 141.765C47.25 140.823 49.2667 140.259 50 141.765C50 140.823 53.1167 141.106 52.75 142.235H52.75C53.6667 142.235 55.0417 142.235 54.5833 144.118L55.5 144.118V146H44.5Z" fill="#37C360"/>
<path d="M44.5 144.118V146H55.5V144.118L54.5833 144.117L45.875 144.118H44.5Z" fill="#BEC2C1"/>
<path d="M11 86.5H17.375H21V101.5H17.375H11V86.5Z" fill="#7DCCEB" stroke="#73AEC5"/>
<path d="M10.5 102V100.118H11.875C11.5694 99.1765 11.7833 97.3883 13.25 97.7648C13.25 96.8235 15.2667 96.2589 16 97.7648C16 96.8235 19.1167 97.1058 18.75 98.2352H18.75C19.6667 98.2352 21.0417 98.2352 20.5833 100.118L21.5 100.118V102H10.5Z" fill="#37C360"/>
<path d="M10.5 100.118V102H21.5V100.118L20.5833 100.117L11.875 100.118H10.5Z" fill="#BEC2C1"/>
<path d="M45 86.5H51.375H55V101.5H51.375H45V86.5Z" fill="#7DCCEB" stroke="#73AEC5"/>
<path d="M11 130.5H17.375H21V145.5H17.375H11V130.5Z" fill="#7DCCEB" stroke="#73AEC5"/>
<path d="M11 108.5H17.375H21V123.5H17.375H11V108.5Z" fill="#7DCCEB" stroke="#73AEC5"/>
<path d="M45 108.5H51.375H55V123.5H51.375H45V108.5Z" fill="#7DCCEB" stroke="#73AEC5"/>
</svg>
