<svg width="1118" height="313" viewBox="0 0 1118 313" fill="none" xmlns="http://www.w3.org/2000/svg">
<rect x="1015.56" y="45.395" width="36.3235" height="64.6051" fill="#E2E2E2"/>
<rect x="1015" y="42.7581" width="38" height="3.95541" fill="#6A6E8B"/>
<rect x="1020.59" y="41" width="7.82353" height="1.75796" fill="#6A6E8B"/>
<path d="M1019.97 71.3853H1023.66H1025.68V77.8566H1023.66H1019.97V71.3853Z" fill="#7DCCEB" stroke="#73AEC5"/>
<path d="M1041.76 92.481H1045.46H1047.47V98.9523H1045.46H1041.76V92.481Z" fill="#7DCCEB" stroke="#73AEC5"/>
<path d="M1031.15 81.9331H1034.84H1036.85V88.4044H1034.84H1031.15V81.9331Z" fill="#7DCCEB" stroke="#73AEC5"/>
<path d="M1019.97 81.9331H1023.66H1025.68V88.4044H1023.66H1019.97V81.9331Z" fill="#7DCCEB" stroke="#73AEC5"/>
<path d="M1042.32 71.3853H1046.01H1048.03V77.8566H1046.01H1042.32V71.3853Z" fill="#7DCCEB" stroke="#73AEC5"/>
<path d="M1042.32 60.8376H1046.02H1048.03V67.309H1046.02H1042.32V60.8376Z" fill="#7DCCEB" stroke="#73AEC5"/>
<path d="M1041.82 67.809V66.93H1042.66C1042.48 66.4905 1042.61 65.6555 1043.5 65.8313C1043.5 65.3917 1044.73 65.1281 1045.18 65.8313C1045.18 65.3917 1047.08 65.5236 1046.85 66.051H1046.85C1047.41 66.051 1048.25 66.051 1047.97 66.93L1048.53 66.93V67.809H1041.82Z" fill="#37C360"/>
<path d="M1041.82 66.93V67.809H1048.53V66.93L1047.97 66.9299L1042.66 66.93H1041.82Z" fill="#BEC2C1"/>
<path d="M1020.53 50.2898H1024.22H1026.24V56.7611H1024.22H1020.53V50.2898Z" fill="#7DCCEB" stroke="#73AEC5"/>
<path d="M1020.03 57.2611V56.3822H1020.87C1020.68 55.9427 1020.81 55.1076 1021.71 55.2834C1021.71 54.8439 1022.94 54.5803 1023.38 55.2834C1023.38 54.8439 1025.28 54.9757 1025.06 55.5031H1025.06C1025.62 55.5031 1026.46 55.5031 1026.18 56.3821L1026.74 56.3822V57.2611H1020.03Z" fill="#37C360"/>
<path d="M1020.03 56.3821V57.2611H1026.74V56.3821L1026.18 56.3821L1020.87 56.3821H1020.03Z" fill="#BEC2C1"/>
<path d="M1031.15 71.3853H1034.84H1036.85V77.8566H1034.84H1031.15V71.3853Z" fill="#7DCCEB" stroke="#73AEC5"/>
<path d="M1030.65 78.3568V77.4779H1031.49C1031.3 77.0384 1031.43 76.2033 1032.32 76.3791C1032.32 75.9396 1033.55 75.676 1034 76.3791C1034 75.9396 1035.9 76.0714 1035.68 76.5988H1035.68C1036.24 76.5988 1037.07 76.5988 1036.79 77.4778L1037.35 77.4779V78.3568H1030.65Z" fill="#37C360"/>
<path d="M1030.65 77.4778V78.3568H1037.35V77.4778L1036.79 77.4778L1031.49 77.4778H1030.65Z" fill="#BEC2C1"/>
<path d="M1042.32 81.9331H1046.02H1048.03V88.4044H1046.02H1042.32V81.9331Z" fill="#7DCCEB" stroke="#73AEC5"/>
<path d="M1041.82 88.9045V88.0255H1042.66C1042.48 87.586 1042.61 86.751 1043.5 86.9268C1043.5 86.4872 1044.73 86.2236 1045.18 86.9268C1045.18 86.4872 1047.08 86.6191 1046.85 87.1464H1046.85C1047.41 87.1464 1048.25 87.1464 1047.97 88.0254L1048.53 88.0255V88.9045H1041.82Z" fill="#37C360"/>
<path d="M1041.82 88.0254V88.9044H1048.53V88.0254L1047.97 88.0254L1042.66 88.0254H1041.82Z" fill="#BEC2C1"/>
<path d="M1031.15 92.481H1034.84H1036.85V98.9523H1034.84H1031.15V92.481Z" fill="#7DCCEB" stroke="#73AEC5"/>
<path d="M1019.97 92.481H1023.66H1025.68V98.9523H1023.66H1019.97V92.481Z" fill="#7DCCEB" stroke="#73AEC5"/>
<path d="M1019.47 99.4523V98.5733H1020.31C1020.12 98.1338 1020.25 97.2988 1021.15 97.4746C1021.15 97.0351 1022.38 96.7714 1022.82 97.4746C1022.82 97.0351 1024.72 97.1669 1024.5 97.6943H1024.5C1025.06 97.6943 1025.9 97.6943 1025.62 98.5733L1026.18 98.5733V99.4523H1019.47Z" fill="#37C360"/>
<path d="M1019.47 98.5733V99.4523H1026.18V98.5733L1025.62 98.5732L1020.31 98.5733H1019.47Z" fill="#BEC2C1"/>
<path d="M1031.15 60.8376H1034.84H1036.85V67.309H1034.84H1031.15V60.8376Z" fill="#7DCCEB" stroke="#73AEC5"/>
<path d="M1019.97 60.8376H1023.66H1025.68V67.309H1023.66H1019.97V60.8376Z" fill="#7DCCEB" stroke="#73AEC5"/>
<path d="M1042.32 50.2898H1046.01H1048.03V56.7611H1046.01H1042.32V50.2898Z" fill="#7DCCEB" stroke="#73AEC5"/>
<path d="M1031.15 50.2898H1034.84H1036.85V56.7611H1034.84H1031.15V50.2898Z" fill="#7DCCEB" stroke="#73AEC5"/>
<rect x="1015.56" y="103.847" width="36.3235" height="6.15287" fill="#73AEC5"/>
<rect x="1030.65" y="101.65" width="6.70588" height="7.91083" fill="#6A6E8B"/>
<path d="M1034.56 105.385H1035.96M1029.25 109.78H1030.37M1038.75 109.78H1037.63M1037.63 109.78V109.341H1030.37V109.78M1037.63 109.78H1030.37" stroke="#7F8095"/>
<rect x="754.232" y="87.5154" width="33.4948" height="43.4845" fill="#E2E2E2"/>
<path d="M751 88.1031L754.232 77.5258H760.696V74H765.103V77.5258H787.727L790.959 88.1031H751Z" fill="#686EA3"/>
<path d="M765.984 131H775.386V120.982C775.386 113.826 765.983 114.112 765.984 120.982C765.985 123.272 765.984 127.298 765.984 131Z" fill="#73AEC5"/>
<rect x="767.748" y="118.66" width="5.87629" height="11.1649" fill="#6A6E8B"/>
<path d="M773.918 129.777V130.706H767.552V129.777H773.918Z" fill="#7F8095"/>
<path d="M771.224 124.06H772.449M765.397 130.706H767.552M775.974 130.706H773.918M773.918 130.706V129.777H767.552V130.706M773.918 130.706H767.552" stroke="#7F8095"/>
<path d="M767.66 90.366H771.2H773.124V98.768H771.2H767.66V90.366Z" fill="#7DCCEB" stroke="#73AEC5"/>
<path d="M767.16 99.2682V98.162H767.968C767.789 97.609 767.914 96.5582 768.776 96.7794C768.776 96.2263 769.961 95.8945 770.392 96.7794C770.392 96.2263 772.224 96.3922 772.008 97.0559H772.008C772.547 97.0559 773.355 97.0559 773.085 98.162L773.624 98.162V99.2682H767.16Z" fill="#37C360"/>
<path d="M767.16 98.1619V99.2681H773.624V98.1619L773.085 98.1619L767.968 98.1619H767.16Z" fill="#BEC2C1"/>
<path d="M767.66 103.294H771.2H773.124V111.696H771.2H767.66V103.294Z" fill="#7DCCEB" stroke="#73AEC5"/>
<path d="M767.16 112.196V111.09H767.968C767.789 110.537 767.914 109.486 768.776 109.707C768.776 109.154 769.961 108.822 770.392 109.707C770.392 109.154 772.224 109.32 772.008 109.984H772.008C772.547 109.984 773.355 109.984 773.085 111.09L773.624 111.09V112.196H767.16Z" fill="#37C360"/>
<path d="M767.16 111.09V112.196H773.624V111.09L773.085 111.09L767.968 111.09H767.16Z" fill="#BEC2C1"/>
<path d="M777.65 116.222H781.19H783.114V124.624H781.19H777.65V116.222Z" fill="#7DCCEB" stroke="#73AEC5"/>
<path d="M777.149 125.124V124.018H777.957C777.778 123.464 777.904 122.414 778.765 122.635C778.765 122.082 779.95 121.75 780.381 122.635C780.381 122.082 782.213 122.248 781.997 122.911H781.997C782.536 122.911 783.344 122.911 783.075 124.017L783.613 124.018V125.124H777.149Z" fill="#37C360"/>
<path d="M777.149 124.018V125.124H783.613V124.018L783.075 124.018L777.957 124.018H777.149Z" fill="#BEC2C1"/>
<path d="M757.671 90.366H761.211H763.135V98.768H761.211H757.671V90.366Z" fill="#7DCCEB" stroke="#73AEC5"/>
<path d="M757.17 99.2682V98.162H757.978C757.799 97.609 757.925 96.5582 758.786 96.7794C758.786 96.2263 759.971 95.8945 760.402 96.7794C760.402 96.2263 762.234 96.3922 762.018 97.0559H762.018C762.557 97.0559 763.365 97.0559 763.096 98.162L763.634 98.162V99.2682H757.17Z" fill="#37C360"/>
<path d="M757.17 98.1619V99.2681H763.634V98.1619L763.095 98.1619L757.978 98.1619H757.17Z" fill="#BEC2C1"/>
<path d="M777.649 90.366H781.189H783.113V98.768H781.189H777.649V90.366Z" fill="#7DCCEB" stroke="#73AEC5"/>
<path d="M757.67 116.222H761.21H763.134V124.624H761.21H757.67V116.222Z" fill="#7DCCEB" stroke="#73AEC5"/>
<path d="M757.67 103.294H761.21H763.134V111.696H761.21H757.67V103.294Z" fill="#7DCCEB" stroke="#73AEC5"/>
<path d="M777.649 103.294H781.189H783.113V111.696H781.189H777.649V103.294Z" fill="#7DCCEB" stroke="#73AEC5"/>
<rect x="787.559" y="66.395" width="36.3235" height="64.6051" fill="#E2E2E2"/>
<rect x="787" y="63.7581" width="38" height="3.95541" fill="#6A6E8B"/>
<rect x="792.588" y="62" width="7.82353" height="1.75796" fill="#6A6E8B"/>
<path d="M791.971 92.3853H795.662H797.677V98.8566H795.662H791.971V92.3853Z" fill="#7DCCEB" stroke="#73AEC5"/>
<path d="M813.765 113.481H817.456H819.471V119.952H817.456H813.765V113.481Z" fill="#7DCCEB" stroke="#73AEC5"/>
<path d="M803.147 102.933H806.838H808.853V109.404H806.838H803.147V102.933Z" fill="#7DCCEB" stroke="#73AEC5"/>
<path d="M791.971 102.933H795.662H797.677V109.404H795.662H791.971V102.933Z" fill="#7DCCEB" stroke="#73AEC5"/>
<path d="M814.324 92.3853H818.015H820.03V98.8566H818.015H814.324V92.3853Z" fill="#7DCCEB" stroke="#73AEC5"/>
<path d="M814.324 81.8376H818.015H820.03V88.309H818.015H814.324V81.8376Z" fill="#7DCCEB" stroke="#73AEC5"/>
<path d="M813.823 88.809V87.93H814.661C814.475 87.4905 814.606 86.6555 815.5 86.8313C815.5 86.3917 816.729 86.1281 817.176 86.8313C817.176 86.3917 819.076 86.5236 818.853 87.051H818.853C819.411 87.051 820.25 87.051 819.97 87.93L820.529 87.93V88.809H813.823Z" fill="#37C360"/>
<path d="M813.823 87.93V88.809H820.529V87.93L819.97 87.9299L814.661 87.93H813.823Z" fill="#BEC2C1"/>
<path d="M792.53 71.2898H796.221H798.236V77.7611H796.221H792.53V71.2898Z" fill="#7DCCEB" stroke="#73AEC5"/>
<path d="M792.029 78.2611V77.3822H792.868C792.681 76.9427 792.812 76.1076 793.706 76.2834C793.706 75.8439 794.935 75.5803 795.382 76.2834C795.382 75.8439 797.282 75.9757 797.059 76.5031H797.059C797.618 76.5031 798.456 76.5031 798.176 77.3821L798.735 77.3822V78.2611H792.029Z" fill="#37C360"/>
<path d="M792.029 77.3821V78.2611H798.735V77.3821L798.176 77.3821L792.868 77.3821H792.029Z" fill="#BEC2C1"/>
<path d="M803.147 92.3853H806.838H808.853V98.8566H806.838H803.147V92.3853Z" fill="#7DCCEB" stroke="#73AEC5"/>
<path d="M802.647 99.3568V98.4779H803.485C803.299 98.0384 803.429 97.2033 804.323 97.3791C804.323 96.9396 805.553 96.676 806 97.3791C806 96.9396 807.9 97.0714 807.676 97.5988H807.676C808.235 97.5988 809.073 97.5988 808.794 98.4778L809.353 98.4779V99.3568H802.647Z" fill="#37C360"/>
<path d="M802.647 98.4778V99.3568H809.353V98.4778L808.794 98.4778L803.485 98.4778H802.647Z" fill="#BEC2C1"/>
<path d="M814.324 102.933H818.015H820.03V109.404H818.015H814.324V102.933Z" fill="#7DCCEB" stroke="#73AEC5"/>
<path d="M813.823 109.904V109.025H814.661C814.475 108.586 814.606 107.751 815.5 107.927C815.5 107.487 816.729 107.224 817.176 107.927C817.176 107.487 819.076 107.619 818.853 108.146H818.853C819.411 108.146 820.25 108.146 819.97 109.025L820.529 109.025V109.904H813.823Z" fill="#37C360"/>
<path d="M813.823 109.025V109.904H820.529V109.025L819.97 109.025L814.661 109.025H813.823Z" fill="#BEC2C1"/>
<path d="M803.147 113.481H806.838H808.853V119.952H806.838H803.147V113.481Z" fill="#7DCCEB" stroke="#73AEC5"/>
<path d="M791.971 113.481H795.662H797.677V119.952H795.662H791.971V113.481Z" fill="#7DCCEB" stroke="#73AEC5"/>
<path d="M791.471 120.452V119.573H792.309C792.123 119.134 792.253 118.299 793.147 118.475C793.147 118.035 794.377 117.771 794.824 118.475C794.824 118.035 796.724 118.167 796.5 118.694H796.5C797.059 118.694 797.897 118.694 797.618 119.573L798.177 119.573V120.452H791.471Z" fill="#37C360"/>
<path d="M791.471 119.573V120.452H798.177V119.573L797.618 119.573L792.309 119.573H791.471Z" fill="#BEC2C1"/>
<path d="M803.147 81.8376H806.838H808.853V88.309H806.838H803.147V81.8376Z" fill="#7DCCEB" stroke="#73AEC5"/>
<path d="M791.971 81.8376H795.662H797.677V88.309H795.662H791.971V81.8376Z" fill="#7DCCEB" stroke="#73AEC5"/>
<path d="M814.324 71.2898H818.015H820.03V77.7611H818.015H814.324V71.2898Z" fill="#7DCCEB" stroke="#73AEC5"/>
<path d="M803.147 71.2898H806.838H808.853V77.7611H806.838H803.147V71.2898Z" fill="#7DCCEB" stroke="#73AEC5"/>
<rect x="787.559" y="124.847" width="36.3235" height="6.15287" fill="#73AEC5"/>
<rect x="802.647" y="122.65" width="6.70588" height="7.91083" fill="#6A6E8B"/>
<path d="M806.559 126.385H807.956M801.25 130.78H802.368M810.75 130.78H809.632M809.632 130.78V130.341H802.368V130.78M809.632 130.78H802.368" stroke="#7F8095"/>
<rect x="718.559" y="66.395" width="36.3235" height="64.6051" fill="#E2E2E2"/>
<rect x="718" y="63.7581" width="38" height="3.95541" fill="#6A6E8B"/>
<rect x="723.588" y="62" width="7.82353" height="1.75796" fill="#6A6E8B"/>
<path d="M722.971 92.3853H726.662H728.677V98.8566H726.662H722.971V92.3853Z" fill="#7DCCEB" stroke="#73AEC5"/>
<path d="M744.765 113.481H748.456H750.471V119.952H748.456H744.765V113.481Z" fill="#7DCCEB" stroke="#73AEC5"/>
<path d="M734.147 102.933H737.838H739.853V109.404H737.838H734.147V102.933Z" fill="#7DCCEB" stroke="#73AEC5"/>
<path d="M722.971 102.933H726.662H728.677V109.404H726.662H722.971V102.933Z" fill="#7DCCEB" stroke="#73AEC5"/>
<path d="M745.324 92.3853H749.015H751.03V98.8566H749.015H745.324V92.3853Z" fill="#7DCCEB" stroke="#73AEC5"/>
<path d="M745.324 81.8376H749.015H751.03V88.309H749.015H745.324V81.8376Z" fill="#7DCCEB" stroke="#73AEC5"/>
<path d="M744.823 88.809V87.93H745.661C745.475 87.4905 745.606 86.6555 746.5 86.8313C746.5 86.3917 747.729 86.1281 748.176 86.8313C748.176 86.3917 750.076 86.5236 749.853 87.051H749.853C750.411 87.051 751.25 87.051 750.97 87.93L751.529 87.93V88.809H744.823Z" fill="#37C360"/>
<path d="M744.823 87.93V88.809H751.529V87.93L750.97 87.9299L745.661 87.93H744.823Z" fill="#BEC2C1"/>
<path d="M723.53 71.2898H727.221H729.236V77.7611H727.221H723.53V71.2898Z" fill="#7DCCEB" stroke="#73AEC5"/>
<path d="M723.029 78.2611V77.3822H723.868C723.681 76.9427 723.812 76.1076 724.706 76.2834C724.706 75.8439 725.935 75.5803 726.382 76.2834C726.382 75.8439 728.282 75.9757 728.059 76.5031H728.059C728.618 76.5031 729.456 76.5031 729.176 77.3821L729.735 77.3822V78.2611H723.029Z" fill="#37C360"/>
<path d="M723.029 77.3821V78.2611H729.735V77.3821L729.176 77.3821L723.868 77.3821H723.029Z" fill="#BEC2C1"/>
<path d="M734.147 92.3853H737.838H739.853V98.8566H737.838H734.147V92.3853Z" fill="#7DCCEB" stroke="#73AEC5"/>
<path d="M733.647 99.3568V98.4779H734.485C734.299 98.0384 734.429 97.2033 735.323 97.3791C735.323 96.9396 736.553 96.676 737 97.3791C737 96.9396 738.9 97.0714 738.676 97.5988H738.676C739.235 97.5988 740.073 97.5988 739.794 98.4778L740.353 98.4779V99.3568H733.647Z" fill="#37C360"/>
<path d="M733.647 98.4778V99.3568H740.353V98.4778L739.794 98.4778L734.485 98.4778H733.647Z" fill="#BEC2C1"/>
<path d="M745.324 102.933H749.015H751.03V109.404H749.015H745.324V102.933Z" fill="#7DCCEB" stroke="#73AEC5"/>
<path d="M744.823 109.904V109.025H745.661C745.475 108.586 745.606 107.751 746.5 107.927C746.5 107.487 747.729 107.224 748.176 107.927C748.176 107.487 750.076 107.619 749.853 108.146H749.853C750.411 108.146 751.25 108.146 750.97 109.025L751.529 109.025V109.904H744.823Z" fill="#37C360"/>
<path d="M744.823 109.025V109.904H751.529V109.025L750.97 109.025L745.661 109.025H744.823Z" fill="#BEC2C1"/>
<path d="M734.147 113.481H737.838H739.853V119.952H737.838H734.147V113.481Z" fill="#7DCCEB" stroke="#73AEC5"/>
<path d="M722.971 113.481H726.662H728.677V119.952H726.662H722.971V113.481Z" fill="#7DCCEB" stroke="#73AEC5"/>
<path d="M722.471 120.452V119.573H723.309C723.123 119.134 723.253 118.299 724.147 118.475C724.147 118.035 725.377 117.771 725.824 118.475C725.824 118.035 727.724 118.167 727.5 118.694H727.5C728.059 118.694 728.897 118.694 728.618 119.573L729.177 119.573V120.452H722.471Z" fill="#37C360"/>
<path d="M722.471 119.573V120.452H729.177V119.573L728.618 119.573L723.309 119.573H722.471Z" fill="#BEC2C1"/>
<path d="M734.147 81.8376H737.838H739.853V88.309H737.838H734.147V81.8376Z" fill="#7DCCEB" stroke="#73AEC5"/>
<path d="M722.971 81.8376H726.662H728.677V88.309H726.662H722.971V81.8376Z" fill="#7DCCEB" stroke="#73AEC5"/>
<path d="M745.324 71.2898H749.015H751.03V77.7611H749.015H745.324V71.2898Z" fill="#7DCCEB" stroke="#73AEC5"/>
<path d="M734.147 71.2898H737.838H739.853V77.7611H737.838H734.147V71.2898Z" fill="#7DCCEB" stroke="#73AEC5"/>
<rect x="718.559" y="124.847" width="36.3235" height="6.15287" fill="#73AEC5"/>
<rect x="733.647" y="122.65" width="6.70588" height="7.91083" fill="#6A6E8B"/>
<path d="M737.559 126.385H738.956M732.25 130.78H733.368M741.75 130.78H740.632M740.632 130.78V130.341H733.368V130.78M740.632 130.78H733.368" stroke="#7F8095"/>
<rect x="582" y="195" width="54" height="109" fill="#E2E2E2"/>
<rect x="580" y="187" width="58" height="9" fill="#7A7EA0"/>
<rect x="613" y="181" width="20" height="6" fill="#7A7EA0"/>
<path d="M585.5 221.5H594.5H601.75H608.5V232H601.75H594.5H585.5V221.5Z" fill="#7DCCEB" stroke="#73AEC5"/>
<path d="M584.5 232.5H609.5V240.5H584.5V232.5Z" fill="#DADADA" stroke="#73AEC5"/>
<path d="M585.5 199.5H594.5H601.75H608.5V210H601.75H594.5H585.5V199.5Z" fill="#7DCCEB" stroke="#73AEC5"/>
<path d="M586 212.104L588.5 209.5V209.104C588.5 208.271 589.324 206.704 590.889 207.104C591.5 206 594.018 205.504 594.8 207.104C595.5 206 598.907 205.104 599.689 207.104C600 206.5 603.698 205.604 604.089 207.604C605.067 207.438 606.5 207.5 607 209.104V210.5L608 212.104H586Z" fill="#37C360"/>
<path d="M586 209.208V212.208H608V209.208H606.533H588.933H586Z" fill="#BEC2C1"/>
<path d="M584.5 210.5H609.5V218.5H584.5V210.5Z" fill="#DADADA" stroke="#73AEC5"/>
<path d="M585.5 243.5H594.5H601.75H608.5V254H601.75H594.5H585.5V243.5Z" fill="#7DCCEB" stroke="#73AEC5"/>
<path d="M586 256.104L588.5 253.5V253.104C588.5 252.271 589.324 250.704 590.889 251.104C591.5 250 594.018 249.504 594.8 251.104C595.5 250 598.907 249.104 599.689 251.104C600 250.5 603.698 249.604 604.089 251.604C605.067 251.438 606.5 251.5 607 253.104V254.5L608 256.104H586Z" fill="#37C360"/>
<path d="M586 253.208V256.208H608V253.208H606.533H588.933H586Z" fill="#BEC2C1"/>
<path d="M584.5 254.5H609.5V262.5H584.5V254.5Z" fill="#DADADA" stroke="#73AEC5"/>
<path d="M585.5 265.5H594.5H601.75H608.5V276H601.75H594.5H585.5V265.5Z" fill="#7DCCEB" stroke="#73AEC5"/>
<path d="M584.5 276.5H609.5V284.5H584.5V276.5Z" fill="#DADADA" stroke="#73AEC5"/>
<rect x="613" y="279" width="22" height="25" fill="#CED5DB"/>
<path d="M612 281V279H636V281H612Z" fill="#BFC6D9"/>
<rect x="620.5" y="285" width="12" height="18" fill="#6A6E8B"/>
<path d="M627.5 293.5H630M612 303.5H620M636 303.5H633M633 303.5V302.5H620V303.5M633 303.5H620" stroke="#7F8095"/>
<rect x="615" y="287" width="2" height="4" fill="#BFC6D9"/>
<rect x="620" y="266" width="6" height="8" fill="#7DCCEB"/>
<rect x="620" y="222" width="6" height="8" fill="#7DCCEB"/>
<rect x="620" y="201" width="6" height="8" fill="#7DCCEB"/>
<rect x="620" y="244" width="6" height="8" fill="#7DCCEB"/>
<rect x="636" y="195" width="54" height="109" fill="#E2E2E2"/>
<rect x="634" y="187" width="58" height="9" fill="#7A7EA0"/>
<rect x="667" y="181" width="20" height="6" fill="#7A7EA0"/>
<path d="M639.5 221.5H648.5H655.75H662.5V232H655.75H648.5H639.5V221.5Z" fill="#7DCCEB" stroke="#73AEC5"/>
<path d="M638.5 232.5H663.5V240.5H638.5V232.5Z" fill="#DADADA" stroke="#73AEC5"/>
<path d="M639.5 199.5H648.5H655.75H662.5V210H655.75H648.5H639.5V199.5Z" fill="#7DCCEB" stroke="#73AEC5"/>
<path d="M640 212.104L642.5 209.5V209.104C642.5 208.271 643.324 206.704 644.889 207.104C645.5 206 648.018 205.504 648.8 207.104C649.5 206 652.907 205.104 653.689 207.104C654 206.5 657.698 205.604 658.089 207.604C659.067 207.438 660.5 207.5 661 209.104V210.5L662 212.104H640Z" fill="#37C360"/>
<path d="M640 209.208V212.208H662V209.208H660.533H642.933H640Z" fill="#BEC2C1"/>
<path d="M638.5 210.5H663.5V218.5H638.5V210.5Z" fill="#DADADA" stroke="#73AEC5"/>
<path d="M639.5 243.5H648.5H655.75H662.5V254H655.75H648.5H639.5V243.5Z" fill="#7DCCEB" stroke="#73AEC5"/>
<path d="M640 256.104L642.5 253.5V253.104C642.5 252.271 643.324 250.704 644.889 251.104C645.5 250 648.018 249.504 648.8 251.104C649.5 250 652.907 249.104 653.689 251.104C654 250.5 657.698 249.604 658.089 251.604C659.067 251.438 660.5 251.5 661 253.104V254.5L662 256.104H640Z" fill="#37C360"/>
<path d="M640 253.208V256.208H662V253.208H660.533H642.933H640Z" fill="#BEC2C1"/>
<path d="M638.5 254.5H663.5V262.5H638.5V254.5Z" fill="#DADADA" stroke="#73AEC5"/>
<path d="M639.5 265.5H648.5H655.75H662.5V276H655.75H648.5H639.5V265.5Z" fill="#7DCCEB" stroke="#73AEC5"/>
<path d="M638.5 276.5H663.5V284.5H638.5V276.5Z" fill="#DADADA" stroke="#73AEC5"/>
<rect x="667" y="279" width="22" height="25" fill="#CED5DB"/>
<path d="M666 281V279H690V281H666Z" fill="#BFC6D9"/>
<rect x="674.5" y="285" width="12" height="18" fill="#6A6E8B"/>
<path d="M681.5 293.5H684M666 303.5H674M690 303.5H687M687 303.5V302.5H674V303.5M687 303.5H674" stroke="#7F8095"/>
<rect x="669" y="287" width="2" height="4" fill="#BFC6D9"/>
<rect x="674" y="266" width="6" height="8" fill="#7DCCEB"/>
<rect x="674" y="222" width="6" height="8" fill="#7DCCEB"/>
<rect x="674" y="201" width="6" height="8" fill="#7DCCEB"/>
<rect x="674" y="244" width="6" height="8" fill="#7DCCEB"/>
<rect x="1055.5" y="238" width="57" height="74" fill="#E2E2E2"/>
<path d="M1050 239L1055.5 221H1066.5V215H1074V221H1112.5L1118 239H1050Z" fill="#686EA3"/>
<path d="M1075.5 312H1091.5V294.952C1091.5 282.774 1075.5 283.261 1075.5 294.952C1075.5 298.848 1075.5 305.7 1075.5 312Z" fill="#73AEC5"/>
<rect x="1078.5" y="291" width="10" height="19" fill="#6A6E8B"/>
<path d="M1089 309.919V311.5H1078.17V309.919H1089Z" fill="#7F8095"/>
<path d="M1084.42 300.189H1086.5M1074.5 311.5H1078.17M1092.5 311.5H1089M1089 311.5V309.919H1078.17V311.5M1089 311.5H1078.17" stroke="#7F8095"/>
<path d="M1078 242.5H1084.38H1088V257.5H1084.38H1078V242.5Z" fill="#7DCCEB" stroke="#73AEC5"/>
<path d="M1077.5 258V256.118H1078.88C1078.57 255.177 1078.78 253.388 1080.25 253.765C1080.25 252.823 1082.27 252.259 1083 253.765C1083 252.823 1086.12 253.106 1085.75 254.235H1085.75C1086.67 254.235 1088.04 254.235 1087.58 256.118L1088.5 256.118V258H1077.5Z" fill="#37C360"/>
<path d="M1077.5 256.118V258H1088.5V256.118L1087.58 256.117L1078.88 256.118H1077.5Z" fill="#BEC2C1"/>
<path d="M1078 264.5H1084.38H1088V279.5H1084.38H1078V264.5Z" fill="#7DCCEB" stroke="#73AEC5"/>
<path d="M1077.5 280V278.118H1078.88C1078.57 277.177 1078.78 275.388 1080.25 275.765C1080.25 274.823 1082.27 274.259 1083 275.765C1083 274.823 1086.12 275.106 1085.75 276.235H1085.75C1086.67 276.235 1088.04 276.235 1087.58 278.118L1088.5 278.118V280H1077.5Z" fill="#37C360"/>
<path d="M1077.5 278.118V280H1088.5V278.118L1087.58 278.117L1078.88 278.118H1077.5Z" fill="#BEC2C1"/>
<path d="M1095 286.5H1101.38H1105V301.5H1101.38H1095V286.5Z" fill="#7DCCEB" stroke="#73AEC5"/>
<path d="M1094.5 302V300.118H1095.88C1095.57 299.177 1095.78 297.388 1097.25 297.765C1097.25 296.823 1099.27 296.259 1100 297.765C1100 296.823 1103.12 297.106 1102.75 298.235H1102.75C1103.67 298.235 1105.04 298.235 1104.58 300.118L1105.5 300.118V302H1094.5Z" fill="#37C360"/>
<path d="M1094.5 300.118V302H1105.5V300.118L1104.58 300.117L1095.88 300.118H1094.5Z" fill="#BEC2C1"/>
<path d="M1061 242.5H1067.38H1071V257.5H1067.38H1061V242.5Z" fill="#7DCCEB" stroke="#73AEC5"/>
<path d="M1060.5 258V256.118H1061.88C1061.57 255.177 1061.78 253.388 1063.25 253.765C1063.25 252.823 1065.27 252.259 1066 253.765C1066 252.823 1069.12 253.106 1068.75 254.235H1068.75C1069.67 254.235 1071.04 254.235 1070.58 256.118L1071.5 256.118V258H1060.5Z" fill="#37C360"/>
<path d="M1060.5 256.118V258H1071.5V256.118L1070.58 256.117L1061.88 256.118H1060.5Z" fill="#BEC2C1"/>
<path d="M1095 242.5H1101.38H1105V257.5H1101.38H1095V242.5Z" fill="#7DCCEB" stroke="#73AEC5"/>
<path d="M1061 286.5H1067.38H1071V301.5H1067.38H1061V286.5Z" fill="#7DCCEB" stroke="#73AEC5"/>
<path d="M1061 264.5H1067.38H1071V279.5H1067.38H1061V264.5Z" fill="#7DCCEB" stroke="#73AEC5"/>
<path d="M1095 264.5H1101.38H1105V279.5H1101.38H1095V264.5Z" fill="#7DCCEB" stroke="#73AEC5"/>
<rect x="1002" y="204" width="54" height="109" fill="#E2E2E2"/>
<rect x="1000" y="196" width="58" height="9" fill="#7A7EA0"/>
<rect x="1033" y="190" width="20" height="6" fill="#7A7EA0"/>
<path d="M1005.5 230.5H1014.5H1021.75H1028.5V241H1021.75H1014.5H1005.5V230.5Z" fill="#7DCCEB" stroke="#73AEC5"/>
<path d="M1004.5 241.5H1029.5V249.5H1004.5V241.5Z" fill="#DADADA" stroke="#73AEC5"/>
<path d="M1005.5 208.5H1014.5H1021.75H1028.5V219H1021.75H1014.5H1005.5V208.5Z" fill="#7DCCEB" stroke="#73AEC5"/>
<path d="M1006 221.104L1008.5 218.5V218.104C1008.5 217.271 1009.32 215.704 1010.89 216.104C1011.5 215 1014.02 214.504 1014.8 216.104C1015.5 215 1018.91 214.104 1019.69 216.104C1020 215.5 1023.7 214.604 1024.09 216.604C1025.07 216.438 1026.5 216.5 1027 218.104V219.5L1028 221.104H1006Z" fill="#37C360"/>
<path d="M1006 218.208V221.208H1028V218.208H1026.53H1008.93H1006Z" fill="#BEC2C1"/>
<path d="M1004.5 219.5H1029.5V227.5H1004.5V219.5Z" fill="#DADADA" stroke="#73AEC5"/>
<path d="M1005.5 252.5H1014.5H1021.75H1028.5V263H1021.75H1014.5H1005.5V252.5Z" fill="#7DCCEB" stroke="#73AEC5"/>
<path d="M1006 265.104L1008.5 262.5V262.104C1008.5 261.271 1009.32 259.704 1010.89 260.104C1011.5 259 1014.02 258.504 1014.8 260.104C1015.5 259 1018.91 258.104 1019.69 260.104C1020 259.5 1023.7 258.604 1024.09 260.604C1025.07 260.438 1026.5 260.5 1027 262.104V263.5L1028 265.104H1006Z" fill="#37C360"/>
<path d="M1006 262.208V265.208H1028V262.208H1026.53H1008.93H1006Z" fill="#BEC2C1"/>
<path d="M1004.5 263.5H1029.5V271.5H1004.5V263.5Z" fill="#DADADA" stroke="#73AEC5"/>
<path d="M1005.5 274.5H1014.5H1021.75H1028.5V285H1021.75H1014.5H1005.5V274.5Z" fill="#7DCCEB" stroke="#73AEC5"/>
<path d="M1004.5 285.5H1029.5V293.5H1004.5V285.5Z" fill="#DADADA" stroke="#73AEC5"/>
<rect x="1033" y="288" width="22" height="25" fill="#CED5DB"/>
<path d="M1032 290V288H1056V290H1032Z" fill="#BFC6D9"/>
<rect x="1040.5" y="294" width="12" height="18" fill="#6A6E8B"/>
<path d="M1047.5 302.5H1050M1032 312.5H1040M1056 312.5H1053M1053 312.5V311.5H1040V312.5M1053 312.5H1040" stroke="#7F8095"/>
<rect x="1035" y="296" width="2" height="4" fill="#BFC6D9"/>
<rect x="1040" y="275" width="6" height="8" fill="#7DCCEB"/>
<rect x="1040" y="231" width="6" height="8" fill="#7DCCEB"/>
<rect x="1040" y="210" width="6" height="8" fill="#7DCCEB"/>
<rect x="1040" y="253" width="6" height="8" fill="#7DCCEB"/>
<rect x="470" y="170" width="54" height="109" fill="#E2E2E2"/>
<rect x="468" y="162" width="58" height="9" fill="#7A7EA0"/>
<rect x="501" y="156" width="20" height="6" fill="#7A7EA0"/>
<path d="M473.5 196.5H482.5H489.75H496.5V207H489.75H482.5H473.5V196.5Z" fill="#7DCCEB" stroke="#73AEC5"/>
<path d="M472.5 207.5H497.5V215.5H472.5V207.5Z" fill="#DADADA" stroke="#73AEC5"/>
<path d="M473.5 174.5H482.5H489.75H496.5V185H489.75H482.5H473.5V174.5Z" fill="#7DCCEB" stroke="#73AEC5"/>
<path d="M474 187.104L476.5 184.5V184.104C476.5 183.271 477.324 181.704 478.889 182.104C479.5 181 482.018 180.504 482.8 182.104C483.5 181 486.907 180.104 487.689 182.104C488 181.5 491.698 180.604 492.089 182.604C493.067 182.438 494.5 182.5 495 184.104V185.5L496 187.104H474Z" fill="#37C360"/>
<path d="M474 184.208V187.208H496V184.208H494.533H476.933H474Z" fill="#BEC2C1"/>
<path d="M472.5 185.5H497.5V193.5H472.5V185.5Z" fill="#DADADA" stroke="#73AEC5"/>
<path d="M473.5 218.5H482.5H489.75H496.5V229H489.75H482.5H473.5V218.5Z" fill="#7DCCEB" stroke="#73AEC5"/>
<path d="M474 231.104L476.5 228.5V228.104C476.5 227.271 477.324 225.704 478.889 226.104C479.5 225 482.018 224.504 482.8 226.104C483.5 225 486.907 224.104 487.689 226.104C488 225.5 491.698 224.604 492.089 226.604C493.067 226.438 494.5 226.5 495 228.104V229.5L496 231.104H474Z" fill="#37C360"/>
<path d="M474 228.208V231.208H496V228.208H494.533H476.933H474Z" fill="#BEC2C1"/>
<path d="M472.5 229.5H497.5V237.5H472.5V229.5Z" fill="#DADADA" stroke="#73AEC5"/>
<path d="M473.5 240.5H482.5H489.75H496.5V251H489.75H482.5H473.5V240.5Z" fill="#7DCCEB" stroke="#73AEC5"/>
<path d="M472.5 251.5H497.5V259.5H472.5V251.5Z" fill="#DADADA" stroke="#73AEC5"/>
<rect x="501" y="254" width="22" height="25" fill="#CED5DB"/>
<path d="M500 256V254H524V256H500Z" fill="#BFC6D9"/>
<rect x="508.5" y="260" width="12" height="18" fill="#6A6E8B"/>
<path d="M515.5 268.5H518M500 278.5H508M524 278.5H521M521 278.5V277.5H508V278.5M521 278.5H508" stroke="#7F8095"/>
<rect x="503" y="262" width="2" height="4" fill="#BFC6D9"/>
<rect x="508" y="241" width="6" height="8" fill="#7DCCEB"/>
<rect x="508" y="197" width="6" height="8" fill="#7DCCEB"/>
<rect x="508" y="176" width="6" height="8" fill="#7DCCEB"/>
<rect x="508" y="219" width="6" height="8" fill="#7DCCEB"/>
<rect x="413.5" y="205" width="57" height="74" fill="#E2E2E2"/>
<path d="M408 206L413.5 188H424.5V182H432V188H470.5L476 206H408Z" fill="#686EA3"/>
<path d="M433.5 279H449.5V261.952C449.5 249.774 433.498 250.261 433.5 261.952C433.501 265.848 433.5 272.7 433.5 279Z" fill="#73AEC5"/>
<rect x="436.5" y="258" width="10" height="19" fill="#6A6E8B"/>
<path d="M447 276.919V278.5H436.167V276.919H447Z" fill="#7F8095"/>
<path d="M442.417 267.189H444.5M432.5 278.5H436.167M450.5 278.5H447M447 278.5V276.919H436.167V278.5M447 278.5H436.167" stroke="#7F8095"/>
<path d="M436 209.5H442.375H446V224.5H442.375H436V209.5Z" fill="#7DCCEB" stroke="#73AEC5"/>
<path d="M435.5 225V223.118H436.875C436.569 222.177 436.783 220.388 438.25 220.765C438.25 219.823 440.267 219.259 441 220.765C441 219.823 444.117 220.106 443.75 221.235H443.75C444.667 221.235 446.042 221.235 445.583 223.118L446.5 223.118V225H435.5Z" fill="#37C360"/>
<path d="M435.5 223.118V225H446.5V223.118L445.583 223.117L436.875 223.118H435.5Z" fill="#BEC2C1"/>
<path d="M436 231.5H442.375H446V246.5H442.375H436V231.5Z" fill="#7DCCEB" stroke="#73AEC5"/>
<path d="M435.5 247V245.118H436.875C436.569 244.177 436.783 242.388 438.25 242.765C438.25 241.823 440.267 241.259 441 242.765C441 241.823 444.117 242.106 443.75 243.235H443.75C444.667 243.235 446.042 243.235 445.583 245.118L446.5 245.118V247H435.5Z" fill="#37C360"/>
<path d="M435.5 245.118V247H446.5V245.118L445.583 245.117L436.875 245.118H435.5Z" fill="#BEC2C1"/>
<path d="M453 253.5H459.375H463V268.5H459.375H453V253.5Z" fill="#7DCCEB" stroke="#73AEC5"/>
<path d="M452.5 269V267.118H453.875C453.569 266.177 453.783 264.388 455.25 264.765C455.25 263.823 457.267 263.259 458 264.765C458 263.823 461.117 264.106 460.75 265.235H460.75C461.667 265.235 463.042 265.235 462.583 267.118L463.5 267.118V269H452.5Z" fill="#37C360"/>
<path d="M452.5 267.118V269H463.5V267.118L462.583 267.117L453.875 267.118H452.5Z" fill="#BEC2C1"/>
<path d="M419 209.5H425.375H429V224.5H425.375H419V209.5Z" fill="#7DCCEB" stroke="#73AEC5"/>
<path d="M418.5 225V223.118H419.875C419.569 222.177 419.783 220.388 421.25 220.765C421.25 219.823 423.267 219.259 424 220.765C424 219.823 427.117 220.106 426.75 221.235H426.75C427.667 221.235 429.042 221.235 428.583 223.118L429.5 223.118V225H418.5Z" fill="#37C360"/>
<path d="M418.5 223.118V225H429.5V223.118L428.583 223.117L419.875 223.118H418.5Z" fill="#BEC2C1"/>
<path d="M453 209.5H459.375H463V224.5H459.375H453V209.5Z" fill="#7DCCEB" stroke="#73AEC5"/>
<path d="M419 253.5H425.375H429V268.5H425.375H419V253.5Z" fill="#7DCCEB" stroke="#73AEC5"/>
<path d="M419 231.5H425.375H429V246.5H425.375H419V231.5Z" fill="#7DCCEB" stroke="#73AEC5"/>
<path d="M453 231.5H459.375H463V246.5H459.375H453V231.5Z" fill="#7DCCEB" stroke="#73AEC5"/>
<rect x="5.5" y="220" width="57" height="74" fill="#E2E2E2"/>
<path d="M0 221L5.5 203H16.5V197H24V203H62.5L68 221H0Z" fill="#686EA3"/>
<path d="M25.5 294H41.5V276.952C41.5 264.774 25.4984 265.261 25.5 276.952C25.5005 280.848 25.5 287.7 25.5 294Z" fill="#73AEC5"/>
<rect x="28.5" y="273" width="10" height="19" fill="#6A6E8B"/>
<path d="M39 291.919V293.5H28.1667V291.919H39Z" fill="#7F8095"/>
<path d="M34.4167 282.189H36.5M24.5 293.5H28.1667M42.5 293.5H39M39 293.5V291.919H28.1667V293.5M39 293.5H28.1667" stroke="#7F8095"/>
<path d="M28 224.5H34.375H38V239.5H34.375H28V224.5Z" fill="#7DCCEB" stroke="#73AEC5"/>
<path d="M27.5 240V238.118H28.875C28.5694 237.177 28.7833 235.388 30.25 235.765C30.25 234.823 32.2667 234.259 33 235.765C33 234.823 36.1167 235.106 35.75 236.235H35.75C36.6667 236.235 38.0417 236.235 37.5833 238.118L38.5 238.118V240H27.5Z" fill="#37C360"/>
<path d="M27.5 238.118V240H38.5V238.118L37.5833 238.117L28.875 238.118H27.5Z" fill="#BEC2C1"/>
<path d="M28 246.5H34.375H38V261.5H34.375H28V246.5Z" fill="#7DCCEB" stroke="#73AEC5"/>
<path d="M27.5 262V260.118H28.875C28.5694 259.177 28.7833 257.388 30.25 257.765C30.25 256.823 32.2667 256.259 33 257.765C33 256.823 36.1167 257.106 35.75 258.235H35.75C36.6667 258.235 38.0417 258.235 37.5833 260.118L38.5 260.118V262H27.5Z" fill="#37C360"/>
<path d="M27.5 260.118V262H38.5V260.118L37.5833 260.117L28.875 260.118H27.5Z" fill="#BEC2C1"/>
<path d="M45 268.5H51.375H55V283.5H51.375H45V268.5Z" fill="#7DCCEB" stroke="#73AEC5"/>
<path d="M44.5 284V282.118H45.875C45.5694 281.177 45.7833 279.388 47.25 279.765C47.25 278.823 49.2667 278.259 50 279.765C50 278.823 53.1167 279.106 52.75 280.235H52.75C53.6667 280.235 55.0417 280.235 54.5833 282.118L55.5 282.118V284H44.5Z" fill="#37C360"/>
<path d="M44.5 282.118V284H55.5V282.118L54.5833 282.117L45.875 282.118H44.5Z" fill="#BEC2C1"/>
<path d="M11 224.5H17.375H21V239.5H17.375H11V224.5Z" fill="#7DCCEB" stroke="#73AEC5"/>
<path d="M10.5 240V238.118H11.875C11.5694 237.177 11.7833 235.388 13.25 235.765C13.25 234.823 15.2667 234.259 16 235.765C16 234.823 19.1167 235.106 18.75 236.235H18.75C19.6667 236.235 21.0417 236.235 20.5833 238.118L21.5 238.118V240H10.5Z" fill="#37C360"/>
<path d="M10.5 238.118V240H21.5V238.118L20.5833 238.117L11.875 238.118H10.5Z" fill="#BEC2C1"/>
<path d="M45 224.5H51.375H55V239.5H51.375H45V224.5Z" fill="#7DCCEB" stroke="#73AEC5"/>
<path d="M11 268.5H17.375H21V283.5H17.375H11V268.5Z" fill="#7DCCEB" stroke="#73AEC5"/>
<path d="M11 246.5H17.375H21V261.5H17.375H11V246.5Z" fill="#7DCCEB" stroke="#73AEC5"/>
<path d="M45 246.5H51.375H55V261.5H51.375H45V246.5Z" fill="#7DCCEB" stroke="#73AEC5"/>
</svg>
