<svg width="171" height="192" viewBox="0 0 171 192" fill="none" xmlns="http://www.w3.org/2000/svg">
<path d="M13.9902 138.691C13.5571 153.845 9.66023 145.186 10.9593 138.691C8.36124 138.258 8.36123 135.66 10.9593 135.66C12.6911 135.66 10.5263 135.66 13.9902 135.66C17.0211 135.66 15.7221 138.258 13.9902 138.691Z" fill="#6C6D68"/>
<path d="M160.341 137.392C160.341 155.577 156.444 146.052 156.877 137.392C152.547 137.392 154.279 134.361 156.877 134.361H160.341C164.238 134.361 162.506 137.392 160.341 137.392Z" fill="#6C6D68"/>
<path d="M10.9593 138.691C9.66023 145.186 13.5571 153.845 13.9902 138.691M10.9593 138.691C8.36124 138.258 8.36123 135.66 10.9593 135.66C12.6911 135.66 10.5263 135.66 13.9902 135.66C17.0211 135.66 15.7221 138.258 13.9902 138.691M10.9593 138.691H13.9902M156.877 137.392C156.444 146.052 160.341 155.577 160.341 137.392M156.877 137.392C152.547 137.392 154.279 134.361 156.877 134.361C156.588 134.361 156.877 134.361 160.341 134.361C164.238 134.361 162.506 137.392 160.341 137.392M156.877 137.392H160.341" stroke="black"/>
<rect x="7.92773" y="140.856" width="154.144" height="2.59794" fill="black"/>
<path d="M5.32959 99.2887V1L9.65949 3.59794L13.9894 1L17.4533 3.59794L20.9172 1V95.8247C20.9172 102.06 25.8244 104.485 28.278 104.918V125.268C13.3832 123.19 6.77289 107.082 5.32959 99.2887Z" fill="black"/>
<path d="M152.113 111.845H146.484L142.587 130.031H149.948C151.68 130.031 152.113 117.907 152.113 111.845Z" fill="black"/>
<path d="M51.2265 157.742H42.5667L41.2677 136.093C44.7317 127.433 48.4842 132.485 49.9275 136.093L51.2265 157.742Z" fill="black"/>
<path d="M131.33 154.711H123.536V136.526C127 127.173 130.752 132.629 132.196 136.526L131.33 154.711Z" fill="black"/>
<path d="M46.897 145.619L130.031 151.247V156.01L46.897 159.474" stroke="black"/>
<path d="M83.701 80.6701L84.134 62.4845C83.9897 61.3299 84.6536 59.0206 88.4639 59.0206H114.876C116.175 59.0206 118.773 59.367 118.773 60.7526C118.773 62.1382 118.485 74.6083 118.34 80.6701H122.237V69.8454C122.381 68.8351 123.103 66.8144 124.835 66.8144H130.897C131.763 66.8144 133.495 67.334 133.495 69.4124V80.6701H139.99C141.577 81.1031 144.839 83.0949 145.186 87.5979C145.532 92.101 149.082 123.103 142.588 133.495C140.163 135.92 134.938 136.237 132.629 136.093H124.835H48.6288H33.4742C25.6803 127 23.5153 92.7938 33.0412 80.6701H39.536V69.8454C39.536 68.9794 40.1422 67.2474 42.567 67.2474H48.1958C49.2061 67.3918 51.2267 68.1134 51.2267 69.8454V80.6701H83.701Z" fill="#24532F"/>
<path d="M83.701 80.6701L84.134 62.4845C83.9897 61.3299 84.6536 59.0206 88.4639 59.0206C92.2742 59.0206 107.66 59.0206 114.876 59.0206C116.175 59.0206 118.773 59.367 118.773 60.7526C118.773 62.1382 118.485 74.6083 118.34 80.6701M83.701 80.6701H118.34M83.701 80.6701H51.2267M118.34 80.6701H122.237M122.237 80.6701V69.8454C122.381 68.8351 123.103 66.8144 124.835 66.8144C126.567 66.8144 129.598 66.8144 130.897 66.8144C131.763 66.8144 133.495 67.334 133.495 69.4124C133.495 71.4907 133.495 77.7835 133.495 80.6701M122.237 80.6701C122.237 83.7876 123.969 85.1443 124.835 85.433C125.475 85.433 126.631 85.433 127.887 85.433M133.495 80.6701C133.495 82.2577 132.975 85.433 130.897 85.433C129.971 85.433 128.896 85.433 127.887 85.433M133.495 80.6701H139.99C141.577 81.1031 144.839 83.0949 145.186 87.5979C145.532 92.101 149.082 123.103 142.588 133.495C140.163 135.92 134.938 136.237 132.629 136.093H124.835M39.536 80.6701H33.0412C23.5153 92.7938 25.6803 127 33.4742 136.093H48.6288M39.536 80.6701V69.8454C39.536 68.9794 40.1422 67.2474 42.567 67.2474C44.9917 67.2474 47.3298 67.2474 48.1958 67.2474C49.2061 67.3918 51.2267 68.1134 51.2267 69.8454C51.2267 71.5773 51.2267 77.7835 51.2267 80.6701M39.536 80.6701C39.536 84.134 41.5566 85.2887 42.567 85.433C43.1109 85.433 44.2357 85.433 45.5979 85.433M51.2267 80.6701C51.2267 82.2577 50.6206 85.433 48.1958 85.433C47.2941 85.433 46.4044 85.433 45.5979 85.433M45.5979 85.433C42.8556 98.567 39.6226 127.087 48.6288 136.093M48.6288 136.093H124.835M127.887 85.433C130.189 99.5773 132.802 129.511 124.835 136.093M124.835 72.0103C124.835 71.1443 125.268 69.4124 127 69.4124C128.732 69.4124 129.742 69.4124 130.031 69.4124C130.608 69.5567 131.763 70.2784 131.763 72.0103C131.763 73.7423 131.763 78.5052 131.763 80.6701C131.763 81.6804 131.416 83.701 130.031 83.701C128.645 83.701 127.144 83.701 126.567 83.701C125.99 83.701 124.835 83.3547 124.835 81.9691C124.835 80.5835 124.835 74.7526 124.835 72.0103ZM42.9999 69.8454H47.3298C47.7628 69.9897 48.6288 70.7114 48.6288 72.4433C48.6288 74.1753 48.6288 79.2268 48.6288 81.5361C48.4845 82.1134 47.936 83.2681 46.8968 83.2681C45.8577 83.2681 44.7319 83.2681 44.2989 83.2681C43.7216 83.2681 42.567 82.7485 42.567 80.6701C42.567 78.5918 42.567 74.3196 42.567 72.4433C42.567 71.5773 42.6536 69.8454 42.9999 69.8454Z" stroke="black"/>
<path d="M5.32961 3.59793V1.43298L9.65951 3.59793L13.5564 1.43298L17.4533 3.16494L21.3502 1.43298V3.59793L17.4533 6.19587L13.5564 4.03092L9.65951 6.19587L5.32961 3.59793Z" fill="#DAB874"/>
<path d="M5.32961 30.4433C0.566759 30.4433 1.86572 26.1134 5.32961 26.1134H21.7832C25.6802 26.1134 24.3812 30.4433 21.3502 30.4433H5.32961Z" fill="#DAB874"/>
<path d="M5.32965 78.0722C0.999768 78.0722 1.43282 74.1752 5.32965 74.1752H21.7833C24.574 74.1752 25.3662 75.2994 24.9649 76.3402C24.619 77.2372 23.3867 78.0722 21.7833 78.0722H5.32965Z" fill="#DAB874"/>
<path d="M24.9649 76.3402C24.619 77.2372 23.3867 78.0722 21.7833 78.0722H5.32965C0.999768 78.0722 1.43282 74.1753 5.32965 74.1753H21.7833C24.574 74.1753 25.3662 75.2994 24.9649 76.3402ZM24.9649 76.3402H39.5359M51.2266 76.3402H121.804M5.32961 1.43298V3.59793L9.65951 6.19587L13.5564 4.03092L17.4533 6.19587L21.3502 3.59793V1.43298L17.4533 3.16494L13.5564 1.43298L9.65951 3.59793L5.32961 1.43298ZM5.32961 26.1134C1.86572 26.1134 0.566759 30.4433 5.32961 30.4433H21.3502C24.3812 30.4433 25.6802 26.1134 21.7832 26.1134H5.32961Z" stroke="black"/>
<path d="M120.506 90.1959H97.1241C94.353 90.1959 93.9488 91.3505 94.0932 91.9278V106.216C94.0932 107.602 95.2478 107.948 95.8251 107.948H121.805C123.536 107.948 123.969 106.505 123.969 105.783V93.2268C123.969 90.802 121.66 90.1959 120.506 90.1959Z" fill="#EEAC2A" stroke="black"/>
<path d="M135.065 150.23C139.554 149.738 143.474 142.627 144.873 139.133C146.008 138.92 148.113 139.493 147.456 143.494C146.798 147.494 139.241 151.354 135.545 152.783L135.065 150.23Z" fill="#8A3733"/>
<path d="M133.367 157.599L134.749 155.577C138.241 159.15 145.992 157.574 149.431 156.339C150.753 157.119 152.322 159.056 148.024 160.569C143.727 162.083 136.462 159.22 133.367 157.599Z" fill="#8A3733"/>
<path d="M128.581 160.262L131.985 159.621C130.839 164.771 137.026 169.247 140.264 170.841C140.726 172.516 140.601 175.448 136.409 173.769C132.216 172.09 129.443 164.065 128.581 160.262Z" fill="#8A3733"/>
<path d="M124.005 159.36L126.028 160.742C120.796 166.66 121.708 172.129 122.817 174.123C122.436 175.222 121.074 176.566 118.667 173.141C116.261 169.717 121.223 162.527 124.005 159.36Z" fill="#8A3733"/>
<path d="M121.263 154.148L121.743 156.701C114.614 156.28 110.725 162.152 109.672 165.14C106.613 165.275 105.455 161.461 108.126 159.263C114.23 154.238 119.427 153.759 121.263 154.148Z" fill="#8A3733"/>
<path d="M122.51 149.067L124.743 146.885C122.761 141.971 115.332 140.578 111.998 140.03C108.4 142.763 105.91 145.14 108.463 144.66C114.34 143.555 120.159 146.719 122.51 149.067Z" fill="#8A3733"/>
<path d="M130.435 146.695L132.297 147.226C134.636 144.671 132.45 136.33 131.277 132.438C127.031 132.503 120.032 132.615 124.309 132.868C128.586 133.121 130.175 142.192 130.435 146.695Z" fill="#8A3733"/>
<path d="M135.065 150.23C139.554 149.738 143.474 142.627 144.873 139.133C146.008 138.92 148.113 139.493 147.456 143.494C146.798 147.494 139.241 151.354 135.545 152.783L135.065 150.23Z" stroke="black"/>
<path d="M133.367 157.599L134.749 155.577C138.241 159.15 145.992 157.574 149.431 156.339C150.753 157.119 152.322 159.056 148.024 160.569C143.727 162.083 136.462 159.22 133.367 157.599Z" stroke="black"/>
<path d="M128.581 160.262L131.985 159.621C130.839 164.771 137.026 169.247 140.264 170.841C140.726 172.516 140.601 175.448 136.409 173.769C132.216 172.09 129.443 164.065 128.581 160.262Z" stroke="black"/>
<path d="M124.005 159.36L126.028 160.742C120.796 166.66 121.708 172.129 122.817 174.123C122.436 175.222 121.074 176.566 118.667 173.141C116.261 169.717 121.223 162.527 124.005 159.36Z" stroke="black"/>
<path d="M121.263 154.148L121.743 156.701C114.614 156.28 110.725 162.152 109.672 165.14C106.613 165.275 105.455 161.461 108.126 159.263C114.23 154.238 119.427 153.759 121.263 154.148Z" stroke="black"/>
<path d="M122.51 149.067L124.743 146.885C122.761 141.971 115.332 140.578 111.998 140.03C108.4 142.763 105.91 145.14 108.463 144.66C114.34 143.555 120.159 146.719 122.51 149.067Z" stroke="black"/>
<path d="M130.435 146.695L132.297 147.226C134.636 144.671 132.45 136.33 131.277 132.438C127.031 132.503 120.032 132.615 124.309 132.868C128.586 133.121 130.175 142.192 130.435 146.695Z" stroke="black"/>
<circle cx="128.577" cy="153.213" r="7.29381" transform="rotate(79.3468 128.577 153.213)" fill="#8A3733" stroke="black"/>
<circle cx="128.576" cy="153.213" r="3.8299" transform="rotate(79.3468 128.576 153.213)" fill="#6C6D68" stroke="black"/>
<circle cx="129.081" cy="153.559" r="1.29897" transform="rotate(79.3468 129.081 153.559)" fill="black"/>
<path d="M127.866 130.897C159.907 131.839 158.611 176.361 127.866 176.361C94.9585 176.361 99.2889 130.057 127.866 130.897Z" stroke="#6C6D68" stroke-width="4"/>
<path d="M128.05 128.744C162.561 129.767 161.165 178.093 128.05 178.093C92.6062 178.093 97.2704 127.832 128.05 128.744Z" stroke="black"/>
<path d="M128.084 132.207C157.835 133.086 156.631 174.629 128.084 174.629C97.5293 174.629 101.55 131.422 128.084 132.207Z" stroke="black"/>
<path d="M43.4328 146.052C43.7792 141.548 37.5153 136.381 34.34 134.361C34.34 133.206 35.2926 131.243 39.1029 132.629C42.9132 134.014 45.3091 142.155 46.0307 146.052H43.4328Z" fill="#8A3733"/>
<path d="M50.3606 149.082L48.6287 147.351C52.7854 144.579 52.6699 136.67 52.0926 133.062C53.1029 131.907 55.2967 130.724 55.9895 135.227C56.6823 139.73 52.5256 146.34 50.3606 149.082Z" fill="#8A3733"/>
<path d="M52.0926 154.278V150.814C56.9421 152.893 62.4843 147.639 64.6493 144.753C66.3812 144.608 69.239 145.272 66.8142 149.082C64.3895 152.893 55.9895 154.134 52.0926 154.278Z" fill="#8A3733"/>
<path d="M50.3606 158.608L52.0926 156.876C56.9421 163.111 62.4843 163.227 64.6493 162.505C65.6596 163.082 66.7276 164.67 62.9173 166.402C59.107 168.134 52.9586 161.928 50.3606 158.608Z" fill="#8A3733"/>
<path d="M44.7318 160.34H47.3297C45.5977 167.268 50.6493 172.175 53.3916 173.763C52.9586 176.794 48.9967 177.227 47.3297 174.196C43.5194 167.268 44.0101 162.072 44.7318 160.34Z" fill="#8A3733"/>
<path d="M39.9689 158.175L38.2369 155.577C33.041 156.616 30.2988 163.66 29.1442 166.835C31.1648 170.876 33.041 173.763 33.041 171.165C33.041 165.185 37.2266 160.052 39.9689 158.175Z" fill="#8A3733"/>
<path d="M39.1029 149.948L39.9689 148.216C37.8905 145.445 29.2885 146.052 25.2472 146.485C24.5256 150.67 23.3421 157.569 24.3812 153.412C25.4204 149.256 34.6287 149.371 39.1029 149.948Z" fill="#8A3733"/>
<path d="M43.4328 146.052C43.7792 141.548 37.5153 136.381 34.34 134.361C34.34 133.206 35.2926 131.243 39.1029 132.629C42.9132 134.014 45.3091 142.155 46.0307 146.052H43.4328Z" stroke="black"/>
<path d="M50.3606 149.082L48.6287 147.351C52.7854 144.579 52.6699 136.67 52.0926 133.062C53.1029 131.907 55.2967 130.724 55.9895 135.227C56.6823 139.73 52.5256 146.34 50.3606 149.082Z" stroke="black"/>
<path d="M52.0926 154.278V150.814C56.9421 152.893 62.4843 147.639 64.6493 144.753C66.3812 144.608 69.239 145.272 66.8142 149.082C64.3895 152.893 55.9895 154.134 52.0926 154.278Z" stroke="black"/>
<path d="M50.3606 158.608L52.0926 156.876C56.9421 163.111 62.4843 163.227 64.6493 162.505C65.6596 163.082 66.7276 164.67 62.9173 166.402C59.107 168.134 52.9586 161.928 50.3606 158.608Z" stroke="black"/>
<path d="M44.7318 160.34H47.3297C45.5977 167.268 50.6493 172.175 53.3916 173.763C52.9586 176.794 48.9967 177.227 47.3297 174.196C43.5194 167.268 44.0101 162.072 44.7318 160.34Z" stroke="black"/>
<path d="M39.9689 158.175L38.2369 155.577C33.041 156.616 30.2988 163.66 29.1442 166.835C31.1648 170.876 33.041 173.763 33.041 171.165C33.041 165.185 37.2266 160.052 39.9689 158.175Z" stroke="black"/>
<path d="M39.1029 149.948L39.9689 148.216C37.8905 145.445 29.2885 146.052 25.2472 146.485C24.5256 150.67 23.3421 157.569 24.3812 153.412C25.4204 149.256 34.6287 149.371 39.1029 149.948Z" stroke="black"/>
<circle cx="45.1649" cy="152.979" r="7.29381" fill="#8A3733" stroke="black"/>
<circle cx="45.1649" cy="152.979" r="3.8299" fill="#6C6D68" stroke="black"/>
<circle cx="45.5983" cy="152.546" r="1.29897" fill="black"/>
<path d="M45.598 130.897C77.6394 131.839 76.3431 176.361 45.5981 176.361C12.6904 176.361 17.0208 130.056 45.598 130.897Z" stroke="#6C6D68" stroke-width="4"/>
<path d="M45.782 128.744C80.2929 129.767 78.8966 178.093 45.782 178.093C10.3382 178.093 15.0023 127.832 45.782 128.744Z" stroke="black"/>
<path d="M45.8163 132.206C75.567 133.086 74.3634 174.629 45.8163 174.629C15.2613 174.629 19.2821 131.422 45.8163 132.206Z" stroke="black"/>
<rect x="11.8916" y="182.923" width="11.9897" height="8.52577" rx="0.5" fill="#644B3C" stroke="black"/>
<rect x="53.459" y="182.923" width="15.4536" height="8.52577" rx="1.5" fill="#644B3C" stroke="black"/>
<rect x="108.881" y="182.923" width="15.4536" height="8.52577" rx="1.5" fill="#644B3C" stroke="black"/>
<rect x="151.314" y="182.923" width="12.8557" height="8.52577" rx="0.5" fill="#644B3C" stroke="black"/>
<path d="M168.134 178.526H1.43299C5.93608 180.604 3.02062 182.856 1 183.722H169C166.229 181.99 167.268 179.536 168.134 178.526Z" fill="#394034" stroke="black"/>
<circle cx="4.89686" cy="76.3402" r="0.43299" fill="black"/>
<circle cx="8.36072" cy="76.3402" r="0.43299" fill="black"/>
<circle cx="10.9584" cy="76.3402" r="0.43299" fill="black"/>
<circle cx="14.4222" cy="76.3402" r="0.43299" fill="black"/>
<circle cx="17.0209" cy="76.3402" r="0.43299" fill="black"/>
<circle cx="20.4847" cy="76.3402" r="0.43299" fill="black"/>
<circle cx="42.1342" cy="88.4639" r="0.43299" fill="black"/>
<circle cx="40.4022" cy="99.7217" r="0.43299" fill="black"/>
<circle cx="40.4022" cy="103.186" r="0.43299" fill="black"/>
<circle cx="40.4022" cy="107.516" r="0.43299" fill="black"/>
<circle cx="40.4022" cy="110.979" r="0.43299" fill="black"/>
<circle cx="40.4022" cy="113.577" r="0.43299" fill="black"/>
<circle cx="40.4022" cy="117.041" r="0.43299" fill="black"/>
<circle cx="40.4022" cy="120.505" r="0.43299" fill="black"/>
<circle cx="41.268" cy="123.969" r="0.43299" fill="black"/>
<circle cx="42.9999" cy="127.433" r="0.43299" fill="black"/>
<circle cx="41.268" cy="91.9279" r="0.43299" fill="black"/>
<circle cx="40.4022" cy="95.3918" r="0.43299" fill="black"/>
<circle cx="97.9895" cy="93.2268" r="0.865979" fill="black"/>
<circle cx="120.505" cy="105.351" r="0.865979" fill="black"/>
<circle cx="97.1238" cy="105.351" r="0.865979" fill="black"/>
<circle cx="120.505" cy="92.3609" r="0.865979" fill="black"/>
<circle cx="130.464" cy="89.3299" r="0.43299" fill="black"/>
<circle cx="132.196" cy="95.3917" r="0.43299" fill="black"/>
<circle cx="132.196" cy="98.8557" r="0.43299" fill="black"/>
<circle cx="132.196" cy="102.32" r="0.43299" fill="black"/>
<circle cx="132.196" cy="105.784" r="0.43299" fill="black"/>
<circle cx="132.196" cy="108.381" r="0.43299" fill="black"/>
<circle cx="132.196" cy="111.845" r="0.43299" fill="black"/>
<circle cx="132.196" cy="115.309" r="0.43299" fill="black"/>
<circle r="0.43299" transform="matrix(1 0 0 -1 132.196 118.773)" fill="black"/>
<circle cx="132.196" cy="121.371" r="0.43299" fill="black"/>
<circle cx="131.329" cy="124.835" r="0.43299" fill="black"/>
<circle cx="130.464" cy="127.433" r="0.43299" fill="black"/>
<circle cx="131.329" cy="92.7938" r="0.43299" fill="black"/>
<circle cx="15.2889" cy="27.8453" r="0.43299" fill="black"/>
<circle cx="18.7528" cy="27.8453" r="0.43299" fill="black"/>
<circle cx="21.3505" cy="28.7113" r="0.43299" fill="black"/>
<circle cx="4.89686" cy="28.7113" r="0.43299" fill="black"/>
<circle cx="8.36072" cy="27.8453" r="0.43299" fill="black"/>
<circle r="0.43299" transform="matrix(1 0 0 -1 11.8246 27.8453)" fill="black"/>
</svg>
