<svg width="305" height="107" viewBox="0 0 305 107" fill="none" xmlns="http://www.w3.org/2000/svg">
<ellipse cx="7" cy="93" rx="7" ry="1" fill="#499DB9"/>
<path d="M27.2581 82.1218H147V91.446L13.3226 90.5096C13.3226 90.5096 11.7742 90.4099 11.7742 90.928V93L3 93C3 80.0497 17.4516 82.1218 27.2581 82.1218Z" fill="#8A8A8A" stroke="#4A2E00"/>
<path d="M194.264 1L191.376 54.4305H207.261L202.929 1H194.264Z" fill="#D85500"/>
<path d="M228.922 1L226.034 54.4305H241.919L237.586 1H228.922Z" fill="#D85500"/>
<path d="M158.163 1L155.274 54.4305H171.159L166.827 1H158.163Z" fill="#D85500"/>
<path d="M194.264 1L191.376 54.4305H207.261L202.929 1H194.264Z" stroke="#4A2E00"/>
<path d="M228.922 1L226.034 54.4305H241.919L237.586 1H228.922Z" stroke="#4A2E00"/>
<path d="M158.163 1L155.274 54.4305H171.159L166.827 1H158.163Z" stroke="#4A2E00"/>
<rect x="149.276" y="53.4866" width="95.7526" height="23.5492" fill="#AA5924" stroke="#4D2D00"/>
<path d="M143 106.417V76.0918H291.739L304.014 91.2545V106.417H143Z" fill="#7C4713" stroke="#4A2E00"/>
<rect x="154.553" y="61.6511" width="7.22034" height="7.22034" fill="#E7E3E3"/>
<rect x="219.536" y="61.6511" width="7.22034" height="7.22034" fill="#E7E3E3"/>
<rect x="232.532" y="61.6511" width="7.22034" height="7.22034" fill="#FFB843"/>
<rect x="180.546" y="61.6511" width="7.22034" height="7.22034" fill="#FFB843"/>
<rect x="206.539" y="61.6511" width="7.22034" height="7.22034" fill="#FFB843"/>
<rect x="193.543" y="61.6511" width="7.22034" height="7.22034" fill="#E7E3E3"/>
<rect x="167.55" y="61.6511" width="7.22034" height="7.22034" fill="#E7E3E3"/>
<rect x="147.332" y="84.7561" width="5.77627" height="11.5525" fill="#E7E3E3"/>
<rect x="173.325" y="84.7561" width="5.77627" height="11.5525" fill="#E7E3E3"/>
<rect x="199.318" y="84.7561" width="5.77627" height="11.5525" fill="#E7E3E3"/>
<rect x="277.298" y="84.7561" width="5.77627" height="11.5525" fill="#E7E3E3"/>
<rect x="212.314" y="84.7561" width="5.77627" height="11.5525" fill="#FFB843"/>
<rect x="264.302" y="84.7561" width="5.77627" height="11.5525" fill="#FFB843"/>
<rect x="290.295" y="84.7561" width="5.77627" height="11.5525" fill="#FFB843"/>
<rect x="238.309" y="84.7561" width="5.77627" height="11.5525" fill="#FFB843"/>
<rect x="186.322" y="84.7561" width="5.77627" height="11.5525" fill="#FFB843"/>
<rect x="251.305" y="84.7561" width="5.77627" height="11.5525" fill="#E7E3E3"/>
<rect x="225.312" y="84.7561" width="5.77627" height="11.5525" fill="#E7E3E3"/>
<rect x="160.329" y="84.7561" width="5.77627" height="11.5525" fill="#E7E3E3"/>
</svg>
