<svg width="127" height="157" viewBox="0 0 127 157" fill="none" xmlns="http://www.w3.org/2000/svg">
<rect x="71" y="48" width="54" height="109" fill="#E2E2E2"/>
<rect x="69" y="40" width="58" height="9" fill="#7A7EA0"/>
<rect x="102" y="34" width="20" height="6" fill="#7A7EA0"/>
<path d="M74.5 74.5H83.5H90.75H97.5V85H90.75H83.5H74.5V74.5Z" fill="#7DCCEB" stroke="#73AEC5"/>
<path d="M73.5 85.5H98.5V93.5H73.5V85.5Z" fill="#DADADA" stroke="#73AEC5"/>
<path d="M74.5 52.5H83.5H90.75H97.5V63H90.75H83.5H74.5V52.5Z" fill="#7DCCEB" stroke="#73AEC5"/>
<path d="M75 65.1045L77.5 62.5V62.1045C77.5 61.2711 78.3244 59.7045 79.8889 60.1045C80.5 59.0001 83.0178 58.5045 83.8 60.1045C84.5 59 87.9067 58.1044 88.6889 60.1045C89 59.5 92.6978 58.6044 93.0889 60.6044C94.0667 60.4378 95.5 60.5 96 62.1045V63.5L97 65.1045H75Z" fill="#37C360"/>
<path d="M75 62.2085V65.2085H97V62.2085H95.5333H77.9333H75Z" fill="#BEC2C1"/>
<path d="M73.5 63.5H98.5V71.5H73.5V63.5Z" fill="#DADADA" stroke="#73AEC5"/>
<path d="M74.5 96.5H83.5H90.75H97.5V107H90.75H83.5H74.5V96.5Z" fill="#7DCCEB" stroke="#73AEC5"/>
<path d="M75 109.104L77.5 106.5V106.104C77.5 105.271 78.3244 103.704 79.8889 104.104C80.5 103 83.0178 102.504 83.8 104.104C84.5 103 87.9067 102.104 88.6889 104.104C89 103.5 92.6978 102.604 93.0889 104.604C94.0667 104.438 95.5 104.5 96 106.104V107.5L97 109.104H75Z" fill="#37C360"/>
<path d="M75 106.208V109.208H97V106.208H95.5333H77.9333H75Z" fill="#BEC2C1"/>
<path d="M73.5 107.5H98.5V115.5H73.5V107.5Z" fill="#DADADA" stroke="#73AEC5"/>
<path d="M74.5 118.5H83.5H90.75H97.5V129H90.75H83.5H74.5V118.5Z" fill="#7DCCEB" stroke="#73AEC5"/>
<path d="M73.5 129.5H98.5V137.5H73.5V129.5Z" fill="#DADADA" stroke="#73AEC5"/>
<rect x="102" y="132" width="22" height="25" fill="#CED5DB"/>
<path d="M101 134V132H125V134H101Z" fill="#BFC6D9"/>
<rect x="109.5" y="138" width="12" height="18" fill="#6A6E8B"/>
<path d="M116.5 146.5H119M101 156.5H109M125 156.5H122M122 156.5V155.5H109V156.5M122 156.5H109" stroke="#7F8095"/>
<rect x="104" y="140" width="2" height="4" fill="#BFC6D9"/>
<rect x="109" y="119" width="6" height="8" fill="#7DCCEB"/>
<rect x="109" y="75" width="6" height="8" fill="#7DCCEB"/>
<rect x="109" y="54" width="6" height="8" fill="#7DCCEB"/>
<rect x="109" y="97" width="6" height="8" fill="#7DCCEB"/>
<rect x="1.08838" y="10" width="70.7353" height="147" fill="#E2E2E2"/>
<rect y="4" width="74" height="9" fill="#6A6E8B"/>
<rect x="10.8823" width="15.2353" height="4" fill="#6A6E8B"/>
<path d="M9.20605 68.5H16.8678H21.2649V84.5H16.8678H9.20605V68.5Z" fill="#7DCCEB" stroke="#73AEC5"/>
<path d="M51.647 116.5H59.3087H63.7058V132.5H59.3087H51.647V116.5Z" fill="#7DCCEB" stroke="#73AEC5"/>
<path d="M30.9707 92.5H38.6325H43.0295V108.5H38.6325H30.9707V92.5Z" fill="#7DCCEB" stroke="#73AEC5"/>
<path d="M9.20605 92.5H16.8678H21.2649V108.5H16.8678H9.20605V92.5Z" fill="#7DCCEB" stroke="#73AEC5"/>
<path d="M52.7354 68.5H60.3971H64.7942V84.5H60.3971H52.7354V68.5Z" fill="#7DCCEB" stroke="#73AEC5"/>
<path d="M52.7354 44.5H60.3971H64.7942V60.5H60.3971H52.7354V44.5Z" fill="#7DCCEB" stroke="#73AEC5"/>
<path d="M52.2354 61.0001V59.0001H53.8677C53.505 58.0001 53.7589 56.1001 55.5001 56.5001C55.5001 55.5 57.8942 54.9002 58.7648 56.5001C58.7648 55.5 62.4648 55.8 62.0295 57H62.0295C63.1177 57 64.7501 57 64.2059 59L65.2942 59.0001V61.0001H52.2354Z" fill="#37C360"/>
<path d="M52.2354 59.0001V61.0001H65.2942V59.0001L64.2059 59L53.8677 59.0001H52.2354Z" fill="#BEC2C1"/>
<path d="M10.2939 20.5H17.9557H22.3528V36.5H17.9557H10.2939V20.5Z" fill="#7DCCEB" stroke="#73AEC5"/>
<path d="M9.79395 37.0001V35.0001H11.4263C11.0636 34.0001 11.3175 32.1001 13.0587 32.5001C13.0587 31.5 15.4528 30.9002 16.3234 32.5001C16.3234 31.5 20.0234 31.8 19.5881 33H19.5881C20.6763 33 22.3086 33 21.7645 35L22.8528 35.0001V37.0001H9.79395Z" fill="#37C360"/>
<path d="M9.79395 35.0001V37.0001H22.8528V35.0001L21.7645 35L11.4263 35.0001H9.79395Z" fill="#BEC2C1"/>
<path d="M30.9707 68.5H38.6325H43.0295V84.5H38.6325H30.9707V68.5Z" fill="#7DCCEB" stroke="#73AEC5"/>
<path d="M30.4707 85.0001V83.0001H32.1031C31.7403 82.0001 31.9942 80.1001 33.7354 80.5001C33.7354 79.5 36.1295 78.9002 37.0001 80.5001C37.0001 79.5 40.7001 79.8 40.2648 81H40.2648C41.3531 81 42.9854 81 42.4413 83L43.5295 83.0001V85.0001H30.4707Z" fill="#37C360"/>
<path d="M30.4707 83.0001V85.0001H43.5295V83.0001L42.4413 83L32.1031 83.0001H30.4707Z" fill="#BEC2C1"/>
<path d="M52.7354 92.5H60.3971H64.7942V108.5H60.3971H52.7354V92.5Z" fill="#7DCCEB" stroke="#73AEC5"/>
<path d="M52.2354 109V107H53.8677C53.505 106 53.7589 104.1 55.5001 104.5C55.5001 103.5 57.8942 102.9 58.7648 104.5C58.7648 103.5 62.4648 103.8 62.0295 105H62.0295C63.1177 105 64.7501 105 64.2059 107L65.2942 107V109H52.2354Z" fill="#37C360"/>
<path d="M52.2354 107V109H65.2942V107L64.2059 107L53.8677 107H52.2354Z" fill="#BEC2C1"/>
<path d="M30.9707 116.5H38.6325H43.0295V132.5H38.6325H30.9707V116.5Z" fill="#7DCCEB" stroke="#73AEC5"/>
<path d="M9.20605 116.5H16.8678H21.2649V132.5H16.8678H9.20605V116.5Z" fill="#7DCCEB" stroke="#73AEC5"/>
<path d="M8.70605 133V131H10.3384C9.97566 130 10.2296 128.1 11.9708 128.5C11.9708 127.5 14.3649 126.9 15.2355 128.5C15.2355 127.5 18.9355 127.8 18.5002 129H18.5002C19.5884 129 21.2208 129 20.6766 131L21.7649 131V133H8.70605Z" fill="#37C360"/>
<path d="M8.70605 131V133H21.7649V131L20.6766 131L10.3384 131H8.70605Z" fill="#BEC2C1"/>
<path d="M30.9707 44.5H38.6325H43.0295V60.5H38.6325H30.9707V44.5Z" fill="#7DCCEB" stroke="#73AEC5"/>
<path d="M9.20605 44.5H16.8678H21.2649V60.5H16.8678H9.20605V44.5Z" fill="#7DCCEB" stroke="#73AEC5"/>
<path d="M52.7354 20.5H60.3971H64.7942V36.5H60.3971H52.7354V20.5Z" fill="#7DCCEB" stroke="#73AEC5"/>
<path d="M30.9707 20.5H38.6325H43.0295V36.5H38.6325H30.9707V20.5Z" fill="#7DCCEB" stroke="#73AEC5"/>
<rect x="1.08838" y="143" width="70.7353" height="14" fill="#73AEC5"/>
<rect x="30.4707" y="138" width="13.0588" height="18" fill="#6A6E8B"/>
<path d="M38.0882 146.5H40.8088M27.75 156.5H29.9265M46.25 156.5H44.0735M44.0735 156.5V155.5H29.9265V156.5M44.0735 156.5H29.9265" stroke="#7F8095"/>
</svg>
