<svg width="68" height="97" viewBox="0 0 68 97" fill="none" xmlns="http://www.w3.org/2000/svg">
<rect x="5.5" y="23" width="57" height="74" fill="#E2E2E2"/>
<path d="M0 24L5.5 6H16.5V0H24V6H62.5L68 24H0Z" fill="#686EA3"/>
<path d="M25.5 97H41.5V79.9516C41.5 67.7739 25.4984 68.2609 25.5 79.9516C25.5005 83.8485 25.5 90.6996 25.5 97Z" fill="#73AEC5"/>
<rect x="28.5" y="76" width="10" height="19" fill="#6A6E8B"/>
<path d="M39 94.9189V96.5H28.1667V94.9189H39Z" fill="#7F8095"/>
<path d="M34.4167 85.1892H36.5M24.5 96.5H28.1667M42.5 96.5H39M39 96.5V94.9189H28.1667V96.5M39 96.5H28.1667" stroke="#7F8095"/>
<path d="M28 27.5H34.375H38V42.4999H34.375H28V27.5Z" fill="#7DCCEB" stroke="#73AEC5"/>
<path d="M27.5 43V41.1177H28.875C28.5694 40.1765 28.7833 38.3883 30.25 38.7648C30.25 37.8235 32.2667 37.2589 33 38.7648C33 37.8235 36.1167 38.1058 35.75 39.2352H35.75C36.6667 39.2352 38.0417 39.2352 37.5833 41.1176L38.5 41.1177V43H27.5Z" fill="#37C360"/>
<path d="M27.5 41.1176V42.9999H38.5V41.1176L37.5833 41.1174L28.875 41.1176H27.5Z" fill="#BEC2C1"/>
<path d="M28 49.5H34.375H38V64.4999H34.375H28V49.5Z" fill="#7DCCEB" stroke="#73AEC5"/>
<path d="M27.5 65V63.1177H28.875C28.5694 62.1765 28.7833 60.3883 30.25 60.7648C30.25 59.8235 32.2667 59.2589 33 60.7648C33 59.8235 36.1167 60.1058 35.75 61.2352H35.75C36.6667 61.2352 38.0417 61.2352 37.5833 63.1176L38.5 63.1177V65H27.5Z" fill="#37C360"/>
<path d="M27.5 63.1176V64.9999H38.5V63.1176L37.5833 63.1174L28.875 63.1176H27.5Z" fill="#BEC2C1"/>
<path d="M45 71.5H51.375H55V86.4999H51.375H45V71.5Z" fill="#7DCCEB" stroke="#73AEC5"/>
<path d="M44.5 87V85.1177H45.875C45.5694 84.1765 45.7833 82.3883 47.25 82.7648C47.25 81.8235 49.2667 81.2589 50 82.7648C50 81.8235 53.1167 82.1058 52.75 83.2352H52.75C53.6667 83.2352 55.0417 83.2352 54.5833 85.1176L55.5 85.1177V87H44.5Z" fill="#37C360"/>
<path d="M44.5 85.1176V86.9999H55.5V85.1176L54.5833 85.1174L45.875 85.1176H44.5Z" fill="#BEC2C1"/>
<path d="M11 27.5H17.375H21V42.4999H17.375H11V27.5Z" fill="#7DCCEB" stroke="#73AEC5"/>
<path d="M10.5 43V41.1177H11.875C11.5694 40.1765 11.7833 38.3883 13.25 38.7648C13.25 37.8235 15.2667 37.2589 16 38.7648C16 37.8235 19.1167 38.1058 18.75 39.2352H18.75C19.6667 39.2352 21.0417 39.2352 20.5833 41.1176L21.5 41.1177V43H10.5Z" fill="#37C360"/>
<path d="M10.5 41.1176V42.9999H21.5V41.1176L20.5833 41.1174L11.875 41.1176H10.5Z" fill="#BEC2C1"/>
<path d="M45 27.5H51.375H55V42.5H51.375H45V27.5Z" fill="#7DCCEB" stroke="#73AEC5"/>
<path d="M11 71.5H17.375H21V86.5H17.375H11V71.5Z" fill="#7DCCEB" stroke="#73AEC5"/>
<path d="M11 49.5H17.375H21V64.5H17.375H11V49.5Z" fill="#7DCCEB" stroke="#73AEC5"/>
<path d="M45 49.5H51.375H55V64.5H51.375H45V49.5Z" fill="#7DCCEB" stroke="#73AEC5"/>
</svg>
