<svg width="100" height="111" viewBox="0 0 100 111" fill="none" xmlns="http://www.w3.org/2000/svg">
<path d="M8.499 83.9033C8.05637 93.0071 5.81825 87.7551 6.6772 83.8669C5.12082 83.5753 5.15207 82.0138 6.71367 82.0451C7.75465 82.0659 6.45341 82.0399 8.53547 82.0815C10.3572 82.118 9.5452 83.6639 8.499 83.9033Z" fill="#6C6D68"/>
<path d="M96.4815 84.8835C96.2627 95.8143 94.035 90.0417 94.3995 84.8418C91.7969 84.7897 92.8744 82.9887 94.4359 83.02L96.518 83.0617C98.8603 83.1086 97.7828 84.9095 96.4815 84.8835Z" fill="#6C6D68"/>
<path d="M6.6772 83.8669C5.81825 87.7551 8.05637 93.0071 8.499 83.9033M6.6772 83.8669C5.12082 83.5753 5.15207 82.0138 6.71367 82.0451C7.75465 82.0659 6.45341 82.0399 8.53547 82.0815C10.3572 82.118 9.5452 83.6639 8.499 83.9033M6.6772 83.8669L8.499 83.9033M94.3994 84.8418C94.035 90.0417 96.2627 95.8143 96.4815 84.8835M94.3994 84.8418C91.7969 84.7897 92.8744 82.9887 94.4359 83.02C94.2624 83.0165 94.4359 83.02 96.518 83.0617C98.8603 83.1086 97.7828 84.9095 96.4815 84.8835M94.3994 84.8418L96.4815 84.8835" stroke="black"/>
<rect x="4.82959" y="85.1317" width="92.6701" height="1.56186" transform="rotate(1.14678 4.82959 85.1317)" fill="black"/>
<path d="M3.76806 60.1157L4.95068 1.03735L7.522 2.65099L10.1558 1.14155L12.2066 2.74477L14.3199 1.22491L13.179 58.2212C13.104 61.9689 16.0244 63.4854 17.494 63.7752L17.2491 76.0073C8.32126 74.5788 4.54181 64.8177 3.76806 60.1157Z" fill="black"/>
<path d="M91.8441 69.4293L88.4608 69.3616L85.8997 80.2455L90.324 80.334C91.3651 80.3549 91.7712 73.0729 91.8441 69.4293Z" fill="black"/>
<path d="M30.652 95.8027L25.4469 95.6985L24.9266 82.67C27.1128 77.5065 29.3076 80.588 30.1317 82.7742L30.652 95.8027Z" fill="black"/>
<path d="M78.836 94.9447L74.1514 94.8509L74.3702 83.9201C76.5648 78.3402 78.7547 81.6646 79.5754 84.0243L78.836 94.9447Z" fill="black"/>
<path d="M28.1953 88.4634L78.097 92.847L78.0396 95.7098L28.0286 96.7916" stroke="black"/>
<path d="M51.0989 49.8677L51.578 38.9421C51.5051 38.2463 51.932 36.8663 54.2222 36.9121L70.0979 37.2299C70.8787 37.2456 72.4361 37.485 72.4194 38.3179C72.4027 39.1507 72.0792 46.6426 71.9195 50.2845L74.2618 50.3314L74.392 43.8249C74.4909 43.2194 74.949 42.0136 75.99 42.0344L79.6336 42.1073C80.1542 42.1177 81.1889 42.4509 81.1639 43.7001L81.0285 50.4668L84.9323 50.545C85.8814 50.8243 87.818 52.0608 87.9721 54.7716C88.1261 57.4824 89.8871 76.1596 85.8583 82.3276C84.3717 83.7559 81.2274 83.8838 79.8411 83.7693L75.1565 83.6755L29.3512 82.7586L20.2422 82.5763C15.667 77.0171 14.7772 56.4307 20.6488 49.2581L24.5527 49.3363L24.6829 42.8299C24.6933 42.3094 25.0785 41.2756 26.536 41.3048L29.9193 41.3725C30.5248 41.4714 31.7307 41.9295 31.7099 42.9705L31.5796 49.477L51.0989 49.8677Z" fill="#24532F"/>
<path d="M51.0989 49.8677L51.578 38.9421C51.5051 38.2463 51.932 36.8663 54.2222 36.9121C56.5125 36.958 65.7603 37.1431 70.0979 37.2299C70.8787 37.2456 72.4361 37.485 72.4194 38.3179C72.4027 39.1507 72.0792 46.6426 71.9195 50.2845M51.0989 49.8677L71.9195 50.2845M51.0989 49.8677L31.5796 49.477M71.9195 50.2845L74.2618 50.3314M74.2618 50.3314L74.392 43.8249C74.4909 43.2194 74.949 42.0136 75.99 42.0344C77.0311 42.0552 78.8529 42.0917 79.6336 42.1073C80.1542 42.1177 81.1889 42.4509 81.1639 43.7001C81.1389 44.9494 81.0632 48.7318 81.0285 50.4668M74.2618 50.3314C74.2243 52.2052 75.249 53.0415 75.766 53.2254C76.1509 53.2332 76.8453 53.2471 77.6006 53.2622M81.0285 50.4668C81.0094 51.4211 80.6589 53.3234 79.4096 53.2984C78.8532 53.2872 78.2073 53.2743 77.6006 53.2622M81.0285 50.4668L84.9323 50.545C85.8814 50.8243 87.818 52.0608 87.9721 54.7716C88.1261 57.4824 89.8871 76.1596 85.8583 82.3276C84.3717 83.7559 81.2274 83.8838 79.8411 83.7693L75.1565 83.6755M24.5527 49.3363L20.6488 49.2581C14.7772 56.4307 15.667 77.0171 20.2422 82.5763L29.3512 82.7586M24.5527 49.3363L24.6829 42.8299C24.6933 42.3094 25.0785 41.2756 26.536 41.3048C27.9934 41.334 29.3988 41.3621 29.9193 41.3725C30.5248 41.4714 31.7307 41.9295 31.7099 42.9705C31.689 44.0116 31.6143 47.7419 31.5796 49.477M24.5527 49.3363C24.511 51.4184 25.7116 52.1367 26.3172 52.2356C26.6441 52.2421 27.3202 52.2557 28.139 52.2721M31.5796 49.477C31.5605 50.4312 31.1579 52.3325 29.7005 52.3033C29.1585 52.2925 28.6237 52.2818 28.139 52.2721M28.139 52.2721C26.3326 60.1335 24.0462 77.2369 29.3512 82.7586M29.3512 82.7586L75.1565 83.6755M77.6006 53.2622C78.8142 61.7916 80.0244 79.8155 75.1565 83.6755M75.9275 45.1575C75.9379 44.637 76.219 43.6011 77.2601 43.622C78.3011 43.6428 78.9084 43.655 79.0819 43.6585C79.4271 43.7522 80.1125 44.1998 80.0916 45.2408C80.0708 46.2819 80.0135 49.1447 79.9874 50.446C79.9753 51.0532 79.7428 52.2636 78.91 52.2469C78.0771 52.2303 77.1749 52.2122 76.8279 52.2053C76.4809 52.1983 75.791 51.9762 75.8077 51.1434C75.8244 50.3106 75.8945 46.8058 75.9275 45.1575ZM26.765 42.8715L29.3675 42.9236C29.6261 43.0156 30.1379 43.4598 30.1171 44.5008C30.0962 45.5418 30.0354 48.5782 30.0076 49.9662C29.9139 50.3115 29.5704 50.9989 28.9458 50.9864C28.3212 50.9739 27.6445 50.9604 27.3842 50.9551C27.0372 50.9482 26.3495 50.622 26.3745 49.3728C26.3995 48.1235 26.4509 45.5557 26.4735 44.4279C26.4839 43.9074 26.5568 42.8674 26.765 42.8715Z" stroke="black"/>
<path d="M4.91927 2.59889L4.94532 1.2976L7.52185 2.65099L9.89021 1.39659L12.2117 2.4845L14.5748 1.49036L14.5488 2.79165L12.1752 4.3063L9.85895 2.95813L7.49059 4.21253L4.91927 2.59889Z" fill="#DAB874"/>
<path d="M4.59627 18.7348C1.73346 18.6775 2.56633 16.0906 4.64837 16.1323L14.5381 16.3302C16.8805 16.3771 16.0476 18.9641 14.2258 18.9276L4.59627 18.7348Z" fill="#DAB874"/>
<path d="M4.02322 47.3631C1.42066 47.311 1.72784 44.9739 4.0701 45.0208L13.9599 45.2188C15.6373 45.2524 16.0999 45.9376 15.8462 46.5583C15.6275 47.0933 14.8768 47.5804 13.913 47.5611L4.02322 47.3631Z" fill="#DAB874"/>
<path d="M15.8462 46.5583C15.6275 47.0933 14.8768 47.5804 13.913 47.5611L4.02322 47.3631C1.42066 47.311 1.72784 44.9739 4.0701 45.0208L13.9599 45.2188C15.6373 45.2524 16.0999 45.9376 15.8462 46.5583ZM15.8462 46.5583L24.6044 46.7337M31.6313 46.8743L74.0532 47.7235M4.94532 1.2976L4.91927 2.59889L7.49059 4.21253L9.85895 2.95813L12.1752 4.3063L14.5488 2.79165L14.5748 1.49036L12.2117 2.4845L9.89021 1.39659L7.52185 2.65099L4.94532 1.2976ZM4.64837 16.1323C2.56633 16.0906 1.73346 18.6775 4.59627 18.7348L14.2258 18.9276C16.0476 18.9641 16.8805 16.3771 14.5381 16.3302L4.64837 16.1323Z" stroke="black"/>
<path d="M73.1057 56.0361L59.0519 55.7548C57.3862 55.7214 57.1294 56.4106 57.2092 56.7594L57.0373 65.3478C57.0206 66.1807 57.7105 66.4028 58.0575 66.4097L73.6729 66.7223C74.7139 66.7431 74.9916 65.8808 75.0002 65.4471L75.1513 57.8996C75.1805 56.4422 73.7998 56.05 73.1057 56.0361Z" fill="#EEAC2A" stroke="black"/>
<path d="M81.1346 92.2961C83.839 92.0544 86.2808 87.8273 87.1636 85.7439C87.8482 85.6293 89.1066 85.9992 88.6634 88.396C88.2202 90.7929 83.6315 93.0217 81.3925 93.8365L81.1346 92.2961Z" fill="#8A3733"/>
<path d="M80.0253 96.7048L80.8803 95.5059C82.9361 97.6954 87.6143 96.8416 89.6965 96.1411C90.4814 96.6255 91.401 97.8087 88.7997 98.6666C86.1985 99.5245 81.8663 97.7162 80.0253 96.7048Z" fill="#8A3733"/>
<path d="M77.1165 98.2477L79.1703 97.9037C78.4195 100.986 82.0849 103.75 84.0114 104.747C84.2689 105.76 84.159 107.52 81.659 106.461C79.159 105.401 77.589 100.544 77.1165 98.2477Z" fill="#8A3733"/>
<path d="M74.3772 97.6506L75.5761 98.5056C72.3606 102 72.8424 105.298 73.4853 106.51C73.2433 107.166 72.408 107.957 71.0027 105.87C69.5974 103.782 72.6668 99.5207 74.3772 97.6506Z" fill="#8A3733"/>
<path d="M72.7913 94.4851L73.0493 96.0255C68.7696 95.6864 66.3615 99.1689 65.6924 100.953C63.8523 100.997 63.2022 98.6906 64.8338 97.4012C68.5632 94.4541 71.6927 94.2291 72.7913 94.4851Z" fill="#8A3733"/>
<path d="M73.6021 91.446L74.9705 90.1611C73.8385 87.1835 69.39 86.2569 67.3926 85.8875C65.197 87.4869 63.6718 88.886 65.2122 88.628C68.7577 88.0343 72.2173 90.0063 73.6021 91.446Z" fill="#8A3733"/>
<path d="M78.3941 90.1157L79.507 90.4572C80.9437 88.9497 79.7302 83.9095 79.0722 81.5563C76.5188 81.544 72.3106 81.5272 74.8785 81.7307C77.4463 81.9341 78.2921 87.4055 78.3941 90.1157Z" fill="#8A3733"/>
<path d="M81.1346 92.2961C83.839 92.0544 86.2808 87.8273 87.1636 85.7439C87.8482 85.6293 89.1066 85.9992 88.6634 88.396C88.2202 90.7929 83.6315 93.0217 81.3925 93.8365L81.1346 92.2961Z" stroke="black"/>
<path d="M80.0253 96.7048L80.8803 95.5059C82.9361 97.6954 87.6143 96.8416 89.6965 96.1411C90.4814 96.6255 91.401 97.8087 88.7997 98.6666C86.1985 99.5245 81.8663 97.7162 80.0253 96.7048Z" stroke="black"/>
<path d="M77.1165 98.2477L79.1703 97.9037C78.4195 100.986 82.0849 103.75 84.0114 104.747C84.2689 105.76 84.159 107.52 81.659 106.461C79.159 105.401 77.589 100.544 77.1165 98.2477Z" stroke="black"/>
<path d="M74.3772 97.6506L75.5761 98.5056C72.3606 102 72.8424 105.298 73.4853 106.51C73.2433 107.166 72.408 107.957 71.0027 105.87C69.5974 103.782 72.6668 99.5207 74.3772 97.6506Z" stroke="black"/>
<path d="M72.7913 94.4851L73.0493 96.0255C68.7696 95.6864 66.3615 99.1689 65.6924 100.953C63.8523 100.997 63.2022 98.6906 64.8338 97.4012C68.5632 94.4541 71.6927 94.2291 72.7913 94.4851Z" stroke="black"/>
<path d="M73.6021 91.446L74.9705 90.1611C73.8385 87.1835 69.39 86.2569 67.3926 85.8875C65.197 87.4869 63.6718 88.886 65.2122 88.628C68.7577 88.0343 72.2173 90.0063 73.6021 91.446Z" stroke="black"/>
<path d="M78.3941 90.1157L79.507 90.4572C80.9437 88.9497 79.7302 83.9095 79.0722 81.5563C76.5188 81.544 72.3106 81.5272 74.8785 81.7307C77.4463 81.9341 78.2921 87.4055 78.3941 90.1157Z" stroke="black"/>
<circle cx="77.1985" cy="94.0109" r="4.18557" transform="rotate(80.4936 77.1985 94.0109)" fill="#8A3733" stroke="black"/>
<circle cx="77.1985" cy="94.0109" r="2.10309" transform="rotate(80.4936 77.1985 94.0109)" fill="#6C6D68" stroke="black"/>
<circle cx="77.4984" cy="94.2246" r="0.780928" transform="rotate(80.4936 77.4984 94.2246)" fill="black"/>
<path d="M77.0403 80.5889C96.2881 81.5409 94.9732 108.286 76.4933 107.916C56.7135 107.52 59.8735 79.7398 77.0403 80.5889Z" stroke="#6C6D68" stroke-width="4"/>
<path d="M77.1771 79.2971C97.9082 80.3272 96.4875 109.358 76.5834 108.959C55.2791 108.533 58.6873 78.3784 77.1771 79.2971Z" stroke="black"/>
<path d="M77.1562 81.3786C95.0279 82.2652 93.8046 107.221 76.6458 106.877C58.2801 106.51 61.2168 80.5879 77.1562 81.3786Z" stroke="black"/>
<path d="M26.1083 88.6819C26.3707 85.9794 22.6678 82.7983 20.7835 81.5455C20.7974 80.8515 21.3936 79.6831 23.6672 80.5618C25.9408 81.4405 27.283 86.3621 27.6698 88.7131L26.1083 88.6819Z" fill="#8A3733"/>
<path d="M30.2359 90.587L29.2157 89.5252C31.7475 87.9095 31.7733 83.1541 31.4697 80.9784C32.0909 80.2965 33.4238 79.6115 33.786 82.3265C34.1482 85.0415 31.5702 88.9648 30.2359 90.587Z" fill="#8A3733"/>
<path d="M31.2144 93.7309L31.2561 91.6489C34.146 92.9565 37.5405 89.8654 38.8765 88.1564C39.9193 88.0905 41.629 88.5239 40.1257 90.785C38.6224 93.0461 33.5585 93.6911 31.2144 93.7309Z" fill="#8A3733"/>
<path d="M30.1213 96.3127L31.1832 95.2925C34.023 99.0985 37.3529 99.2346 38.6629 98.8269C39.2632 99.1861 39.8861 100.153 37.575 101.148C35.2639 102.144 31.6429 98.3392 30.1213 96.3127Z" fill="#8A3733"/>
<path d="M26.7171 97.286L28.2787 97.3172C27.1543 101.461 30.1316 104.471 31.7608 105.458C31.464 107.275 29.0775 107.487 28.112 105.645C25.9051 101.436 26.2625 98.3183 26.7171 97.286Z" fill="#8A3733"/>
<path d="M23.8804 95.9274L22.8706 94.345C19.735 94.9071 18.002 99.1076 17.2697 101.002C18.4356 103.456 19.5287 105.213 19.5599 103.652C19.6319 100.058 22.2095 97.0222 23.8804 95.9274Z" fill="#8A3733"/>
<path d="M23.4588 90.9721L24.0002 89.9415C22.7843 88.2508 17.6066 88.5117 15.1723 88.7233C14.6882 91.2304 13.8938 95.363 14.5684 92.877C15.243 90.391 20.7764 90.5712 23.4588 90.9721Z" fill="#8A3733"/>
<path d="M26.1083 88.6819C26.3707 85.9794 22.6678 82.7983 20.7835 81.5455C20.7974 80.8515 21.3936 79.6831 23.6672 80.5618C25.9408 81.4405 27.283 86.3621 27.6698 88.7131L26.1083 88.6819Z" stroke="black"/>
<path d="M30.2359 90.587L29.2157 89.5252C31.7475 87.9095 31.7733 83.1541 31.4697 80.9784C32.0909 80.2965 33.4238 79.6115 33.786 82.3265C34.1482 85.0415 31.5702 88.9648 30.2359 90.587Z" stroke="black"/>
<path d="M31.2144 93.7309L31.2561 91.6489C34.146 92.9565 37.5405 89.8654 38.8765 88.1564C39.9193 88.0905 41.629 88.5239 40.1257 90.785C38.6224 93.0461 33.5585 93.6911 31.2144 93.7309Z" stroke="black"/>
<path d="M30.1213 96.3127L31.1832 95.2925C34.023 99.0985 37.3529 99.2346 38.6629 98.8269C39.2632 99.1861 39.8861 100.153 37.575 101.148C35.2639 102.144 31.6429 98.3392 30.1213 96.3127Z" stroke="black"/>
<path d="M26.7171 97.286L28.2787 97.3172C27.1543 101.461 30.1316 104.471 31.7608 105.458C31.464 107.275 29.0775 107.487 28.112 105.645C25.9051 101.436 26.2625 98.3183 26.7171 97.286Z" stroke="black"/>
<path d="M23.8804 95.9274L22.8706 94.345C19.735 94.9071 18.002 99.1076 17.2697 101.002C18.4356 103.456 19.5287 105.213 19.5599 103.652C19.6319 100.058 22.2095 97.0222 23.8804 95.9274Z" stroke="black"/>
<path d="M23.4588 90.9721L24.0002 89.9415C22.7843 88.2508 17.6066 88.5117 15.1723 88.7233C14.6882 91.2304 13.8938 95.363 14.5684 92.877C15.243 90.391 20.7764 90.5712 23.4588 90.9721Z" stroke="black"/>
<circle cx="27.066" cy="92.8669" r="4.18557" transform="rotate(1.14678 27.066 92.8669)" fill="#8A3733" stroke="black"/>
<circle cx="27.0661" cy="92.8668" r="2.10309" transform="rotate(1.14678 27.0661 92.8668)" fill="#6C6D68" stroke="black"/>
<circle cx="27.3315" cy="92.6118" r="0.780928" transform="rotate(1.14678 27.3315 92.6118)" fill="black"/>
<path d="M27.5921 79.5989C46.8398 80.5509 45.525 107.296 27.0451 106.926C7.26527 106.53 10.4253 78.7498 27.5921 79.5989Z" stroke="#6C6D68" stroke-width="4"/>
<path d="M27.7284 78.3073C48.4595 79.3374 47.0388 108.368 27.1346 107.969C5.83038 107.543 9.23862 77.3886 27.7284 78.3073Z" stroke="black"/>
<path d="M27.7075 80.3886C45.5792 81.2752 44.3559 106.231 27.1971 105.887C8.83136 105.52 11.768 79.598 27.7075 80.3886Z" stroke="black"/>
<circle cx="3.78386" cy="46.3169" r="0.260309" transform="rotate(1.14678 3.78386 46.3169)" fill="black"/>
<circle cx="5.86589" cy="46.3586" r="0.260309" transform="rotate(1.14678 5.86589 46.3586)" fill="black"/>
<circle cx="7.42741" cy="46.3899" r="0.260309" transform="rotate(1.14678 7.42741 46.3899)" fill="black"/>
<circle cx="9.50944" cy="46.4315" r="0.260309" transform="rotate(1.14678 9.50944 46.4315)" fill="black"/>
<circle cx="11.071" cy="46.4627" r="0.260309" transform="rotate(1.14678 11.071 46.4627)" fill="black"/>
<circle cx="13.153" cy="46.5045" r="0.260309" transform="rotate(1.14678 13.153 46.5045)" fill="black"/>
<circle cx="26.0202" cy="54.0522" r="0.260309" transform="rotate(1.14678 26.0202 54.0522)" fill="black"/>
<circle cx="24.8439" cy="60.7981" r="0.260309" transform="rotate(1.14678 24.8439 60.7981)" fill="black"/>
<circle cx="24.8019" cy="62.8801" r="0.260309" transform="rotate(1.14678 24.8019 62.8801)" fill="black"/>
<circle cx="24.7502" cy="65.4826" r="0.260309" transform="rotate(1.14678 24.7502 65.4826)" fill="black"/>
<circle cx="24.7082" cy="67.5647" r="0.260309" transform="rotate(1.14678 24.7082 67.5647)" fill="black"/>
<circle cx="24.6769" cy="69.1263" r="0.260309" transform="rotate(1.14678 24.6769 69.1263)" fill="black"/>
<circle cx="24.6354" cy="71.2083" r="0.260309" transform="rotate(1.14678 24.6354 71.2083)" fill="black"/>
<circle cx="24.5934" cy="73.2904" r="0.260309" transform="rotate(1.14678 24.5934 73.2904)" fill="black"/>
<circle cx="25.0724" cy="75.3829" r="0.260309" transform="rotate(1.14678 25.0724 75.3829)" fill="black"/>
<circle cx="26.0719" cy="77.4857" r="0.260309" transform="rotate(1.14678 26.0719 77.4857)" fill="black"/>
<circle cx="25.4582" cy="56.1239" r="0.260309" transform="rotate(1.14678 25.4582 56.1239)" fill="black"/>
<circle cx="24.8957" cy="58.1954" r="0.260309" transform="rotate(1.14678 24.8957 58.1954)" fill="black"/>
<circle cx="59.5365" cy="57.587" r="0.520619" transform="rotate(1.14678 59.5365 57.587)" fill="black"/>
<circle cx="72.9237" cy="65.1451" r="0.520619" transform="rotate(1.14678 72.9237 65.1451)" fill="black"/>
<circle cx="58.87" cy="64.8638" r="0.520619" transform="rotate(1.14678 58.87 64.8638)" fill="black"/>
<circle cx="73.0799" cy="57.3373" r="0.520619" transform="rotate(1.14678 73.0799 57.3373)" fill="black"/>
<circle cx="79.1032" cy="55.6355" r="0.260309" transform="rotate(1.14678 79.1032 55.6355)" fill="black"/>
<circle cx="80.0705" cy="59.2999" r="0.260309" transform="rotate(1.14678 80.0705 59.2999)" fill="black"/>
<circle cx="80.0285" cy="61.3819" r="0.260309" transform="rotate(1.14678 80.0285 61.3819)" fill="black"/>
<circle cx="79.987" cy="63.4641" r="0.260309" transform="rotate(1.14678 79.987 63.4641)" fill="black"/>
<circle cx="79.9455" cy="65.5461" r="0.260309" transform="rotate(1.14678 79.9455 65.5461)" fill="black"/>
<circle cx="79.9142" cy="67.1076" r="0.260309" transform="rotate(1.14678 79.9142 67.1076)" fill="black"/>
<circle cx="79.8722" cy="69.1897" r="0.260309" transform="rotate(1.14678 79.8722 69.1897)" fill="black"/>
<circle cx="79.8307" cy="71.2717" r="0.260309" transform="rotate(1.14678 79.8307 71.2717)" fill="black"/>
<circle r="0.260309" transform="matrix(0.9998 0.0200138 0.0200138 -0.9998 79.7889 73.3538)" fill="black"/>
<circle cx="79.7575" cy="74.9154" r="0.260309" transform="rotate(1.14678 79.7575 74.9154)" fill="black"/>
<circle cx="79.1955" cy="76.987" r="0.260309" transform="rotate(1.14678 79.1955 76.987)" fill="black"/>
<circle cx="78.6437" cy="78.538" r="0.260309" transform="rotate(1.14678 78.6437 78.538)" fill="black"/>
<circle cx="79.5812" cy="57.728" r="0.260309" transform="rotate(1.14678 79.5812 57.728)" fill="black"/>
<circle cx="10.6134" cy="17.2931" r="0.260309" transform="rotate(1.14678 10.6134 17.2931)" fill="black"/>
<circle cx="12.6955" cy="17.3347" r="0.260309" transform="rotate(1.14678 12.6955 17.3347)" fill="black"/>
<circle cx="14.2467" cy="17.8864" r="0.260309" transform="rotate(1.14678 14.2467 17.8864)" fill="black"/>
<circle cx="4.3571" cy="17.6886" r="0.260309" transform="rotate(1.14678 4.3571 17.6886)" fill="black"/>
<circle cx="6.44938" cy="17.2097" r="0.260309" transform="rotate(1.14678 6.44938 17.2097)" fill="black"/>
<circle r="0.260309" transform="matrix(0.9998 0.0200138 0.0200138 -0.9998 8.53158 17.2514)" fill="black"/>
</svg>
