<svg width="16" height="16" viewBox="0 0 16 16" fill="none" xmlns="http://www.w3.org/2000/svg">
<path d="M14.9286 5.3113C13.8411 2.412 11.0439 0.348389 7.76475 0.348389C4.48562 0.348389 1.68837 2.412 0.600912 5.3113C0.287568 6.14698 0.580101 12.9605 7.76475 12.9605C14.9494 12.9605 15.2419 6.14698 14.9286 5.3113Z" fill="#405B6C"/>
<path d="M7.76473 10.2751C4.4856 10.2751 1.6895 8.21117 0.602045 5.31187C0.288413 6.14755 0.115845 7.05203 0.115845 7.99726C0.115845 12.2216 3.54037 15.6459 7.76444 15.6459C11.9888 15.6459 15.413 12.2213 15.413 7.99726C15.413 7.05203 15.2405 6.14755 14.9271 5.31187C13.84 8.21088 11.0439 10.2751 7.76473 10.2751Z" fill="#2D4456"/>
</svg>
