<svg width="148" height="148" viewBox="0 0 148 148" fill="none" xmlns="http://www.w3.org/2000/svg">
<path d="M148 74C148 73.101 147.984 72.2055 147.952 71.3143C146.538 31.6893 113.97 0 74 0C34.0299 0 1.4615 31.6893 0.0479844 71.3143C0.0161875 72.2055 0 73.101 0 74C0 114.869 38.0123 145.315 74 145.315C110.64 145.315 148 114.869 148 74Z" fill="#70AB13"/>
<path d="M74 142.629C34.0305 142.629 1.46786 110.939 0.0537656 71.3143C0.0216797 72.2064 0 73.1004 0 74C0 114.869 33.1309 148 74 148C114.869 148 148 114.869 148 74C148 73.1004 147.978 72.2064 147.947 71.3146C146.532 110.939 113.97 142.629 74 142.629Z" fill="#568F11"/>
<path d="M135.691 71.3143C134.285 38.4575 107.203 12.2511 74 12.2511C40.7968 12.2511 13.7145 38.4575 12.3085 71.3143C12.2704 72.2049 12.3082 131.821 74 131.821C135.692 131.821 135.73 72.2049 135.691 71.3143Z" fill="#E4EEF9"/>
<path d="M73.9999 130.378C40.7971 130.378 13.7191 104.171 12.3125 71.3143C12.2744 72.2052 12.251 73.0996 12.251 73.9997C12.251 108.103 39.8969 135.749 73.9999 135.749C108.103 135.749 135.749 108.103 135.749 74C135.749 73.0999 135.725 72.2052 135.687 71.3146C134.281 104.171 107.203 130.378 73.9999 130.378Z" fill="#D5E0F2"/>
<path d="M106.221 53.7714C107.443 54.3769 108.791 53.2326 108.378 51.9334C105.673 43.4427 97.1929 23.0696 77.8506 22.0389C55.8134 20.8649 49.1792 34.7109 51.3259 42.2114L53.9037 47.3111C55.0788 51.0618 58.8532 57.6978 70.831 57.3371C86.2646 56.8722 93.2217 47.3278 106.221 53.7714Z" fill="#70AB13"/>
<path d="M80.0541 30.8664C91.5747 30.871 99.8859 37.3708 105.604 44.7266C101.291 35.2308 92.8275 22.8368 77.8506 22.0389C55.8134 20.8649 49.1792 34.7109 51.3259 42.2114L52.8654 45.257C55.4595 38.1217 63.613 30.8597 80.0541 30.8664Z" fill="#568F11"/>
<path d="M116.067 71.6145L110.361 71.2972C106.525 70.4395 98.8913 70.3903 93.2149 80.9437C85.9009 94.5418 90.6878 105.339 78.6079 113.375C77.4727 114.131 77.7896 115.87 79.1217 116.162C87.8268 118.065 109.711 120.907 120.274 104.672C132.31 86.1741 123.636 73.5057 116.067 71.6145Z" fill="#70AB13"/>
<path d="M87.7105 116.673C99.7904 108.12 95.0034 96.629 102.317 82.157C106.338 74.2022 111.34 71.9083 115.279 71.5709L110.361 71.2974C106.525 70.4396 98.8911 70.3904 93.2146 80.9438C85.9006 94.542 90.6876 105.339 78.6077 113.375C77.4724 114.131 77.7893 115.871 79.1214 116.162C81.1703 116.61 83.9494 117.11 87.1387 117.401C87.25 117.121 87.4372 116.867 87.7105 116.673Z" fill="#568F11"/>
<path d="M39.6077 59.2614C39.5213 57.9006 37.856 57.3052 36.9378 58.3131C30.9368 64.9003 17.5333 82.4312 26.3119 99.6973C36.3139 119.369 51.6219 118.191 57.0443 112.582L60.1718 107.8C62.8324 104.907 66.6921 98.32 60.3909 88.1273C52.2714 74.994 40.5273 73.7411 39.6077 59.2614Z" fill="#70AB13"/>
<path d="M34.7944 99.6973C28.016 86.3652 34.4628 72.8769 40.5152 64.3892C40.0449 62.8736 39.73 61.1852 39.6079 59.2614C39.5215 57.9006 37.8563 57.3052 36.9381 58.3131C30.9371 64.9003 17.5335 82.4312 26.3122 99.6973C33.9606 114.74 44.7114 117.591 51.7723 115.592C46.0453 114.099 39.7647 109.473 34.7944 99.6973Z" fill="#568F11"/>
<path d="M44.2908 50.5284C43.8977 50.8429 43.6945 51.3036 43.6885 51.7711L44.738 53.083C45.3387 53.8339 46.4601 53.8881 47.1311 53.1994C51.2061 49.0178 64.8256 36.6167 80.0264 40.1391C80.3549 40.2152 80.6277 40.0997 80.8028 39.9005C74.5624 37.0652 62.6492 35.8417 44.2908 50.5284Z" fill="#99DC31"/>
<path d="M44.5608 50.5539C62.6529 36.0803 74.3868 37.3028 80.5249 40.1005C81.066 39.8712 81.2407 39.0432 80.6199 38.669C75.1519 35.373 62.9086 32.131 42.8539 48.1747C42.1659 48.725 42.057 49.7315 42.6073 50.4196L44.0091 52.1718C43.8701 51.5892 44.0629 50.9524 44.5608 50.5539Z" fill="#7EBE30"/>
<path d="M115.138 61.2957C115.006 60.4247 114.188 59.827 113.318 59.9598L111.568 60.2263C111.193 60.6193 111.022 61.1937 111.183 61.7636C112.766 67.3834 116.696 85.379 106.045 96.7819C105.768 97.0785 105.771 97.4438 105.929 97.7208L105.992 97.8208C111.516 94.002 118.673 84.5044 115.138 61.2957Z" fill="#99DC31"/>
<path d="M106.252 96.7818C116.903 85.3787 112.973 67.3834 111.389 61.7636C111.224 61.1766 111.408 60.5831 111.808 60.1897L109.946 60.4733C108.995 60.6181 108.387 61.562 108.648 62.4876C110.232 68.1074 114.162 86.1029 103.511 97.5058C102.885 98.176 103.685 99.1982 104.487 98.7548C105.012 98.465 105.566 98.123 106.136 97.7205C105.978 97.4438 105.975 97.0787 106.252 96.7818Z" fill="#7EBE30"/>
<path d="M68.6575 110.721C62.9985 109.283 45.4492 103.688 40.8992 88.7627C40.7603 88.3064 40.3461 88.1389 39.978 88.21C40.2026 88.2532 40.4106 88.3878 40.5301 88.6278C41.3166 95.4363 46.3787 106.103 67.8253 114.482C68.2715 114.656 68.7475 114.615 69.1435 114.412L69.7532 112.852C70.1033 111.956 69.5896 110.958 68.6575 110.721Z" fill="#99DC31"/>
<path d="M67.8412 114.196C46.6278 105.908 41.6209 95.3576 40.8429 88.6232C40.4878 87.9098 39.3459 88.1197 39.3296 88.9841C39.2091 95.3674 42.5232 107.592 66.4446 116.938C67.2652 117.258 68.1914 116.849 68.512 116.029L69.286 114.048C68.8701 114.316 68.3368 114.39 67.8412 114.196Z" fill="#7EBE30"/>
</svg>
