<svg width="242" height="320" viewBox="0 0 242 320" fill="none" xmlns="http://www.w3.org/2000/svg">
<path d="M78.4641 97.9746V105.461C78.4641 105.461 72.3728 111.263 67.8102 124.552L63.7041 121.577C64.1103 120.521 64.5305 119.476 64.9671 118.456C67.1501 113.334 69.7544 108.644 72.8551 104.457C74.5664 102.137 76.4333 99.9691 78.4641 97.9746Z" fill="#E2E3F2"/>
<path d="M64.042 121.477L67.6682 124.104C71.8914 112.004 77.4255 106.113 78.1828 105.345V98.6487C76.3732 100.476 74.6584 102.482 73.0806 104.623C70.0888 108.661 67.447 113.351 65.2254 118.565C64.8367 119.473 64.4388 120.452 64.042 121.477ZM67.9514 125L63.3643 121.677L63.4427 121.476C63.8664 120.372 64.2936 119.319 64.7103 118.345C66.9483 113.093 69.6136 108.363 72.6299 104.289C74.3635 101.939 76.2597 99.7478 78.2671 97.7755L78.7435 97.3073V105.582L78.6569 105.664C78.596 105.722 72.5585 111.584 68.0743 124.642L67.9514 125Z" fill="#211414"/>
<path d="M78.4635 121.932V135.942C77.753 136.17 76.9863 136.297 76.1951 136.297C75.4377 136.297 74.7074 136.185 74.0226 135.971C71.0168 135.043 68.835 132.247 68.835 128.937C68.835 125.628 71.0168 122.831 74.0226 121.902C74.7074 121.689 75.4377 121.576 76.1951 121.576C76.9863 121.576 77.753 121.704 78.4635 121.932Z" fill="#F9123E"/>
<path d="M184.746 305.899H55.7207V302.815C55.7207 297.791 59.794 293.717 64.8178 293.717H175.648C180.673 293.717 184.746 297.791 184.746 302.815V305.899Z" fill="#CBCCE1"/>
<path d="M184.746 305.899H183.065V305.055C183.065 300.031 178.992 295.958 173.967 295.958H63.1379C60.6634 295.958 58.4231 296.948 56.7832 298.55C58.0029 296.256 60.1741 294.546 62.7715 293.948C62.7773 293.947 62.782 293.946 62.7879 293.945C62.7902 293.945 62.7914 293.943 62.7926 293.943C63.4434 293.796 64.1222 293.717 64.8175 293.717H175.648C180.673 293.717 184.745 297.791 184.745 302.815V305.899" fill="#F5F5F9"/>
<path d="M175.648 289.796H64.8181C57.6406 289.796 51.7998 295.637 51.7998 302.815V305.899C51.7998 308.064 53.5544 309.82 55.721 309.82H184.745C186.912 309.82 188.667 308.064 188.667 305.899V302.815C188.667 295.637 182.827 289.796 175.648 289.796ZM175.648 293.717C180.673 293.717 184.745 297.791 184.745 302.815V305.899H55.721V302.815C55.721 297.791 59.7932 293.717 64.8181 293.717H175.648Z" fill="#211414"/>
<path d="M97.097 78.7666H147.046C156.1 78.7666 163.439 86.1056 163.439 95.1594V289.796H80.7041V95.1594C80.7041 86.1056 88.0431 78.7666 97.097 78.7666Z" fill="#F9123E"/>
<path d="M153.282 79.9946C151.36 79.2034 149.253 78.7667 147.046 78.7667C149.253 78.7667 151.36 79.2034 153.282 79.9946Z" fill="#91E8FF"/>
<path d="M163.438 289.796H160.998V94.5145C160.998 87.1602 155.033 81.2012 147.679 81.2012H96.1134C98.6124 79.6585 101.559 78.7677 104.712 78.7677H97.0978C94.0942 78.7677 91.278 79.5754 88.8574 80.9858C88.8609 80.9835 88.8633 80.9811 88.8668 80.9788C91.285 79.5719 94.0978 78.7666 97.0966 78.7666H147.045C149.253 78.7666 151.36 79.2031 153.282 79.9944C159.242 82.4478 163.438 88.3132 163.438 95.1594V289.796Z" fill="#FC94A8"/>
<path d="M80.7041 95.1571C80.7041 94.6011 80.7322 94.051 80.786 93.509C80.786 93.5032 80.7872 93.4985 80.7872 93.4926C80.7884 93.4903 80.7884 93.4856 80.7884 93.4833C80.8586 92.7974 80.9698 92.1243 81.122 91.4665C81.122 91.463 81.1231 91.4606 81.1243 91.4571C81.1243 91.456 81.1243 91.4559 81.1243 91.4548C81.2261 91.0123 81.3467 90.5769 81.4836 90.1497C80.978 91.7287 80.7041 93.4119 80.7041 95.1594" fill="#088ED4"/>
<path d="M85.7794 289.796H80.7041V95.157C80.7041 93.4117 80.978 91.7285 81.4836 90.1495C82.7302 86.2611 85.3896 83.006 88.8578 80.9857C88.5628 81.2104 88.2761 81.4445 87.9975 81.688C89.1352 81.3684 90.3385 81.201 91.5768 81.201H96.1137C94.3919 82.2627 92.8831 83.6334 91.6623 85.2358C88.159 87.1624 85.7794 90.8869 85.7794 95.1581V289.799" fill="#AE0D4E"/>
<path d="M87.9971 81.688C88.2756 81.4445 88.5624 81.2104 88.8574 80.9857C91.278 79.5752 94.0942 78.7676 97.0977 78.7676H104.712C101.559 78.7676 98.6124 79.6583 96.1133 81.201H91.5765C90.3381 81.201 89.1348 81.3684 87.9971 81.688Z" fill="#B06798"/>
<path d="M76.1958 134.774C75.8365 134.774 75.4842 134.741 75.1436 134.679V123.195C75.4842 123.132 75.8365 123.099 76.1958 123.099C76.5165 123.099 76.8361 123.126 77.1509 123.178V134.697C76.8361 134.748 76.5165 134.774 76.1958 134.774Z" fill="#AE0D4E"/>
<path d="M155.826 289.796H153.519V94.7203C153.519 91.4008 150.828 88.7157 147.514 88.7157H92.0148C91.7713 88.7157 91.5278 88.7309 91.2891 88.7613C91.3804 88.6185 91.4752 88.478 91.5735 88.3411C93.0835 87.1167 95.0066 86.3817 97.0994 86.3817H147.045C151.887 86.3817 155.826 90.3204 155.826 95.1581V289.799" fill="#FC94A8"/>
<path d="M147.046 75.213H97.0969C86.0989 75.213 77.1504 84.1615 77.1504 95.1595V289.796C77.1504 291.759 78.7423 293.35 80.704 293.35H163.439C165.402 293.35 166.992 291.759 166.992 289.796V95.1595C166.992 84.1615 158.044 75.213 147.046 75.213ZM147.046 78.7666C156.1 78.7666 163.439 86.1057 163.439 95.1595V289.796H80.704V95.1595C80.704 86.1057 88.0431 78.7666 97.0969 78.7666H147.046Z" fill="#211414"/>
<path d="M147.045 83.8442H97.0992C90.8581 83.8442 85.7793 88.9195 85.7793 95.1583V289.799C85.7793 291.2 86.9159 292.336 88.3181 292.336H155.826C157.227 292.336 158.363 291.2 158.363 289.799V95.1583C158.363 88.9195 153.286 83.8442 147.045 83.8442ZM147.045 86.3819C151.887 86.3819 155.826 90.3206 155.826 95.1583V289.799H88.3181V95.1583C88.3181 90.3206 92.2557 86.3819 97.0992 86.3819H147.045Z" fill="#211414"/>
<path d="M139.582 164.341H104.56C102.176 164.341 100.245 162.408 100.245 160.026V100.132C100.245 97.7486 102.176 95.8173 104.56 95.8173H139.582C141.965 95.8173 143.897 97.7486 143.897 100.132V160.026C143.897 162.408 141.965 164.341 139.582 164.341Z" fill="#E2E3F2"/>
<path d="M104.56 96.097C102.336 96.097 100.525 97.9078 100.525 100.132V160.026C100.525 162.25 102.336 164.061 104.56 164.061H139.583C141.807 164.061 143.617 162.25 143.617 160.026V100.132C143.617 97.9078 141.807 96.097 139.583 96.097H104.56ZM139.583 164.621H104.56C102.027 164.621 99.9658 162.559 99.9658 160.026V100.132C99.9658 97.5988 102.027 95.5375 104.56 95.5375H139.583C142.117 95.5375 144.177 97.5988 144.177 100.132V160.026C144.177 162.559 142.117 164.621 139.583 164.621Z" fill="#211414"/>
<path d="M135.572 168.492H100.55C98.1644 168.492 96.2354 166.559 96.2354 164.178V104.283C96.2354 102.097 97.86 100.292 99.9669 100.008C99.9657 100.049 99.9658 100.091 99.9658 100.132V160.026C99.9658 162.559 102.027 164.62 104.56 164.62H139.583C139.677 164.62 139.771 164.618 139.863 164.612C139.649 166.788 137.807 168.492 135.572 168.492Z" fill="#AE0D4E"/>
<path d="M139.583 164.621H104.56C102.027 164.621 99.9658 162.559 99.9658 160.026V100.132C99.9658 100.091 99.9658 100.049 99.967 100.008C100.061 99.996 100.154 99.9866 100.248 99.9796C100.248 100.004 100.247 100.028 100.247 100.052C100.246 100.079 100.246 100.105 100.246 100.132V160.026C100.246 162.406 102.179 164.341 104.56 164.341H139.583C139.682 164.341 139.78 164.337 139.878 164.33C139.879 164.33 139.881 164.33 139.882 164.33C139.879 164.425 139.873 164.519 139.864 164.612C139.771 164.618 139.677 164.621 139.583 164.621Z" fill="#211414"/>
<path d="M139.583 164.061H104.56C102.336 164.061 100.525 162.25 100.525 160.026V100.132C100.525 99.6413 100.613 99.1707 100.775 98.7365H104.306V147.6C104.306 154.752 110.102 160.548 117.26 160.548H140.537V163.946C140.231 164.021 139.912 164.061 139.583 164.061Z" fill="#9E9ECB"/>
<path d="M139.582 164.341H104.56C102.179 164.341 100.245 162.406 100.245 160.026V100.132C100.245 100.105 100.245 100.078 100.246 100.052C100.246 100.028 100.247 100.004 100.25 99.9796C100.25 99.9796 100.249 99.9796 100.247 99.9796C100.279 99.0924 100.579 98.273 101.068 97.6C100.819 97.9441 100.619 98.3257 100.479 98.7365H100.774C100.613 99.1708 100.525 99.6413 100.525 100.132V160.026C100.525 162.25 102.336 164.061 104.56 164.061H139.582C139.911 164.061 140.231 164.021 140.536 163.946V164.234C140.94 164.142 141.323 163.994 141.674 163.799C141.135 164.099 140.526 164.287 139.877 164.33C139.778 164.335 139.683 164.341 139.582 164.341Z" fill="#211414"/>
<path d="M139.582 164.341H104.56C102.179 164.341 100.245 162.406 100.245 160.026C100.245 162.406 102.179 164.341 104.56 164.341H139.582C139.683 164.341 139.778 164.335 139.877 164.33C139.78 164.337 139.682 164.341 139.582 164.341ZM100.246 100.052C100.246 100.028 100.247 100.004 100.247 99.9796C100.249 99.9796 100.25 99.9796 100.25 99.9796C100.247 100.004 100.246 100.028 100.246 100.052Z" fill="#211414"/>
<path d="M143.81 160.891C143.833 160.776 143.852 160.661 143.866 160.543C143.852 160.661 143.833 160.776 143.81 160.891ZM102.993 96.1108C102.998 96.1096 103.003 96.1073 103.006 96.1061C103.003 96.1073 102.998 96.1096 102.993 96.1108ZM103.007 96.105C103.423 95.9446 103.87 95.8463 104.336 95.8229C103.87 95.8463 103.423 95.9446 103.007 96.105Z" fill="#211414"/>
<path d="M141.675 163.799C142.758 163.196 143.555 162.141 143.811 160.891C143.556 162.14 142.759 163.196 141.675 163.799Z" fill="#D9D9EA"/>
<path d="M143.583 160.548H140.536V101.461C140.536 99.9596 139.313 98.7364 137.805 98.7364H104.306V96.3404C104.306 96.262 104.308 96.1835 104.313 96.1051C104.395 96.1004 104.477 96.0969 104.56 96.0969H139.582C141.806 96.0969 143.617 97.9077 143.617 100.132V160.026C143.617 160.203 143.605 160.377 143.583 160.548Z" fill="#FBFBFD"/>
<path d="M143.643 160.548H143.583C143.606 160.377 143.617 160.203 143.617 160.026V100.132C143.617 97.9077 141.807 96.0969 139.583 96.0969H104.56C104.477 96.0969 104.395 96.1004 104.313 96.1051C104.318 96.0091 104.326 95.9143 104.336 95.823C104.41 95.8195 104.485 95.8172 104.56 95.8172H139.583C141.963 95.8172 143.897 97.7509 143.897 100.132V160.026C143.897 160.201 143.886 160.374 143.867 160.544C143.791 160.548 143.719 160.548 143.643 160.548ZM101.068 97.5999C101.551 96.9362 102.218 96.4141 102.994 96.111C102.219 96.4141 101.552 96.9362 101.068 97.5999ZM103.007 96.1063C103.008 96.1063 103.008 96.1063 103.008 96.1051C103.008 96.1063 103.008 96.1063 103.007 96.1063Z" fill="#D9D9EA"/>
<path d="M140.537 163.946V160.548H143.584C143.369 162.209 142.138 163.557 140.537 163.946Z" fill="#F1F1F7"/>
<path d="M140.537 164.234V163.946C142.138 163.556 143.369 162.209 143.584 160.548H143.644C143.72 160.548 143.791 160.548 143.867 160.544C143.853 160.661 143.834 160.776 143.811 160.891C143.555 162.141 142.758 163.196 141.675 163.799C141.324 163.994 140.941 164.142 140.537 164.234Z" fill="#D9D9EA"/>
<path d="M104.306 98.7366H100.774C101.316 97.2711 102.686 96.2048 104.313 96.1053C104.308 96.1837 104.306 96.2621 104.306 96.3405V98.7366Z" fill="#F1F1F7"/>
<path d="M100.774 98.7366H100.479C100.619 98.3257 100.819 97.9441 101.068 97.6C101.552 96.9363 102.219 96.4143 102.994 96.1111C102.998 96.1099 103.003 96.1076 103.007 96.1064C103.008 96.1064 103.008 96.1064 103.008 96.1053C103.423 95.9449 103.87 95.8466 104.336 95.8232C104.326 95.9145 104.318 96.0093 104.313 96.1053C102.686 96.2048 101.316 97.2711 100.774 98.7366Z" fill="#D9D9EA"/>
<path d="M104.56 97.34C103.021 97.34 101.768 98.5925 101.768 100.132V160.026C101.768 161.565 103.021 162.818 104.56 162.818H139.583C141.122 162.818 142.374 161.565 142.374 160.026V100.132C142.374 98.5925 141.122 97.34 139.583 97.34H104.56ZM139.583 165.864H104.56C101.341 165.864 98.7227 163.245 98.7227 160.026V100.132C98.7227 96.9128 101.341 94.2944 104.56 94.2944H139.583C142.801 94.2944 145.42 96.9128 145.42 100.132V160.026C145.42 163.245 142.801 165.864 139.583 165.864Z" fill="#211414"/>
<path d="M132.9 63.695H111.243V73.1655H132.9V63.695Z" fill="#CBCCE1"/>
<path d="M111.524 72.8858H132.62V63.976H111.524V72.8858ZM133.18 73.4453H110.963V63.4153H133.18V73.4453Z" fill="#211414"/>
<path d="M113.019 71.389H131.123V65.4721H113.019V71.389ZM132.9 74.9426H111.244C110.262 74.9426 109.467 74.1467 109.467 73.1658V63.6952C109.467 62.7144 110.262 61.9196 111.244 61.9196H132.9C133.881 61.9196 134.676 62.7144 134.676 63.6952V73.1658C134.676 74.1467 133.881 74.9426 132.9 74.9426Z" fill="#211414"/>
<path d="M139.414 210.276H105.574C102.632 210.276 100.245 207.891 100.245 204.947V180.245C100.245 177.301 102.632 174.915 105.574 174.915H139.414C142.356 174.915 144.743 177.301 144.743 180.245V204.947C144.743 207.891 142.356 210.276 139.414 210.276Z" fill="#E2E3F2"/>
<path d="M105.575 175.195C102.79 175.195 100.525 177.461 100.525 180.244V204.947C100.525 207.731 102.79 209.996 105.575 209.996H139.413C142.198 209.996 144.462 207.731 144.462 204.947V180.244C144.462 177.461 142.198 175.195 139.413 175.195H105.575ZM139.413 210.556H105.575C102.482 210.556 99.9658 208.039 99.9658 204.947V180.244C99.9658 177.152 102.482 174.635 105.575 174.635H139.413C142.507 174.635 145.023 177.152 145.023 180.244V204.947C145.023 208.039 142.507 210.556 139.413 210.556Z" fill="#211414"/>
<path d="M135.1 213.956H101.26C98.3162 213.956 95.9307 211.571 95.9307 208.627V183.923C95.9307 181.351 97.7543 179.204 100.181 178.703C100.04 179.193 99.9654 179.711 99.9654 180.244V204.947C99.9654 208.039 102.482 210.556 105.574 210.556H139.413C139.641 210.556 139.864 210.543 140.084 210.516C139.325 212.529 137.382 213.956 135.1 213.956Z" fill="#AE0D4E"/>
<path d="M139.413 210.556H105.575C102.482 210.556 99.9658 208.039 99.9658 204.947V180.244C99.9658 179.711 100.041 179.193 100.181 178.703C100.282 178.682 100.385 178.664 100.488 178.649C100.335 179.141 100.25 179.661 100.246 180.203C100.246 180.205 100.246 180.205 100.246 180.206C100.246 180.209 100.246 180.213 100.246 180.215C100.246 180.217 100.246 180.22 100.246 180.223C100.246 180.224 100.246 180.227 100.246 180.229C100.246 180.234 100.246 180.238 100.246 180.243V204.947C100.246 207.89 102.631 210.276 105.575 210.276H139.415C139.42 210.276 139.425 210.276 139.43 210.276C139.433 210.276 139.435 210.276 139.437 210.276C139.439 210.276 139.441 210.276 139.442 210.276C139.695 210.275 139.943 210.256 140.187 210.221C140.156 210.32 140.122 210.419 140.085 210.516C139.865 210.543 139.641 210.556 139.413 210.556Z" fill="#211414"/>
<path d="M139.413 209.996H105.575C102.79 209.996 100.525 207.731 100.525 204.947V180.244C100.525 179.457 100.707 178.71 101.03 178.045H104.464V194.938C104.464 200.606 109.057 205.201 114.727 205.201H141.34V209.615C140.745 209.86 140.095 209.996 139.413 209.996Z" fill="#9E9ECB"/>
<path d="M139.415 210.276H105.574C102.631 210.276 100.245 207.891 100.245 204.947V180.243C100.245 180.239 100.245 180.234 100.245 180.229C100.245 180.227 100.245 180.225 100.245 180.223C100.245 180.221 100.245 180.218 100.245 180.215C100.245 180.213 100.245 180.209 100.245 180.206C100.245 180.205 100.245 180.204 100.245 180.204C100.25 179.664 100.335 179.14 100.489 178.649C100.489 178.649 100.489 178.649 100.487 178.649C100.709 177.943 101.073 177.301 101.546 176.755C101.213 177.142 100.935 177.575 100.723 178.045H101.029C100.706 178.71 100.525 179.457 100.525 180.245V204.947C100.525 207.731 102.79 209.996 105.574 209.996H139.412C140.095 209.996 140.744 209.861 141.339 209.615V209.916C141.833 209.726 142.291 209.464 142.702 209.143C141.988 209.704 141.127 210.085 140.186 210.221C140.186 210.221 140.186 210.221 140.186 210.22C139.941 210.255 139.696 210.275 139.442 210.276C139.441 210.276 139.438 210.276 139.437 210.276C139.435 210.276 139.432 210.276 139.43 210.276C139.424 210.276 139.419 210.276 139.415 210.276Z" fill="#211414"/>
<path d="M139.415 210.276H105.574C102.631 210.276 100.245 207.891 100.245 204.947C100.245 207.891 102.631 210.276 105.574 210.276H139.415ZM139.43 210.276C139.432 210.276 139.435 210.276 139.437 210.276C139.435 210.276 139.432 210.276 139.43 210.276ZM139.442 210.276C139.696 210.275 139.942 210.255 140.186 210.22C140.186 210.221 140.186 210.221 140.186 210.221C139.943 210.256 139.695 210.275 139.442 210.276ZM100.245 180.229C100.245 180.227 100.245 180.225 100.245 180.223C100.245 180.225 100.245 180.227 100.245 180.229ZM100.245 180.215C100.245 180.213 100.245 180.209 100.245 180.206C100.245 180.209 100.245 180.213 100.245 180.215ZM100.245 180.204C100.25 179.662 100.334 179.141 100.487 178.649C100.489 178.649 100.489 178.649 100.489 178.649C100.335 179.14 100.25 179.664 100.245 180.204Z" fill="#211414"/>
<path d="M143.634 205.201H141.339V180.233C141.339 179.025 140.36 178.045 139.152 178.045H104.464V175.318C104.821 175.237 105.193 175.195 105.575 175.195H139.413C142.197 175.195 144.462 177.461 144.462 180.244V204.947C144.462 205.01 144.461 205.073 144.459 205.135C144.19 205.178 143.916 205.201 143.634 205.201Z" fill="#FBFBFD"/>
<path d="M142.702 209.143C143.911 208.195 144.699 206.733 144.74 205.084C144.646 205.104 144.554 205.121 144.459 205.135C144.461 205.073 144.462 205.01 144.462 204.947V180.245C144.462 177.461 142.197 175.195 139.413 175.195H105.575C105.193 175.195 104.821 175.237 104.464 175.318V175.167C104.464 175.121 104.464 175.076 104.469 175.03C103.312 175.273 102.293 175.894 101.546 176.755C102.521 175.627 103.963 174.913 105.575 174.913H139.415C142.359 174.913 144.744 177.3 144.744 180.243V204.947C144.744 206.65 143.946 208.169 142.702 209.143Z" fill="#D9D9EA"/>
<path d="M141.34 209.615V205.201H143.634C143.916 205.201 144.19 205.179 144.459 205.135C144.386 207.157 143.117 208.878 141.34 209.615Z" fill="#F1F1F7"/>
<path d="M141.34 209.916V209.615C143.117 208.878 144.385 207.157 144.459 205.135C144.554 205.121 144.647 205.104 144.74 205.084C144.699 206.733 143.911 208.195 142.702 209.143C142.291 209.464 141.834 209.726 141.34 209.916Z" fill="#D9D9EA"/>
<path d="M104.464 178.045H101.03C101.693 176.682 102.951 175.659 104.464 175.318V178.045Z" fill="#F1F1F7"/>
<path d="M101.03 178.045H100.724C100.935 177.574 101.214 177.141 101.547 176.755C102.293 175.894 103.313 175.273 104.469 175.03C104.465 175.075 104.465 175.121 104.465 175.167V175.318C102.951 175.659 101.693 176.682 101.03 178.045Z" fill="#D9D9EA"/>
<path d="M105.575 176.438C103.476 176.438 101.768 178.146 101.768 180.244V204.947C101.768 207.045 103.476 208.753 105.575 208.753H139.413C141.513 208.753 143.221 207.045 143.221 204.947V180.244C143.221 178.146 141.513 176.438 139.413 176.438H105.575ZM139.413 211.799H105.575C101.796 211.799 98.7227 208.725 98.7227 204.947V180.244C98.7227 176.466 101.796 173.392 105.575 173.392H139.413C143.191 173.392 146.265 176.466 146.265 180.244V204.947C146.265 208.725 143.191 211.799 139.413 211.799Z" fill="#211414"/>
<path d="M13.2659 307.813C22.2378 307.114 31.2097 306.747 40.1816 306.472C49.1535 306.21 58.1254 306.065 67.0973 306.024C76.068 306.002 85.0411 306.031 94.013 306.103L107.47 306.159C111.957 306.185 116.442 306.175 120.927 306.157L147.844 306.042L161.302 306C165.787 306.002 170.274 305.972 174.759 306.002C179.245 306.026 183.731 306.052 188.217 306.113C192.703 306.15 197.189 306.241 201.675 306.338C210.646 306.589 219.618 306.977 228.59 307.813C228.771 307.83 228.904 307.99 228.886 308.17C228.872 308.33 228.745 308.452 228.59 308.466C219.618 309.303 210.646 309.691 201.675 309.942C197.189 310.038 192.703 310.129 188.217 310.166C183.731 310.226 179.245 310.254 174.759 310.278C170.274 310.308 165.787 310.277 161.302 310.28L147.844 310.238L120.927 310.122C116.442 310.104 111.957 310.094 107.47 310.12L94.013 310.176C85.0411 310.247 76.068 310.277 67.0973 310.256C58.1254 310.214 49.1535 310.07 40.1816 309.809C31.2097 309.532 22.2378 309.165 13.2659 308.466C13.0856 308.452 12.9498 308.295 12.9639 308.114C12.9768 307.951 13.1067 307.825 13.2659 307.813Z" fill="#211414"/>
<path d="M76.1954 137.82C71.2969 137.82 67.3125 133.835 67.3125 128.937C67.3125 124.039 71.2969 120.054 76.1954 120.054C77.1248 120.054 78.0448 120.199 78.9297 120.483C79.7303 120.74 80.1704 121.598 79.9129 122.398C79.6554 123.199 78.7963 123.64 77.998 123.383C77.4139 123.194 76.8076 123.099 76.1954 123.099C72.9765 123.099 70.357 125.718 70.357 128.937C70.357 132.156 72.9765 134.774 76.1954 134.774C76.8088 134.774 77.4151 134.679 77.998 134.492C78.7986 134.236 79.6554 134.674 79.9129 135.476C80.1704 136.276 79.7303 137.134 78.9297 137.391C78.0448 137.676 77.126 137.82 76.1954 137.82Z" fill="#211414"/>
<path d="M64.2516 130.079L62.6023 135.028L67.0432 136.297L66.0284 142.006H59.5567V154.315L62.4747 155.712V160.548H52.831V144.713L50.9277 141.754V136.297H55.2422L62.4747 120.689L69.5352 125.8L68.8352 130.587L64.2516 130.079Z" fill="#E2E3F2"/>
<path d="M53.1102 160.269H62.1945V155.889L59.2764 154.492V141.727H65.7926L66.722 136.497L62.2424 135.216L64.0567 129.776L68.5959 130.278L69.2327 125.927L62.5854 121.115L55.4208 136.577H51.207V141.671L53.1102 144.63V160.269ZM62.754 160.829H52.5507V144.795L50.6475 141.836V136.017H55.0626L62.363 120.262L69.8367 125.673L69.0723 130.895L64.4453 130.382L62.96 134.839L67.3622 136.097L66.262 142.287H59.8359V154.139L62.754 155.535V160.829Z" fill="#211414"/>
<path d="M60.9515 159.025H59.6827V156.6L56.7646 155.204V142.895H58.0335V154.315C58.0335 154.902 58.3706 155.437 58.8985 155.689L60.9515 156.67V159.025Z" fill="#FBFBFD"/>
<path d="M64.7524 140.484H63.665L64.2514 137.185L59.8105 135.916L61.4598 130.967L62.3178 131.063L61.1566 134.547C61.0255 134.94 61.0607 135.371 61.255 135.738C61.4481 136.106 61.784 136.378 62.1832 136.492L65.3037 137.384L64.7524 140.484Z" fill="#FBFBFD"/>
<path d="M67.5406 128.911L66.4369 128.789L66.7435 126.688L62.7217 123.776L63.0787 123.006L66.8969 125.77C66.9097 125.78 66.9238 125.789 66.9366 125.799L67.8953 126.493L67.5406 128.911Z" fill="#FBFBFD"/>
<path d="M54.3542 159.026H60.9523V156.671L58.8992 155.69C58.3713 155.437 58.0342 154.902 58.0342 154.316V142.007C58.0342 141.166 58.7166 140.484 59.557 140.484H64.7529L65.3042 137.384L62.1837 136.492C61.7845 136.378 61.4486 136.106 61.2555 135.739C61.0611 135.371 61.026 134.94 61.1571 134.547L62.8075 129.598C63.0346 128.917 63.7053 128.485 64.4193 128.566L67.5411 128.911L67.8957 126.493L63.0791 123.006L56.6238 136.937C56.3745 137.476 55.836 137.82 55.2426 137.82H52.4509V141.305L54.1119 143.889C54.2699 144.135 54.3542 144.42 54.3542 144.713V159.026ZM62.4751 162.073H52.8313C51.9909 162.073 51.3097 161.39 51.3097 160.549V145.16L49.6476 142.577C49.4896 142.332 49.4053 142.045 49.4053 141.754V136.297C49.4053 135.455 50.0865 134.774 50.9281 134.774H54.2699L61.0939 120.049C61.2847 119.636 61.6499 119.33 62.0912 119.216C62.529 119.101 62.9995 119.189 63.3682 119.456L70.4287 124.567C70.8875 124.9 71.1251 125.459 71.042 126.021L70.3421 130.807C70.2227 131.618 69.4782 132.191 68.6682 132.101L65.3077 131.728L64.5492 134L67.4615 134.833C68.2118 135.047 68.6788 135.795 68.543 136.564L67.527 142.273C67.3983 143 66.7674 143.529 66.0288 143.529H61.0799V153.356L63.1329 154.338C63.6608 154.591 63.9979 155.126 63.9979 155.712V160.549C63.9979 161.39 63.3155 162.073 62.4751 162.073Z" fill="#211414"/>
<path d="M67.811 126.075C67.6459 126.075 67.4797 126.048 67.3158 125.992C66.5211 125.719 66.0974 124.853 66.3701 124.057C70.3194 112.553 75.3783 106.521 76.9409 104.844V101.801C72.1289 107.272 68.2452 113.957 65.1247 122.121C64.8238 122.906 63.9448 123.301 63.1582 122.999C62.3728 122.699 61.9795 121.819 62.2792 121.033C66.102 111.035 71.0462 103.138 77.395 96.8894C77.8328 96.4599 78.4848 96.3334 79.0513 96.5699C79.6178 96.8075 79.9854 97.3611 79.9854 97.9745V105.461C79.9854 105.878 79.8156 106.277 79.5136 106.564C79.4575 106.617 73.6155 112.332 69.2507 125.046C69.0341 125.677 68.443 126.075 67.811 126.075Z" fill="#211414"/>
<path d="M58.3211 285.239C56.3078 285.239 54.3215 284.757 52.4545 283.785C46.2427 280.546 42.6797 272.624 42.6797 262.05C42.6797 261.977 42.6832 261.906 42.689 261.834C43.9192 247.397 45.8295 238.161 48.0429 227.466C50.1112 217.473 52.4545 206.147 54.8833 187.756C56.0433 178.973 54.8787 160.896 54.867 160.715L59.9317 160.383C59.982 161.144 61.1408 179.142 59.9153 188.42C57.462 206.994 55.0987 218.417 53.014 228.495C50.8393 239.004 48.9606 248.083 47.7562 262.156C47.7772 270.594 50.4085 276.994 54.8014 279.283C57.5732 280.727 60.737 280.377 63.7148 278.297C69.5333 274.232 74.8661 263.08 72.4093 243.964C66.4725 217.524 62.8264 197.261 62.9949 178.023C63.4865 142.271 68.3968 133.705 68.9551 132.846L73.2111 135.613C73.1947 135.644 68.5408 143.926 68.0702 178.08C67.9063 196.846 71.5138 216.822 77.3874 242.966C77.4038 243.042 77.4178 243.118 77.4272 243.195C79.794 261.401 75.7534 276.079 66.6211 282.459C63.9793 284.304 61.1256 285.239 58.3211 285.239Z" fill="#211414"/>
<path d="M78.4638 149.875V172.842L66.4287 165.442V158.032H67.4166C71.1622 158.032 74.7709 156.324 76.9316 153.263C77.6293 152.274 78.1794 151.147 78.4638 149.875Z" fill="#211414"/>
<path d="M106.94 180.963C106.94 181.647 106.385 182.2 105.703 182.2C105.019 182.2 104.466 181.647 104.466 180.963C104.466 180.281 105.019 179.726 105.703 179.726C106.385 179.726 106.94 180.281 106.94 180.963Z" fill="#211414"/>
<path d="M139.679 180.963C139.679 181.647 139.124 182.2 138.441 182.2C137.758 182.2 137.204 181.647 137.204 180.963C137.204 180.281 137.758 179.726 138.441 179.726C139.124 179.726 139.679 180.281 139.679 180.963Z" fill="#211414"/>
<path d="M106.94 205.073C106.94 205.757 106.385 206.31 105.703 206.31C105.019 206.31 104.466 205.757 104.466 205.073C104.466 204.391 105.019 203.836 105.703 203.836C106.385 203.836 106.94 204.391 106.94 205.073Z" fill="#211414"/>
<path d="M139.679 205.073C139.679 205.757 139.124 206.31 138.441 206.31C137.758 206.31 137.204 205.757 137.204 205.073C137.204 204.391 137.758 203.836 138.441 203.836C139.124 203.836 139.679 204.391 139.679 205.073Z" fill="#211414"/>
<path d="M129.347 135.662H114.797C113.792 135.662 112.978 134.848 112.978 133.843V130.46C112.978 129.455 113.792 128.641 114.797 128.641H129.347C130.351 128.641 131.166 129.455 131.166 130.46V133.843C131.166 134.848 130.351 135.662 129.347 135.662Z" fill="#211414"/>
<path d="M129.347 149.452H114.797C113.792 149.452 112.978 148.637 112.978 147.633V144.249C112.978 143.245 113.792 142.43 114.797 142.43H129.347C130.351 142.43 131.166 143.245 131.166 144.249V147.633C131.166 148.637 130.351 149.452 129.347 149.452Z" fill="#211414"/>
<path d="M107.246 135.662H108.345C108.918 135.662 109.382 135.199 109.382 134.626V129.678C109.382 129.105 108.918 128.641 108.345 128.641H107.246C106.674 128.641 106.209 129.105 106.209 129.678V134.626C106.209 135.199 106.674 135.662 107.246 135.662Z" fill="#211414"/>
<path d="M127.014 111.263C127.014 113.993 124.8 116.205 122.072 116.205C119.342 116.205 117.129 113.993 117.129 111.263C117.129 108.534 119.342 106.321 122.072 106.321C124.8 106.321 127.014 108.534 127.014 111.263Z" fill="#211414"/>
<path d="M153.602 35.0833C153.602 52.4968 139.486 66.6143 122.072 66.6143C104.657 66.6143 90.541 52.4968 90.541 35.0833C90.541 17.6697 104.657 3.5523 122.072 3.5523C139.486 3.5523 153.602 17.6697 153.602 35.0833Z" fill="#F9123E"/>
<path d="M148.875 51.6987C151.872 46.8739 153.602 41.1818 153.602 35.0835C153.602 17.6699 139.486 3.55247 122.073 3.55247C113.593 3.55247 105.896 6.90011 100.23 12.3441C99.4573 13.0019 98.7164 13.6961 98.0117 14.4253C103.767 6.80062 112.904 1.87281 123.193 1.87281C140.607 1.87281 154.723 15.9879 154.723 33.4038C154.723 40.2255 152.558 46.5392 148.875 51.6987Z" fill="#91E8FF"/>
<path d="M145.819 55.3611C149.814 50.0774 152.185 43.4934 152.185 36.3627C152.185 18.9526 138.07 4.83168 120.654 4.83168C112.86 4.83168 105.731 7.65728 100.229 12.344C105.896 6.89997 113.593 3.55234 122.072 3.55234C139.486 3.55234 153.602 17.6698 153.602 35.0833C153.602 41.1816 151.872 46.8738 148.874 51.6986C147.949 52.9955 146.927 54.2198 145.819 55.3611Z" fill="#FC94A8"/>
<path d="M146.689 35.0834C146.689 48.68 135.667 59.7014 122.072 59.7014C108.476 59.7014 97.4541 48.68 97.4541 35.0834C97.4541 21.488 108.476 10.4654 122.072 10.4654C135.667 10.4654 146.689 21.488 146.689 35.0834Z" fill="#E2E3F2"/>
<path d="M122.072 10.7463C108.652 10.7463 97.7333 21.6636 97.7333 35.0834C97.7333 48.5032 108.652 59.4205 122.072 59.4205C135.49 59.4205 146.409 48.5032 146.409 35.0834C146.409 21.6636 135.49 10.7463 122.072 10.7463ZM122.072 59.9812C108.343 59.9812 97.1738 48.8122 97.1738 35.0834C97.1738 21.3546 108.343 10.1857 122.072 10.1857C135.8 10.1857 146.969 21.3546 146.969 35.0834C146.969 48.8122 135.8 59.9812 122.072 59.9812Z" fill="#211414"/>
<path d="M119.366 61.6045C105.768 61.6045 94.749 50.5795 94.749 36.9865C94.749 28.7848 98.758 21.523 104.924 17.047C100.153 21.5862 97.1743 27.9935 97.1743 35.0832C97.1743 48.8121 108.343 59.981 122.072 59.981C126.053 59.981 129.82 59.0411 133.161 57.372C129.227 60.0454 124.48 61.6045 119.366 61.6045Z" fill="#FC94A8"/>
<path d="M122.072 59.9812C108.343 59.9812 97.1738 48.8122 97.1738 35.0834C97.1738 27.9937 100.153 21.5864 104.924 17.0472C105.466 16.6539 106.025 16.2816 106.6 15.9328C105.436 16.8727 104.362 17.9168 103.387 19.0487C103.392 19.0452 103.395 19.0429 103.399 19.0393C99.6939 23.348 97.4536 28.9547 97.4536 35.0834C97.4536 48.6811 108.473 59.7014 122.072 59.7014C126.726 59.7014 131.081 58.4069 134.791 56.163C134.265 56.5879 133.722 56.9917 133.161 57.3721C129.819 59.0413 126.052 59.9812 122.072 59.9812Z" fill="#8C8CBF"/>
<path d="M139.324 52.2336C142.301 48.1603 144.064 43.1412 144.064 37.7077C144.064 24.11 133.045 13.0897 119.447 13.0897C114.014 13.0897 108.993 14.8536 104.919 17.8326C109.322 13.4549 115.387 10.7463 122.071 10.7463C135.49 10.7463 146.409 21.6636 146.409 35.0834C146.409 41.767 143.7 47.8302 139.324 52.2336Z" fill="#9E9ECB"/>
<path d="M138.105 53.7671C138.531 53.2731 138.937 52.7616 139.323 52.2337C143.7 47.8303 146.409 41.7671 146.409 35.0835C146.409 21.6637 135.49 10.7465 122.071 10.7465C115.387 10.7465 109.322 13.455 104.919 17.8327C104.397 18.2154 103.89 18.6181 103.398 19.0395C104.37 17.9099 105.442 16.8694 106.6 15.933C110.828 12.5151 116.211 10.4667 122.071 10.4667C135.669 10.4667 146.688 21.4858 146.688 35.0835C146.688 42.5548 143.359 49.2501 138.105 53.7671Z" fill="#211414"/>
<path d="M103.388 19.0488C104.363 17.917 105.437 16.8729 106.601 15.933C105.443 16.8693 104.371 17.9099 103.399 19.0395C103.396 19.043 103.392 19.0453 103.388 19.0488Z" fill="#6262A8"/>
<path d="M122.072 11.7354C109.198 11.7354 98.7232 22.209 98.7232 35.0834C98.7232 47.9577 109.198 58.4326 122.072 58.4326C134.947 58.4326 145.42 47.9577 145.42 35.0834C145.42 22.209 134.947 11.7354 122.072 11.7354ZM122.072 60.9702C107.798 60.9702 96.1855 49.3576 96.1855 35.0834C96.1855 20.8103 107.798 9.19771 122.072 9.19771C136.345 9.19771 147.958 20.8103 147.958 35.0834C147.958 49.3576 136.345 60.9702 122.072 60.9702Z" fill="#211414"/>
<path d="M149.861 289.796H88.3184V188.093C91.7128 248.158 113.298 270.094 147.811 275.457C148.992 275.64 149.861 276.661 149.861 277.856V289.796Z" fill="#AE0D4E"/>
<path d="M149.861 289.799H88.3184L149.861 289.796V289.799Z" fill="#211414"/>
<path d="M149.861 289.799H88.3174V188.09L88.3186 289.799H149.861Z" fill="#211414"/>
<path d="M67.0611 122.129L65.5488 121.033C65.8824 120.193 66.2242 119.369 66.5754 118.56C67.3947 118.418 68.145 118.175 68.8227 117.832C68.2281 119.158 67.6358 120.59 67.0611 122.129Z" fill="#AAA6CB"/>
<path d="M66.6195 123.343L65.0791 122.227C65.0955 122.192 65.1107 122.157 65.1247 122.121C65.264 121.756 65.4057 121.393 65.5485 121.033L67.0607 122.129C66.9121 122.527 66.7658 122.931 66.6195 123.343Z" fill="#0C0872"/>
<path d="M67.6682 124.104L66.6194 123.343C66.7657 122.931 66.9121 122.527 67.0607 122.129C67.6354 120.59 68.2277 119.158 68.8223 117.832C69.6791 117.399 70.4212 116.807 71.0451 116.057C69.9015 118.349 68.7427 121.026 67.6682 124.104ZM65.0791 122.227L64.042 121.477C64.4177 120.507 64.7935 119.578 65.1622 118.712C65.278 118.699 65.3963 118.691 65.518 118.684C65.882 118.661 66.2343 118.619 66.575 118.56C66.2238 119.369 65.882 120.193 65.5484 121.033C65.4056 121.393 65.264 121.755 65.1247 122.121C65.1107 122.157 65.0954 122.192 65.0791 122.227Z" fill="#0C0872"/>
<path d="M73.3389 109.532C73.4337 108.34 73.4103 107.231 73.3506 106.351C74.4859 104.748 75.681 103.232 76.9405 101.801V104.844C76.2663 105.567 74.9424 107.1 73.3389 109.532Z" fill="#AAA6CB"/>
<path d="M72.6709 113.019C73.049 111.866 73.248 110.661 73.3393 109.532C74.9428 107.1 76.2667 105.567 76.9409 104.844V101.801C75.6814 103.232 74.4864 104.748 73.351 106.35C73.2913 105.453 73.1941 104.794 73.1508 104.527C74.7099 102.422 76.4001 100.448 78.1828 98.6485V105.345C77.7111 105.824 75.3806 108.295 72.6709 113.019Z" fill="#0C0872"/>
<path d="M66.5742 118.56C66.6643 118.352 66.7568 118.142 66.8481 117.935C67.7365 117.741 68.5301 117.411 69.2266 116.947C69.092 117.236 68.9562 117.532 68.8216 117.832C68.1439 118.175 67.3936 118.418 66.5742 118.56ZM72.6374 110.624C72.8224 109.366 72.8505 108.138 72.8165 107.116C72.9933 106.859 73.1712 106.603 73.3503 106.351C73.41 107.231 73.4334 108.34 73.3386 109.532C73.1103 109.877 72.8762 110.241 72.6374 110.624Z" fill="#9E9ECB"/>
<path d="M66.426 123.895L64.751 122.681C64.8844 122.555 64.9968 122.402 65.0787 122.227L66.6191 123.343C66.5547 123.525 66.4892 123.71 66.426 123.895Z" fill="#211414"/>
<path d="M67.9514 125L66.4263 123.895C66.4895 123.71 66.555 123.525 66.6194 123.343L67.6682 124.104C68.7427 121.026 69.9015 118.349 71.0451 116.058C70.4212 116.807 69.6791 117.399 68.8223 117.832C68.9569 117.532 69.0927 117.236 69.2273 116.947C69.8008 116.567 70.3077 116.095 70.7466 115.536C71.8375 114.143 72.3853 112.354 72.6381 110.624C72.8769 110.241 73.111 109.877 73.3393 109.532C73.248 110.662 73.049 111.866 72.6709 113.019C75.3806 108.295 77.7111 105.824 78.1828 105.345V98.6487C76.4001 100.448 74.7099 102.422 73.1508 104.527C73.1941 104.794 73.2913 105.453 73.351 106.351C73.1719 106.603 72.994 106.859 72.8172 107.116C72.7681 105.596 72.5843 104.533 72.5796 104.506L72.5574 104.388L72.6299 104.291C74.3635 101.939 76.2597 99.7478 78.2671 97.7755L78.7435 97.3073V105.582L78.6569 105.664C78.596 105.722 72.5585 111.584 68.0743 124.642L67.9514 125ZM64.7513 122.681L63.3643 121.677L63.4427 121.476C63.8664 120.372 64.2936 119.319 64.7103 118.345L64.7712 118.201L64.9269 118.179C65.1071 118.152 65.2932 118.135 65.484 118.125C65.9604 118.094 66.4157 118.031 66.8488 117.935C66.7575 118.142 66.6651 118.352 66.5749 118.56C66.2343 118.619 65.882 118.661 65.518 118.684C65.3962 118.691 65.278 118.699 65.1621 118.712C64.7934 119.578 64.4177 120.507 64.042 121.477L65.079 122.227C64.9971 122.402 64.8847 122.555 64.7513 122.681Z" fill="#211414"/>
<path d="M122.072 8.39233e-05C102.726 8.39233e-05 86.9873 15.7386 86.9873 35.0835C86.9873 54.4284 102.726 70.167 122.072 70.167C141.417 70.167 157.155 54.4284 157.155 35.0835C157.155 15.7386 141.417 8.39233e-05 122.072 8.39233e-05ZM122.072 3.55255C139.486 3.55255 153.603 17.67 153.603 35.0835C153.603 52.4971 139.486 66.6145 122.072 66.6145C104.657 66.6145 90.5409 52.4971 90.5409 35.0835C90.5409 17.67 104.657 3.55255 122.072 3.55255Z" fill="#211414"/>
<g clip-path="url(#clip0)">
<path d="M133.591 35.3469L122.905 16.0826C122.408 15.1867 121.119 15.1867 120.622 16.0826L109.936 35.3469C105.879 43.5202 109.587 52.0115 117.185 54.5918C118.473 55.0536 119.858 55.3234 121.311 55.3536C121.411 55.3557 121.512 55.3567 121.613 55.3567H121.613C121.664 55.3567 121.713 55.3548 121.764 55.3544C121.814 55.3549 121.864 55.3567 121.914 55.3567H121.914C122.015 55.3567 122.116 55.3556 122.217 55.3536C123.67 55.3234 125.054 55.0535 126.343 54.5918C134.006 51.9893 137.628 43.4793 133.591 35.3469Z" fill="#56544D"/>
<path d="M116.569 37.5944L121.563 16.1383C121.633 15.8419 121.791 15.6029 121.998 15.4316C121.48 15.3392 120.915 15.5558 120.622 16.0824L109.936 35.3468C105.879 43.5201 109.587 52.0115 117.185 54.5917C118.473 55.0535 119.858 55.3233 121.311 55.3535C121.411 55.3556 121.512 55.3566 121.613 55.3566C121.664 55.3566 121.713 55.3549 121.764 55.3544C121.814 55.3549 121.864 55.3566 121.914 55.3566H121.914C122.015 55.3566 122.116 55.3555 122.217 55.3535C123.67 55.3233 125.054 55.0535 126.343 54.5917C126.833 54.4253 127.306 54.2343 127.762 54.0213C120.294 53.0772 114.982 46.1684 116.569 37.5944Z" fill="#3F3E3B"/>
</g>
<defs>
<clipPath id="clip0">
<rect width="39.9461" height="39.9461" fill="white" transform="translate(101.792 15.4106)"/>
</clipPath>
</defs>
</svg>
