<svg width="125" height="125" viewBox="0 0 125 125" fill="none" xmlns="http://www.w3.org/2000/svg">
<g clip-path="url(#clip0)">
<path d="M62.5007 125C97.0184 125 125 97.0174 125 62.4998C125 27.9821 97.0184 0 62.5007 0C27.9831 0 0.000976562 27.9821 0.000976562 62.4998C0.000976562 97.0174 27.9831 125 62.5007 125Z" fill="#34ABE0"/>
<path d="M62.5 104.148C91.2597 104.148 114.574 80.8336 114.574 52.074C114.574 23.3143 91.2597 0 62.5 0C33.7403 0 10.426 23.3143 10.426 52.074C10.426 80.8336 33.7403 104.148 62.5 104.148Z" fill="#72BBE8"/>
<path d="M92.2307 4.47609L92.8405 8.13868L81.2644 10.0662L80.6545 6.40358C80.4758 5.32911 81.2014 4.31324 82.2758 4.13453L89.9628 2.85475C91.0361 2.67579 92.0519 3.40162 92.2307 4.47609Z" fill="#D6D6D6"/>
<path d="M92.2307 4.47614L92.8405 8.13874L85.1115 9.4256L84.5017 5.76301C84.3229 4.68854 85.0485 3.67267 86.123 3.49396L89.9628 2.85456C91.0361 2.67585 92.0519 3.40168 92.2307 4.47614Z" fill="#E8E8E8"/>
<path d="M100.891 8.47513L100.971 8.95389L73.8372 13.472L73.7573 12.9932C73.5186 11.5594 74.4878 10.2032 75.9214 9.96438L97.8618 6.31106C99.2962 6.07229 100.652 7.04104 100.891 8.47513Z" fill="#D6D6D6"/>
<path d="M100.891 8.47507L100.971 8.95383L81.0925 12.2639L81.0127 11.7851C80.7739 10.3513 81.7432 8.99509 83.177 8.75632L97.8621 6.31125C99.2962 6.07224 100.652 7.04099 100.891 8.47507Z" fill="#E8E8E8"/>
<path d="M104.455 11.1514L112.278 58.1355C109.765 59.3508 107.038 60.2327 104.143 60.7146C98.2449 61.6968 92.4627 60.8835 87.3548 58.6726C83.4229 56.9724 79.8907 54.4433 77.0122 51.2688L71.253 16.6799C70.9341 14.7649 72.2051 12.9519 74.1018 12.5913C74.1292 12.5842 74.157 12.5796 74.1848 12.5749L100.351 8.21777C102.294 7.89428 104.132 9.20849 104.455 11.1514Z" fill="#EF4152"/>
<path d="M104.455 11.1514L112.278 58.1355C109.765 59.3508 107.038 60.2327 104.143 60.7146C98.2449 61.6968 92.4627 60.8835 87.3548 58.6726L80.117 15.2039C79.7935 13.261 81.106 11.4226 83.0489 11.0991L100.351 8.21827C102.294 7.89429 104.132 9.2085 104.455 11.1514Z" fill="#FF525D"/>
<path d="M104.933 55.0388C103.468 55.2826 102.082 54.2927 101.838 52.8273L95.8143 16.6479C95.5704 15.1826 96.5604 13.7968 98.0257 13.5529C99.491 13.309 100.877 14.299 101.121 15.7643L107.145 51.9438C107.389 53.4094 106.399 54.7949 104.933 55.0388Z" fill="#FF6E7C"/>
<path d="M90.6961 24.9368L88.7364 25.263C88.0787 25.3724 87.4569 24.928 87.347 24.2703L86.097 16.7633C85.9876 16.1055 86.4319 15.4837 87.0897 15.3741L89.0494 15.0479C89.7071 14.9385 90.3289 15.3829 90.4388 16.0406L91.6888 23.5479C91.7982 24.2054 91.3538 24.8272 90.6961 24.9368Z" fill="#EF4152"/>
<path d="M84.1116 21.9583L83.7855 19.9986C83.6761 19.3409 84.1204 18.7191 84.7781 18.6092L92.2852 17.3594C92.9429 17.2501 93.5648 17.6944 93.6746 18.3521L94.0008 20.3118C94.1102 20.9696 93.6658 21.5914 93.0081 21.701L85.501 22.951C84.8431 23.0606 84.2213 22.6163 84.1116 21.9583Z" fill="#EF4152"/>
<path d="M73.5042 36.9978L62.5332 83.1836C55.8455 85.3696 48.4917 85.7976 41.1448 84.0525C24.4692 80.0916 12.7915 66.1121 10.9756 50.0085L17.241 23.6331L73.5042 36.9978Z" fill="#5C5E70"/>
<path d="M71.5862 24.7137L66.8528 23.5892L68.2229 17.8214C68.4329 16.9376 69.3193 16.3915 70.2029 16.6014L71.7361 16.9657C72.6199 17.1757 73.166 18.0621 72.9563 18.9457L71.5862 24.7137Z" fill="#E8E8E8"/>
<path d="M29.2107 14.6479L24.4773 13.5234L25.8474 7.75561C26.0574 6.87182 26.9438 6.32568 27.8274 6.53564L29.3606 6.8999C30.2444 7.10986 30.7905 7.99633 30.5806 8.87988L29.2107 14.6479Z" fill="#E8E8E8"/>
<path d="M26.0774 13.9036L24.4773 13.5234L25.8474 7.75561C26.0574 6.87182 26.9438 6.32568 27.8274 6.53564L26.0774 13.9036Z" fill="#D6D6D6"/>
<path d="M68.4531 23.9694L66.853 23.5892L68.2231 17.8214C68.4331 16.9376 69.3196 16.3915 70.2031 16.6014L68.4531 23.9694Z" fill="#D6D6D6"/>
<path d="M72.9992 24.6091L65.6383 22.8606C64.9091 22.6875 64.1774 23.1382 64.0038 23.8674L63.2843 26.8965L73.2865 29.2725L74.006 26.2434C74.1793 25.5139 73.7284 24.7822 72.9992 24.6091Z" fill="#5C5560"/>
<path d="M67.7581 23.3643L65.6379 22.8606C64.9087 22.6875 64.177 23.1382 64.0034 23.8674L63.2839 26.8965L65.4041 27.4002L66.1235 24.3711C66.2971 23.6419 67.0288 23.1909 67.7581 23.3643Z" fill="#5C5E70"/>
<path d="M25.3828 13.2981L23.2627 12.7945C22.5334 12.6214 21.8018 13.072 21.6282 13.8013L20.9087 16.8303L23.0288 17.334L23.7483 14.3049C23.9214 13.5757 24.6533 13.125 25.3828 13.2981Z" fill="#279FC9"/>
<path d="M72.6372 40.6365L73.5016 36.9974L17.2413 23.6335L16.3769 27.2726L72.6372 40.6365Z" fill="#494B5B"/>
<path d="M30.6235 14.543L23.2627 12.7945C22.5334 12.6214 21.8018 13.072 21.6282 13.8013L20.9087 16.8303L30.9109 19.2063L31.6304 16.1773C31.8037 15.4483 31.3528 14.7166 30.6235 14.543Z" fill="#5C5560"/>
<path d="M25.3828 13.2981L23.2627 12.7945C22.5334 12.6214 21.8018 13.072 21.6282 13.8013L20.9087 16.8303L23.0288 17.334L23.7483 14.3049C23.9214 13.5757 24.6533 13.125 25.3828 13.2981Z" fill="#5C5E70"/>
<path d="M75.458 38.8418L14.6653 24.4008L16.2739 17.6286C16.5535 16.4516 17.7344 15.7241 18.9114 16.0036L75.4416 29.4318C76.6186 29.7114 77.3462 30.8923 77.0666 32.0693L75.458 38.8418Z" fill="#E8E8E8"/>
<path d="M26.1648 37.4677L24.4986 37.0717C23.8413 36.9157 23.1819 37.3217 23.0259 37.9792L22.2515 41.2399L18.9908 40.4655C18.3335 40.3095 17.6741 40.7155 17.5181 41.373L17.1221 43.0392C16.9661 43.6965 17.3721 44.3559 18.0296 44.5119L21.2903 45.2863L20.5159 48.5473C20.3599 49.2045 20.7659 49.8639 21.4234 50.0199L23.0896 50.4159C23.7469 50.5719 24.4063 50.1659 24.5623 49.5085L25.3367 46.2475L28.5977 47.0219C29.2549 47.1779 29.9143 46.7719 30.0703 46.1144L30.4663 44.4482C30.6223 43.7909 30.2163 43.1315 29.5589 42.9755L26.2979 42.2011L27.0723 38.9403C27.2283 38.2831 26.8221 37.6237 26.1648 37.4677Z" fill="#494B5B"/>
<path d="M53.636 49.9523L53.24 51.6185C53.084 52.2758 53.49 52.9352 54.1475 53.0912L64.7154 55.6015C65.3726 55.7575 66.032 55.3515 66.188 54.694L66.584 53.0277C66.74 52.3705 66.334 51.7111 65.6765 51.5551L55.1087 49.0448C54.4517 48.8888 53.792 49.2951 53.636 49.9523Z" fill="#494B5B"/>
<path d="M115.31 46.875L115.029 49.9846L114.399 56.949L110.249 102.801C98.7839 116.418 81.6106 125.071 62.4167 125.071C52.1082 125.071 42.3811 122.576 33.8096 118.156C26.4219 114.344 19.8911 109.104 14.5852 102.801L9.802 49.9873L9.52148 46.875H115.31Z" fill="#EDBB4C"/>
<path d="M114.482 56.8776L110.332 102.73C98.8672 116.347 81.6938 125 62.5 125C52.1914 125 42.4643 122.505 33.8928 118.084L29.5305 69.8622C28.8979 62.8878 34.3901 56.8776 41.3928 56.8776H114.482Z" fill="#FFD15C"/>
<path d="M120.016 51.5464C4.97046 51.5464 120.028 51.5464 4.98267 51.5464C3.62036 51.5464 2.51587 50.4421 2.51587 49.0796V41.4675C2.51587 40.1052 3.62012 39.0007 4.98267 39.0007H120.016C121.378 39.0007 122.482 40.105 122.482 41.4675V49.0796C122.482 50.4417 121.378 51.5464 120.016 51.5464Z" fill="#FFD15C"/>
<path d="M60.9573 106.82V117.586C55.9119 117.586 52.6395 117.559 50.5298 116.952C49.3135 116.602 48.2837 115.788 47.6409 114.698C47.6409 114.697 47.6409 114.697 47.6404 114.696C47.2378 113.582 46.6004 111.021 47.5752 109.097C48.2208 107.822 49.8729 107.785 50.3714 106.82H60.9576V106.82H60.9573Z" fill="#FCFCFC"/>
<path d="M52.1018 93.7551L57.4731 104.498L52.9001 102.03C52.9001 102.03 52.0574 103.554 50.3708 106.821C49.8723 107.785 49.3005 108.903 48.655 110.178C47.6804 112.102 47.2378 113.583 47.6401 114.697L41.9719 105.086C41.4097 104.132 41.3704 102.956 41.8694 101.967L44.2144 97.3125L39.9807 94.8447L52.1018 93.7551Z" fill="#494B5B"/>
<path d="M70.8826 98.095L80.2065 92.7119C82.7292 97.0813 84.3418 99.929 84.8711 102.059C85.1763 103.288 84.9858 104.587 84.3635 105.688C84.363 105.689 84.3628 105.689 84.3625 105.689C83.5991 106.595 81.6995 108.428 79.5459 108.546C78.1189 108.625 77.2607 107.212 76.1758 107.263L70.8826 98.095Z" fill="#FCFCFC"/>
<path d="M63.9958 112.296L70.6133 102.273L70.7627 107.467C70.7627 107.467 72.5044 107.435 76.1758 107.263C77.2607 107.212 78.5144 107.149 79.9414 107.07C82.095 106.952 83.5991 106.595 84.3625 105.689L78.8728 115.403C78.3276 116.368 77.3291 116.989 76.2231 117.052L71.0195 117.348L70.999 122.248L63.9958 112.296Z" fill="#494B5B"/>
<path d="M58.1157 94.0637L48.7917 88.6807C51.3145 84.3113 52.9744 81.491 54.5547 79.9673C55.4656 79.0889 56.686 78.6042 57.9517 78.5925C57.9521 78.5928 57.9524 78.593 57.9531 78.5928C59.1191 78.8013 61.656 79.5298 62.835 81.3359C63.6164 82.5327 62.8227 83.9819 63.4089 84.896L58.1157 94.0637Z" fill="#FCFCFC"/>
<path d="M73.8579 92.9273L61.8691 92.2078L66.2922 89.4812C66.2922 89.4812 65.3935 87.989 63.4087 84.8955C62.8223 83.9815 62.1406 82.9275 61.3591 81.7307C60.1804 79.9246 59.1189 78.8005 57.9529 78.5923L69.1106 78.4893C70.2183 78.4793 71.2559 79.0332 71.8628 79.96L74.7214 84.3181L78.9756 81.8857L73.8579 92.9273Z" fill="#494B5B"/>
<path d="M102.522 66.9803C102.522 66.9803 103.74 69.7202 103.841 69.9232C103.943 70.1261 103.92 70.1273 103.92 70.2056C103.92 70.818 103.447 71.2539 102.725 71.2539C102.411 71.2539 102.113 71.1283 101.94 70.7985L100.695 67.2847H99.39V70.5001C99.39 71.0026 98.7775 71.2539 98.1653 71.2539C97.5529 71.2539 96.9407 71.0026 96.9407 70.5001L96.9407 61.9108L96.9338 60.5291C96.9338 60.0267 97.546 59.7754 98.1585 59.7754C98.7707 59.7754 99.3831 60.0267 99.3831 60.5291L99.39 64.0375L101.331 60.2308C101.504 59.901 101.802 59.7754 102.116 59.7754C102.838 59.7754 103.356 60.2697 103.356 60.8821C103.356 60.9604 103.34 61.0704 103.278 61.1646L100.945 65.3567C102.081 65.3567 102.218 66.27 102.522 66.9803Z" fill="#FCFCFC"/>
<path d="M42.6659 70.2497C42.6659 70.2022 42.6815 70.1391 42.6976 70.0755L45.6418 60.4194C45.816 59.8653 46.5283 59.5962 47.2565 59.5962C47.9847 59.5962 48.6969 59.8653 48.871 60.4194L51.8313 70.0755C51.8472 70.1389 51.863 70.2022 51.863 70.2497C51.863 70.8354 50.9607 71.2626 50.2799 71.2626C49.8842 71.2626 49.5676 71.136 49.4726 70.8035L48.9344 68.8247H45.5943L45.0561 70.8035C44.9611 71.1358 44.6445 71.2626 44.2487 71.2626C43.5682 71.2628 42.6659 70.8354 42.6659 70.2497ZM48.4122 66.9255L47.2565 62.6831L46.1009 66.9255H48.4122Z" fill="#FCFCFC"/>
<path d="M59.3873 70.4289C59.3873 70.3814 59.403 70.3183 59.419 70.2548L62.3633 60.5986C62.5374 60.0445 63.2498 59.7754 63.978 59.7754C64.7062 59.7754 65.4183 60.0445 65.5925 60.5986L68.5528 70.2548C68.5686 70.3181 68.5844 70.3814 68.5844 70.4289C68.5844 71.0146 67.6821 71.4418 67.0014 71.4418C66.6056 71.4418 66.289 71.3152 66.194 70.9828L65.6558 69.0039H62.3158L61.7775 70.9828C61.6825 71.315 61.3659 71.4418 60.9702 71.4418C60.2897 71.442 59.3873 71.0146 59.3873 70.4289ZM65.1336 67.1047L63.978 62.8623L62.8223 67.1047H65.1336Z" fill="#FCFCFC"/>
<path d="M58.639 59.6909C59.1616 59.6909 59.3832 60.261 59.3832 60.7832C59.3832 61.3846 59.1139 61.9072 58.639 61.9072H56.4546V70.5029C56.4546 71.0095 55.8372 71.2628 55.22 71.2628C54.6028 71.2628 53.9852 71.0095 53.9852 70.5029V61.9072H51.8008C51.3259 61.9072 51.057 61.3848 51.057 60.7832C51.057 60.2608 51.2786 59.6909 51.8008 59.6909H58.639Z" fill="#FCFCFC"/>
<path fill-rule="evenodd" clip-rule="evenodd" d="M69.7379 60.5196C69.7379 60.1239 70.0387 59.7754 70.4978 59.7754H73.7745C75.9433 59.7754 77.6686 60.5827 77.6686 63.1631C77.6686 64.9359 77.3125 65.5332 75.7531 66.3765C74.9863 66.7603 74.1745 66.7721 73.2521 66.7721H72.2073V70.5872C72.2073 71.0938 71.5899 71.3471 70.9727 71.3471C70.3553 71.3471 69.7381 71.0938 69.7381 70.5872L69.7379 60.5196ZM72.2071 64.8726V61.9283V61.9281H73.7743C74.661 61.9281 75.1992 62.2922 75.1992 63.4004C75.1992 64.5085 74.661 64.8726 73.7743 64.8726H72.2071Z" fill="#FCFCFC"/>
<path d="M105.255 60.5196C105.255 59.9972 105.872 59.7754 106.49 59.7754C107.107 59.7754 107.724 59.997 107.724 60.5196V67.5721L110.154 64.0204V60.5196C110.154 60.4254 110.174 60.3409 110.211 60.2657C110.377 59.9244 110.883 59.7754 111.389 59.7754C112.006 59.7754 112.623 59.997 112.623 60.5196V70.5874C112.623 71.094 112.006 71.3473 111.389 71.3473C110.772 71.3473 110.154 71.094 110.154 70.5874V67.2677L107.649 70.8711C107.64 70.8881 107.629 70.9047 107.617 70.9209C107.414 71.2051 106.952 71.3473 106.49 71.3473C105.872 71.3473 105.255 71.094 105.255 70.5874V60.5196Z" fill="#FCFCFC"/>
<path d="M90.4125 59.7469C89.2409 59.5516 89.4992 57.8189 90.4125 58.2248L90.4125 58.2248C91.3258 58.6307 91.3258 58.6307 92.2391 58.2248C93.2539 57.7738 93.5165 59.5509 92.3406 59.7469C91.7317 59.8484 91.0214 59.8484 90.4125 59.7469Z" fill="#FCFCFC"/>
<path d="M87.801 60.5196C87.801 59.9972 88.4184 59.7754 89.0356 59.7754C89.653 59.7754 90.2702 59.997 90.2702 60.5196V67.5721L92.7003 64.0204V60.5196C92.7003 60.4254 92.7204 60.3409 92.757 60.2657C92.9231 59.9244 93.4291 59.7754 93.9349 59.7754C94.5523 59.7754 95.1695 59.997 95.1695 60.5196V70.5874C95.1695 71.094 94.5521 71.3473 93.9349 71.3473C93.3175 71.3473 92.7003 71.094 92.7003 70.5874V67.2677L90.1953 70.8711C90.1855 70.8881 90.1749 70.9047 90.1633 70.9209C89.9604 71.2051 89.4979 71.3473 89.0356 71.3473C88.4182 71.3473 87.801 71.094 87.801 70.5874V60.5196Z" fill="#FCFCFC"/>
<path d="M80.9344 64.6035H83.309C83.7839 64.6035 84.0528 65.0626 84.0528 65.5691C84.0528 65.9964 83.8312 66.5031 83.309 66.5031H80.9344V69.1943H85.1768C85.6517 69.1943 85.921 69.7009 85.921 70.2864C85.921 70.793 85.6994 71.3471 85.1768 71.3471H79.5414C79.0031 71.3471 78.4651 71.0938 78.4651 70.5872V60.5353C78.4651 60.0287 79.0031 59.7754 79.5414 59.7754H85.1768C85.6994 59.7754 85.921 60.3295 85.921 60.836C85.921 61.4218 85.6517 61.9281 85.1768 61.9281H80.9344V64.6035Z" fill="#FCFCFC"/>
<path d="M34.4238 70.6036C34.4238 70.9994 34.7879 71.3479 35.3418 71.3479H38.6189C40.7085 71.3479 42.3549 70.3664 42.3549 67.7067V67.6275C42.3549 64.9679 40.6451 63.9549 38.4606 63.9549H36.8933V61.9283V60.5353C36.8933 60.0287 36.1176 59.7754 35.5004 59.7754C34.8831 59.7754 34.424 60.0287 34.424 60.5353L34.4238 70.6036ZM36.8933 69.1948V65.8546H38.4606C39.3474 65.8546 39.8856 66.3612 39.8856 67.4378V67.6119C39.8856 68.6884 39.3474 69.195 38.4606 69.195L36.8933 69.1948Z" fill="#FCFCFC"/>
<path d="M36.8933 60.5353C36.8933 60.0287 36.1176 59.7754 35.5004 59.7754H41.1361C41.6587 59.7754 41.8804 60.3295 41.8804 60.8361C41.8804 61.4219 41.611 61.9283 41.1361 61.9283H36.8933V60.5353Z" fill="#FCFCFC"/>
</g>
<defs>
<clipPath id="clip0">
<rect width="125" height="125" fill="white"/>
</clipPath>
</defs>
</svg>
