<svg width="125" height="125" viewBox="0 0 125 125" fill="none" xmlns="http://www.w3.org/2000/svg">
<g clip-path="url(#clip0)">
<path d="M45.2585 49.5688V36.6377C45.2585 31.8769 49.1184 28.0171 53.8791 28.0171C59.3059 30.7305 65.6938 30.7305 71.1206 28.0171C75.8813 28.0171 79.7412 31.8769 79.7412 36.6377V49.5688C79.7412 51.9502 77.8123 53.8791 75.4309 53.8791H49.5688C47.1875 53.8794 45.2585 51.9504 45.2585 49.5688Z" fill="#EF2648"/>
<path d="M62.5 21.5518C68.4514 21.5518 73.2759 16.7272 73.2759 10.7759C73.2759 4.82453 68.4514 0 62.5 0C56.5486 0 51.7241 4.82453 51.7241 10.7759C51.7241 16.7272 56.5486 21.5518 62.5 21.5518Z" fill="#FFD4B0"/>
<path d="M12.9312 64.6553C11.7415 64.6553 10.7759 63.6897 10.7759 62.5C10.7564 41.7456 23.1553 22.9956 42.2586 14.8858C43.3533 14.4202 44.6206 14.929 45.0862 16.0237C45.5518 17.1184 45.043 18.3858 43.9483 18.8513C26.4353 26.2844 15.0689 43.4741 15.0862 62.5C15.0862 63.6897 14.1206 64.6553 12.9312 64.6553Z" fill="#FFDC13"/>
<path d="M112.069 64.6553C110.879 64.6553 109.914 63.6897 109.914 62.5C109.931 43.4741 98.5644 26.2844 81.0515 18.8513C79.9567 18.3858 79.448 17.1187 79.9135 16.0237C80.3791 14.929 81.6462 14.4202 82.7412 14.8858C101.845 22.9956 114.243 41.7456 114.224 62.5C114.224 63.6897 113.259 64.6553 112.069 64.6553Z" fill="#FFDC13"/>
<path d="M62.5 114.224C55.5451 114.237 48.6594 112.838 42.2585 110.114C41.1638 109.649 40.655 108.382 41.1206 107.287C41.5861 106.192 42.8532 105.683 43.9482 106.149C55.8125 111.144 69.1875 111.144 81.0517 106.149C82.1464 105.683 83.4138 106.192 83.8793 107.287C84.3449 108.381 83.8361 109.649 82.7414 110.114C76.3405 112.838 69.4548 114.237 62.5 114.224Z" fill="#FFDC13"/>
<path d="M47.4138 118.534C46.6099 118.537 45.8728 118.09 45.5 117.377L41.1897 109.129C40.638 108.075 41.0474 106.772 42.1013 106.222C42.2263 106.157 42.3599 106.104 42.4956 106.063L51.1162 103.535C52.2586 103.201 53.4568 103.856 53.7908 104.998C54.1248 106.14 53.4697 107.339 52.3274 107.673L46.2261 109.461L49.323 115.382C49.8748 116.438 49.4654 117.739 48.4114 118.289C48.1035 118.45 47.7608 118.534 47.4138 118.534Z" fill="#FFDC13"/>
<path d="M112.069 64.6552C111.498 64.6552 110.948 64.4289 110.545 64.0239L104.08 57.5583C103.252 56.7026 103.276 55.3386 104.134 54.511C104.97 53.7048 106.293 53.7048 107.127 54.511L112.069 59.4528L117.011 54.511C117.867 53.6833 119.231 53.707 120.058 54.5649C120.864 55.4011 120.864 56.7243 120.058 57.5586L113.593 64.0241C113.19 64.4289 112.64 64.6552 112.069 64.6552Z" fill="#FFDC13"/>
<path d="M38.7931 28.0173C38.4699 28.0173 38.153 27.9441 37.862 27.8017C36.7909 27.2866 36.3383 26 36.8534 24.9267L40.2133 17.9138L33.5905 14.8965C32.528 14.3599 32.1012 13.0647 32.6357 12.0022C33.142 10.9978 34.3383 10.5517 35.3793 10.9785L43.9999 14.916C45.0817 15.4138 45.5539 16.6941 45.0561 17.7759C45.0517 17.7844 45.0475 17.7932 45.0431 17.8017L40.7328 26.7954C40.3749 27.541 39.6205 28.0151 38.7931 28.0173Z" fill="#FFDC13"/>
<path d="M68.9397 2.18115C72.5215 6.90308 71.5969 13.6338 66.8772 17.2156C63.0432 20.125 57.7393 20.125 53.9053 17.2156C57.4463 21.9785 64.1768 22.97 68.9397 19.4312C73.7026 15.8923 74.6941 9.15967 71.1553 4.39673C70.5281 3.55396 69.7822 2.80615 68.9397 2.18115Z" fill="#EDC4A2"/>
<path d="M107.759 92.6724C113.71 92.6724 118.534 87.8478 118.534 81.8965C118.534 75.9451 113.71 71.1206 107.759 71.1206C101.807 71.1206 96.9827 75.9451 96.9827 81.8965C96.9827 87.8478 101.807 92.6724 107.759 92.6724Z" fill="#FFD4B0"/>
<path d="M114.198 73.3018C117.78 78.0237 116.855 84.7544 112.136 88.3362C108.302 91.2456 102.998 91.2456 99.1638 88.3362C102.705 93.0991 109.435 94.0906 114.198 90.5518C118.961 87.0129 119.953 80.2803 116.414 75.5173C115.787 74.6746 115.041 73.9268 114.198 73.3018Z" fill="#EDC4A2"/>
<path d="M17.2415 92.6724C23.1928 92.6724 28.0173 87.8478 28.0173 81.8965C28.0173 75.9451 23.1928 71.1206 17.2415 71.1206C11.2901 71.1206 6.46558 75.9451 6.46558 81.8965C6.46558 87.8478 11.2901 92.6724 17.2415 92.6724Z" fill="#FFD4B0"/>
<path d="M23.6812 73.3018C27.2629 78.0237 26.3384 84.7544 21.6187 88.3362C17.7847 91.2456 12.4807 91.2456 8.64673 88.3362C12.1877 93.0991 18.9182 94.0906 23.6812 90.5518C28.4441 87.0107 29.4355 80.2803 25.8967 75.5173C25.2693 74.6746 24.5237 73.9268 23.6812 73.3018Z" fill="#EDC4A2"/>
<path d="M45.2585 49.5688C45.2585 51.9502 47.1875 53.8792 49.5688 53.8792H75.4309C77.8123 53.8792 79.7412 51.9502 79.7412 49.5688V36.6377C79.7327 35.1377 79.3296 33.668 78.571 32.3748C70.9053 43.1616 58.4915 49.5688 45.2585 49.5688Z" fill="#B20D24"/>
<path d="M0 120.69V107.759C0 102.998 3.85986 99.1379 8.62061 99.1379C14.0474 101.851 20.4353 101.851 25.8621 99.1379C30.6228 99.1379 34.4827 102.998 34.4827 107.759V120.69C34.4827 123.071 32.5537 125 30.1724 125H4.3103C1.92896 125 0 123.071 0 120.69Z" fill="#FFA511"/>
<path d="M0 120.69C0 123.071 1.92896 125 4.3103 125H30.1724C32.5537 125 34.4827 123.071 34.4827 120.69V107.759C34.4741 106.259 34.071 104.789 33.3125 103.496C25.6465 114.282 13.2327 120.69 0 120.69Z" fill="#F08015"/>
<path d="M90.5173 120.69V107.759C90.5173 102.998 94.3772 99.1379 99.1379 99.1379C104.565 101.851 110.953 101.851 116.379 99.1379C121.14 99.1379 125 102.998 125 107.759V120.69C125 123.071 123.071 125 120.69 125H94.8276C92.446 125 90.5173 123.071 90.5173 120.69Z" fill="#4DB5FF"/>
<path d="M90.5173 120.69C90.5173 123.071 92.4463 125 94.8276 125H120.69C123.071 125 125 123.071 125 120.69V107.759C124.991 106.259 124.588 104.789 123.83 103.496C116.164 114.282 103.75 120.69 90.5173 120.69Z" fill="#3596D8"/>
</g>
<defs>
<clipPath id="clip0">
<rect width="125" height="125" fill="white"/>
</clipPath>
</defs>
</svg>
