<svg width="125" height="125" viewBox="0 0 125 125" fill="none" xmlns="http://www.w3.org/2000/svg">
<path d="M125 62.5C125 65.7219 124.755 68.8904 124.283 71.9822C123.518 77.0229 122.148 81.8623 120.253 86.4312C119.913 87.25 119.556 88.0586 119.181 88.8596C116.36 94.9233 112.592 100.459 108.066 105.275C105.827 107.661 103.401 109.87 100.814 111.88C100.38 112.219 99.939 112.551 99.4951 112.877C91.6252 118.668 82.3445 122.658 72.2681 124.24C69.0867 124.74 65.824 125 62.5 125C49.4285 125 37.2959 120.987 27.2654 114.127C21.8037 110.395 16.9644 105.816 12.9363 100.582C4.82397 90.0383 0 76.8315 0 62.5C0 27.9822 27.9822 0 62.5 0C97.0178 0 125 27.9822 125 62.5Z" fill="#FFD15C"/>
<path d="M62.5 104.148C91.2597 104.148 114.574 80.8336 114.574 52.074C114.574 23.3143 91.2597 0 62.5 0C33.7403 0 10.426 23.3143 10.426 52.074C10.426 80.8336 33.7403 104.148 62.5 104.148Z" fill="#FFDC8D"/>
<mask id="mask0" mask-type="alpha" maskUnits="userSpaceOnUse" x="0" y="0" width="125" height="125">
<path d="M125 62.5C125 65.7219 124.755 68.8904 124.283 71.9822C123.518 77.0229 122.148 81.8623 120.253 86.4312C119.913 87.25 119.556 88.0586 119.181 88.8596C116.36 94.9233 112.592 100.459 108.066 105.275C105.827 107.661 103.401 109.87 100.814 111.88C100.38 112.219 99.939 112.551 99.4951 112.877C91.6252 118.668 82.3445 122.658 72.2681 124.24C69.0867 124.74 65.824 125 62.5 125C49.4285 125 37.2959 120.987 27.2654 114.127C21.8037 110.395 16.9644 105.816 12.9363 100.582C4.82397 90.0383 0 76.8315 0 62.5C0 27.9822 27.9822 0 62.5 0C97.0178 0 125 27.9822 125 62.5Z" fill="#FFD15C"/>
</mask>
<g mask="url(#mask0)">
<path fill-rule="evenodd" clip-rule="evenodd" d="M72.4726 60.306C69.9363 60.5568 67.2341 59.3643 65.5304 56.9792C63.9451 54.7598 63.6139 52.0528 64.4324 49.8145C64.6313 49.2702 64.5697 49.3128 65.1518 49.3033C67.5323 49.2512 69.9882 50.439 71.5735 52.6585C73.2771 55.0438 73.5279 57.9872 72.4726 60.306Z" fill="#B3E59F"/>
<path d="M77.7489 52.0577C78.2269 51.5609 79.0172 51.5418 79.514 52.0151C80.0157 52.4884 80.0346 53.2785 79.5614 53.7802C75.6478 57.8783 72.6144 61.6217 70.5844 66.1836C68.5542 70.7407 67.4894 74.9383 67.4894 82.4817C67.4894 83.1725 66.931 83.7309 66.2402 83.7309C65.5494 83.7309 64.9861 83.1725 64.9861 82.4817C64.9861 74.5739 66.1266 70.0546 68.3034 65.1661C70.4802 60.2825 73.6603 56.3451 77.7489 52.0577Z" fill="#66B394"/>
<path fill-rule="evenodd" clip-rule="evenodd" d="M93.0247 40.1985C91.2831 38.3341 87.521 39.9571 85.8127 41.0928C84.1753 42.1765 84.2037 41.8311 84.0476 40.0423C83.8678 38.0311 82.7935 34.2263 80.3232 34.0039C77.8813 33.8572 75.6525 37.8655 75.345 42.9528C74.8717 50.7185 80.3802 56.9415 88.1457 57.4148C93.2377 57.7271 97.4824 55.9997 97.634 53.5578C97.7144 51.116 94.1936 49.6111 92.2487 49.1899C91.7661 49.0811 90.3227 48.9439 90.5734 48.2152C90.7155 47.8081 91.6429 46.8097 91.9694 46.341C93.0247 44.8125 94.4585 41.9069 93.0247 40.1985Z" fill="#4DB5FF"/>
<path fill-rule="evenodd" clip-rule="evenodd" d="M73.1019 57.3484C73.1065 55.7536 72.605 54.102 71.5733 52.6588C69.988 50.4392 67.5321 49.2514 65.1517 49.3035C64.5697 49.313 64.6311 49.2705 64.4323 49.8147C64.4039 49.8952 64.3755 49.9803 64.3472 50.0608C65.5113 50.6287 66.5714 51.5042 67.3996 52.6589C68.9281 54.7978 69.2877 57.3913 68.5825 59.5776C69.3491 59.9514 70.1632 60.1928 70.9819 60.2921C71.6396 59.2888 72.3448 58.3138 73.1019 57.3484Z" fill="#95D6A4"/>
<path fill-rule="evenodd" clip-rule="evenodd" d="M97.6341 53.5579C97.7146 51.116 94.1937 49.6112 92.2488 49.19C91.7662 49.0811 90.3228 48.9439 90.5736 48.2152C90.7156 47.8082 91.643 46.8097 91.9695 46.3411C93.0248 44.8126 94.4587 41.9069 93.0248 40.1986C91.9412 39.0345 90.067 39.2285 88.3966 39.8153C88.5622 39.9194 88.7136 40.0472 88.8509 40.1986C90.2847 41.9069 88.8509 44.8126 87.7956 46.3411C87.4691 46.8097 86.5415 47.8082 86.3996 48.2152C86.1489 48.9439 87.5921 49.0813 88.0749 49.19C90.0198 49.6112 93.5406 51.116 93.4602 53.5579C93.342 55.4509 90.758 56.9178 87.2325 57.3343C87.5307 57.3674 87.8382 57.396 88.1459 57.4148C93.2378 57.727 97.4827 55.9998 97.6341 53.5579Z" fill="#3596D8"/>
<path fill-rule="evenodd" clip-rule="evenodd" d="M63.6175 5C66.1256 5.07579 67.5737 9.20715 68.1131 11.1425C68.7141 13.31 69.4618 12.6948 71.0708 11.7956C72.7129 10.8823 76.3473 9.3963 77.9988 10.9581C79.6788 12.7373 77.9042 16.5705 76.9247 18.2884C75.8504 20.1765 76.2386 20.4321 78.2261 20.981C80.0858 21.4922 83.8858 22.9735 83.9567 25.3394C83.8858 27.7483 79.9202 29.2531 78.0321 29.7689C75.9546 30.3322 76.0302 30.8195 77.0382 32.5895C77.9895 34.2601 79.6174 38.008 77.9988 39.7211C76.2242 41.3964 72.3912 39.6218 70.6733 38.6517C68.8183 37.6011 68.5154 38.0365 67.9807 39.9579C67.4697 41.8129 65.9695 45.6082 63.6175 45.6745C61.1662 45.6036 59.7324 41.6427 59.1928 39.7355C58.5162 37.3362 57.7589 38.0223 55.9701 38.9878C54.3518 39.8585 50.8498 41.2403 49.2408 39.7213C47.6224 38.0035 49.2503 34.2649 50.2014 32.5896C51.3797 30.5122 50.9726 30.2424 48.7959 29.6366C46.9787 29.1255 43.349 27.6301 43.2827 25.3396C43.3537 22.9072 47.3146 21.4306 49.2124 20.9101C51.6636 20.2381 50.9396 19.4951 49.9695 17.6874C49.0987 16.0737 47.7217 12.5671 49.2408 10.9581C50.9917 9.30181 54.8674 11.0432 56.5616 12.0182C58.4734 13.116 58.7053 12.6806 59.2496 10.7073C59.7607 8.8569 61.2798 5.06628 63.6175 5Z" fill="#EF2648"/>
<path fill-rule="evenodd" clip-rule="evenodd" d="M63.6176 32.968C67.8246 32.968 71.2508 29.5418 71.2508 25.3395C71.2508 21.1372 67.8246 17.7063 63.6176 17.7063C59.4154 17.7063 55.9893 21.1372 55.9893 25.3395C55.9893 29.5416 59.4154 32.968 63.6176 32.968Z" fill="#FCBF66"/>
<path fill-rule="evenodd" clip-rule="evenodd" d="M73.8582 29.769C71.7808 30.3322 71.8566 30.8195 72.8644 32.5895C73.8156 34.2601 75.4435 38.008 73.825 39.7211C73.735 39.8063 73.6405 39.8821 73.541 39.9484C75.1689 40.4926 76.9435 40.715 77.9987 39.7211C79.6173 38.0081 77.9892 34.2601 77.0382 32.5895C76.0301 30.8195 75.9545 30.3322 78.032 29.769C79.9201 29.2531 83.8857 27.7483 83.9566 25.3394C83.8857 22.9733 80.0857 21.4921 78.226 20.981C76.2383 20.4321 75.8503 20.1765 76.9246 18.2884C77.9043 16.5705 79.6787 12.7374 77.9987 10.9581C76.9625 9.97844 75.1452 10.1961 73.5315 10.7215C73.6357 10.7925 73.735 10.8683 73.8248 10.9581C75.5048 12.7374 73.7302 16.5705 72.7505 18.2884C71.6763 20.1765 72.0644 20.4321 74.0519 20.981C75.9118 21.4922 79.7116 22.9735 79.7827 25.3394C79.7121 27.7483 75.7465 29.2531 73.8582 29.769Z" fill="#B20D24"/>
<path fill-rule="evenodd" clip-rule="evenodd" d="M63.6173 32.968C67.8338 32.968 71.2505 29.5511 71.2505 25.3395C71.2505 21.123 67.8338 17.7063 63.6173 17.7063C62.898 17.7063 62.1976 17.8056 61.5305 17.9949C64.7342 18.9035 67.0767 21.847 67.0767 25.3395C67.0767 28.8273 64.7342 31.7706 61.5305 32.6793C62.1976 32.8686 62.8933 32.968 63.6173 32.968Z" fill="#F7B551"/>
<path d="M62.3682 44.8416C62.3682 44.1508 62.9266 43.5875 63.6175 43.5875C64.3131 43.5875 64.8716 44.1508 64.8716 44.8416L64.8337 89.2261C64.8337 89.9169 64.2752 90.4754 63.5796 90.4754C62.8886 90.4754 62.3303 89.9169 62.3303 89.2261L62.3682 44.8416Z" fill="#66B394"/>
<path fill-rule="evenodd" clip-rule="evenodd" d="M55.6509 58.9159C53.8968 62.4088 50.1395 64.9408 45.6553 65.2026C41.479 65.4481 37.6975 63.6603 35.4632 60.7701C34.9158 60.0644 34.9225 60.1856 35.3826 59.4204C37.2648 56.2899 40.8154 54.0759 44.9916 53.8304C49.4758 53.5686 53.5035 55.6464 55.6509 58.9159Z" fill="#B3E59F"/>
<path fill-rule="evenodd" clip-rule="evenodd" d="M54.1631 56.3062C56.6996 56.5569 59.4016 55.3644 61.1053 52.9793C62.6906 50.76 63.0218 48.053 62.2032 45.8146C62.0046 45.2703 62.066 45.3129 61.4839 45.3034C59.1036 45.2513 56.6475 46.4391 55.0622 48.6586C53.3586 51.0439 53.1078 53.9873 54.1631 56.3062Z" fill="#B3E59F"/>
<path d="M47.0741 49.7801C46.6008 49.2786 46.6198 48.4883 47.1166 48.015C47.6183 47.5417 48.4086 47.5607 48.8864 48.0576C52.975 52.345 56.1552 56.2824 58.3321 61.1662C60.5091 66.0546 61.6494 70.5739 61.6494 78.4817C61.6494 79.1726 61.0862 79.731 60.3954 79.731C59.7045 79.731 59.1461 79.1726 59.1461 78.4817C59.1461 70.9384 58.0814 66.7407 56.0511 62.1837C54.0209 57.6216 50.9876 53.8782 47.0741 49.7801Z" fill="#66B394"/>
<path fill-rule="evenodd" clip-rule="evenodd" d="M33.6107 36.1985C35.3853 34.3009 39.261 36.0234 40.9836 37.1828C42.4647 38.1813 42.4316 37.8312 42.5642 36.2222C42.7298 34.1827 43.7851 30.2311 46.3121 30.0039C48.754 29.8572 50.9828 33.8655 51.2903 38.9528C51.7636 46.7185 46.2552 52.9415 38.4896 53.4148C33.3976 53.7271 29.1528 51.9997 29.0014 49.5578C28.9162 46.9599 32.8771 45.4407 34.9167 45.0432C36.6534 44.7025 36.3696 44.4469 35.3474 43.2449C34.0272 41.688 31.9828 38.1387 33.6107 36.1985Z" fill="#4DB5FF"/>
<path fill-rule="evenodd" clip-rule="evenodd" d="M44.4049 31.0875C44.9633 30.4345 45.6069 30.0511 46.3121 30.0039C48.754 29.8572 50.9828 33.8655 51.2903 38.9528C51.7636 46.7185 46.2551 52.9415 38.4896 53.4148C37.3443 53.4857 36.2464 53.4527 35.229 53.3296C42.5073 52.4447 47.5707 46.411 47.1164 38.9528C46.9084 35.5266 45.8341 32.5924 44.4049 31.0875Z" fill="#3596D8"/>
<path fill-rule="evenodd" clip-rule="evenodd" d="M61.1053 52.9791C62.6906 50.7598 63.0218 48.0528 62.2032 45.8144C62.0046 45.2702 62.066 45.3128 61.4839 45.3032C60.3433 45.2795 59.1841 45.5398 58.1145 46.0603C58.8196 48.2468 58.4599 50.8399 56.9313 52.979C56.3303 53.8212 55.6063 54.5122 54.8066 55.0471C55.0953 55.4588 55.3793 55.8706 55.6537 56.2916C57.7123 56.0459 59.733 54.9005 61.1053 52.9791Z" fill="#95D6A4"/>
<path fill-rule="evenodd" clip-rule="evenodd" d="M51.7989 55.3658C49.8371 54.2628 47.4864 53.687 44.9914 53.8306C42.679 53.9665 40.5632 54.7035 38.8139 55.8636C39.5692 55.677 40.3572 55.5535 41.1691 55.5075C45.6533 55.2455 49.6809 57.3233 51.8284 60.5929C50.9786 62.2834 49.6543 63.7533 48.0102 64.8467C51.0207 64.0995 53.5358 62.2935 55.0727 59.9189C54.0169 58.16 52.9486 56.6908 51.7989 55.3658Z" fill="#95D6A4"/>
<path d="M92.3315 135.944V189.24C89.1504 189.74 85.8877 190 82.5637 190C62.3774 190 44.4285 180.431 33 165.582V135.944C33 132.742 33.6606 129.61 34.9055 126.729C36.1504 123.849 37.977 121.222 40.3086 119.028C44.9744 114.638 47.6172 108.518 47.6172 102.112V77.324H77.7141V102.112C77.7141 105.314 78.3748 108.447 79.6196 111.327C80.8621 114.207 82.6912 116.834 85.0227 119.028C89.6863 123.418 92.3315 129.538 92.3315 135.944Z" fill="#34ABE0"/>
<path d="M81.7983 80.9795C81.7983 84.1836 79.1987 86.783 75.9949 86.783H49.3391C47.7371 86.783 46.283 86.1326 45.2346 85.084C44.1836 84.033 43.5332 82.5815 43.5332 80.9795C43.5332 78.7856 44.75 76.8774 46.5459 75.8901C47.375 75.4336 48.3264 75.1758 49.3394 75.1758H75.9949C77.0076 75.1758 77.9592 75.4333 78.7883 75.8901C79.1531 76.0916 79.4949 76.3315 79.8088 76.6069C79.9084 76.6912 80.0054 76.7805 80.0996 76.8748C81.1479 77.926 81.7983 79.375 81.7983 80.9795Z" fill="#279FC9"/>
<path d="M77.7141 80.7192H54.885V77.324H47.6172V102.112C47.6172 105.314 46.9565 108.447 45.7117 111.327C44.4692 114.207 42.6401 116.834 40.3086 119.028C35.6453 123.418 33 129.538 33 135.944V165.582C37.0281 170.816 41.8674 175.395 47.3291 179.127V135.944C47.3291 129.538 48.6965 123.418 51.1072 119.028C52.3137 116.834 53.2576 114.207 53.9006 111.327C54.5435 108.447 54.8853 105.314 54.8853 102.112V97.7246C54.8853 93.8274 58.0444 90.6682 61.9416 90.6682H77.7144L77.7141 80.7192Z" fill="#279FC9"/>
<path d="M81.7983 70.8035C81.7983 72.551 81.0278 74.1147 79.8086 75.176C79.4949 75.4514 79.1531 75.6914 78.7881 75.8904C77.959 76.3469 77.0076 76.6072 75.9946 76.6072H49.3391C48.3264 76.6072 47.3748 76.3469 46.5457 75.8904C46.061 75.6277 45.6196 75.2935 45.2344 74.9082C44.1834 73.8572 43.533 72.4058 43.533 70.8037C43.5332 67.5996 46.1326 65 49.3391 65H75.9946C77.5967 65 79.0481 65.6504 80.0991 66.7014C81.1479 67.75 81.7983 69.2014 81.7983 70.8035Z" fill="#279FC9"/>
<path d="M81.7983 80.9795C81.7983 84.1836 79.1987 86.783 75.9949 86.783H56.9897C55.3877 86.783 53.9363 86.1326 52.8853 85.084C51.8367 84.033 51.1863 82.5815 51.1863 80.9795C51.1863 79.2319 51.9568 77.6682 53.176 76.6069C53.4897 76.3315 53.8315 76.0916 54.1965 75.8901C55.0256 75.4336 55.9771 75.1758 56.99 75.1758H79.8088C79.4951 75.4512 79.1533 75.6912 78.7883 75.8901C79.1531 76.0916 79.4949 76.3315 79.8088 76.6069C79.9084 76.6912 80.0054 76.7805 80.0996 76.8748C81.1479 77.926 81.7983 79.375 81.7983 80.9795Z" fill="#34ABE0"/>
<path d="M81.7983 70.8035C81.7983 72.551 81.0278 74.1147 79.8086 75.176C79.4949 75.4514 79.1531 75.6914 78.7881 75.8904C79.1528 76.0918 79.4946 76.3318 79.8086 76.6072H56.9897C55.9771 76.6072 55.0254 76.3469 54.1963 75.8904C53.8315 75.6914 53.4897 75.4517 53.1758 75.176C53.0762 75.0918 52.9793 75.0024 52.885 74.9082C51.8364 73.8572 51.186 72.4058 51.186 70.8037C51.1863 67.5996 53.7856 65 56.9897 65H75.9949C77.5969 65 79.0483 65.6504 80.0994 66.7014C81.148 67.75 81.7983 69.2014 81.7983 70.8035Z" fill="#34ABE0"/>
<path d="M70.9231 108.907C69.3381 108.907 68.0535 107.623 68.0535 106.038V98.385C68.0535 96.8 69.3384 95.5154 70.9231 95.5154C72.5081 95.5154 73.7927 96.8003 73.7927 98.385V106.038C73.793 107.623 72.5081 108.907 70.9231 108.907Z" fill="#72BBE8"/>
<path d="M75.324 83.0466C77.1024 83.0466 78.5442 81.6049 78.5442 79.8264C78.5442 78.0479 77.1024 76.6062 75.324 76.6062C73.5455 76.6062 72.1038 78.0479 72.1038 79.8264C72.1038 81.6049 73.5455 83.0466 75.324 83.0466Z" fill="#72BBE8"/>
<path d="M75.324 72.6411C77.1024 72.6411 78.5442 71.1994 78.5442 69.4209C78.5442 67.6424 77.1024 66.2007 75.324 66.2007C73.5455 66.2007 72.1038 67.6424 72.1038 69.4209C72.1038 71.1994 73.5455 72.6411 75.324 72.6411Z" fill="#72BBE8"/>
</g>
</svg>
