<svg width="125" height="125" viewBox="0 0 125 125" fill="none" xmlns="http://www.w3.org/2000/svg">
<g clip-path="url(#clip0)">
<path d="M125 62.5C125 75.949 120.75 88.4106 113.521 98.6072C108.63 105.505 102.378 111.367 95.1531 115.801C85.6504 121.635 74.4668 125 62.5 125C50.5305 125 39.3496 121.635 29.8469 115.801C22.6223 111.367 16.3699 105.505 11.4795 98.6072C4.25 88.4106 0 75.9514 0 62.5C0 27.9822 27.9822 0 62.5 0C97.0178 0 125 27.9822 125 62.5Z" fill="#34ABE0"/>
<path d="M62.5 104.148C91.2597 104.148 114.574 80.8336 114.574 52.074C114.574 23.3143 91.2597 0 62.5 0C33.7403 0 10.426 23.3143 10.426 52.074C10.426 80.8336 33.7403 104.148 62.5 104.148Z" fill="#72BBE8"/>
<path d="M75.2544 51.2751C73.1411 51.2751 71.428 49.5618 71.428 47.4487V25.7654C71.428 15.7783 63.3027 7.65308 53.3157 7.65308C43.3286 7.65308 35.2034 15.7783 35.2034 25.7654V47.4487C35.2034 49.562 33.49 51.2751 31.377 51.2751C29.2639 51.2751 27.5505 49.5618 27.5505 47.4487V25.7654C27.5503 11.5584 39.1086 0 53.3157 0C67.5227 0 79.0811 11.5584 79.0811 25.7654V47.4487C79.0808 49.5623 77.3677 51.2751 75.2544 51.2751Z" fill="#EDBB4C"/>
<path d="M95.1531 34.4387V115.801C85.6504 121.635 74.4668 125 62.5 125C50.5305 125 39.3496 121.635 29.8469 115.801C22.6223 111.367 16.3699 105.505 11.4795 98.6072V34.4387H95.1531Z" fill="#EF4152"/>
<path d="M113.52 34.4387V98.6072C102.199 114.576 83.5664 125 62.5 125C50.5305 125 39.3496 121.635 29.8469 115.801V34.4387H113.52Z" fill="#FF525D"/>
<path d="M93.6214 51.2751C91.5082 51.2751 89.795 49.5618 89.795 47.4487V25.7654C89.795 15.7783 81.6698 7.65308 71.6827 7.65308C61.6957 7.65308 53.5704 15.7783 53.5704 25.7654V47.4487C53.5704 49.562 51.8571 51.2751 49.744 51.2751C47.631 51.2751 45.9176 49.5618 45.9176 47.4487V25.7654C45.9176 11.5584 57.476 0 71.6827 0C85.8895 0 97.4481 11.5584 97.4481 25.7654V47.4487C97.4481 49.5623 95.7347 51.2751 93.6214 51.2751Z" fill="#FFD15C"/>
<path d="M80.3732 58C80.3732 58 84.8787 69.0224 65.5689 76.4261C55.0765 80.4479 47.0176 90.7562 56.6399 106.68C57.4368 99.5624 60.8537 83.8688 75.5465 80.2876C75.5465 80.2876 61.8713 85.4012 60.6633 108.548C67.6902 109.534 84.1702 110.197 89.0631 95.8959C95.5241 77.0006 80.3732 58 80.3732 58Z" fill="#70C837"/>
<path d="M60.6697 108.452C75.5871 102.498 86.4414 88.5513 87.9394 71.9022C84.8898 63.6761 80.3732 58 80.3732 58C80.3732 58 84.8787 69.0224 65.5689 76.4261C55.0765 80.4479 47.0176 90.7562 56.6399 106.68C57.4368 99.5624 60.8537 83.8688 75.5465 80.2876C75.5457 80.2877 61.9112 85.3885 60.6697 108.452Z" fill="#8DE950"/>
<path d="M55.1513 76.7935C55.9215 76.7935 56.5458 76.1692 56.5458 75.399C56.5458 74.6288 55.9215 74.0044 55.1513 74.0044C54.3811 74.0044 53.7567 74.6288 53.7567 75.399C53.7567 76.1692 54.3811 76.7935 55.1513 76.7935Z" fill="#70C837"/>
<path d="M59.5343 75.0004C60.0844 75.0004 60.5304 74.5545 60.5304 74.0044C60.5304 73.4543 60.0844 73.0083 59.5343 73.0083C58.9842 73.0083 58.5382 73.4543 58.5382 74.0044C58.5382 74.5545 58.9842 75.0004 59.5343 75.0004Z" fill="#8DE950"/>
<path d="M58.6378 67.0318C60.0131 67.0318 61.128 65.9169 61.128 64.5416C61.128 63.1663 60.0131 62.0514 58.6378 62.0514C57.2625 62.0514 56.1476 63.1663 56.1476 64.5416C56.1476 65.9169 57.2625 67.0318 58.6378 67.0318Z" fill="#8DE950"/>
<path d="M66.3076 71.0161C66.7477 71.0161 67.1045 70.6593 67.1045 70.2192C67.1045 69.7791 66.7477 69.4224 66.3076 69.4224C65.8675 69.4224 65.5107 69.7791 65.5107 70.2192C65.5107 70.6593 65.8675 71.0161 66.3076 71.0161Z" fill="#8DE950"/>
<path d="M72.9822 68.0278C74.2474 68.0278 75.2731 67.0021 75.2731 65.7368C75.2731 64.4715 74.2474 63.4458 72.9822 63.4458C71.7169 63.4458 70.6912 64.4715 70.6912 65.7368C70.6912 67.0021 71.7169 68.0278 72.9822 68.0278Z" fill="#8DE950"/>
</g>
<defs>
<clipPath id="clip0">
<rect width="125" height="125" fill="white"/>
</clipPath>
</defs>
</svg>
