<svg width="125" height="125" viewBox="0 0 125 125" fill="none" xmlns="http://www.w3.org/2000/svg">
<g clip-path="url(#clip0)">
<path d="M62.5007 125C97.0184 125 125 97.0174 125 62.4998C125 27.9821 97.0184 0 62.5007 0C27.9831 0 0.000976562 27.9821 0.000976562 62.4998C0.000976562 97.0174 27.9831 125 62.5007 125Z" fill="#41B787"/>
<path d="M62.5 104.148C91.2597 104.148 114.574 80.8336 114.574 52.074C114.574 23.3143 91.2597 0 62.5 0C33.7403 0 10.426 23.3143 10.426 52.074C10.426 80.8336 33.7403 104.148 62.5 104.148Z" fill="#4BC999"/>
<path d="M15.7358 57.6969L79.1038 72.7491L92.1198 17.9532L28.7519 2.90097L15.7358 57.6969Z" fill="#D6D6D6"/>
<path d="M71.4527 79.6401L32.7515 70.447C19.126 67.2104 10.7044 53.5413 13.9407 39.9158L21.0974 9.78662L84.4695 24.8401L71.4527 79.6401Z" fill="#D6D6D6"/>
<path d="M42.845 71.1147L107.088 60.3673L97.7946 4.81474L33.5515 15.5621L42.845 71.1147Z" fill="#E8E8E8"/>
<path d="M46.8242 66.3014L111.067 55.5541L101.774 0.00149314L37.5307 10.7489L46.8242 66.3014Z" fill="#F4F4F4"/>
<path d="M44.6842 30.6079L101.48 21.1064L100.701 16.4511L43.9054 25.9526L44.6842 30.6079Z" fill="#D6D6D6"/>
<path d="M70.5745 18.9454C70.5683 18.9081 70.5724 18.8564 70.5768 18.8044L71.6381 10.8285C71.703 10.3702 72.2283 10.066 72.8009 9.97145C73.3736 9.87688 73.9686 9.99602 74.1775 10.4091L77.7595 17.6182C77.7801 17.6659 77.8008 17.7137 77.807 17.751C77.883 18.2116 77.2289 18.6648 76.6936 18.7532C76.3824 18.8046 76.117 18.7461 75.9991 18.497L75.3189 17.0108L72.6923 17.4445L72.526 19.0706C72.4945 19.3442 72.262 19.485 71.9508 19.5364C71.4158 19.6249 70.6505 19.406 70.5745 18.9454ZM74.6617 15.585L73.202 12.399L72.8442 15.8852L74.6617 15.585Z" fill="#5C5560"/>
<path d="M82.4913 8.37108C82.909 8.3021 83.1614 8.7285 83.2303 9.14587C83.3097 9.62651 83.1634 10.0798 82.7839 10.1424L79.9158 10.6161L81.0504 17.4863C81.1173 17.8912 80.6573 18.1751 80.164 18.2566C79.6707 18.338 79.1436 18.2171 79.0768 17.8122L77.9422 10.942L77.7551 9.80906C77.7287 9.64946 77.6714 9.16707 78.1821 9.08273L82.4913 8.37108Z" fill="#5C5560"/>
<path d="M84.4595 16.6523C84.4533 16.615 84.4574 16.5633 84.4618 16.5113L85.5231 8.5354C85.5881 8.07707 86.1133 7.77293 86.686 7.67836C87.2586 7.58379 87.8536 7.70293 88.0625 8.11603L91.6445 15.3251C91.6652 15.3728 91.6858 15.4206 91.692 15.4579C91.7681 15.9185 91.114 16.3717 90.5786 16.4601C90.2674 16.5115 90.002 16.453 89.8841 16.2039L89.2039 14.7177L86.5773 15.1515L86.411 16.7775C86.3795 17.0511 86.147 17.1919 85.8358 17.2433C85.3008 17.3318 84.5356 17.1129 84.4595 16.6523ZM88.5467 13.2919L87.087 10.1059L86.7292 13.5921L88.5467 13.2919Z" fill="#5C5560"/>
<path d="M60.7177 20.8141C60.7287 20.8646 60.7398 20.9146 60.7565 20.9481C60.9623 21.3614 61.3284 21.2901 61.7811 21.2153C62.1757 21.1502 62.3457 20.8212 62.296 20.5535L62.0334 18.9638L61.7812 17.4363L61.2168 14.0188L64.0691 20C64.5188 20.4684 65.6496 20.2838 65.9422 19.623L66.7252 13.0124L67.3008 16.4979L67.5531 18.0255L67.8159 19.6172C67.855 19.8868 68.0742 20.0933 68.3462 20.0719C68.7463 20.0404 69.244 19.9215 69.2928 19.5612C69.2979 19.5241 69.2923 19.4731 69.2865 19.4218L68.0113 11.7001C67.9339 11.249 67.3954 10.8641 66.5859 10.9978C65.9337 11.1055 65.7084 11.328 65.5138 11.7423C65.3191 12.1566 64.7424 18.1865 64.7424 18.1865C64.7424 18.1865 62.225 12.5789 61.9119 12.3371C61.5987 12.0954 61.1104 11.902 60.558 11.9933C59.9587 12.0923 59.3744 12.6625 59.4462 13.1146L60.7177 20.8141Z" fill="#5C5560"/>
<path d="M54.1294 16.5924C54.1294 16.5924 52.7836 14.5467 52.6748 14.3967C52.566 14.2467 52.5844 14.2427 52.5739 14.1796C52.4925 13.6861 52.8153 13.272 53.3972 13.1759C53.6502 13.1341 53.9073 13.1957 54.0904 13.4384L55.5606 16.104L56.6125 15.9303L56.1847 13.3395C56.1178 12.9346 56.4082 12.6787 56.9015 12.5972C57.3949 12.5157 57.6823 12.6762 57.7491 13.0811L58.8921 20.002L58.9667 20.4538C59.0336 20.8587 59.0673 21.7407 58.1895 21.8856L55.4763 22.3337C54.8368 22.4393 54.6772 21.9626 54.6276 21.6623C54.578 21.362 54.6686 20.9177 55.2272 20.8255L57.3627 20.4728L57.0446 18.5468L56.8691 17.4839L55.6164 17.6907C54.701 17.8419 54.4692 17.1242 54.1294 16.5924Z" fill="#5C5560"/>
<path d="M46.8393 23.1489C46.8915 23.4653 47.2285 23.6957 47.6712 23.6226L50.2903 23.1901C51.9603 22.9143 53.1466 21.9125 52.7956 19.7869L52.7851 19.7236C52.4341 17.598 50.9339 17.014 49.188 17.3024L47.9354 17.5092L47.6679 15.8895L47.484 14.7763C47.4172 14.3714 46.7638 14.2713 46.2705 14.3528C45.7772 14.4343 45.4437 14.6973 45.5105 15.1022L46.8393 23.1489ZM48.627 21.6971L48.1861 19.0275L49.4387 18.8207C50.1474 18.7036 50.6445 19.0375 50.7866 19.8979L50.8096 20.037C50.9516 20.8974 50.5883 21.3733 49.8796 21.4904L48.627 21.6971Z" fill="#5C5560"/>
<path d="M47.484 14.7763C47.4172 14.3714 46.7638 14.2713 46.2705 14.3528L50.7746 13.6089C51.1923 13.54 51.4426 13.9536 51.5095 14.3584C51.5868 14.8266 51.4384 15.2669 51.0588 15.3295L47.6679 15.8895L47.484 14.7763Z" fill="#5C5560"/>
<path d="M45.9039 37.9022L70.1111 33.8525L69.6179 30.9042L45.4106 34.9539L45.9039 37.9022Z" fill="#5C5560"/>
<path d="M46.9166 43.9531L71.1238 39.9034L70.6306 36.9551L46.4233 41.0048L46.9166 43.9531Z" fill="#5C5560"/>
<path d="M47.9271 50.0069L72.1343 45.9573L71.6411 43.009L47.4338 47.0586L47.9271 50.0069Z" fill="#5C5560"/>
<path d="M48.9398 56.058L73.147 52.0083L72.6537 49.06L48.4465 53.1097L48.9398 56.058Z" fill="#5C5560"/>
<path d="M78.491 32.4515L102.698 28.4019L102.205 25.4536L77.9978 29.5032L78.491 32.4515Z" fill="#5C5560"/>
<path d="M82.305 55.2607L106.512 51.2111L103.215 31.5026L79.0079 35.5523L82.305 55.2607Z" fill="#5C5560"/>
<path d="M115.393 46.8037L115.113 49.9133L114.482 56.8777L110.332 102.73C98.8674 116.347 81.6941 125 62.5003 125C52.1917 125 42.4646 122.505 33.8931 118.084C26.5054 114.273 19.9746 109.033 14.6687 102.73L9.8855 49.916L9.60498 46.8037H115.393Z" fill="#EDBB4C"/>
<path d="M114.482 56.8777L110.332 102.73C98.8675 116.347 81.6942 125 62.5003 125C52.1917 125 42.4647 122.505 33.8932 118.084L29.5309 69.8623C28.8983 62.8879 34.3905 56.8777 41.3932 56.8777H114.482Z" fill="#FFD15C"/>
<path d="M120.016 51.5464C4.9707 51.5464 120.028 51.5464 4.98291 51.5464C3.62061 51.5464 2.51611 50.4421 2.51611 49.0796V41.4675C2.51611 40.1052 3.62036 39.0007 4.98291 39.0007H120.016C121.378 39.0007 122.483 40.105 122.483 41.4675V49.0796C122.482 50.4419 121.378 51.5464 120.016 51.5464Z" fill="#FFD15C"/>
<path d="M60.9573 106.82V117.586C55.9119 117.586 52.6395 117.559 50.5298 116.952C49.3135 116.602 48.2837 115.788 47.6409 114.698C47.6409 114.697 47.6409 114.697 47.6404 114.696C47.2378 113.582 46.6004 111.021 47.5752 109.097C48.2208 107.822 49.8729 107.785 50.3714 106.82H60.9576V106.82H60.9573Z" fill="#FCFCFC"/>
<path d="M52.1018 93.7554L57.4731 104.498L52.9001 102.031C52.9001 102.031 52.0574 103.555 50.3708 106.821C49.8723 107.786 49.3005 108.903 48.655 110.178C47.6804 112.102 47.2378 113.583 47.6401 114.697L41.9719 105.086C41.4097 104.132 41.3704 102.957 41.8694 101.967L44.2144 97.3127L39.9807 94.845L52.1018 93.7554Z" fill="#5C5E70"/>
<path d="M70.8826 98.0952L80.2065 92.7122C82.7292 97.0815 84.3418 99.9292 84.8711 102.06C85.1763 103.288 84.9858 104.587 84.3635 105.689C84.363 105.689 84.3628 105.689 84.3625 105.69C83.5991 106.595 81.6995 108.428 79.5459 108.546C78.1189 108.625 77.2607 107.213 76.1758 107.263L70.8826 98.0952Z" fill="#FCFCFC"/>
<path d="M63.9958 112.297L70.6133 102.274L70.7627 107.468C70.7627 107.468 72.5044 107.435 76.1758 107.263C77.2607 107.212 78.5144 107.149 79.9414 107.07C82.095 106.952 83.5991 106.595 84.3625 105.689L78.8728 115.404C78.3276 116.368 77.3291 116.99 76.2231 117.052L71.0195 117.348L70.999 122.249L63.9958 112.297Z" fill="#5C5E70"/>
<path d="M58.1157 94.0637L48.7917 88.6807C51.3145 84.3113 52.9744 81.491 54.5547 79.9673C55.4656 79.0889 56.686 78.6042 57.9517 78.5925C57.9521 78.5928 57.9524 78.593 57.9531 78.5928C59.1191 78.8013 61.656 79.5298 62.835 81.3359C63.6164 82.5327 62.8227 83.9819 63.4089 84.896L58.1157 94.0637Z" fill="#FCFCFC"/>
<path d="M73.8582 92.9273L61.8694 92.2078L66.2925 89.4812C66.2925 89.4812 65.3938 87.989 63.4087 84.8955C62.8223 83.9815 62.1406 82.9275 61.3591 81.7307C60.1804 79.9246 59.1189 78.8005 57.9529 78.5923L69.1106 78.4893C70.2183 78.4793 71.2559 79.0332 71.8628 79.96L74.7214 84.3181L78.9756 81.8857L73.8582 92.9273Z" fill="#5C5E70"/>
<path d="M76.416 71.4092C76.416 71.352 76.4348 71.2761 76.4541 71.1997L79.9959 59.584C80.2053 58.9175 81.0623 58.5938 81.9382 58.5938C82.8142 58.5938 83.6709 58.9175 83.8804 59.584L87.4414 71.1997C87.4605 71.2759 87.4795 71.352 87.4795 71.4092C87.4795 72.1138 86.3941 72.6277 85.5752 72.6277C85.0991 72.6277 84.7183 72.4753 84.604 72.0754L83.9565 69.6951H79.9387L79.2913 72.0754C79.177 72.4751 78.7961 72.6277 78.3201 72.6277C77.5017 72.6279 76.416 72.1138 76.416 71.4092ZM83.3286 67.4104L81.9385 62.3071L80.5483 67.4104H83.3286Z" fill="#FCFCFC"/>
<path d="M96.7617 58.5938C97.4007 58.5938 97.6716 59.2908 97.6716 59.9292C97.6716 60.6644 97.3424 61.3034 96.7617 61.3034H92.3745V71.8127C92.3745 72.432 91.6197 72.7417 90.8651 72.7417C90.1105 72.7417 89.3555 72.432 89.3555 71.8127V61.3034V59.5703C89.3555 59.3262 89.3887 58.5938 90.1699 58.5938H96.7617Z" fill="#FCFCFC"/>
<path d="M97.6562 71.4092C97.6562 71.3521 97.6751 71.2761 97.6943 71.1997L101.236 59.584C101.446 58.9175 102.302 58.5938 103.178 58.5938C104.054 58.5938 104.911 58.9175 105.121 59.584L108.682 71.1997C108.701 71.2759 108.72 71.3521 108.72 71.4092C108.72 72.1138 107.634 72.6277 106.815 72.6277C106.339 72.6277 105.959 72.4753 105.844 72.0754L105.197 69.6951H101.179L100.531 72.0754C100.417 72.4751 100.036 72.6277 99.5603 72.6277C98.7419 72.6279 97.6562 72.1138 97.6562 71.4092ZM104.569 67.4104L103.179 62.3071L101.789 67.4104H104.569Z" fill="#FCFCFC"/>
<path d="M61.2793 71.7679C61.2833 71.8458 61.2876 71.923 61.3042 71.977C61.5089 72.643 62.0716 72.6269 62.7641 72.6269C63.3677 72.6269 63.7017 72.1789 63.6936 71.7679V69.3363V66.9996L63.6935 61.772L66.47 71.3799C67.0244 72.1879 68.7536 72.1911 69.352 71.279L72.1435 61.6279V66.9597V69.2964V71.7313C72.1353 72.1422 72.411 72.5037 72.8212 72.5387C73.4247 72.5902 74.1952 72.5355 74.3565 72.0109C74.3731 71.9569 74.3774 71.8797 74.3813 71.8019V59.9901C74.377 59.2993 73.6697 58.5938 72.4315 58.5938C71.4339 58.5938 71.0436 58.8696 70.6519 59.4387C70.2602 60.0078 67.9185 68.8449 67.9185 68.8449C67.9185 68.8449 65.549 59.8757 65.1421 59.4387C64.7353 59.0017 64.0557 58.5938 63.2107 58.5938C62.2939 58.5938 61.2836 59.2993 61.2793 59.9901L61.2793 71.7679Z" fill="#FCFCFC"/>
<path d="M52.5069 63.8612C52.5069 63.8612 51.0059 60.4841 50.8809 60.234C50.7558 59.9838 50.7841 59.9823 50.7841 59.8858C50.7841 59.131 51.3666 58.5938 52.2567 58.5938C52.6438 58.5938 53.0115 58.7486 53.2244 59.1551L54.7583 63.486H56.3673V59.5228C56.3673 58.9035 56.8627 58.5938 57.6173 58.5938C58.3721 58.5938 58.7605 58.9035 58.7605 59.5228L58.7605 70.1097L58.7605 70.8008C58.7605 71.4201 58.5938 72.7417 57.2511 72.7417H53.1007C52.1224 72.7417 52.002 71.9926 52.002 71.5332C52.002 71.0739 52.2462 70.4346 53.1007 70.4346H56.3673V67.4884V65.8624H54.4512C53.0508 65.8624 52.8821 64.7367 52.5069 63.8612Z" fill="#FCFCFC"/>
<path d="M40.0391 71.8318C40.0391 72.3156 40.4842 72.7417 41.1614 72.7417H45.1678C47.7223 72.7417 49.7352 71.5417 49.7352 68.2901V68.1934C49.7352 64.9418 47.6449 63.7034 44.9742 63.7034H43.0581V61.2257V59.5228C43.0581 58.9034 42.1098 58.5938 41.3552 58.5938C40.6006 58.5938 40.0393 58.9034 40.0393 59.5228L40.0391 71.8318ZM43.0581 70.1095V66.0259H44.9742C46.0583 66.0259 46.7164 66.6453 46.7164 67.9614V68.1743C46.7164 69.4904 46.0583 70.1097 44.9742 70.1097L43.0581 70.1095Z" fill="#FCFCFC"/>
<path d="M43.0581 59.5228C43.0581 58.9034 42.1098 58.5938 41.3552 58.5938H48.2452C48.8841 58.5938 49.1551 59.2712 49.1551 59.8905C49.1551 60.6066 48.8258 61.2257 48.2452 61.2257H43.0581V59.5228Z" fill="#FCFCFC"/>
</g>
<defs>
<clipPath id="clip0">
<rect width="125" height="125" fill="white"/>
</clipPath>
</defs>
</svg>
