<svg width="125" height="125" viewBox="0 0 125 125" fill="none" xmlns="http://www.w3.org/2000/svg">
<g clip-path="url(#clip0)">
<path d="M102.045 17.3762H121.702C122.497 17.3762 122.968 16.4873 122.522 15.8293L118.691 10.1731C118.463 9.8374 118.463 9.39697 118.691 9.06152L122.522 3.40527C122.968 2.74707 122.497 1.8584 121.702 1.8584H102.045V17.3762Z" fill="#EF2648"/>
<path d="M102.045 36.7546C101.019 36.7546 100.187 35.9226 100.187 34.8965V1.85815C100.187 0.831787 101.019 0 102.045 0C103.072 0 103.904 0.832031 103.904 1.85815V34.8962C103.904 35.9226 103.072 36.7546 102.045 36.7546Z" fill="#5766CB"/>
<path d="M31.9648 125H3.90747C2.53906 125 1.42969 123.891 1.42969 122.522V92.4373C1.42969 91.0688 2.53906 89.9595 3.90747 89.9595H31.9648V125Z" fill="#EF2648"/>
<path d="M62.5 125H31.9648V77.4202C31.9648 76.0518 33.0742 74.9424 34.4426 74.9424H62.5V99.9712V125Z" fill="#FFE600"/>
<path d="M93.0352 125H62.5V57.397C62.5 56.0286 63.6094 54.9192 64.9778 54.9192H93.0352V125Z" fill="#4DB5FF"/>
<path d="M121.093 125H93.0352V37.374C93.0352 36.0056 94.1445 34.8962 95.5129 34.8962H121.093C122.461 34.8962 123.571 36.0056 123.571 37.374V122.522C123.57 123.891 122.461 125 121.093 125Z" fill="#3DE91E"/>
<path d="M24.4563 89.9597H31.9648V125H24.4563V89.9597Z" fill="#B20D24"/>
<path d="M54.9915 74.9424H62.5V125H54.9915V74.9424Z" fill="#F5CE00"/>
<path d="M85.5266 54.9194H93.0352V125H85.5266V54.9194Z" fill="#3596D8"/>
<path d="M116.062 34.8962V125H121.093C122.461 125 123.57 123.891 123.57 122.522V37.374C123.57 36.0056 122.461 34.8962 121.093 34.8962H116.062Z" fill="#22C904"/>
<path d="M91.3589 17.0081L83.853 15.3596C83.1079 15.1961 82.4649 15.9004 82.6958 16.6277L83.3064 18.551C79.01 21.5264 76.2776 26.3494 75.9446 31.5657C72.8057 27.5891 67.9478 25.0293 62.5 25.0293C53.0569 25.0293 45.374 32.7119 45.374 42.1553V51.5442C42.2341 47.5933 37.3921 45.0525 31.9648 45.0525C22.5217 45.0525 14.8389 52.7351 14.8389 62.1785V81.9512C14.8389 82.9775 15.6709 83.8096 16.697 83.8096C17.7231 83.8096 18.5552 82.9775 18.5552 81.9512V62.1777C18.5552 54.7839 24.5706 48.7683 31.9646 48.7683C39.3586 48.7683 45.3738 54.7837 45.3738 62.1777V66.9331C45.3738 67.9595 46.2058 68.7913 47.2319 68.7913C48.2583 68.7913 49.0901 67.9592 49.0901 66.9331V42.1548C49.0901 34.761 55.1055 28.7454 62.4995 28.7454C69.8936 28.7454 75.9089 34.7608 75.9089 42.1548V46.9102C75.9089 47.9365 76.741 48.7683 77.7671 48.7683C78.7935 48.7683 79.6255 47.9363 79.6255 46.9102V32.6438C79.6255 28.6294 81.4514 24.832 84.4983 22.3054L85.0215 23.9529C85.2524 24.6802 86.1838 24.8845 86.6982 24.3211L91.8782 18.6443C92.3926 18.0806 92.104 17.1716 91.3589 17.0081Z" fill="#A2B9E2"/>
</g>
<defs>
<clipPath id="clip0">
<rect width="125" height="125" fill="white"/>
</clipPath>
</defs>
</svg>
