<svg width="330" height="434" viewBox="0 0 330 434" fill="none" xmlns="http://www.w3.org/2000/svg">
<path d="M108.858 274.219C73.6088 310.712 60.9951 285.277 59.0944 267.998C125.964 222.209 269.657 141.205 309.468 183.504C349.279 225.803 319.49 253.311 299.619 261.778C299.204 307.394 261.432 298.064 242.598 287.696C237.892 293.894 232.946 297.376 228.084 298.973C259.186 313.615 245.708 325.019 228.084 309.986C222.9 335.905 213.569 317.762 217.198 299.696C208.811 298.209 201.562 292.465 197.5 287.696C172.203 313.822 160.35 291.325 157.585 276.811C137.68 312.475 116.806 289.943 108.858 274.219Z" fill="#61630D"/>
<path d="M11.9296 224.583C-12.5375 192.651 6.22751 174.992 18.6684 170.154C49.7707 169.117 110.835 180.003 106.273 231.84C101.712 283.677 67.3953 274.519 50.8074 263.46C2.28786 281.707 4.67239 245.145 11.9296 224.583Z" fill="#737504"/>
<path d="M264.377 243.762C242.812 268.23 218.76 252.575 209.429 241.689C220.488 200.392 251.521 122.36 287.185 140.606C322.849 158.853 313.449 190.37 304.291 203.848C328.344 250.294 287.703 249.81 264.377 243.762Z" fill="#737504"/>
<path d="M120.781 265.925C105.852 278.78 95.2076 269.899 91.7518 263.851L107.821 191.279C148.773 194.389 230.364 210.148 229.12 248.3C227.876 286.452 202.683 275.947 190.242 265.925C178.216 274.219 164.497 267.998 159.14 263.851C148.773 293.709 129.247 277.674 120.781 265.925Z" fill="#2D3C01"/>
<path d="M123.891 283.549L124.928 246.745C133.567 244.153 150.535 239.384 149.291 241.043C148.047 242.702 149.809 282.167 150.846 301.692L187.651 255.039L195.944 262.814L151.883 331.239C148.98 334.972 151.71 392.58 153.438 420.918C190.346 429.212 167.088 430.248 150.846 429.73C144.626 436.78 134.431 431.631 130.111 428.175C84.4946 432.737 104.884 425.238 120.781 420.918C123.269 418.43 122.854 340.397 122.336 301.692L115.597 292.362C106.785 297.027 107.821 287.178 111.968 285.623L94.3436 262.814L99.5273 252.447L123.891 283.549Z" fill="#992108"/>
<path d="M103.156 274.219L94.3436 262.814L99.5273 252.447C104.02 258.495 114.145 270.383 112.487 269.553C110.828 268.724 105.575 272.663 103.156 274.219Z" fill="#5A2108"/>
<path d="M124.409 267.998L123.891 245.19L149.809 234.822L149.291 267.48C148.876 265.406 132.876 267.134 124.409 267.998Z" fill="#5A2108"/>
<path d="M187.132 276.292C187.547 274.219 179.011 271.281 175.21 270.59L187.651 255.039L195.944 262.814L187.132 276.292Z" fill="#5A2108"/>
<path d="M137.369 339.015C131.321 353.011 122.854 387.638 137.369 414.179C143.762 399.665 152.712 364.312 137.369 339.015Z" fill="#B73A0A"/>
<path d="M139.021 34.5254C147.833 24.8491 167.531 12.8574 175.825 42.3009C192.413 33.143 227.351 25.1946 234.401 66.6644C253.754 58.0249 296.606 62.5173 264.985 105.024C282.437 115.391 305.936 140.792 260.32 159.453C286.238 169.82 298.679 236.69 230.254 223.731C219.196 239.455 188.992 263.542 156.645 234.098C148.87 242.392 128.55 254.522 109.474 236.69C97.0326 264.164 32.7546 266.756 55.0445 208.18C32.7546 202.651 -2.90942 181.121 32.7546 139.236C22.0415 134.571 7.04333 122.752 32.7546 112.799C24.8062 94.8293 21.5577 58.8889 72.1508 58.8889C73.6233 50.1821 77.1499 39.5161 83.2421 31.4151C74.5341 25.1946 62.7164 13.6868 85.1101 17.4191C83.2421 4.45968 89.2571 -15.7568 97.0326 20.6015C107.32 16.8407 121.089 19.4691 139.021 34.5254Z" fill="#858704"/>
<path d="M112.86 130.181C33.0302 165.43 55.8385 39.4659 102.492 76.2703C112.86 14.0657 168.844 44.6496 171.954 66.4212C223.273 24.9514 244.008 121.369 179.729 119.295C179.729 175.279 122.709 162.32 112.86 130.181Z" fill="#A9AC06"/>
<path d="M128.038 106.784C125.964 139.442 60.6495 112.487 110.932 85.5307C121.817 8.81215 213.569 90.1967 128.038 106.784Z" fill="#B0B70C"/>
<ellipse cx="190.761" cy="81.9027" rx="18.6614" ry="16.5879" fill="#ABB10C"/>
<circle cx="82.4212" cy="169.508" r="22.29" fill="#999C05"/>
<circle cx="235.859" cy="125.964" r="21.2532" fill="#9DA005"/>
</svg>
