<svg width="418" height="628" viewBox="0 0 418 628" fill="none" xmlns="http://www.w3.org/2000/svg">
<g clip-path="url(#clip0)">
<path fill-rule="evenodd" clip-rule="evenodd" d="M220.321 498.475C213.929 501.456 206.457 501.508 199.421 501.528C197.634 543.185 190.399 586.388 182.004 627.128C203.8 627.143 224.392 628.796 245.575 621.894C243.06 602.069 239.777 582.496 237.886 562.583C236.831 551.489 238.976 535.844 235.996 525.078C234.668 520.284 226.596 519.659 223.62 515.483C219.516 509.723 221.79 504.605 220.321 498.475Z" fill="#594220"/>
<path fill-rule="evenodd" clip-rule="evenodd" d="M164.587 379.417C172.86 394.681 185.228 418.292 192.454 435.675C193.988 432.014 195.766 417.938 194.716 414.306C192.8 407.678 184.157 400.047 180.161 394.244C173.731 389.447 168.942 377.236 164.587 379.417Z" fill="#594220"/>
<path fill-rule="evenodd" clip-rule="evenodd" d="M222.062 327.519C222.062 346.47 223.777 369.492 220.321 388.139C224.193 385.418 225.69 380.219 229.9 377.955C232.421 376.598 236.406 378.287 238.173 375.928C240.048 373.422 239.493 365.798 239.478 362.844C239.431 353.017 239.381 342.986 238.608 333.189C232.595 333.06 227.285 330.271 222.062 327.519Z" fill="#594220"/>
<path d="M225.546 329.7L222.062 327.083L219.455 386.394L223.809 381.597L225.546 329.7Z" fill="#45341B"/>
<path d="M238.608 333.189L233.389 332.753V375.492L240.355 373.311L238.608 333.189Z" fill="#45341B"/>
<path d="M192.024 428.697C187.844 425.557 173.151 395.117 167.635 380.725C166.765 380.144 164.936 379.329 164.587 380.725C164.239 382.121 184.036 418.667 192.454 436.111L192.024 428.697Z" fill="#45341B"/>
<path d="M207.699 501.528H199.426C202.561 514.786 189.121 590.785 182.009 627.128C204.303 630.617 235.851 624.947 248.187 621.458C241.569 617.272 238.033 555.896 237.743 525.95L231.212 522.461C227.38 528.392 233.969 588.895 237.743 618.406C209.005 634.106 194.637 620.586 193.766 618.406C193.069 616.661 202.764 539.76 207.699 501.528Z" fill="#45341B"/>
<path d="M196.378 413.869L193.33 419.539C185.319 409.421 171.699 388.284 168.071 379.853L196.378 413.869Z" fill="#45341B"/>
<path fill-rule="evenodd" clip-rule="evenodd" d="M255.154 39.2501C263.234 33.9197 267.196 30.917 276.925 33.1445C274.066 28.3092 259.785 19.7954 255.213 27.3162C253.848 30.0917 255.154 39.2501 255.154 39.2501Z" fill="#688210"/>
<path fill-rule="evenodd" clip-rule="evenodd" d="M145.429 59.3111C117.634 62.1781 114.783 111.746 141.075 119.494C132.281 128.309 120.271 145.924 138.463 152.889C141.035 153.873 143.572 154.259 146.3 154.383C142.725 159.388 139.053 164.62 138.543 170.956C136.501 196.416 162.134 214.284 184.617 201.483C175.037 227.65 188.616 255.275 218.579 248.872C230.204 246.388 234.502 238.036 242.963 231.139C244.618 240.292 251.24 251.582 259.508 253.817C276.901 258.516 299.576 243.426 302.179 224.161C310.887 237.244 331.392 245.094 335.007 219.8C335.433 216.822 334.942 213.999 334.4 211.078C358.782 231.139 389.958 199.858 379.683 173.572C375.63 163.204 362.374 161.437 353.558 157C353.558 158.308 390.569 137.375 370.104 109.464C360.525 93.3278 339.286 95.2946 330.046 97.6889C335.111 83.7693 330.046 44.4833 283.892 57.5667C283.892 47.8282 285.025 39.8708 276.925 33.1444C267.908 30.2815 262.012 32.985 255.154 39.25C257.331 -3.05278 207.434 1.63169 197.679 23.55C193.453 15.5185 191.549 7.66462 182.875 2.9801C164.282 -7.06185 138.538 9.54924 134.448 28.7833C131.874 40.8889 138.25 50.3889 145.429 59.3111Z" fill="#769413"/>
<path fill-rule="evenodd" clip-rule="evenodd" d="M188.1 6.97776C192.019 11.3389 194.631 18.3166 197.679 23.55C202.042 16.9453 209.551 11.872 216.837 8.72219C203.34 0.436086 197.168 3.48015 188.1 6.97776Z" fill="#688210"/>
<path fill-rule="evenodd" clip-rule="evenodd" d="M112.338 76.7555C102.224 74.8681 91.0239 73.4252 81.8583 79.3453C69.6665 87.2198 65.5402 108.063 73.111 120.367C77.7932 127.976 85.1787 131.858 93.1792 135.194C71.2889 151.948 82.2437 190.998 110.596 191.017C108.433 196.227 105.869 201.005 105.371 206.717C96.9786 207.154 91.4401 213.008 88.825 220.672C97.6265 214.536 109.898 205.836 121.046 205.057C131.981 204.293 144.082 213.382 143.562 225.033C143.379 229.12 141.441 233.374 140.204 237.244C144.009 235.974 147.526 234.348 151.525 233.756C151.018 222.872 163.903 226.567 169.779 231.177C178.741 238.209 181.133 247.368 181.133 258.178C180.367 250.72 173.4 244.739 166.329 242.478C168.184 255.112 168.291 265.991 154.138 271.261V272.133C167.951 278.219 163.722 289.084 150.654 292.194C152.793 296.815 157.201 300.074 158.196 305.278C160.702 318.389 148.906 328.725 136.721 328.828C138.611 334.028 142.512 338.806 142.701 344.528C143.084 356.168 130.486 366.392 119.304 363.019C113.097 361.146 108.763 355.985 103.629 352.378C103.62 365.079 96.5058 380.426 80.9875 376.266C74.8235 374.612 72.1499 369.327 67.0542 366.333C62.4665 381.803 48.1964 375.308 47.025 361.972C40.2136 364.09 36.0654 366.383 28.7375 365.461C28.7478 380.902 41.8568 394.893 58.3458 390.199C65.2245 388.241 69.5278 382.824 74.0208 377.672C80.7583 397.962 112.851 394.912 117.563 375.056C128.012 390.199 146.337 385.898 141.946 367.206C157.744 372.973 173.998 360.701 172.334 343.656C171.744 337.609 167.537 332.381 163.717 327.956C185.923 328.828 201.779 312.495 188.877 293.07C184.849 287.006 178.523 284.983 172.425 281.728C178.474 278.509 180.264 272.493 181.133 266.028C182.829 266.421 184.426 266.923 185.923 267.528C196.419 271.769 202.001 281.053 202.033 293.067C218.577 293.067 229.715 284.507 235.125 268.644H235.996C245.762 293.823 287.189 283.614 292.6 260.794C301.919 267.418 318.623 281.234 324.013 261.667C324.725 259.079 324.821 255.125 324.821 253.817C324.821 252.508 386.215 291.322 374.458 222.417C385.433 224.542 399.494 224.857 408.34 216.897C427.921 199.278 416.157 168.531 392.746 163.106V161.361C399.533 157.829 400.977 147.444 400.505 140.428C399.353 123.284 387.761 109.426 370.104 110.772C371.465 114.835 373.762 118.677 374.297 122.983C376.239 138.607 365.394 148.911 353.558 157C361.477 162.659 370.437 163.204 374.922 173.572C383.007 192.266 369.256 213.793 349.204 215.277C343.827 215.675 339.272 212.823 334.4 211.078C335.622 220.775 332.396 234.08 319.596 232.564C313.018 231.785 307.755 227.269 302.179 224.161C296.85 249.68 251.562 260.138 242.963 231.139C233.69 236.143 230.024 245.887 218.579 248.671C202.228 252.648 184.901 239.305 182.287 223.289C181.075 215.858 183.219 208.703 184.617 201.483C162.688 210.491 137.858 199.427 138.51 172.7C138.683 165.575 143.298 160.43 146.3 154.383C143.582 154.146 140.987 153.645 138.463 152.544C119.743 144.377 134.023 129.522 141.075 119.494C116.7 108.958 116.606 64.5211 145.429 59.3111C138.663 47.5309 132.304 40.5987 134.979 26.1666C116.851 26.3188 103.588 41.2863 105.522 59.3111C106.222 65.8317 109.644 70.9769 112.338 76.7555Z" fill="#688210"/>
<path fill-rule="evenodd" clip-rule="evenodd" d="M303.05 54.95C322.972 56.703 334.646 80.2713 330.046 97.6888C343.937 94.9911 352.82 96.3482 364.879 103.794C369.257 85.376 353.692 78.8873 339.625 88.0944C342.517 65.1732 325.503 52.1078 303.05 54.95Z" fill="#688210"/>
<path fill-rule="evenodd" clip-rule="evenodd" d="M75.7625 123.855C75.7625 133.737 77.1483 143.291 82.7291 151.767C86.5009 146.151 88.5115 140.255 93.1791 135.194C87.6049 131.936 81.673 126.345 75.7625 123.855Z" fill="#4E5C08"/>
<path fill-rule="evenodd" clip-rule="evenodd" d="M105.371 206.717C106.197 201.109 109.052 196.386 110.596 191.017C92.5112 190.967 81.9996 175.828 81.8583 158.745C58.8211 159.236 45.3079 192.327 63.7321 208.184C68.0796 211.926 83.9939 217.986 89.6174 215.786C95.6741 213.416 98.1855 207.459 105.371 206.717Z" fill="#4E5C08"/>
<path fill-rule="evenodd" clip-rule="evenodd" d="M47.025 244.658C54.3276 242.34 59.1017 244.031 66.1833 245.967C66.1833 232.053 73.9857 222.459 88.825 222.417C82.6349 218.454 78.241 211.759 70.5375 210.496C49.756 207.086 41.9391 228.515 47.025 244.658Z" fill="#688210"/>
<path fill-rule="evenodd" clip-rule="evenodd" d="M373.587 221.981C379.517 239.563 364.89 260.49 343.979 263.629C347.86 266.574 362.245 265.086 366.621 263.629C381.019 258.835 396.096 224.909 373.587 221.981Z" fill="#4E5C08"/>
<path fill-rule="evenodd" clip-rule="evenodd" d="M151.09 234.192C161.357 235.969 179.219 257.579 181.133 268.208V258.178C181.133 247.186 179.237 237.536 169.779 230.532C163.717 226.043 150.219 222.853 151.09 234.192Z" fill="#4E5C08"/>
<path fill-rule="evenodd" clip-rule="evenodd" d="M66.1844 245.531C56.2735 241.707 49.0357 240.778 41.801 250.328C39.2887 253.644 36.6881 258.25 33.7213 261.149C27.7217 267.009 19.5388 270.365 14.2196 276.528C9.74835 281.71 13.1574 284.461 10.8854 290.45C9.56567 293.928 3.0929 299.168 1.68118 302.661C-4.06161 316.872 6.09781 330.765 20.9 331.445C6.96663 352.814 23.0538 367.365 35.7041 366.16C39.7843 365.771 43.3677 363.627 47.025 361.972C47.642 375.463 64.0577 382.903 67.0541 366.333C70.8367 369.683 73.4707 373.747 78.375 375.681C95.2535 382.334 103.627 366.548 103.629 352.378C108.04 356.759 113.045 361.76 119.304 363.252C131.243 366.1 143.054 356.997 142.769 344.528C142.637 338.743 139.327 333.788 136.721 328.828C150.176 328.791 161.745 317.809 158.006 303.533C156.835 299.062 153.21 295.872 150.654 292.194C163.844 290.215 169.288 276.641 154.137 272.133V271.261C171.628 266.832 173.398 239.23 155.008 234.29C149.766 232.882 144.867 235.052 140.204 237.244C150.654 221.019 140.444 204.15 121.046 205.008C109.232 205.529 97.4724 214.502 88.4557 221.019C85.7982 222.939 82.2127 222.333 79.2458 223.609C68.179 228.372 66.1844 234.434 66.1844 245.531Z" fill="#769413"/>
<path fill-rule="evenodd" clip-rule="evenodd" d="M20.9 270.825C30.8386 270.499 37.5753 257.094 41.8 249.456C32.0495 252.737 22.7749 260.291 20.9 270.825Z" fill="#688210"/>
<path fill-rule="evenodd" clip-rule="evenodd" d="M324.821 252.072C324.765 254.753 324.59 259.094 323.754 261.667C317.243 281.728 302.76 265.636 292.6 260.794C284.607 284.306 249.616 292.179 235.996 268.644H235.125C227.93 283.346 219.166 293.064 202.033 293.067C202.025 279.366 195.526 268.157 181.133 266.028C179.774 272.607 177.832 277.502 172.425 281.728C183.887 290.416 192.452 293.28 192.454 309.639C201.007 308.302 205.469 301.878 211.612 296.556C211.658 313.459 217.829 333.021 237.737 333.189H238.608C258.708 333.187 262.688 320.75 270.829 305.278C278.537 319.81 304.068 316.684 314.336 306.931C321.311 300.305 322.208 292.559 322.208 283.472C328.76 286.004 335.977 288.396 343.105 286.596C351.268 284.534 355.56 268.049 350.946 261.667C339.19 262.539 324.821 252.072 324.821 252.072Z" fill="#4E5C08"/>
<path fill-rule="evenodd" clip-rule="evenodd" d="M163.717 327.956C166.958 333.17 171.737 338.128 172.332 344.528C173.942 361.814 156.563 371.079 141.946 367.206C143.188 374.22 139.522 384.015 130.625 382.529C125.68 381.704 121.6 377.719 117.562 375.056C110.716 395.157 83.5448 396.77 74.0208 377.672C52.2728 395.318 84.8962 429.481 106.229 411.402C110.724 407.591 113.091 402.329 114.95 396.861H116.692C123.146 409.503 145.094 405.297 153.175 396.824C158.025 391.739 158.491 386.08 158.492 379.417C174.699 383.978 186.54 374.995 175.908 359.356C189.243 359.236 197.662 347.885 196.73 334.933C196.393 330.244 194.318 323.205 189.761 320.882C186.617 319.279 183.739 322.533 181.133 323.88C176.028 326.519 169.392 327.503 163.717 327.956Z" fill="#4E5C08"/>
<path fill-rule="evenodd" clip-rule="evenodd" d="M6.96667 325.775C6.96667 334.496 7.78589 342.157 15.675 347.144C15.6938 340.569 18.2515 337.152 20.9 331.444C15.8448 331 11.7563 329.7 6.96667 325.775Z" fill="#688210"/>
<path fill-rule="evenodd" clip-rule="evenodd" d="M232.512 442.217C234.33 457.653 229.863 471.191 240.801 484.952C254.904 502.694 274.306 492.294 275.183 471.872C296.083 484.952 309.261 459.153 296.083 443.089C311.653 442.375 319.06 426.719 316.699 412.561C314.276 398.023 299.522 386.219 284.762 388.402C277.501 389.476 272.717 394.09 267.346 398.606C267.346 321.414 166.765 409.072 232.512 442.217Z" fill="#769413"/>
<path fill-rule="evenodd" clip-rule="evenodd" d="M215.967 463.15C201.818 502.031 275.183 531.619 289.988 487.572C297.922 490.157 306.273 491.572 314.371 488.485C328.306 483.17 332.337 467.111 323.95 455.3C355.092 441.581 332.622 401.767 308.275 395.989C310.837 401.755 315.167 406.149 316.533 412.561C319.485 426.421 310.711 441.801 296.083 443.089C302.755 454.188 303.566 473.955 285.633 475.163C281.843 475.417 278.61 473.118 275.183 471.872C273.474 493.389 253.906 501.748 240.142 483.211C229.91 469.432 235.21 456.986 232.513 442.217C211.612 432.186 210.472 412.166 213.354 395.117C184.299 406.391 184.163 456.487 215.967 463.15Z" fill="#688210"/>
<path fill-rule="evenodd" clip-rule="evenodd" d="M335.706 419.539C341.367 435.675 337.012 449.63 323.95 455.3C326.819 460.763 328.3 464.785 328.304 471C337.943 470.999 347.096 469.319 352.714 460.533C361.43 446.902 352.658 422.188 335.706 419.539Z" fill="#4E5C08"/>
<path fill-rule="evenodd" clip-rule="evenodd" d="M220.321 498.911C214.136 524.928 259.159 540.889 265.604 513.739C269.436 517.418 271.926 522.281 276.928 524.692C289.747 530.87 293.471 518.414 293.471 508.506C306.686 519.38 327.135 514.61 331.851 497.167C333.747 490.153 330.61 480.717 327.433 474.489L326.562 477.106C318.184 491.613 304.106 490.844 289.988 487.572C283.179 501.9 269.573 510.092 253.413 508.354C232.371 506.092 210.145 485.188 215.967 463.15C208.019 460.842 201.754 456.356 197.244 449.194C175.125 454.505 176.398 487.892 192.454 499.219C201.142 505.347 211.304 503.115 220.321 498.911Z" fill="#4E5C08"/>
<path d="M277.36 432.186C316.112 417.794 273.442 382.469 262.121 409.945C258.202 342.347 182.875 421.283 240.785 426.081C214.225 450.067 262.121 464.894 262.121 443.089C284.762 463.15 287.375 438.728 277.36 432.186Z" fill="#8FB01B"/>
<path d="M176.344 32.2722C154.747 44.4833 173.731 69.9232 185.923 81.1167C150.219 89.4028 174.602 141.736 199.421 134.322C185.836 161.536 208.565 162.524 221.627 159.617C228.594 198.867 269.088 181.422 276.054 169.647C304.356 216.311 374.023 169.647 332.658 146.533C375.155 131.531 334.835 92.4556 301.308 103.794C310.017 77.9767 288.101 80.826 276.054 85.4778C278.493 41.1689 243.688 46.3732 225.981 54.5139C222.063 33.5806 203.34 17.0083 176.344 32.2722Z" fill="#8FB01B"/>
<path d="M84.4709 233.319C67.7509 219.364 65.8932 236.518 67.0543 246.839C39.1876 234.628 35.414 258.905 37.0105 272.569C-6.96669 260.794 8.27293 330.136 37.0105 311.383C32.2209 349.325 76.6334 334.497 74.4564 318.361C88.0414 335.457 92.889 319.088 93.6147 308.767C127.055 316.093 124.384 291.468 118.869 278.239C153.702 278.239 145.429 217.183 114.95 238.553C134.979 199.739 87.5188 211.078 84.4709 233.319Z" fill="#8FB01B"/>
</g>
<defs>
<clipPath id="clip0">
<rect width="418" height="628" fill="white"/>
</clipPath>
</defs>
</svg>
