<svg width="336" height="505" viewBox="0 0 336 505" fill="none" xmlns="http://www.w3.org/2000/svg">
<g clip-path="url(#clip0)">
<path fill-rule="evenodd" clip-rule="evenodd" d="M158.9 400.844C164.038 403.241 170.044 403.283 175.7 403.299C177.136 436.797 182.952 471.538 189.7 504.299C172.18 504.311 155.628 505.64 138.6 500.09C140.621 484.148 143.26 468.409 144.781 452.396C145.629 443.474 143.904 430.894 146.3 422.236C147.368 418.381 153.856 417.879 156.248 414.521C159.547 409.889 157.719 405.773 158.9 400.844Z" fill="#594220"/>
<path fill-rule="evenodd" clip-rule="evenodd" d="M203.7 305.104C197.05 317.378 187.108 336.365 181.3 350.344C180.067 347.4 178.638 336.081 179.482 333.16C181.022 327.83 187.969 321.694 191.181 317.028C196.35 313.17 200.2 303.351 203.7 305.104Z" fill="#594220"/>
<path fill-rule="evenodd" clip-rule="evenodd" d="M157.5 263.372C157.5 278.61 156.122 297.123 158.9 312.118C155.788 309.93 154.585 305.749 151.2 303.928C149.174 302.838 145.97 304.196 144.55 302.299C143.042 300.284 143.489 294.153 143.501 291.778C143.539 283.875 143.579 275.809 144.2 267.931C149.034 267.827 153.302 265.584 157.5 263.372Z" fill="#594220"/>
<path d="M154.7 265.125L157.5 263.021L159.596 310.715L156.096 306.858L154.7 265.125Z" fill="#45341B"/>
<path d="M144.2 267.93L148.396 267.58V301.948L142.796 300.194L144.2 267.93Z" fill="#45341B"/>
<path d="M181.646 344.733C185.006 342.208 196.817 317.729 201.25 306.156C201.95 305.689 203.42 305.034 203.7 306.156C203.98 307.278 188.067 336.667 181.3 350.694L181.646 344.733Z" fill="#45341B"/>
<path d="M169.046 403.299H175.696C173.176 413.96 183.979 475.074 189.696 504.299C171.776 507.104 146.417 502.545 136.5 499.74C141.82 496.373 144.662 447.018 144.896 422.937L150.146 420.132C153.226 424.901 147.929 473.554 144.896 497.285C167.996 509.91 179.546 499.038 180.246 497.285C180.806 495.882 173.012 434.043 169.046 403.299Z" fill="#45341B"/>
<path d="M178.146 332.809L180.596 337.368C187.036 329.232 197.983 312.235 200.9 305.455L178.146 332.809Z" fill="#45341B"/>
<path fill-rule="evenodd" clip-rule="evenodd" d="M130.9 31.5626C124.405 27.2762 121.221 24.8616 113.4 26.6528C115.698 22.7646 127.178 15.9183 130.853 21.9661C131.95 24.198 130.9 31.5626 130.9 31.5626Z" fill="#688210"/>
<path fill-rule="evenodd" clip-rule="evenodd" d="M219.1 47.6945C241.442 49.9999 243.734 89.8593 222.6 96.0903C229.669 103.179 239.323 117.343 224.7 122.944C222.632 123.736 220.593 124.046 218.4 124.146C221.273 128.17 224.226 132.378 224.635 137.472C226.277 157.946 205.672 172.315 187.6 162.021C195.3 183.062 184.385 205.277 160.3 200.128C150.956 198.13 147.5 191.414 140.7 185.868C139.369 193.228 134.046 202.307 127.4 204.104C113.419 207.883 95.1921 195.749 93.1 180.257C86.1 190.778 69.6181 197.09 66.7117 176.75C66.3696 174.356 66.7642 172.085 67.2 169.736C47.6009 185.868 22.5409 160.714 30.8 139.576C34.0585 131.239 44.7134 129.818 51.8 126.25C51.8 127.302 22.05 110.469 38.5 88.0243C46.2 75.0486 63.2721 76.6302 70.7 78.5556C66.6286 67.3623 70.7 35.7708 107.8 46.2917C107.8 38.4606 106.889 32.0617 113.4 26.6528C120.648 24.3506 125.387 26.5246 130.9 31.5625C129.15 -2.45486 169.259 1.31211 177.1 18.9375C180.497 12.479 182.028 6.16344 189 2.39643C203.946 -5.67871 224.64 7.67894 227.927 23.1458C229.996 32.8804 224.871 40.5198 219.1 47.6945Z" fill="#769413"/>
<path fill-rule="evenodd" clip-rule="evenodd" d="M184.8 5.61108C181.65 9.11802 179.55 14.7291 177.1 18.9375C173.593 13.6264 167.557 9.54674 161.7 7.01385C172.55 0.35066 177.511 2.79851 184.8 5.61108Z" fill="#688210"/>
<path fill-rule="evenodd" clip-rule="evenodd" d="M245.7 61.7222C253.83 60.2045 262.832 59.0441 270.2 63.8047C280 70.1369 283.317 86.8978 277.231 96.7916C273.468 102.91 267.531 106.032 261.1 108.715C278.696 122.187 269.89 153.589 247.1 153.604C248.839 157.794 250.9 161.636 251.3 166.229C258.046 166.581 262.498 171.288 264.6 177.451C257.525 172.517 247.661 165.521 238.7 164.895C229.91 164.28 220.183 171.589 220.601 180.958C220.748 184.244 222.306 187.665 223.3 190.778C220.242 189.756 217.415 188.448 214.2 187.972C214.608 179.221 204.25 182.192 199.527 185.899C192.323 191.554 190.4 198.918 190.4 207.611C191.016 201.614 196.616 196.804 202.3 194.986C200.809 205.146 200.723 213.894 212.1 218.132V218.833C200.996 223.727 204.396 232.464 214.9 234.965C213.181 238.681 209.638 241.301 208.838 245.486C206.823 256.03 216.305 264.341 226.1 264.424C224.581 268.606 221.445 272.447 221.293 277.049C220.985 286.409 231.112 294.631 240.1 291.918C245.089 290.412 248.573 286.262 252.7 283.361C252.707 293.575 258.426 305.916 270.9 302.57C275.855 301.24 278.004 296.991 282.1 294.583C285.788 307.023 297.258 301.801 298.2 291.076C303.675 292.779 307.01 294.624 312.9 293.882C312.892 306.298 302.354 317.549 289.1 313.775C283.571 312.2 280.112 307.844 276.5 303.701C271.084 320.017 245.287 317.564 241.5 301.597C233.1 313.775 218.37 310.316 221.9 295.285C209.201 299.923 196.136 290.054 197.473 276.347C197.948 271.485 201.329 267.281 204.4 263.722C186.55 264.424 173.805 251.29 184.175 235.669C187.414 230.793 192.498 229.167 197.4 226.549C192.538 223.96 191.099 219.123 190.4 213.924C189.037 214.24 187.753 214.644 186.55 215.13C178.113 218.541 173.626 226.006 173.6 235.667C160.302 235.667 151.349 228.783 147 216.028H146.3C138.449 236.275 105.15 228.065 100.8 209.715C93.3091 215.041 79.8822 226.151 75.5492 210.417C74.977 208.336 74.9 205.156 74.9 204.104C74.9 203.052 25.55 234.264 35 178.854C26.1782 180.563 14.8758 180.816 7.76471 174.415C-7.97479 160.247 1.48135 135.522 20.3 131.16V129.757C14.8444 126.916 13.6832 118.565 14.063 112.924C14.9887 99.1378 24.3066 87.9936 38.5 89.0763C37.4062 92.3431 35.56 95.4327 35.1295 98.8958C33.5685 111.459 42.2861 119.745 51.8 126.25C45.4344 130.8 38.2322 131.239 34.6272 139.576C28.1286 154.609 39.1816 171.919 55.3 173.113C59.6225 173.433 63.2834 171.14 67.2 169.736C66.2173 177.534 68.8108 188.233 79.1 187.014C84.3876 186.388 88.6182 182.756 93.0999 180.257C97.3839 200.778 133.787 209.187 140.7 185.868C148.153 189.892 151.1 197.728 160.3 199.966C173.443 203.164 187.372 192.435 189.472 179.556C190.447 173.58 188.723 167.827 187.6 162.021C205.227 169.264 225.186 160.367 224.661 138.875C224.522 133.145 220.813 129.008 218.4 124.146C220.585 123.955 222.671 123.552 224.7 122.667C239.747 116.099 228.268 104.154 222.6 96.0902C242.193 87.6175 242.269 51.884 219.1 47.6944C224.539 38.2215 229.651 32.6471 227.5 21.0416C242.072 21.164 252.733 33.1999 251.178 47.6944C250.616 52.9379 247.865 57.0754 245.7 61.7222Z" fill="#688210"/>
<path fill-rule="evenodd" clip-rule="evenodd" d="M92.4 44.1875C76.3858 45.5972 67.0023 64.5494 70.7 78.5555C59.5341 76.3862 52.3933 77.4775 42.7 83.4653C39.1808 68.6543 51.6924 63.4365 63 70.8403C60.6752 52.4084 74.3514 41.902 92.4 44.1875Z" fill="#688210"/>
<path fill-rule="evenodd" clip-rule="evenodd" d="M275.1 99.5972C275.1 107.543 273.986 115.226 269.5 122.042C266.468 117.526 264.852 112.785 261.1 108.715C265.581 106.095 270.349 101.599 275.1 99.5972Z" fill="#4E5C08"/>
<path fill-rule="evenodd" clip-rule="evenodd" d="M251.3 166.229C250.636 161.72 248.341 157.922 247.1 153.604C261.637 153.564 270.086 141.39 270.2 127.653C288.718 128.048 299.58 154.658 284.77 167.409C281.276 170.418 268.483 175.291 263.963 173.522C259.095 171.617 257.076 166.826 251.3 166.229Z" fill="#4E5C08"/>
<path fill-rule="evenodd" clip-rule="evenodd" d="M298.2 196.74C292.33 194.876 288.492 196.236 282.8 197.792C282.8 186.603 276.528 178.888 264.6 178.854C269.576 175.667 273.108 170.284 279.3 169.268C296.005 166.526 302.288 183.758 298.2 196.74Z" fill="#688210"/>
<path fill-rule="evenodd" clip-rule="evenodd" d="M35.7 178.503C30.9339 192.643 42.6912 209.471 59.5 211.995C56.3806 214.363 44.8175 213.166 41.3 211.995C29.7264 208.14 17.6067 180.858 35.7 178.503Z" fill="#4E5C08"/>
<path fill-rule="evenodd" clip-rule="evenodd" d="M214.55 188.323C206.297 189.752 191.939 207.13 190.4 215.677V207.611C190.4 198.772 191.924 191.012 199.527 185.38C204.4 181.77 215.25 179.205 214.55 188.323Z" fill="#4E5C08"/>
<path fill-rule="evenodd" clip-rule="evenodd" d="M282.799 197.441C290.766 194.366 296.584 193.619 302.399 201.299C304.419 203.966 306.509 207.669 308.894 210C313.717 214.713 320.294 217.411 324.57 222.367C328.164 226.535 325.424 228.747 327.25 233.563C328.311 236.359 333.514 240.573 334.649 243.382C339.265 254.809 331.098 265.982 319.2 266.528C330.4 283.712 317.469 295.413 307.3 294.444C304.02 294.131 301.14 292.407 298.2 291.076C297.704 301.925 284.509 307.908 282.1 294.583C279.059 297.277 276.942 300.545 273 302.101C259.433 307.45 252.701 294.756 252.7 283.361C249.155 286.884 245.131 290.906 240.1 292.106C230.503 294.396 221.009 287.076 221.238 277.049C221.344 272.397 224.005 268.412 226.1 264.424C215.284 264.394 205.985 255.563 208.99 244.083C209.932 240.488 212.846 237.923 214.9 234.965C204.298 233.373 199.922 222.458 212.1 218.833V218.132C198.04 214.571 196.618 192.374 211.4 188.402C215.614 187.27 219.551 189.015 223.3 190.778C214.9 177.73 223.107 164.165 238.7 164.855C248.196 165.274 257.649 172.49 264.897 177.73C267.033 179.274 269.915 178.787 272.3 179.813C281.196 183.643 282.799 188.518 282.799 197.441Z" fill="#769413"/>
<path fill-rule="evenodd" clip-rule="evenodd" d="M319.2 217.781C311.211 217.519 305.796 206.74 302.4 200.597C310.238 203.236 317.693 209.31 319.2 217.781Z" fill="#688210"/>
<path fill-rule="evenodd" clip-rule="evenodd" d="M74.9 202.701C74.9446 204.857 75.0854 208.348 75.7574 210.417C80.9908 226.549 92.6327 213.609 100.8 209.715C107.225 228.622 135.352 234.953 146.3 216.028H147C152.784 227.85 159.828 235.665 173.6 235.667C173.607 224.65 178.831 215.636 190.4 213.924C191.493 219.214 193.054 223.15 197.4 226.549C188.186 233.535 181.302 235.839 181.3 248.993C174.425 247.918 170.838 242.752 165.9 238.472C165.863 252.065 160.903 267.796 144.9 267.931H144.2C128.043 267.929 124.844 257.928 118.3 245.486C112.104 257.172 91.5818 254.659 83.3279 246.815C77.7209 241.487 76.9999 235.258 76.9999 227.951C71.7333 229.987 65.9321 231.911 60.2026 230.463C53.6409 228.805 50.1908 215.549 53.8999 210.417C63.35 211.118 74.9 202.701 74.9 202.701Z" fill="#4E5C08"/>
<path fill-rule="evenodd" clip-rule="evenodd" d="M204.4 263.722C201.794 267.916 197.953 271.902 197.474 277.049C196.18 290.949 210.15 298.4 221.9 295.285C220.902 300.926 223.849 308.802 231 307.607C234.975 306.944 238.255 303.739 241.5 301.597C247.004 317.762 268.844 319.058 276.5 303.701C293.982 317.891 267.758 345.363 250.61 330.825C246.997 327.76 245.094 323.529 243.6 319.132H242.2C237.012 329.298 219.369 325.915 212.873 319.102C208.975 315.013 208.601 310.463 208.6 305.104C195.572 308.772 186.054 301.548 194.6 288.972C183.881 288.876 177.114 279.748 177.863 269.333C178.134 265.563 179.802 259.902 183.465 258.034C185.992 256.745 188.305 259.361 190.4 260.445C194.504 262.567 199.838 263.358 204.4 263.722Z" fill="#4E5C08"/>
<path fill-rule="evenodd" clip-rule="evenodd" d="M330.4 261.969C330.4 268.982 329.741 275.143 323.4 279.153C323.385 273.865 321.329 271.117 319.2 266.528C323.263 266.17 326.55 265.125 330.4 261.969Z" fill="#688210"/>
<path fill-rule="evenodd" clip-rule="evenodd" d="M149.1 355.604C147.639 368.017 151.23 378.903 142.438 389.97C131.101 404.237 115.505 395.873 114.8 379.451C98.0001 389.97 87.4073 369.223 98.0001 356.306C85.4849 355.731 79.5305 343.142 81.4284 331.757C83.3762 320.067 95.2359 310.574 107.1 312.329C112.937 313.193 116.783 316.903 121.1 320.535C121.1 258.462 201.95 328.951 149.1 355.604Z" fill="#769413"/>
<path fill-rule="evenodd" clip-rule="evenodd" d="M162.4 372.437C173.773 403.704 114.8 427.496 102.9 392.076C96.5221 394.155 89.8091 395.293 83.3 392.81C72.0983 388.536 68.8581 375.623 75.6 366.125C50.5671 355.093 68.6289 323.077 88.2 318.431C86.1402 323.068 82.6604 326.601 81.5622 331.757C79.1892 342.902 86.2417 355.27 98 356.305C92.6371 365.231 91.9852 381.126 106.4 382.097C109.447 382.302 112.045 380.453 114.8 379.451C116.174 396.754 131.904 403.476 142.967 388.569C151.192 377.489 146.932 367.48 149.1 355.604C165.9 347.538 166.817 331.44 164.5 317.729C187.856 326.795 187.965 367.08 162.4 372.437Z" fill="#688210"/>
<path fill-rule="evenodd" clip-rule="evenodd" d="M66.15 337.368C61.6 350.344 65.1 361.566 75.6 366.125C73.2935 370.518 72.1035 373.753 72.1 378.75C64.3519 378.749 56.9949 377.398 52.479 370.333C45.4729 359.372 52.5236 339.499 66.15 337.368Z" fill="#4E5C08"/>
<path fill-rule="evenodd" clip-rule="evenodd" d="M158.9 401.194C163.872 422.116 127.681 434.951 122.5 413.118C119.42 416.076 117.418 419.987 113.397 421.926C103.093 426.894 100.1 416.877 100.1 408.91C89.4775 417.654 73.0398 413.819 69.2493 399.792C67.725 394.152 70.2468 386.563 72.8 381.556L73.5 383.66C80.2349 395.326 91.5513 394.707 102.9 392.076C108.373 403.598 119.31 410.185 132.3 408.788C149.214 406.969 167.08 390.159 162.4 372.437C168.788 370.581 173.825 366.975 177.45 361.215C195.23 365.486 194.206 392.333 181.3 401.442C174.317 406.37 166.148 404.575 158.9 401.194Z" fill="#4E5C08"/>
<path d="M113.05 347.538C81.9 335.965 116.2 307.559 125.3 329.653C128.45 275.295 189 338.771 142.45 342.629C163.8 361.917 125.3 373.84 125.3 356.306C107.1 372.438 105 352.799 113.05 347.538Z" fill="#8FB01B"/>
<path d="M194.25 25.9513C211.61 35.7707 196.35 56.2279 186.55 65.2291C215.25 71.8923 195.65 113.976 175.7 108.014C186.62 129.897 168.35 130.692 157.85 128.354C152.25 159.917 119.7 145.889 114.1 136.42C91.35 173.944 35.35 136.42 68.6 117.833C34.44 105.769 66.85 74.3471 93.8 83.4652C86.8 62.7041 104.417 64.9953 114.1 68.736C112.14 33.1055 140.117 37.2904 154.35 43.8367C157.5 27.0034 172.55 13.677 194.25 25.9513Z" fill="#8FB01B"/>
<path d="M268.1 187.622C281.54 176.399 283.033 190.193 282.1 198.493C304.5 188.674 307.533 208.196 306.25 219.184C341.6 209.715 329.35 265.476 306.25 250.396C310.1 280.906 274.4 268.983 276.15 256.007C265.23 269.754 261.333 256.591 260.75 248.292C233.87 254.183 236.017 234.381 240.45 223.743C212.45 223.743 219.1 174.646 243.6 191.83C227.5 160.618 265.65 169.736 268.1 187.622Z" fill="#8FB01B"/>
</g>
<defs>
<clipPath id="clip0">
<rect width="336" height="505" fill="white" transform="matrix(-1 0 0 1 336 0)"/>
</clipPath>
</defs>
</svg>
