<svg width="362" height="477" viewBox="0 0 362 477" fill="none" xmlns="http://www.w3.org/2000/svg">
<path d="M119.736 301.62C80.9642 341.76 67.09 313.784 64.9994 294.778C138.551 244.413 296.603 155.314 340.392 201.84C384.181 248.366 351.415 278.623 329.558 287.936C329.102 338.111 287.556 327.848 266.84 316.445C261.664 323.262 256.223 327.091 250.875 328.848C285.085 344.953 270.261 357.497 250.875 340.962C245.173 369.47 234.91 349.514 238.901 329.643C229.676 328.008 221.703 321.69 217.235 316.445C189.411 345.181 176.373 320.436 173.332 304.471C151.437 343.699 128.478 318.915 119.736 301.62Z" fill="#61630D"/>
<path d="M13.1217 247.024C-13.7904 211.902 6.8498 192.478 20.5339 187.156C54.7441 186.016 121.91 197.99 116.893 255.007C111.875 312.024 74.1299 301.951 55.8844 289.787C2.51648 309.857 5.13928 269.641 13.1217 247.024Z" fill="#737504"/>
<path d="M290.795 268.12C267.075 295.033 240.62 277.813 230.356 265.84C242.52 220.416 276.654 134.587 315.882 154.657C355.11 174.727 344.771 209.393 334.698 224.217C361.154 275.305 316.452 274.772 290.795 268.12Z" fill="#737504"/>
<path d="M132.85 292.497C116.429 306.638 104.721 296.869 100.92 290.217L118.595 210.393C163.639 213.814 253.384 231.147 252.015 273.112C250.647 315.076 222.937 303.521 209.253 292.497C196.025 301.62 180.934 294.778 175.042 290.217C163.639 323.058 142.162 305.421 132.85 292.497Z" fill="#2D3C01"/>
<path d="M136.271 311.883L137.411 271.401C146.914 268.55 165.577 263.305 164.209 265.129C162.841 266.954 164.779 310.363 165.92 331.839L206.402 280.524L215.524 289.076L167.06 364.339C163.867 368.444 166.87 431.809 168.77 462.978C209.367 472.101 183.785 473.241 165.92 472.671C159.078 480.425 147.864 474.762 143.113 470.961C92.9378 475.978 115.364 467.73 132.85 462.978C135.586 460.241 135.13 374.412 134.56 331.839L127.148 321.576C117.455 326.708 118.595 315.874 123.157 314.164L103.771 289.076L109.473 277.673L136.271 311.883Z" fill="#992108"/>
<path d="M113.464 301.62L103.771 289.076L109.473 277.673C114.414 284.325 125.551 297.401 123.727 296.489C121.902 295.576 116.125 299.91 113.464 301.62Z" fill="#5A2108"/>
<path d="M136.841 294.778L136.271 269.691L164.779 258.287L164.209 294.208C163.753 291.927 146.154 293.828 136.841 294.778Z" fill="#5A2108"/>
<path d="M205.831 303.901C206.288 301.62 196.899 298.389 192.718 297.629L206.402 280.524L215.524 289.076L205.831 303.901Z" fill="#5A2108"/>
<path d="M151.095 372.891C144.443 388.286 135.13 426.373 151.095 455.566C158.127 439.601 167.972 400.716 151.095 372.891Z" fill="#B73A0A"/>
<path d="M152.912 37.9753C162.605 27.3321 184.272 14.1422 193.395 46.5278C211.64 36.4548 250.07 27.7122 257.824 73.3258C279.11 63.823 326.244 68.7644 291.464 115.518C310.66 126.922 336.507 154.86 286.332 175.386C314.841 186.79 328.525 260.342 253.262 246.087C241.099 263.383 207.877 289.877 172.298 257.491C163.746 266.614 141.395 279.956 120.413 260.342C106.729 290.561 36.0276 293.411 60.5449 228.982C36.0276 222.901 -3.20012 199.219 36.0276 153.15C24.2441 148.018 7.74716 135.018 36.0276 124.071C27.285 104.305 23.7119 64.7733 79.3605 64.7733C80.9801 55.1966 84.8591 43.4648 91.5602 34.5543C81.982 27.7122 68.9834 15.0544 93.6148 19.1597C91.5602 4.90531 98.1761 -17.3313 106.729 22.6601C118.044 18.5235 133.188 21.4146 152.912 37.9753Z" fill="#858704"/>
<path d="M124.137 143.189C36.3308 181.961 61.4182 43.4095 112.734 83.8916C124.137 15.4711 185.715 49.1111 189.136 73.0584C245.583 27.4447 268.39 133.496 197.689 131.216C197.689 192.794 134.97 178.54 124.137 143.189Z" fill="#A9AC06"/>
<path d="M140.832 117.454C138.551 153.376 66.7099 123.727 122.016 94.0774C133.99 9.69271 234.91 99.2096 140.832 117.454Z" fill="#B0B70C"/>
<ellipse cx="209.823" cy="90.0869" rx="20.5261" ry="18.2454" fill="#ABB10C"/>
<circle cx="90.6571" cy="186.446" r="24.5173" fill="#999C05"/>
<circle cx="259.427" cy="138.551" r="23.377" fill="#9DA005"/>
</svg>
