<svg width="431" height="603" viewBox="0 0 431 603" fill="none" xmlns="http://www.w3.org/2000/svg">
<path fill-rule="evenodd" clip-rule="evenodd" d="M107.986 56.8222L124.178 65.7556C132.028 67.6133 135.156 74.2614 142.044 77.6667V80.6445C122.194 88.0442 119.724 123.925 119.711 143.178C137.178 142.981 191.561 112.166 192.667 149.133C215.495 149.136 226.237 157.996 222.444 180.4C233.354 180.407 242.997 185.088 253.711 184.842C261.965 184.655 269.326 179.516 277.533 180.108C285.717 180.7 291.339 186.255 299.867 186.356V187.844H293.911C297.127 192.808 301.478 197.247 307.311 198.267L305.822 204.222C314.744 205.166 323.654 204.222 332.622 204.222V219.111L351.978 217.622C342.654 226.358 320.949 222.089 308.8 222.089V228.044C304.761 229.269 303.533 230.378 301.356 234C307.851 236.944 314.004 238.651 316.244 245.911H323.689V244.422C321.91 242.602 321.729 242.308 320.711 239.956H331.133L332.622 250.378C337.018 249.538 340.538 247.929 344.533 245.911C350.31 263.512 385.321 281.613 402.6 283.133C404.303 296.615 401.755 311.889 405.578 324.822C437.689 312.638 432.679 260.551 425.067 234C422.503 225.052 418.023 207.464 408.556 204.222C407.51 190.34 393.172 187.327 388.608 175.799C378.251 149.628 397.195 117.356 372.757 94.3041C358.119 80.4976 332.592 80.423 318.206 67.6868C312.842 62.938 315.396 54.1737 313.864 47.8889C310.566 34.3491 300.901 25.0428 287.956 20.4146C273.56 15.2677 258.725 18.895 244.778 15.494C227.153 11.1967 217.507 -3.3393 197.133 1.01532C183.849 3.85464 177.514 17.547 165.809 20.6156C157.224 22.8659 147.762 19.734 139.072 21.7736C124.781 25.1284 109.153 42.6793 107.986 56.8222Z" fill="#A6B902"/>
<path fill-rule="evenodd" clip-rule="evenodd" d="M107.056 58.125C106.311 60.3584 107.8 65.7555 107.8 65.7555C75.6046 65.7555 39.7057 68.9657 30.7336 105.956C27.9131 117.585 28.8889 135.583 28.8889 147.458L33.3556 141.689L31.8667 135.733C41.7216 134.495 32.5665 113.102 38.7602 106.666C46.0513 99.0861 65.5558 101.489 75.0445 101.489C67.4995 125.29 78.8541 135.511 85.1615 156.831C92.6468 182.133 83.4399 222.022 124.178 221.972C133.528 221.96 141.87 217.25 150.978 216.133C153.099 233.023 170.974 248.954 185.222 256.333C184.668 260.692 185.607 263.975 186.711 268.244C182.164 269.218 182.339 271.233 182.244 275.689H179.267C179.263 269.947 180.207 262.244 175.95 257.662C170.421 251.714 161.004 253.136 153.956 252.618C140.548 251.632 129.093 243.294 115.244 247.366C97.2698 252.652 98.4516 264.792 88.0313 276.787C81.3536 284.475 72.6138 287.656 69.0889 298.022C96.0043 311.973 115.473 322.001 146.511 323.333C151.346 339.659 181.528 356.563 197.133 352.679C208.802 349.774 214.868 352.817 215 338.222C229.893 336.398 254.653 327.375 261.156 348.644C276.188 351.436 290.366 354.33 305.822 352.858C313.345 352.141 320.968 347.954 328.118 347.688C332.535 347.524 334.818 351.501 338.809 351.938C342.797 352.376 347.969 348.103 351.978 347.155C349.56 350.198 348.043 351.468 344.533 353.111V354.6C358.89 355.657 363.522 362.489 375.8 368C372.729 373.905 372.822 379.323 372.822 385.866C353.022 386.73 319.105 386.674 302.844 397.778V399.266C330.015 399.266 374.276 401.371 390.724 375.31C397.72 364.225 394.735 349.203 401.147 338.706C408.613 326.478 419.352 319.95 425.306 305.653C416.836 311.106 410.417 322.403 405.764 323.333C404.089 321.845 405.537 297.127 402.972 283.319C398.319 268.431 346.432 249.447 344.533 245.911C342.634 242.375 335.972 245.167 335.972 245.167C327.597 228.044 314.25 240.911 323.689 245.911H316.244C314.903 238.003 308.348 236.259 301.356 234C303.823 231.138 305.437 229.69 308.8 228.044H322.014C332.477 228.044 350.861 229.347 352.722 215.389C352.722 215.389 343.76 205.279 335.042 202.361C325.117 199.039 305.822 204.222 305.822 204.222C317.361 178.167 285.536 176.63 276.417 179.097C267.855 179.421 261.978 184.47 253.711 184.796C243.252 185.205 233.258 180.402 222.444 180.4C228.631 157.021 214.78 149.133 192.667 149.133C192.246 111.737 137.325 142.651 119.711 143.178C119.767 122.787 124.178 95.3473 142.044 80.6444C144.278 70.2223 132.391 66.8778 124.178 65.7555C130.319 54.4028 111.601 44.4887 107.056 58.125Z" fill="#7C9402"/>
<path fill-rule="evenodd" clip-rule="evenodd" d="M292.422 409.689L295.958 405.222C287.034 407.08 276.8 410.208 268.042 412.358C236.848 420.011 197.282 424.462 167.356 412.358C151.413 405.911 140.894 390.782 125.237 384.808C98.3344 374.547 64.4436 365.301 47.5611 339.689C38.7215 326.279 41.2318 306.803 40.0556 290.764C39.39 281.671 33.6876 273.995 30.6532 265.267C16.7846 225.353 -1.98377 199.08 16.9778 156.578C3.38591 160.76 0.604858 180.13 0.600019 192.311C0.592388 212.056 1.59254 227.006 8.1604 245.911C12.8115 259.3 22.7314 271.654 22.9276 286.111C23.2765 311.828 26.8739 341.282 47.0146 359.863C67.613 378.867 95.768 383.004 119.711 395.25C131.146 401.096 138.929 411.866 150.978 417.336C193.199 436.502 255.014 437.792 292.422 409.689Z" fill="#7C9402"/>
<path fill-rule="evenodd" clip-rule="evenodd" d="M33.3556 141.689C33.3556 141.689 11.2084 153.972 9.66774 172.956C7.12192 180.495 5.83272 191.682 6.74858 199.622C9.66922 224.942 24.7159 244.554 31.1252 268.244C36.3259 287.47 31.4141 306.861 39.6551 326.311C55.0963 362.752 92.1574 371.558 125.237 385.331C137.667 390.506 146.433 402.563 158.422 408.959C181.675 421.365 211.497 423.236 237.333 421.466C248.69 420.688 262.388 420.107 273.067 415.979C293.167 409.875 305.251 399.268 321.422 399.267H316.244C316.244 399.267 302.844 399.267 302.844 397.778C302.844 396.289 343.251 388.448 365.75 386.611C384.361 387.542 382.5 372.451 375.8 368C364.302 360.362 358.957 354.961 344.533 354.6C348.676 353.39 362.958 341.014 341.556 341.014C311.847 344.993 293.133 352.685 261.156 348.644C257.556 327.227 226.167 329.847 215 338.222C210.347 342.875 208.222 349.953 197.133 352.3C180.547 355.81 157.306 335.431 146.511 323.333C134.042 316.819 122.868 319.544 110.778 314.958C97.75 310.017 110.778 296.347 76.3473 296.347C78.2084 284.25 82.9896 284.767 89.0642 276.787C98.4089 264.511 98.3754 253.491 115.244 247.847C126.977 243.92 138.112 249.496 149.489 252.218C167.145 256.441 173.311 273.642 179.267 275.689C185.222 277.736 189.875 276.806 189.875 276.806C196.389 276.806 202.903 261.917 191.736 268.244L185.222 256.333C173.125 241.444 160.097 234.931 150.978 216.133C132.181 204.222 124.267 225.763 109.295 218.324C82.4554 204.985 99.6112 182.819 85.8036 156.831C83.3134 147.172 78.9342 137.697 76.3473 127.917C73.8943 118.644 81 112.097 78.2084 99.0694C66.1112 86.9722 44.0384 93.6986 38.1945 101.489C33.3854 107.902 27.0278 126.986 33.3556 141.689Z" fill="#5B7002"/>
<path fill-rule="evenodd" clip-rule="evenodd" d="M229.889 452.867C229.889 490.802 240.311 526.842 240.311 564.533H241.8V545.178H243.289V558.578H244.778C244.778 540.97 246.395 516.53 244.519 499.022C243.434 488.901 239.269 479.488 238.822 469.244C251.906 473.998 252.859 497.369 255.2 509.444H256.689C255.122 489.596 251.588 469.784 250.733 449.889L229.889 452.867ZM195.644 452.867C195.644 481.055 189.313 423.359 182.244 450.819C181.045 455.475 184.291 483.106 182.244 497.347C177.846 527.957 174.904 571.171 171.822 580.911C200.614 580.572 207.524 526.189 208.486 503.861V505.722C208.486 533.386 204.496 563.938 207.556 591.333H201.6V592.822C213.98 592.822 225.151 591.486 237.333 589.844C236.496 592.526 236.107 594.493 235.844 597.289H213.511V598.778C227.28 601.335 241.986 604.361 255.2 598.778V597.289H250.733C257.785 588.13 279.942 563.843 250.733 569L249.244 561.555C247.288 562.698 245.921 556.622 244.778 558.578H243.289C242.792 569.977 239.28 579.941 229.889 586.867C229.889 567.269 230.793 546.722 228.089 527.311C224.587 502.184 215 478.507 215 452.867H195.644Z" fill="#874D17"/>
<path fill-rule="evenodd" clip-rule="evenodd" d="M178.708 426.625L180.756 461.8H183.361L182.431 450.819L185.222 449.889C185.222 483.18 187.698 517.594 177.264 549.644C174.037 559.555 154.097 578.648 158.754 588.097C162.405 595.506 171.945 597.659 179.267 598.895C203.833 604.361 244.778 601.569 244.778 601.569L234.356 600.267C227.265 600.265 220.533 599.666 213.511 598.778V597.289H235.845L237.333 589.844C225.214 590.835 213.902 592.822 201.6 592.822V591.333H207.556C205.665 563.456 208.486 535.573 208.486 507.583V498.278C206.755 520.029 200.305 579.986 171.822 580.911C191.651 538.435 195.645 499.461 195.645 452.867H215C215 479.099 224.508 503.105 228.089 528.8C230.726 547.72 229.889 567.766 229.889 586.867C244.759 579.424 244.957 559.918 243.847 545.736L241.8 540.153V564.533H240.311C240.311 526.799 229.889 490.792 229.889 452.867C236.957 452.563 243.739 450.793 250.733 449.889V427.556C226.809 433.267 202.646 428.531 178.708 426.625Z" fill="#612F0D"/>
<path fill-rule="evenodd" clip-rule="evenodd" d="M165.681 595.056C153.377 579.238 165.316 578.185 169.764 562.3C155.994 569.272 145.809 589.134 165.681 595.056Z" fill="#874D17"/>
<path fill-rule="evenodd" clip-rule="evenodd" d="M180.756 461.8C180.756 497.224 181.593 531.923 168.472 565.278L172.194 562.486C187.863 529.107 183.733 497.377 183.733 461.8H180.756Z" fill="#6C5241"/>
<path fill-rule="evenodd" clip-rule="evenodd" d="M235.472 466.639C240.125 477.806 242.706 489.49 243.847 500.139C246.086 521.032 244.778 543.518 244.778 564.533C244.778 564.533 249.245 564.059 249.245 561.555C249.245 560.625 250.733 569 250.733 569C280.061 566.004 254.258 589.993 249.245 599.708C264.8 601.231 278.313 587.909 275.711 571.978C272.285 551.005 262.562 528.986 258.178 507.956C256.246 498.689 248.5 466.639 235.472 466.639Z" fill="#90735A"/>
</svg>
