<svg width="1280" height="398" viewBox="0 0 1280 398" fill="none" xmlns="http://www.w3.org/2000/svg">
<path d="M679 34.5001C571.4 12.1001 531.833 32.5001 525.5 45.5001L160.5 113.5L225.5 404.5H901.5L654 156.5C707.167 125.167 786.6 56.9001 679 34.5001Z" fill="#88D8F1"/>
<path d="M822 398H744C689.646 271.175 580.755 228.707 493 200.5C447.5 185.875 434 177.5 430 165.5L609.5 171.5L822 398Z" fill="#499DB9"/>
<path d="M382 402C410.4 400.4 499 341.5 490.5 304L318.5 396.5C330 399.833 353.6 403.6 382 402Z" fill="#499DB9"/>
<path d="M674.5 82.5C275 97 304 192 289 221.5L220 209.5L348 62L674.5 82.5Z" fill="#61B2CD"/>
<path d="M648 81.5C664.5 81.5 678.5 81.5 683.5 80C690.5 77.9 689 69.1864 679 65.5C384.594 -43.0279 117.188 7.65309 -1.5 53V251.5L260 213C305.2 92.6 529.5 80 648 81.5Z" fill="#5F9604"/>
<path d="M648 81.4955C664.5 81.4955 678.5 81.4955 683.5 79.9955C687.137 78.9045 688.479 76.0287 687.528 73.0001C684.5 76.5001 681.308 78.0001 674 78.0001H633C514.5 76.5001 289 78.0001 229.5 217.486L260 212.995C305.2 92.5954 529.5 79.9955 648 81.4955Z" fill="#B76930"/>
<path d="M0.5 398V227.5C138.5 180.5 271.574 210.138 348 227.5C430.5 248.5 490.5 282 491 306.5C487.5 329.5 448.038 360.582 407.5 379.5C332.5 414.5 94.0378 418.391 0.5 398Z" fill="#70AB13"/>
<path d="M491 307C490 328.5 448.038 360.586 407.5 379.504C335.163 413.261 110.769 418.08 11 400.085C182 410.234 330.5 402 396.5 370.5C445.27 347.224 486.345 320.25 487.5 296C490 299.5 491 303 491 307Z" fill="#B76930"/>
<path d="M539.5 27C750 -16.5 1093.5 3.00003 1281 86V301L710 92.5C728.5 78 710 71.4566 699 65C662.2 43.4 577.333 30.6667 539.5 27Z" fill="#5F9604"/>
<path d="M697 61.5001C656 41.5001 607.833 34.3567 570 30.6901C612.085 36.6427 670.231 48.11 699 64.9963C705.36 68.7291 714.226 72.491 717 77.8027C717 70.5001 708.464 67.0921 697 61.5001Z" fill="#B76930"/>
<path d="M451 179C665.5 228.501 732.499 293 786 398.5H1284.5V245.5C952.501 39.5 591.999 75.5 451 145C413.639 163.416 432.5 174.73 451 179Z" fill="#70AB13"/>
<path d="M451.005 179.003C665.504 228.504 732.504 293.003 786.005 398.503H826.5C759.5 295 692 226 467.5 178C448.933 174.03 435.5 171 430.313 161C426.128 170.156 438.647 176.151 451.005 179.003Z" fill="#B76930"/>
</svg>
