<svg width="1279" height="311" viewBox="0 0 1279 311" fill="none" xmlns="http://www.w3.org/2000/svg">
<path d="M190.766 88.2164C298.205 51.565 582.419 0.252895 859.761 88.2164H190.766Z" fill="#8BC62E"/>
<path d="M512.458 101.336C651.379 28.3663 1106.22 13.7245 1283 68.7018V276.888H512.458V101.336Z" fill="#5F9604"/>
<path d="M1060.9 42.6102C1078.39 73.8472 1017.8 71.973 982.816 48.2329C988.438 69.4741 969.698 72.576 950.334 66.3503C933.877 61.0593 917.228 51.9813 900.363 55.7297V48.2329C936.592 45.7339 953.208 70.0988 971.572 61.3524C979.068 57.7825 981.567 43.5658 949.71 35.738H964.701C984.065 38.8617 1000.62 52.1059 1025.92 58.8535C1044.66 63.8514 1065.88 56.5493 1053.4 43.2349L1060.9 42.6102Z" fill="#F2C371"/>
<path d="M940.34 93.2141C1028.42 93.2141 1077.76 46.3585 1120.24 41.9854C1135.44 42.6874 1131.48 41.9854 1159.59 45.7339C1092.13 56.3547 1033.41 133.198 899.738 120.703C831.027 132.573 722.963 61.3523 599.284 70.7236C623.448 66.4368 639.516 60.2085 669.244 57.604C736.081 64.4762 852.265 93.2141 940.34 93.2141Z" fill="#93DEF2"/>
<path d="M759.817 71.9731C816.862 81.7584 879.307 89.466 933.469 89.466C994.584 89.466 1033.3 75.3759 1067.77 60.103C974.217 118.737 825.245 86.244 760.121 72.0394L759.817 71.9731Z" fill="#499DB9"/>
<path d="M1222.87 72.0633V68.2236H1220.3V72.0633C1221.42 72.7459 1222.48 72.3477 1222.87 72.0633Z" fill="#553D00"/>
<path d="M1227.54 51.5848C1224.18 50.5609 1221.94 44.7587 1221.24 41.9856C1219.93 48.9823 1216.33 50.8737 1214.7 50.9449C1216.01 52.1394 1217.73 52.0114 1218.44 51.7981C1217.69 52.822 1217.19 53.3624 1217.03 53.5046C1217.19 53.5359 1217.35 53.5593 1217.5 53.5756C1217.13 54.315 1213.77 56.3962 1212.13 57.3443C1215.12 57.6856 1216.65 56.6333 1217.03 56.0644C1217.03 57.0883 1215.79 59.0508 1215.17 59.9041C1215.25 59.9161 1215.32 59.925 1215.4 59.9309C1214.47 60.8463 1212.04 62.5919 1209.8 62.2506C1210.34 63.1038 1212.08 64.2131 1214.7 62.6772C1214 63.2461 1211.99 64.597 1209.56 64.597C1210.18 65.1002 1212.5 65.6702 1214 64.8104C1213.13 65.966 1211.74 67.5105 1211.43 68.2234C1214.05 68.906 1216.1 66.0903 1216.8 64.597C1216.61 65.7916 1214.7 68.2234 1213.77 69.29C1216.94 69.802 1218.98 66.5169 1219.6 64.8104C1219.23 68.0528 1220.54 70.001 1221.24 70.5699C1223.11 68.6927 1223.26 66.8013 1223.11 66.0903C1224.6 68.4794 1227 69.0767 1228.01 69.0767C1228.38 68.2234 1226.61 65.3081 1225.67 63.9571C1227.54 66.1756 1230.5 66.4458 1231.75 66.3036C1231.19 66.3036 1228.4 63.1749 1227.08 61.6106C1229.88 64.6824 1233.22 63.6016 1234.55 62.6772C1231.56 63.0185 1227.25 59.4064 1225.46 57.5576C1225.45 57.311 1225.44 57.0874 1225.44 56.9177C1228.43 58.6242 1230.27 58.1976 1230.81 57.771C1227.08 56.4057 1225 53.3624 1224.43 52.0114C1224.39 51.6885 1224.33 51.3798 1224.27 51.1582L1227.54 51.5848Z" fill="#407501"/>
<path d="M1224.43 52.0114C1224.39 51.6885 1224.33 51.3798 1224.27 51.1582L1227.54 51.5848C1224.18 50.5609 1221.94 44.7587 1221.24 41.9856C1219.93 48.9823 1216.33 50.8737 1214.7 50.9449C1216.01 52.1394 1217.73 52.0114 1218.44 51.7981C1217.69 52.822 1217.19 53.3624 1217.03 53.5046C1217.19 53.5359 1217.35 53.5593 1217.5 53.5756M1224.43 52.0114C1224.51 52.621 1224.52 53.2815 1224.27 53.5046C1223.57 53.2202 1222.08 52.4381 1221.7 51.5848C1221.27 52.386 1219.84 53.8268 1217.5 53.5756M1224.43 52.0114C1225 53.3624 1227.08 56.4057 1230.81 57.771C1230.27 58.1976 1228.43 58.6242 1225.44 56.9177C1225.44 57.0874 1225.45 57.311 1225.46 57.5576M1217.5 53.5756C1217.13 54.315 1213.77 56.3962 1212.13 57.3443C1215.12 57.6856 1216.65 56.6333 1217.03 56.0644C1217.03 57.0883 1215.79 59.0508 1215.17 59.9041C1215.25 59.9161 1215.32 59.925 1215.4 59.9309M1225.46 57.5576C1225.51 58.2412 1225.63 59.1013 1225.91 59.4775C1225.05 59.2642 1223.01 58.4536 1221.7 56.9177C1221.47 57.8421 1220.68 59.7761 1219.37 60.1174C1219.45 59.3353 1219.56 57.6003 1219.37 56.9177C1218.92 58.0154 1217.51 60.0928 1215.4 59.9309M1225.46 57.5576C1227.25 59.4064 1231.56 63.0185 1234.55 62.6772C1233.22 63.6016 1229.88 64.6824 1227.08 61.6106C1228.4 63.1749 1231.19 66.3036 1231.75 66.3036C1230.5 66.4458 1227.54 66.1756 1225.67 63.9571C1226.61 65.3081 1228.38 68.2234 1228.01 69.0767C1227 69.0767 1224.6 68.4794 1223.11 66.0903C1223.26 66.8013 1223.11 68.6927 1221.24 70.5699C1220.54 70.001 1219.23 68.0528 1219.6 64.8104C1218.98 66.5169 1216.94 69.802 1213.77 69.29C1214.7 68.2234 1216.61 65.7916 1216.8 64.597C1216.1 66.0903 1214.05 68.906 1211.43 68.2234C1211.74 67.5105 1213.13 65.966 1214 64.8104C1212.5 65.6702 1210.18 65.1002 1209.56 64.597C1211.99 64.597 1214 63.2461 1214.7 62.6772C1212.08 64.2131 1210.34 63.1038 1209.8 62.2506C1212.04 62.5919 1214.47 60.8463 1215.4 59.9309" stroke="#336300"/>
<path d="M1264.1 179.518V175.679H1261.53V179.518C1262.65 180.201 1263.71 179.803 1264.1 179.518Z" fill="#553D00"/>
<path d="M1268.77 159.04C1265.41 158.016 1263.16 152.214 1262.46 149.441C1261.16 156.438 1257.56 158.329 1255.93 158.4C1257.23 159.595 1258.96 159.467 1259.66 159.253C1258.91 160.277 1258.42 160.818 1258.26 160.96C1258.42 160.991 1258.58 161.015 1258.73 161.031C1258.35 161.77 1254.99 163.851 1253.36 164.8C1256.35 165.141 1257.87 164.089 1258.26 163.52C1258.26 164.544 1257.02 166.506 1256.39 167.359C1256.47 167.371 1256.55 167.38 1256.63 167.386C1255.69 168.302 1253.26 170.047 1251.02 169.706C1251.57 170.559 1253.31 171.668 1255.93 170.133C1255.23 170.701 1253.22 172.052 1250.79 172.052C1251.41 172.556 1253.73 173.125 1255.23 172.266C1254.36 173.421 1252.97 174.966 1252.66 175.679C1255.27 176.361 1257.33 173.546 1258.03 172.052C1257.84 173.247 1255.93 175.679 1254.99 176.745C1258.17 177.257 1260.21 173.972 1260.83 172.266C1260.46 175.508 1261.76 177.456 1262.46 178.025C1264.33 176.148 1264.49 174.257 1264.33 173.546C1265.83 175.935 1268.22 176.532 1269.24 176.532C1269.61 175.679 1267.83 172.763 1266.9 171.412C1268.77 173.631 1271.73 173.901 1272.97 173.759C1272.41 173.759 1269.63 170.63 1268.3 169.066C1271.1 172.138 1274.45 171.057 1275.77 170.133C1272.79 170.474 1268.47 166.862 1266.69 165.013C1266.67 164.766 1266.67 164.543 1266.67 164.373C1269.66 166.08 1271.49 165.653 1272.04 165.226C1268.3 163.861 1266.23 160.818 1265.66 159.467C1265.62 159.144 1265.55 158.835 1265.5 158.613L1268.77 159.04Z" fill="#407501"/>
<path d="M1265.66 159.467C1265.62 159.144 1265.55 158.835 1265.5 158.613L1268.77 159.04C1265.41 158.016 1263.16 152.214 1262.46 149.441C1261.16 156.438 1257.56 158.329 1255.93 158.4C1257.23 159.595 1258.96 159.467 1259.66 159.253C1258.91 160.277 1258.42 160.818 1258.26 160.96C1258.42 160.991 1258.58 161.015 1258.73 161.031M1265.66 159.467C1265.74 160.076 1265.74 160.737 1265.5 160.96C1264.8 160.676 1263.3 159.893 1262.93 159.04C1262.49 159.841 1261.07 161.282 1258.73 161.031M1265.66 159.467C1266.23 160.818 1268.3 163.861 1272.04 165.226C1271.49 165.653 1269.66 166.08 1266.67 164.373C1266.67 164.543 1266.67 164.766 1266.69 165.013M1258.73 161.031C1258.35 161.77 1254.99 163.851 1253.36 164.8C1256.35 165.141 1257.87 164.089 1258.26 163.52C1258.26 164.544 1257.02 166.506 1256.39 167.359C1256.47 167.371 1256.55 167.38 1256.63 167.386M1266.69 165.013C1266.74 165.697 1266.86 166.557 1267.13 166.933C1266.28 166.719 1264.24 165.909 1262.93 164.373C1262.7 165.297 1261.9 167.231 1260.6 167.573C1260.67 166.791 1260.78 165.056 1260.6 164.373C1260.15 165.471 1258.74 167.548 1256.63 167.386M1266.69 165.013C1268.47 166.862 1272.79 170.474 1275.77 170.133C1274.45 171.057 1271.1 172.138 1268.3 169.066C1269.63 170.63 1272.41 173.759 1272.97 173.759C1271.73 173.901 1268.77 173.631 1266.9 171.412C1267.83 172.763 1269.61 175.679 1269.24 176.532C1268.22 176.532 1265.83 175.935 1264.33 173.546C1264.49 174.257 1264.33 176.148 1262.46 178.025C1261.76 177.456 1260.46 175.508 1260.83 172.266C1260.21 173.972 1258.17 177.257 1254.99 176.745C1255.93 175.679 1257.84 173.247 1258.03 172.052C1257.33 173.546 1255.27 176.361 1252.66 175.679C1252.97 174.966 1254.36 173.421 1255.23 172.266C1253.73 173.125 1251.41 172.556 1250.79 172.052C1253.22 172.052 1255.23 170.701 1255.93 170.133C1253.31 171.668 1251.57 170.559 1251.02 169.706C1253.26 170.047 1255.69 168.302 1256.63 167.386" stroke="#336300"/>
<path d="M656.944 96.9908V92.521H654.375V96.9908C655.496 97.7854 656.555 97.3219 656.944 96.9908Z" fill="#553D00"/>
<path d="M661.614 73.1518C658.251 71.9599 656.009 65.2055 655.309 61.9773C654.001 70.1223 650.405 72.3241 648.771 72.4069C650.078 73.7975 651.806 73.6485 652.507 73.4002C651.76 74.5921 651.261 75.2212 651.106 75.3867C651.265 75.4231 651.421 75.4504 651.573 75.4694C651.199 76.3301 647.837 78.7528 646.202 79.8566C649.191 80.2539 650.717 79.0288 651.106 78.3666C651.106 79.5586 649.86 81.8431 649.238 82.8364C649.316 82.8504 649.394 82.8607 649.471 82.8676C648.537 83.9333 646.109 85.9653 643.867 85.568C644.412 86.5613 646.155 87.8526 648.771 86.0646C648.07 86.7268 646.062 88.2995 643.633 88.2995C644.256 88.8853 646.576 89.5488 648.07 88.5479C647.202 89.8932 645.814 91.6911 645.501 92.521C648.117 93.3157 650.172 90.0378 650.872 88.2995C650.685 89.6902 648.771 92.521 647.837 93.7627C651.012 94.3586 653.052 90.5345 653.674 88.5479C653.301 92.3224 654.608 94.5904 655.309 95.2526C657.177 93.0673 657.333 90.8655 657.177 90.0378C658.672 92.819 661.069 93.5143 662.081 93.5143C662.454 92.521 660.68 89.1273 659.746 87.5546C661.614 90.1371 664.572 90.4517 665.817 90.2861C665.257 90.2861 662.47 86.6441 661.147 84.823C663.949 88.3989 667.296 87.1407 668.619 86.0646C665.63 86.462 661.318 82.257 659.535 80.1049C659.519 79.8178 659.512 79.5574 659.512 79.3599C662.501 81.3465 664.338 80.8498 664.883 80.3532C661.147 78.7639 659.072 75.2212 658.502 73.6485C658.46 73.2725 658.399 72.9132 658.345 72.6552L661.614 73.1518Z" fill="#407501"/>
<path d="M658.502 73.6485C658.46 73.2725 658.399 72.9132 658.345 72.6552L661.614 73.1518C658.251 71.9599 656.009 65.2055 655.309 61.9773C654.001 70.1223 650.405 72.3241 648.771 72.4069C650.078 73.7975 651.806 73.6485 652.507 73.4002C651.76 74.5921 651.261 75.2212 651.106 75.3867C651.265 75.4231 651.421 75.4504 651.573 75.4694M658.502 73.6485C658.58 74.3581 658.589 75.127 658.345 75.3867C657.644 75.0556 656.15 74.1451 655.776 73.1518C655.337 74.0845 653.911 75.7617 651.573 75.4694M658.502 73.6485C659.072 75.2212 661.147 78.7639 664.883 80.3532C664.338 80.8499 662.501 81.3465 659.512 79.3599C659.512 79.5574 659.519 79.8178 659.535 80.1049M651.573 75.4694C651.199 76.3301 647.837 78.7528 646.202 79.8566C649.191 80.2539 650.717 79.0288 651.106 78.3666C651.106 79.5586 649.86 81.8431 649.238 82.8364C649.316 82.8504 649.394 82.8607 649.471 82.8676M659.535 80.1049C659.581 80.9006 659.705 81.9018 659.979 82.3398C659.123 82.0915 657.084 81.1478 655.776 79.3599C655.542 80.436 654.749 82.6874 653.441 83.0848C653.519 82.1742 653.628 80.1545 653.441 79.3599C652.99 80.6378 651.583 83.0561 649.471 82.8676M659.535 80.1049C661.318 82.257 665.63 86.462 668.619 86.0646C667.296 87.1407 663.949 88.3989 661.147 84.823C662.47 86.6441 665.257 90.2861 665.817 90.2861C664.572 90.4517 661.614 90.1371 659.746 87.5546C660.68 89.1273 662.454 92.521 662.081 93.5143C661.069 93.5143 658.672 92.819 657.177 90.0378C657.333 90.8655 657.177 93.0673 655.309 95.2526C654.608 94.5904 653.301 92.3224 653.674 88.5479C653.052 90.5345 651.012 94.3586 647.837 93.7627C648.771 92.521 650.685 89.6902 650.872 88.2995C650.172 90.0378 648.117 93.3157 645.501 92.521C645.814 91.6911 647.202 89.8932 648.07 88.5479C646.576 89.5488 644.256 88.8853 643.633 88.2995C646.062 88.2995 648.07 86.7268 648.771 86.0646C646.155 87.8526 644.412 86.5613 643.867 85.568C646.109 85.9653 648.537 83.9333 649.471 82.8676" stroke="#336300"/>
<path d="M643.704 100.863V97.6536H641.521V100.863C642.473 101.434 643.373 101.101 643.704 100.863Z" fill="#553D00"/>
<path d="M647.673 83.7455C644.815 82.8897 642.91 78.0397 642.314 75.7217C641.203 81.5702 638.146 83.1512 636.757 83.2106C637.868 84.2091 639.337 84.1022 639.932 83.9238C639.297 84.7797 638.874 85.2314 638.742 85.3503C638.877 85.3764 639.009 85.396 639.138 85.4096C638.821 86.0277 635.963 87.7673 634.573 88.5598C637.114 88.8451 638.411 87.9655 638.742 87.49C638.742 88.3459 637.683 89.9863 637.154 90.6995C637.221 90.7096 637.287 90.717 637.352 90.7219C636.558 91.4871 634.494 92.9462 632.588 92.6609C633.052 93.3742 634.534 94.3014 636.757 93.0175C636.161 93.493 634.454 94.6223 632.39 94.6223C632.919 95.0429 634.891 95.5193 636.161 94.8006C635.423 95.7666 634.243 97.0576 633.978 97.6536C636.201 98.2241 637.948 95.8705 638.543 94.6223C638.384 95.6208 636.757 97.6536 635.963 98.5451C638.662 98.973 640.396 96.2271 640.925 94.8006C640.607 97.5109 641.719 99.1395 642.314 99.6149C643.902 98.0458 644.034 96.4648 643.902 95.8705C645.172 97.8675 647.21 98.3668 648.07 98.3668C648.388 97.6536 646.879 95.2167 646.085 94.0874C647.673 95.9418 650.188 96.1677 651.246 96.0488C650.77 96.0488 648.401 93.4336 647.276 92.126C649.658 94.6936 652.503 93.7902 653.628 93.0175C651.087 93.3028 647.422 90.2835 645.907 88.7382C645.893 88.532 645.887 88.3451 645.887 88.2032C648.428 89.6297 649.989 89.2731 650.452 88.9165C647.276 87.7753 645.513 85.2314 645.028 84.1022C644.993 83.8322 644.94 83.5742 644.895 83.3889L647.673 83.7455Z" fill="#407501"/>
<path d="M645.028 84.1022C644.993 83.8322 644.94 83.5742 644.895 83.3889L647.673 83.7455C644.815 82.8897 642.91 78.0397 642.314 75.7217C641.203 81.5702 638.146 83.1512 636.757 83.2106C637.868 84.2091 639.337 84.1022 639.932 83.9238C639.297 84.7797 638.874 85.2314 638.742 85.3503C638.877 85.3764 639.009 85.396 639.138 85.4096M645.028 84.1022C645.095 84.6117 645.102 85.1638 644.895 85.3503C644.299 85.1126 643.029 84.4588 642.711 83.7455C642.338 84.4153 641.126 85.6196 639.138 85.4096M645.028 84.1022C645.513 85.2314 647.276 87.7753 650.452 88.9165C649.989 89.2731 648.428 89.6297 645.887 88.2032C645.887 88.3451 645.893 88.532 645.907 88.7382M639.138 85.4096C638.821 86.0277 635.963 87.7673 634.573 88.5598C637.114 88.8451 638.411 87.9655 638.742 87.49C638.742 88.3459 637.683 89.9863 637.154 90.6995C637.221 90.7096 637.287 90.717 637.352 90.7219M645.907 88.7382C645.946 89.3095 646.051 90.0284 646.284 90.3429C645.556 90.1646 643.823 89.487 642.711 88.2032C642.513 88.9759 641.838 90.5926 640.726 90.8779C640.793 90.2241 640.885 88.7738 640.726 88.2032C640.343 89.1208 639.147 90.8573 637.352 90.7219M645.907 88.7382C647.422 90.2835 651.087 93.3028 653.628 93.0175C652.503 93.7902 649.658 94.6936 647.276 92.126C648.401 93.4336 650.77 96.0488 651.246 96.0488C650.188 96.1677 647.673 95.9418 646.085 94.0874C646.879 95.2167 648.388 97.6536 648.07 98.3668C647.21 98.3668 645.172 97.8675 643.902 95.8705C644.034 96.4648 643.902 98.0458 642.314 99.6149C641.719 99.1395 640.607 97.5109 640.925 94.8006C640.396 96.2271 638.662 98.973 635.963 98.5451C636.757 97.6536 638.384 95.6208 638.543 94.6223C637.948 95.8705 636.201 98.2241 633.978 97.6536C634.243 97.0576 635.423 95.7666 636.161 94.8006C634.891 95.5193 632.919 95.0429 632.39 94.6223C634.454 94.6223 636.161 93.493 636.757 93.0175C634.534 94.3014 633.052 93.3742 632.588 92.6609C634.494 92.9462 636.558 91.4871 637.352 90.7219" stroke="#336300"/>
<path d="M747.757 126.917V121.817H750.325V126.917C749.205 127.823 748.146 127.294 747.757 126.917Z" fill="#553D00"/>
<path d="M743.086 99.7169C746.449 98.3569 748.691 90.6503 749.391 86.967C750.699 96.2603 754.295 98.7725 755.93 98.8669C754.622 100.454 752.894 100.284 752.193 100C752.941 101.36 753.439 102.078 753.594 102.267C753.435 102.308 753.279 102.34 753.127 102.361C753.501 103.343 756.864 106.107 758.498 107.367C755.509 107.82 753.984 106.422 753.594 105.667C753.594 107.027 754.84 109.633 755.463 110.767C755.384 110.783 755.306 110.795 755.229 110.802C756.163 112.018 758.592 114.337 760.833 113.883C760.288 115.017 758.545 116.49 755.93 114.45C756.63 115.206 758.638 117 761.067 117C760.444 117.668 758.125 118.425 756.63 117.283C757.498 118.818 758.887 120.87 759.199 121.817C756.583 122.723 754.529 118.983 753.828 117C754.015 118.587 755.93 121.817 756.864 123.233C753.688 123.913 751.649 119.55 751.026 117.283C751.399 121.59 750.092 124.178 749.391 124.933C747.523 122.44 747.367 119.928 747.523 118.983C746.029 122.157 743.631 122.95 742.619 122.95C742.246 121.817 744.02 117.945 744.955 116.15C743.086 119.097 740.129 119.456 738.883 119.267C739.444 119.267 742.23 115.111 743.553 113.033C740.751 117.113 737.404 115.678 736.081 114.45C739.07 114.903 743.382 110.106 745.165 107.65C745.181 107.323 745.188 107.026 745.188 106.8C742.199 109.067 740.362 108.5 739.817 107.934C743.553 106.12 745.628 102.078 746.199 100.284C746.24 99.8546 746.302 99.4447 746.356 99.1503L743.086 99.7169Z" fill="#407501"/>
<path d="M746.199 100.284C746.24 99.8546 746.302 99.4447 746.356 99.1503L743.086 99.7169C746.449 98.3569 748.691 90.6503 749.391 86.967C750.699 96.2603 754.295 98.7725 755.93 98.8669C754.622 100.454 752.894 100.284 752.193 100C752.941 101.36 753.439 102.078 753.594 102.267C753.435 102.308 753.279 102.34 753.127 102.361M746.199 100.284C746.12 101.093 746.111 101.971 746.356 102.267C747.056 101.889 748.551 100.85 748.924 99.7169C749.363 100.781 750.79 102.695 753.127 102.361M746.199 100.284C745.628 102.078 743.553 106.12 739.817 107.934C740.362 108.5 742.199 109.067 745.188 106.8C745.188 107.026 745.181 107.323 745.165 107.65M753.127 102.361C753.501 103.343 756.864 106.107 758.498 107.367C755.509 107.82 753.984 106.422 753.594 105.667C753.594 107.027 754.84 109.633 755.463 110.767C755.384 110.783 755.306 110.795 755.229 110.802M745.165 107.65C745.119 108.558 744.996 109.7 744.721 110.2C745.577 109.917 747.617 108.84 748.924 106.8C749.158 108.028 749.952 110.597 751.259 111.05C751.182 110.011 751.073 107.707 751.259 106.8C751.71 108.258 753.117 111.017 755.229 110.802M745.165 107.65C743.382 110.106 739.07 114.903 736.081 114.45C737.404 115.678 740.751 117.113 743.553 113.033C742.23 115.111 739.444 119.267 738.883 119.267C740.129 119.456 743.086 119.097 744.955 116.15C744.02 117.945 742.246 121.817 742.619 122.95C743.631 122.95 746.029 122.157 747.523 118.983C747.367 119.928 747.523 122.44 749.391 124.933C750.092 124.178 751.399 121.59 751.026 117.283C751.649 119.55 753.688 123.913 756.864 123.233C755.93 121.817 754.015 118.587 753.828 117C754.529 118.983 756.583 122.723 759.199 121.817C758.887 120.87 757.498 118.818 756.63 117.283C758.125 118.425 760.444 117.668 761.067 117C758.638 117 756.63 115.206 755.93 114.45C758.545 116.49 760.288 115.017 760.833 113.883C758.592 114.337 756.163 112.018 755.229 110.802" stroke="#336300"/>
<path d="M958.345 51.4312V48.6953H960.401V51.4312C959.504 51.9176 958.657 51.6339 958.345 51.4312Z" fill="#553D00"/>
<path d="M954.607 36.8397C957.299 36.1102 959.093 31.9759 959.654 30C960.7 34.9854 963.579 36.3331 964.887 36.3837C963.841 37.2349 962.457 37.1437 961.897 36.9917C962.495 37.7213 962.894 38.1063 963.018 38.2077C962.891 38.2299 962.766 38.2466 962.644 38.2583C962.943 38.7851 965.635 40.268 966.943 40.9436C964.551 41.1868 963.33 40.4369 963.018 40.0316C963.018 40.7612 964.015 42.1595 964.514 42.7675C964.45 42.776 964.388 42.7824 964.327 42.7866C965.074 43.4388 967.018 44.6826 968.813 44.4394C968.376 45.0474 966.981 45.8378 964.887 44.7434C965.448 45.1487 967.056 46.1114 969 46.1114C968.501 46.4699 966.644 46.876 965.448 46.2634C966.143 47.0868 967.254 48.1873 967.504 48.6953C965.411 49.1816 963.766 47.1753 963.205 46.1114C963.355 46.9625 964.887 48.6953 965.635 49.4552C963.093 49.82 961.461 47.4793 960.962 46.2634C961.261 48.5737 960.214 49.9619 959.654 50.3672C958.158 49.0296 958.034 47.682 958.158 47.1753C956.962 48.8776 955.043 49.3032 954.233 49.3032C953.934 48.6953 955.355 46.618 956.102 45.6554C954.607 47.2361 952.239 47.4286 951.243 47.3273C951.691 47.3273 953.922 45.0981 954.981 43.9834C952.738 46.1722 950.059 45.4021 949 44.7434C951.392 44.9866 954.844 42.4128 956.271 41.0956C956.284 40.9198 956.289 40.7605 956.289 40.6396C953.897 41.8555 952.426 41.5515 951.99 41.2476C954.981 40.2748 956.642 38.1063 957.098 37.1437C957.132 36.9136 957.181 36.6937 957.224 36.5357L954.607 36.8397Z" fill="#407501"/>
<path d="M957.098 37.1437C957.132 36.9136 957.181 36.6937 957.224 36.5357L954.607 36.8397C957.299 36.1102 959.093 31.9759 959.654 30C960.7 34.9854 963.579 36.3331 964.887 36.3837C963.841 37.2349 962.457 37.1437 961.897 36.9917C962.495 37.7213 962.894 38.1063 963.018 38.2077C962.891 38.2299 962.766 38.2466 962.644 38.2583M957.098 37.1437C957.035 37.578 957.028 38.0487 957.224 38.2077C957.785 38.005 958.981 37.4477 959.28 36.8397C959.631 37.4106 960.773 38.4372 962.644 38.2583M957.098 37.1437C956.642 38.1063 954.981 40.2748 951.99 41.2476C952.426 41.5515 953.897 41.8555 956.289 40.6396C956.289 40.7605 956.284 40.9198 956.271 41.0956M962.644 38.2583C962.943 38.7851 965.635 40.268 966.943 40.9436C964.551 41.1868 963.33 40.4369 963.018 40.0316C963.018 40.7612 964.015 42.1595 964.514 42.7675C964.45 42.776 964.388 42.7824 964.327 42.7866M956.271 41.0956C956.234 41.5826 956.135 42.1954 955.915 42.4635C956.601 42.3115 958.233 41.7339 959.28 40.6396C959.467 41.2982 960.102 42.6763 961.149 42.9195C961.087 42.3622 961 41.126 961.149 40.6396C961.51 41.4217 962.636 42.902 964.327 42.7866M956.271 41.0956C954.844 42.4128 951.392 44.9866 949 44.7434C950.059 45.4021 952.738 46.1722 954.981 43.9834C953.922 45.0981 951.691 47.3273 951.243 47.3273C952.239 47.4286 954.607 47.2361 956.102 45.6554C955.355 46.618 953.934 48.6953 954.233 49.3032C955.043 49.3032 956.962 48.8776 958.158 47.1753C958.034 47.682 958.158 49.0296 959.654 50.3672C960.214 49.9619 961.261 48.5737 960.962 46.2634C961.461 47.4793 963.093 49.82 965.635 49.4552C964.887 48.6953 963.355 46.9625 963.205 46.1114C963.766 47.1753 965.411 49.1816 967.504 48.6953C967.254 48.1873 966.143 47.0868 965.448 46.2634C966.644 46.876 968.501 46.4699 969 46.1114C967.056 46.1114 965.448 45.1487 964.887 44.7434C966.981 45.8378 968.376 45.0474 968.813 44.4394C967.018 44.6826 965.074 43.4388 964.327 42.7866" stroke="#336300"/>
<path d="M949.085 309.375C755.195 44.4846 235.74 30.3238 0.249023 56.3546V309.375H949.085Z" fill="#70AB13"/>
<path d="M655.503 162.561C681.988 154.564 651.115 122.036 633 108.5L653.5 114.5L674 122C715.226 161.983 723.032 229.613 519.33 162.561C321.941 97.5874 306.95 171.932 351.3 202.544L316.319 198.171C241.987 117.579 378.16 102.875 427.507 111.956C505.587 126.326 629.018 170.558 655.503 162.561Z" fill="#79D4F0"/>
<path d="M427.507 113.831C505.587 128.2 629.018 170.558 655.503 162.561C665.275 159.611 667.411 153.791 665.306 146.942C668.62 188.8 513.708 121.328 427.507 110.082C354.999 100.624 315.859 120.495 305.01 133.823C330.535 109.973 396.339 108.095 427.507 113.831Z" fill="#629EB8"/>
<path d="M295.081 209.417H273.218C268.222 190.049 255.109 175.143 237.614 158.188C157.035 80.0948 240.964 61.7812 302.577 65.7265V76.9718C200.667 69.9309 205.339 111.332 247.608 145.693C271.687 165.267 288.21 186.302 295.081 209.417Z" fill="#E9BC6E"/>
<path d="M302.123 65.5009C243.5 59.9999 156.581 79.8691 237.16 157.962C162.5 81.4999 243 61.9999 302.123 65.5009Z" fill="#987318"/>
<path d="M231 129.5C247 145 284.5 174.5 290.5 198C277.5 170.5 238 141 231 129.5Z" fill="#987318"/>
<rect x="0.454104" y="0.540478" width="5.40102" height="14.5222" transform="matrix(0.996394 0.0848512 -0.0881857 0.996104 140.065 92.9179)" fill="#644B3C" stroke="black"/>
<rect x="0.454104" y="0.540478" width="5.40102" height="14.5222" transform="matrix(0.996394 0.0848512 -0.0881857 0.996104 126.81 90.9179)" fill="#644B3C" stroke="black"/>
<rect x="0.454104" y="0.540478" width="5.40102" height="14.5222" transform="matrix(0.996394 0.0848512 -0.0881857 0.996104 113.555 91.9179)" fill="#644B3C" stroke="black"/>
<rect x="0.454104" y="0.540478" width="5.40102" height="14.5222" transform="matrix(0.996394 0.0848512 -0.0881857 0.996104 153.32 93.9179)" fill="#644B3C" stroke="black"/>
<rect x="0.454104" y="0.540478" width="5.40102" height="14.5222" transform="matrix(0.996394 0.0848512 -0.0881857 0.996104 166.575 95.9179)" fill="#644B3C" stroke="black"/>
<rect x="0.454104" y="0.540478" width="5.40102" height="14.5222" transform="matrix(0.996394 0.0848512 -0.0881857 0.996104 179.83 97.9179)" fill="#644B3C" stroke="black"/>
<rect x="0.454104" y="0.540478" width="5.40102" height="14.5222" transform="matrix(0.996394 0.0848512 -0.0881857 0.996104 100.3 90.9179)" fill="#644B3C" stroke="black"/>
<rect x="0.454104" y="0.540478" width="5.40102" height="14.5222" transform="matrix(0.996394 0.0848512 -0.0881857 0.996104 87.0449 91.9179)" fill="#644B3C" stroke="black"/>
<rect x="0.454104" y="0.540478" width="5.40102" height="14.5222" transform="matrix(0.996394 0.0848512 -0.0881857 0.996104 87.0449 91.9179)" fill="#644B3C" stroke="black"/>
<rect x="0.454104" y="0.540478" width="5.40102" height="14.5222" transform="matrix(0.996394 0.0848512 -0.0881857 0.996104 73.79 90.9179)" fill="#644B3C" stroke="black"/>
<rect x="0.454104" y="0.540478" width="5.40102" height="14.5222" transform="matrix(0.996394 0.0848512 -0.0881857 0.996104 46.4175 91.9179)" fill="#644B3C" stroke="black"/>
<rect x="0.454104" y="0.540478" width="5.40102" height="14.5222" transform="matrix(0.996394 0.0848512 -0.0881857 0.996104 32.4175 90.9179)" fill="#644B3C" stroke="black"/>
<rect x="0.454104" y="0.540478" width="5.40102" height="14.5222" transform="matrix(0.996394 0.0848512 -0.0881857 0.996104 18.4175 91.9179)" fill="#644B3C" stroke="black"/>
<rect x="0.454104" y="0.540478" width="5.40102" height="14.5222" transform="matrix(0.996394 0.0848512 -0.0881857 0.996104 4.41746 92.9179)" fill="#644B3C" stroke="black"/>
<rect x="0.454104" y="0.540478" width="5.40102" height="14.5222" transform="matrix(0.996394 0.0848512 -0.0881857 0.996104 60.4175 90.9179)" fill="#644B3C" stroke="black"/>
<path d="M205.941 118.954C162.709 102.554 51.3002 105.121 0.999512 108.454V111.954C51.3002 108.621 162.709 106.054 205.941 122.454V118.954Z" fill="#394034" stroke="black"/>
<path d="M209 101.554C165.123 85.623 52.0509 88.1163 0.999512 91.3544V94.7544C52.0509 91.5163 165.123 89.023 209 104.954V101.554Z" fill="#394034" stroke="black"/>
<path d="M41.9302 134.917V122.097H34.2243V134.917C37.5868 137.197 40.7626 135.867 41.9302 134.917Z" fill="#553D00"/>
<path d="M55.9409 66.5405C45.8532 63.1216 39.128 43.7482 37.0264 34.4888C33.1034 57.8509 22.3152 64.1663 17.4114 64.4037C21.3344 68.3924 26.5184 67.965 28.62 67.2527C26.3783 70.6716 24.8838 72.476 24.4168 72.9508C24.8953 73.0551 25.3623 73.1334 25.8178 73.1878C24.697 75.6567 14.6093 82.6056 9.7055 85.7715C18.6724 86.9111 23.2492 83.3973 24.4168 81.4979C24.4168 84.9168 20.6806 91.4696 18.8125 94.3186C19.0488 94.3587 19.2823 94.3883 19.513 94.408C16.7109 97.4646 9.42529 103.293 2.70013 102.153C4.33472 105.003 9.56539 108.706 17.4114 103.578C15.3098 105.477 9.28518 109.988 1.9996 109.988C3.86769 111.668 10.8264 113.571 15.3098 110.701C12.7054 114.559 8.54043 119.716 7.60389 122.097C15.4499 124.376 21.6146 114.974 23.7162 109.988C23.1558 113.977 17.4114 122.097 14.6093 125.658C24.1366 127.367 30.2546 116.399 32.1227 110.701C31.0018 121.527 34.9248 128.032 37.0264 129.932C42.6307 123.664 43.0978 117.348 42.6307 114.974C47.1142 122.951 54.3063 124.946 57.342 124.946C58.4629 122.097 53.1388 112.363 50.3366 107.852C55.9409 115.259 64.8144 116.161 68.5506 115.686C66.8693 115.686 58.5096 105.24 54.5399 100.017C62.9463 110.273 72.9873 106.664 76.957 103.578C67.9902 104.718 55.0532 92.6567 49.7056 86.4838C49.6558 85.6603 49.6361 84.9135 49.6361 84.347C58.603 90.0451 64.1139 88.6205 65.7484 87.196C54.5399 82.6376 48.3155 72.476 46.6044 67.965C46.4793 66.8866 46.2952 65.856 46.1334 65.116L55.9409 66.5405Z" fill="#407501"/>
<path d="M46.6044 67.965C46.4793 66.8866 46.2952 65.856 46.1334 65.116L55.9409 66.5405C45.8532 63.1216 39.128 43.7482 37.0264 34.4888C33.1034 57.8509 22.3152 64.1663 17.4114 64.4037C21.3344 68.3924 26.5184 67.965 28.62 67.2527C26.3783 70.6716 24.8838 72.476 24.4168 72.9508C24.8953 73.0551 25.3623 73.1334 25.8178 73.1878M46.6044 67.965C46.8405 70.0002 46.8661 72.2059 46.1334 72.9508C44.0318 72.0011 39.5484 69.3895 38.4275 66.5405C37.1119 69.2158 32.8313 74.0263 25.8178 73.1878M46.6044 67.965C48.3155 72.476 54.5399 82.6376 65.7484 87.196C64.1139 88.6205 58.603 90.0451 49.6361 84.347C49.6361 84.9135 49.6558 85.6603 49.7056 86.4838M25.8178 73.1878C24.697 75.6567 14.6093 82.6056 9.7055 85.7715C18.6724 86.9111 23.2492 83.3973 24.4168 81.4979C24.4168 84.9168 20.6806 91.4696 18.8125 94.3186C19.0488 94.3587 19.2823 94.3883 19.513 94.408M49.7056 86.4838C49.8438 88.7662 50.2135 91.6379 51.0372 92.8941C48.4685 92.1818 42.3505 89.4753 38.4275 84.347C37.727 87.4334 35.3451 93.8913 31.4221 95.0309C31.6557 92.4193 31.9826 86.6262 31.4221 84.347C30.0703 88.0122 25.8489 94.9487 19.513 94.408M49.7056 86.4838C55.0532 92.6567 67.9902 104.718 76.957 103.578C72.9873 106.664 62.9463 110.273 54.5399 100.017C58.5096 105.24 66.8693 115.686 68.5506 115.686C64.8144 116.161 55.9409 115.259 50.3366 107.852C53.1388 112.363 58.4629 122.097 57.342 124.946C54.3063 124.946 47.1142 122.951 42.6307 114.974C43.0978 117.348 42.6307 123.664 37.0264 129.932C34.9248 128.032 31.0018 121.527 32.1227 110.701C30.2546 116.399 24.1366 127.367 14.6093 125.658C17.4114 122.097 23.1558 113.977 23.7162 109.988C21.6146 114.974 15.4499 124.376 7.60389 122.097C8.54043 119.716 12.7054 114.559 15.3098 110.701C10.8264 113.571 3.86769 111.668 1.99959 109.988C9.28518 109.988 15.3098 105.477 17.4114 103.578C9.56539 108.706 4.33472 105.003 2.70013 102.153C9.42529 103.293 16.7109 97.4646 19.513 94.408" stroke="#336300"/>
<path d="M549.308 106.406V100.354H545.196V106.406C546.99 107.482 548.685 106.854 549.308 106.406Z" fill="#553D00"/>
<path d="M556.785 74.1296C551.401 72.5157 547.813 63.3708 546.691 59C544.598 70.0278 538.841 73.0089 536.224 73.1209C538.317 75.0037 541.084 74.802 542.205 74.4658C541.009 76.0796 540.211 76.9313 539.962 77.1555C540.217 77.2047 540.467 77.2417 540.71 77.2674C540.112 78.4327 534.728 81.7129 532.112 83.2073C536.897 83.7453 539.339 82.0866 539.962 81.19C539.962 82.8039 537.968 85.897 536.971 87.2419C537.098 87.2608 537.222 87.2747 537.345 87.284C535.85 88.7269 531.962 91.4781 528.373 90.9402C529.246 92.2851 532.037 94.0334 536.224 91.6126C535.102 92.5092 531.887 94.6385 528 94.6385C528.996 95.4316 532.71 96.3299 535.102 94.9748C533.713 96.7962 531.49 99.2305 530.99 100.354C535.177 101.43 538.467 96.992 539.588 94.6385C539.289 96.5213 536.224 100.354 534.728 102.035C539.813 102.842 543.077 97.6645 544.074 94.9748C543.476 100.085 545.57 103.156 546.691 104.053C549.682 101.094 549.931 98.1127 549.682 96.992C552.074 100.758 555.912 101.699 557.532 101.699C558.13 100.354 555.289 95.7593 553.794 93.6299C556.785 97.1265 561.52 97.5524 563.514 97.3282C562.616 97.3282 558.155 92.3971 556.037 89.9316C560.523 94.773 565.881 93.0696 568 91.6126C563.214 92.1506 556.311 86.4574 553.457 83.5435C553.431 83.1548 553.42 82.8023 553.42 82.5349C558.205 85.2246 561.146 84.5522 562.018 83.8797C556.037 81.728 552.715 76.9313 551.802 74.802C551.736 74.2929 551.637 73.8065 551.551 73.4571L556.785 74.1296Z" fill="#407501"/>
<path d="M551.802 74.802C551.736 74.2929 551.637 73.8065 551.551 73.4571L556.785 74.1296C551.401 72.5158 547.813 63.3708 546.691 59C544.598 70.0278 538.841 73.0089 536.224 73.1209C538.317 75.0037 541.084 74.802 542.205 74.4658C541.009 76.0796 540.211 76.9313 539.962 77.1555C540.217 77.2047 540.467 77.2417 540.71 77.2674M551.802 74.802C551.928 75.7627 551.942 76.8039 551.551 77.1555C550.429 76.7072 548.037 75.4744 547.439 74.1296C546.737 75.3924 544.452 77.6632 540.71 77.2674M551.802 74.802C552.715 76.9313 556.037 81.728 562.018 83.8797C561.146 84.5522 558.205 85.2246 553.42 82.5349C553.42 82.8023 553.431 83.1548 553.457 83.5435M540.71 77.2674C540.112 78.4327 534.728 81.7129 532.112 83.2073C536.897 83.7453 539.339 82.0866 539.962 81.19C539.962 82.8039 537.968 85.897 536.971 87.2419C537.098 87.2608 537.222 87.2747 537.345 87.284M553.457 83.5435C553.531 84.6209 553.728 85.9765 554.168 86.5694C552.797 86.2332 549.532 84.9556 547.439 82.5349C547.065 83.9918 545.794 87.0401 543.7 87.5781C543.825 86.3453 544 83.6108 543.7 82.5349C542.979 84.265 540.726 87.5393 537.345 87.284M553.457 83.5435C556.311 86.4574 563.214 92.1506 568 91.6126C565.881 93.0696 560.523 94.773 556.037 89.9316C558.155 92.3971 562.616 97.3282 563.514 97.3282C561.52 97.5524 556.785 97.1265 553.794 93.6299C555.289 95.7593 558.13 100.354 557.532 101.699C555.912 101.699 552.074 100.758 549.682 96.992C549.931 98.1127 549.682 101.094 546.691 104.053C545.57 103.156 543.476 100.085 544.074 94.9748C543.077 97.6645 539.813 102.842 534.728 102.035C536.224 100.354 539.289 96.5213 539.588 94.6385C538.467 96.992 535.177 101.43 530.99 100.354C531.49 99.2305 533.713 96.7962 535.102 94.9748C532.71 96.3299 528.996 95.4316 528 94.6385C531.887 94.6385 535.102 92.5092 536.224 91.6126C532.037 94.0334 529.246 92.2851 528.373 90.9402C531.962 91.4781 535.85 88.7269 537.345 87.284" stroke="#336300"/>
<path d="M481.178 109.53V104.739H477.477V109.53C479.092 110.382 480.617 109.885 481.178 109.53Z" fill="#553D00"/>
<path d="M487.907 83.9776C483.062 82.7 479.832 75.4602 478.822 72C476.938 80.7303 471.757 83.0903 469.402 83.1791C471.286 84.6696 473.776 84.5099 474.785 84.2437C473.708 85.5214 472.991 86.1956 472.766 86.3731C472.996 86.4121 473.22 86.4413 473.439 86.4617C472.901 87.3843 468.056 89.9811 465.701 91.1641C470.007 91.59 472.206 90.2769 472.766 89.5671C472.766 90.8447 470.972 93.2935 470.075 94.3581C470.188 94.3731 470.3 94.3842 470.411 94.3915C469.065 95.5338 465.566 97.7119 462.336 97.286C463.121 98.3507 465.634 99.7347 469.402 97.8183C468.393 98.5281 465.499 100.214 462 100.214C462.897 100.842 466.239 101.553 468.393 100.48C467.142 101.922 465.141 103.849 464.692 104.739C468.46 105.59 471.421 102.077 472.43 100.214C472.161 101.704 469.402 104.739 468.056 106.07C472.632 106.708 475.57 102.609 476.467 100.48C475.929 104.526 477.813 106.957 478.822 107.667C481.514 105.324 481.738 102.964 481.514 102.077C483.667 105.058 487.121 105.803 488.579 105.803C489.118 104.739 486.561 101.101 485.215 99.4153C487.907 102.183 492.168 102.521 493.963 102.343C493.155 102.343 489.14 98.4394 487.234 96.4875C491.271 100.32 496.093 98.9717 498 97.8183C493.693 98.2442 487.48 93.7371 484.912 91.4303C484.888 91.1226 484.879 90.8435 484.879 90.6318C489.185 92.7611 491.832 92.2288 492.617 91.6965C487.234 89.993 484.244 86.1956 483.422 84.5099C483.362 84.1069 483.274 83.7218 483.196 83.4452L487.907 83.9776Z" fill="#407501"/>
<path d="M483.422 84.5099C483.362 84.1069 483.274 83.7218 483.196 83.4452L487.907 83.9776C483.062 82.7 479.832 75.4602 478.822 72C476.938 80.7303 471.757 83.0903 469.402 83.1791C471.286 84.6696 473.776 84.5099 474.785 84.2437C473.708 85.5214 472.991 86.1956 472.766 86.3731C472.996 86.4121 473.22 86.4413 473.439 86.4617M483.422 84.5099C483.536 85.2705 483.548 86.0947 483.196 86.3731C482.187 86.0182 480.034 85.0423 479.495 83.9776C478.863 84.9773 476.808 86.775 473.439 86.4617M483.422 84.5099C484.244 86.1956 487.234 89.993 492.617 91.6965C491.832 92.2288 489.185 92.7611 484.879 90.6318C484.879 90.8435 484.888 91.1226 484.912 91.4303M473.439 86.4617C472.901 87.3843 468.056 89.9811 465.701 91.1641C470.007 91.59 472.206 90.2769 472.766 89.5671C472.766 90.8447 470.972 93.2935 470.075 94.3581C470.188 94.3731 470.3 94.3842 470.411 94.3915M484.912 91.4303C484.978 92.2832 485.156 93.3564 485.551 93.8258C484.318 93.5596 481.379 92.5482 479.495 90.6318C479.159 91.7852 478.015 94.1984 476.131 94.6243C476.243 93.6484 476.4 91.4835 476.131 90.6318C475.482 92.0015 473.454 94.5936 470.411 94.3915M484.912 91.4303C487.48 93.7371 493.693 98.2442 498 97.8183C496.093 98.9717 491.271 100.32 487.234 96.4875C489.14 98.4394 493.155 102.343 493.963 102.343C492.168 102.521 487.907 102.183 485.215 99.4153C486.561 101.101 489.118 104.739 488.579 105.803C487.121 105.803 483.667 105.058 481.514 102.077C481.738 102.964 481.514 105.324 478.822 107.667C477.813 106.957 475.929 104.526 476.467 100.48C475.57 102.609 472.632 106.708 468.056 106.07C469.402 104.739 472.161 101.704 472.43 100.214C471.421 102.077 468.46 105.59 464.692 104.739C465.141 103.849 467.142 101.922 468.393 100.48C466.239 101.553 462.897 100.842 462 100.214C465.499 100.214 468.393 98.5281 469.402 97.8183C465.634 99.7347 463.121 98.3507 462.336 97.286C465.566 97.7119 469.065 95.5338 470.411 94.3915" stroke="#336300"/>
<path d="M170.691 81.0806V75.0703H174.804V81.0806C173.009 82.1491 171.314 81.5258 170.691 81.0806Z" fill="#553D00"/>
<path d="M163.214 49.0257C168.598 47.423 172.186 38.3408 173.308 34C175.401 44.9521 181.158 47.9127 183.775 48.024C181.682 49.8939 178.915 49.6936 177.794 49.3597C178.99 50.9624 179.788 51.8083 180.037 52.0309C179.782 52.0798 179.532 52.1165 179.289 52.142C179.887 53.2994 185.271 56.557 187.887 58.0412C183.102 58.5754 180.66 56.9282 180.037 56.0378C180.037 57.6405 182.031 60.7124 183.028 62.0481C182.901 62.0668 182.777 62.0807 182.654 62.0899C184.149 63.5229 188.037 66.2553 191.626 65.721C190.753 67.0566 187.962 68.7929 183.775 66.3888C184.897 67.2792 188.112 69.394 192 69.394C191.003 70.1816 187.289 71.0737 184.897 69.7279C186.286 71.5369 188.509 73.9544 189.009 75.0704C184.822 76.1389 181.532 71.7313 180.411 69.394C180.71 71.2638 183.775 75.0704 185.271 76.7399C180.186 77.5413 176.922 72.3991 175.925 69.7279C176.523 74.8032 174.429 77.8529 173.308 78.7433C170.317 75.805 170.068 72.8443 170.317 71.7313C167.925 75.4711 164.087 76.406 162.467 76.406C161.869 75.0704 164.71 70.507 166.205 68.3923C163.214 71.8649 158.479 72.2878 156.485 72.0652C157.383 72.0652 161.844 67.1679 163.962 64.7193C159.476 69.5275 154.118 67.8358 152 66.3888C156.785 66.9231 163.688 61.2689 166.542 58.3751C166.568 57.9891 166.579 57.639 166.579 57.3734C161.794 60.0446 158.853 59.3768 157.981 58.709C163.962 56.572 167.284 51.8083 168.197 49.6936C168.264 49.188 168.362 48.7049 168.448 48.3579L163.214 49.0257Z" fill="#407501"/>
<path d="M168.197 49.6936C168.264 49.188 168.362 48.7049 168.448 48.3579L163.214 49.0257C168.598 47.423 172.186 38.3408 173.308 34C175.401 44.9521 181.158 47.9127 183.775 48.024C181.682 49.8939 178.915 49.6936 177.794 49.3597C178.99 50.9624 179.788 51.8083 180.037 52.0309C179.782 52.0798 179.532 52.1165 179.289 52.142M168.197 49.6936C168.071 50.6477 168.057 51.6817 168.448 52.0309C169.57 51.5857 171.962 50.3614 172.56 49.0257C173.262 50.2799 175.547 52.5351 179.289 52.142M168.197 49.6936C167.284 51.8083 163.962 56.572 157.981 58.709C158.853 59.3768 161.794 60.0446 166.579 57.3734C166.579 57.639 166.568 57.9891 166.542 58.3751M179.289 52.142C179.887 53.2994 185.271 56.557 187.887 58.0412C183.102 58.5754 180.66 56.9282 180.037 56.0378C180.037 57.6405 182.031 60.7124 183.028 62.0481C182.901 62.0668 182.777 62.0807 182.654 62.0899M166.542 58.3751C166.468 59.4451 166.271 60.7913 165.831 61.3802C167.202 61.0463 170.467 59.7775 172.56 57.3734C172.934 58.8203 174.205 61.8477 176.299 62.382C176.174 61.1576 176 58.4419 176.299 57.3734C177.02 59.0916 179.273 62.3434 182.654 62.0899M166.542 58.3751C163.688 61.2689 156.785 66.9231 152 66.3888C154.118 67.8358 159.476 69.5275 163.962 64.7193C161.844 67.1679 157.383 72.0652 156.485 72.0652C158.479 72.2878 163.214 71.8649 166.205 68.3923C164.71 70.507 161.869 75.0704 162.467 76.406C164.087 76.406 167.925 75.4711 170.317 71.7313C170.068 72.8443 170.317 75.805 173.308 78.7433C174.429 77.8529 176.523 74.8032 175.925 69.7279C176.922 72.3991 180.186 77.5413 185.271 76.7399C183.775 75.0704 180.71 71.2638 180.411 69.394C181.532 71.7313 184.822 76.1389 189.009 75.0704C188.509 73.9544 186.286 71.5369 184.897 69.7279C187.289 71.0737 191.003 70.1816 192 69.394C188.112 69.394 184.897 67.2792 183.775 66.3888C187.962 68.7929 190.753 67.0566 191.626 65.721C188.037 66.2553 184.149 63.5229 182.654 62.0899" stroke="#336300"/>
<path d="M185.579 147.66V137.363H193.187V147.66C189.867 149.49 186.732 148.423 185.579 147.66Z" fill="#553D00"/>
<path d="M171.747 92.7425C181.706 89.9967 188.345 74.4367 190.42 67C194.293 85.7634 204.943 90.8357 209.785 91.0264C205.912 94.2299 200.794 93.8866 198.719 93.3146C200.932 96.0605 202.408 97.5097 202.869 97.891C202.396 97.9748 201.935 98.0377 201.485 98.0814C202.592 100.064 212.551 105.645 217.392 108.188C208.54 109.103 204.021 106.281 202.869 104.756C202.869 107.502 206.557 112.765 208.401 115.053C208.168 115.085 207.938 115.109 207.71 115.124C210.476 117.579 217.669 122.261 224.308 121.345C222.694 123.634 217.53 126.608 209.785 122.489C211.859 124.015 217.807 127.638 225 127.638C223.155 128.987 216.285 130.516 211.859 128.21C214.43 131.309 218.542 135.451 219.467 137.363C211.721 139.194 205.635 131.642 203.56 127.638C204.114 130.841 209.785 137.363 212.551 140.223C203.145 141.596 197.105 132.786 195.261 128.21C196.368 136.905 192.495 142.13 190.42 143.656C184.887 138.621 184.426 133.549 184.887 131.642C180.461 138.049 173.361 139.651 170.364 139.651C169.257 137.363 174.514 129.545 177.28 125.922C171.747 131.871 162.987 132.596 159.299 132.214C160.958 132.214 169.211 123.824 173.13 119.629C164.831 127.867 154.919 124.968 151 122.489C159.852 123.405 172.624 113.718 177.903 108.76C177.952 108.099 177.971 107.499 177.971 107.044C169.119 111.62 163.679 110.476 162.065 109.332C173.13 105.671 179.275 97.5097 180.964 93.8866C181.088 93.0205 181.27 92.1928 181.429 91.5984L171.747 92.7425Z" fill="#407501"/>
<path d="M180.964 93.8866C181.088 93.0205 181.27 92.1928 181.429 91.5984L171.747 92.7425C181.706 89.9967 188.345 74.4367 190.42 67C194.293 85.7634 204.943 90.8357 209.785 91.0264C205.912 94.2299 200.794 93.8866 198.719 93.3146C200.932 96.0605 202.408 97.5097 202.869 97.891C202.396 97.9748 201.935 98.0377 201.485 98.0814M180.964 93.8866C180.731 95.5213 180.706 97.2928 181.429 97.891C183.504 97.1283 187.93 95.0308 189.037 92.7425C190.336 94.8912 194.562 98.7549 201.485 98.0814M180.964 93.8866C179.275 97.5097 173.13 105.671 162.065 109.332C163.679 110.476 169.119 111.62 177.971 107.044C177.971 107.499 177.952 108.099 177.903 108.76M201.485 98.0814C202.592 100.064 212.551 105.645 217.392 108.188C208.54 109.103 204.021 106.281 202.869 104.756C202.869 107.502 206.557 112.765 208.401 115.053C208.168 115.085 207.938 115.109 207.71 115.124M177.903 108.76C177.766 110.593 177.401 112.9 176.588 113.909C179.124 113.337 185.164 111.163 189.037 107.044C189.728 109.523 192.08 114.709 195.953 115.625C195.722 113.527 195.4 108.875 195.953 107.044C197.287 109.988 201.455 115.559 207.71 115.124M177.903 108.76C172.624 113.718 159.852 123.405 151 122.489C154.919 124.968 164.831 127.867 173.13 119.629C169.211 123.824 160.958 132.214 159.299 132.214C162.987 132.596 171.747 131.871 177.28 125.922C174.514 129.545 169.257 137.363 170.364 139.651C173.361 139.651 180.461 138.049 184.887 131.642C184.426 133.549 184.887 138.621 190.42 143.656C192.495 142.13 196.368 136.905 195.261 128.21C197.105 132.786 203.145 141.596 212.551 140.223C209.785 137.363 204.114 130.841 203.56 127.638C205.635 131.642 211.721 139.194 219.467 137.363C218.542 135.451 214.43 131.309 211.859 128.21C216.285 130.516 223.155 128.987 225 127.638C217.807 127.638 211.859 124.015 209.785 122.489C217.53 126.608 222.694 123.634 224.308 121.345C217.669 122.261 210.476 117.579 207.71 115.124" stroke="#336300"/>
<path d="M86.9062 154.056V147.793H82.4857V154.056C84.4147 155.169 86.2365 154.52 86.9062 154.056Z" fill="#553D00"/>
<path d="M94.9439 120.656C89.157 118.986 85.2991 109.523 84.0935 105C81.843 116.412 75.6542 119.496 72.8411 119.612C75.0916 121.561 78.0654 121.352 79.271 121.004C77.985 122.674 77.1277 123.555 76.8598 123.787C77.1343 123.838 77.4022 123.877 77.6636 123.903C77.0206 125.109 71.2336 128.503 68.4206 130.05C73.5645 130.606 76.19 128.89 76.8598 127.962C76.8598 129.632 74.7165 132.833 73.6449 134.225C73.7804 134.244 73.9144 134.259 74.0467 134.268C72.4393 135.762 68.2598 138.609 64.4019 138.052C65.3396 139.444 68.3402 141.253 72.8411 138.748C71.6355 139.675 68.1794 141.879 64 141.879C65.0717 142.7 69.0636 143.629 71.6355 142.227C70.1415 144.112 67.7522 146.631 67.215 147.793C71.7159 148.907 75.2523 144.314 76.4579 141.879C76.1364 143.827 72.8411 147.793 71.2336 149.533C76.6991 150.368 80.2087 145.01 81.2804 142.227C80.6374 147.515 82.8879 150.693 84.0935 151.621C87.3084 148.559 87.5763 145.474 87.3084 144.314C89.8804 148.211 94.0062 149.185 95.7477 149.185C96.3907 147.793 93.3364 143.039 91.729 140.835C94.9439 144.453 100.034 144.894 102.178 144.662C101.213 144.662 96.4174 139.559 94.1402 137.008C98.9626 142.018 104.723 140.255 107 138.748C101.856 139.304 94.4347 133.413 91.367 130.398C91.3384 129.996 91.3271 129.631 91.3271 129.354C96.471 132.137 99.6324 131.441 100.57 130.746C94.1402 128.519 90.5695 123.555 89.5879 121.352C89.5162 120.825 89.4105 120.322 89.3178 119.96L94.9439 120.656Z" fill="#407501"/>
<path d="M89.5879 121.352C89.5162 120.825 89.4105 120.322 89.3178 119.96L94.9439 120.656C89.157 118.986 85.2991 109.523 84.0935 105C81.843 116.412 75.6542 119.496 72.8411 119.612C75.0916 121.561 78.0654 121.352 79.271 121.004C77.985 122.674 77.1277 123.555 76.8598 123.787C77.1343 123.838 77.4022 123.877 77.6636 123.903M89.5879 121.352C89.7234 122.346 89.7381 123.424 89.3178 123.787C88.1122 123.323 85.5402 122.048 84.8972 120.656C84.1425 121.963 81.6869 124.313 77.6636 123.903M89.5879 121.352C90.5695 123.555 94.1402 128.519 100.57 130.746C99.6324 131.441 96.471 132.137 91.3271 129.354C91.3271 129.631 91.3384 129.996 91.367 130.398M77.6636 123.903C77.0206 125.109 71.2336 128.503 68.4206 130.05C73.5645 130.606 76.19 128.89 76.8598 127.962C76.8598 129.632 74.7165 132.833 73.6449 134.225C73.7804 134.244 73.9144 134.259 74.0467 134.268M91.367 130.398C91.4462 131.513 91.6583 132.915 92.1308 133.529C90.6573 133.181 87.1477 131.859 84.8972 129.354C84.4953 130.862 83.129 134.016 80.8785 134.573C81.0125 133.297 81.2 130.467 80.8785 129.354C80.103 131.144 77.6814 134.533 74.0467 134.268M91.367 130.398C94.4347 133.413 101.856 139.304 107 138.748C104.723 140.255 98.9626 142.018 94.1402 137.008C96.4174 139.559 101.213 144.662 102.178 144.662C100.034 144.894 94.9439 144.453 91.729 140.835C93.3364 143.039 96.3907 147.793 95.7477 149.185C94.0062 149.185 89.8804 148.211 87.3084 144.314C87.5763 145.474 87.3084 148.559 84.0935 151.621C82.8879 150.693 80.6374 147.515 81.2804 142.227C80.2087 145.01 76.6991 150.368 71.2336 149.533C72.8411 147.793 76.1364 143.827 76.4579 141.879C75.2523 144.314 71.7159 148.907 67.215 147.793C67.7522 146.631 70.1415 144.112 71.6355 142.227C69.0636 143.629 65.0717 142.7 64 141.879C68.1794 141.879 71.6355 139.675 72.8411 138.748C68.3402 141.253 65.3396 139.444 64.4019 138.052C68.2598 138.609 72.4393 135.762 74.0467 134.268" stroke="#336300"/>
<g filter="url(#filter0_f)">
<ellipse cx="190.5" cy="219" rx="51.5" ry="7" fill="#4A7403"/>
</g>
<path d="M714.219 311.249H0.249023V161.311C134.938 171.61 367.242 197.664 533.072 237.862C646.757 186.522 959.18 108.166 1282 199.128V313L714.219 311.249Z" fill="#578A01"/>
<path d="M68.3348 312.498H38.3519C32.7304 293.131 65.6492 260.259 97.6935 252.523C133.923 243.777 157.035 235.031 166.404 215.664L175.149 221.911C170.463 228.161 169.099 236.662 161.407 242.77C291.333 303.127 399.397 242.77 366.916 204.418L388.778 208.791C415.013 242.77 313.196 339.362 142.043 255.233C134.001 259.323 125.186 262.558 115.808 264.393C89.9074 269.462 62.0886 289.383 68.3348 312.498Z" fill="#E3B25F"/>
<path d="M906.609 275.014C885.621 278.013 872.462 262.103 868.506 253.773C813.537 253.773 747.291 292.316 716.092 293.756C634.888 297.505 628.304 263.674 642.384 235.655H654.877C644.284 276.483 683.611 281.261 728.585 271.89C783.706 260.405 816.66 231.907 872.878 235.655C874.877 232.157 880.374 229.616 882.873 228.783C871.004 212.54 889.119 188.175 890.993 174.431H902.237V183.802C910.232 185.301 914.105 179.429 914.729 176.305H925.348C928.472 196.297 897.239 194.422 897.239 192.548C887.745 207.542 892.034 219.204 895.365 223.16C924.849 218.163 940.965 233.573 945.337 241.903C995.309 241.903 1055.27 261.27 1063.4 242.527L1075.89 243.777C1062.77 288.758 982.816 253.773 945.337 258.771C942.339 265.268 934.094 269.808 930.346 271.266C949.335 278.762 960.745 300.628 964.076 310.624H937.217C935.718 296.63 916.187 281.053 906.609 275.014Z" fill="#E3B25F"/>
<path d="M97.5 254C136.658 244 156.683 235.532 166.053 216.165C156 233.5 133.571 243.754 97.3417 252.5C65.2974 260.236 34.5 292.5 38 311C40 286.5 70.6782 260.85 97.5 254Z" fill="#987318"/>
<path d="M366.564 204.92C408 245 267 307 162 243C287.5 301.5 399.045 243.272 366.564 204.92Z" fill="#987318"/>
<path d="M930.346 271.266C949.335 278.762 960.745 300.628 964.077 310.624C952.327 289 938 275.269 930.346 271.266C934.094 269.808 942.339 265.268 945.337 258.771C982.816 253.773 1062.77 288.758 1075.89 243.777L1065 242.527C1056 263.5 973 241.903 944 243C933.5 222.5 907 222.186 895.366 223.697V223.16C892.034 219.204 887.745 207.542 897.24 192.548C897.24 194.422 928.472 196.297 925.349 176.305H914.73C914.73 185.5 902.237 186 902.237 183.802V174.431H892.5C890.5 183.802 872 213 883.5 229L873 236H870.5C819.028 239.083 772.981 267.89 728.585 274.5C671.5 283 644.284 276.483 654.877 235.655C644.284 276.483 683.611 281.261 728.585 271.89C783.707 260.405 816.66 231.907 872.878 235.655C874.877 232.157 880.374 229.616 882.873 228.783C871.004 212.54 889 187 890.993 174.431H892.5H902.237V183.802C910.232 185.301 914.105 179.429 914.73 176.305H925.349C928.472 196.297 897.24 194.422 897.24 192.548C887.745 207.542 892.034 219.204 895.366 223.16C924.849 218.163 940.965 233.573 945.337 241.903C995.309 241.903 1055.27 261.27 1063.4 242.527H1065L1075.89 243.777C1062.77 288.758 982.816 253.773 945.337 258.771C942.339 265.268 934.094 269.808 930.346 271.266Z" fill="#987318"/>
<path d="M316.944 311.249C509.335 299.772 496.218 243.43 461.862 221.911C489.346 226.909 519.329 237.831 549.312 230.658C578.296 279.174 538.485 305.598 514.332 311.249H316.944Z" fill="#6CC7E3"/>
<path d="M514.332 311.249C541.192 309.293 578.67 269.391 549.312 230.657C560.718 254.785 565.553 291.034 514.332 311.249Z" fill="#A1E1EA"/>
<path d="M462.486 223.215C496.217 236.257 510.584 300.815 354.423 307.989C464.36 298.859 513.083 256.473 462.486 223.215Z" fill="#579EBE"/>
<path d="M1069.67 181.646V174.026H1073.52V181.646C1071.84 183.001 1070.25 182.211 1069.67 181.646Z" fill="#553D00"/>
<path d="M1062.66 141.004C1067.7 138.972 1071.07 127.456 1072.12 121.952C1074.08 135.839 1079.47 139.592 1081.92 139.734C1079.96 142.104 1077.37 141.85 1076.32 141.427C1077.44 143.459 1078.19 144.532 1078.42 144.814C1078.18 144.876 1077.95 144.922 1077.72 144.955C1078.28 146.422 1083.33 150.553 1085.78 152.434C1081.29 153.112 1079.01 151.023 1078.42 149.894C1078.42 151.926 1080.29 155.821 1081.22 157.515C1081.11 157.539 1080.99 157.556 1080.87 157.568C1082.27 159.385 1085.92 162.849 1089.28 162.172C1088.46 163.865 1085.85 166.067 1081.92 163.018C1082.97 164.147 1085.99 166.829 1089.63 166.829C1088.7 167.827 1085.22 168.958 1082.97 167.252C1084.28 169.546 1086.36 172.611 1086.83 174.026C1082.9 175.381 1079.82 169.792 1078.77 166.829C1079.05 169.2 1081.92 174.026 1083.33 176.143C1078.56 177.159 1075.5 170.639 1074.57 167.252C1075.13 173.687 1073.17 177.554 1072.12 178.683C1069.31 174.957 1069.08 171.203 1069.31 169.792C1067.07 174.534 1063.48 175.719 1061.96 175.719C1061.4 174.026 1064.06 168.24 1065.46 165.559C1062.66 169.962 1058.22 170.498 1056.35 170.216C1057.2 170.216 1061.38 164.006 1063.36 160.902C1059.16 166.998 1054.14 164.853 1052.15 163.018C1056.63 163.696 1063.1 156.527 1065.78 152.858C1065.8 152.368 1065.81 151.924 1065.81 151.588C1061.33 154.975 1058.57 154.128 1057.76 153.281C1063.36 150.572 1066.47 144.532 1067.33 141.85C1067.39 141.209 1067.48 140.597 1067.56 140.157L1062.66 141.004Z" fill="#407501"/>
<path d="M1067.33 141.85C1067.39 141.209 1067.48 140.597 1067.56 140.157L1062.66 141.004C1067.7 138.972 1071.07 127.456 1072.12 121.952C1074.08 135.839 1079.47 139.592 1081.92 139.734C1079.96 142.104 1077.37 141.85 1076.32 141.427C1077.44 143.459 1078.19 144.532 1078.42 144.814C1078.18 144.876 1077.95 144.922 1077.72 144.955M1067.33 141.85C1067.21 143.06 1067.2 144.371 1067.56 144.814C1068.61 144.249 1070.86 142.697 1071.42 141.004C1072.07 142.594 1074.21 145.453 1077.72 144.955M1067.33 141.85C1066.47 144.532 1063.36 150.572 1057.76 153.281C1058.57 154.128 1061.33 154.975 1065.81 151.588C1065.81 151.924 1065.8 152.368 1065.78 152.858M1077.72 144.955C1078.28 146.422 1083.33 150.553 1085.78 152.434C1081.29 153.112 1079.01 151.023 1078.42 149.894C1078.42 151.926 1080.29 155.821 1081.22 157.515C1081.11 157.539 1080.99 157.556 1080.87 157.568M1065.78 152.858C1065.71 154.214 1065.52 155.921 1065.11 156.668C1066.4 156.245 1069.45 154.636 1071.42 151.588C1071.77 153.422 1072.96 157.261 1074.92 157.938C1074.8 156.386 1074.64 152.942 1074.92 151.588C1075.59 153.766 1077.71 157.889 1080.87 157.568M1065.78 152.858C1063.1 156.527 1056.63 163.696 1052.15 163.018C1054.14 164.853 1059.16 166.998 1063.36 160.902C1061.38 164.006 1057.2 170.216 1056.35 170.216C1058.22 170.498 1062.66 169.962 1065.46 165.559C1064.06 168.24 1061.4 174.026 1061.96 175.719C1063.48 175.719 1067.07 174.534 1069.31 169.792C1069.08 171.203 1069.31 174.957 1072.12 178.683C1073.17 177.554 1075.13 173.687 1074.57 167.252C1075.5 170.639 1078.56 177.159 1083.33 176.143C1081.92 174.026 1079.05 169.2 1078.77 166.829C1079.82 169.792 1082.9 175.381 1086.83 174.026C1086.36 172.611 1084.28 169.546 1082.97 167.252C1085.22 168.958 1088.7 167.827 1089.63 166.829C1085.99 166.829 1082.97 164.147 1081.92 163.018C1085.85 166.067 1088.46 163.865 1089.28 162.172C1085.92 162.849 1082.27 159.385 1080.87 157.568" stroke="#336300"/>
<path d="M978.561 207.623V197.324H984.083V207.623C981.673 209.453 979.397 208.385 978.561 207.623Z" fill="#553D00"/>
<path d="M968.52 152.697C975.749 149.95 980.569 134.388 982.075 126.95C984.886 145.717 992.618 150.79 996.132 150.98C993.321 154.184 989.606 153.841 988.1 153.269C989.706 156.015 990.777 157.465 991.112 157.846C990.769 157.93 990.434 157.993 990.108 158.036C990.911 160.019 998.141 165.601 1001.65 168.145C995.229 169.06 991.949 166.237 991.112 164.712C991.112 167.458 993.789 172.722 995.128 175.01C994.959 175.042 994.792 175.066 994.626 175.082C996.634 177.537 1001.86 182.219 1006.68 181.304C1005.5 183.592 1001.76 186.568 996.132 182.448C997.639 183.974 1001.96 187.597 1007.18 187.597C1005.84 188.947 1000.85 190.476 997.639 188.17C999.505 191.269 1002.49 195.412 1003.16 197.324C997.538 199.155 993.12 191.602 991.614 187.597C992.016 190.801 996.132 197.324 998.141 200.185C991.313 201.558 986.928 192.747 985.589 188.17C986.393 196.866 983.581 202.092 982.075 203.617C978.059 198.583 977.724 193.51 978.059 191.602C974.845 198.01 969.691 199.612 967.515 199.612C966.712 197.324 970.528 189.505 972.536 185.881C968.52 191.831 962.16 192.556 959.483 192.175C960.688 192.175 966.679 183.783 969.524 179.587C963.499 187.826 956.303 184.927 953.458 182.448C959.884 183.364 969.156 173.675 972.988 168.717C973.024 168.055 973.038 167.455 973.038 167C966.612 171.577 962.662 170.433 961.491 169.289C969.524 165.627 973.984 157.465 975.211 153.841C975.3 152.975 975.432 152.147 975.548 151.552L968.52 152.697Z" fill="#407501"/>
<path d="M975.211 153.841C975.3 152.975 975.432 152.147 975.548 151.552L968.52 152.697C975.749 149.95 980.569 134.388 982.075 126.95C984.886 145.717 992.618 150.79 996.132 150.98C993.321 154.184 989.606 153.841 988.1 153.269C989.706 156.015 990.777 157.465 991.112 157.846C990.769 157.93 990.434 157.993 990.108 158.036M975.211 153.841C975.042 155.476 975.023 157.248 975.548 157.846C977.054 157.083 980.268 154.985 981.071 152.697C982.014 154.846 985.081 158.71 990.108 158.036M975.211 153.841C973.984 157.465 969.524 165.627 961.491 169.289C962.662 170.433 966.612 171.577 973.038 167C973.038 167.455 973.024 168.055 972.988 168.717M990.108 158.036C990.911 160.019 998.141 165.601 1001.65 168.145C995.229 169.06 991.949 166.237 991.112 164.712C991.112 167.458 993.789 172.722 995.128 175.01C994.959 175.042 994.792 175.066 994.626 175.082M972.988 168.717C972.889 170.55 972.624 172.857 972.034 173.866C973.875 173.294 978.259 171.12 981.071 167C981.573 169.48 983.28 174.667 986.091 175.582C985.924 173.485 985.69 168.831 986.091 167C987.06 169.944 990.086 175.516 994.626 175.082M972.988 168.717C969.156 173.675 959.884 183.364 953.458 182.448C956.303 184.927 963.499 187.826 969.524 179.587C966.679 183.783 960.688 192.175 959.483 192.175C962.16 192.556 968.52 191.831 972.536 185.881C970.528 189.505 966.712 197.324 967.515 199.612C969.691 199.612 974.845 198.01 978.059 191.602C977.724 193.51 978.059 198.583 982.075 203.617C983.581 202.092 986.393 196.866 985.589 188.17C986.928 192.747 991.313 201.558 998.141 200.185C996.132 197.324 992.016 190.801 991.614 187.597C993.12 191.602 997.538 199.155 1003.16 197.324C1002.49 195.412 999.505 191.269 997.639 188.17C1000.85 190.476 1005.84 188.947 1007.18 187.597C1001.96 187.597 997.639 183.974 996.132 182.448C1001.76 186.568 1005.5 183.592 1006.68 181.304C1001.86 182.219 996.634 177.537 994.626 175.082" stroke="#336300"/>
<path d="M1018.89 220.38V212.76H1013.49V220.38C1015.85 221.735 1018.07 220.945 1018.89 220.38Z" fill="#553D00"/>
<path d="M1028.7 179.738C1021.63 177.705 1016.93 166.19 1015.46 160.686C1012.71 174.573 1005.16 178.326 1001.73 178.467C1004.47 180.838 1008.1 180.584 1009.57 180.161C1008 182.193 1006.96 183.266 1006.63 183.548C1006.96 183.61 1007.29 183.656 1007.61 183.689C1006.83 185.156 999.764 189.287 996.331 191.168C1002.61 191.846 1005.81 189.757 1006.63 188.628C1006.63 190.66 1004.01 194.555 1002.71 196.249C1002.87 196.272 1003.03 196.29 1003.2 196.302C1001.23 198.119 996.135 201.583 991.427 200.906C992.572 202.599 996.233 204.801 1001.73 201.752C1000.25 202.881 996.037 205.563 990.937 205.563C992.245 206.561 997.116 207.692 1000.25 205.986C998.431 208.28 995.516 211.345 994.86 212.76C1000.35 214.114 1004.67 208.526 1006.14 205.563C1005.75 207.933 1001.73 212.76 999.764 214.877C1006.43 215.893 1010.72 209.373 1012.02 205.986C1011.24 212.421 1013.98 216.288 1015.46 217.417C1019.38 213.691 1019.71 209.937 1019.38 208.526C1022.52 213.268 1027.55 214.453 1029.68 214.453C1030.46 212.76 1026.73 206.974 1024.77 204.292C1028.7 208.695 1034.91 209.232 1037.52 208.949C1036.35 208.949 1030.49 202.74 1027.72 199.636C1033.6 205.732 1040.63 203.587 1043.41 201.752C1037.13 202.43 1028.07 195.261 1024.33 191.592C1024.3 191.102 1024.28 190.658 1024.28 190.322C1030.56 193.708 1034.42 192.862 1035.56 192.015C1027.72 189.305 1023.36 183.266 1022.16 180.584C1022.07 179.943 1021.94 179.331 1021.83 178.891L1028.7 179.738Z" fill="#407501"/>
<path d="M1022.16 180.584C1022.07 179.943 1021.94 179.331 1021.83 178.891L1028.7 179.738C1021.63 177.705 1016.93 166.19 1015.46 160.686C1012.71 174.573 1005.16 178.326 1001.73 178.467C1004.47 180.838 1008.1 180.584 1009.57 180.161C1008 182.193 1006.96 183.266 1006.63 183.548C1006.96 183.61 1007.29 183.656 1007.61 183.689M1022.16 180.584C1022.33 181.794 1022.34 183.105 1021.83 183.548C1020.36 182.983 1017.22 181.431 1016.44 179.738C1015.52 181.328 1012.52 184.187 1007.61 183.689M1022.16 180.584C1023.36 183.266 1027.72 189.305 1035.56 192.015C1034.42 192.862 1030.56 193.708 1024.28 190.322C1024.28 190.658 1024.3 191.102 1024.33 191.592M1007.61 183.689C1006.83 185.156 999.764 189.287 996.331 191.168C1002.61 191.846 1005.81 189.757 1006.63 188.628C1006.63 190.66 1004.01 194.555 1002.71 196.249C1002.87 196.272 1003.03 196.29 1003.2 196.302M1024.33 191.592C1024.43 192.948 1024.69 194.655 1025.26 195.402C1023.47 194.979 1019.18 193.37 1016.44 190.322C1015.95 192.156 1014.28 195.995 1011.53 196.672C1011.7 195.12 1011.93 191.676 1011.53 190.322C1010.59 192.5 1007.63 196.623 1003.2 196.302M1024.33 191.592C1028.07 195.261 1037.13 202.43 1043.41 201.752C1040.63 203.587 1033.6 205.732 1027.72 199.636C1030.49 202.74 1036.35 208.949 1037.52 208.949C1034.91 209.232 1028.7 208.695 1024.77 204.292C1026.73 206.974 1030.46 212.76 1029.68 214.453C1027.55 214.453 1022.52 213.268 1019.38 208.526C1019.71 209.937 1019.38 213.691 1015.46 217.417C1013.98 216.288 1011.24 212.421 1012.02 205.986C1010.72 209.373 1006.43 215.893 999.764 214.877C1001.73 212.76 1005.75 207.933 1006.14 205.563C1004.67 208.526 1000.35 214.114 994.86 212.76C995.516 211.345 998.431 208.28 1000.25 205.986C997.116 207.692 992.245 206.561 990.937 205.563C996.037 205.563 1000.25 202.881 1001.73 201.752C996.233 204.801 992.572 202.599 991.427 200.906C996.135 201.583 1001.23 198.119 1003.2 196.302" stroke="#336300"/>
<path d="M1178.97 265.077V261.238H1175.5V265.077C1177.01 265.76 1178.44 265.362 1178.97 265.077Z" fill="#553D00"/>
<path d="M1185.27 244.599C1180.73 243.575 1177.71 237.773 1176.76 235C1175 241.997 1170.14 243.888 1167.94 243.959C1169.7 245.154 1172.03 245.026 1172.98 244.813C1171.97 245.836 1171.3 246.377 1171.09 246.519C1171.3 246.55 1171.51 246.574 1171.72 246.59C1171.21 247.329 1166.67 249.411 1164.47 250.359C1168.5 250.7 1170.56 249.648 1171.09 249.079C1171.09 250.103 1169.41 252.065 1168.57 252.919C1168.67 252.93 1168.78 252.939 1168.88 252.945C1167.62 253.861 1164.34 255.606 1161.32 255.265C1162.05 256.118 1164.4 257.227 1167.94 255.692C1166.99 256.26 1164.28 257.611 1161 257.611C1161.84 258.115 1164.97 258.685 1166.99 257.825C1165.82 258.98 1163.94 260.525 1163.52 261.238C1167.05 261.92 1169.83 259.105 1170.77 257.611C1170.52 258.806 1167.94 261.238 1166.67 262.304C1170.96 262.816 1173.71 259.531 1174.56 257.825C1174.05 261.067 1175.82 263.015 1176.76 263.584C1179.28 261.707 1179.49 259.816 1179.28 259.105C1181.3 261.494 1184.54 262.091 1185.9 262.091C1186.41 261.238 1184.01 258.323 1182.75 256.972C1185.27 259.19 1189.27 259.46 1190.95 259.318C1190.19 259.318 1186.43 256.189 1184.64 254.625C1188.43 257.697 1192.94 256.616 1194.73 255.692C1190.7 256.033 1184.87 252.421 1182.47 250.572C1182.45 250.325 1182.44 250.102 1182.44 249.932C1186.47 251.639 1188.95 251.212 1189.69 250.785C1184.64 249.42 1181.84 246.377 1181.07 245.026C1181.02 244.703 1180.93 244.394 1180.86 244.173L1185.27 244.599Z" fill="#407501"/>
<path d="M1181.07 245.026C1181.02 244.703 1180.93 244.394 1180.86 244.173L1185.27 244.599C1180.73 243.575 1177.71 237.773 1176.76 235C1175 241.997 1170.14 243.888 1167.94 243.959C1169.7 245.154 1172.03 245.026 1172.98 244.813C1171.97 245.836 1171.3 246.377 1171.09 246.519C1171.3 246.55 1171.51 246.574 1171.72 246.59M1181.07 245.026C1181.18 245.635 1181.19 246.296 1180.86 246.519C1179.91 246.235 1177.9 245.452 1177.39 244.599C1176.8 245.4 1174.87 246.841 1171.72 246.59M1181.07 245.026C1181.84 246.377 1184.64 249.42 1189.69 250.785C1188.95 251.212 1186.47 251.639 1182.44 249.932C1182.44 250.102 1182.45 250.325 1182.47 250.572M1171.72 246.59C1171.21 247.329 1166.67 249.411 1164.47 250.359C1168.5 250.7 1170.56 249.648 1171.09 249.079C1171.09 250.103 1169.41 252.065 1168.57 252.919C1168.67 252.93 1168.78 252.939 1168.88 252.945M1182.47 250.572C1182.53 251.256 1182.7 252.116 1183.07 252.492C1181.91 252.279 1179.16 251.468 1177.39 249.932C1177.08 250.856 1176.01 252.791 1174.24 253.132C1174.35 252.35 1174.49 250.615 1174.24 249.932C1173.63 251.03 1171.73 253.107 1168.88 252.945M1182.47 250.572C1184.87 252.421 1190.7 256.033 1194.73 255.692C1192.94 256.616 1188.43 257.697 1184.64 254.625C1186.43 256.189 1190.19 259.318 1190.95 259.318C1189.27 259.46 1185.27 259.19 1182.75 256.972C1184.01 258.322 1186.41 261.238 1185.9 262.091C1184.54 262.091 1181.3 261.494 1179.28 259.105C1179.49 259.816 1179.28 261.707 1176.76 263.584C1175.82 263.015 1174.05 261.067 1174.56 257.825C1173.71 259.531 1170.96 262.816 1166.67 262.304C1167.94 261.238 1170.52 258.806 1170.77 257.611C1169.83 259.105 1167.05 261.92 1163.52 261.238C1163.94 260.525 1165.82 258.98 1166.99 257.825C1164.97 258.685 1161.84 258.115 1161 257.611C1164.28 257.611 1166.99 256.26 1167.94 255.692C1164.4 257.227 1162.05 256.118 1161.32 255.265C1164.34 255.606 1167.62 253.861 1168.88 252.945" stroke="#336300"/>
<path d="M1217.89 257.36V246.208H1210.38V257.36C1213.66 259.343 1216.75 258.186 1217.89 257.36Z" fill="#553D00"/>
<path d="M1231.53 197.881C1221.71 194.907 1215.16 178.054 1213.11 170C1209.29 190.322 1198.79 195.816 1194.01 196.022C1197.83 199.492 1202.88 199.12 1204.93 198.5C1202.74 201.474 1201.29 203.044 1200.83 203.457C1201.3 203.548 1201.75 203.616 1202.2 203.663C1201.1 205.811 1191.28 211.855 1186.5 214.609C1195.24 215.601 1199.69 212.544 1200.83 210.892C1200.83 213.866 1197.19 219.566 1195.37 222.044C1195.6 222.079 1195.83 222.105 1196.06 222.122C1193.33 224.781 1186.23 229.851 1179.68 228.859C1181.27 231.338 1186.37 234.559 1194.01 230.098C1191.96 231.751 1186.1 235.675 1179 235.675C1180.82 237.136 1187.6 238.791 1191.96 236.294C1189.43 239.651 1185.37 244.137 1184.46 246.207C1192.1 248.19 1198.1 240.012 1200.15 235.675C1199.6 239.144 1194.01 246.207 1191.28 249.305C1200.56 250.792 1206.52 241.251 1208.34 236.294C1207.24 245.712 1211.07 251.37 1213.11 253.023C1218.57 247.57 1219.02 242.077 1218.57 240.012C1222.94 246.951 1229.94 248.686 1232.9 248.686C1233.99 246.207 1228.8 237.74 1226.07 233.816C1231.53 240.259 1240.17 241.044 1243.81 240.631C1242.18 240.631 1234.03 231.544 1230.17 227.001C1238.36 235.922 1248.13 232.783 1252 230.098C1243.27 231.09 1230.67 220.598 1225.46 215.229C1225.41 214.512 1225.39 213.863 1225.39 213.37C1234.13 218.327 1239.49 217.087 1241.08 215.848C1230.17 211.883 1224.11 203.044 1222.44 199.12C1222.32 198.182 1222.14 197.285 1221.98 196.642L1231.53 197.881Z" fill="#407501"/>
<path d="M1222.44 199.12C1222.32 198.182 1222.14 197.285 1221.98 196.642L1231.53 197.881C1221.71 194.907 1215.16 178.054 1213.11 170C1209.29 190.322 1198.79 195.816 1194.01 196.022C1197.83 199.492 1202.88 199.12 1204.93 198.5C1202.74 201.474 1201.29 203.044 1200.83 203.457C1201.3 203.548 1201.75 203.616 1202.2 203.663M1222.44 199.12C1222.67 200.89 1222.69 202.809 1221.98 203.457C1219.93 202.631 1215.57 200.359 1214.48 197.881C1213.2 200.208 1209.03 204.392 1202.2 203.663M1222.44 199.12C1224.11 203.044 1230.17 211.883 1241.08 215.848C1239.49 217.087 1234.13 218.327 1225.39 213.37C1225.39 213.863 1225.41 214.512 1225.46 215.229M1202.2 203.663C1201.1 205.811 1191.28 211.855 1186.5 214.609C1195.24 215.601 1199.69 212.544 1200.83 210.892C1200.83 213.866 1197.19 219.566 1195.37 222.044C1195.6 222.079 1195.83 222.105 1196.06 222.122M1225.46 215.229C1225.59 217.214 1225.95 219.712 1226.76 220.805C1224.26 220.185 1218.3 217.831 1214.48 213.37C1213.79 216.055 1211.47 221.672 1207.65 222.664C1207.88 220.392 1208.2 215.353 1207.65 213.37C1206.34 216.558 1202.23 222.592 1196.06 222.122M1225.46 215.229C1230.67 220.598 1243.27 231.09 1252 230.098C1248.13 232.783 1238.36 235.922 1230.17 227.001C1234.03 231.544 1242.18 240.631 1243.81 240.631C1240.17 241.044 1231.53 240.259 1226.07 233.816C1228.8 237.74 1233.99 246.207 1232.9 248.686C1229.94 248.686 1222.94 246.951 1218.57 240.012C1219.02 242.077 1218.57 247.57 1213.11 253.023C1211.07 251.37 1207.24 245.712 1208.34 236.294C1206.52 241.251 1200.56 250.792 1191.28 249.305C1194.01 246.207 1199.6 239.144 1200.15 235.675C1198.1 240.012 1192.1 248.19 1184.46 246.207C1185.37 244.137 1189.43 239.651 1191.96 236.294C1187.6 238.791 1180.82 237.136 1179 235.675C1186.1 235.675 1191.96 231.751 1194.01 230.098C1186.37 234.559 1181.27 231.338 1179.68 228.859C1186.23 229.851 1193.33 224.781 1196.06 222.122" stroke="#336300"/>
<path d="M979.133 227.287V221.656H982.857V227.287C981.232 228.288 979.697 227.704 979.133 227.287Z" fill="#553D00"/>
<path d="M972.361 197.255C977.237 195.753 980.487 187.244 981.503 183.177C983.399 193.438 988.613 196.212 990.984 196.316C989.087 198.068 986.582 197.88 985.566 197.568C986.65 199.069 987.372 199.862 987.598 200.07C987.366 200.116 987.141 200.151 986.92 200.174C987.462 201.259 992.338 204.311 994.708 205.702C990.374 206.202 988.162 204.659 987.598 203.824C987.598 205.326 989.403 208.204 990.306 209.456C990.192 209.473 990.079 209.486 989.968 209.495C991.322 210.837 994.843 213.397 998.094 212.897C997.304 214.148 994.776 215.775 990.984 213.523C991.999 214.357 994.911 216.338 998.433 216.338C997.53 217.076 994.166 217.912 991.999 216.651C993.258 218.346 995.271 220.611 995.724 221.656C991.932 222.657 988.952 218.528 987.936 216.338C988.207 218.09 990.984 221.656 992.338 223.221C987.733 223.971 984.776 219.154 983.873 216.651C984.415 221.406 982.519 224.263 981.503 225.098C978.794 222.345 978.568 219.571 978.794 218.528C976.627 222.032 973.151 222.908 971.684 222.908C971.142 221.656 973.715 217.381 975.07 215.4C972.361 218.653 968.072 219.049 966.266 218.841C967.079 218.841 971.119 214.252 973.038 211.958C968.975 216.463 964.122 214.878 962.203 213.523C966.537 214.023 972.79 208.726 975.375 206.014C975.399 205.653 975.408 205.325 975.408 205.076C971.074 207.579 968.411 206.953 967.621 206.327C973.038 204.325 976.047 199.862 976.874 197.88C976.934 197.407 977.023 196.954 977.101 196.629L972.361 197.255Z" fill="#407501"/>
<path d="M976.874 197.88C976.934 197.407 977.023 196.954 977.101 196.629L972.361 197.255C977.237 195.753 980.487 187.244 981.503 183.177C983.399 193.438 988.613 196.212 990.984 196.316C989.087 198.068 986.582 197.88 985.566 197.568C986.65 199.069 987.372 199.862 987.598 200.07C987.366 200.116 987.141 200.151 986.92 200.174M976.874 197.88C976.759 198.774 976.747 199.743 977.101 200.07C978.117 199.653 980.284 198.506 980.826 197.255C981.462 198.43 983.531 200.543 986.92 200.174M976.874 197.88C976.047 199.862 973.038 204.325 967.621 206.327C968.411 206.953 971.074 207.579 975.408 205.076C975.408 205.325 975.399 205.653 975.375 206.014M986.92 200.174C987.462 201.259 992.338 204.311 994.708 205.702C990.374 206.202 988.162 204.659 987.598 203.824C987.598 205.326 989.403 208.204 990.306 209.456C990.192 209.473 990.079 209.486 989.968 209.495M975.375 206.014C975.308 207.017 975.129 208.278 974.731 208.83C975.973 208.517 978.93 207.328 980.826 205.076C981.164 206.431 982.316 209.268 984.212 209.768C984.099 208.621 983.941 206.077 984.212 205.076C984.865 206.686 986.905 209.732 989.968 209.495M975.375 206.014C972.79 208.726 966.537 214.023 962.203 213.523C964.122 214.878 968.975 216.463 973.038 211.958C971.119 214.252 967.079 218.841 966.266 218.841C968.072 219.049 972.361 218.653 975.07 215.4C973.715 217.381 971.142 221.656 971.684 222.908C973.151 222.908 976.627 222.032 978.794 218.528C978.568 219.571 978.794 222.345 981.503 225.098C982.519 224.263 984.415 221.406 983.873 216.651C984.776 219.154 987.733 223.971 992.338 223.221C990.984 221.656 988.207 218.09 987.936 216.338C988.952 218.528 991.932 222.657 995.724 221.656C995.271 220.611 993.258 218.346 991.999 216.651C994.166 217.912 997.53 217.076 998.433 216.338C994.911 216.338 991.999 214.357 990.984 213.523C994.776 215.775 997.304 214.148 998.094 212.897C994.843 213.397 991.322 210.837 989.968 209.495" stroke="#336300"/>
<path d="M303.141 242.163V234.865H308.672V242.163C306.259 243.46 303.979 242.703 303.141 242.163Z" fill="#553D00"/>
<path d="M293.085 203.243C300.325 201.297 305.152 190.27 306.661 185C309.477 198.297 317.22 201.892 320.74 202.027C317.924 204.297 314.203 204.054 312.695 203.649C314.304 205.595 315.376 206.622 315.712 206.892C315.368 206.951 315.033 206.996 314.706 207.027C315.51 208.432 322.751 212.387 326.271 214.189C319.835 214.838 316.55 212.838 315.712 211.757C315.712 213.703 318.393 217.433 319.734 219.054C319.564 219.077 319.397 219.094 319.231 219.105C321.243 220.845 326.472 224.162 331.299 223.514C330.126 225.135 326.371 227.243 320.74 224.324C322.248 225.406 326.572 227.973 331.802 227.973C330.461 228.929 325.466 230.013 322.248 228.379C324.118 230.575 327.107 233.51 327.779 234.865C322.148 236.162 317.723 230.811 316.214 227.973C316.617 230.243 320.74 234.865 322.751 236.892C315.913 237.865 311.521 231.622 310.18 228.379C310.985 234.541 308.169 238.243 306.661 239.325C302.638 235.757 302.303 232.162 302.638 230.811C299.42 235.352 294.258 236.487 292.079 236.487C291.274 234.865 295.096 229.325 297.107 226.757C293.085 230.973 286.716 231.487 284.034 231.216C285.241 231.216 291.241 225.27 294.09 222.297C288.056 228.135 280.849 226.081 278 224.324C284.436 224.973 293.722 218.108 297.56 214.595C297.596 214.126 297.61 213.701 297.61 213.378C291.174 216.622 287.218 215.811 286.045 215C294.09 212.406 298.558 206.622 299.786 204.054C299.876 203.44 300.008 202.854 300.124 202.433L293.085 203.243Z" fill="#407501"/>
<path d="M299.786 204.054C299.876 203.44 300.008 202.854 300.124 202.433L293.085 203.243C300.325 201.297 305.152 190.27 306.661 185C309.477 198.297 317.22 201.892 320.74 202.027C317.924 204.297 314.203 204.054 312.695 203.649C314.304 205.595 315.376 206.622 315.712 206.892C315.368 206.951 315.033 206.996 314.706 207.027M299.786 204.054C299.617 205.213 299.598 206.468 300.124 206.892C301.633 206.351 304.851 204.865 305.655 203.243C306.599 204.766 309.672 207.504 314.706 207.027M299.786 204.054C298.558 206.622 294.09 212.406 286.045 215C287.218 215.811 291.174 216.622 297.61 213.378C297.61 213.701 297.596 214.126 297.56 214.595M314.706 207.027C315.51 208.432 322.751 212.387 326.271 214.189C319.835 214.838 316.55 212.838 315.712 211.757C315.712 213.703 318.393 217.433 319.734 219.054C319.564 219.077 319.397 219.094 319.231 219.105M297.56 214.595C297.461 215.894 297.196 217.528 296.604 218.243C298.448 217.838 302.839 216.297 305.655 213.378C306.158 215.135 307.868 218.811 310.683 219.46C310.516 217.973 310.281 214.676 310.683 213.378C311.654 215.465 314.684 219.413 319.231 219.105M297.56 214.595C293.722 218.108 284.436 224.973 278 224.324C280.849 226.081 288.056 228.135 294.09 222.297C291.241 225.27 285.241 231.216 284.034 231.216C286.716 231.487 293.085 230.973 297.107 226.757C295.096 229.325 291.274 234.865 292.079 236.487C294.258 236.487 299.42 235.352 302.638 230.811C302.303 232.162 302.638 235.757 306.661 239.325C308.169 238.243 310.985 234.541 310.18 228.379C311.521 231.622 315.913 237.865 322.751 236.892C320.74 234.865 316.617 230.243 316.214 227.973C317.723 230.811 322.148 236.162 327.779 234.865C327.107 233.51 324.118 230.575 322.248 228.379C325.466 230.013 330.461 228.929 331.802 227.973C326.572 227.973 322.248 225.406 320.74 224.324C326.371 227.243 330.126 225.135 331.299 223.514C326.472 224.162 321.243 220.845 319.231 219.105" stroke="#336300"/>
<defs>
<filter id="filter0_f" x="137" y="210" width="107" height="18" filterUnits="userSpaceOnUse" color-interpolation-filters="sRGB">
<feFlood flood-opacity="0" result="BackgroundImageFix"/>
<feBlend mode="normal" in="SourceGraphic" in2="BackgroundImageFix" result="shape"/>
<feGaussianBlur stdDeviation="1" result="effect1_foregroundBlur"/>
</filter>
</defs>
</svg>
