<svg width="1283" height="278" viewBox="0 0 1283 278" fill="none" xmlns="http://www.w3.org/2000/svg">
<path d="M190.767 53.2162C298.206 16.5647 582.419 -34.7473 859.762 53.2162H190.767Z" fill="#8BC62E"/>
<path d="M512.458 66.3358C651.379 -6.63396 1106.22 -21.2757 1283 33.7015V241.888H512.458V66.3358Z" fill="#5F9604"/>
<path d="M940.339 58.2141C1028.41 58.2141 1077.76 11.3585 1120.24 6.98535C1135.44 7.68745 1131.48 6.98535 1159.59 10.7339C1092.13 21.3547 1033.41 98.1977 899.738 85.7028C831.027 97.5729 722.963 26.3523 599.283 35.7236C623.447 31.4368 639.516 25.2085 669.243 22.604C736.081 29.4762 852.264 58.2141 940.339 58.2141Z" fill="#93DEF2"/>
<path d="M759.817 36.9729C816.862 46.7582 879.307 54.4658 933.469 54.4658C994.584 54.4658 1033.3 40.3756 1067.77 25.1028C974.217 83.7371 825.245 51.2438 760.121 37.0392L759.817 36.9729Z" fill="#499DB9"/>
<path d="M949.085 274.37C755.195 9.34153 235.74 -4.82665 0.249023 21.2178V274.37H949.085Z" fill="#70AB13"/>
<path d="M655.503 127.48C681.988 119.479 651.115 86.9337 633 73.3906L653.5 79.3938L674 86.8977C715.226 126.901 723.032 194.566 519.331 127.48C321.942 62.4724 306.951 136.855 351.3 167.484L316.32 163.108C241.987 82.4745 378.16 67.7625 427.507 76.8488C505.588 91.2258 629.018 135.481 655.503 127.48Z" fill="#79D4F0"/>
<path d="M427.508 78.7243C505.588 93.1013 629.019 135.481 655.504 127.48C665.276 124.528 667.412 118.706 665.307 111.853C668.621 153.732 513.709 86.2248 427.508 74.9739C355 65.5101 315.86 85.3917 305.011 98.7264C330.536 74.8648 396.34 72.9853 427.508 78.7243Z" fill="#629EB8"/>
<path d="M714.22 276.249H0.25V126.311C134.939 136.61 367.243 162.664 533.073 202.862C646.758 151.522 959.181 73.1656 1282 164.128V278L714.22 276.249Z" fill="#578A01"/>
<path d="M316.945 276.249C509.336 264.772 496.219 208.43 461.863 186.911C489.347 191.909 519.33 202.831 549.313 195.658C578.297 244.174 538.486 270.598 514.333 276.249H316.945Z" fill="#6CC7E3"/>
<path d="M514.333 276.249C541.193 274.293 578.671 234.392 549.313 195.658C560.719 219.785 565.554 256.034 514.333 276.249Z" fill="#A1E1EA"/>
<path d="M462.487 188.215C496.218 201.257 510.585 265.815 354.424 272.989C464.361 263.859 513.084 221.473 462.487 188.215Z" fill="#579EBE"/>
</svg>
