<svg width="68" height="126" viewBox="0 0 68 126" fill="none" xmlns="http://www.w3.org/2000/svg">
<path d="M23.3252 99.6002C25.0675 101.087 30.9694 100.093 32.6833 98.4379C28.3458 75.185 29.0912 16.3004 29.4068 13.8731C30.4353 5.9614 64.5138 11.4511 66.3717 11.5091C66.7901 10.331 67.3301 8.26478 66.9545 5.7637C66.8001 4.73586 66.5242 3.85827 66.2369 3.14932C57.8086 0.832733 29.2786 -1.10169 23.5223 4.68583C17.5004 10.7369 21.2677 89.8594 23.3252 99.6002Z" fill="#819AAE"/>
<path d="M28.8286 96.8142C27.3014 97.3281 25.7139 97.4335 24.7891 97.3492C23.8368 90.8448 22.5821 71.0365 22.152 50.9041C21.3073 11.3244 24.2208 6.47248 24.5557 6.04817C24.7991 5.8057 25.498 5.26542 27.1212 4.71988C35.4603 1.91045 55.1809 3.06218 63.4453 4.88593C63.5169 5.17056 63.5746 5.4552 63.6174 5.74246C63.744 6.58318 63.7458 7.45286 63.6272 8.31993C53.1476 6.99956 38.4259 5.53424 31.2196 7.96152C27.3448 9.26608 26.2767 11.501 26.0628 13.1455C25.6695 16.1763 25.059 72.4201 29.0517 96.7351C28.9814 96.7615 28.9071 96.7878 28.8286 96.8142Z" fill="#9FB1BE"/>
<path d="M17.839 117.405C19.8219 118.554 25.4465 116.512 26.8318 114.575C18.3475 92.4895 8.39762 34.4429 8.26758 31.9998C7.84388 24.0328 42.3554 23.2817 44.1937 23.005C44.3914 21.7716 44.5471 19.6394 43.7245 17.2517C43.3862 16.2687 42.9554 15.4543 42.5441 14.806C33.8349 14.0496 5.4246 17.2939 0.813077 24.0223C-4.01122 31.0616 14.0484 108.2 17.839 117.405Z" fill="#819AAE"/>
<path d="M22.7463 113.673C21.3375 114.456 19.7955 114.846 18.8709 114.93C16.7543 108.705 11.9263 89.4506 7.85104 69.7266C-0.16064 30.9534 1.82437 25.6534 2.07706 25.1791C2.27265 24.8971 2.86181 24.2382 4.3589 23.408C12.0508 19.1411 31.6551 16.7165 40.1142 17.0196C40.2358 17.2858 40.3445 17.5572 40.4388 17.8313C40.7158 18.6351 40.8752 19.489 40.9156 20.364C30.3694 20.9543 15.6251 22.1693 8.97808 25.859C5.40427 27.8409 4.75907 30.2313 4.84682 31.8864C5.00964 34.9356 14.6136 90.3651 22.9514 113.555C22.8869 113.594 22.8185 113.634 22.7463 113.673Z" fill="#9FB1BE"/>
<path d="M2.96442 123.97C4.37931 125.771 10.3616 125.955 12.3688 124.669C12.7071 101.021 25.0639 43.4353 25.8523 41.1187C28.4231 33.5628 60.751 45.6333 62.5611 46.055C63.2039 44.9824 64.1412 43.0611 64.2664 40.5363C64.318 39.5006 64.221 38.5834 64.0791 37.8323C56.2735 33.9054 28.6832 26.4101 21.8974 30.9537C14.7984 35.7055 2.87006 114.019 2.96442 123.97Z" fill="#9FB1BE"/>
<path d="M8.91025 122.321C7.31141 122.526 5.73397 122.318 4.84375 122.054C5.1945 115.489 7.87519 95.8208 11.4287 75.9993C18.4145 37.0285 22.2294 32.8433 22.6412 32.4928C22.928 32.303 23.7196 31.9103 25.4192 31.6942C34.1495 30.5768 53.2569 35.5763 60.9995 38.9866C61.0138 39.2792 61.0138 39.5717 60.9993 39.8616C60.9572 40.7102 60.7875 41.5615 60.5 42.389C50.4861 39.0367 36.3418 34.7118 28.7969 35.6764C24.7404 36.1956 23.252 38.1775 22.7176 39.7482C21.7338 42.6394 10.0304 97.6656 9.1447 122.286C9.07043 122.299 8.99219 122.31 8.91025 122.321Z" fill="#AEBBC5"/>
</svg>
