<svg width="108" height="152" viewBox="0 0 108 152" fill="none" xmlns="http://www.w3.org/2000/svg">
<path d="M31.0534 145.884C31.0534 147.403 29.8105 148.646 28.2914 148.646H2.76206C1.24293 148.646 0 147.403 0 145.884V80.9757C0 79.4565 1.24293 78.2136 2.76206 78.2136H28.2716C29.7908 78.2136 31.0337 79.4565 31.0337 80.9757V145.884H31.0534Z" fill="#D6948C"/>
<path d="M52.2026 149.238C52.2026 150.757 50.9596 152 49.4405 152H47.5071C46.4614 151.605 32.9668 147.028 32.9668 145.845L50.1113 100.724H52.025L52.2026 149.238Z" fill="#CFD1D1"/>
<path d="M50.2697 149.238C50.2697 150.757 49.0268 152 47.5077 152C47.5077 152 33.145 148.547 32.849 148.429C31.8034 148.035 31.0537 147.028 31.0537 145.845V102.066L50.1316 100.705L50.2697 149.238Z" fill="#D6948C"/>
<path d="M48.5925 148.508L35.2754 145.489V106.683L48.5925 105.893V148.508Z" fill="#C7C9C9" stroke="#EDEDED" stroke-width="0.995" stroke-miterlimit="10"/>
<path d="M32.5146 143.911L35.2767 145.489V106.683L32.5344 106.821L32.5146 143.911Z" fill="#E0E2E2"/>
<path d="M46.6585 125.76C46.6585 125.8 46.6191 125.839 46.5796 125.839H45.534C45.4945 125.839 45.4551 125.8 45.4551 125.76V125.662C45.4551 125.622 45.4945 125.583 45.534 125.583H46.5994C46.6388 125.583 46.6783 125.622 46.6783 125.662V125.76H46.6585Z" fill="#48A1AF"/>
<path d="M47.2714 127.733C47.2714 126.885 46.6203 126.194 46.6203 126.194C46.5612 126.076 46.5809 125.326 46.5809 125.326H45.5352C45.5352 125.326 45.555 126.096 45.4958 126.194C45.4958 126.194 44.8447 126.885 44.8447 127.733C44.8447 127.733 44.8447 127.891 44.8842 128.108C44.9039 128.246 44.9828 128.424 44.9828 128.601C44.9828 128.779 44.8842 128.976 44.8842 129.154C44.8842 129.469 44.8842 129.726 44.8842 129.844C44.8842 130.18 45.0026 131.127 45.0026 131.344C45.0026 131.561 44.8842 131.778 44.8842 132.034C44.8842 132.291 44.8842 133.198 44.8842 133.198C44.8842 133.198 44.9434 133.731 46.0482 133.731C47.1728 133.731 47.2122 133.198 47.2122 133.198C47.2122 133.198 47.2122 132.31 47.2122 132.034C47.2122 131.758 47.0938 131.561 47.0938 131.344C47.0938 131.127 47.2122 130.18 47.2122 129.844C47.2122 129.726 47.2122 129.469 47.2122 129.154C47.2122 128.976 47.1136 128.799 47.1136 128.601C47.1136 128.424 47.1925 128.246 47.2122 128.108C47.2714 127.891 47.2714 127.733 47.2714 127.733Z" fill="#E3EBEE"/>
<path d="M46.0667 125.326H45.5538C45.5538 125.326 45.5735 126.096 45.5143 126.194C45.5143 126.194 44.8633 126.885 44.8633 127.733C44.8633 127.733 44.8633 127.891 44.9027 128.108C44.9225 128.246 45.0014 128.424 45.0014 128.601C45.0014 128.779 44.9027 128.976 44.9027 129.154V129.844C44.9027 130.18 45.0211 131.127 45.0211 131.344C45.0211 131.561 44.9027 131.778 44.9027 132.034C44.9027 132.291 44.9027 133.198 44.9027 133.198C44.9027 133.198 44.9619 133.731 46.0667 133.731V125.326Z" fill="#F7FBFC"/>
<path d="M44.8633 127.871C44.8633 127.931 44.883 128.01 44.883 128.108C44.9027 128.246 44.9817 128.424 44.9817 128.601C44.9817 128.779 44.883 128.976 44.883 129.154C44.883 129.47 44.883 129.726 44.883 129.844C44.883 130.18 45.0014 131.127 45.0014 131.344C45.0014 131.561 44.883 131.778 44.883 132.034C44.883 132.291 44.883 133.198 44.883 133.198C44.883 133.198 45.317 132.883 46.047 132.883C46.777 132.883 47.211 133.198 47.211 133.198C47.211 133.198 47.211 132.31 47.211 132.034C47.211 131.758 47.0927 131.561 47.0927 131.344C47.0927 131.127 47.211 130.18 47.211 129.844C47.211 129.726 47.211 129.47 47.211 129.154C47.211 128.976 47.1124 128.799 47.1124 128.601C47.1124 128.424 47.1913 128.246 47.211 128.108C47.2308 128.01 47.2308 127.931 47.2505 127.871C47.2505 127.871 46.6389 127.812 46.0273 127.812C45.4552 127.812 44.8633 127.871 44.8633 127.871Z" fill="#9CC9D3"/>
<path d="M46.7181 125.918C46.7181 125.958 46.6787 125.997 46.6392 125.997H45.4949C45.4555 125.997 45.416 125.958 45.416 125.918V125.82C45.416 125.78 45.4555 125.741 45.4949 125.741H46.6392C46.6787 125.741 46.7181 125.78 46.7181 125.82V125.918Z" fill="#48A1AF"/>
<path d="M46.0671 125.977H45.4949C45.4555 125.977 45.416 125.938 45.416 125.899V125.8C45.416 125.76 45.4555 125.721 45.4949 125.721H46.0671V125.977Z" fill="#5CB6BF"/>
<path d="M46.6402 126.194C46.6402 126.175 46.6205 126.155 46.6205 126.116H45.5354C45.5354 126.155 45.5156 126.175 45.5156 126.194H46.6402Z" fill="#ABD6D6"/>
<path d="M46.0673 126.116H45.5148C45.5148 126.155 45.4951 126.175 45.4951 126.194H46.0673V126.116Z" fill="#BFE2E1"/>
<path d="M46.7383 125.958C46.7383 125.977 46.7383 125.977 46.7185 125.977H45.3967C45.377 125.977 45.377 125.977 45.377 125.958V125.918C45.377 125.899 45.377 125.899 45.3967 125.899H46.7185C46.7383 125.899 46.7383 125.899 46.7383 125.918V125.958Z" fill="#48A1AF"/>
<path d="M46.0663 125.918H45.4152C45.3955 125.918 45.3955 125.918 45.3955 125.938V125.977C45.3955 125.997 45.3955 125.997 45.4152 125.997H46.0663V125.918Z" fill="#5CB6BF"/>
<path d="M46.5015 125.208H45.6334C45.3967 125.208 45.4164 125.386 45.4164 125.386C45.4164 125.386 45.4164 125.622 45.4164 125.662C45.4164 125.681 45.4164 125.701 45.4559 125.701C45.4953 125.701 46.6396 125.701 46.6594 125.701C46.6988 125.701 46.6988 125.681 46.6988 125.662C46.6988 125.642 46.6988 125.386 46.6988 125.386C46.6988 125.386 46.7383 125.208 46.5015 125.208Z" fill="#48A1AF"/>
<path d="M46.0675 125.208H45.6334C45.3967 125.208 45.4164 125.386 45.4164 125.386C45.4164 125.386 45.4164 125.622 45.4164 125.662C45.4164 125.681 45.4164 125.701 45.4559 125.701C45.4756 125.701 45.7715 125.701 46.0675 125.701V125.208Z" fill="#5CB6BF"/>
<path d="M46.0667 127.812C45.4749 127.812 44.8633 127.891 44.8633 127.891C44.8633 127.95 44.883 128.029 44.883 128.128C44.9027 128.266 44.9817 128.444 44.9817 128.621C44.9817 128.799 44.883 128.996 44.883 129.174V129.864C44.883 130.199 45.0014 131.146 45.0014 131.364C45.0014 131.581 44.883 131.798 44.883 132.054C44.883 132.31 44.883 133.218 44.883 133.218C44.883 133.218 44.9422 133.751 46.047 133.751L46.0667 127.812Z" fill="#CAE2E8"/>
<path d="M39.9712 125.188C39.9712 125.228 39.9318 125.267 39.8923 125.267H38.827C38.7875 125.267 38.748 125.228 38.748 125.188V125.09C38.748 125.05 38.7875 125.011 38.827 125.011H39.8923C39.9318 125.011 39.9712 125.05 39.9712 125.09V125.188Z" fill="#48A1AF"/>
<path d="M40.5829 127.161C40.5829 126.313 39.9319 125.622 39.9319 125.622C39.8727 125.504 39.8924 124.754 39.8924 124.754H38.8468C38.8468 124.754 38.8665 125.524 38.8073 125.622C38.8073 125.622 38.1563 126.313 38.1563 127.161C38.1563 127.161 38.1562 127.319 38.1957 127.536C38.2154 127.674 38.2943 127.852 38.2943 128.029C38.2943 128.207 38.1957 128.404 38.1957 128.582C38.1957 128.897 38.1957 129.154 38.1957 129.272C38.1957 129.608 38.3141 130.555 38.3141 130.772C38.3141 130.989 38.1957 131.206 38.1957 131.462C38.1957 131.719 38.1957 132.626 38.1957 132.626C38.1957 132.626 38.2549 133.159 39.3597 133.159C40.4843 133.159 40.5237 132.626 40.5237 132.626C40.5237 132.626 40.5237 131.738 40.5237 131.462C40.5237 131.186 40.4054 130.989 40.4054 130.772C40.4054 130.555 40.5237 129.608 40.5237 129.272C40.5237 129.154 40.5237 128.897 40.5237 128.582C40.5237 128.404 40.4251 128.227 40.4251 128.029C40.4251 127.852 40.504 127.674 40.5237 127.536C40.5829 127.299 40.5829 127.161 40.5829 127.161Z" fill="#E3EBEE"/>
<path d="M40.5829 127.161C40.5829 126.767 40.4448 126.392 40.287 126.116H38.4522C38.2944 126.392 38.1563 126.747 38.1563 127.161C38.1563 127.161 38.1562 127.319 38.1957 127.536C38.2154 127.674 38.2943 127.852 38.2943 128.029C38.2943 128.207 38.1957 128.404 38.1957 128.582C38.1957 128.897 38.1957 129.154 38.1957 129.272C38.1957 129.608 38.3141 130.555 38.3141 130.772C38.3141 130.989 38.1957 131.206 38.1957 131.462C38.1957 131.719 38.1957 132.626 38.1957 132.626C38.1957 132.626 38.2549 133.159 39.3597 133.159C40.4843 133.159 40.5237 132.626 40.5237 132.626C40.5237 132.626 40.5237 131.738 40.5237 131.462C40.5237 131.186 40.4054 130.989 40.4054 130.772C40.4054 130.555 40.5237 129.608 40.5237 129.272C40.5237 129.154 40.5237 128.897 40.5237 128.582C40.5237 128.404 40.4251 128.227 40.4251 128.029C40.4251 127.852 40.504 127.674 40.5237 127.536C40.5829 127.299 40.5829 127.161 40.5829 127.161Z" fill="#9CC9D3"/>
<path d="M39.3597 124.735H38.8468C38.8468 124.735 38.8665 125.504 38.8073 125.603C38.8073 125.603 38.1563 126.293 38.1563 127.141C38.1563 127.141 38.1562 127.299 38.1957 127.516C38.2154 127.654 38.2943 127.832 38.2943 128.01C38.2943 128.187 38.1957 128.384 38.1957 128.562V129.252C38.1957 129.588 38.3141 130.535 38.3141 130.752C38.3141 130.969 38.1957 131.186 38.1957 131.442C38.1957 131.699 38.1957 132.606 38.1957 132.606C38.1957 132.606 38.2549 133.139 39.3597 133.139V124.735Z" fill="#F7FBFC"/>
<path d="M40.0101 125.326C40.0101 125.366 39.9707 125.405 39.9312 125.405H38.7869C38.7475 125.405 38.708 125.366 38.708 125.326V125.228C38.708 125.188 38.7475 125.149 38.7869 125.149H39.9312C39.9707 125.149 40.0101 125.188 40.0101 125.228V125.326Z" fill="#48A1AF"/>
<path d="M39.3591 125.405H38.7869C38.7475 125.405 38.708 125.366 38.708 125.326V125.228C38.708 125.188 38.7475 125.149 38.7869 125.149H39.3591V125.405Z" fill="#5CB6BF"/>
<path d="M39.9322 125.622C39.9322 125.603 39.9124 125.583 39.9124 125.543H38.8273C38.8273 125.583 38.8076 125.603 38.8076 125.622H39.9322Z" fill="#ABD6D6"/>
<path d="M39.36 125.524H38.8273C38.8273 125.563 38.8076 125.583 38.8076 125.603H39.3798V125.524H39.36Z" fill="#BFE2E1"/>
<path d="M40.0498 125.386C40.0498 125.405 40.0498 125.405 40.03 125.405H38.7082C38.6885 125.405 38.6885 125.405 38.6885 125.386V125.346C38.6885 125.326 38.6885 125.326 38.7082 125.326H40.03C40.0498 125.326 40.0498 125.326 40.0498 125.346V125.386Z" fill="#48A1AF"/>
<path d="M39.3593 125.326H38.7082C38.6885 125.326 38.6885 125.326 38.6885 125.346V125.386C38.6885 125.405 38.6885 125.405 38.7082 125.405H39.3593V125.326Z" fill="#5CB6BF"/>
<path d="M39.7935 124.616H38.9254C38.6887 124.616 38.7084 124.794 38.7084 124.794C38.7084 124.794 38.7084 125.03 38.7084 125.07C38.7084 125.09 38.7084 125.109 38.7479 125.109C38.7873 125.109 39.9316 125.109 39.9513 125.109C39.9908 125.109 39.9908 125.09 39.9908 125.07C39.9908 125.05 39.9908 124.794 39.9908 124.794C39.9908 124.794 40.0303 124.616 39.7935 124.616Z" fill="#48A1AF"/>
<path d="M39.3595 124.616H38.9254C38.6887 124.616 38.7084 124.794 38.7084 124.794C38.7084 124.794 38.7084 125.03 38.7084 125.07C38.7084 125.09 38.7084 125.109 38.7479 125.109C38.7676 125.109 39.0635 125.109 39.3595 125.109V124.616Z" fill="#5CB6BF"/>
<path d="M38.4522 126.116C38.2944 126.392 38.1563 126.747 38.1563 127.161C38.1563 127.161 38.1562 127.319 38.1957 127.536C38.2154 127.674 38.2943 127.852 38.2943 128.029C38.2943 128.207 38.1957 128.404 38.1957 128.582V129.272C38.1957 129.608 38.3141 130.555 38.3141 130.772C38.3141 130.989 38.1957 131.206 38.1957 131.462C38.1957 131.719 38.1957 132.626 38.1957 132.626C38.1957 132.626 38.2549 133.159 39.3597 133.159V126.135L38.4522 126.116Z" fill="#CAE2E8"/>
<path d="M36.7943 125.07C36.7943 125.109 36.7548 125.149 36.7154 125.149H35.6697C35.6303 125.149 35.5908 125.109 35.5908 125.07V124.971C35.5908 124.932 35.6303 124.892 35.6697 124.892H36.7351C36.7746 124.892 36.814 124.932 36.814 124.971V125.07H36.7943Z" fill="#48A1AF"/>
<path d="M37.4071 127.043C37.4071 126.194 36.7561 125.504 36.7561 125.504C36.6969 125.386 36.7166 124.636 36.7166 124.636H35.671C35.671 124.636 35.6907 125.405 35.6315 125.504C35.6315 125.504 34.9805 126.194 34.9805 127.043C34.9805 127.043 34.9805 127.201 35.0199 127.418C35.0397 127.556 35.1186 127.733 35.1186 127.911C35.1186 128.088 35.0199 128.286 35.0199 128.463C35.0199 128.779 35.0199 129.035 35.0199 129.154C35.0199 129.489 35.1383 130.436 35.1383 130.653C35.1383 130.87 35.0199 131.087 35.0199 131.344C35.0199 131.6 35.0199 132.508 35.0199 132.508C35.0199 132.508 35.0791 133.04 36.1839 133.04C37.3085 133.04 37.3479 132.508 37.3479 132.508C37.3479 132.508 37.3479 131.62 37.3479 131.344C37.3479 131.068 37.2296 130.87 37.2296 130.653C37.2296 130.436 37.3479 129.489 37.3479 129.154C37.3479 129.035 37.3479 128.779 37.3479 128.463C37.3479 128.286 37.2493 128.108 37.2493 127.911C37.2493 127.733 37.3282 127.556 37.3479 127.418C37.4071 127.201 37.4071 127.043 37.4071 127.043Z" fill="#E3EBEE"/>
<path d="M37.4071 127.043C37.4071 126.648 37.269 126.273 37.1112 125.997H35.2764C35.1186 126.273 34.9805 126.628 34.9805 127.043C34.9805 127.043 34.9805 127.201 35.0199 127.418C35.0397 127.556 35.1186 127.733 35.1186 127.911C35.1186 128.088 35.0199 128.286 35.0199 128.463C35.0199 128.779 35.0199 129.035 35.0199 129.154C35.0199 129.489 35.1383 130.436 35.1383 130.653C35.1383 130.87 35.0199 131.087 35.0199 131.344C35.0199 131.6 35.0199 132.508 35.0199 132.508C35.0199 132.508 35.0791 133.04 36.1839 133.04C37.3085 133.04 37.3479 132.508 37.3479 132.508C37.3479 132.508 37.3479 131.62 37.3479 131.344C37.3479 131.068 37.2296 130.87 37.2296 130.653C37.2296 130.436 37.3479 129.489 37.3479 129.154C37.3479 129.035 37.3479 128.779 37.3479 128.463C37.3479 128.286 37.2493 128.108 37.2493 127.911C37.2493 127.733 37.3282 127.556 37.3479 127.418C37.4071 127.201 37.4071 127.043 37.4071 127.043Z" fill="#9CC9D3"/>
<path d="M36.2037 124.636H35.671C35.671 124.636 35.6907 125.405 35.6315 125.504C35.6315 125.504 34.9805 126.194 34.9805 127.043C34.9805 127.043 34.9805 127.201 35.0199 127.418C35.0397 127.556 35.1186 127.733 35.1186 127.911C35.1186 128.088 35.0199 128.286 35.0199 128.463V129.154C35.0199 129.489 35.1383 130.436 35.1383 130.653C35.1383 130.87 35.0199 131.087 35.0199 131.344C35.0199 131.6 35.0199 132.508 35.0199 132.508C35.0199 132.508 35.0791 133.04 36.1839 133.04V124.636H36.2037Z" fill="#F7FBFC"/>
<path d="M36.8343 125.208C36.8343 125.247 36.7949 125.287 36.7554 125.287H35.6111C35.5717 125.287 35.5322 125.247 35.5322 125.208V125.109C35.5322 125.07 35.5717 125.03 35.6111 125.03H36.7554C36.7949 125.03 36.8343 125.07 36.8343 125.109V125.208Z" fill="#48A1AF"/>
<path d="M36.1833 125.287H35.6111C35.5717 125.287 35.5322 125.247 35.5322 125.208V125.109C35.5322 125.07 35.5717 125.03 35.6111 125.03H36.1833V125.287Z" fill="#5CB6BF"/>
<path d="M36.7554 125.504C36.7554 125.484 36.7357 125.465 36.7357 125.425H35.6506C35.6506 125.465 35.6309 125.484 35.6309 125.504H36.7554Z" fill="#ABD6D6"/>
<path d="M36.203 125.425H35.6506C35.6506 125.465 35.6309 125.484 35.6309 125.504H36.203V125.425Z" fill="#BFE2E1"/>
<path d="M36.874 125.267C36.874 125.287 36.874 125.287 36.8543 125.287H35.5324C35.5127 125.287 35.5127 125.287 35.5127 125.267V125.228C35.5127 125.208 35.5127 125.208 35.5324 125.208H36.8543C36.874 125.208 36.874 125.208 36.874 125.228V125.267Z" fill="#48A1AF"/>
<path d="M36.1835 125.208H35.5324C35.5127 125.208 35.5127 125.208 35.5127 125.228V125.267C35.5127 125.287 35.5127 125.287 35.5324 125.287H36.1835V125.208Z" fill="#5CB6BF"/>
<path d="M36.6168 124.498H35.7487C35.5119 124.498 35.5317 124.675 35.5317 124.675C35.5317 124.675 35.5317 124.912 35.5317 124.952C35.5317 124.971 35.5317 124.991 35.5711 124.991C35.6106 124.991 36.7549 124.991 36.7746 124.991C36.8141 124.991 36.8141 124.971 36.8141 124.952C36.8141 124.932 36.8141 124.675 36.8141 124.675C36.8141 124.675 36.8535 124.498 36.6168 124.498Z" fill="#48A1AF"/>
<path d="M36.1827 124.498H35.7487C35.5119 124.498 35.5317 124.675 35.5317 124.675C35.5317 124.675 35.5317 124.912 35.5317 124.952C35.5317 124.971 35.5317 124.991 35.5711 124.991C35.5908 124.991 35.8868 124.991 36.1827 124.991V124.498Z" fill="#5CB6BF"/>
<path d="M35.2764 125.997C35.1186 126.273 34.9805 126.628 34.9805 127.043C34.9805 127.043 34.9805 127.201 35.0199 127.418C35.0397 127.556 35.1186 127.733 35.1186 127.911C35.1186 128.088 35.0199 128.286 35.0199 128.463V129.154C35.0199 129.489 35.1383 130.436 35.1383 130.653C35.1383 130.87 35.0199 131.087 35.0199 131.344C35.0199 131.6 35.0199 132.508 35.0199 132.508C35.0199 132.508 35.0791 133.04 36.1839 133.04V126.017L35.2764 125.997Z" fill="#CAE2E8"/>
<path d="M48.8295 135.586L32.5137 134.283V130.061L48.6914 130.732L48.8295 135.586Z" fill="#D6948C"/>
<path d="M49.0268 122.426L32.5137 122.209V118.658L48.9085 118.599L49.0268 122.426Z" fill="#D6948C"/>
<path d="M38.6695 110.096C38.7879 110.984 38.2946 111.615 37.5647 111.714C36.8347 111.812 36.1836 111.359 36.0653 110.451C35.9469 109.563 36.3809 108.458 37.1109 108.36C37.8409 108.261 38.5511 109.208 38.6695 110.096Z" fill="#EDAF6B"/>
<path d="M42.083 110.411C42.0041 111.319 41.353 111.792 40.6231 111.733C39.8931 111.654 39.3604 111.062 39.459 110.155C39.538 109.247 40.2285 108.3 40.9584 108.359C41.6884 108.438 42.1619 109.523 42.083 110.411Z" fill="#EDAF6B"/>
<path d="M45.4366 109.839C45.6536 110.707 45.1998 111.398 44.5093 111.556C43.7991 111.733 43.0888 111.339 42.8915 110.451C42.6745 109.583 43.0099 108.438 43.7201 108.281C44.3909 108.123 45.2196 108.971 45.4366 109.839Z" fill="#EDAF6B"/>
<path d="M48.8305 114.318L32.5146 114.574V110.964L48.6924 110.372L48.8305 114.318Z" fill="#D6948C"/>
<path d="M46.4226 136.73C46.4226 136.769 46.3832 136.809 46.3437 136.809H45.2586C45.2192 136.809 45.1797 136.769 45.1797 136.73V136.631C45.1797 136.592 45.2192 136.552 45.2586 136.552H46.3437C46.3832 136.552 46.4226 136.592 46.4226 136.631V136.73Z" fill="#48A1AF"/>
<path d="M47.626 140.242C47.626 138.348 46.4028 137.164 46.4028 137.164C46.3436 137.045 46.3634 136.276 46.3634 136.276H45.298C45.298 136.276 45.3177 137.065 45.2586 137.164C45.2586 137.164 44.0354 138.387 44.0354 140.242C44.0354 142.096 44.2524 142.333 44.2524 143.221C44.2524 143.556 44.0156 143.931 44.0156 145.075C44.0156 145.489 44.0156 148.429 44.0156 148.429C44.0156 148.429 44.1735 149.258 45.8307 149.258C47.4879 149.258 47.6458 148.429 47.6458 148.429C47.6458 148.429 47.6458 145.489 47.6458 145.075C47.6458 143.97 47.409 143.556 47.409 143.221C47.3893 142.313 47.626 142.136 47.626 140.242Z" fill="#E3EBEE"/>
<path d="M45.8112 136.276H45.2785C45.2785 136.276 45.2982 137.065 45.239 137.164C45.239 137.164 44.0158 138.387 44.0158 140.242C44.0158 142.096 44.2328 142.333 44.2328 143.221C44.2328 143.556 43.9961 143.931 43.9961 145.075C43.9961 145.489 43.9961 148.429 43.9961 148.429C43.9961 148.429 44.1539 149.258 45.8112 149.258V136.276Z" fill="#F7FBFC"/>
<path d="M46.482 136.868C46.482 136.907 46.4425 136.947 46.4031 136.947H45.2391C45.1996 136.947 45.1602 136.907 45.1602 136.868V136.769C45.1602 136.73 45.1996 136.69 45.2391 136.69H46.4031C46.4425 136.69 46.482 136.73 46.482 136.769V136.868Z" fill="#48A1AF"/>
<path d="M45.8112 136.947H45.2391C45.1996 136.947 45.1602 136.907 45.1602 136.868V136.769C45.1602 136.73 45.1996 136.69 45.2391 136.69H45.8112V136.947Z" fill="#5CB6BF"/>
<path d="M46.3835 137.164C46.3835 137.144 46.3638 137.124 46.3638 137.085H45.259C45.259 137.124 45.2393 137.144 45.2393 137.164H46.3835Z" fill="#ABD6D6"/>
<path d="M45.8114 137.085H45.259C45.259 137.124 45.2393 137.144 45.2393 137.164H45.8114V137.085Z" fill="#BFE2E1"/>
<path d="M46.5021 136.927C46.5021 136.947 46.4824 136.947 46.4824 136.947H45.1408C45.1211 136.947 45.1211 136.927 45.1211 136.927V136.887C45.1211 136.868 45.1408 136.868 45.1408 136.868H46.4824C46.5021 136.868 46.5021 136.887 46.5021 136.887V136.927Z" fill="#48A1AF"/>
<path d="M45.8116 136.868H45.1408C45.1211 136.868 45.1211 136.887 45.1211 136.887V136.927C45.1211 136.947 45.1408 136.947 45.1408 136.947H45.8116V136.868Z" fill="#5CB6BF"/>
<path d="M46.2644 136.138H45.3766C45.1398 136.138 45.1596 136.315 45.1596 136.315C45.1596 136.315 45.1596 136.572 45.1596 136.592C45.1596 136.611 45.1596 136.631 45.199 136.631C45.2188 136.631 46.4025 136.631 46.442 136.631C46.4814 136.631 46.4814 136.611 46.4814 136.592C46.4814 136.572 46.4814 136.315 46.4814 136.315C46.4814 136.315 46.5011 136.138 46.2644 136.138Z" fill="#48A1AF"/>
<path d="M45.8106 136.138H45.3766C45.1398 136.138 45.1596 136.315 45.1596 136.315C45.1596 136.315 45.1596 136.572 45.1596 136.592C45.1596 136.611 45.1596 136.631 45.199 136.631C45.2188 136.631 45.5147 136.631 45.8106 136.631V136.138Z" fill="#5CB6BF"/>
<path d="M47.6262 140.242C47.6262 139.097 47.1725 138.19 46.8173 137.677H44.8444C44.4893 138.209 44.0158 139.097 44.0158 140.261C44.0158 142.136 44.2328 142.353 44.2328 143.24C44.2328 143.576 43.9961 143.951 43.9961 145.095C43.9961 145.509 43.9961 148.449 43.9961 148.449C43.9961 148.449 44.1539 149.277 45.8112 149.277C47.4684 149.277 47.6262 148.449 47.6262 148.449C47.6262 148.449 47.6262 145.509 47.6262 145.095C47.6262 143.99 47.3895 143.576 47.3895 143.24C47.3895 142.313 47.6262 142.136 47.6262 140.242Z" fill="#90C7D3"/>
<path d="M47.6262 140.242C47.6262 139.097 47.1725 138.19 46.8173 137.677H44.8444C44.4893 138.209 44.0158 139.097 44.0158 140.261C44.0158 142.136 44.2328 142.353 44.2328 143.24C44.2328 143.576 43.9961 143.951 43.9961 145.095C43.9961 145.509 43.9961 148.449 43.9961 148.449C43.9961 148.449 44.8839 148.074 45.8112 148.074C46.7384 148.074 47.6262 148.449 47.6262 148.449C47.6262 148.449 47.6262 145.509 47.6262 145.095C47.6262 143.99 47.3895 143.576 47.3895 143.24C47.3895 142.313 47.6262 142.136 47.6262 140.242Z" fill="#48A1AF"/>
<path d="M45.8114 137.677H44.8249C44.4698 138.209 43.9963 139.097 43.9963 140.261C43.9963 142.136 44.2133 142.353 44.2133 143.24C44.2133 143.576 43.9766 143.951 43.9766 145.095C43.9766 145.509 43.9766 148.449 43.9766 148.449C43.9766 148.449 44.1344 149.277 45.7916 149.277L45.8114 137.677Z" fill="#5CB6BF"/>
<path d="M41.1746 136.256C41.1746 136.296 41.1351 136.335 41.0956 136.335H40.0106C39.9711 136.335 39.9316 136.296 39.9316 136.256V136.158C39.9316 136.118 39.9711 136.079 40.0106 136.079H41.0956C41.1351 136.079 41.1746 136.118 41.1746 136.158V136.256Z" fill="#C6BD20"/>
<path d="M42.3584 139.788C42.3584 137.894 41.1352 136.71 41.1352 136.71C41.0761 136.592 41.0958 135.822 41.0958 135.822H40.0304C40.0304 135.822 40.0502 136.611 39.991 136.71C39.991 136.71 38.7678 137.933 38.7678 139.788C38.7678 141.642 38.9848 141.879 38.9848 142.767C38.9848 143.102 38.748 143.477 38.748 144.621C38.748 145.036 38.748 147.975 38.748 147.975C38.748 147.975 38.9059 148.804 40.5631 148.804C42.2203 148.804 42.3782 147.975 42.3782 147.975C42.3782 147.975 42.3782 145.036 42.3782 144.621C42.3782 143.517 42.1414 143.102 42.1414 142.767C42.1414 141.859 42.3584 141.682 42.3584 139.788Z" fill="#E3EBEE"/>
<path d="M40.5446 135.802H40.0119C40.0119 135.802 40.0316 136.592 39.9724 136.69C39.9724 136.69 38.7492 137.913 38.7492 139.768C38.7492 141.623 38.9662 141.859 38.9662 142.747C38.9662 143.082 38.7295 143.457 38.7295 144.602C38.7295 145.016 38.7295 147.956 38.7295 147.956C38.7295 147.956 38.8873 148.784 40.5446 148.784V135.802Z" fill="#F7FBFC"/>
<path d="M41.2144 136.414C41.2144 136.454 41.175 136.493 41.1355 136.493H39.9715C39.932 136.493 39.8926 136.454 39.8926 136.414V136.316C39.8926 136.276 39.932 136.237 39.9715 136.237H41.1355C41.175 136.237 41.2144 136.276 41.2144 136.316V136.414Z" fill="#D6D11E"/>
<path d="M40.5436 136.493H39.9715C39.932 136.493 39.8926 136.454 39.8926 136.414V136.316C39.8926 136.276 39.932 136.237 39.9715 136.237H40.5436V136.493Z" fill="#EAE134"/>
<path d="M41.1355 136.71C41.1355 136.69 41.1158 136.671 41.1158 136.631H40.0109C40.0109 136.671 39.9912 136.69 39.9912 136.71H41.1355Z" fill="#ABD6D6"/>
<path d="M40.5428 136.611H39.9904C39.9904 136.651 39.9707 136.671 39.9707 136.69H40.5428V136.611Z" fill="#BFE2E1"/>
<path d="M41.2531 136.454C41.2531 136.473 41.2334 136.473 41.2334 136.473H39.8918C39.8721 136.473 39.8721 136.454 39.8721 136.454V136.414C39.8721 136.394 39.8918 136.394 39.8918 136.394H41.2334C41.2531 136.394 41.2531 136.414 41.2531 136.414V136.454Z" fill="#D6D11E"/>
<path d="M40.544 136.414H39.8732C39.8535 136.414 39.8535 136.434 39.8535 136.434V136.473C39.8535 136.493 39.8732 136.493 39.8732 136.493H40.544V136.414Z" fill="#EAE134"/>
<path d="M40.9978 135.684H40.11C39.8733 135.684 39.893 135.862 39.893 135.862C39.893 135.862 39.893 136.118 39.893 136.138C39.893 136.158 39.893 136.177 39.9324 136.177C39.9522 136.177 41.1359 136.177 41.1754 136.177C41.2148 136.177 41.2148 136.158 41.2148 136.138C41.2148 136.118 41.2148 135.862 41.2148 135.862C41.2148 135.862 41.2345 135.684 40.9978 135.684Z" fill="#D6D11E"/>
<path d="M40.544 135.684H40.11C39.8733 135.684 39.893 135.862 39.893 135.862C39.893 135.862 39.893 136.118 39.893 136.138C39.893 136.158 39.893 136.177 39.9324 136.177C39.9522 136.177 40.2481 136.177 40.544 136.177V135.684Z" fill="#EAE134"/>
<path d="M42.3596 139.788C42.3596 138.644 41.9059 137.736 41.5507 137.223H39.5778C39.2227 137.756 38.7492 138.644 38.7492 139.808C38.7492 141.682 38.9662 141.899 38.9662 142.787C38.9662 143.122 38.7295 143.497 38.7295 144.641C38.7295 145.055 38.7295 147.995 38.7295 147.995C38.7295 147.995 38.8873 148.824 40.5446 148.824C42.2018 148.824 42.3596 147.995 42.3596 147.995C42.3596 147.995 42.3596 145.055 42.3596 144.641C42.3596 143.536 42.1229 143.122 42.1229 142.787C42.1426 141.859 42.3596 141.682 42.3596 139.788Z" fill="#90C7D3"/>
<path d="M42.3596 139.788C42.3596 138.644 41.9059 137.736 41.5507 137.223H39.5778C39.2227 137.756 38.7492 138.644 38.7492 139.808C38.7492 141.682 38.9662 141.899 38.9662 142.787C38.9662 143.122 38.7295 143.497 38.7295 144.641C38.7295 145.055 38.7295 147.995 38.7295 147.995C38.7295 147.995 39.6173 147.62 40.5446 147.62C41.4718 147.62 42.3596 147.995 42.3596 147.995C42.3596 147.995 42.3596 145.055 42.3596 144.641C42.3596 143.536 42.1229 143.122 42.1229 142.787C42.1426 141.859 42.3596 141.682 42.3596 139.788Z" fill="#D6D11E"/>
<path d="M40.5428 137.223H39.5563C39.2012 137.756 38.7277 138.644 38.7277 139.808C38.7277 141.682 38.9448 141.899 38.9448 142.787C38.9448 143.122 38.708 143.497 38.708 144.641C38.708 145.055 38.708 147.995 38.708 147.995C38.708 147.995 38.8658 148.824 40.5231 148.824L40.5428 137.223Z" fill="#EAE134"/>
<path d="M48.7121 150.718L32.5146 147.245V142.569L48.6924 144.937L48.7121 150.718Z" fill="#D6948C"/>
<path d="M29.0604 145.154H1.99219V107.452C1.99219 106.11 3.07728 105.045 4.39913 105.045H26.6534C27.995 105.045 29.0604 106.13 29.0604 107.452V145.154Z" fill="#CFD1D1"/>
<path d="M31.0534 101.178H0V102.066H31.0534V101.178Z" fill="#CCCACA"/>
<path d="M31.1127 102.066H30.9746V146.022H31.1127V102.066Z" fill="#CCCACA"/>
<path d="M4.77487 93.7798C4.77487 97.0942 4.30137 98.3963 3.72923 98.3963C3.15709 98.3963 2.68359 97.0942 2.68359 93.7798C2.68359 90.4653 3.15709 89.1632 3.72923 89.1632C4.30137 89.1829 4.77487 90.4653 4.77487 93.7798Z" fill="#C1C1C1"/>
<path d="M3.72923 98.3963C3.15709 98.3963 2.68359 97.0942 2.68359 93.7798C2.68359 90.4653 3.15709 89.1632 3.72923 89.1632C4.30137 89.1829 4.30137 98.3963 3.72923 98.3963Z" fill="#E0DEDE"/>
<path d="M24.0109 108.064C23.7347 108.241 23.5177 108.537 23.3993 108.892C23.0442 108.853 22.689 108.912 22.4128 109.089C21.6631 109.563 21.3475 110.786 22.3734 111.713C23.3006 112.562 24.1687 112.956 24.9184 112.483C25.1354 112.345 25.3722 112.147 25.4117 112.029C25.5498 112.029 25.8062 111.911 26.0035 111.773C26.7532 111.299 26.773 110.332 26.3981 109.149C26.0035 107.827 24.7606 107.59 24.0109 108.064Z" fill="#83B041"/>
<path d="M23.5375 109.208C23.5375 109.208 23.3007 108.655 22.9653 108.399C22.6299 108.142 23.1626 108.32 23.1626 108.32L23.5967 109.168L23.5375 109.208Z" fill="#7D3719"/>
<path d="M25.2539 111.97L25.3131 112.148L25.3723 112.029L25.4906 112.069L25.4709 111.97L25.5893 111.93L25.3723 111.832L25.2539 111.97Z" fill="#7D3719"/>
<path d="M24.0297 108.221C23.7535 108.399 23.576 108.675 23.4576 108.991C23.1222 108.951 22.8065 109.011 22.5501 109.188C21.8398 109.642 21.5636 110.766 22.5106 111.634C23.359 112.424 24.1876 112.798 24.8781 112.345C25.0754 112.226 25.2924 112.029 25.3318 111.93C25.4699 111.93 25.7067 111.812 25.8843 111.694C26.5945 111.24 26.5945 110.352 26.2394 109.247C25.8843 108.004 24.74 107.787 24.0297 108.221Z" fill="#8BC53F"/>
<path d="M24.3652 108.833C24.3652 108.833 24.9768 108.715 25.4306 109.089C25.4306 109.089 25.0952 108.103 24.3652 108.833Z" fill="#D6948C"/>
<path d="M16.809 108.833C16.4933 108.734 16.1382 108.774 15.8028 108.912C15.6055 108.616 15.3293 108.399 15.0136 108.32C14.1653 108.064 13.0605 108.636 13.021 110.017C12.9816 111.26 13.2775 112.167 14.1258 112.424C14.3626 112.503 14.6782 112.542 14.7966 112.503C14.8953 112.601 15.1517 112.72 15.3885 112.779C16.2368 113.035 16.9668 112.424 17.5981 111.339C18.2886 110.155 17.677 109.089 16.809 108.833Z" fill="#CA2027"/>
<path d="M15.6445 109.228C15.6445 109.228 15.901 108.695 15.8813 108.281C15.8616 107.866 16.0588 108.379 16.0588 108.379L15.7037 109.267L15.6445 109.228Z" fill="#7D3719"/>
<path d="M14.7178 112.305L14.6191 112.463L14.7572 112.443L14.7967 112.542L14.8756 112.483L14.9545 112.542L14.8953 112.305H14.7178Z" fill="#7D3719"/>
<path d="M16.7101 108.951C16.4142 108.873 16.0788 108.892 15.7632 109.03C15.5659 108.754 15.3094 108.557 15.0135 108.478C14.2243 108.241 13.1984 108.774 13.1589 110.056C13.1195 111.22 13.3957 112.049 14.1848 112.286C14.4019 112.345 14.6978 112.384 14.7964 112.345C14.8753 112.443 15.1318 112.542 15.3488 112.601C16.138 112.838 16.8088 112.266 17.4204 111.279C18.0912 110.175 17.4993 109.188 16.7101 108.951Z" fill="#E92C25"/>
<path d="M16.6514 109.543C16.6514 109.543 17.0854 109.859 17.0854 110.372C17.0854 110.372 17.5392 109.602 16.6514 109.543Z" fill="#D6948C"/>
<path d="M15.1519 108.044C15.1322 108.162 15.3097 108.379 15.5662 108.399C15.8227 108.438 16.0397 108.36 16.0594 108.241C16.0989 107.925 15.1519 108.044 15.1519 108.044Z" fill="#1D9E49"/>
<path d="M8.06934 109.267C8.06934 109.267 8.60202 108.932 8.79931 108.537C8.9966 108.162 8.89795 108.715 8.89795 108.715L8.08907 109.307L8.06934 109.267Z" fill="#7D3719"/>
<path d="M5.50471 111.516L5.32715 111.595L5.46525 111.654L5.44552 111.773L5.54417 111.753L5.60335 111.852L5.68227 111.615L5.50471 111.516Z" fill="#7D3719"/>
<path d="M9.19492 109.622C8.9779 109.366 8.66224 109.228 8.30712 109.168C8.28739 108.813 8.16902 108.498 7.952 108.241C7.36013 107.59 6.15666 107.491 5.40696 108.616C4.73618 109.642 4.49943 110.549 5.07157 111.2C5.2294 111.378 5.46615 111.575 5.58452 111.615C5.60425 111.753 5.76208 111.97 5.91992 112.147C6.51178 112.799 7.41932 112.66 8.52414 112.108C9.7276 111.496 9.76706 110.273 9.19492 109.622Z" fill="#D7C527"/>
<path d="M8.66116 109.977C8.66116 109.977 8.87818 110.648 8.46387 111.299C8.46387 111.279 9.62788 110.628 8.66116 109.977Z" fill="#D6948C"/>
<path d="M27.3437 112.226H3.47168V113.213H27.3437V112.226Z" fill="#EDEDED"/>
<path d="M27.3437 118.895H3.47168V119.881H27.3437V118.895Z" fill="#EDEDED"/>
<path d="M12.2522 124.458C12.2128 125.465 10.2201 126.234 8.40506 126.234C6.47162 126.234 4.63683 125.109 4.95249 124.044C4.97222 123.965 4.77493 123.038 4.97222 122.959C5.54436 122.722 6.82675 123.669 8.3656 123.669C10.0228 123.669 11.4631 122.328 12.1536 122.781C12.3114 122.9 12.2522 124.32 12.2522 124.458Z" fill="#F9ECE4"/>
<path d="M12.1538 122.781C12.7654 123.926 10.4768 125.129 8.42498 125.129C6.37316 125.129 4.40026 123.669 5.05132 122.564C5.86021 121.183 6.31398 122.407 8.38552 122.407C10.4571 122.407 11.4435 121.46 12.1538 122.781Z" fill="#F5D1AF"/>
<path d="M11.9946 122.821C12.5667 123.926 10.3966 125.07 8.42366 125.07C6.45076 125.07 4.55677 123.669 5.1881 122.604C5.95753 121.282 6.4113 122.466 8.3842 122.466C10.3571 122.466 11.3238 121.538 11.9946 122.821Z" fill="#952E25"/>
<path d="M7.12207 122.268C7.12207 122.268 7.57584 122.485 7.33909 122.919C7.33909 122.919 7.71395 122.702 7.85205 122.406L7.12207 122.268Z" fill="#F9ECE4"/>
<path d="M10.0614 123.057C10.0614 123.196 9.86415 123.294 9.6274 123.294C9.39065 123.294 9.19336 123.176 9.19336 123.057C9.19336 122.919 9.46957 122.9 9.70631 122.9C9.94306 122.9 10.0614 122.919 10.0614 123.057Z" fill="#F9ECE4"/>
<path d="M27.3447 125.563H3.47266V126.55H27.3447V125.563Z" fill="#EDEDED"/>
<path d="M24.3864 130.574C24.3864 130.574 25.9844 129.963 25.9055 130.416C25.9055 130.416 25.8857 130.87 25.9646 131.186C25.9646 131.186 26.1028 131.679 25.5701 131.58C25.5701 131.58 24.4061 131.245 24.1299 131.285L24.3864 130.574Z" fill="#D6948C"/>
<path d="M24.3257 131.541C23.9705 131.541 23.6943 131.363 23.6943 131.127V130.673C23.6943 130.436 23.9705 130.259 24.3257 130.259C24.6808 130.259 24.957 130.436 24.957 130.673V131.127C24.957 131.363 24.6611 131.541 24.3257 131.541Z" fill="#EB7623"/>
<path d="M22.4517 129.825C22.4517 129.825 21.7809 129.095 21.4653 128.878C21.4653 128.878 19.2951 127.575 17.914 127.852C17.914 127.852 15.2112 128.799 15.1125 130.022C15.1125 130.022 13.6526 133.06 20.3012 132.606C21.2285 132.547 22.1755 132.034 22.5109 131.916C22.5109 131.916 23.4973 131.758 23.813 131.719C23.813 131.719 24.7995 131.541 24.6219 130.476C24.6022 130.515 24.6416 129.923 22.4517 129.825Z" fill="#E48225"/>
<path d="M22.491 130.022C24.0298 130.081 24.4639 130.397 24.602 130.574C24.602 130.555 24.602 130.535 24.602 130.515C24.602 130.515 24.6217 129.923 22.4515 129.844C22.4515 129.844 21.7807 129.114 21.465 128.897C21.465 128.897 19.2949 127.595 17.9138 127.871C17.9138 127.871 15.2109 128.818 15.1123 130.042C15.1123 130.042 15.1518 130.042 15.1912 130.061C15.5858 128.937 22.491 130.022 22.491 130.022Z" fill="#F69220"/>
<path d="M27.3447 132.232H3.47266V133.218H27.3447V132.232Z" fill="#EDEDED"/>
<path d="M14.8159 135.211H3.37305V144.069H14.8159V135.211Z" fill="#EDEDED"/>
<path d="M14.8168 136.414H3.37402V137.006H14.8168V136.414Z" fill="#D4D6D6"/>
<path d="M27.4428 135.211H16V144.069H27.4428V135.211Z" fill="#EDEDED"/>
<path d="M27.4428 136.414H16V137.006H27.4428V136.414Z" fill="#D4D6D6"/>
<path d="M31.0534 67.6704C31.0534 69.1896 29.8105 70.4325 28.2914 70.4325H2.76206C1.24293 70.4325 0 69.1896 0 67.6704V2.76206C0 1.24293 1.24293 0 2.76206 0H28.2716C29.7908 0 31.0337 1.24293 31.0337 2.76206V67.6704H31.0534Z" fill="#D6948C"/>
<path d="M52.2026 71.0244C52.2026 72.5435 50.9596 73.7864 49.4405 73.7864H47.5071C46.4614 73.3919 32.9668 68.8147 32.9668 67.631L50.1113 22.5108H52.025L52.2026 71.0244Z" fill="#CFD1D1"/>
<path d="M50.2697 71.0244C50.2697 72.5435 49.0268 73.7864 47.5077 73.7864C47.5077 73.7864 33.145 70.3338 32.849 70.2155C31.8034 69.8209 31.0537 68.8147 31.0537 67.631V23.8524L50.1316 22.4911L50.2697 71.0244Z" fill="#D6948C"/>
<path d="M48.5925 70.2943L35.2754 67.2758V28.4689L48.5925 27.6797V70.2943Z" fill="#C7C9C9" stroke="#EDEDED" stroke-width="0.995" stroke-miterlimit="10"/>
<path d="M32.5146 65.6975L35.2767 67.2758V28.4689L32.5344 28.607L32.5146 65.6975Z" fill="#E0E2E2"/>
<path d="M46.6585 47.5469C46.6585 47.5863 46.6191 47.6258 46.5796 47.6258H45.534C45.4945 47.6258 45.4551 47.5863 45.4551 47.5469V47.4482C45.4551 47.4088 45.4945 47.3693 45.534 47.3693H46.5994C46.6388 47.3693 46.6783 47.4088 46.6783 47.4482V47.5469H46.6585Z" fill="#48A1AF"/>
<path d="M47.2714 49.5197C47.2714 48.6714 46.6203 47.9809 46.6203 47.9809C46.5612 47.8625 46.5809 47.1128 46.5809 47.1128H45.5352C45.5352 47.1128 45.555 47.8822 45.4958 47.9809C45.4958 47.9809 44.8447 48.6714 44.8447 49.5197C44.8447 49.5197 44.8447 49.6776 44.8842 49.8946C44.9039 50.0327 44.9828 50.2102 44.9828 50.3878C44.9828 50.5654 44.8842 50.7627 44.8842 50.9402C44.8842 51.2559 44.8842 51.5124 44.8842 51.6307C44.8842 51.9661 45.0026 52.9131 45.0026 53.1301C45.0026 53.3472 44.8842 53.5642 44.8842 53.8206C44.8842 54.0771 44.8842 54.9847 44.8842 54.9847C44.8842 54.9847 44.9434 55.5173 46.0482 55.5173C47.1728 55.5173 47.2122 54.9847 47.2122 54.9847C47.2122 54.9847 47.2122 54.0969 47.2122 53.8206C47.2122 53.5444 47.0938 53.3472 47.0938 53.1301C47.0938 52.9131 47.2122 51.9661 47.2122 51.6307C47.2122 51.5124 47.2122 51.2559 47.2122 50.9402C47.2122 50.7627 47.1136 50.5851 47.1136 50.3878C47.1136 50.2102 47.1925 50.0327 47.2122 49.8946C47.2714 49.6776 47.2714 49.5197 47.2714 49.5197Z" fill="#E3EBEE"/>
<path d="M46.0667 47.1128H45.5538C45.5538 47.1128 45.5735 47.8822 45.5143 47.9809C45.5143 47.9809 44.8633 48.6714 44.8633 49.5197C44.8633 49.5197 44.8633 49.6776 44.9027 49.8946C44.9225 50.0327 45.0014 50.2102 45.0014 50.3878C45.0014 50.5654 44.9027 50.7627 44.9027 50.9402V51.6307C44.9027 51.9661 45.0211 52.9131 45.0211 53.1301C45.0211 53.3472 44.9027 53.5642 44.9027 53.8206C44.9027 54.0771 44.9027 54.9847 44.9027 54.9847C44.9027 54.9847 44.9619 55.5173 46.0667 55.5173V47.1128Z" fill="#F7FBFC"/>
<path d="M44.8633 49.6578C44.8633 49.717 44.883 49.796 44.883 49.8946C44.9027 50.0327 44.9817 50.2103 44.9817 50.3878C44.9817 50.5654 44.883 50.7627 44.883 50.9402C44.883 51.2559 44.883 51.5124 44.883 51.6307C44.883 51.9661 45.0014 52.9131 45.0014 53.1302C45.0014 53.3472 44.883 53.5642 44.883 53.8207C44.883 54.0771 44.883 54.9847 44.883 54.9847C44.883 54.9847 45.317 54.669 46.047 54.669C46.777 54.669 47.211 54.9847 47.211 54.9847C47.211 54.9847 47.211 54.0969 47.211 53.8207C47.211 53.5445 47.0927 53.3472 47.0927 53.1302C47.0927 52.9131 47.211 51.9661 47.211 51.6307C47.211 51.5124 47.211 51.2559 47.211 50.9402C47.211 50.7627 47.1124 50.5851 47.1124 50.3878C47.1124 50.2103 47.1913 50.0327 47.211 49.8946C47.2308 49.796 47.2308 49.717 47.2505 49.6578C47.2505 49.6578 46.6389 49.5987 46.0273 49.5987C45.4552 49.5987 44.8633 49.6578 44.8633 49.6578Z" fill="#9CC9D3"/>
<path d="M46.7181 47.7047C46.7181 47.7441 46.6787 47.7836 46.6392 47.7836H45.4949C45.4555 47.7836 45.416 47.7441 45.416 47.7047V47.606C45.416 47.5666 45.4555 47.5271 45.4949 47.5271H46.6392C46.6787 47.5271 46.7181 47.5666 46.7181 47.606V47.7047Z" fill="#48A1AF"/>
<path d="M46.0671 47.7639H45.4949C45.4555 47.7639 45.416 47.7244 45.416 47.6849V47.5863C45.416 47.5468 45.4555 47.5074 45.4949 47.5074H46.0671V47.7639Z" fill="#5CB6BF"/>
<path d="M46.6402 47.9808C46.6402 47.9611 46.6205 47.9413 46.6205 47.9019H45.5354C45.5354 47.9413 45.5156 47.9611 45.5156 47.9808H46.6402Z" fill="#ABD6D6"/>
<path d="M46.0673 47.9019H45.5148C45.5148 47.9413 45.4951 47.9611 45.4951 47.9808H46.0673V47.9019Z" fill="#BFE2E1"/>
<path d="M46.7383 47.7441C46.7383 47.7638 46.7383 47.7638 46.7185 47.7638H45.3967C45.377 47.7638 45.377 47.7638 45.377 47.7441V47.7046C45.377 47.6849 45.377 47.6849 45.3967 47.6849H46.7185C46.7383 47.6849 46.7383 47.6849 46.7383 47.7046V47.7441Z" fill="#48A1AF"/>
<path d="M46.0663 47.7047H45.4152C45.3955 47.7047 45.3955 47.7047 45.3955 47.7244V47.7638C45.3955 47.7836 45.3955 47.7836 45.4152 47.7836H46.0663V47.7047Z" fill="#5CB6BF"/>
<path d="M46.5015 46.9943H45.6334C45.3967 46.9943 45.4164 47.1719 45.4164 47.1719C45.4164 47.1719 45.4164 47.4086 45.4164 47.4481C45.4164 47.4678 45.4164 47.4876 45.4559 47.4876C45.4953 47.4876 46.6396 47.4876 46.6594 47.4876C46.6988 47.4876 46.6988 47.4678 46.6988 47.4481C46.6988 47.4284 46.6988 47.1719 46.6988 47.1719C46.6988 47.1719 46.7383 46.9943 46.5015 46.9943Z" fill="#48A1AF"/>
<path d="M46.0675 46.9943H45.6334C45.3967 46.9943 45.4164 47.1719 45.4164 47.1719C45.4164 47.1719 45.4164 47.4086 45.4164 47.4481C45.4164 47.4678 45.4164 47.4876 45.4559 47.4876C45.4756 47.4876 45.7715 47.4876 46.0675 47.4876V46.9943Z" fill="#5CB6BF"/>
<path d="M46.0667 49.5987C45.4749 49.5987 44.8633 49.6776 44.8633 49.6776C44.8633 49.7368 44.883 49.8157 44.883 49.9143C44.9027 50.0524 44.9817 50.23 44.9817 50.4076C44.9817 50.5851 44.883 50.7824 44.883 50.96V51.6505C44.883 51.9859 45.0014 52.9329 45.0014 53.1499C45.0014 53.3669 44.883 53.5839 44.883 53.8404C44.883 54.0969 44.883 55.0044 44.883 55.0044C44.883 55.0044 44.9422 55.5371 46.047 55.5371L46.0667 49.5987Z" fill="#CAE2E8"/>
<path d="M39.9712 46.9747C39.9712 47.0141 39.9318 47.0536 39.8923 47.0536H38.827C38.7875 47.0536 38.748 47.0141 38.748 46.9747V46.876C38.748 46.8366 38.7875 46.7971 38.827 46.7971H39.8923C39.9318 46.7971 39.9712 46.8366 39.9712 46.876V46.9747Z" fill="#48A1AF"/>
<path d="M40.5829 48.9476C40.5829 48.0993 39.9319 47.4088 39.9319 47.4088C39.8727 47.2904 39.8924 46.5407 39.8924 46.5407H38.8468C38.8468 46.5407 38.8665 47.3101 38.8073 47.4088C38.8073 47.4088 38.1563 48.0993 38.1563 48.9476C38.1563 48.9476 38.1562 49.1054 38.1957 49.3225C38.2154 49.4606 38.2943 49.6381 38.2943 49.8157C38.2943 49.9933 38.1957 50.1905 38.1957 50.3681C38.1957 50.6838 38.1957 50.9402 38.1957 51.0586C38.1957 51.394 38.3141 52.341 38.3141 52.558C38.3141 52.775 38.1957 52.9921 38.1957 53.2485C38.1957 53.505 38.1957 54.4125 38.1957 54.4125C38.1957 54.4125 38.2549 54.9452 39.3597 54.9452C40.4843 54.9452 40.5237 54.4125 40.5237 54.4125C40.5237 54.4125 40.5237 53.5247 40.5237 53.2485C40.5237 52.9723 40.4054 52.775 40.4054 52.558C40.4054 52.341 40.5237 51.394 40.5237 51.0586C40.5237 50.9402 40.5237 50.6838 40.5237 50.3681C40.5237 50.1905 40.4251 50.013 40.4251 49.8157C40.4251 49.6381 40.504 49.4606 40.5237 49.3225C40.5829 49.0857 40.5829 48.9476 40.5829 48.9476Z" fill="#E3EBEE"/>
<path d="M40.5829 48.9475C40.5829 48.5529 40.4448 48.1781 40.287 47.9019H38.4522C38.2944 48.1781 38.1563 48.5332 38.1563 48.9475C38.1563 48.9475 38.1562 49.1054 38.1957 49.3224C38.2154 49.4605 38.2943 49.638 38.2943 49.8156C38.2943 49.9932 38.1957 50.1904 38.1957 50.368C38.1957 50.6837 38.1957 50.9402 38.1957 51.0585C38.1957 51.3939 38.3141 52.3409 38.3141 52.5579C38.3141 52.7749 38.1957 52.992 38.1957 53.2484C38.1957 53.5049 38.1957 54.4125 38.1957 54.4125C38.1957 54.4125 38.2549 54.9451 39.3597 54.9451C40.4843 54.9451 40.5237 54.4125 40.5237 54.4125C40.5237 54.4125 40.5237 53.5246 40.5237 53.2484C40.5237 52.9722 40.4054 52.7749 40.4054 52.5579C40.4054 52.3409 40.5237 51.3939 40.5237 51.0585C40.5237 50.9402 40.5237 50.6837 40.5237 50.368C40.5237 50.1904 40.4251 50.0129 40.4251 49.8156C40.4251 49.638 40.504 49.4605 40.5237 49.3224C40.5829 49.0856 40.5829 48.9475 40.5829 48.9475Z" fill="#9CC9D3"/>
<path d="M39.3597 46.5209H38.8468C38.8468 46.5209 38.8665 47.2904 38.8073 47.389C38.8073 47.389 38.1563 48.0795 38.1563 48.9279C38.1563 48.9279 38.1562 49.0857 38.1957 49.3027C38.2154 49.4408 38.2943 49.6184 38.2943 49.7959C38.2943 49.9735 38.1957 50.1708 38.1957 50.3484V51.0389C38.1957 51.3743 38.3141 52.3213 38.3141 52.5383C38.3141 52.7553 38.1957 52.9723 38.1957 53.2288C38.1957 53.4853 38.1957 54.3928 38.1957 54.3928C38.1957 54.3928 38.2549 54.9255 39.3597 54.9255V46.5209Z" fill="#F7FBFC"/>
<path d="M40.0101 47.1128C40.0101 47.1522 39.9707 47.1917 39.9312 47.1917H38.7869C38.7475 47.1917 38.708 47.1522 38.708 47.1128V47.0141C38.708 46.9747 38.7475 46.9352 38.7869 46.9352H39.9312C39.9707 46.9352 40.0101 46.9747 40.0101 47.0141V47.1128Z" fill="#48A1AF"/>
<path d="M39.3591 47.1917H38.7869C38.7475 47.1917 38.708 47.1522 38.708 47.1128V47.0141C38.708 46.9747 38.7475 46.9352 38.7869 46.9352H39.3591V47.1917Z" fill="#5CB6BF"/>
<path d="M39.9322 47.4087C39.9322 47.389 39.9124 47.3693 39.9124 47.3298H38.8273C38.8273 47.3693 38.8076 47.389 38.8076 47.4087H39.9322Z" fill="#ABD6D6"/>
<path d="M39.36 47.3101H38.8273C38.8273 47.3495 38.8076 47.3693 38.8076 47.389H39.3798V47.3101H39.36Z" fill="#BFE2E1"/>
<path d="M40.0498 47.172C40.0498 47.1917 40.0498 47.1917 40.03 47.1917H38.7082C38.6885 47.1917 38.6885 47.1917 38.6885 47.172V47.1325C38.6885 47.1128 38.6885 47.1128 38.7082 47.1128H40.03C40.0498 47.1128 40.0498 47.1128 40.0498 47.1325V47.172Z" fill="#48A1AF"/>
<path d="M39.3593 47.1128H38.7082C38.6885 47.1128 38.6885 47.1128 38.6885 47.1325V47.172C38.6885 47.1917 38.6885 47.1917 38.7082 47.1917H39.3593V47.1128Z" fill="#5CB6BF"/>
<path d="M39.7935 46.4025H38.9254C38.6887 46.4025 38.7084 46.58 38.7084 46.58C38.7084 46.58 38.7084 46.8168 38.7084 46.8562C38.7084 46.876 38.7084 46.8957 38.7479 46.8957C38.7873 46.8957 39.9316 46.8957 39.9513 46.8957C39.9908 46.8957 39.9908 46.876 39.9908 46.8562C39.9908 46.8365 39.9908 46.58 39.9908 46.58C39.9908 46.58 40.0303 46.4025 39.7935 46.4025Z" fill="#48A1AF"/>
<path d="M39.3595 46.4025H38.9254C38.6887 46.4025 38.7084 46.58 38.7084 46.58C38.7084 46.58 38.7084 46.8168 38.7084 46.8562C38.7084 46.876 38.7084 46.8957 38.7479 46.8957C38.7676 46.8957 39.0635 46.8957 39.3595 46.8957V46.4025Z" fill="#5CB6BF"/>
<path d="M38.4522 47.9019C38.2944 48.1781 38.1563 48.5332 38.1563 48.9475C38.1563 48.9475 38.1562 49.1054 38.1957 49.3224C38.2154 49.4605 38.2943 49.638 38.2943 49.8156C38.2943 49.9932 38.1957 50.1904 38.1957 50.368V51.0585C38.1957 51.3939 38.3141 52.3409 38.3141 52.5579C38.3141 52.7749 38.1957 52.992 38.1957 53.2484C38.1957 53.5049 38.1957 54.4125 38.1957 54.4125C38.1957 54.4125 38.2549 54.9451 39.3597 54.9451V47.9216L38.4522 47.9019Z" fill="#CAE2E8"/>
<path d="M36.7943 46.8564C36.7943 46.8959 36.7548 46.9353 36.7154 46.9353H35.6697C35.6303 46.9353 35.5908 46.8959 35.5908 46.8564V46.7577C35.5908 46.7183 35.6303 46.6788 35.6697 46.6788H36.7351C36.7746 46.6788 36.814 46.7183 36.814 46.7577V46.8564H36.7943Z" fill="#48A1AF"/>
<path d="M37.4071 48.8292C37.4071 47.9808 36.7561 47.2903 36.7561 47.2903C36.6969 47.1719 36.7166 46.4222 36.7166 46.4222H35.671C35.671 46.4222 35.6907 47.1917 35.6315 47.2903C35.6315 47.2903 34.9805 47.9808 34.9805 48.8292C34.9805 48.8292 34.9805 48.987 35.0199 49.204C35.0397 49.3421 35.1186 49.5197 35.1186 49.6973C35.1186 49.8748 35.0199 50.0721 35.0199 50.2497C35.0199 50.5653 35.0199 50.8218 35.0199 50.9402C35.0199 51.2756 35.1383 52.2226 35.1383 52.4396C35.1383 52.6566 35.0199 52.8736 35.0199 53.1301C35.0199 53.3866 35.0199 54.2941 35.0199 54.2941C35.0199 54.2941 35.0791 54.8268 36.1839 54.8268C37.3085 54.8268 37.3479 54.2941 37.3479 54.2941C37.3479 54.2941 37.3479 53.4063 37.3479 53.1301C37.3479 52.8539 37.2296 52.6566 37.2296 52.4396C37.2296 52.2226 37.3479 51.2756 37.3479 50.9402C37.3479 50.8218 37.3479 50.5653 37.3479 50.2497C37.3479 50.0721 37.2493 49.8945 37.2493 49.6973C37.2493 49.5197 37.3282 49.3421 37.3479 49.204C37.4071 48.987 37.4071 48.8292 37.4071 48.8292Z" fill="#E3EBEE"/>
<path d="M37.4071 48.8292C37.4071 48.4346 37.269 48.0597 37.1112 47.7835H35.2764C35.1186 48.0597 34.9805 48.4149 34.9805 48.8292C34.9805 48.8292 34.9805 48.987 35.0199 49.204C35.0397 49.3421 35.1186 49.5197 35.1186 49.6973C35.1186 49.8748 35.0199 50.0721 35.0199 50.2497C35.0199 50.5653 35.0199 50.8218 35.0199 50.9402C35.0199 51.2756 35.1383 52.2226 35.1383 52.4396C35.1383 52.6566 35.0199 52.8736 35.0199 53.1301C35.0199 53.3866 35.0199 54.2941 35.0199 54.2941C35.0199 54.2941 35.0791 54.8268 36.1839 54.8268C37.3085 54.8268 37.3479 54.2941 37.3479 54.2941C37.3479 54.2941 37.3479 53.4063 37.3479 53.1301C37.3479 52.8539 37.2296 52.6566 37.2296 52.4396C37.2296 52.2226 37.3479 51.2756 37.3479 50.9402C37.3479 50.8218 37.3479 50.5653 37.3479 50.2497C37.3479 50.0721 37.2493 49.8945 37.2493 49.6973C37.2493 49.5197 37.3282 49.3421 37.3479 49.204C37.4071 48.987 37.4071 48.8292 37.4071 48.8292Z" fill="#9CC9D3"/>
<path d="M36.2037 46.4222H35.671C35.671 46.4222 35.6907 47.1917 35.6315 47.2903C35.6315 47.2903 34.9805 47.9808 34.9805 48.8292C34.9805 48.8292 34.9805 48.987 35.0199 49.204C35.0397 49.3421 35.1186 49.5197 35.1186 49.6973C35.1186 49.8748 35.0199 50.0721 35.0199 50.2497V50.9402C35.0199 51.2756 35.1383 52.2226 35.1383 52.4396C35.1383 52.6566 35.0199 52.8736 35.0199 53.1301C35.0199 53.3866 35.0199 54.2941 35.0199 54.2941C35.0199 54.2941 35.0791 54.8268 36.1839 54.8268V46.4222H36.2037Z" fill="#F7FBFC"/>
<path d="M36.8343 46.9944C36.8343 47.0339 36.7949 47.0733 36.7554 47.0733H35.6111C35.5717 47.0733 35.5322 47.0339 35.5322 46.9944V46.8958C35.5322 46.8563 35.5717 46.8169 35.6111 46.8169H36.7554C36.7949 46.8169 36.8343 46.8563 36.8343 46.8958V46.9944Z" fill="#48A1AF"/>
<path d="M36.1833 47.0733H35.6111C35.5717 47.0733 35.5322 47.0339 35.5322 46.9944V46.8958C35.5322 46.8563 35.5717 46.8169 35.6111 46.8169H36.1833V47.0733Z" fill="#5CB6BF"/>
<path d="M36.7554 47.2904C36.7554 47.2706 36.7357 47.2509 36.7357 47.2115H35.6506C35.6506 47.2509 35.6309 47.2706 35.6309 47.2904H36.7554Z" fill="#ABD6D6"/>
<path d="M36.203 47.2115H35.6506C35.6506 47.2509 35.6309 47.2706 35.6309 47.2904H36.203V47.2115Z" fill="#BFE2E1"/>
<path d="M36.874 47.0535C36.874 47.0732 36.874 47.0732 36.8543 47.0732H35.5324C35.5127 47.0732 35.5127 47.0732 35.5127 47.0535V47.0141C35.5127 46.9943 35.5127 46.9943 35.5324 46.9943H36.8543C36.874 46.9943 36.874 46.9943 36.874 47.0141V47.0535Z" fill="#48A1AF"/>
<path d="M36.1835 46.9943H35.5324C35.5127 46.9943 35.5127 46.9943 35.5127 47.0141V47.0535C35.5127 47.0732 35.5127 47.0732 35.5324 47.0732H36.1835V46.9943Z" fill="#5CB6BF"/>
<path d="M36.6168 46.2843H35.7487C35.5119 46.2843 35.5317 46.4618 35.5317 46.4618C35.5317 46.4618 35.5317 46.6986 35.5317 46.738C35.5317 46.7578 35.5317 46.7775 35.5711 46.7775C35.6106 46.7775 36.7549 46.7775 36.7746 46.7775C36.8141 46.7775 36.8141 46.7578 36.8141 46.738C36.8141 46.7183 36.8141 46.4618 36.8141 46.4618C36.8141 46.4618 36.8535 46.2843 36.6168 46.2843Z" fill="#48A1AF"/>
<path d="M36.1827 46.2843H35.7487C35.5119 46.2843 35.5317 46.4618 35.5317 46.4618C35.5317 46.4618 35.5317 46.6986 35.5317 46.738C35.5317 46.7578 35.5317 46.7775 35.5711 46.7775C35.5908 46.7775 35.8868 46.7775 36.1827 46.7775V46.2843Z" fill="#5CB6BF"/>
<path d="M35.2764 47.7835C35.1186 48.0597 34.9805 48.4149 34.9805 48.8292C34.9805 48.8292 34.9805 48.987 35.0199 49.204C35.0397 49.3421 35.1186 49.5197 35.1186 49.6973C35.1186 49.8748 35.0199 50.0721 35.0199 50.2497V50.9402C35.0199 51.2756 35.1383 52.2226 35.1383 52.4396C35.1383 52.6566 35.0199 52.8736 35.0199 53.1301C35.0199 53.3866 35.0199 54.2941 35.0199 54.2941C35.0199 54.2941 35.0791 54.8268 36.1839 54.8268V47.8033L35.2764 47.7835Z" fill="#CAE2E8"/>
<path d="M48.8295 57.3719L32.5137 56.0697V51.8477L48.6914 52.5185L48.8295 57.3719Z" fill="#D6948C"/>
<path d="M49.0268 44.2126L32.5137 43.9956V40.4444L48.9085 40.3852L49.0268 44.2126Z" fill="#D6948C"/>
<path d="M38.6695 31.8824C38.7879 32.7702 38.2946 33.4015 37.5647 33.5002C36.8347 33.5988 36.1836 33.145 36.0653 32.2375C35.9469 31.3497 36.3809 30.2449 37.1109 30.1462C37.8409 30.0476 38.5511 30.9946 38.6695 31.8824Z" fill="#EDAF6B"/>
<path d="M42.083 32.1977C42.0041 33.1053 41.353 33.5788 40.6231 33.5196C39.8931 33.4407 39.3604 32.8488 39.459 31.9413C39.538 31.0337 40.2285 30.0867 40.9584 30.1459C41.6884 30.2248 42.1619 31.3099 42.083 32.1977Z" fill="#EDAF6B"/>
<path d="M45.4366 31.6256C45.6536 32.4937 45.1998 33.1842 44.5093 33.342C43.7991 33.5196 43.0888 33.125 42.8915 32.2372C42.6745 31.3691 43.0099 30.2248 43.7201 30.067C44.3909 29.9092 45.2196 30.7575 45.4366 31.6256Z" fill="#EDAF6B"/>
<path d="M48.8305 36.104L32.5146 36.3605V32.7501L48.6924 32.1582L48.8305 36.104Z" fill="#D6948C"/>
<path d="M46.4226 58.5161C46.4226 58.5556 46.3832 58.595 46.3437 58.595H45.2586C45.2192 58.595 45.1797 58.5556 45.1797 58.5161V58.4175C45.1797 58.378 45.2192 58.3386 45.2586 58.3386H46.3437C46.3832 58.3386 46.4226 58.378 46.4226 58.4175V58.5161Z" fill="#48A1AF"/>
<path d="M47.626 62.0279C47.626 60.1339 46.4028 58.9502 46.4028 58.9502C46.3436 58.8318 46.3634 58.0624 46.3634 58.0624H45.298C45.298 58.0624 45.3177 58.8515 45.2586 58.9502C45.2586 58.9502 44.0354 60.1734 44.0354 62.0279C44.0354 63.8824 44.2524 64.1192 44.2524 65.007C44.2524 65.3424 44.0156 65.7172 44.0156 66.8615C44.0156 67.2758 44.0156 70.2154 44.0156 70.2154C44.0156 70.2154 44.1735 71.044 45.8307 71.044C47.4879 71.044 47.6458 70.2154 47.6458 70.2154C47.6458 70.2154 47.6458 67.2758 47.6458 66.8615C47.6458 65.7567 47.409 65.3424 47.409 65.007C47.3893 64.0994 47.626 63.9219 47.626 62.0279Z" fill="#E3EBEE"/>
<path d="M45.8112 58.0624H45.2785C45.2785 58.0624 45.2982 58.8515 45.239 58.9502C45.239 58.9502 44.0158 60.1734 44.0158 62.0279C44.0158 63.8824 44.2328 64.1192 44.2328 65.007C44.2328 65.3424 43.9961 65.7172 43.9961 66.8615C43.9961 67.2758 43.9961 70.2154 43.9961 70.2154C43.9961 70.2154 44.1539 71.044 45.8112 71.044V58.0624Z" fill="#F7FBFC"/>
<path d="M46.482 58.6543C46.482 58.6937 46.4425 58.7332 46.4031 58.7332H45.2391C45.1996 58.7332 45.1602 58.6937 45.1602 58.6543V58.5556C45.1602 58.5162 45.1996 58.4767 45.2391 58.4767H46.4031C46.4425 58.4767 46.482 58.5162 46.482 58.5556V58.6543Z" fill="#48A1AF"/>
<path d="M45.8112 58.7332H45.2391C45.1996 58.7332 45.1602 58.6937 45.1602 58.6543V58.5556C45.1602 58.5162 45.1996 58.4767 45.2391 58.4767H45.8112V58.7332Z" fill="#5CB6BF"/>
<path d="M46.3835 58.9502C46.3835 58.9305 46.3638 58.9107 46.3638 58.8713H45.259C45.259 58.9107 45.2393 58.9305 45.2393 58.9502H46.3835Z" fill="#ABD6D6"/>
<path d="M45.8114 58.8713H45.259C45.259 58.9107 45.2393 58.9305 45.2393 58.9502H45.8114V58.8713Z" fill="#BFE2E1"/>
<path d="M46.5021 58.7133C46.5021 58.7331 46.4824 58.7331 46.4824 58.7331H45.1408C45.1211 58.7331 45.1211 58.7133 45.1211 58.7133V58.6739C45.1211 58.6541 45.1408 58.6541 45.1408 58.6541H46.4824C46.5021 58.6541 46.5021 58.6739 46.5021 58.6739V58.7133Z" fill="#48A1AF"/>
<path d="M45.8116 58.6541H45.1408C45.1211 58.6541 45.1211 58.6739 45.1211 58.6739V58.7133C45.1211 58.7331 45.1408 58.7331 45.1408 58.7331H45.8116V58.6541Z" fill="#5CB6BF"/>
<path d="M46.2644 57.9243H45.3766C45.1398 57.9243 45.1596 58.1019 45.1596 58.1019C45.1596 58.1019 45.1596 58.3584 45.1596 58.3781C45.1596 58.3978 45.1596 58.4176 45.199 58.4176C45.2188 58.4176 46.4025 58.4176 46.442 58.4176C46.4814 58.4176 46.4814 58.3978 46.4814 58.3781C46.4814 58.3584 46.4814 58.1019 46.4814 58.1019C46.4814 58.1019 46.5011 57.9243 46.2644 57.9243Z" fill="#48A1AF"/>
<path d="M45.8106 57.9243H45.3766C45.1398 57.9243 45.1596 58.1019 45.1596 58.1019C45.1596 58.1019 45.1596 58.3584 45.1596 58.3781C45.1596 58.3978 45.1596 58.4176 45.199 58.4176C45.2188 58.4176 45.5147 58.4176 45.8106 58.4176V57.9243Z" fill="#5CB6BF"/>
<path d="M47.6262 62.0279C47.6262 60.8836 47.1725 59.9761 46.8173 59.4631H44.8444C44.4893 59.9958 44.0158 60.8836 44.0158 62.0476C44.0158 63.9219 44.2328 64.1389 44.2328 65.0267C44.2328 65.3621 43.9961 65.7369 43.9961 66.8812C43.9961 67.2955 43.9961 70.2352 43.9961 70.2352C43.9961 70.2352 44.1539 71.0638 45.8112 71.0638C47.4684 71.0638 47.6262 70.2352 47.6262 70.2352C47.6262 70.2352 47.6262 67.2955 47.6262 66.8812C47.6262 65.7764 47.3895 65.3621 47.3895 65.0267C47.3895 64.0994 47.6262 63.9219 47.6262 62.0279Z" fill="#90C7D3"/>
<path d="M47.6262 62.0279C47.6262 60.8836 47.1725 59.9761 46.8173 59.4631H44.8444C44.4893 59.9958 44.0158 60.8836 44.0158 62.0476C44.0158 63.9219 44.2328 64.1389 44.2328 65.0267C44.2328 65.3621 43.9961 65.737 43.9961 66.8812C43.9961 67.2955 43.9961 70.2352 43.9961 70.2352C43.9961 70.2352 44.8839 69.8603 45.8112 69.8603C46.7384 69.8603 47.6262 70.2352 47.6262 70.2352C47.6262 70.2352 47.6262 67.2955 47.6262 66.8812C47.6262 65.7764 47.3895 65.3621 47.3895 65.0267C47.3895 64.0994 47.6262 63.9219 47.6262 62.0279Z" fill="#48A1AF"/>
<path d="M45.8114 59.4631H44.8249C44.4698 59.9958 43.9963 60.8836 43.9963 62.0476C43.9963 63.9219 44.2133 64.1389 44.2133 65.0267C44.2133 65.3621 43.9766 65.7369 43.9766 66.8812C43.9766 67.2955 43.9766 70.2352 43.9766 70.2352C43.9766 70.2352 44.1344 71.0638 45.7916 71.0638L45.8114 59.4631Z" fill="#5CB6BF"/>
<path d="M41.1746 58.0426C41.1746 58.0821 41.1351 58.1216 41.0956 58.1216H40.0106C39.9711 58.1216 39.9316 58.0821 39.9316 58.0426V57.944C39.9316 57.9045 39.9711 57.8651 40.0106 57.8651H41.0956C41.1351 57.8651 41.1746 57.9045 41.1746 57.944V58.0426Z" fill="#C6BD20"/>
<path d="M42.3584 61.5742C42.3584 59.6802 41.1352 58.4964 41.1352 58.4964C41.0761 58.3781 41.0958 57.6086 41.0958 57.6086H40.0304C40.0304 57.6086 40.0502 58.3978 39.991 58.4964C39.991 58.4964 38.7678 59.7196 38.7678 61.5742C38.7678 63.4287 38.9848 63.6654 38.9848 64.5532C38.9848 64.8886 38.748 65.2635 38.748 66.4078C38.748 66.8221 38.748 69.7617 38.748 69.7617C38.748 69.7617 38.9059 70.5903 40.5631 70.5903C42.2203 70.5903 42.3782 69.7617 42.3782 69.7617C42.3782 69.7617 42.3782 66.8221 42.3782 66.4078C42.3782 65.3029 42.1414 64.8886 42.1414 64.5532C42.1414 63.6457 42.3584 63.4681 42.3584 61.5742Z" fill="#E3EBEE"/>
<path d="M40.5446 57.5889H40.0119C40.0119 57.5889 40.0316 58.378 39.9724 58.4767C39.9724 58.4767 38.7492 59.6999 38.7492 61.5544C38.7492 63.4089 38.9662 63.6457 38.9662 64.5335C38.9662 64.8689 38.7295 65.2437 38.7295 66.388C38.7295 66.8023 38.7295 69.7419 38.7295 69.7419C38.7295 69.7419 38.8873 70.5705 40.5446 70.5705V57.5889Z" fill="#F7FBFC"/>
<path d="M41.2144 58.2005C41.2144 58.24 41.175 58.2795 41.1355 58.2795H39.9715C39.932 58.2795 39.8926 58.24 39.8926 58.2005V58.1019C39.8926 58.0624 39.932 58.023 39.9715 58.023H41.1355C41.175 58.023 41.2144 58.0624 41.2144 58.1019V58.2005Z" fill="#D6D11E"/>
<path d="M40.5436 58.2795H39.9715C39.932 58.2795 39.8926 58.24 39.8926 58.2005V58.1019C39.8926 58.0624 39.932 58.023 39.9715 58.023H40.5436V58.2795Z" fill="#EAE134"/>
<path d="M41.1355 58.4965C41.1355 58.4767 41.1158 58.457 41.1158 58.4175H40.0109C40.0109 58.457 39.9912 58.4767 39.9912 58.4965H41.1355Z" fill="#ABD6D6"/>
<path d="M40.5428 58.3978H39.9904C39.9904 58.4373 39.9707 58.457 39.9707 58.4767H40.5428V58.3978Z" fill="#BFE2E1"/>
<path d="M41.2531 58.2399C41.2531 58.2596 41.2334 58.2596 41.2334 58.2596H39.8918C39.8721 58.2596 39.8721 58.2399 39.8721 58.2399V58.2005C39.8721 58.1807 39.8918 58.1807 39.8918 58.1807H41.2334C41.2531 58.1807 41.2531 58.2005 41.2531 58.2005V58.2399Z" fill="#D6D11E"/>
<path d="M40.544 58.2005H39.8732C39.8535 58.2005 39.8535 58.2202 39.8535 58.2202V58.2597C39.8535 58.2794 39.8732 58.2794 39.8732 58.2794H40.544V58.2005Z" fill="#EAE134"/>
<path d="M40.9978 57.4705H40.11C39.8733 57.4705 39.893 57.648 39.893 57.648C39.893 57.648 39.893 57.9045 39.893 57.9243C39.893 57.944 39.893 57.9637 39.9324 57.9637C39.9522 57.9637 41.1359 57.9637 41.1754 57.9637C41.2148 57.9637 41.2148 57.944 41.2148 57.9243C41.2148 57.9045 41.2148 57.648 41.2148 57.648C41.2148 57.648 41.2345 57.4705 40.9978 57.4705Z" fill="#D6D11E"/>
<path d="M40.544 57.4705H40.11C39.8733 57.4705 39.893 57.648 39.893 57.648C39.893 57.648 39.893 57.9045 39.893 57.9243C39.893 57.944 39.893 57.9637 39.9324 57.9637C39.9522 57.9637 40.2481 57.9637 40.544 57.9637V57.4705Z" fill="#EAE134"/>
<path d="M42.3596 61.5742C42.3596 60.4299 41.9059 59.5224 41.5507 59.0094H39.5778C39.2227 59.5421 38.7492 60.4299 38.7492 61.5939C38.7492 63.4682 38.9662 63.6852 38.9662 64.573C38.9662 64.9084 38.7295 65.2832 38.7295 66.4275C38.7295 66.8418 38.7295 69.7814 38.7295 69.7814C38.7295 69.7814 38.8873 70.6101 40.5446 70.6101C42.2018 70.6101 42.3596 69.7814 42.3596 69.7814C42.3596 69.7814 42.3596 66.8418 42.3596 66.4275C42.3596 65.3227 42.1229 64.9084 42.1229 64.573C42.1426 63.6457 42.3596 63.4682 42.3596 61.5742Z" fill="#90C7D3"/>
<path d="M42.3596 61.5742C42.3596 60.4299 41.9059 59.5224 41.5507 59.0094H39.5778C39.2227 59.5421 38.7492 60.4299 38.7492 61.5939C38.7492 63.4682 38.9662 63.6852 38.9662 64.573C38.9662 64.9084 38.7295 65.2832 38.7295 66.4275C38.7295 66.8418 38.7295 69.7814 38.7295 69.7814C38.7295 69.7814 39.6173 69.4066 40.5446 69.4066C41.4718 69.4066 42.3596 69.7814 42.3596 69.7814C42.3596 69.7814 42.3596 66.8418 42.3596 66.4275C42.3596 65.3227 42.1229 64.9084 42.1229 64.573C42.1426 63.6457 42.3596 63.4682 42.3596 61.5742Z" fill="#D6D11E"/>
<path d="M40.5428 59.0094H39.5563C39.2012 59.5421 38.7277 60.4299 38.7277 61.5939C38.7277 63.4682 38.9448 63.6852 38.9448 64.573C38.9448 64.9084 38.708 65.2832 38.708 66.4275C38.708 66.8418 38.708 69.7814 38.708 69.7814C38.708 69.7814 38.8658 70.6101 40.5231 70.6101L40.5428 59.0094Z" fill="#EAE134"/>
<path d="M48.7121 72.504L32.5146 69.0317V64.3559L48.6924 66.7234L48.7121 72.504Z" fill="#D6948C"/>
<path d="M29.0604 66.9404H1.99219V29.2384C1.99219 27.8968 3.07728 26.8314 4.39913 26.8314H26.6534C27.995 26.8314 29.0604 27.9165 29.0604 29.2384V66.9404Z" fill="#CFD1D1"/>
<path d="M31.0534 22.9645H0V23.8523H31.0534V22.9645Z" fill="#CCCACA"/>
<path d="M31.1127 23.8523H30.9746V67.8084H31.1127V23.8523Z" fill="#CCCACA"/>
<path d="M4.77487 15.5661C4.77487 18.8806 4.30137 20.1827 3.72923 20.1827C3.15709 20.1827 2.68359 18.8806 2.68359 15.5661C2.68359 12.2517 3.15709 10.9496 3.72923 10.9496C4.30137 10.9693 4.77487 12.2517 4.77487 15.5661Z" fill="#C1C1C1"/>
<path d="M3.72923 20.1827C3.15709 20.1827 2.68359 18.8806 2.68359 15.5661C2.68359 12.2517 3.15709 10.9496 3.72923 10.9496C4.30137 10.9693 4.30137 20.1827 3.72923 20.1827Z" fill="#E0DEDE"/>
<path d="M24.0109 29.8499C23.7347 30.0275 23.5177 30.3234 23.3993 30.6785C23.0442 30.6391 22.689 30.6983 22.4128 30.8758C21.6631 31.3493 21.3475 32.5725 22.3734 33.4998C23.3006 34.3481 24.1687 34.7427 24.9184 34.2692C25.1354 34.1311 25.3722 33.9338 25.4117 33.8154C25.5498 33.8154 25.8062 33.6971 26.0035 33.559C26.7532 33.0855 26.773 32.1187 26.3981 30.935C26.0035 29.6132 24.7606 29.3764 24.0109 29.8499Z" fill="#83B041"/>
<path d="M23.5375 30.9942C23.5375 30.9942 23.3007 30.4418 22.9653 30.1854C22.6299 29.9289 23.1626 30.1064 23.1626 30.1064L23.5967 30.9548L23.5375 30.9942Z" fill="#7D3719"/>
<path d="M25.2539 33.7563L25.3131 33.9339L25.3723 33.8155L25.4906 33.8549L25.4709 33.7563L25.5893 33.7168L25.3723 33.6182L25.2539 33.7563Z" fill="#7D3719"/>
<path d="M24.0297 30.0077C23.7535 30.1853 23.576 30.4615 23.4576 30.7772C23.1222 30.7377 22.8065 30.7969 22.5501 30.9745C21.8398 31.4282 21.5636 32.5528 22.5106 33.4209C23.359 34.21 24.1876 34.5849 24.8781 34.1311C25.0754 34.0127 25.2924 33.8154 25.3318 33.7168C25.4699 33.7168 25.7067 33.5984 25.8843 33.48C26.5945 33.0263 26.5945 32.1385 26.2394 31.0336C25.8843 29.7907 24.74 29.5737 24.0297 30.0077Z" fill="#8BC53F"/>
<path d="M24.3652 30.6194C24.3652 30.6194 24.9768 30.501 25.4306 30.8759C25.4306 30.8759 25.0952 29.8894 24.3652 30.6194Z" fill="#D6948C"/>
<path d="M16.809 30.6194C16.4933 30.5207 16.1382 30.5602 15.8028 30.6983C15.6055 30.4023 15.3293 30.1853 15.0136 30.1064C14.1653 29.8499 13.0605 30.4221 13.021 31.8031C12.9816 33.046 13.2775 33.9536 14.1258 34.21C14.3626 34.2889 14.6782 34.3284 14.7966 34.2889C14.8953 34.3876 15.1517 34.506 15.3885 34.5652C16.2368 34.8216 16.9668 34.21 17.5981 33.1249C18.2886 31.9412 17.677 30.8758 16.809 30.6194Z" fill="#CA2027"/>
<path d="M15.6445 31.014C15.6445 31.014 15.901 30.4813 15.8813 30.067C15.8616 29.6527 16.0588 30.1656 16.0588 30.1656L15.7037 31.0534L15.6445 31.014Z" fill="#7D3719"/>
<path d="M14.7178 34.0917L14.6191 34.2495L14.7572 34.2298L14.7967 34.3285L14.8756 34.2693L14.9545 34.3285L14.8953 34.0917H14.7178Z" fill="#7D3719"/>
<path d="M16.7101 30.7378C16.4142 30.6589 16.0788 30.6786 15.7632 30.8167C15.5659 30.5405 15.3094 30.3432 15.0135 30.2643C14.2243 30.0276 13.1984 30.5602 13.1589 31.8426C13.1195 33.0066 13.3957 33.8352 14.1848 34.072C14.4019 34.1312 14.6978 34.1706 14.7964 34.1312C14.8753 34.2298 15.1318 34.3285 15.3488 34.3877C16.138 34.6244 16.8088 34.0523 17.4204 33.0658C18.0912 31.961 17.4993 30.9745 16.7101 30.7378Z" fill="#E92C25"/>
<path d="M16.6514 31.3296C16.6514 31.3296 17.0854 31.6453 17.0854 32.1582C17.0854 32.1582 17.5392 31.3888 16.6514 31.3296Z" fill="#D6948C"/>
<path d="M15.1519 29.8302C15.1322 29.9486 15.3097 30.1656 15.5662 30.1853C15.8227 30.2248 16.0397 30.1459 16.0594 30.0275C16.0989 29.7118 15.1519 29.8302 15.1519 29.8302Z" fill="#1D9E49"/>
<path d="M8.06934 31.0535C8.06934 31.0535 8.60202 30.7181 8.79931 30.3235C8.9966 29.9486 8.89795 30.5011 8.89795 30.5011L8.08907 31.0929L8.06934 31.0535Z" fill="#7D3719"/>
<path d="M5.50471 33.3026L5.32715 33.3815L5.46525 33.4407L5.44552 33.5591L5.54417 33.5394L5.60335 33.638L5.68227 33.4013L5.50471 33.3026Z" fill="#7D3719"/>
<path d="M9.19492 31.4085C8.9779 31.1521 8.66224 31.014 8.30712 30.9548C8.28739 30.5997 8.16902 30.284 7.952 30.0275C7.36013 29.3765 6.15666 29.2778 5.40696 30.4024C4.73618 31.4283 4.49943 32.3358 5.07157 32.9869C5.2294 33.1644 5.46615 33.3617 5.58452 33.4012C5.60425 33.5393 5.76208 33.7563 5.91992 33.9339C6.51178 34.5849 7.41932 34.4468 8.52414 33.8944C9.7276 33.2828 9.76706 32.0596 9.19492 31.4085Z" fill="#D7C527"/>
<path d="M8.66116 31.7637C8.66116 31.7637 8.87818 32.4345 8.46387 33.0855C8.46387 33.0658 9.62788 32.4147 8.66116 31.7637Z" fill="#D6948C"/>
<path d="M27.3437 34.0128H3.47168V34.9992H27.3437V34.0128Z" fill="#EDEDED"/>
<path d="M27.3437 40.6811H3.47168V41.6675H27.3437V40.6811Z" fill="#EDEDED"/>
<path d="M12.2522 46.2447C12.2128 47.2509 10.2201 48.0204 8.40506 48.0204C6.47162 48.0204 4.63683 46.8958 4.95249 45.8304C4.97222 45.7515 4.77493 44.8242 4.97222 44.7453C5.54436 44.5086 6.82675 45.4556 8.3656 45.4556C10.0228 45.4556 11.4631 44.114 12.1536 44.5678C12.3114 44.6861 12.2522 46.1066 12.2522 46.2447Z" fill="#F9ECE4"/>
<path d="M12.1538 44.5678C12.7654 45.712 10.4768 46.9155 8.42498 46.9155C6.37316 46.9155 4.40026 45.4556 5.05132 44.3507C5.86021 42.9697 6.31398 44.1929 8.38552 44.1929C10.4571 44.1929 11.4435 43.2459 12.1538 44.5678Z" fill="#F5D1AF"/>
<path d="M11.9946 44.6072C12.5667 45.7121 10.3966 46.8563 8.42366 46.8563C6.45076 46.8563 4.55677 45.4556 5.1881 44.3902C5.95753 43.0684 6.4113 44.2521 8.3842 44.2521C10.3571 44.2521 11.3238 43.3248 11.9946 44.6072Z" fill="#952E25"/>
<path d="M7.12207 44.0548C7.12207 44.0548 7.57584 44.2718 7.33909 44.7058C7.33909 44.7058 7.71395 44.4888 7.85205 44.1929L7.12207 44.0548Z" fill="#F9ECE4"/>
<path d="M10.0614 44.8439C10.0614 44.982 9.86415 45.0806 9.6274 45.0806C9.39065 45.0806 9.19336 44.9623 9.19336 44.8439C9.19336 44.7058 9.46957 44.6861 9.70631 44.6861C9.94306 44.6861 10.0614 44.7058 10.0614 44.8439Z" fill="#F9ECE4"/>
<path d="M27.3447 47.3496H3.47266V48.336H27.3447V47.3496Z" fill="#EDEDED"/>
<path d="M24.3864 52.3607C24.3864 52.3607 25.9844 51.7491 25.9055 52.2028C25.9055 52.2028 25.8857 52.6566 25.9646 52.9723C25.9646 52.9723 26.1028 53.4655 25.5701 53.3669C25.5701 53.3669 24.4061 53.0315 24.1299 53.0709L24.3864 52.3607Z" fill="#D6948C"/>
<path d="M24.3257 53.3274C23.9705 53.3274 23.6943 53.1499 23.6943 52.9131V52.4594C23.6943 52.2226 23.9705 52.045 24.3257 52.045C24.6808 52.045 24.957 52.2226 24.957 52.4594V52.9131C24.957 53.1499 24.6611 53.3274 24.3257 53.3274Z" fill="#EB7623"/>
<path d="M22.4517 51.611C22.4517 51.611 21.7809 50.881 21.4653 50.664C21.4653 50.664 19.2951 49.3619 17.914 49.6381C17.914 49.6381 15.2112 50.5851 15.1125 51.8083C15.1125 51.8083 13.6526 54.8465 20.3012 54.3928C21.2285 54.3336 22.1755 53.8206 22.5109 53.7022C22.5109 53.7022 23.4973 53.5444 23.813 53.5049C23.813 53.5049 24.7995 53.3274 24.6219 52.262C24.6022 52.3015 24.6416 51.7096 22.4517 51.611Z" fill="#E48225"/>
<path d="M22.491 51.8083C24.0298 51.8675 24.4639 52.1832 24.602 52.3607C24.602 52.341 24.602 52.3213 24.602 52.3016C24.602 52.3016 24.6217 51.7097 22.4515 51.6308C22.4515 51.6308 21.7807 50.9008 21.465 50.6838C21.465 50.6838 19.2949 49.3817 17.9138 49.6579C17.9138 49.6579 15.2109 50.6049 15.1123 51.8281C15.1123 51.8281 15.1518 51.8281 15.1912 51.8478C15.5858 50.7232 22.491 51.8083 22.491 51.8083Z" fill="#F69220"/>
<path d="M27.3447 54.0179H3.47266V55.0044H27.3447V54.0179Z" fill="#EDEDED"/>
<path d="M14.8159 56.997H3.37305V65.8553H14.8159V56.997Z" fill="#EDEDED"/>
<path d="M14.8168 58.2005H3.37402V58.7924H14.8168V58.2005Z" fill="#D4D6D6"/>
<path d="M27.4428 56.997H16V65.8553H27.4428V56.997Z" fill="#EDEDED"/>
<path d="M27.4428 58.2005H16V58.7924H27.4428V58.2005Z" fill="#D4D6D6"/>
<path d="M86.3943 116.369C86.3943 117.889 85.1513 119.132 83.6322 119.132H58.1029C56.5837 119.132 55.3408 117.889 55.3408 116.369V51.4611C55.3408 49.942 56.5837 48.699 58.1029 48.699H83.6125C85.1316 48.699 86.3745 49.942 86.3745 51.4611V116.369H86.3943Z" fill="#D6948C"/>
<path d="M107.542 119.723C107.542 121.243 106.299 122.485 104.78 122.485H102.847C101.801 122.091 88.3066 117.514 88.3066 116.33L105.451 71.2098H107.365L107.542 119.723Z" fill="#CFD1D1"/>
<path d="M105.61 119.723C105.61 121.243 104.367 122.485 102.848 122.485C102.848 122.485 88.4848 119.033 88.1889 118.915C87.1433 118.52 86.3936 117.514 86.3936 116.33V72.5514L105.471 71.1901L105.61 119.723Z" fill="#D6948C"/>
<path d="M103.932 118.993L90.6152 115.975V77.1679L103.932 76.3788V118.993Z" fill="#C7C9C9" stroke="#EDEDED" stroke-width="0.995" stroke-miterlimit="10"/>
<path d="M87.8545 114.397L90.6165 115.975V77.1679L87.8742 77.306L87.8545 114.397Z" fill="#E0E2E2"/>
<path d="M101.998 96.2459C101.998 96.2854 101.959 96.3248 101.919 96.3248H100.874C100.834 96.3248 100.795 96.2854 100.795 96.2459V96.1472C100.795 96.1078 100.834 96.0683 100.874 96.0683H101.939C101.979 96.0683 102.018 96.1078 102.018 96.1472V96.2459H101.998Z" fill="#48A1AF"/>
<path d="M102.611 98.2187C102.611 97.3704 101.96 96.6799 101.96 96.6799C101.901 96.5615 101.921 95.8118 101.921 95.8118H100.875C100.875 95.8118 100.895 96.5812 100.836 96.6799C100.836 96.6799 100.185 97.3704 100.185 98.2187C100.185 98.2187 100.185 98.3766 100.224 98.5936C100.244 98.7317 100.323 98.9092 100.323 99.0868C100.323 99.2644 100.224 99.4617 100.224 99.6392C100.224 99.9549 100.224 100.211 100.224 100.33C100.224 100.665 100.342 101.612 100.342 101.829C100.342 102.046 100.224 102.263 100.224 102.52C100.224 102.776 100.224 103.684 100.224 103.684C100.224 103.684 100.283 104.216 101.388 104.216C102.513 104.216 102.552 103.684 102.552 103.684C102.552 103.684 102.552 102.796 102.552 102.52C102.552 102.243 102.434 102.046 102.434 101.829C102.434 101.612 102.552 100.665 102.552 100.33C102.552 100.211 102.552 99.9549 102.552 99.6392C102.552 99.4617 102.453 99.2841 102.453 99.0868C102.453 98.9092 102.532 98.7317 102.552 98.5936C102.611 98.3766 102.611 98.2187 102.611 98.2187Z" fill="#E3EBEE"/>
<path d="M101.407 95.8118H100.894C100.894 95.8118 100.913 96.5812 100.854 96.6799C100.854 96.6799 100.203 97.3704 100.203 98.2187C100.203 98.2187 100.203 98.3766 100.243 98.5936C100.262 98.7317 100.341 98.9092 100.341 99.0868C100.341 99.2644 100.243 99.4617 100.243 99.6392V100.33C100.243 100.665 100.361 101.612 100.361 101.829C100.361 102.046 100.243 102.263 100.243 102.52C100.243 102.776 100.243 103.684 100.243 103.684C100.243 103.684 100.302 104.216 101.407 104.216V95.8118Z" fill="#F7FBFC"/>
<path d="M100.203 98.3569C100.203 98.416 100.223 98.495 100.223 98.5936C100.243 98.7317 100.321 98.9093 100.321 99.0868C100.321 99.2644 100.223 99.4617 100.223 99.6392C100.223 99.9549 100.223 100.211 100.223 100.33C100.223 100.665 100.341 101.612 100.341 101.829C100.341 102.046 100.223 102.263 100.223 102.52C100.223 102.776 100.223 103.684 100.223 103.684C100.223 103.684 100.657 103.368 101.387 103.368C102.117 103.368 102.551 103.684 102.551 103.684C102.551 103.684 102.551 102.796 102.551 102.52C102.551 102.243 102.432 102.046 102.432 101.829C102.432 101.612 102.551 100.665 102.551 100.33C102.551 100.211 102.551 99.9549 102.551 99.6392C102.551 99.4617 102.452 99.2841 102.452 99.0868C102.452 98.9093 102.531 98.7317 102.551 98.5936C102.571 98.495 102.571 98.416 102.59 98.3569C102.59 98.3569 101.979 98.2977 101.367 98.2977C100.795 98.2977 100.203 98.3569 100.203 98.3569Z" fill="#9CC9D3"/>
<path d="M102.058 96.4037C102.058 96.4432 102.019 96.4826 101.979 96.4826H100.835C100.795 96.4826 100.756 96.4432 100.756 96.4037V96.3051C100.756 96.2656 100.795 96.2261 100.835 96.2261H101.979C102.019 96.2261 102.058 96.2656 102.058 96.3051V96.4037Z" fill="#48A1AF"/>
<path d="M101.407 96.4629H100.835C100.795 96.4629 100.756 96.4234 100.756 96.384V96.2853C100.756 96.2459 100.795 96.2064 100.835 96.2064H101.407V96.4629Z" fill="#5CB6BF"/>
<path d="M101.98 96.6798C101.98 96.6601 101.96 96.6404 101.96 96.6009H100.875C100.875 96.6404 100.855 96.6601 100.855 96.6798H101.98Z" fill="#ABD6D6"/>
<path d="M101.407 96.6009H100.855C100.855 96.6404 100.835 96.6601 100.835 96.6798H101.407V96.6009Z" fill="#BFE2E1"/>
<path d="M102.078 96.4431C102.078 96.4629 102.078 96.4629 102.058 96.4629H100.737C100.717 96.4629 100.717 96.4629 100.717 96.4431V96.4037C100.717 96.3839 100.717 96.3839 100.737 96.3839H102.058C102.078 96.3839 102.078 96.3839 102.078 96.4037V96.4431Z" fill="#48A1AF"/>
<path d="M101.406 96.4037H100.755C100.735 96.4037 100.735 96.4037 100.735 96.4234V96.4628C100.735 96.4826 100.735 96.4826 100.755 96.4826H101.406V96.4037Z" fill="#5CB6BF"/>
<path d="M101.841 95.6934H100.973C100.737 95.6934 100.756 95.8709 100.756 95.8709C100.756 95.8709 100.756 96.1077 100.756 96.1471C100.756 96.1669 100.756 96.1866 100.796 96.1866C100.835 96.1866 101.979 96.1866 101.999 96.1866C102.039 96.1866 102.039 96.1669 102.039 96.1471C102.039 96.1274 102.039 95.8709 102.039 95.8709C102.039 95.8709 102.078 95.6934 101.841 95.6934Z" fill="#48A1AF"/>
<path d="M101.407 95.6934H100.973C100.737 95.6934 100.756 95.8709 100.756 95.8709C100.756 95.8709 100.756 96.1077 100.756 96.1471C100.756 96.1669 100.756 96.1866 100.796 96.1866C100.815 96.1866 101.111 96.1866 101.407 96.1866V95.6934Z" fill="#5CB6BF"/>
<path d="M101.407 98.2977C100.815 98.2977 100.203 98.3766 100.203 98.3766C100.203 98.4358 100.223 98.5147 100.223 98.6133C100.243 98.7514 100.321 98.929 100.321 99.1066C100.321 99.2841 100.223 99.4814 100.223 99.659V100.349C100.223 100.685 100.341 101.632 100.341 101.849C100.341 102.066 100.223 102.283 100.223 102.539C100.223 102.796 100.223 103.703 100.223 103.703C100.223 103.703 100.282 104.236 101.387 104.236L101.407 98.2977Z" fill="#CAE2E8"/>
<path d="M95.3111 95.6737C95.3111 95.7131 95.2716 95.7526 95.2322 95.7526H94.1668C94.1273 95.7526 94.0879 95.7131 94.0879 95.6737V95.575C94.0879 95.5356 94.1273 95.4961 94.1668 95.4961H95.2322C95.2716 95.4961 95.3111 95.5356 95.3111 95.575V95.6737Z" fill="#48A1AF"/>
<path d="M95.9228 97.6467C95.9228 96.7983 95.2717 96.1078 95.2717 96.1078C95.2125 95.9894 95.2322 95.2397 95.2322 95.2397H94.1866C94.1866 95.2397 94.2063 96.0091 94.1471 96.1078C94.1471 96.1078 93.4961 96.7983 93.4961 97.6467C93.4961 97.6467 93.4961 97.8045 93.5355 98.0215C93.5553 98.1596 93.6342 98.3372 93.6342 98.5147C93.6342 98.6923 93.5355 98.8896 93.5355 99.0671C93.5355 99.3828 93.5355 99.6393 93.5355 99.7577C93.5355 100.093 93.6539 101.04 93.6539 101.257C93.6539 101.474 93.5355 101.691 93.5355 101.948C93.5355 102.204 93.5355 103.112 93.5355 103.112C93.5355 103.112 93.5947 103.644 94.6996 103.644C95.8241 103.644 95.8636 103.112 95.8636 103.112C95.8636 103.112 95.8636 102.224 95.8636 101.948C95.8636 101.671 95.7452 101.474 95.7452 101.257C95.7452 101.04 95.8636 100.093 95.8636 99.7577C95.8636 99.6393 95.8636 99.3828 95.8636 99.0671C95.8636 98.8896 95.7649 98.712 95.7649 98.5147C95.7649 98.3372 95.8438 98.1596 95.8636 98.0215C95.9228 97.7848 95.9228 97.6467 95.9228 97.6467Z" fill="#E3EBEE"/>
<path d="M95.9228 97.6466C95.9228 97.252 95.7847 96.8771 95.6268 96.6009H93.792C93.6342 96.8771 93.4961 97.2323 93.4961 97.6466C93.4961 97.6466 93.4961 97.8044 93.5355 98.0214C93.5553 98.1595 93.6342 98.3371 93.6342 98.5146C93.6342 98.6922 93.5355 98.8895 93.5355 99.067C93.5355 99.3827 93.5355 99.6392 93.5355 99.7576C93.5355 100.093 93.6539 101.04 93.6539 101.257C93.6539 101.474 93.5355 101.691 93.5355 101.947C93.5355 102.204 93.5355 103.111 93.5355 103.111C93.5355 103.111 93.5947 103.644 94.6996 103.644C95.8241 103.644 95.8636 103.111 95.8636 103.111C95.8636 103.111 95.8636 102.224 95.8636 101.947C95.8636 101.671 95.7452 101.474 95.7452 101.257C95.7452 101.04 95.8636 100.093 95.8636 99.7576C95.8636 99.6392 95.8636 99.3827 95.8636 99.067C95.8636 98.8895 95.7649 98.7119 95.7649 98.5146C95.7649 98.3371 95.8438 98.1595 95.8636 98.0214C95.9228 97.7847 95.9228 97.6466 95.9228 97.6466Z" fill="#9CC9D3"/>
<path d="M94.6996 95.2199H94.1866C94.1866 95.2199 94.2063 95.9894 94.1471 96.088C94.1471 96.088 93.4961 96.7785 93.4961 97.6269C93.4961 97.6269 93.4961 97.7847 93.5355 98.0017C93.5553 98.1398 93.6342 98.3174 93.6342 98.495C93.6342 98.6725 93.5355 98.8698 93.5355 99.0474V99.7379C93.5355 100.073 93.6539 101.02 93.6539 101.237C93.6539 101.454 93.5355 101.671 93.5355 101.928C93.5355 102.184 93.5355 103.092 93.5355 103.092C93.5355 103.092 93.5947 103.624 94.6996 103.624V95.2199Z" fill="#F7FBFC"/>
<path d="M95.35 95.8118C95.35 95.8512 95.3105 95.8907 95.271 95.8907H94.1268C94.0873 95.8907 94.0479 95.8512 94.0479 95.8118V95.7131C94.0479 95.6737 94.0873 95.6342 94.1268 95.6342H95.271C95.3105 95.6342 95.35 95.6737 95.35 95.7131V95.8118Z" fill="#48A1AF"/>
<path d="M94.6989 95.8907H94.1268C94.0873 95.8907 94.0479 95.8512 94.0479 95.8118V95.7131C94.0479 95.6737 94.0873 95.6342 94.1268 95.6342H94.6989V95.8907Z" fill="#5CB6BF"/>
<path d="M95.272 96.1078C95.272 96.088 95.2523 96.0683 95.2523 96.0288H94.1672C94.1672 96.0683 94.1475 96.088 94.1475 96.1078H95.272Z" fill="#ABD6D6"/>
<path d="M94.6999 96.0091H94.1672C94.1672 96.0486 94.1475 96.0683 94.1475 96.088H94.7196V96.0091H94.6999Z" fill="#BFE2E1"/>
<path d="M95.3896 95.871C95.3896 95.8907 95.3896 95.8907 95.3699 95.8907H94.0481C94.0283 95.8907 94.0283 95.8907 94.0283 95.871V95.8315C94.0283 95.8118 94.0283 95.8118 94.0481 95.8118H95.3699C95.3896 95.8118 95.3896 95.8118 95.3896 95.8315V95.871Z" fill="#48A1AF"/>
<path d="M94.6991 95.8118H94.0481C94.0283 95.8118 94.0283 95.8118 94.0283 95.8315V95.871C94.0283 95.8907 94.0283 95.8907 94.0481 95.8907H94.6991V95.8118Z" fill="#5CB6BF"/>
<path d="M95.1334 95.1015H94.2653C94.0285 95.1015 94.0483 95.2791 94.0483 95.2791C94.0483 95.2791 94.0483 95.5158 94.0483 95.5553C94.0483 95.575 94.0483 95.5947 94.0877 95.5947C94.1272 95.5947 95.2715 95.5947 95.2912 95.5947C95.3306 95.5947 95.3306 95.575 95.3306 95.5553C95.3306 95.5355 95.3306 95.2791 95.3306 95.2791C95.3306 95.2791 95.3701 95.1015 95.1334 95.1015Z" fill="#48A1AF"/>
<path d="M94.6993 95.1015H94.2653C94.0285 95.1015 94.0483 95.2791 94.0483 95.2791C94.0483 95.2791 94.0483 95.5158 94.0483 95.5553C94.0483 95.575 94.0483 95.5947 94.0877 95.5947C94.1074 95.5947 94.4034 95.5947 94.6993 95.5947V95.1015Z" fill="#5CB6BF"/>
<path d="M93.792 96.6009C93.6342 96.8771 93.4961 97.2323 93.4961 97.6466C93.4961 97.6466 93.4961 97.8044 93.5355 98.0214C93.5553 98.1595 93.6342 98.3371 93.6342 98.5146C93.6342 98.6922 93.5355 98.8895 93.5355 99.067V99.7576C93.5355 100.093 93.6539 101.04 93.6539 101.257C93.6539 101.474 93.5355 101.691 93.5355 101.947C93.5355 102.204 93.5355 103.111 93.5355 103.111C93.5355 103.111 93.5947 103.644 94.6996 103.644V96.6207L93.792 96.6009Z" fill="#CAE2E8"/>
<path d="M92.1341 95.5554C92.1341 95.5949 92.0947 95.6343 92.0552 95.6343H91.0096C90.9701 95.6343 90.9307 95.5949 90.9307 95.5554V95.4568C90.9307 95.4173 90.9701 95.3778 91.0096 95.3778H92.0749C92.1144 95.3778 92.1539 95.4173 92.1539 95.4568V95.5554H92.1341Z" fill="#48A1AF"/>
<path d="M92.747 97.5282C92.747 96.6799 92.0959 95.9894 92.0959 95.9894C92.0367 95.871 92.0565 95.1213 92.0565 95.1213H91.0108C91.0108 95.1213 91.0306 95.8907 90.9714 95.9894C90.9714 95.9894 90.3203 96.6799 90.3203 97.5282C90.3203 97.5282 90.3203 97.686 90.3598 97.9031C90.3795 98.0412 90.4584 98.2187 90.4584 98.3963C90.4584 98.5738 90.3598 98.7711 90.3598 98.9487C90.3598 99.2644 90.3598 99.5208 90.3598 99.6392C90.3598 99.9746 90.4781 100.922 90.4781 101.139C90.4781 101.356 90.3598 101.573 90.3598 101.829C90.3598 102.086 90.3598 102.993 90.3598 102.993C90.3598 102.993 90.419 103.526 91.5238 103.526C92.6483 103.526 92.6878 102.993 92.6878 102.993C92.6878 102.993 92.6878 102.105 92.6878 101.829C92.6878 101.553 92.5694 101.356 92.5694 101.139C92.5694 100.922 92.6878 99.9746 92.6878 99.6392C92.6878 99.5208 92.6878 99.2644 92.6878 98.9487C92.6878 98.7711 92.5891 98.5936 92.5891 98.3963C92.5891 98.2187 92.6681 98.0412 92.6878 97.9031C92.747 97.686 92.747 97.5282 92.747 97.5282Z" fill="#E3EBEE"/>
<path d="M92.747 97.5282C92.747 97.1336 92.6089 96.7588 92.451 96.4826H90.6162C90.4584 96.7588 90.3203 97.1139 90.3203 97.5282C90.3203 97.5282 90.3203 97.686 90.3598 97.9031C90.3795 98.0412 90.4584 98.2187 90.4584 98.3963C90.4584 98.5738 90.3598 98.7711 90.3598 98.9487C90.3598 99.2644 90.3598 99.5208 90.3598 99.6392C90.3598 99.9746 90.4781 100.922 90.4781 101.139C90.4781 101.356 90.3598 101.573 90.3598 101.829C90.3598 102.086 90.3598 102.993 90.3598 102.993C90.3598 102.993 90.419 103.526 91.5238 103.526C92.6483 103.526 92.6878 102.993 92.6878 102.993C92.6878 102.993 92.6878 102.105 92.6878 101.829C92.6878 101.553 92.5694 101.356 92.5694 101.139C92.5694 100.922 92.6878 99.9746 92.6878 99.6392C92.6878 99.5208 92.6878 99.2644 92.6878 98.9487C92.6878 98.7711 92.5891 98.5936 92.5891 98.3963C92.5891 98.2187 92.6681 98.0412 92.6878 97.9031C92.747 97.686 92.747 97.5282 92.747 97.5282Z" fill="#9CC9D3"/>
<path d="M91.5435 95.1213H91.0108C91.0108 95.1213 91.0306 95.8907 90.9714 95.9894C90.9714 95.9894 90.3203 96.6799 90.3203 97.5282C90.3203 97.5282 90.3203 97.686 90.3598 97.9031C90.3795 98.0412 90.4584 98.2187 90.4584 98.3963C90.4584 98.5738 90.3598 98.7711 90.3598 98.9487V99.6392C90.3598 99.9746 90.4781 100.922 90.4781 101.139C90.4781 101.356 90.3598 101.573 90.3598 101.829C90.3598 102.086 90.3598 102.993 90.3598 102.993C90.3598 102.993 90.419 103.526 91.5238 103.526V95.1213H91.5435Z" fill="#F7FBFC"/>
<path d="M92.1742 95.6934C92.1742 95.7329 92.1347 95.7723 92.0953 95.7723H90.951C90.9115 95.7723 90.8721 95.7329 90.8721 95.6934V95.5948C90.8721 95.5553 90.9115 95.5159 90.951 95.5159H92.0953C92.1347 95.5159 92.1742 95.5553 92.1742 95.5948V95.6934Z" fill="#48A1AF"/>
<path d="M91.5231 95.7723H90.951C90.9115 95.7723 90.8721 95.7329 90.8721 95.6934V95.5948C90.8721 95.5553 90.9115 95.5159 90.951 95.5159H91.5231V95.7723Z" fill="#5CB6BF"/>
<path d="M92.0953 95.9894C92.0953 95.9697 92.0755 95.9499 92.0755 95.9105H90.9904C90.9904 95.9499 90.9707 95.9697 90.9707 95.9894H92.0953Z" fill="#ABD6D6"/>
<path d="M91.5428 95.9105H90.9904C90.9904 95.9499 90.9707 95.9697 90.9707 95.9894H91.5428V95.9105Z" fill="#BFE2E1"/>
<path d="M92.2138 95.7525C92.2138 95.7723 92.2138 95.7723 92.1941 95.7723H90.8723C90.8525 95.7723 90.8525 95.7723 90.8525 95.7525V95.7131C90.8525 95.6934 90.8525 95.6934 90.8723 95.6934H92.1941C92.2138 95.6934 92.2138 95.6934 92.2138 95.7131V95.7525Z" fill="#48A1AF"/>
<path d="M91.5233 95.6934H90.8723C90.8525 95.6934 90.8525 95.6934 90.8525 95.7131V95.7525C90.8525 95.7723 90.8525 95.7723 90.8723 95.7723H91.5233V95.6934Z" fill="#5CB6BF"/>
<path d="M91.9566 94.9833H91.0885C90.8518 94.9833 90.8715 95.1608 90.8715 95.1608C90.8715 95.1608 90.8715 95.3976 90.8715 95.437C90.8715 95.4568 90.8715 95.4765 90.911 95.4765C90.9504 95.4765 92.0947 95.4765 92.1144 95.4765C92.1539 95.4765 92.1539 95.4568 92.1539 95.437C92.1539 95.4173 92.1539 95.1608 92.1539 95.1608C92.1539 95.1608 92.1934 94.9833 91.9566 94.9833Z" fill="#48A1AF"/>
<path d="M91.5226 94.9833H91.0885C90.8518 94.9833 90.8715 95.1608 90.8715 95.1608C90.8715 95.1608 90.8715 95.3976 90.8715 95.437C90.8715 95.4568 90.8715 95.4765 90.911 95.4765C90.9307 95.4765 91.2266 95.4765 91.5226 95.4765V94.9833Z" fill="#5CB6BF"/>
<path d="M90.6162 96.4826C90.4584 96.7588 90.3203 97.1139 90.3203 97.5282C90.3203 97.5282 90.3203 97.686 90.3598 97.9031C90.3795 98.0412 90.4584 98.2187 90.4584 98.3963C90.4584 98.5738 90.3598 98.7711 90.3598 98.9487V99.6392C90.3598 99.9746 90.4781 100.922 90.4781 101.139C90.4781 101.356 90.3598 101.573 90.3598 101.829C90.3598 102.086 90.3598 102.993 90.3598 102.993C90.3598 102.993 90.419 103.526 91.5238 103.526V96.5023L90.6162 96.4826Z" fill="#CAE2E8"/>
<path d="M104.169 106.071L87.8535 104.769V100.547L104.031 101.218L104.169 106.071Z" fill="#D6948C"/>
<path d="M104.368 92.9116L87.8545 92.6946V89.1434L104.249 89.0842L104.368 92.9116Z" fill="#D6948C"/>
<path d="M94.0093 80.5814C94.1277 81.4692 93.6345 82.1006 92.9045 82.1992C92.1745 82.2978 91.5235 81.8441 91.4051 80.9365C91.2867 80.0487 91.7208 78.9439 92.4507 78.8453C93.1807 78.7466 93.8909 79.6936 94.0093 80.5814Z" fill="#EDAF6B"/>
<path d="M97.4228 80.8967C97.3439 81.8043 96.6929 82.2778 95.9629 82.2186C95.2329 82.1397 94.7002 81.5478 94.7989 80.6403C94.8778 79.7327 95.5683 78.7857 96.2983 78.8449C97.0283 78.9238 97.5017 80.0089 97.4228 80.8967Z" fill="#EDAF6B"/>
<path d="M100.776 80.3246C100.993 81.1926 100.54 81.8831 99.8491 82.041C99.1389 82.2185 98.4287 81.824 98.2314 80.9362C98.0144 80.0681 98.3497 78.9238 99.06 78.766C99.7308 78.6081 100.559 79.4565 100.776 80.3246Z" fill="#EDAF6B"/>
<path d="M104.17 84.8031L87.8545 85.0595V81.4491L104.032 80.8573L104.17 84.8031Z" fill="#D6948C"/>
<path d="M101.762 107.215C101.762 107.255 101.723 107.294 101.684 107.294H100.598C100.559 107.294 100.52 107.255 100.52 107.215V107.116C100.52 107.077 100.559 107.038 100.598 107.038H101.684C101.723 107.038 101.762 107.077 101.762 107.116V107.215Z" fill="#48A1AF"/>
<path d="M102.966 110.727C102.966 108.833 101.743 107.649 101.743 107.649C101.683 107.531 101.703 106.761 101.703 106.761H100.638C100.638 106.761 100.658 107.551 100.598 107.649C100.598 107.649 99.3752 108.872 99.3752 110.727C99.3752 112.581 99.5922 112.818 99.5922 113.706C99.5922 114.041 99.3555 114.416 99.3555 115.561C99.3555 115.975 99.3555 118.914 99.3555 118.914C99.3555 118.914 99.5133 119.743 101.171 119.743C102.828 119.743 102.986 118.914 102.986 118.914C102.986 118.914 102.986 115.975 102.986 115.561C102.986 114.456 102.749 114.041 102.749 113.706C102.729 112.798 102.966 112.621 102.966 110.727Z" fill="#E3EBEE"/>
<path d="M101.151 106.761H100.618C100.618 106.761 100.638 107.551 100.579 107.649C100.579 107.649 99.3557 108.872 99.3557 110.727C99.3557 112.581 99.5727 112.818 99.5727 113.706C99.5727 114.041 99.3359 114.416 99.3359 115.561C99.3359 115.975 99.3359 118.914 99.3359 118.914C99.3359 118.914 99.4938 119.743 101.151 119.743V106.761Z" fill="#F7FBFC"/>
<path d="M101.822 107.353C101.822 107.393 101.782 107.432 101.743 107.432H100.579C100.539 107.432 100.5 107.393 100.5 107.353V107.255C100.5 107.215 100.539 107.176 100.579 107.176H101.743C101.782 107.176 101.822 107.215 101.822 107.255V107.353Z" fill="#48A1AF"/>
<path d="M101.151 107.432H100.579C100.539 107.432 100.5 107.393 100.5 107.353V107.255C100.5 107.215 100.539 107.176 100.579 107.176H101.151V107.432Z" fill="#5CB6BF"/>
<path d="M101.723 107.649C101.723 107.629 101.704 107.61 101.704 107.57H100.599C100.599 107.61 100.579 107.629 100.579 107.649H101.723Z" fill="#ABD6D6"/>
<path d="M101.151 107.57H100.599C100.599 107.61 100.579 107.629 100.579 107.649H101.151V107.57Z" fill="#BFE2E1"/>
<path d="M101.842 107.412C101.842 107.432 101.822 107.432 101.822 107.432H100.481C100.461 107.432 100.461 107.412 100.461 107.412V107.373C100.461 107.353 100.481 107.353 100.481 107.353H101.822C101.842 107.353 101.842 107.373 101.842 107.373V107.412Z" fill="#48A1AF"/>
<path d="M101.151 107.353H100.481C100.461 107.353 100.461 107.373 100.461 107.373V107.412C100.461 107.432 100.481 107.432 100.481 107.432H101.151V107.353Z" fill="#5CB6BF"/>
<path d="M101.604 106.623H100.716C100.48 106.623 100.499 106.801 100.499 106.801C100.499 106.801 100.499 107.057 100.499 107.077C100.499 107.097 100.499 107.117 100.539 107.117C100.559 107.117 101.742 107.117 101.782 107.117C101.821 107.117 101.821 107.097 101.821 107.077C101.821 107.057 101.821 106.801 101.821 106.801C101.821 106.801 101.841 106.623 101.604 106.623Z" fill="#48A1AF"/>
<path d="M101.15 106.623H100.716C100.48 106.623 100.499 106.801 100.499 106.801C100.499 106.801 100.499 107.057 100.499 107.077C100.499 107.097 100.499 107.117 100.539 107.117C100.559 107.117 100.855 107.117 101.15 107.117V106.623Z" fill="#5CB6BF"/>
<path d="M102.966 110.727C102.966 109.583 102.512 108.675 102.157 108.162H100.184C99.8292 108.695 99.3557 109.583 99.3557 110.747C99.3557 112.621 99.5727 112.838 99.5727 113.726C99.5727 114.061 99.3359 114.436 99.3359 115.58C99.3359 115.995 99.3359 118.934 99.3359 118.934C99.3359 118.934 99.4938 119.763 101.151 119.763C102.808 119.763 102.966 118.934 102.966 118.934C102.966 118.934 102.966 115.995 102.966 115.58C102.966 114.475 102.729 114.061 102.729 113.726C102.729 112.798 102.966 112.621 102.966 110.727Z" fill="#90C7D3"/>
<path d="M102.966 110.727C102.966 109.583 102.512 108.675 102.157 108.162H100.184C99.8292 108.695 99.3557 109.583 99.3557 110.747C99.3557 112.621 99.5727 112.838 99.5727 113.726C99.5727 114.061 99.3359 114.436 99.3359 115.58C99.3359 115.995 99.3359 118.934 99.3359 118.934C99.3359 118.934 100.224 118.559 101.151 118.559C102.078 118.559 102.966 118.934 102.966 118.934C102.966 118.934 102.966 115.995 102.966 115.58C102.966 114.475 102.729 114.061 102.729 113.726C102.729 112.798 102.966 112.621 102.966 110.727Z" fill="#48A1AF"/>
<path d="M101.151 108.162H100.165C99.8096 108.695 99.3361 109.583 99.3361 110.747C99.3361 112.621 99.5532 112.838 99.5532 113.726C99.5532 114.061 99.3164 114.436 99.3164 115.58C99.3164 115.995 99.3164 118.934 99.3164 118.934C99.3164 118.934 99.4742 119.763 101.131 119.763L101.151 108.162Z" fill="#5CB6BF"/>
<path d="M96.5144 106.742C96.5144 106.781 96.475 106.821 96.4355 106.821H95.3504C95.3109 106.821 95.2715 106.781 95.2715 106.742V106.643C95.2715 106.604 95.3109 106.564 95.3504 106.564H96.4355C96.475 106.564 96.5144 106.604 96.5144 106.643V106.742Z" fill="#C6BD20"/>
<path d="M97.6983 110.273C97.6983 108.379 96.4751 107.195 96.4751 107.195C96.4159 107.077 96.4356 106.308 96.4356 106.308H95.3703C95.3703 106.308 95.39 107.097 95.3308 107.195C95.3308 107.195 94.1076 108.419 94.1076 110.273C94.1076 112.128 94.3246 112.364 94.3246 113.252C94.3246 113.588 94.0879 113.963 94.0879 115.107C94.0879 115.521 94.0879 118.461 94.0879 118.461C94.0879 118.461 94.2457 119.289 95.903 119.289C97.5602 119.289 97.718 118.461 97.718 118.461C97.718 118.461 97.718 115.521 97.718 115.107C97.718 114.002 97.4813 113.588 97.4813 113.252C97.4813 112.345 97.6983 112.167 97.6983 110.273Z" fill="#E3EBEE"/>
<path d="M95.8844 106.288H95.3517C95.3517 106.288 95.3714 107.077 95.3123 107.176C95.3123 107.176 94.0891 108.399 94.0891 110.253C94.0891 112.108 94.3061 112.345 94.3061 113.233C94.3061 113.568 94.0693 113.943 94.0693 115.087C94.0693 115.501 94.0693 118.441 94.0693 118.441C94.0693 118.441 94.2272 119.27 95.8844 119.27V106.288Z" fill="#F7FBFC"/>
<path d="M96.5543 106.9C96.5543 106.939 96.5148 106.978 96.4753 106.978H95.3113C95.2719 106.978 95.2324 106.939 95.2324 106.9V106.801C95.2324 106.761 95.2719 106.722 95.3113 106.722H96.4753C96.5148 106.722 96.5543 106.761 96.5543 106.801V106.9Z" fill="#D6D11E"/>
<path d="M95.8835 106.978H95.3113C95.2719 106.978 95.2324 106.939 95.2324 106.9V106.801C95.2324 106.761 95.2719 106.722 95.3113 106.722H95.8835V106.978Z" fill="#EAE134"/>
<path d="M96.4753 107.195C96.4753 107.176 96.4556 107.156 96.4556 107.117H95.3508C95.3508 107.156 95.3311 107.176 95.3311 107.195H96.4753Z" fill="#ABD6D6"/>
<path d="M95.8827 107.097H95.3303C95.3303 107.136 95.3105 107.156 95.3105 107.176H95.8827V107.097Z" fill="#BFE2E1"/>
<path d="M96.5929 106.939C96.5929 106.959 96.5732 106.959 96.5732 106.959H95.2316C95.2119 106.959 95.2119 106.939 95.2119 106.939V106.899C95.2119 106.88 95.2316 106.88 95.2316 106.88H96.5732C96.5929 106.88 96.5929 106.899 96.5929 106.899V106.939Z" fill="#D6D11E"/>
<path d="M95.8839 106.9H95.2131C95.1934 106.9 95.1934 106.919 95.1934 106.919V106.959C95.1934 106.978 95.2131 106.978 95.2131 106.978H95.8839V106.9Z" fill="#EAE134"/>
<path d="M96.3376 106.169H95.4498C95.2131 106.169 95.2328 106.347 95.2328 106.347C95.2328 106.347 95.2328 106.604 95.2328 106.623C95.2328 106.643 95.2328 106.663 95.2723 106.663C95.292 106.663 96.4757 106.663 96.5152 106.663C96.5547 106.663 96.5547 106.643 96.5547 106.623C96.5547 106.604 96.5547 106.347 96.5547 106.347C96.5547 106.347 96.5744 106.169 96.3376 106.169Z" fill="#D6D11E"/>
<path d="M95.8839 106.169H95.4498C95.2131 106.169 95.2328 106.347 95.2328 106.347C95.2328 106.347 95.2328 106.604 95.2328 106.623C95.2328 106.643 95.2328 106.663 95.2723 106.663C95.292 106.663 95.5879 106.663 95.8839 106.663V106.169Z" fill="#EAE134"/>
<path d="M97.6995 110.273C97.6995 109.129 97.2457 108.221 96.8906 107.708H94.9177C94.5626 108.241 94.0891 109.129 94.0891 110.293C94.0891 112.167 94.3061 112.384 94.3061 113.272C94.3061 113.607 94.0693 113.982 94.0693 115.127C94.0693 115.541 94.0693 118.48 94.0693 118.48C94.0693 118.48 94.2272 119.309 95.8844 119.309C97.5416 119.309 97.6995 118.48 97.6995 118.48C97.6995 118.48 97.6995 115.541 97.6995 115.127C97.6995 114.022 97.4627 113.607 97.4627 113.272C97.4824 112.345 97.6995 112.167 97.6995 110.273Z" fill="#90C7D3"/>
<path d="M97.6995 110.273C97.6995 109.129 97.2457 108.221 96.8906 107.708H94.9177C94.5626 108.241 94.0891 109.129 94.0891 110.293C94.0891 112.167 94.3061 112.384 94.3061 113.272C94.3061 113.607 94.0693 113.982 94.0693 115.127C94.0693 115.541 94.0693 118.48 94.0693 118.48C94.0693 118.48 94.9571 118.106 95.8844 118.106C96.8117 118.106 97.6995 118.48 97.6995 118.48C97.6995 118.48 97.6995 115.541 97.6995 115.127C97.6995 114.022 97.4627 113.607 97.4627 113.272C97.4824 112.345 97.6995 112.167 97.6995 110.273Z" fill="#D6D11E"/>
<path d="M95.8826 107.708H94.8962C94.5411 108.241 94.0676 109.129 94.0676 110.293C94.0676 112.167 94.2846 112.384 94.2846 113.272C94.2846 113.607 94.0479 113.982 94.0479 115.127C94.0479 115.541 94.0479 118.48 94.0479 118.48C94.0479 118.48 94.2057 119.309 95.8629 119.309L95.8826 107.708Z" fill="#EAE134"/>
<path d="M104.052 121.203L87.8545 117.731V113.055L104.032 115.422L104.052 121.203Z" fill="#D6948C"/>
<path d="M84.4002 115.639H57.332V77.9374C57.332 76.5958 58.4171 75.5305 59.739 75.5305H81.9933C83.3348 75.5305 84.4002 76.6156 84.4002 77.9374V115.639Z" fill="#CFD1D1"/>
<path d="M86.3933 71.6635H55.3398V72.5513H86.3933V71.6635Z" fill="#CCCACA"/>
<path d="M86.4526 72.5513H86.3145V116.507H86.4526V72.5513Z" fill="#CCCACA"/>
<path d="M60.1147 64.2652C60.1147 67.5796 59.6412 68.8817 59.0691 68.8817C58.4969 68.8817 58.0234 67.5796 58.0234 64.2652C58.0234 60.9507 58.4969 59.6486 59.0691 59.6486C59.6412 59.6683 60.1147 60.9507 60.1147 64.2652Z" fill="#C1C1C1"/>
<path d="M59.0691 68.8817C58.4969 68.8817 58.0234 67.5796 58.0234 64.2652C58.0234 60.9507 58.4969 59.6486 59.0691 59.6486C59.6412 59.6683 59.6412 68.8817 59.0691 68.8817Z" fill="#E0DEDE"/>
<path d="M79.3507 78.549C79.0745 78.7265 78.8575 79.0224 78.7391 79.3776C78.384 79.3381 78.0289 79.3973 77.7527 79.5749C77.003 80.0484 76.6873 81.2715 77.7132 82.1988C78.6405 83.0472 79.5086 83.4417 80.2583 82.9682C80.4753 82.8301 80.712 82.6328 80.7515 82.5145C80.8896 82.5145 81.1461 82.3961 81.3434 82.258C82.0931 81.7845 82.1128 80.8178 81.7379 79.634C81.3434 78.3122 80.1004 78.0755 79.3507 78.549Z" fill="#83B041"/>
<path d="M78.8773 79.6933C78.8773 79.6933 78.6406 79.1409 78.3052 78.8844C77.9698 78.6279 78.5025 78.8055 78.5025 78.8055L78.9365 79.6538L78.8773 79.6933Z" fill="#7D3719"/>
<path d="M80.5938 82.4553L80.6529 82.6329L80.7121 82.5145L80.8305 82.554L80.8108 82.4553L80.9291 82.4159L80.7121 82.3172L80.5938 82.4553Z" fill="#7D3719"/>
<path d="M79.3696 78.7068C79.0934 78.8843 78.9158 79.1605 78.7974 79.4762C78.462 79.4367 78.1464 79.4959 77.8899 79.6735C77.1797 80.1273 76.9035 81.2518 77.8505 82.1199C78.6988 82.909 79.5274 83.2839 80.2179 82.8301C80.4152 82.7118 80.6322 82.5145 80.6717 82.4158C80.8098 82.4158 81.0465 82.2974 81.2241 82.1791C81.9343 81.7253 81.9343 80.8375 81.5792 79.7327C81.2241 78.4898 80.0798 78.2727 79.3696 78.7068Z" fill="#8BC53F"/>
<path d="M79.7051 79.3184C79.7051 79.3184 80.3167 79.2 80.7705 79.5749C80.7705 79.5749 80.4351 78.5884 79.7051 79.3184Z" fill="#D6948C"/>
<path d="M72.1488 79.3184C71.8332 79.2197 71.478 79.2592 71.1426 79.3973C70.9454 79.1014 70.6691 78.8843 70.3535 78.8054C69.5051 78.549 68.4003 79.1211 68.3609 80.5021C68.3214 81.7451 68.6173 82.6526 69.4657 82.9091C69.7024 82.988 70.0181 83.0274 70.1365 82.988C70.2351 83.0866 70.4916 83.205 70.7283 83.2642C71.5767 83.5207 72.3067 82.9091 72.938 81.824C73.6285 80.6402 73.0169 79.5749 72.1488 79.3184Z" fill="#CA2027"/>
<path d="M70.9834 79.713C70.9834 79.713 71.2399 79.1803 71.2201 78.766C71.2004 78.3517 71.3977 78.8646 71.3977 78.8646L71.0426 79.7524L70.9834 79.713Z" fill="#7D3719"/>
<path d="M70.0567 82.7907L69.958 82.9485L70.0961 82.9288L70.1356 83.0275L70.2145 82.9683L70.2934 83.0275L70.2342 82.7907H70.0567Z" fill="#7D3719"/>
<path d="M72.05 79.4368C71.7541 79.3579 71.4187 79.3776 71.103 79.5157C70.9057 79.2395 70.6492 79.0423 70.3533 78.9633C69.5641 78.7266 68.5382 79.2593 68.4988 80.5417C68.4593 81.7057 68.7355 82.5343 69.5247 82.771C69.7417 82.8302 70.0376 82.8697 70.1363 82.8302C70.2152 82.9289 70.4717 83.0275 70.6887 83.0867C71.4778 83.3234 72.1486 82.7513 72.7602 81.7649C73.431 80.66 72.8391 79.6736 72.05 79.4368Z" fill="#E92C25"/>
<path d="M71.9912 80.0286C71.9912 80.0286 72.4252 80.3443 72.4252 80.8572C72.4252 80.8572 72.879 80.0878 71.9912 80.0286Z" fill="#D6948C"/>
<path d="M70.4917 78.5292C70.472 78.6476 70.6496 78.8646 70.906 78.8844C71.1625 78.9238 71.3795 78.8449 71.3993 78.7265C71.4387 78.4108 70.4917 78.5292 70.4917 78.5292Z" fill="#1D9E49"/>
<path d="M63.4082 79.7525C63.4082 79.7525 63.9409 79.4171 64.1382 79.0225C64.3355 78.6477 64.2368 79.2001 64.2368 79.2001L63.4279 79.7919L63.4082 79.7525Z" fill="#7D3719"/>
<path d="M60.8436 82.0016L60.666 82.0805L60.8041 82.1397L60.7844 82.2581L60.883 82.2384L60.9422 82.337L61.0211 82.1003L60.8436 82.0016Z" fill="#7D3719"/>
<path d="M64.5338 80.1075C64.3168 79.8511 64.0011 79.713 63.646 79.6538C63.6263 79.2987 63.5079 78.983 63.2909 78.7265C62.699 78.0755 61.4955 77.9768 60.7458 79.1014C60.075 80.1273 59.8383 81.0348 60.4104 81.6859C60.5683 81.8634 60.805 82.0607 60.9234 82.1002C60.9431 82.2383 61.101 82.4553 61.2588 82.6329C61.8507 83.2839 62.7582 83.1458 63.863 82.5934C65.0665 81.9818 65.1059 80.7586 64.5338 80.1075Z" fill="#D7C527"/>
<path d="M64.001 80.4627C64.001 80.4627 64.218 81.1335 63.8037 81.7845C63.8037 81.7648 64.9677 81.1138 64.001 80.4627Z" fill="#D6948C"/>
<path d="M82.6836 82.7118H58.8115V83.6982H82.6836V82.7118Z" fill="#EDEDED"/>
<path d="M82.6836 89.3801H58.8115V90.3665H82.6836V89.3801Z" fill="#EDEDED"/>
<path d="M67.5911 94.9437C67.5516 95.9499 65.559 96.7194 63.7439 96.7194C61.8105 96.7194 59.9757 95.5948 60.2914 94.5294C60.3111 94.4505 60.1138 93.5233 60.3111 93.4443C60.8832 93.2076 62.1656 94.1546 63.7045 94.1546C65.3617 94.1546 66.8019 92.813 67.4924 93.2668C67.6503 93.3852 67.5911 94.8056 67.5911 94.9437Z" fill="#F9ECE4"/>
<path d="M67.4936 93.2668C68.1052 94.4111 65.8166 95.6145 63.7648 95.6145C61.713 95.6145 59.7401 94.1546 60.3912 93.0498C61.2001 91.6687 61.6538 92.8919 63.7254 92.8919C65.7969 92.8919 66.7834 91.945 67.4936 93.2668Z" fill="#F5D1AF"/>
<path d="M67.3344 93.3063C67.9066 94.4111 65.7364 95.5554 63.7635 95.5554C61.7906 95.5554 59.8966 94.1546 60.5279 93.0892C61.2974 91.7674 61.7511 92.9511 63.724 92.9511C65.6969 92.9511 66.6637 92.0239 67.3344 93.3063Z" fill="#952E25"/>
<path d="M62.4619 92.7538C62.4619 92.7538 62.9157 92.9708 62.6789 93.4048C62.6789 93.4048 63.0538 93.1878 63.1919 92.8919L62.4619 92.7538Z" fill="#F9ECE4"/>
<path d="M65.4013 93.5429C65.4013 93.681 65.204 93.7796 64.9672 93.7796C64.7305 93.7796 64.5332 93.6613 64.5332 93.5429C64.5332 93.4048 64.8094 93.3851 65.0462 93.3851C65.2829 93.3851 65.4013 93.4048 65.4013 93.5429Z" fill="#F9ECE4"/>
<path d="M82.6846 96.0486H58.8125V97.0351H82.6846V96.0486Z" fill="#EDEDED"/>
<path d="M79.7262 101.06C79.7262 101.06 81.3242 100.448 81.2453 100.902C81.2453 100.902 81.2256 101.356 81.3045 101.671C81.3045 101.671 81.4426 102.165 80.9099 102.066C80.9099 102.066 79.7459 101.73 79.4697 101.77L79.7262 101.06Z" fill="#D6948C"/>
<path d="M79.6655 102.026C79.3104 102.026 79.0342 101.849 79.0342 101.612V101.158C79.0342 100.922 79.3104 100.744 79.6655 100.744C80.0206 100.744 80.2968 100.922 80.2968 101.158V101.612C80.2968 101.849 80.0009 102.026 79.6655 102.026Z" fill="#EB7623"/>
<path d="M77.7915 100.31C77.7915 100.31 77.1208 99.58 76.8051 99.363C76.8051 99.363 74.6349 98.0609 73.2539 98.3371C73.2539 98.3371 70.551 99.2841 70.4524 100.507C70.4524 100.507 68.9924 103.546 75.6411 103.092C76.5683 103.033 77.5153 102.52 77.8507 102.401C77.8507 102.401 78.8372 102.243 79.1528 102.204C79.1528 102.204 80.1393 102.026 79.9617 100.961C79.942 101.001 79.9815 100.409 77.7915 100.31Z" fill="#E48225"/>
<path d="M77.8308 100.507C79.3697 100.567 79.8037 100.882 79.9418 101.06C79.9418 101.04 79.9418 101.02 79.9418 101.001C79.9418 101.001 79.9615 100.409 77.7913 100.33C77.7913 100.33 77.1206 99.5998 76.8049 99.3828C76.8049 99.3828 74.6347 98.0807 73.2537 98.3569C73.2537 98.3569 70.5508 99.3039 70.4521 100.527C70.4521 100.527 70.4916 100.527 70.5311 100.547C70.9256 99.4223 77.8308 100.507 77.8308 100.507Z" fill="#F69220"/>
<path d="M82.6846 102.717H58.8125V103.703H82.6846V102.717Z" fill="#EDEDED"/>
<path d="M70.1557 105.696H58.7129V114.554H70.1557V105.696Z" fill="#EDEDED"/>
<path d="M70.1567 106.9H58.7139V107.491H70.1567V106.9Z" fill="#D4D6D6"/>
<path d="M82.7817 105.696H71.3389V114.554H82.7817V105.696Z" fill="#EDEDED"/>
<path d="M82.7817 106.9H71.3389V107.491H82.7817V106.9Z" fill="#D4D6D6"/>
</svg>
