<svg width="100" height="100" viewBox="0 0 100 100" fill="none" xmlns="http://www.w3.org/2000/svg">
<g clip-path="url(#clip0)">
<path d="M96.8357 0.00341601C95.2126 0.0796735 93.9637 1.47806 93.9637 3.10342C93.9637 5.02313 93.551 6.85513 92.8027 8.50784C91.1611 12.1348 85.7446 10.9869 85.7446 7.00563V7.00362C85.7446 5.37847 84.4957 3.98008 82.8725 3.90382C81.1393 3.82213 79.7083 5.20321 79.7083 6.9183V15.3225C79.7083 17.3239 78.2661 19.0342 76.2935 19.3722L76.2916 19.3724C73.7818 19.8024 71.4892 17.8175 71.4892 15.2712C71.4892 13.6461 70.2403 12.2296 68.6172 12.1533C66.884 12.0716 65.453 13.5559 65.453 15.2712V19.5754C65.453 21.5771 64.0108 23.2871 62.0381 23.6251L49.9999 25.6873L49.4902 43.9205C49.6588 43.9495 49.8295 43.9638 49.9999 43.9638C50.1703 43.9638 50.3407 43.9495 50.5096 43.9205L84.1128 38.1642C93.3182 36.5871 99.9999 28.6636 99.9999 19.3237V13.0785V3.0181C99.9999 1.30281 98.5691 -0.0782741 96.8357 0.00341601Z" fill="#FCE3A0"/>
<path d="M37.9616 23.6258C35.9889 23.2878 34.5467 21.5777 34.5467 19.5761V15.099C34.5467 13.4741 33.2978 12.2302 31.6746 12.154C29.9414 12.0723 28.5105 13.3837 28.5105 15.099C28.5105 17.6455 26.2179 19.8031 23.708 19.3731L23.7062 19.3729C21.7336 19.0348 20.2913 17.3246 20.2913 15.3232V7.00426C20.2913 5.37911 19.0425 3.98072 17.4191 3.90446C15.6859 3.82277 14.2551 5.20385 14.2551 6.91894V7.00627C14.2551 10.9876 8.83863 12.1354 7.19698 8.50848C6.44889 6.85557 6.03622 5.02377 6.03622 3.10406C6.03622 1.4789 4.78732 0.0805141 3.16398 0.00425656C1.43078 -0.0776348 0 1.30345 0 3.01874V13.0791V19.3244C0 28.6642 6.68169 36.5878 15.8871 38.1648L49.4903 43.9212L50 25.688L37.9616 23.6258Z" fill="#FFCE71"/>
<path d="M12.5518 30.1461C10.4428 30.6205 8.78984 32.2734 8.31539 34.3825C7.08521 39.8507 8.59608 45.8107 12.8526 50.0672C17.9538 55.1684 25.5015 56.3262 31.7176 53.5483C34.4955 47.3322 33.3379 39.7845 28.2365 34.6833C23.98 30.4268 18.02 28.9159 12.5518 30.1461Z" fill="#CE857A"/>
<path d="M91.6859 34.3827C91.2114 32.2736 89.5585 30.6207 87.4495 30.1463C81.9812 28.9161 76.0213 30.4269 71.7647 34.6835C66.6635 39.7847 65.5058 47.3324 68.2837 53.5485C74.4998 56.3264 82.0474 55.1686 87.1487 50.0674C91.4052 45.8109 92.9161 39.8509 91.6859 34.3827Z" fill="#D6948C"/>
<path d="M15.0214 36.8541C14.198 43.2424 19.6264 48.7092 26.0612 47.8982C26.8674 41.4441 21.4216 36.0404 15.0214 36.8541Z" fill="#FF8E9E"/>
<path d="M84.9778 36.8541C78.5748 36.0403 73.1322 41.4473 73.9378 47.8982C80.3997 48.7107 85.7977 43.2185 84.9778 36.8541Z" fill="#FF8E9E"/>
<path d="M56.3785 15.4288L54.2111 16.4592L53.407 14.198C52.3555 11.2411 48.1736 11.2411 47.1221 14.198L46.3177 16.4592L44.1501 15.4288C41.3157 14.0815 38.3585 17.0384 39.7058 19.873L40.7362 22.0406H59.7921L60.8225 19.8732C62.17 17.0384 59.2129 14.0815 56.3785 15.4288Z" fill="#CE857A"/>
<path d="M76.223 51.8352C72.7067 47.5131 72.5622 43.5925 72.5234 39.7952C72.423 29.9632 65.9282 21.5809 57.0229 18.6344C54.89 17.9288 52.6193 17.5336 50.2644 17.5064C37.7032 17.3624 27.4753 27.5014 27.4753 40.0296C27.4753 44.2133 26.8557 48.029 23.7175 51.9082C19.0244 57.7101 16.2131 65.0968 16.2129 73.1402C16.2129 73.3688 16.2151 73.597 16.2197 73.8245C16.5101 88.4088 28.5992 100 43.1863 100H56.8137C56.8902 100 56.966 99.9978 57.0423 99.9972C71.527 99.8766 83.4924 88.3318 83.7801 73.8237C83.7845 73.5966 83.7869 73.369 83.7869 73.1408C83.7869 65.0632 80.9519 57.6481 76.223 51.8352Z" fill="#D6948C"/>
<path d="M30.3052 73.8245C30.3006 73.597 30.2984 73.369 30.2984 73.1402C30.2984 65.0966 33.1096 57.7099 37.803 51.9082C40.9412 48.0288 41.5608 44.2133 41.5608 40.0296C41.5608 30.0561 48.0428 21.597 57.0239 18.6344C54.8909 17.9288 52.6203 17.5336 50.2654 17.5064C37.7042 17.3624 27.4762 27.5014 27.4762 40.0296C27.4762 44.2133 26.8567 48.029 23.7185 51.9082C19.0253 57.7101 16.2141 65.0968 16.2139 73.1402C16.2139 73.3688 16.2161 73.597 16.2207 73.8245C16.5108 88.4088 28.6 100 43.1871 100H56.8145C56.8909 100 56.9668 99.9978 57.043 99.9972C42.5587 99.8766 30.594 88.3324 30.3052 73.8245Z" fill="#CE857A"/>
<path d="M48.4902 74.1449H51.5083V100H48.4902V74.1449Z" fill="#AC6757"/>
<path d="M49.9995 76.4588C45.2843 76.4588 41.4482 72.6227 41.4482 67.9075C41.4482 67.0739 42.1239 66.3984 42.9573 66.3984C43.7907 66.3984 44.4664 67.0739 44.4664 67.9075C44.4664 70.9584 46.9484 73.4407 49.9995 73.4407C53.0507 73.4407 55.5327 70.9584 55.5327 67.9075C55.5327 67.0739 56.2084 66.3984 57.0418 66.3984C57.8752 66.3984 58.5509 67.0739 58.5509 67.9075C58.5509 72.6225 54.7148 76.4588 49.9995 76.4588Z" fill="#AC6757"/>
<path d="M33.8796 63.5814C37.0891 63.5814 39.6909 61.5095 39.6909 58.9537C39.6909 56.3978 37.0891 54.3259 33.8796 54.3259C30.6702 54.3259 28.0684 56.3978 28.0684 58.9537C28.0684 61.5095 30.6702 63.5814 33.8796 63.5814Z" fill="#CE857A"/>
<path d="M66.0967 63.5814C69.3193 63.5814 71.9317 61.5095 71.9317 58.9537C71.9317 56.3978 69.3193 54.3259 66.0967 54.3259C62.8741 54.3259 60.2617 56.3978 60.2617 58.9537C60.2617 61.5095 62.8741 63.5814 66.0967 63.5814Z" fill="#CE857A"/>
<path d="M37.4348 50.6036C36.6014 50.6036 35.9258 51.2793 35.9258 52.1127V54.5272C35.9258 55.3606 36.6014 56.0362 37.4348 56.0362C38.2682 56.0362 38.9439 55.3606 38.9439 54.5272V52.1127C38.9439 51.2793 38.2682 50.6036 37.4348 50.6036Z" fill="#313D40"/>
<path d="M62.5647 50.6036C61.7313 50.6036 61.0557 51.2793 61.0557 52.1127V54.5272C61.0557 55.3606 61.7313 56.0362 62.5647 56.0362C63.3981 56.0362 64.0738 55.3606 64.0738 54.5272V52.1127C64.0738 51.2793 63.3981 50.6036 62.5647 50.6036Z" fill="#313D40"/>
</g>
<defs>
<clipPath id="clip0">
<rect width="100" height="100" fill="white"/>
</clipPath>
</defs>
</svg>
