<svg width="1506" height="179" viewBox="0 0 1506 179" fill="none" xmlns="http://www.w3.org/2000/svg">
<path d="M1402.36 178.752L1439.7 175.5C1472.59 175.5 1505.9 152.936 1505.9 121.091V57.6645C1505.9 25.8197 1479.24 0.00367737 1446.35 0.00367737H1402.36C1369.47 0.00367737 1342.81 25.8197 1342.81 57.6645V121.091C1342.81 152.936 1369.47 178.752 1402.36 178.752Z" fill="#B5BFC6"/>
<path d="M1497.24 102.482H1505.89V95.6122H1497.24V102.482Z" fill="#CFA828"/>
<path d="M1333 101.493V121.091C1333 152.936 1361.26 178.752 1396.13 178.752H1442.76C1477.63 178.752 1505.9 152.936 1505.9 121.091V101.493H1333Z" fill="#E15B5C"/>
<path d="M1497.93 121.091C1497.93 152.936 1471.26 178.752 1438.37 178.752H1040.56C1007.66 178.752 981 152.936 981 121.091V57.6642C981 25.8194 1007.66 0.00340271 1040.56 0.00340271H1298.72H1438.37C1471.26 0.00340271 1497.93 25.8194 1497.93 57.6642V121.091Z" fill="#E7EBEE"/>
<path d="M1437.76 5.34058e-05H1298.11H1179.58H1129.98H1039.93C1020.69 5.34058e-05 1003.6 8.83818 992.707 22.5422H1484.98C1474.09 8.83818 1457 5.34058e-05 1437.76 5.34058e-05Z" fill="#FAF9F9"/>
<path d="M1497.93 95.6168H981.109V113.152H1497.93V95.6168Z" fill="#E1BA35"/>
<path d="M1497.93 121.091V101.493H1035.24H981.109V110.949V121.091C981.109 152.936 1007.26 178.752 1040.15 178.752H1438.37C1471.26 178.752 1497.93 152.936 1497.93 121.091Z" fill="#EF6569"/>
<path d="M1141.85 58.7369V49.5944C1141.85 44.091 1137.39 39.6255 1131.89 39.6255H1128.48C1122.98 39.6255 1118.52 44.091 1118.52 49.5944V58.7369C1118.52 64.2435 1122.98 68.7058 1128.48 68.7058H1131.89C1137.39 68.7058 1141.85 64.2435 1141.85 58.7369Z" fill="#667F90"/>
<path d="M1107.6 95.848H1106V43.2069C1106 35.5604 1112.21 29.3427 1119.85 29.3427H1140.35C1147.99 29.3427 1154.2 35.5604 1154.2 43.2069V95.848H1152.6V43.2069C1152.6 36.4446 1147.11 30.9444 1140.35 30.9444H1119.85C1113.09 30.9444 1107.6 36.4446 1107.6 43.2069V95.848Z" fill="#A6B3BC"/>
<path d="M1154.21 101.717H1152.6V95.8481H1154.21V101.717ZM1107.6 101.717H1106V95.8481H1107.6V101.717Z" fill="#A09133"/>
<path d="M1119.85 151.67H1140.35C1147.99 151.67 1154.2 145.452 1154.2 137.806V101.717H1152.6V137.806C1152.6 144.568 1147.11 150.068 1140.35 150.068H1119.85C1113.09 150.068 1107.6 144.568 1107.6 137.806V101.717H1106V137.806C1106 145.452 1112.21 151.67 1119.85 151.67Z" fill="#A85359"/>
<path d="M1128.48 68.7058H1131.89C1133.88 68.7058 1135.74 68.1132 1137.29 67.1041L1123.64 67.4501C1125.07 68.2477 1126.72 68.7058 1128.48 68.7058Z" fill="#819BA9"/>
<path d="M1118.52 58.7367C1118.52 59.6753 1118.66 60.5754 1118.9 61.4371L1141.64 60.7676C1141.78 60.1109 1141.85 59.4318 1141.85 58.7367V56.0907L1118.52 56.8499V58.7367Z" fill="#819BA9"/>
<path d="M1414.85 58.7369V49.5944C1414.85 44.091 1410.39 39.6255 1404.89 39.6255H1401.48C1395.98 39.6255 1391.52 44.091 1391.52 49.5944V58.7369C1391.52 64.2435 1395.98 68.7058 1401.48 68.7058H1404.89C1410.39 68.7058 1414.85 64.2435 1414.85 58.7369Z" fill="#667F90"/>
<path d="M1380.6 95.848H1379V43.2069C1379 35.5604 1385.21 29.3427 1392.85 29.3427H1413.35C1420.99 29.3427 1427.2 35.5604 1427.2 43.2069V95.848H1425.6V43.2069C1425.6 36.4446 1420.11 30.9444 1413.35 30.9444H1392.85C1386.09 30.9444 1380.6 36.4446 1380.6 43.2069V95.848Z" fill="#A6B3BC"/>
<path d="M1427.21 101.717H1425.6V95.8481H1427.21V101.717ZM1380.6 101.717H1379V95.8481H1380.6V101.717Z" fill="#A09133"/>
<path d="M1392.85 151.67H1413.35C1420.99 151.67 1427.2 145.452 1427.2 137.806V101.717H1425.6V137.806C1425.6 144.568 1420.11 150.068 1413.35 150.068H1392.85C1386.09 150.068 1380.6 144.568 1380.6 137.806V101.717H1379V137.806C1379 145.452 1385.21 151.67 1392.85 151.67Z" fill="#A85359"/>
<path d="M1401.48 68.7058H1404.89C1406.88 68.7058 1408.74 68.1132 1410.29 67.1041L1396.64 67.4501C1398.07 68.2477 1399.72 68.7058 1401.48 68.7058Z" fill="#819BA9"/>
<path d="M1391.52 58.7367C1391.52 59.6753 1391.66 60.5754 1391.9 61.4371L1414.64 60.7676C1414.78 60.1109 1414.85 59.4318 1414.85 58.7367V56.0907L1391.52 56.8499V58.7367Z" fill="#819BA9"/>
<path d="M1344.73 72.3968V60.5635C1344.73 53.4392 1338.96 47.6603 1331.84 47.6603H1327.42C1320.3 47.6603 1314.54 53.4392 1314.54 60.5635V72.3968C1314.54 79.5243 1320.3 85.3 1327.42 85.3H1331.84C1338.96 85.3 1344.73 79.5243 1344.73 72.3968ZM1302.62 72.3968V60.5635C1302.62 53.4392 1296.84 47.6603 1289.73 47.6603H1285.3C1278.19 47.6603 1272.41 53.4392 1272.41 60.5635V72.3968C1272.41 79.5243 1278.19 85.3 1285.3 85.3H1289.73C1296.84 85.3 1302.62 79.5243 1302.62 72.3968ZM1260.49 72.3968V60.5635C1260.49 53.4392 1254.72 47.6603 1247.6 47.6603H1243.18C1236.06 47.6603 1230.3 53.4392 1230.3 60.5635V72.3968C1230.3 79.5243 1236.06 85.3 1243.18 85.3H1247.6C1254.72 85.3 1260.49 79.5243 1260.49 72.3968ZM1205.48 85.3H1201.06C1193.95 85.3 1188.17 79.5243 1188.17 72.3968V60.5635C1188.17 53.4392 1193.95 47.6603 1201.06 47.6603H1205.48C1212.6 47.6603 1218.38 53.4392 1218.38 60.5635V72.3968C1218.38 79.5243 1212.6 85.3 1205.48 85.3Z" fill="#667F90"/>
<path d="M1215.62 80.3475C1217.3 78.2077 1218.32 75.5264 1218.36 72.6049L1188.22 73.3609C1188.43 76.1991 1189.55 78.7811 1191.3 80.812L1215.62 80.3475ZM1260.49 72.3967V71.5414L1230.29 72.3038V72.3967C1230.29 75.2541 1231.23 77.8841 1232.8 80.0208L1258.34 79.5339C1259.7 77.4901 1260.49 75.0395 1260.49 72.3967ZM1302.61 72.3967V70.4843L1272.41 71.2435V72.3967C1272.41 74.9114 1273.14 77.2467 1274.38 79.2296L1300.95 78.7234C1302.01 76.8526 1302.61 74.6999 1302.61 72.3967ZM1188.17 68.2003L1218.37 67.3129V63.3439L1188.17 64.3242V68.2003ZM1314.53 60.5634V64.4844L1344.73 63.597V60.5634C1344.73 60.1149 1344.71 59.6697 1344.66 59.2308L1314.55 60.211L1314.53 60.5634ZM1272.41 65.7241L1302.61 64.8367V60.5986L1272.41 61.5821V65.7241ZM1344.73 72.3967V69.424L1314.53 70.1832V72.3967C1314.53 74.5814 1315.08 76.6348 1316.03 78.4383L1343.48 77.9161C1344.27 76.2408 1344.73 74.3732 1344.73 72.3967ZM1230.29 62.9531L1260.49 61.9697V66.0732L1230.29 66.9606V62.9531Z" fill="#819BA9"/>
<path d="M998.434 178.752L1032.5 175.5C1062.51 175.5 1092.9 152.936 1092.9 121.091V57.6645C1092.9 25.8197 1068.58 0.00367737 1038.57 0.00367737H998.434C968.426 0.00367737 944.1 25.8197 944.1 57.6645V121.091C944.1 152.936 968.426 178.752 998.434 178.752Z" fill="#B5BFC6"/>
<path d="M1085 102.482H1092.89V95.6122H1085V102.482Z" fill="#CFA828"/>
<path d="M935.15 101.493V121.091C935.15 152.936 960.936 178.752 992.747 178.752H1035.3C1067.11 178.752 1092.9 152.936 1092.9 121.091V101.493H935.15Z" fill="#E15B5C"/>
<path d="M1085.62 121.091C1085.62 152.936 1061.3 178.752 1031.29 178.752H668.337C638.327 178.752 614 152.936 614 121.091V57.6644C614 25.8196 638.327 0.00352478 668.337 0.00352478H903.877H1031.29C1061.3 0.00352478 1085.62 25.8196 1085.62 57.6644V121.091Z" fill="#E7EBEE"/>
<path d="M1030.73 5.34058e-05H903.32H795.176H749.922H667.766C650.213 5.34058e-05 634.616 8.83818 624.682 22.5422H1073.81C1063.88 8.83818 1048.28 5.34058e-05 1030.73 5.34058e-05Z" fill="#FAF9F9"/>
<path d="M1085.62 95.6169H614.1V113.152H1085.62V95.6169Z" fill="#E1BA35"/>
<path d="M1085.63 121.091V101.493H663.482H614.1V110.949V121.091C614.1 152.936 637.955 178.752 667.965 178.752H1031.29C1061.3 178.752 1085.63 152.936 1085.63 121.091Z" fill="#EF6569"/>
<path d="M728.851 58.7369V49.5944C728.851 44.091 724.39 39.6255 718.892 39.6255H715.478C709.977 39.6255 705.52 44.091 705.52 49.5944V58.7369C705.52 64.2435 709.977 68.7058 715.478 68.7058H718.892C724.39 68.7058 728.851 64.2435 728.851 58.7369Z" fill="#667F90"/>
<path d="M694.6 95.848H693V43.2069C693 35.5604 699.214 29.3427 706.85 29.3427H727.352C734.987 29.3427 741.202 35.5604 741.202 43.2069V95.848H739.602V43.2069C739.602 36.4446 734.107 30.9444 727.352 30.9444H706.85C700.094 30.9444 694.6 36.4446 694.6 43.2069V95.848Z" fill="#A6B3BC"/>
<path d="M741.206 101.717H739.602V95.8481H741.206V101.717ZM694.6 101.717H693V95.8481H694.6V101.717Z" fill="#A09133"/>
<path d="M706.85 151.67H727.352C734.987 151.67 741.202 145.452 741.202 137.806V101.717H739.602V137.806C739.602 144.568 734.107 150.068 727.352 150.068H706.85C700.094 150.068 694.6 144.568 694.6 137.806V101.717H693V137.806C693 145.452 699.214 151.67 706.85 151.67Z" fill="#A85359"/>
<path d="M715.478 68.7058H718.892C720.882 68.7058 722.735 68.1132 724.291 67.1041L710.643 67.4501C712.073 68.2477 713.721 68.7058 715.478 68.7058Z" fill="#819BA9"/>
<path d="M705.52 58.7367C705.52 59.6753 705.657 60.5754 705.897 61.4371L728.643 60.7676C728.777 60.1109 728.851 59.4318 728.851 58.7367V56.0907L705.52 56.8499V58.7367Z" fill="#819BA9"/>
<path d="M1001.85 58.7369V49.5944C1001.85 44.091 997.39 39.6255 991.892 39.6255H988.478C982.977 39.6255 978.52 44.091 978.52 49.5944V58.7369C978.52 64.2435 982.977 68.7058 988.478 68.7058H991.892C997.39 68.7058 1001.85 64.2435 1001.85 58.7369Z" fill="#667F90"/>
<path d="M967.6 95.848H966V43.2069C966 35.5604 972.214 29.3427 979.85 29.3427H1000.35C1007.99 29.3427 1014.2 35.5604 1014.2 43.2069V95.848H1012.6V43.2069C1012.6 36.4446 1007.11 30.9444 1000.35 30.9444H979.85C973.094 30.9444 967.6 36.4446 967.6 43.2069V95.848Z" fill="#A6B3BC"/>
<path d="M1014.21 101.717H1012.6V95.8481H1014.21V101.717ZM967.6 101.717H966V95.8481H967.6V101.717Z" fill="#A09133"/>
<path d="M979.85 151.67H1000.35C1007.99 151.67 1014.2 145.452 1014.2 137.806V101.717H1012.6V137.806C1012.6 144.568 1007.11 150.068 1000.35 150.068H979.85C973.094 150.068 967.6 144.568 967.6 137.806V101.717H966V137.806C966 145.452 972.214 151.67 979.85 151.67Z" fill="#A85359"/>
<path d="M988.478 68.7058H991.892C993.882 68.7058 995.735 68.1132 997.291 67.1041L983.643 67.4501C985.073 68.2477 986.721 68.7058 988.478 68.7058Z" fill="#819BA9"/>
<path d="M978.52 58.7367C978.52 59.6753 978.657 60.5754 978.897 61.4371L1001.64 60.7676C1001.78 60.1109 1001.85 59.4318 1001.85 58.7367V56.0907L978.52 56.8499V58.7367Z" fill="#819BA9"/>
<path d="M931.734 72.3968V60.5635C931.734 53.4392 925.964 47.6603 918.844 47.6603H914.425C907.305 47.6603 901.535 53.4392 901.535 60.5635V72.3968C901.535 79.5243 907.305 85.3 914.425 85.3H918.844C925.964 85.3 931.734 79.5243 931.734 72.3968ZM889.615 72.3968V60.5635C889.615 53.4392 883.843 47.6603 876.726 47.6603H872.303C865.187 47.6603 859.414 53.4392 859.414 60.5635V72.3968C859.414 79.5243 865.187 85.3 872.303 85.3H876.726C883.843 85.3 889.615 79.5243 889.615 72.3968ZM847.494 72.3968V60.5635C847.494 53.4392 841.724 47.6603 834.604 47.6603H830.185C823.065 47.6603 817.295 53.4392 817.295 60.5635V72.3968C817.295 79.5243 823.065 85.3 830.185 85.3H834.604C841.724 85.3 847.494 79.5243 847.494 72.3968ZM792.483 85.3H788.063C780.947 85.3 775.174 79.5243 775.174 72.3968V60.5635C775.174 53.4392 780.947 47.6603 788.063 47.6603H792.483C799.603 47.6603 805.375 53.4392 805.375 60.5635V72.3968C805.375 79.5243 799.603 85.3 792.483 85.3Z" fill="#667F90"/>
<path d="M802.621 80.3475C804.298 78.2077 805.316 75.5264 805.361 72.6049L775.22 73.3609C775.431 76.1991 776.554 78.7811 778.301 80.812L802.621 80.3475ZM847.492 72.3967V71.5414L817.293 72.3038V72.3967C817.293 75.2541 818.231 77.8841 819.799 80.0208L845.338 79.5339C846.698 77.4901 847.492 75.0395 847.492 72.3967ZM889.613 72.3967V70.4843L859.412 71.2435V72.3967C859.412 74.9114 860.141 77.2467 861.383 79.2296L887.949 78.7234C889.005 76.8526 889.613 74.6999 889.613 72.3967ZM775.172 68.2003L805.373 67.3129V63.3439L775.172 64.3242V68.2003ZM901.533 60.5634V64.4844L931.732 63.597V60.5634C931.732 60.1149 931.709 59.6697 931.665 59.2308L901.549 60.211L901.533 60.5634ZM859.412 65.7241L889.613 64.8367V60.5986L859.412 61.5821V65.7241ZM931.732 72.3967V69.424L901.533 70.1832V72.3967C901.533 74.5814 902.077 76.6348 903.034 78.4383L930.481 77.9161C931.274 76.2408 931.732 74.3732 931.732 72.3967ZM817.293 62.9531L847.492 61.9697V66.0732L817.293 66.9606V62.9531Z" fill="#819BA9"/>
<path d="M648.771 178.978H861.684V0.229507H648.771V178.978Z" fill="#E7EBEE"/>
<path d="M861.684 0.229401H648.771V22.7716H861.684V0.229401Z" fill="#FAF9F9"/>
<path d="M648.771 127.189H861.684V95.8497H648.771V127.189Z" fill="#E1BA35"/>
<path d="M648.771 178.978H861.684V101.719H648.771V178.978Z" fill="#EF6569"/>
<path d="M605.596 178.978H648.143C679.954 178.978 705.743 153.162 705.743 121.317V57.8903C705.743 26.0455 679.954 0.229507 648.143 0.229507H605.596C573.785 0.229507 547.996 26.0455 547.996 57.8903V121.317C547.996 153.162 573.785 178.978 605.596 178.978Z" fill="#B5BFC6"/>
<path d="M697.854 101.719H705.745V95.8504H697.854V101.719Z" fill="#CFA828"/>
<path d="M547.996 101.719V121.317C547.996 153.162 573.782 178.978 605.593 178.978H648.143C679.954 178.978 705.743 153.162 705.743 121.317V101.719H547.996Z" fill="#E15B5C"/>
<path d="M754.808 58.7392V49.5967C754.808 44.0933 750.347 39.6278 744.849 39.6278H741.435C735.934 39.6278 731.477 44.0933 731.477 49.5967V58.7392C731.477 64.2458 735.934 68.7081 741.435 68.7081H744.849C750.347 68.7081 754.808 64.2458 754.808 58.7392Z" fill="#667F90"/>
<path d="M720.557 95.8503H718.957V43.2092C718.957 35.5628 725.171 29.345 732.807 29.345H753.309C760.944 29.345 767.159 35.5628 767.159 43.2092V95.8503H765.559V43.2092C765.559 36.4469 760.064 30.9467 753.309 30.9467H732.807C726.051 30.9467 720.557 36.4469 720.557 43.2092V95.8503Z" fill="#A6B3BC"/>
<path d="M767.163 101.719H765.559V95.8504H767.163V101.719ZM720.557 101.719H718.957V95.8504H720.557V101.719Z" fill="#A09133"/>
<path d="M732.807 151.672H753.309C760.944 151.672 767.159 145.455 767.159 137.808V101.719H765.559V137.808C765.559 144.57 760.064 150.071 753.309 150.071H732.807C726.051 150.071 720.557 144.57 720.557 137.808V101.719H718.957V137.808C718.957 145.455 725.171 151.672 732.807 151.672Z" fill="#A85359"/>
<path d="M741.435 68.7081H744.849C746.84 68.7081 748.692 68.1155 750.248 67.1064L736.6 67.4524C738.03 68.25 739.678 68.7081 741.435 68.7081Z" fill="#819BA9"/>
<path d="M731.477 58.739C731.477 59.6776 731.614 60.5777 731.854 61.4395L754.6 60.77C754.734 60.1133 754.808 59.4342 754.808 58.739V56.093L731.477 56.8522V58.739Z" fill="#819BA9"/>
<path d="M931.761 72.3968V60.5635C931.761 53.4392 925.992 47.6603 918.872 47.6603H914.452C907.332 47.6603 901.563 53.4392 901.563 60.5635V72.3968C901.563 79.5243 907.332 85.3 914.452 85.3H918.872C925.992 85.3 931.761 79.5243 931.761 72.3968ZM889.643 72.3968V60.5635C889.643 53.4392 883.87 47.6603 876.753 47.6603H872.331C865.214 47.6603 859.441 53.4392 859.441 60.5635V72.3968C859.441 79.5243 865.214 85.3 872.331 85.3H876.753C883.87 85.3 889.643 79.5243 889.643 72.3968ZM847.521 72.3968V60.5635C847.521 53.4392 841.752 47.6603 834.632 47.6603H830.212C823.092 47.6603 817.323 53.4392 817.323 60.5635V72.3968C817.323 79.5243 823.092 85.3 830.212 85.3H834.632C841.752 85.3 847.521 79.5243 847.521 72.3968ZM792.51 85.3H788.091C780.974 85.3 775.201 79.5243 775.201 72.3968V60.5635C775.201 53.4392 780.974 47.6603 788.091 47.6603H792.51C799.63 47.6603 805.403 53.4392 805.403 60.5635V72.3968C805.403 79.5243 799.63 85.3 792.51 85.3Z" fill="#667F90"/>
<path d="M802.649 80.3475C804.326 78.2077 805.343 75.5264 805.388 72.6049L775.247 73.3609C775.458 76.1991 776.582 78.7811 778.329 80.812L802.649 80.3475ZM847.519 72.3967V71.5414L817.321 72.3038V72.3967C817.321 75.2541 818.258 77.8841 819.826 80.0208L845.366 79.5339C846.726 77.4901 847.519 75.0395 847.519 72.3967ZM889.641 72.3967V70.4843L859.439 71.2435V72.3967C859.439 74.9114 860.169 77.2467 861.41 79.2296L887.977 78.7234C889.033 76.8526 889.641 74.6999 889.641 72.3967ZM775.199 68.2003L805.401 67.3129V63.3439L775.199 64.3242V68.2003ZM901.561 60.5634V64.4844L931.759 63.597V60.5634C931.759 60.1149 931.737 59.6697 931.692 59.2308L901.577 60.211L901.561 60.5634ZM859.439 65.7241L889.641 64.8367V60.5986L859.439 61.5821V65.7241ZM931.759 72.3967V69.424L901.561 70.1832V72.3967C901.561 74.5814 902.105 76.6348 903.062 78.4383L930.508 77.9161C931.302 76.2408 931.759 74.3732 931.759 72.3967ZM817.321 62.9531L847.519 61.9697V66.0732L817.321 66.9606V62.9531Z" fill="#819BA9"/>
<path d="M0.589112 147.691C0.589112 147.691 -2.80287 160.645 6.69153 166.536C26.9891 179.125 108.08 178.978 184.269 178.978H640.266C672.08 178.978 697.869 153.162 697.869 121.317V57.8902C697.869 26.0454 672.08 0.229401 640.266 0.229401H505.197C341.162 0.229401 0.589112 147.691 0.589112 147.691Z" fill="#E7EBEE"/>
<path d="M697.869 95.8505C575.219 95.8505 317.427 95.8505 295.549 95.8505C239.126 95.8505 141.533 152.182 0.00963833 152.4C-0.0991617 156.705 0.88964 162.936 6.69124 166.536C7.33444 166.933 8.03843 167.318 8.80003 167.693L221.683 142.508L316.627 113.386H697.869V95.8505Z" fill="#E1BA35"/>
<path d="M697.87 121.317V101.719C558.343 101.719 320.359 101.719 300.75 101.719C247.255 101.719 142.657 156.932 13.7706 156.932C9.16258 156.932 4.70177 156.932 0.359375 156.932C1.01857 160.395 2.73059 164.079 6.69219 166.536C26.9898 179.125 108.081 178.978 184.27 178.978H640.267C672.081 178.978 697.87 153.162 697.87 121.317Z" fill="#EF6569"/>
<path d="M606.343 72.3729V60.5396C606.343 53.4153 600.574 47.6364 593.454 47.6364H589.034C581.914 47.6364 576.145 53.4153 576.145 60.5396V72.3729C576.145 79.5004 581.914 85.2761 589.034 85.2761H593.454C600.574 85.2761 606.343 79.5004 606.343 72.3729ZM564.225 72.3729V60.5396C564.225 53.4153 558.452 47.6364 551.335 47.6364H546.913C539.796 47.6364 534.023 53.4153 534.023 60.5396V72.3729C534.023 79.5004 539.796 85.2761 546.913 85.2761H551.335C558.452 85.2761 564.225 79.5004 564.225 72.3729ZM522.103 72.3729V60.5396C522.103 53.4153 516.334 47.6364 509.214 47.6364H504.794C497.674 47.6364 491.905 53.4153 491.905 60.5396V72.3729C491.905 79.5004 497.674 85.2761 504.794 85.2761H509.214C516.334 85.2761 522.103 79.5004 522.103 72.3729ZM467.092 85.2761H462.673C455.556 85.2761 449.783 79.5004 449.783 72.3729V60.5396C449.783 53.4153 455.556 47.6364 462.673 47.6364H467.092C474.212 47.6364 479.985 53.4153 479.985 60.5396V72.3729C479.985 79.5004 474.212 85.2761 467.092 85.2761Z" fill="#667F90"/>
<path d="M640.267 0.229248C640.267 0.229248 538.968 0.229248 505.198 0.229248C487.425 0.229248 360.241 0.232452 342.58 0.229248C299.55 0.226044 270.359 7.38881 255.486 12.3252C234.487 19.2926 187.764 53.2964 164.916 65.6999C124.564 87.6046 0.589844 131.635 0.589844 147.69C149.195 147.69 246.785 64.4602 362.219 31.9908C410.481 18.418 564.091 22.7714 685.94 22.7714C675.409 9.06737 658.875 0.229248 640.267 0.229248Z" fill="#FAF9F9"/>
<path d="M658.212 58.7392V49.5967C658.212 44.0933 653.754 39.6278 648.254 39.6278H644.839C639.338 39.6278 634.881 44.0933 634.881 49.5967V58.7392C634.881 64.2458 639.338 68.7081 644.839 68.7081H648.254C653.754 68.7081 658.212 64.2458 658.212 58.7392Z" fill="#667F90"/>
<path d="M670.565 95.8503C670.037 95.8503 669.496 95.8503 668.965 95.8503V43.2092C668.965 36.4469 663.47 30.9467 656.715 30.9467H636.213C629.458 30.9467 623.963 36.4469 623.963 43.2092V95.8503C623.432 95.8503 622.898 95.8503 622.363 95.8503V43.2092C622.363 35.5628 628.578 29.345 636.213 29.345H656.715C664.354 29.345 670.565 35.5628 670.565 43.2092V95.8503Z" fill="#A6B3BC"/>
<path d="M670.565 101.719C670.034 101.719 669.499 101.719 668.965 101.719V95.8504C669.496 95.8504 670.037 95.8504 670.565 95.8504V101.719ZM623.963 101.719C623.435 101.719 622.891 101.719 622.363 101.719V95.8504C622.898 95.8504 623.432 95.8504 623.963 95.8504V101.719Z" fill="#A09133"/>
<path d="M656.715 151.672H636.213C628.578 151.672 622.363 145.455 622.363 137.808V101.719C622.891 101.719 623.435 101.719 623.963 101.719V137.808C623.963 144.57 629.458 150.071 636.213 150.071H656.715C663.47 150.071 668.965 144.57 668.965 137.808V101.719C669.499 101.719 670.034 101.719 670.565 101.719V137.808C670.565 145.455 664.354 151.672 656.715 151.672Z" fill="#A85359"/>
<path d="M422.18 58.7392V49.5967C422.18 44.0933 417.722 39.6278 412.224 39.6278H408.807C403.309 39.6278 398.852 44.0933 398.852 49.5967V58.7392C398.852 64.2458 403.309 68.7081 408.807 68.7081H412.224C417.722 68.7081 422.18 64.2458 422.18 58.7392Z" fill="#667F90"/>
<path d="M434.534 95.8503C433.999 95.8503 433.465 95.8503 432.934 95.8503V43.2092C432.934 36.4469 427.439 30.9467 420.684 30.9467H400.182C393.426 30.9467 387.932 36.4469 387.932 43.2092V95.8503C387.398 95.8503 386.86 95.8503 386.332 95.8503V43.2092C386.332 35.5628 392.546 29.345 400.182 29.345H420.684C428.319 29.345 434.534 35.5628 434.534 43.2092V95.8503Z" fill="#A6B3BC"/>
<path d="M434.534 101.719C433.999 101.719 433.465 101.719 432.934 101.719V95.8504C433.465 95.8504 433.999 95.8504 434.534 95.8504V101.719ZM387.932 101.719C387.401 101.719 386.857 101.719 386.332 101.719V95.8504C386.86 95.8504 387.398 95.8504 387.932 95.8504V101.719Z" fill="#A09133"/>
<path d="M420.684 151.672H400.182C392.546 151.672 386.332 145.455 386.332 137.808V101.719C386.857 101.719 387.401 101.719 387.932 101.719V137.808C387.932 144.57 393.426 150.071 400.182 150.071H420.684C427.439 150.071 432.934 144.57 432.934 137.808V101.719C433.465 101.719 433.999 101.719 434.534 101.719V137.808C434.534 145.455 428.319 151.672 420.684 151.672Z" fill="#A85359"/>
<path d="M349.76 68.7081V57.2464C349.76 52.9378 346.272 49.4462 341.971 49.4462H341.398C337.097 49.4462 333.609 52.9378 333.609 57.2464V68.7081C333.609 73.0166 337.097 76.5083 341.398 76.5083H341.971C346.272 76.5083 349.76 73.0166 349.76 68.7081Z" fill="#667F90"/>
<path d="M363.43 95.8503C362.954 95.8503 362.458 95.8503 361.981 95.8503V48.4692C361.981 42.3443 357.005 37.3631 350.887 37.3631H344.611C346.112 36.8698 347.607 36.3893 349.114 35.912H350.887C357.805 35.912 363.43 41.5467 363.43 48.4692V95.8503Z" fill="#A6B3BC"/>
<path d="M363.43 101.719C362.947 101.719 362.46 101.719 361.98 101.719V95.8504C362.457 95.8504 362.953 95.8504 363.43 95.8504V101.719Z" fill="#A09133"/>
<path d="M321.224 95.8503C320.737 95.8503 320.254 95.8503 319.777 95.8503V48.4692C319.777 47.678 319.851 46.8995 319.992 46.1467C320.533 45.9417 321.08 45.7303 321.621 45.5253C321.361 46.4639 321.224 47.4505 321.224 48.4692V95.8503Z" fill="#A6B3BC"/>
<path d="M321.224 101.719C320.737 101.719 320.251 101.719 319.777 101.719V95.8504C320.254 95.8504 320.737 95.8504 321.224 95.8504V101.719Z" fill="#A09133"/>
<path d="M350.888 146.707H332.321C325.403 146.707 319.777 141.073 319.777 134.15V101.719C320.251 101.719 320.737 101.719 321.224 101.719V134.15C321.224 140.275 326.203 145.256 332.321 145.256H350.888C357.006 145.256 361.982 140.275 361.982 134.15V101.719C362.462 101.719 362.949 101.719 363.432 101.719V134.15C363.432 141.073 357.806 146.707 350.888 146.707Z" fill="#A85359"/>
<path d="M319.992 46.1467C321.083 40.3294 326.197 35.9119 332.322 35.9119H349.115C347.608 36.3892 346.114 36.8697 344.613 37.363H332.322C327.221 37.363 322.914 40.8259 321.621 45.5253C321.08 45.7303 320.533 45.9417 319.992 46.1467Z" fill="#B1BAC3"/>
<path d="M238.078 56.2021C252.078 56.2021 273.608 55.9459 275.88 47.6363C278.459 38.212 263.707 20.004 246.507 20.004C243.563 20.004 241.169 20.004 239.019 20.004C221.505 29.6045 198.74 44.9807 180.855 56.2021C203.127 56.2021 228.785 56.2021 238.078 56.2021Z" fill="#667F90"/>
<path d="M401.629 65.6361C403.44 67.526 405.984 68.7081 408.806 68.7081H412.224C415.309 68.7081 418.064 67.3018 419.891 65.0947L401.629 65.6361ZM349.76 68.7081V67.1705L333.609 67.6478V68.7081C333.609 69.9895 333.923 71.1939 334.467 72.2607L349.142 71.7578C349.539 70.8224 349.76 69.7909 349.76 68.7081ZM658.211 57.7718V58.7392C658.211 59.9533 657.984 61.1097 657.587 62.186L635.747 62.7946C635.193 61.5549 634.88 60.1839 634.88 58.7392V58.4573L658.211 57.7718ZM477.232 80.3236C478.909 78.1837 479.926 75.5025 479.971 72.581L449.83 73.337C450.041 76.1752 451.165 78.7571 452.912 80.7881L477.232 80.3236ZM522.102 72.3728V71.5175L491.904 72.2799V72.3728C491.904 75.2302 492.841 77.8602 494.409 79.9969L519.949 79.5099C521.309 77.4662 522.102 75.0156 522.102 72.3728ZM564.224 72.3728V70.4604L534.022 71.2196V72.3728C534.022 74.8874 534.752 77.2227 535.993 79.2056L562.56 78.6995C563.616 76.8287 564.224 74.676 564.224 72.3728ZM449.782 68.1764L479.984 67.289V63.32L449.782 64.3003V68.1764ZM576.144 60.5395V64.4604L606.342 63.5731V60.5395C606.342 60.091 606.32 59.6457 606.275 59.2069L576.16 60.1871L576.144 60.5395ZM534.022 65.7001L564.224 64.8128V60.5747L534.022 61.5581V65.7001ZM606.342 72.3728V69.4L576.144 70.1592V72.3728C576.144 74.5575 576.688 76.6109 577.645 78.4144L605.091 77.8922C605.885 76.2168 606.342 74.3493 606.342 72.3728ZM491.904 62.9292L522.102 61.9458V66.0493L491.904 66.9366V62.9292Z" fill="#819BA9"/>
<path d="M210.838 56.2021C221.6 46.2653 241.888 28.983 258.749 23.0151C255.773 21.5416 252.55 20.5293 249.206 20.1641C229.369 29.1176 203.097 47.1718 189.725 56.2021C196.886 56.2021 204.128 56.2021 210.838 56.2021Z" fill="#819BA9"/>
</svg>
