<svg width="1041" height="113" viewBox="0 0 1041 113" fill="none" xmlns="http://www.w3.org/2000/svg">
<path d="M200.79 31.116C201.058 29.879 201.215 28.591 201.215 27.252C201.215 20.807 197.893 15.32 193.221 13.141C189.134 5.67396 181.903 0.708984 173.66 0.708984C161.831 0.708984 152.085 10.928 150.727 24.1C148.207 26.294 146.604 29.517 146.604 33.124C146.604 35.507 147.309 37.724 148.51 39.589C145.407 42.359 143.441 46.38 143.441 50.868C143.441 59.222 150.207 65.994 158.551 65.994L158.746 65.984C162.496 71.058 168.518 74.348 175.308 74.348C184.318 74.348 191.971 68.553 194.764 60.481C195.139 60.51 195.515 60.539 195.898 60.539C204.243 60.539 211.007 53.767 211.007 45.415C211.007 38.778 206.73 33.153 200.79 31.116Z" fill="#7BCC5C"/>
<path d="M192.757 48.9299C192.503 48.4809 191.933 48.3239 191.484 48.5769L176.932 56.8549L176.709 29.3119C176.701 28.2779 175.859 27.4409 174.824 27.4409C173.789 27.4409 172.948 28.2779 172.939 29.3119L172.777 49.3909L162.245 37.5739C161.901 37.1889 161.312 37.1539 160.927 37.4969C160.543 37.8399 160.509 38.4319 160.852 38.8169L172.754 52.1719L172.409 94.7119H177.239L176.95 58.9949L192.407 50.2009C192.855 49.9479 193.012 49.3779 192.757 48.9299Z" fill="#755B5A"/>
<path d="M192.879 112.997H168.844V96.042C168.844 93.61 170.811 91.644 173.237 91.644H188.485C190.911 91.644 192.879 93.61 192.879 96.042V112.997Z" fill="#9DABB6"/>
<path d="M180.861 112.997H156.826V96.042C156.826 93.61 158.794 91.644 161.22 91.644H176.467C178.894 91.644 180.861 93.61 180.861 96.042V112.997Z" fill="#C6D3D8"/>
<path d="M1040.21 47.0941C1040.21 43.5901 1038.63 40.4601 1036.15 38.3621C1037.77 36.7091 1038.77 34.4541 1038.77 31.9581C1038.77 26.9031 1034.67 22.8031 1029.62 22.8031C1029.08 22.8031 1028.56 22.8571 1028.05 22.9471C1028.41 21.6081 1028.62 20.2081 1028.62 18.7571C1028.62 9.83211 1021.39 2.59912 1012.48 2.59912C1004.43 2.59912 997.78 8.49312 996.55 16.1981C989.52 17.9881 984.3 24.3571 984.3 31.9581C984.3 34.6111 984.95 37.1091 986.07 39.3201C983.92 41.7571 982.6 44.9541 982.6 48.4651C982.6 54.8461 986.93 60.2021 992.8 61.7881C995.45 70.1041 1003.23 76.1301 1012.41 76.1301C1023.02 76.1301 1031.75 68.1021 1032.87 57.7871C1037.16 56.1281 1040.21 51.9731 1040.21 47.0941Z" fill="#7BCC5C"/>
<path d="M1028.52 48.9299C1028.27 48.4809 1027.7 48.3239 1027.25 48.5769L1012.7 56.8549L1012.47 29.3119C1012.47 28.2779 1011.62 27.4409 1010.59 27.4409C1009.55 27.4409 1008.71 28.2779 1008.7 29.3119L1008.54 49.3909L998.01 37.5739C997.67 37.1889 997.08 37.1539 996.69 37.4969C996.31 37.8399 996.27 38.4319 996.62 38.8169L1008.52 52.1719L1008.17 94.7119H1013L1012.72 58.9949L1028.17 50.2009C1028.62 49.9479 1028.78 49.3779 1028.52 48.9299Z" fill="#755B5A"/>
<path d="M1028.64 112.997H1004.61V96.042C1004.61 93.61 1006.57 91.644 1009 91.644H1024.25C1026.68 91.644 1028.64 93.61 1028.64 96.042V112.997Z" fill="#9DABB6"/>
<path d="M1016.63 112.997H992.59V96.042C992.59 93.61 994.56 91.644 996.98 91.644H1012.23C1014.66 91.644 1016.63 93.61 1016.63 96.042V112.997Z" fill="#C6D3D8"/>
<path d="M892.424 112.869H875.938V86.4062H892.424V112.869Z" fill="#8C99A5"/>
<path d="M957.822 112.869H941.336V86.4062H957.822V112.869Z" fill="#8C99A5"/>
<path d="M880.981 112.869H873.867V86.4062H880.981V112.869Z" fill="#9DABB6"/>
<path d="M946.383 112.869H939.266V86.4062H946.383V112.869Z" fill="#9DABB6"/>
<path d="M977.469 86.4062H960.104V80.8262H977.469C979.009 80.8262 980.26 82.0752 980.26 83.6162C980.26 85.1572 979.009 86.4062 977.469 86.4062Z" fill="#9DABB6"/>
<path d="M960.731 86.4062H859.518C857.979 86.4062 856.734 85.1572 856.734 83.6162C856.734 82.0752 857.979 80.8262 859.518 80.8262H960.731C962.267 80.8262 963.515 82.0752 963.515 83.6162C963.515 85.1572 962.267 86.4062 960.731 86.4062Z" fill="#C6D3D8"/>
<path d="M280.799 112.869H264.312V86.4062H280.799V112.869Z" fill="#8C99A5"/>
<path d="M346.199 112.869H329.713V86.4062H346.199V112.869Z" fill="#8C99A5"/>
<path d="M269.359 112.869H262.243V86.4062H269.359V112.869Z" fill="#9DABB6"/>
<path d="M334.76 112.869H327.644V86.4062H334.76V112.869Z" fill="#9DABB6"/>
<path d="M365.851 86.4062H348.481V80.8262H365.851C367.39 80.8262 368.638 82.0752 368.638 83.6162C368.638 85.1572 367.39 86.4062 365.851 86.4062Z" fill="#9DABB6"/>
<path d="M349.106 86.4062H247.897C246.358 86.4062 245.11 85.1572 245.11 83.6162C245.11 82.0752 246.358 80.8262 247.897 80.8262H349.106C350.645 80.8262 351.893 82.0752 351.893 83.6162C351.893 85.1572 350.645 86.4062 349.106 86.4062Z" fill="#C6D3D8"/>
<mask id="mask0" mask-type="alpha" maskUnits="userSpaceOnUse" x="0" y="58" width="195" height="55">
<rect y="58" width="195" height="55" fill="#C4C4C4"/>
</mask>
<g mask="url(#mask0)">
<path d="M147.162 112.731H141.064H138.664H134.833L129.683 107.577L127.283 105.175L118.302 96.1831L115.902 93.7801L106.92 84.7881L104.52 82.3861L104.102 81.9661L86.5 62L104.102 62.5571H104.52C105.126 62.3851 106.455 62.1443 106.92 62.5571H115.902C116.135 61.7428 116.943 60.6028 118.302 62.5571H124.741C125.594 62.5571 126.443 62.6051 127.283 62.6951C127.977 62.0122 129.429 61.1316 129.683 63.0731C132.912 63.7521 135.97 65.0911 138.664 67.0061C139.464 67.1422 141.064 67.7228 141.064 68.9571C141.294 69.1691 141.519 69.3871 141.742 69.6081L147.162 75.0341L187 112.731H147.162Z" fill="#5BC5BD" fill-opacity="0.62"/>
<path d="M83.8894 64.3641C82.0294 63.5981 80.0744 63.0661 78.0664 62.7871C79.1694 62.6371 80.2964 62.5571 81.4414 62.5571H83.8894V64.3641Z" fill="#63989C"/>
<path d="M208.818 136.757H158.832L134.833 112.731H184.819L208.818 136.757Z" fill="#5B8C91"/>
<path d="M56.8009 87.2228C56.8009 73.6018 67.8323 62.5568 81.441 62.5568H124.74C131.116 62.5568 137.232 65.0938 141.741 69.6068L348.452 276.543C352.961 281.056 359.076 283.59 365.454 283.59H388.382C401.988 283.59 413.022 294.636 413.022 308.256C413.022 321.879 401.988 332.922 388.382 332.922H335.112L114.285 111.892H81.441C67.8323 111.892 56.8009 100.847 56.8009 87.2228ZM52.9609 87.2228C52.9609 102.945 65.7373 115.733 81.441 115.733H112.695L333.521 336.766H388.382C404.084 336.766 416.862 323.978 416.862 308.256C416.862 292.537 404.084 279.749 388.382 279.749H365.454C360.056 279.749 354.984 277.644 351.169 273.826L144.456 66.8908C139.19 61.6178 132.188 58.7158 124.74 58.7158H81.441C65.7373 58.7158 52.9609 71.5038 52.9609 87.2228Z" fill="#405564"/>
<path d="M85.8975 103.134H113.532L334.337 324.164H383.925V332.922H323.47L102.671 111.892H85.8975V103.134Z" fill="#4F697C"/>
<path d="M81.0439 103.134H108.679L329.487 324.164H379.074V332.922H318.619L97.8189 111.892H81.0439V103.134Z" fill="#405564"/>
<path d="M49.865 111.892H31.4551C22.3402 111.892 18.7343 113.138 10.1175 99.5693C1.50068 86.0003 10.4301 74.3553 10.4301 74.3553C11.8551 72.0293 13.6538 69.9573 15.7437 68.2203L16.0003 67.0003L18.4413 66.2763C19.4602 65.6383 20.53 65.0753 21.6413 64.5913C22.3216 64.2133 23.9141 63.4573 24.8413 63.4573C25.8826 63.1693 26.9501 62.9443 28.0413 62.7943C28.8549 62.403 30.6341 61.8084 31.2413 62.5603C31.3127 62.5603 31.3824 62.5573 31.4551 62.5573H34.4413C35.3883 62.2431 37.3541 61.8032 37.6413 62.5573H40.8413C41.5883 62.4096 43.2741 62.2029 44.0413 62.5573H49.3188C61.0458 60.2049 86.3 58.3003 93.5 69.5003L138 113.5H49.865V112.5V111.892Z" fill="#5BC5BD" fill-opacity="0.62"/>
<path d="M82.793 130.401L79.021 126.624H112.537H82.793V130.401ZM71.273 118.872L65.1387 112.731H68.7236C70.822 113.785 73.07 114.586 75.422 115.092H71.273V118.872Z" fill="#5B8C91"/>
<path d="M158.831 136.757H147.121L123.121 112.731H134.832L158.831 136.757Z" fill="#68ACA6"/>
<path d="M6.81461 87.2229C6.81461 73.6019 17.846 62.5569 31.4533 62.5569H74.753C81.13 62.5569 87.246 65.0939 91.754 69.6069L298.465 276.543C302.974 281.056 309.089 283.59 315.467 283.59H338.395C352.004 283.59 363.035 294.636 363.035 308.259C363.035 321.879 352.004 332.922 338.395 332.922H285.125L64.2985 111.892H31.4533C17.846 111.892 6.81461 100.847 6.81461 87.2229ZM2.97461 87.2229C2.97461 102.945 15.7509 115.736 31.4546 115.736H62.7084L283.535 336.769H338.395C354.1 336.769 366.875 323.978 366.875 308.259C366.875 292.537 354.1 279.746 338.395 279.746H315.467C310.072 279.746 304.996 277.644 301.182 273.823L94.47 66.8909C89.203 61.6179 82.202 58.7129 74.753 58.7129H31.4546C15.7509 58.7129 2.97461 71.5039 2.97461 87.2229Z" fill="#405564"/>
<path d="M35.9111 103.131H63.546L284.352 324.164H333.941V332.922H273.485L52.6849 111.892H35.9111V103.131Z" fill="#4F697C"/>
<path d="M31.0576 103.131H58.6925L279.499 324.164H329.086V332.922H268.633L47.8327 111.892H31.0576V103.131Z" fill="#405564"/>
</g>
</svg>
