<svg width="160" height="54" viewBox="0 0 160 54" fill="none" xmlns="http://www.w3.org/2000/svg">
<path d="M159.569 51.0481C159.569 52.5119 124.287 53.6973 80.7659 53.6973C37.2451 53.6973 1.96387 52.5119 1.96387 51.0481C1.96387 49.5841 37.2451 48.3974 80.7659 48.3974C124.287 48.3974 159.569 49.5841 159.569 51.0481Z" fill="black" fill-opacity="0.3"/>
<path d="M82.5714 20.1174C82.3709 20.5347 81.8698 20.7108 81.4522 20.5094C81.035 20.3094 80.8589 19.8081 81.0594 19.3907L85.2011 10.7707C85.4022 10.3534 85.9031 10.1774 86.3209 10.3788C86.7381 10.5788 86.9142 11.0801 86.7137 11.4974L82.5714 20.1174Z" fill="#070000"/>
<path d="M76.4492 1.92415C76.4295 1.83481 76.3462 1.74548 76.203 1.65748C73.4134 -0.050519 44.6301 -3.59719 25.3145 10.9321C31.9759 9.88147 34.0159 8.24814 36.4639 12.3295C38.9123 13.3495 42.7878 14.7775 47.8883 14.3695C47.8883 6.13348 64.0904 1.60282 76.1342 4.17748L76.4492 1.92415Z" fill="#262626"/>
<path d="M4.44921 27.1281C3.81849 29.6201 2.60754 31.4628 1.74453 31.2441C0.880984 31.0254 0.692437 28.8281 1.32265 26.3361C1.95338 23.8441 3.16432 22.0014 4.02786 22.2201C4.89088 22.4388 5.07994 24.6361 4.44921 27.1281Z" fill="#D60606"/>
<path d="M37.4038 12.9215C38.2945 14.4162 37.8038 16.3495 36.309 17.2388C34.8148 18.1295 32.881 17.6388 31.9914 16.1442L30.3794 13.4375C29.4893 11.9428 29.98 10.0095 31.4748 9.12016C32.9696 8.22949 34.9024 8.72015 35.7924 10.2148L37.4038 12.9215Z" fill="#070000"/>
<path d="M65.0847 14.6546C65.9749 16.1493 65.4847 18.0826 63.9899 18.9733C62.4951 19.8626 60.5618 19.3733 59.6717 17.8786L58.0602 15.172C57.1702 13.676 57.6602 11.7426 59.155 10.8533C60.6498 9.96264 62.5831 10.4533 63.4733 11.948L65.0847 14.6546Z" fill="#070000"/>
<path d="M91.3326 16.8894C90.2883 18.2801 88.3139 18.5627 86.9222 17.5187C85.5306 16.4747 85.2483 14.5001 86.2926 13.1081L88.1826 10.5881C89.2269 9.19608 91.2014 8.91475 92.593 9.95875C93.9847 11.0027 94.2664 12.9774 93.2222 14.3694L91.3326 16.8894Z" fill="#070000"/>
<path d="M153.484 42.684C153.484 42.684 153.35 41.3306 153.208 39.096C154.004 37.9026 151.458 32.3506 149.82 29.1173C146.926 23.4026 128.23 14.5267 105.655 14.5267C95.635 8.91199 84.4897 3.54132 75.999 1.89332C75.5266 1.80132 72.8694 2.57731 76.8626 4.56931C83.8954 8.07598 98.5366 14.5213 87.0511 14.5213C46.4809 14.5213 37.9381 14.3533 36.7657 12.34C32.0194 5.62931 19.4881 13.784 13.587 16.0853C6.03706 19.0293 1.28654 20.3066 2.66935 24.3973C3.76674 27.6413 2.97195 29.0693 1.48758 29.5787C-0.17441 30.1493 -0.495757 40.1026 0.92351 41.3293C3.11622 43.2226 14.2829 45.332 18.4481 45.6947C24.9485 46.2613 88.5345 46.1453 109.071 45.5213C126.171 45.0026 162.198 45.4546 153.484 42.684Z" fill="#F4CC25"/>
<path d="M154.35 42.7066C154.087 42.6213 154.758 41.1266 153.431 40.3506C151.555 40.5533 149.996 40.5239 147.939 40.4946C145.807 40.4639 143.138 40.4319 139.024 40.6613C138.158 40.7093 135.892 38.8333 133.622 36.9559C131.354 35.0813 129.08 33.2053 128.194 33.2519C119.822 33.6826 112.03 42.7799 106.31 42.9493C104.413 43.0053 102.159 43.0573 99.623 43.1053C88.9485 43.3066 73.2772 43.4333 58.1918 43.4733C52.37 43.4893 44.0845 33.1399 38.758 33.1306C31.8241 33.1173 26.2074 35.6226 21.996 38.1279C17.7058 40.6799 14.8741 43.2319 13.5928 43.1226C9.36312 42.7599 13.911 37.2279 11.1012 36.5053C10.6361 36.3853 0.500098 34.9293 0.0876043 34.5013C-0.535836 43.1333 2.33187 43.8693 3.5178 44.1813C6.26468 44.9053 10.8757 45.6679 15.0105 46.0306C21.4642 46.5972 85.06 46.4813 105.648 45.8573C122.791 45.3373 162.834 45.4773 154.35 42.7066Z" fill="#191919"/>
<path d="M147.971 31.7882C149.204 33.9922 151.673 38.1762 152.205 38.1669C152.731 38.1576 153.095 38.1923 153.333 38.2603C152.985 35.7829 151.051 31.3616 149.885 29.3069C149.744 31.0163 147.971 31.7882 147.971 31.7882Z" fill="#191919"/>
<path d="M25.2319 24.2242C33.3606 24.2242 39.9502 30.8136 39.9502 38.9416C39.9502 39.4016 40.0419 42.4842 40.1387 46.1509C27.931 46.1189 18.1434 45.9842 14.8428 45.6949C13.2794 45.5576 11.8116 45.4082 10.4424 45.2349C10.4731 42.0949 10.5138 39.5256 10.5138 38.9416C10.5138 30.8136 17.1034 24.2242 25.2319 24.2242Z" fill="#191919"/>
<path d="M115.178 24.2238C123.306 24.2238 129.896 30.8132 129.896 38.9412C129.896 39.3492 129.928 42.1265 130.011 45.2332C122.206 45.4678 113.305 45.2852 105.481 45.5212C104.095 45.5638 102.376 45.6052 100.384 45.6465C100.415 42.3212 100.459 39.5505 100.459 38.9412C100.459 30.8132 107.049 24.2238 115.178 24.2238Z" fill="#191919"/>
<path d="M102.775 39.1789C102.775 46.1135 108.397 51.7349 115.331 51.7349C122.265 51.7349 127.886 46.1135 127.886 39.1789C127.886 32.2455 122.265 26.6242 115.331 26.6242C108.397 26.6242 102.775 32.2455 102.775 39.1789Z" fill="#070000"/>
<path d="M109.884 42.8039C112.489 45.4092 112.137 40.8346 114.742 38.2292C117.347 35.6239 121.923 35.9759 119.317 33.3706C116.713 30.7652 112.489 30.7652 109.884 33.3706C107.278 35.9759 107.278 40.1986 109.884 42.8039Z" fill="#F2A927"/>
<path d="M108.313 43.8934L111.699 41.4374L113.229 41.1948L112.985 42.7241L110.519 46.1268C109.652 45.5254 108.902 44.7694 108.313 43.8934ZM112.294 47.0628C112.106 46.9894 111.923 46.9108 111.742 46.8254L112.498 45.7828L112.294 47.0628ZM115.331 47.6334C114.754 47.6334 114.192 47.5748 113.649 47.4654L114.316 43.2761L115.226 42.0214L116.135 43.2761L116.808 47.4961C116.327 47.5814 115.836 47.6334 115.331 47.6334ZM118.764 46.9001C118.569 46.9868 118.37 47.0628 118.168 47.1348L117.953 45.7828L118.764 46.9001ZM120.003 46.2228L117.466 42.7241L117.222 41.1948L118.752 41.4374L122.276 43.9934C121.666 44.8721 120.894 45.6308 120.003 46.2228ZM122.294 34.3894L118.753 36.9574L117.222 37.2014L117.466 35.6708L120.021 32.1468C120.914 32.7441 121.685 33.5054 122.294 34.3894ZM118.174 31.2254C118.381 31.3001 118.585 31.3788 118.783 31.4681L117.953 32.6134L118.174 31.2254ZM115.331 30.7254C115.837 30.7254 116.331 30.7774 116.813 30.8628L116.135 35.1201L115.226 36.3748L114.316 35.1201L113.643 30.8948C114.188 30.7841 114.752 30.7254 115.331 30.7254ZM111.722 31.5428C111.907 31.4548 112.096 31.3734 112.289 31.2988L112.498 32.6134L111.722 31.5428ZM110.501 32.2455L112.985 35.6708L113.229 37.2014L111.699 36.9574L108.297 34.4908C108.885 33.6108 109.635 32.8508 110.501 32.2455ZM107.618 35.7281L108.641 36.4694L107.4 36.2721C107.468 36.0881 107.538 35.9068 107.618 35.7281ZM123.249 36.2414L121.811 36.4694L122.989 35.6161C123.084 35.8201 123.17 36.0281 123.249 36.2414ZM119.303 40.1068L118.049 39.1974L119.304 38.2881L123.632 37.5988C123.729 38.1108 123.785 38.6388 123.785 39.1788C123.785 39.7335 123.728 40.2721 123.626 40.7961L119.303 40.1068ZM122.976 42.7708L121.811 41.9254L123.237 42.1521C123.157 42.3628 123.071 42.5681 122.976 42.7708ZM107.03 40.7628C106.932 40.2494 106.876 39.7215 106.876 39.1788C106.876 38.6495 106.931 38.1334 107.024 37.6308L111.148 38.2881L112.402 39.1974L111.148 40.1068L107.03 40.7628ZM107.413 42.1214L108.641 41.9254L107.631 42.6574C107.552 42.4814 107.48 42.3028 107.413 42.1214ZM105.632 39.1788C105.632 44.5361 109.974 48.8774 115.331 48.8774C120.687 48.8774 125.029 44.5361 125.029 39.1788C125.029 33.8228 120.687 29.4814 115.331 29.4814C109.974 29.4814 105.632 33.8228 105.632 39.1788Z" fill="#F9EFF0"/>
<path d="M116.965 34.9976L117.353 32.5656L118.41 33.0043L116.965 34.9976ZM113.486 34.9976L112.04 33.0043L113.098 32.5656L113.486 34.9976ZM111.025 37.4576L108.594 37.0709L109.031 36.0123L111.025 37.4576ZM119.425 37.4589L121.419 36.0123L121.858 37.0709L119.425 37.4589ZM121.419 42.3829L119.426 40.9376L121.857 41.3256L121.419 42.3829ZM109.031 42.3843L108.594 41.3256L111.026 40.9376L109.031 42.3843ZM113.816 42.6029L114.192 40.2296L111.822 40.6083L113.766 39.1976L111.821 37.7883L114.192 38.1656L113.816 35.7936L115.226 37.7376L116.635 35.7936L116.257 38.1656L118.631 37.7869L116.684 39.1976L118.63 40.6083L116.257 40.2296L116.635 42.6029L115.226 40.6576L113.816 42.6029ZM117.352 45.8296L116.965 43.3976L118.411 45.3923L117.352 45.8296ZM113.098 45.8296L112.04 45.3923L113.486 43.3989L113.098 45.8296Z" fill="#999999"/>
<path d="M115.331 28.4056C108.881 28.4056 103.629 33.4656 103.289 39.8296C103.277 39.6136 103.256 39.3989 103.256 39.1789C103.256 32.5109 108.662 27.1043 115.331 27.1043C121.999 27.1043 127.405 32.5109 127.405 39.1789C127.405 39.3989 127.385 39.6136 127.373 39.8296C127.033 33.4656 121.78 28.4056 115.331 28.4056Z" fill="#262626"/>
<path d="M115.33 48.9242C120.549 48.9242 124.799 44.8295 125.074 39.6802C125.084 39.8549 125.101 40.0282 125.101 40.2055C125.101 45.6029 120.726 49.9775 115.33 49.9775C109.934 49.9775 105.559 45.6029 105.56 40.2055C105.56 40.0282 105.577 39.8549 105.586 39.6802C105.861 44.8295 110.112 48.9242 115.33 48.9242Z" fill="#262626"/>
<path d="M12.1367 39.1789C12.1367 46.1135 17.7582 51.7349 24.6921 51.7349C31.6263 51.7349 37.2478 46.1135 37.2478 39.1789C37.2478 32.2455 31.6263 26.6242 24.6921 26.6242C17.7582 26.6242 12.1367 32.2455 12.1367 39.1789Z" fill="#070000"/>
<path d="M19.2449 42.8039C21.8501 45.4092 21.498 40.8346 24.1032 38.2292C26.7085 35.6239 31.284 35.9759 28.6788 33.3706C26.0736 30.7652 21.8501 30.7652 19.2449 33.3706C16.6397 35.9759 16.6397 40.1986 19.2449 42.8039Z" fill="#F2A927"/>
<path d="M17.6749 43.8934L21.0613 41.4374L22.5911 41.1948L22.3473 42.7241L19.8807 46.1268C19.0145 45.5254 18.264 44.7694 17.6749 43.8934ZM21.6561 47.0628C21.4687 46.9894 21.2848 46.9108 21.104 46.8254L21.8603 45.7828L21.6561 47.0628ZM24.6927 47.6334C24.1165 47.6334 23.554 47.5748 23.0103 47.4654L23.678 43.2761L24.5879 42.0214L25.4973 43.2761L26.1703 47.4961C25.6895 47.5814 25.1979 47.6334 24.6927 47.6334ZM28.126 46.9001C27.9317 46.9868 27.7321 47.0628 27.5307 47.1348L27.3155 45.7828L28.126 46.9001ZM29.3651 46.2228L26.828 42.7241L26.5843 41.1948L28.1145 41.4374L31.6379 43.9934C31.0275 44.8721 30.2572 45.6308 29.3651 46.2228ZM31.6561 34.3894L28.1151 36.9574L26.5843 37.2014L26.828 35.6708L29.3832 32.1468C30.276 32.7441 31.0473 33.5054 31.6561 34.3894ZM27.5364 31.2254C27.7431 31.3001 27.9468 31.3788 28.1457 31.4681L27.3151 32.6134L27.5364 31.2254ZM24.6927 30.7254C25.1993 30.7254 25.6931 30.7774 26.1755 30.8628L25.4973 35.1201L24.5879 36.3748L23.678 35.1201L23.0045 30.8948C23.5504 30.7841 24.1145 30.7254 24.6927 30.7254ZM21.0843 31.5428C21.2697 31.4548 21.4583 31.3734 21.6504 31.2988L21.8603 32.6134L21.0843 31.5428ZM19.8635 32.2455L22.3473 35.6708L22.5911 37.2014L21.0608 36.9574L17.6593 34.4908C18.2468 33.6108 18.9968 32.8508 19.8635 32.2455ZM16.9801 35.7281L18.0031 36.4694L16.7624 36.2721C16.8301 36.0881 16.9004 35.9068 16.9801 35.7281ZM32.6113 36.2414L31.1733 36.4694L32.3509 35.6161C32.4463 35.8201 32.5327 36.0281 32.6113 36.2414ZM28.6655 40.1068L27.4113 39.1974L28.666 38.2881L32.9941 37.5988C33.0911 38.1108 33.1468 38.6388 33.1468 39.1788C33.1468 39.7335 33.09 40.2721 32.9884 40.7961L28.6655 40.1068ZM32.3379 42.7708L31.1728 41.9254L32.5988 42.1521C32.5197 42.3628 32.4332 42.5681 32.3379 42.7708ZM16.3921 40.7628C16.2941 40.2494 16.2384 39.7215 16.2384 39.1788C16.2384 38.6495 16.2931 38.1334 16.3864 37.6308L20.5097 38.2881L21.7645 39.1974L20.5103 40.1068L16.3921 40.7628ZM16.7749 42.1214L18.0031 41.9254L16.9931 42.6574C16.914 42.4814 16.8427 42.3028 16.7749 42.1214ZM14.9941 39.1788C14.9941 44.5361 19.3364 48.8774 24.6927 48.8774C30.0488 48.8774 34.3911 44.5361 34.3911 39.1788C34.3911 33.8228 30.0488 29.4814 24.6927 29.4814C19.3364 29.4814 14.9941 33.8228 14.9941 39.1788Z" fill="#F9EFF0"/>
<path d="M26.3274 34.9976L26.715 32.5656L27.7727 33.0043L26.3274 34.9976ZM22.8478 34.9976L21.4019 33.0043L22.4607 32.5656L22.8478 34.9976ZM20.3873 37.4576L17.9561 37.0709L18.3935 36.0123L20.3873 37.4576ZM28.7873 37.4589L30.7817 36.0123L31.2202 37.0709L28.7873 37.4589ZM30.7817 42.3829L28.7883 40.9376L31.2197 41.3256L30.7817 42.3829ZM18.3935 42.3843L17.9561 41.3256L20.3878 40.9376L18.3935 42.3843ZM23.1779 42.6029L23.5545 40.2296L21.1847 40.6083L23.1279 39.1976L21.1837 37.7883L23.5545 38.1656L23.1779 35.7936L24.5878 37.7376L25.9978 35.7936L25.6191 38.1656L27.9935 37.7869L26.0467 39.1976L27.9915 40.6083L25.6191 40.2296L25.9978 42.6029L24.5878 40.6576L23.1779 42.6029ZM26.7145 45.8296L26.3274 43.3976L27.7738 45.3923L26.7145 45.8296ZM22.4602 45.8296L21.4019 45.3923L22.8478 43.3989L22.4602 45.8296Z" fill="#999999"/>
<path d="M24.6927 28.4056C18.2436 28.4056 12.9906 33.4656 12.6504 39.8296C12.639 39.6136 12.6182 39.3989 12.6182 39.1789C12.6182 32.5109 18.0239 27.1043 24.6927 27.1043C31.3614 27.1043 36.7676 32.5109 36.7676 39.1789C36.7676 39.3989 36.7463 39.6136 36.7348 39.8296C36.3947 33.4656 31.1422 28.4056 24.6927 28.4056Z" fill="#262626"/>
<path d="M24.6918 48.9242C29.9105 48.9242 34.161 44.8295 34.4361 39.6802C34.4454 39.8549 34.4626 40.0282 34.4626 40.2055C34.4626 45.6029 30.0881 49.9775 24.6918 49.9775C19.296 49.9775 14.9209 45.6029 14.9209 40.2055C14.9209 40.0282 14.9381 39.8549 14.9476 39.6802C15.223 44.8295 19.4736 48.9242 24.6918 48.9242Z" fill="#262626"/>
<path d="M138.106 42.8081L140.689 40.1534C141.026 39.5828 141.754 39.3294 142.246 39.3094L152.94 38.9588C153.73 38.9588 153.758 42.4174 153.016 42.4174L138.106 42.8081Z" fill="#2B2B2B"/>
<path d="M76.0602 1.9641C86.1962 4.2721 96.2263 9.56143 104.72 14.5308L101.113 14.4801C89.6014 5.96143 74.9435 2.76543 76.0602 1.9641Z" fill="#80C2DC"/>
<path d="M62.3008 43.7041H94.0518C97.4305 43.7041 97.4623 39.3521 97.5065 33.3308C97.518 31.7468 97.53 30.1081 97.6018 28.3828C97.9518 19.9841 97.9383 18.4708 95.4372 14.2668L95.2882 14.3561C97.7644 18.5161 97.7768 20.0201 97.4284 28.3761C97.3565 30.1041 97.3445 31.7441 97.333 33.3294C97.2898 39.2521 97.2586 43.5308 94.0518 43.5308H62.3008C58.6383 43.5308 55.2279 40.7054 52.1639 35.1334C49.5029 30.2961 47.98 24.9188 47.5768 23.3854C46.8039 20.4508 46.9972 18.2054 48.1487 16.7108C49.1883 15.3628 51.0216 14.6508 53.4513 14.6508V14.4774C50.9659 14.4774 49.0852 15.2134 48.0117 16.6041C46.8253 18.1441 46.6221 20.4401 47.4087 23.4294C47.8139 24.9668 49.3415 30.3614 52.0117 35.2161C55.1087 40.8481 58.5705 43.7041 62.3008 43.7041Z" fill="#231F20"/>
<path d="M27.4993 22.3398C24.743 20.7905 20.5228 20.4452 17.3165 20.4452C14.752 20.4452 12.8369 20.6665 12.8369 20.6665C24.7582 18.8025 36.5421 17.6545 47.7364 17.0052C47.1629 17.9385 46.8988 19.1078 46.9452 20.5025C40.5254 20.9358 34.1312 21.5292 27.4993 22.3398ZM47.1181 20.4918C47.0723 19.0825 47.3493 17.9118 47.9488 16.9932C56.6217 16.4945 64.9384 16.2958 72.6931 16.2958C78.716 16.2958 84.4004 16.4158 89.6463 16.6092C90.1171 17.2812 90.8369 17.7798 91.704 17.9505C91.9869 18.0065 92.3186 18.0332 92.6796 18.0332C93.9697 18.0332 95.6233 17.6798 96.6608 16.9892C96.9853 17.7705 97.2088 18.5305 97.3545 19.3825C95.8212 19.3798 94.3103 19.3785 92.8223 19.3785C75.5629 19.3785 61.2733 19.5452 47.1181 20.4918ZM123.987 19.4278C118.2 19.4278 112.746 19.4158 107.567 19.4038C104.107 19.3958 100.763 19.3865 97.5327 19.3825C97.3853 18.5078 97.1583 17.7292 96.8249 16.9292C114.283 17.8438 125.354 19.4278 125.354 19.4278C124.896 19.4278 124.441 19.4278 123.987 19.4278Z" fill="#FAE692"/>
<path d="M46.9447 20.5029C46.8983 19.1083 47.1624 17.9389 47.7359 17.0056C47.8056 17.0016 47.8791 16.9976 47.9483 16.9936C47.3488 17.9123 47.0717 19.0829 47.1176 20.4923C47.0592 20.4963 47.0031 20.5003 46.9447 20.5029ZM97.5321 19.3829C97.4717 19.3829 97.4145 19.3829 97.354 19.3829C97.2083 18.5309 96.9848 17.7709 96.6603 16.9896C96.6921 16.9683 96.7228 16.9469 96.753 16.9256C96.7769 16.9269 96.8009 16.9283 96.8244 16.9296C97.1577 17.7296 97.3848 18.5083 97.5321 19.3829Z" fill="#918F90"/>
<path d="M100.445 36.6587C99.8662 29.1694 106.031 21.408 113.414 20.8973C114.141 20.8467 114.903 20.8133 115.687 20.8133C121.724 20.8133 129.053 22.76 131.828 33.608L128.892 33.0187C125.099 25.948 119.479 24.0574 114.949 24.0574C114.562 24.0574 114.182 24.0707 113.813 24.0973C106.43 24.608 101.397 30.6494 100.445 36.6587Z" fill="#FAE692"/>
<path d="M39.2605 32.3613L34.4512 26.4333L48.6126 27.3707C49.0944 28.7733 49.7085 30.4 50.4564 32.0733L39.2605 32.3613ZM50.6438 32.0693C49.8976 30.4053 49.2829 28.784 48.8001 27.3826L97.3632 30.5986C97.3616 30.6893 97.36 30.78 97.3585 30.8707L50.6438 32.0693ZM97.5318 30.8667C97.5334 30.7813 97.535 30.696 97.5365 30.6107L100.328 30.7947L97.5318 30.8667Z" fill="#FAE692"/>
<path d="M50.457 32.0732C49.7091 30.3999 49.095 28.7732 48.6133 27.3706L48.8007 27.3826C49.2835 28.7839 49.8982 30.4052 50.6445 32.0692L50.457 32.0732ZM97.3591 30.8706C97.3606 30.7799 97.3622 30.6892 97.3638 30.5986L97.5371 30.6106C97.5357 30.6959 97.5341 30.7812 97.5325 30.8666L97.3591 30.8706Z" fill="#918F90"/>
<path d="M136.24 38.8789L130.616 34.1776L150.659 37.8416L136.24 38.8789Z" fill="#FAE692"/>
<path d="M135.098 44.3281L130.005 43.2134L150.127 42.6841L149.62 43.1428L135.098 44.3281Z" fill="#8C8C8C"/>
<path d="M47.8779 20.9173C47.8779 21.4239 49.9181 21.8359 52.4342 21.8359C54.9503 21.8359 56.9899 21.4239 56.9899 20.9173C56.9899 20.4106 54.9503 19.9986 52.4342 19.9986C49.9181 19.9986 47.8779 20.4106 47.8779 20.9173Z" fill="#231F20"/>
<path d="M48.4248 20.72C48.4248 21.0574 50.22 21.332 52.4341 21.332C54.6481 21.332 56.4429 21.0574 56.4429 20.72C56.4429 20.3827 54.6481 20.1094 52.4341 20.1094C50.22 20.1094 48.4248 20.3827 48.4248 20.72Z" fill="#540C16"/>
<path d="M153.365 39.4268C153.321 39.3028 153.269 39.1974 153.209 39.1174C153.208 39.1107 153.208 39.1041 153.208 39.0961C153.248 39.0361 153.28 38.9641 153.302 38.8827C153.326 39.0614 153.348 39.2428 153.365 39.4268ZM149.82 29.1174C148.634 26.7787 144.805 23.9121 139.146 21.3401C145.162 23.9628 149.05 26.8641 149.82 29.1174Z" fill="white"/>
<path d="M75.5283 3.8999C73.6133 2.52657 75.2638 1.91591 75.8643 1.88657C75.2742 1.91591 73.7086 2.50924 75.6043 3.83991C75.5773 3.85991 75.5523 3.8799 75.5283 3.8999ZM75.8647 1.88657C75.8658 1.88657 75.8674 1.88657 75.8685 1.88657C75.8674 1.88657 75.8658 1.88657 75.8647 1.88657ZM75.869 1.88657C75.8699 1.88657 75.871 1.88657 75.8721 1.88657C75.871 1.88657 75.8699 1.88657 75.869 1.88657ZM75.9429 1.88657H75.9423H75.9429ZM75.8731 1.88657C75.8742 1.88657 75.8757 1.88657 75.8767 1.88657C75.8757 1.88657 75.8747 1.88657 75.8731 1.88657ZM75.9377 1.88657C75.9371 1.88657 75.9362 1.88657 75.9351 1.88657C75.9362 1.88657 75.9371 1.88657 75.9377 1.88657ZM75.8767 1.88657C75.8778 1.88657 75.8789 1.88657 75.8799 1.88657C75.8789 1.88657 75.8778 1.88657 75.8767 1.88657ZM75.9325 1.88657C75.931 1.88524 75.9299 1.88524 75.9283 1.88524C75.9299 1.88524 75.931 1.88524 75.9325 1.88657ZM75.8825 1.88524C75.883 1.88524 75.8841 1.88524 75.8846 1.88524C75.8841 1.88524 75.883 1.88524 75.8825 1.88524ZM75.8857 1.88524C75.8866 1.88524 75.8877 1.88524 75.8882 1.88524C75.8877 1.88524 75.8866 1.88524 75.8857 1.88524ZM75.9267 1.88524C75.9253 1.88524 75.9231 1.88524 75.9215 1.88524C75.9231 1.88524 75.9253 1.88524 75.9267 1.88524ZM75.8898 1.88524C75.8903 1.88524 75.8914 1.88524 75.8923 1.88524C75.8914 1.88524 75.8903 1.88524 75.8898 1.88524ZM75.8934 1.88524C75.8939 1.88524 75.895 1.88524 75.8955 1.88524C75.895 1.88524 75.8945 1.88524 75.8934 1.88524ZM75.921 1.88524C75.919 1.88524 75.9169 1.88524 75.9147 1.88524C75.9169 1.88524 75.919 1.88524 75.921 1.88524ZM75.8977 1.88524C75.8981 1.88524 75.8986 1.88524 75.8991 1.88524C75.8986 1.88524 75.8981 1.88524 75.8977 1.88524ZM75.9013 1.88524C75.9018 1.88524 75.9023 1.88524 75.9029 1.88524C75.9023 1.88524 75.9018 1.88524 75.9013 1.88524ZM75.9147 1.88524C75.9127 1.88524 75.9101 1.88524 75.9081 1.88524C75.9101 1.88524 75.9127 1.88524 75.9147 1.88524ZM75.9043 1.88524C75.9059 1.88524 75.907 1.88524 75.9081 1.88524C75.907 1.88524 75.9059 1.88524 75.9043 1.88524Z" fill="#939393"/>
<path d="M153.21 39.1172C153.133 39.0172 153.043 38.9585 152.941 38.9585L152.003 38.9892C150.513 36.1892 148.446 32.6492 147.717 31.5305C143.99 25.8145 135.057 18.2119 100.832 15.0239C91.563 9.8812 84.0838 4.97985 76.5364 3.56519C76.5155 3.56119 76.4895 3.55853 76.4598 3.55853C76.2578 3.55853 75.8707 3.65053 75.6051 3.83986C73.7094 2.5092 75.275 1.91586 75.8651 1.88652C75.8655 1.88652 75.8655 1.88652 75.8655 1.88652C75.8666 1.88652 75.8682 1.88652 75.8692 1.88652H75.8698C75.8707 1.88652 75.8718 1.88652 75.8728 1.88652C75.8734 1.88652 75.8739 1.88652 75.8739 1.88652C75.8755 1.88652 75.8764 1.88652 75.8775 1.88652C75.8786 1.88652 75.8796 1.88652 75.8807 1.88652C75.8818 1.88652 75.8822 1.88652 75.8832 1.88519C75.8838 1.88519 75.8848 1.88519 75.8854 1.88519C75.8859 1.88519 75.8864 1.88519 75.8864 1.88519C75.8874 1.88519 75.8884 1.88519 75.889 1.88519C75.8895 1.88519 75.89 1.88519 75.8906 1.88519C75.8911 1.88519 75.8922 1.88519 75.8931 1.88519C75.8936 1.88519 75.8936 1.88519 75.8942 1.88519C75.8952 1.88519 75.8958 1.88519 75.8963 1.88519C75.8968 1.88519 75.8979 1.88519 75.8984 1.88519C75.8988 1.88519 75.8994 1.88519 75.8999 1.88519C75.9004 1.88519 75.9015 1.88519 75.902 1.88519C75.9026 1.88519 75.9031 1.88519 75.9036 1.88519C75.904 1.88519 75.9046 1.88519 75.9051 1.88519C75.9067 1.88519 75.9078 1.88519 75.9088 1.88519C75.9108 1.88519 75.9135 1.88519 75.9155 1.88519C75.9176 1.88519 75.9198 1.88519 75.9218 1.88519C75.9218 1.88519 75.9218 1.88519 75.9223 1.88519C75.9239 1.88519 75.926 1.88519 75.9275 1.88519C75.928 1.88519 75.9286 1.88519 75.9291 1.88519C75.9307 1.88519 75.9318 1.88519 75.9332 1.88652C75.9343 1.88652 75.9348 1.88652 75.9359 1.88652C75.937 1.88652 75.9379 1.88652 75.9384 1.88652C75.94 1.88652 75.9416 1.88652 75.9431 1.88652H75.9436C75.9646 1.88786 75.9827 1.8892 75.9988 1.8932C80.2818 2.73853 85.1812 4.5612 90.228 6.8932C85.6302 4.81586 80.8572 3.05585 76.0603 1.96385C74.9436 2.76519 89.6015 5.96119 101.113 14.4799L104.72 14.5305C104.719 14.5292 104.717 14.5292 104.715 14.5279C118.5 14.6359 130.849 17.7212 139.147 21.3399C144.806 23.9119 148.635 26.7785 149.821 29.1172C149.842 29.1812 149.865 29.2465 149.887 29.3119C149.887 29.3092 149.886 29.3079 149.886 29.3065C149.745 31.0159 147.971 31.7879 147.971 31.7879C149.203 33.9892 151.669 38.1665 152.205 38.1665H152.206C152.262 38.1665 152.315 38.1652 152.367 38.1652C152.725 38.1652 152.999 38.1878 153.205 38.2292C153.242 38.4425 153.275 38.6599 153.303 38.8825C153.281 38.9639 153.249 39.0358 153.209 39.0958C153.209 39.1038 153.209 39.1105 153.21 39.1172Z" fill="#FAE692"/>
<path d="M153.204 38.2295C152.999 38.1882 152.724 38.1655 152.367 38.1655C152.315 38.1655 152.261 38.1668 152.205 38.1668H152.204C151.668 38.1668 149.203 33.9895 147.971 31.7882C147.971 31.7882 149.744 31.0162 149.885 29.3068C149.885 29.3082 149.887 29.3095 149.887 29.3122C150.816 31.9095 152.565 34.5122 153.204 38.2295Z" fill="#8C8C8C"/>
<path d="M153.43 41.8774C153.146 41.1961 152.624 40.1574 152.003 38.9894L152.94 38.9588C153.043 38.9588 153.132 39.0174 153.21 39.1174C153.27 39.1974 153.322 39.3028 153.366 39.4268C153.442 40.1948 153.467 41.0094 153.43 41.8774Z" fill="#959595"/>
<path d="M104.72 14.5308L101.113 14.4801C89.6014 5.96143 74.9435 2.76543 76.0602 1.9641C80.8571 3.0561 85.63 4.81611 90.2279 6.89344C95.0259 9.11211 99.9566 11.7908 104.615 14.5268C104.648 14.5281 104.682 14.5281 104.715 14.5281C104.717 14.5294 104.719 14.5294 104.72 14.5308Z" fill="#C0E1EE"/>
<path d="M38.4214 13.3052C37.9933 13.1852 37.6585 13.0545 37.3985 12.9105L37.2402 12.6438C37.2725 12.6572 37.3048 12.6705 37.3381 12.6825C37.549 12.9172 37.8938 13.1238 38.4214 13.3052Z" fill="white"/>
<path d="M37.3377 12.6826C37.3044 12.6706 37.2721 12.6573 37.2398 12.644L36.7852 11.8813C36.919 12.0519 37.0461 12.2346 37.1653 12.4306C37.2081 12.5186 37.2648 12.6026 37.3377 12.6826Z" fill="#939393"/>
<path d="M1.0459 29.9868C1.13861 29.8135 1.23183 29.7001 1.32194 29.6695H1.32246C1.22506 29.7428 1.13287 29.8495 1.0459 29.9868ZM1.71413 29.4922C2.71621 28.9135 3.23339 27.5428 2.96882 25.4242C3.54276 27.8028 2.89068 28.9842 1.71413 29.4922Z" fill="#EB8383"/>
<path d="M37.3985 12.9106C37.0891 12.7386 36.8875 12.5493 36.7657 12.34C35.7443 10.8973 34.3621 10.1413 32.7637 9.86663C34.3907 10.0053 35.7861 10.6066 36.7855 11.8813L37.2402 12.644L37.3985 12.9106Z" fill="#838080"/>
<path d="M88.3506 14.4883C88.6167 14.4536 88.8537 14.4096 89.0626 14.359C89.0599 14.3843 89.0574 14.4096 89.0552 14.4336C88.838 14.4563 88.6037 14.4749 88.3506 14.4883Z" fill="#838080"/>
<path d="M0.226487 34.5747C0.216073 34.5707 0.20618 34.5667 0.196807 34.5627C0.10722 33.4227 0.567113 30.888 1.04681 29.9867C1.13378 29.8494 1.22597 29.7427 1.32337 29.6694C1.46087 29.6214 1.59159 29.5627 1.71503 29.492C2.89159 28.984 3.54367 27.8027 2.96973 25.424C2.91399 24.9774 2.82337 24.4974 2.69525 23.984C1.67337 19.8947 6.61399 19.1187 14.225 16.176C18.5051 14.52 26.3802 9.8347 31.9874 9.8347C32.2515 9.8347 32.5108 9.84537 32.764 9.8667C34.3624 10.1414 35.7447 10.8974 36.766 12.34C36.8879 12.5494 37.0895 12.7387 37.3988 12.9107C37.6588 13.0547 37.9936 13.1854 38.4218 13.3054C41.8859 14.496 53.216 14.612 86.1072 14.612C87.0151 14.612 87.7567 14.5694 88.3515 14.488C88.6046 14.4747 88.839 14.456 89.0562 14.4334C89.0458 14.5627 89.0427 14.692 89.0474 14.82C88.4228 14.9894 87.5004 15.0867 86.2218 15.0974C67.1843 15.2427 56.5026 15.556 49.7332 15.556C49.6488 15.556 49.5646 15.556 49.4818 15.556C50.5083 14.96 51.8504 14.6507 53.452 14.6507V14.4774C51.6922 14.4774 50.2348 14.8454 49.1536 15.556C43.0848 15.5387 40.2687 15.24 37.166 14.276C35.1171 13.488 33.2094 13.1694 31.3931 13.1694C26.4999 13.1694 22.278 15.4814 17.7984 17.1414C9.76659 20.1174 4.79003 21.4454 4.85722 25.6307C4.91191 29.0374 3.65878 30.576 2.0041 31.144C1.57025 31.292 0.5593 33.2294 0.226487 34.5747Z" fill="#FAE692"/>
<path d="M0.205662 34.6616C0.202022 34.6296 0.198889 34.5976 0.196289 34.5629C0.205662 34.5669 0.215556 34.571 0.225969 34.575C0.219209 34.6043 0.211916 34.6336 0.205662 34.6616Z" fill="#8C8C8C"/>
<path d="M49.4815 15.5562C49.3709 15.5562 49.2616 15.5562 49.1533 15.5562C50.2345 14.8455 51.6919 14.4775 53.4517 14.4775V14.6508C51.8501 14.6508 50.508 14.9602 49.4815 15.5562Z" fill="#918F90"/>
<path d="M146.855 41.1308C147.368 40.5161 147.286 40.0175 146.671 40.0175H144.614C143.999 40.0175 143.084 40.5161 142.572 41.1308C142.059 41.7455 142.142 42.2441 142.756 42.2441H144.814C145.428 42.2441 146.343 41.7455 146.855 41.1308Z" fill="white"/>
<path d="M134.449 20.8668C137.069 17.5415 140.917 16.3695 140.917 16.3695C140.917 16.3695 141.792 20.6895 140.672 23.9761C138.752 24.0881 134.449 20.8668 134.449 20.8668Z" fill="#F9EFF0"/>
<path d="M134.449 20.8668C137.069 17.5415 140.917 16.3695 140.917 16.3695C140.917 16.3695 140.413 19.4135 140.672 23.9761C138.752 24.0881 134.449 20.8668 134.449 20.8668Z" fill="#F4CC25"/>
<path d="M97.6261 15.7349C97.272 17.5336 93.4913 18.3029 91.7037 17.9509C89.9162 17.5989 88.7542 15.855 89.1085 14.0576C89.4626 12.259 91.199 11.087 92.9866 11.439C94.7746 11.791 97.9809 13.9376 97.6261 15.7349Z" fill="#FFE161"/>
<path d="M93.0496 14.7109C92.7387 14.7109 92.4523 14.6869 92.2085 14.6389C91.2236 14.4456 90.4621 13.7629 90.1143 12.8909C90.6403 12.1176 91.5225 11.6336 92.4772 11.6336C92.6589 11.6336 92.8439 11.6509 93.0293 11.6869C94.06 11.8909 95.6313 12.7829 96.4793 13.8163C95.5783 14.4069 94.1589 14.7109 93.0496 14.7109Z" fill="#FFF0B0"/>
<path d="M67.832 42.8735C64.23 42.8735 60.7878 42.6175 57.7686 42.0015C56.6836 41.2455 55.6279 40.2095 54.6045 38.8975C60.9993 39.7535 69.6164 40.2855 77.7888 40.2855C85.315 40.2855 92.4639 39.8349 97.1612 38.7722C97.1602 38.7882 97.1587 38.8029 97.1571 38.8189C90.6363 40.6109 78.5336 42.8735 67.832 42.8735ZM57.3524 41.9135C53.8592 41.1509 50.9675 39.8869 49.1035 37.9535C50.5732 38.2842 52.3545 38.5909 54.3602 38.8642C55.3285 40.1269 56.3263 41.1429 57.3524 41.9135ZM97.3358 38.7695C97.3368 38.7575 97.3383 38.7442 97.3394 38.7322C97.7238 38.6429 98.0894 38.5495 98.4383 38.4522C98.0926 38.5549 97.7248 38.6615 97.3358 38.7695Z" fill="#FAE692"/>
<path d="M57.7678 42.0015C57.6276 41.9721 57.4896 41.9428 57.3516 41.9135C56.3255 41.1428 55.3276 40.1268 54.3594 38.8641C54.4412 38.8761 54.5208 38.8868 54.6036 38.8975C55.6271 40.2095 56.6828 41.2455 57.7678 42.0015ZM97.1563 38.8188C97.1579 38.8028 97.1594 38.7881 97.1604 38.7721C97.2198 38.7588 97.2803 38.7455 97.3386 38.7321C97.3375 38.7441 97.336 38.7575 97.335 38.7695C97.2766 38.7855 97.2156 38.8028 97.1563 38.8188Z" fill="#918F90"/>
<path d="M98.4375 38.4521C98.8818 38.3188 99.2891 38.1895 99.6568 38.0655C99.2803 38.2001 98.873 38.3295 98.4375 38.4521Z" fill="#FAE692"/>
<g filter="url(#filter0_d)">
<path d="M135.692 37.9077L141.815 26.2087C141.954 25.9438 141.757 25.6179 141.483 25.6592L137.41 26.2734L139.178 18.2192C139.211 18.0281 138.989 17.9186 138.883 18.0737L132.068 29.2768C131.893 29.5336 132.078 29.8988 132.367 29.8651L136.858 29.3406L135.386 37.7803C135.35 37.9839 135.598 38.087 135.692 37.9077Z" fill="#70AB13"/>
<path d="M133.951 28.6521C133.838 28.6621 133.764 28.5256 133.823 28.4195L139.12 18.0441C139.053 17.9853 138.947 17.9815 138.884 18.075L132.068 29.277C131.893 29.5338 132.078 29.899 132.367 29.8653L136.858 29.3408L135.386 37.7804C135.366 37.8943 135.435 37.9744 135.516 37.9935L138.038 29.1363C138.157 28.7211 137.858 28.3052 137.467 28.3399L133.951 28.6521Z" fill="#5A890F"/>
</g>
<defs>
<filter id="filter0_d" x="128" y="18" width="17.8605" height="28" filterUnits="userSpaceOnUse" color-interpolation-filters="sRGB">
<feFlood flood-opacity="0" result="BackgroundImageFix"/>
<feColorMatrix in="SourceAlpha" type="matrix" values="0 0 0 0 0 0 0 0 0 0 0 0 0 0 0 0 0 0 127 0"/>
<feOffset dy="4"/>
<feGaussianBlur stdDeviation="2"/>
<feColorMatrix type="matrix" values="0 0 0 0 0 0 0 0 0 0 0 0 0 0 0 0 0 0 0.25 0"/>
<feBlend mode="normal" in2="BackgroundImageFix" result="effect1_dropShadow"/>
<feBlend mode="normal" in="SourceGraphic" in2="effect1_dropShadow" result="shape"/>
</filter>
</defs>
</svg>
