<svg width="159" height="58" viewBox="0 0 159 58" fill="none" xmlns="http://www.w3.org/2000/svg">
<path d="M158.635 54.6975C158.635 56.1615 123.355 57.3481 79.8339 57.3481C36.3126 57.3481 1.03125 56.1615 1.03125 54.6975C1.03125 53.2348 36.3126 52.0482 79.8339 52.0482C123.355 52.0482 158.635 53.2348 158.635 54.6975Z" fill="black" fill-opacity="0.3"/>
<path d="M156.446 46.2882C155.941 46.1229 156.011 44.6709 156.054 42.4349C157.606 43.0523 155.479 31.3629 154.129 28.1202C153.01 25.4362 149.027 19.3429 110.934 18.1309C97.0821 9.99359 80.6007 -0.61975 62.3061 0.02825C35.2567 0.98825 25.1727 6.22161 18.0647 10.3523C10.8634 14.5376 8.15943 20.0576 7.72476 21.8163C4.9981 22.1403 3.01541 25.5283 2.53941 29.9056C1.65274 30.5403 1.81942 36.5803 1.81942 36.5803C-0.696576 36.5803 -0.0299174 43.7229 0.478083 45.0523C1.56875 47.9043 7.04075 48.4336 16.9101 49.2989C26.7807 50.1656 94.6567 49.6456 111.799 49.1256C128.942 48.6069 164.931 49.0589 156.446 46.2882" fill="#E3E3E3"/>
<path d="M27.3004 27.8282C35.4284 27.8282 42.0178 34.4176 42.0178 42.5456C42.0178 43.0056 42.1098 46.0882 42.2071 49.7549C29.9991 49.7229 20.2111 49.5882 16.9098 49.2989C15.3471 49.1616 13.8791 49.0122 12.5098 48.8389C12.5404 45.6989 12.5818 43.1296 12.5818 42.5456C12.5818 34.4176 19.1711 27.8282 27.3004 27.8282" fill="#191919"/>
<path d="M121.496 27.8283C129.624 27.8283 136.214 34.4176 136.214 42.5456C136.214 42.9536 136.246 45.731 136.33 48.8376C128.524 49.0723 119.623 48.8896 111.799 49.1256C110.414 49.1683 108.694 49.2096 106.703 49.251C106.734 45.9256 106.778 43.155 106.778 42.5456C106.778 34.4176 113.367 27.8283 121.496 27.8283Z" fill="#191919"/>
<path d="M109.094 42.7842C109.094 49.7175 114.715 55.3389 121.65 55.3389C128.583 55.3389 134.204 49.7175 134.204 42.7842C134.204 35.8495 128.583 30.2282 121.65 30.2282C114.715 30.2282 109.094 35.8495 109.094 42.7842Z" fill="#070000"/>
<path d="M114.631 47.4977L118.018 45.0417L119.549 44.799L119.304 46.3283L116.838 49.731C115.971 49.1297 115.22 48.3737 114.631 47.4977V47.4977ZM118.613 50.667C118.426 50.5937 118.242 50.515 118.061 50.4297L118.817 49.387L118.613 50.667ZM121.65 51.2377C121.074 51.2377 120.511 51.179 119.967 51.0697L120.635 46.8804L121.544 45.6257L122.454 46.8804L123.127 51.1003C122.646 51.1857 122.154 51.2377 121.65 51.2377V51.2377ZM125.083 50.5043C124.889 50.591 124.689 50.667 124.487 50.739L124.272 49.387L125.083 50.5043ZM126.322 49.827L123.785 46.3283L123.54 44.799L125.071 45.043L128.595 47.5977C127.984 48.4763 127.214 49.235 126.322 49.827V49.827ZM128.613 37.9937L125.071 40.5617L123.54 40.8057L123.785 39.275L126.34 35.751C127.232 36.3484 128.003 37.1097 128.613 37.9937V37.9937ZM124.493 34.8297C124.699 34.9043 124.903 34.983 125.103 35.0723L124.272 36.2177L124.493 34.8297ZM121.65 34.3297C122.157 34.3297 122.65 34.3817 123.132 34.467L122.454 38.7243L121.544 39.979L120.635 38.7243L119.962 34.499C120.507 34.3883 121.071 34.3297 121.65 34.3297V34.3297ZM118.04 35.147C118.226 35.059 118.415 34.9777 118.607 34.903L118.817 36.2177L118.04 35.147ZM116.821 35.8497L119.304 39.275L119.549 40.8057L118.018 40.5617L114.615 38.095C115.203 37.215 115.953 36.455 116.821 35.8497ZM113.936 39.3323L114.959 40.075L113.719 39.8764C113.786 39.6924 113.856 39.511 113.936 39.3323V39.3323ZM129.568 39.8457L128.13 40.0737L129.308 39.2203C129.403 39.4243 129.49 39.6324 129.568 39.8457ZM125.622 43.711L124.368 42.8017L125.623 41.8923L129.951 41.203C130.047 41.715 130.103 42.243 130.103 42.7844C130.103 43.3377 130.047 43.8763 129.946 44.4003L125.622 43.711ZM129.295 46.375L128.13 45.5297L129.555 45.7563C129.477 45.967 129.39 46.1723 129.295 46.375V46.375ZM113.349 44.3683C113.251 43.8537 113.195 43.3257 113.195 42.7844C113.195 42.2537 113.25 41.7377 113.343 41.235L117.466 41.8923L118.721 42.8017L117.467 43.711L113.349 44.3683ZM113.731 45.7257L114.959 45.5297L113.95 46.2617C113.87 46.0857 113.799 45.907 113.731 45.7257ZM111.951 42.7844C111.951 48.1404 116.293 52.4817 121.65 52.4817C127.006 52.4817 131.347 48.1404 131.347 42.7844C131.347 37.427 127.006 33.0857 121.65 33.0857C116.293 33.0857 111.951 37.427 111.951 42.7844Z" fill="#757575"/>
<path d="M123.285 38.6017L123.673 36.1711L124.73 36.6084L123.285 38.6017ZM119.805 38.6017L118.36 36.6084L119.418 36.1697L119.805 38.6017ZM117.344 41.0617L114.913 40.6751L115.35 39.6164L117.344 41.0617ZM125.745 41.0631L127.738 39.6164L128.177 40.6751L125.745 41.0631ZM127.738 45.987L125.745 44.5417L128.177 44.9297L127.738 45.987ZM115.35 45.9884L114.913 44.9297L117.345 44.5417L115.35 45.9884ZM120.136 46.2071L120.512 43.8337L118.141 44.2124L120.085 42.8017L118.141 41.3924L120.512 41.7697L120.136 39.3977L121.545 41.3417L122.954 39.3977L122.576 41.7697L124.95 41.391L123.004 42.8017L124.949 44.2124L122.576 43.8337L122.954 46.2071L121.545 44.2617L120.136 46.2071ZM123.672 49.4351L123.285 47.0017L124.73 48.9964L123.672 49.4351ZM119.417 49.4351L118.36 48.9964L119.805 47.0031L119.417 49.4351" fill="#999999"/>
<path d="M121.65 32.0096C115.201 32.0096 109.948 37.0696 109.608 43.4336C109.596 43.2176 109.574 43.0029 109.574 42.7843C109.574 36.1149 114.981 30.7083 121.65 30.7083C128.318 30.7083 133.725 36.1149 133.725 42.7843C133.725 43.0029 133.704 43.2176 133.692 43.4336C133.352 37.0696 128.1 32.0096 121.65 32.0096Z" fill="#262626"/>
<path d="M121.65 52.5282C126.868 52.5282 131.118 48.4335 131.394 43.2842C131.403 43.4589 131.42 43.6322 131.42 43.8109C131.42 49.2069 127.046 53.5815 121.65 53.5815C116.252 53.5815 111.879 49.2069 111.879 43.8109C111.879 43.6322 111.896 43.4589 111.906 43.2842C112.18 48.4335 116.431 52.5282 121.65 52.5282" fill="#262626"/>
<path d="M14.2041 42.7842C14.2041 49.7175 19.8255 55.3389 26.7601 55.3389C33.6948 55.3389 39.3161 49.7175 39.3161 42.7842C39.3161 35.8495 33.6948 30.2282 26.7601 30.2282C19.8255 30.2282 14.2041 35.8495 14.2041 42.7842Z" fill="#070000"/>
<path d="M19.7415 47.4977L23.1295 45.0417L24.6589 44.799L24.4149 46.3283L21.9482 49.731C21.0815 49.1297 20.3309 48.3737 19.7415 47.4977V47.4977ZM23.7242 50.667C23.5362 50.5937 23.3522 50.515 23.1709 50.4297L23.9269 49.387L23.7242 50.667ZM26.7602 51.2377C26.1842 51.2377 25.6215 51.179 25.0775 51.0697L25.7455 46.8804L26.6549 45.6257L27.5642 46.8804L28.2375 51.1003C27.7562 51.1857 27.2656 51.2377 26.7602 51.2377V51.2377ZM30.1936 50.5043C29.9989 50.591 29.8002 50.667 29.5975 50.739L29.3829 49.387L30.1936 50.5043ZM31.4322 49.827L28.8949 46.3283L28.6522 44.799L30.1815 45.043L33.7055 47.5977C33.0949 48.4763 32.3242 49.235 31.4322 49.827V49.827ZM33.7229 37.9937L30.1829 40.5617L28.6522 40.8057L28.8949 39.275L31.4509 35.751C32.3429 36.3484 33.1149 37.1097 33.7229 37.9937V37.9937ZM29.6042 34.8297C29.8109 34.9043 30.0149 34.983 30.2135 35.0723L29.3829 36.2177L29.6042 34.8297ZM26.7602 34.3297C27.2669 34.3297 27.7602 34.3817 28.2429 34.467L27.5642 38.7243L26.6549 39.979L25.7455 38.7243L25.0722 34.499C25.6175 34.3883 26.1816 34.3297 26.7602 34.3297V34.3297ZM23.1522 35.147C23.3375 35.059 23.5255 34.9777 23.7175 34.903L23.9269 36.2177L23.1522 35.147ZM21.9309 35.8497L24.4149 39.275L24.6589 40.8057L23.1282 40.5617L19.7269 38.095C20.3136 37.215 21.0642 36.455 21.9309 35.8497ZM19.0469 39.3323L20.0695 40.075L18.8295 39.8764C18.8975 39.6924 18.9682 39.511 19.0469 39.3323V39.3323ZM34.6789 39.8457L33.2402 40.0737L34.4189 39.2203C34.5135 39.4243 34.6002 39.6324 34.6789 39.8457ZM30.7335 43.711L29.4789 42.8017L30.7335 41.8923L35.0615 41.203C35.1589 41.715 35.2149 42.243 35.2149 42.7844C35.2149 43.3377 35.1575 43.8763 35.0562 44.4003L30.7335 43.711ZM34.4055 46.375L33.2402 45.5297L34.6669 45.7563C34.5869 45.967 34.5002 46.1723 34.4055 46.375V46.375ZM18.4589 44.3683C18.3616 43.8537 18.3055 43.3257 18.3055 42.7844C18.3055 42.2537 18.3602 41.7377 18.4535 41.235L22.5775 41.8923L23.8322 42.8017L22.5775 43.711L18.4589 44.3683ZM18.8429 45.7257L20.0709 45.5297L19.0602 46.2617C18.9816 46.0857 18.9095 45.907 18.8429 45.7257ZM17.0615 42.7844C17.0615 48.1404 21.4042 52.4817 26.7602 52.4817C32.1162 52.4817 36.4589 48.1404 36.4589 42.7844C36.4589 37.427 32.1162 33.0857 26.7602 33.0857C21.4042 33.0857 17.0615 37.427 17.0615 42.7844Z" fill="#757575"/>
<path d="M28.3954 38.6017L28.7834 36.1711L29.8408 36.6084L28.3954 38.6017ZM24.9154 38.6017L23.4701 36.6084L24.5287 36.1697L24.9154 38.6017ZM22.4554 41.0617L20.0234 40.6751L20.4621 39.6164L22.4554 41.0617ZM30.8554 41.0631L32.8501 39.6164L33.2888 40.6751L30.8554 41.0631ZM32.8501 45.987L30.8568 44.5417L33.2874 44.9297L32.8501 45.987ZM20.4621 45.9884L20.0234 44.9297L22.4554 44.5417L20.4621 45.9884ZM25.2461 46.2071L25.6221 43.8337L23.2528 44.2124L25.1954 42.8017L23.2514 41.3924L25.6221 41.7697L25.2461 39.3977L26.6554 41.3417L28.0661 39.3977L27.6874 41.7697L30.0608 41.391L28.1141 42.8017L30.0594 44.2124L27.6874 43.8337L28.0661 46.2071L26.6554 44.2617L25.2461 46.2071ZM28.7821 49.4351L28.3954 47.0017L29.8421 48.9964L28.7821 49.4351ZM24.5287 49.4351L23.4701 48.9964L24.9154 47.0031L24.5287 49.4351Z" fill="#999999"/>
<path d="M26.7602 32.0096C20.3109 32.0096 15.0575 37.0696 14.7175 43.4336C14.7069 43.2176 14.6855 43.0029 14.6855 42.7843C14.6855 36.1149 20.0909 30.7083 26.7602 30.7083C33.4296 30.7083 38.8349 36.1149 38.8349 42.7843C38.8349 43.0029 38.8135 43.2176 38.8015 43.4336C38.4629 37.0696 33.2096 32.0096 26.7602 32.0096Z" fill="#262626"/>
<path d="M26.7609 52.5282C31.9796 52.5282 36.2302 48.4335 36.5049 43.2842C36.5142 43.4589 36.5315 43.6322 36.5315 43.8109C36.5315 49.2069 32.1569 53.5815 26.7609 53.5815C21.3649 53.5815 16.9902 49.2069 16.9902 43.8109C16.9902 43.6322 17.0076 43.4589 17.0169 43.2842C17.2916 48.4335 21.5422 52.5282 26.7609 52.5282" fill="#262626"/>
<path d="M151.62 33.8509C150.52 28.8509 146.204 26.4202 138.424 26.4202C136.255 26.4202 134.112 26.6002 132.391 26.7455L131.871 26.7895L131.835 27.1282C136.223 28.4775 139.671 33.7562 139.704 33.8095L139.758 33.8909L139.855 33.8882C139.874 33.8882 141.784 33.8455 144.158 33.8455C146.347 33.8455 149.386 33.8829 151.436 34.0615L151.671 34.0815L151.62 33.8509Z" fill="#191919"/>
<path d="M151.452 33.8882C147.47 33.5415 139.851 33.7149 139.851 33.7149C139.851 33.7149 136.387 28.3469 131.886 26.9629C138.119 26.4429 149.547 25.2309 151.452 33.8882Z" fill="white"/>
<path d="M143.946 33.6722C141.714 31.2895 139.408 28.9655 137.142 26.6175C138.05 26.5909 138.976 26.5855 139.904 26.6255C142.455 28.8442 144.879 31.2068 147.164 33.6975C146.066 33.6775 144.956 33.6709 143.946 33.6722" fill="#C3EAE8"/>
<path d="M141.516 26.7375C146.11 27.1975 150.357 28.9095 151.453 33.8882C150.6 33.8149 149.58 33.7642 148.504 33.7309C146.298 31.2775 143.97 28.9375 141.516 26.7375" fill="#C3EAE8"/>
<path d="M151.03 32.6362L151.08 32.6415C151.226 33.0349 151.355 33.4455 151.452 33.8882C147.47 33.5415 139.851 33.7149 139.851 33.7149C139.851 33.7149 136.387 28.3469 131.886 26.9629C132.864 26.8802 133.971 26.7815 135.15 26.7069C139.983 29.6735 145.456 31.5455 151.03 32.6362" fill="#FFF48D"/>
<path d="M146.286 42.435H156.054C156.186 43.719 156.304 45.0057 156.446 46.2883L144.592 46.7764C144.1 46.7977 143.975 46.351 144.312 45.7804L146.286 42.435Z" fill="#2B2B2B"/>
<path d="M31.5775 18.4202C29.6055 18.4202 27.4055 18.4189 27.3401 18.4189C19.9801 18.4189 21.1961 3.8655 63.6415 2.02017C77.1308 1.4335 100.045 16.4895 102.271 17.7522L102.26 17.9469L31.5775 18.4202Z" fill="#757575"/>
<path d="M27.3409 17.8815C25.6022 17.8815 24.4595 17.0068 24.4302 15.6495C24.3609 12.4855 31.2769 3.96545 63.6662 2.55612C63.9155 2.54545 64.1689 2.54014 64.4236 2.54014C72.4156 2.54014 84.6182 7.54682 100.689 17.4188L31.5742 17.8828H31.5769L27.3409 17.8815" fill="#2B2B2B"/>
<path d="M93.8409 13.3815C81.1209 6.19218 71.2369 2.54017 64.4236 2.54017C64.1689 2.54017 63.9156 2.54548 63.6662 2.55615C61.8222 2.63615 60.0729 2.74149 58.3916 2.86549C60.4556 7.83616 62.9023 12.6468 64.8516 17.6602L92.3689 17.4748C92.8729 16.1148 93.3676 14.7522 93.8409 13.3815" fill="#80C2DC"/>
<path d="M33.7793 17.8682L63.2926 17.6708C61.3193 12.7082 58.8846 7.93348 56.8619 2.98815C44.4446 4.02682 36.5366 6.22149 31.6406 8.56416C32.3166 11.6735 33.05 14.7708 33.7793 17.8682" fill="#80C2DC"/>
<path d="M76.8765 1.73901C87.0125 4.04701 102.544 13.1657 111.039 18.135L107.431 18.0844C95.9205 9.56569 75.7605 2.54035 76.8765 1.73901" fill="#80C2DC"/>
<path d="M102.283 17.871L102.168 17.9603C104.083 22.1203 104.093 23.6244 103.823 31.9804C103.769 33.7084 103.759 35.3483 103.75 36.9337C103.717 42.8563 103.693 47.135 101.211 47.135H76.0285C73.1952 47.135 70.5565 44.3097 68.1872 38.7377C66.1285 33.9003 64.9498 28.523 64.6378 26.9897C64.0952 24.3217 63.4685 20.0763 64.0285 18.2017H63.8885C63.3552 20.1617 63.9645 24.3603 64.5085 27.0337C64.8218 28.571 66.0032 33.9657 68.0698 38.8203C70.4645 44.4523 73.1432 47.3083 76.0285 47.3083H101.211C103.826 47.3083 103.85 42.9563 103.883 36.935C103.893 35.351 103.902 33.7123 103.958 31.987C104.229 23.5883 104.218 22.075 102.283 17.871" fill="#231F20"/>
<path d="M8.25241 21.7684L20.8924 26.6164L13.2737 31.4644L2.53906 29.9057C2.53906 29.9057 3.05774 21.9404 8.25241 21.7684Z" fill="#BE5041"/>
<path d="M6.08086 27.2882C5.06219 27.2562 4.04618 27.2336 3.03418 27.1696C3.56351 25.2496 4.63285 22.8869 6.76885 22.0656C8.49018 23.8896 10.1515 25.7829 11.7102 27.7549C9.83686 27.5602 7.95819 27.3495 6.08086 27.2882" fill="#711814"/>
<path d="M6.53506 28.2737C8.53506 28.3884 10.5324 28.611 12.5271 28.8097C13.0617 29.5124 13.5831 30.2244 14.0871 30.947L13.2737 31.4644L2.53906 29.9057C2.53906 29.9057 2.5884 29.1564 2.80573 28.1124C4.04306 28.1897 5.28706 28.203 6.53506 28.2737" fill="#D77C7B"/>
<path d="M19.3353 26.2697L7.72461 21.8163C7.89528 21.7923 8.06994 21.7737 8.2526 21.7683L20.8926 26.6163L13.9833 31.0137L19.3353 26.2697Z" fill="#1C171D"/>
<path d="M29.5672 25.9443C19.0152 23.6617 20.1899 22.739 11.2979 22.0683C30.4325 20.0083 48.0779 19.1097 63.7525 18.9163C63.5912 20.2163 63.7258 22.051 63.9645 23.8257C50.8698 24.1897 38.5859 24.8417 29.5672 25.9443ZM139.138 23.9137C139.138 23.9137 123.829 23.5137 103.955 23.4323C103.839 22.303 103.633 21.3523 103.298 20.3536C103.445 20.227 103.573 20.0923 103.675 19.947C126.117 21.427 139.138 23.9137 139.138 23.9137V23.9137ZM64.0978 23.8216C63.8538 22.039 63.7152 20.1923 63.8832 18.915C66.0885 18.8883 68.2565 18.875 70.3832 18.875C79.5685 18.875 88.0019 19.1123 95.5779 19.483C95.9699 20.515 96.8645 21.327 98.0232 21.555C98.3045 21.611 98.6378 21.6377 98.9978 21.6377C100.375 21.6377 102.169 21.235 103.182 20.4483C103.503 21.415 103.703 22.339 103.819 23.431C101.586 23.4217 99.2992 23.4177 96.9672 23.4177C86.4005 23.4177 74.9765 23.5203 64.0978 23.8216" fill="#F1F1F1"/>
<path d="M63.9651 23.8257C63.7264 22.051 63.5918 20.2164 63.7531 18.9164C63.7984 18.9164 63.8384 18.915 63.8838 18.915C63.7158 20.1924 63.8544 22.039 64.0984 23.8217C64.0544 23.823 64.0091 23.8244 63.9651 23.8257ZM103.956 23.4324C103.913 23.4324 103.862 23.431 103.82 23.431C103.704 22.339 103.504 21.415 103.182 20.4484C103.222 20.4177 103.261 20.3857 103.298 20.3537C103.633 21.3523 103.84 22.303 103.956 23.4324" fill="#918F90"/>
<path d="M142.771 40.3257L136.387 39.083C132.683 29.1617 126.524 27.635 121.903 27.635C121.282 27.635 120.688 27.663 120.131 27.7004C112.748 28.2124 107.716 34.2537 106.764 40.263C106.186 32.7737 112.528 25.5804 119.911 25.0684C120.282 25.043 120.672 25.0297 121.08 25.0297C127.667 25.0297 138.928 28.5057 142.771 40.3257" fill="#F1F1F1"/>
<path d="M60.7194 43.8096L42.5381 38.9096L68.9021 40.6429C69.4674 41.7922 70.0474 42.7922 70.6408 43.6456L60.7194 43.8096ZM70.8194 43.6429C70.2208 42.7989 69.6367 41.8015 69.0661 40.6549L103.571 42.9229C103.566 42.9829 103.561 43.0429 103.554 43.1016L70.8194 43.6429V43.6429ZM103.69 43.1002C103.695 43.0442 103.701 42.9882 103.706 42.9322L105.739 43.0656L103.69 43.1002Z" fill="#F1F1F1"/>
<path d="M70.641 43.6455C70.0477 42.7922 69.4677 41.7922 68.9023 40.6428L69.0663 40.6548C69.637 41.8015 70.221 42.7988 70.8197 43.6428L70.641 43.6455ZM103.554 43.1015C103.561 43.0428 103.566 42.9828 103.572 42.9228L103.706 42.9322C103.701 42.9882 103.696 43.0442 103.69 43.1002L103.554 43.1015" fill="#918F90"/>
<path d="M136.653 42.9082L136.33 40.0069L146.258 41.9695L136.653 42.9082" fill="#F1F1F1"/>
<path d="M141.409 48.0869L136.323 46.8176L144.191 46.6109C144.262 46.7163 144.387 46.7776 144.561 46.7776C144.571 46.7776 144.582 46.7776 144.593 46.7763L156.446 46.2882L157.531 46.7709L141.409 48.0869" fill="#F1F1F1"/>
<path d="M144.561 46.7776C144.387 46.7776 144.262 46.7163 144.191 46.6109L156.446 46.2882L144.593 46.7763C144.582 46.7776 144.571 46.7776 144.561 46.7776Z" fill="#959595"/>
<path d="M147.761 42.323L145.343 41.499L155.768 41.5137L156.492 42.0377L147.761 42.323Z" fill="#F1F1F1"/>
<path d="M66.0381 22.0669C66.0381 22.5509 67.6434 22.9429 69.6234 22.9429C71.6034 22.9429 73.2088 22.5509 73.2088 22.0669C73.2088 21.5842 71.6034 21.1922 69.6234 21.1922C67.6434 21.1922 66.0381 21.5842 66.0381 22.0669Z" fill="#231F20"/>
<path d="M66.4688 21.8804C66.4688 22.2017 67.8808 22.4617 69.6234 22.4617C71.3648 22.4617 72.7781 22.2017 72.7781 21.8804C72.7781 21.5577 71.3648 21.2977 69.6234 21.2977C67.8808 21.2977 66.4688 21.5577 66.4688 21.8804Z" fill="#757575"/>
<path d="M31.7754 22.0669C31.7754 22.5509 33.3807 22.9429 35.3607 22.9429C37.3407 22.9429 38.9461 22.5509 38.9461 22.0669C38.9461 21.5842 37.3407 21.1922 35.3607 21.1922C33.3807 21.1922 31.7754 21.5842 31.7754 22.0669Z" fill="#231F20"/>
<path d="M32.2061 21.8804C32.2061 22.2017 33.6194 22.4617 35.3607 22.4617C37.1034 22.4617 38.5167 22.2017 38.5167 21.8804C38.5167 21.5577 37.1034 21.2977 35.3607 21.2977C33.6194 21.2977 32.2061 21.5577 32.2061 21.8804Z" fill="#757575"/>
<path d="M103.944 19.339C103.591 21.1376 99.8096 21.907 98.023 21.555C96.235 21.203 95.0723 19.459 95.427 17.6616C95.7816 15.863 97.5176 14.691 99.3056 15.043C101.092 15.395 104.299 17.5416 103.944 19.339" fill="#200000"/>
<path d="M99.3683 18.3149C99.0576 18.3149 98.7709 18.2909 98.5283 18.2429C97.5429 18.0496 96.7816 17.3669 96.4336 16.4949C96.9589 15.7216 97.8416 15.2376 98.7963 15.2376C98.9789 15.2376 99.1629 15.2549 99.3483 15.2909C100.379 15.4949 101.951 16.3869 102.798 17.4202C101.898 18.0109 100.478 18.3149 99.3683 18.3149" fill="#908080"/>
<path d="M0.561807 42.2842C0.39914 39.1228 0.70717 36.8228 2.3925 36.8228C2.45117 36.8228 2.51249 36.8255 2.57382 36.8322C4.42049 37.0002 12.6405 38.0055 12.6405 38.0055C12.0672 37.9882 11.5232 37.9788 11.0058 37.9788C2.05648 37.9788 1.19514 40.6188 0.561807 42.2842" fill="#F1F1F1"/>
<path d="M77.2129 47.3003H45.5622C45.3275 47.3003 45.3142 46.8363 45.2835 45.7136C45.2222 43.451 45.1062 39.239 42.9035 35.159C40.3529 30.435 36.3195 28.7696 33.9102 27.775C33.4715 27.5936 33.0929 27.4376 32.7769 27.2856C31.6515 26.7456 30.0409 22.7176 30.5876 20.3163C30.8689 19.0816 31.4622 17.883 33.7702 17.8296L33.8955 18.379C31.6049 18.379 30.9876 19.163 30.7196 20.3456C30.1836 22.699 31.7422 26.639 32.8342 27.1643C33.1475 27.3136 33.5249 27.4696 33.9622 27.651C36.3875 28.6523 40.4476 30.3283 43.0222 35.0963C45.2396 39.2016 45.3556 43.435 45.4182 45.711C45.4356 46.3603 45.4582 47.167 45.5622 47.167H77.2129V47.3003" fill="#231F20"/>
<path d="M35.3314 3.30294C26.9861 5.36561 22.0567 8.03229 18.0647 10.3523C15.2607 11.983 13.1394 13.8136 11.5701 15.5456C10.2367 17.0163 19.6874 8.56294 35.3314 3.30294" fill="#80C2DC"/>
<path d="M155.571 40.0189C155.716 40.5442 156.131 40.9855 156.587 41.1628C156.664 38.3042 155.331 31.4455 154.303 28.5895H153.478C152.878 28.5895 152.544 29.1415 152.734 29.8228L155.571 40.0189" fill="#2B2B2B"/>
<path d="M33.4764 16.5615C33.2031 15.3949 32.9324 14.2282 32.6631 13.0602L40.0978 5.62552C41.7698 5.20019 43.5924 4.79886 45.6031 4.43486L33.4764 16.5615" fill="#D9EDF4"/>
<path d="M47.7568 17.7749L48.7701 17.7682L47.7568 17.7749Z" fill="#D5D5D5"/>
<path d="M46.3096 17.7842L48.7696 17.7682L47.7562 17.7748L46.3096 17.7842V17.7842ZM58.8829 7.65482C58.6296 7.09215 58.3776 6.5295 58.1296 5.9655L58.1469 5.94818C58.3909 6.51618 58.6309 7.08685 58.8856 7.65085C58.8842 7.65218 58.8842 7.65348 58.8829 7.65482Z" fill="#BFBFBF"/>
<path d="M46.3096 17.7842L58.1296 5.9655C58.3776 6.5295 58.6296 7.09215 58.8829 7.65482C55.5122 11.0255 52.1402 14.3962 48.7696 17.7682L46.3096 17.7842" fill="#D9EDF4"/>
<path d="M36.4219 17.8511C41.1539 13.1191 45.8845 8.38838 50.6165 3.65638C51.7779 3.50438 53.0019 3.36573 54.2592 3.23639C49.3952 8.10039 44.5312 12.9644 39.6672 17.8284L36.4219 17.8511Z" fill="#D9EDF4"/>
<path d="M50.835 17.7537L53.7923 17.7337L50.835 17.7537ZM59.987 10.087C59.8323 9.747 59.6776 9.40701 59.523 9.06567L59.5257 9.06301C59.6803 9.40434 59.8336 9.74566 59.987 10.087Z" fill="#BFBFBF"/>
<path d="M50.835 17.7537L59.523 9.06567C59.6776 9.40701 59.8323 9.747 59.987 10.087C60.399 11.003 60.8043 11.9203 61.2096 12.839L56.331 17.7177L53.7923 17.7337L50.835 17.7537Z" fill="#D9EDF4"/>
<path d="M59.9887 6.54956C59.7353 5.98423 59.494 5.41489 59.25 4.84556L61.422 2.67222C62.138 2.63088 62.862 2.59087 63.6087 2.55887C63.6273 2.55754 63.646 2.5562 63.666 2.5562L63.9887 2.54956L59.9887 6.54956" fill="#D9EDF4"/>
<path d="M62.3217 11.7271C61.9524 10.8977 61.5804 10.0711 61.207 9.24307C61.583 10.0684 61.959 10.8924 62.3297 11.7191L62.3217 11.7271Z" fill="#BFBFBF"/>
<path d="M62.3296 11.719C61.9589 10.8923 61.5829 10.0683 61.2069 9.24299C61.0149 8.81632 60.8216 8.3883 60.627 7.96164L65.9829 2.60565C67.4123 2.71098 68.9856 2.98963 70.6603 3.3883L62.3296 11.719" fill="#D9EDF4"/>
<path d="M64.8514 17.6602C64.474 16.6882 64.074 15.7255 63.666 14.7655L63.6674 14.7642C64.0767 15.7228 64.474 16.6868 64.8514 17.6602L70.8394 17.6188C70.8394 17.6202 70.8394 17.6201 70.8394 17.6201L64.8514 17.6602" fill="#BFBFBF"/>
<path d="M64.851 17.6602C64.4737 16.6868 64.0763 15.7228 63.667 14.7642L74.1097 4.32015C76.3563 5.02815 78.7843 5.95618 81.375 7.08418C77.863 10.5962 74.351 14.1081 70.839 17.6201L64.851 17.6602" fill="#D9EDF4"/>
<path d="M79.21 17.563L84.258 17.5297L80.8406 17.5523L79.21 17.563Z" fill="#BFBFBF"/>
<path d="M79.21 17.563L87.026 9.74701C88.1046 10.2883 89.2059 10.8576 90.3313 11.4563L84.258 17.5297L79.21 17.563" fill="#D9EDF4"/>
<path d="M86.3223 17.5164L91.6556 12.183C91.9956 12.367 92.3409 12.559 92.6809 12.7444L87.9196 17.5057L86.3223 17.5164Z" fill="#D9EDF4"/>
<g clip-path="url(#clip0)">
<path d="M109.246 26.7012L107.106 22.3609C107.006 22.159 106.748 22.159 106.649 22.3609L104.509 26.7012C103.696 28.5426 104.439 30.4558 105.96 31.0371C106.218 31.1412 106.496 31.202 106.787 31.2088C106.807 31.2092 106.827 31.2095 106.847 31.2095H106.847C106.857 31.2095 106.867 31.209 106.877 31.2089C106.887 31.2091 106.897 31.2095 106.907 31.2095H106.907C106.928 31.2095 106.948 31.2092 106.968 31.2088C107.259 31.202 107.536 31.1411 107.794 31.0371C109.329 30.4508 110.054 28.5334 109.246 26.7012Z" fill="#56544D"/>
<path d="M105.838 27.2075L106.838 22.3734C106.852 22.3066 106.884 22.2527 106.925 22.2141C106.821 22.1933 106.708 22.2421 106.65 22.3608L104.51 26.7011C103.697 28.5426 104.44 30.4557 105.961 31.0371C106.219 31.1411 106.497 31.2019 106.788 31.2087C106.808 31.2092 106.828 31.2094 106.848 31.2094C106.858 31.2094 106.868 31.209 106.878 31.2089C106.888 31.209 106.898 31.2094 106.908 31.2094H106.908C106.929 31.2094 106.949 31.2091 106.969 31.2087C107.26 31.2019 107.537 31.1411 107.795 31.0371C107.893 30.9996 107.988 30.9565 108.08 30.9085C106.584 30.6958 105.52 29.1393 105.838 27.2075Z" fill="#3F3E3B"/>
</g>
<defs>
<clipPath id="clip0">
<rect width="8" height="9" fill="white" transform="translate(102.878 22.2095)"/>
</clipPath>
</defs>
</svg>
