<svg width="158" height="63" viewBox="0 0 158 63" fill="none" xmlns="http://www.w3.org/2000/svg">
<path d="M157.604 60.1586C157.604 61.6216 122.324 62.8081 78.8026 62.8081C35.2813 62.8081 0 61.6216 0 60.1586C0 58.6946 35.2813 57.5081 78.8026 57.5081C122.324 57.5081 157.604 58.6946 157.604 60.1586Z" fill="black" fill-opacity="0.3"/>
<path d="M83.9289 6.5825C84.8596 9.2481 84.2236 11.5986 82.4249 11.5986H48.2049C46.4062 11.5986 45.6782 9.2481 46.5062 6.5825L47.3449 3.87983C48.0329 1.6653 49.7329 0.000102417 51.1929 0.000102417H78.9849C80.4449 0.000102417 82.2102 1.6653 82.9836 3.87983L83.9289 6.5825" fill="#DB3535"/>
<path d="M155.042 49.7458L155.407 43.7312C154.667 37.9307 148.613 32.0723 144.578 30.6495C141.703 29.6364 116.415 23.6963 113.382 23.5989C111.738 23.1187 92.0088 11.7817 84.9448 9.052C82.9621 8.28693 46.5782 7.9416 45.5715 8.5004C42.2248 10.3588 29.8342 14.8776 20.4475 20.8004C18.3448 22.1271 9.98882 23.14 8.80882 24.7135C5.83682 28.6749 4.00616 49.7458 4.00616 49.7458C3.6755 52.5244 5.31949 54.8135 7.68216 54.8135H140.217C142.579 54.8135 156.081 52.5244 155.042 49.7458" fill="#F4CC25"/>
<path d="M59.7513 28.0733C37.094 28.0733 17.5633 35.4432 8.55928 46.0776C8.21395 48.7151 8.02995 50.5937 8.02995 50.5937C7.71929 52.9067 9.26463 54.8135 11.4873 54.8135H28.6966C38.978 47.0733 55.5566 42.0443 74.2686 42.0443C89.9419 42.0443 104.122 45.5723 114.357 51.2656C107.953 37.9151 85.9366 28.0733 59.7513 28.0733Z" fill="#F2A927"/>
<path d="M98.4614 23.6147C100.748 23.6548 100.729 22.5183 96.9747 19.824C93.516 17.3428 89.052 14.1396 86.272 12.5439C83.008 10.673 73.2521 9.56097 64.6121 9.50523C57.1841 9.45577 52.3974 10.2428 48.4854 11.4532C45.7787 12.2918 34.0214 16.5772 28.9121 20.5746C28.2121 21.1224 27.4694 22.4491 31.0027 22.5095C38.2961 22.636 76.8614 23.2428 98.4614 23.6147Z" fill="#2A2A2B"/>
<path d="M156.827 50.979V48.6347C156.827 43.5936 156.375 42.4415 152.885 42.4415H129.629V45.6978C129.629 47.8852 127.855 49.6587 125.668 49.6587H35.8759C33.6879 49.6587 31.9145 47.8852 31.9145 45.6978V42.4415H6.47588C4.29855 42.4415 2.53456 44.215 2.53456 46.403V50.979C2.53456 53.167 2.45455 54.9399 4.63055 54.9399H144.417C151.185 54.9399 156.827 53.167 156.827 50.979" fill="#F29B27"/>
<path d="M41.8681 49.0215C41.8681 41.1267 35.4454 34.7053 27.5507 34.7053C19.6561 34.7053 13.2334 41.1267 13.2334 49.0215C13.2334 51.0413 13.6641 52.9585 14.4227 54.7012H40.6787C41.4387 52.9585 41.8681 51.0413 41.8681 49.0215" fill="#F29B27"/>
<path d="M140.243 49.0215C140.243 41.1267 133.82 34.7053 125.925 34.7053C118.031 34.7053 111.609 41.1267 111.609 49.0215C111.609 51.0413 112.039 52.9585 112.797 54.7012H139.053C139.813 52.9585 140.243 51.0413 140.243 49.0215" fill="#F29B27"/>
<path d="M144.417 52.3483H4.63055C2.63188 52.3483 2.53589 50.8519 2.53456 48.915V50.979C2.53456 53.167 2.45455 54.9399 4.63055 54.9399H144.417C151.185 54.9399 156.827 53.167 156.827 50.979V48.6347L156.824 48.3978C156.808 50.58 151.175 52.3483 144.417 52.3483Z" fill="#CE7305"/>
<path d="M40.4128 48.6484C40.4128 41.5562 34.6435 35.7854 27.5502 35.7854C20.4582 35.7854 14.6875 41.5562 14.6875 48.6484C14.6875 50.9203 15.2848 53.0536 16.3222 54.9067H38.7782C39.8155 53.0536 40.4128 50.9203 40.4128 48.6484Z" fill="#070707"/>
<path d="M39.0931 48.6482C39.0931 55.0227 33.9252 60.1909 27.5505 60.1909C21.1758 60.1909 16.0078 55.0227 16.0078 48.6482C16.0078 42.2732 21.1758 37.1065 27.5505 37.1065C33.9252 37.1065 39.0931 42.2732 39.0931 48.6482Z" fill="#2A2A2B"/>
<path d="M37.4292 48.6482C37.4292 54.1039 33.0065 58.5269 27.5505 58.5269C22.0945 58.5269 17.6719 54.1039 17.6719 48.6482C17.6719 43.1936 22.0945 38.7696 27.5505 38.7696C33.0065 38.7696 37.4292 43.1936 37.4292 48.6482" fill="#091119"/>
<path d="M34.0386 50.6107L30.9693 49.4732C30.8453 49.4269 30.7546 49.0732 30.7546 48.6774C30.7546 48.2826 30.8453 47.9294 30.9693 47.8826L34.0386 46.7456C34.9533 46.4054 35.972 47.2149 35.972 48.6774C35.972 50.1414 34.9533 50.9508 34.0386 50.6107ZM33.4893 54.5852C32.4546 55.6201 31.1626 55.4722 30.756 54.5852L29.3906 51.6107C29.336 51.4894 29.5226 51.1763 29.8013 50.8961C30.0813 50.6175 30.3946 50.4305 30.5146 50.4867L33.4893 51.8508C34.3773 52.2586 34.5253 53.5508 33.4893 54.5852V54.5852ZM27.5586 57.0065C26.0946 57.0065 25.2853 55.9894 25.6253 55.0748L26.7639 52.0055C26.8093 51.8815 27.1626 51.7909 27.5586 51.7909C27.9533 51.7909 28.3066 51.8815 28.3533 52.0055L29.4906 55.0748C29.8306 55.9894 29.0213 57.0065 27.5586 57.0065V57.0065ZM21.6506 54.5253C20.616 53.4909 20.764 52.1987 21.6506 51.792L24.6253 50.4269C24.7466 50.3722 25.06 50.5576 25.34 50.8373C25.6186 51.1159 25.8053 51.4305 25.7493 51.5508L24.3853 54.5253C23.9773 55.4133 22.6866 55.5602 21.6506 54.5253V54.5253ZM19.2293 48.5936C19.2293 47.1305 20.2466 46.3217 21.1626 46.6612L24.2306 47.7988C24.3546 47.8456 24.4453 48.1988 24.4453 48.5936C24.4453 48.9893 24.3546 49.343 24.2306 49.3884L21.1626 50.5269C20.2466 50.867 19.2293 50.0576 19.2293 48.5936ZM21.7106 42.6868C22.7453 41.6518 24.0373 41.7988 24.4439 42.6868L25.8093 45.6612C25.8639 45.7816 25.6786 46.0961 25.3986 46.3748C25.1199 46.655 24.8053 46.8414 24.6853 46.7852L21.7106 45.4201C20.8226 45.0133 20.6759 43.7217 21.7106 42.6868V42.6868ZM27.6426 40.2638C29.1053 40.2638 29.9146 41.2826 29.5746 42.1977L28.4373 45.2669C28.3906 45.3909 28.0373 45.4816 27.6426 45.4816C27.2466 45.4816 26.8933 45.3909 26.8479 45.2669L25.7093 42.1977C25.3693 41.2826 26.1786 40.2638 27.6426 40.2638ZM33.5493 42.7466C34.5839 43.7816 34.4373 45.0732 33.5493 45.48L30.5746 46.8456C30.4546 46.9002 30.1399 46.7133 29.8613 46.4346C29.5813 46.156 29.396 45.8414 29.4506 45.7217L30.8159 42.7466C31.2226 41.8586 32.5146 41.7122 33.5493 42.7466V42.7466ZM27.5506 39.9884C22.768 39.9884 18.8906 43.8654 18.8906 48.6482C18.8906 53.4305 22.768 57.3081 27.5506 57.3081C32.3333 57.3081 36.2106 53.4305 36.2106 48.6482C36.2106 43.8654 32.3333 39.9884 27.5506 39.9884Z" fill="#2A2A2B"/>
<path d="M138.789 48.6484C138.789 41.5562 133.018 35.7854 125.925 35.7854C118.833 35.7854 113.062 41.5562 113.062 48.6484C113.062 50.9203 113.66 53.0536 114.697 54.9067H137.153C138.19 53.0536 138.789 50.9203 138.789 48.6484" fill="#070707"/>
<path d="M137.467 48.6482C137.467 55.0227 132.299 60.1909 125.925 60.1909C119.55 60.1909 114.382 55.0227 114.382 48.6482C114.382 42.2732 119.55 37.1065 125.925 37.1065C132.299 37.1065 137.467 42.2732 137.467 48.6482Z" fill="#2A2A2B"/>
<path d="M135.803 48.6482C135.803 54.1039 131.381 58.5269 125.925 58.5269C120.469 58.5269 116.046 54.1039 116.046 48.6482C116.046 43.1936 120.469 38.7696 125.925 38.7696C131.381 38.7696 135.803 43.1936 135.803 48.6482" fill="#091119"/>
<path d="M132.413 50.6107L129.343 49.4732C129.219 49.4269 129.13 49.0732 129.13 48.6774C129.13 48.2826 129.219 47.9294 129.343 47.8826L132.413 46.7456C133.329 46.4054 134.346 47.2149 134.346 48.6774C134.346 50.1414 133.329 50.9508 132.413 50.6107ZM131.863 54.5852C130.829 55.6201 129.538 55.4722 129.13 54.5852L127.765 51.6107C127.71 51.4894 127.897 51.1763 128.175 50.8961C128.455 50.6175 128.769 50.4305 128.889 50.4867L131.863 51.8508C132.751 52.2586 132.899 53.5508 131.863 54.5852V54.5852ZM125.933 57.0065C124.469 57.0065 123.659 55.9894 123.999 55.0748L125.138 52.0055C125.183 51.8815 125.538 51.7909 125.933 51.7909C126.327 51.7909 126.681 51.8815 126.727 52.0055L127.866 55.0748C128.205 55.9894 127.395 57.0065 125.933 57.0065V57.0065ZM120.025 54.5253C118.99 53.4909 119.138 52.1987 120.025 51.792L123.001 50.4269C123.121 50.3722 123.434 50.5576 123.714 50.8373C123.993 51.1159 124.179 51.4305 124.123 51.5508L122.759 54.5253C122.351 55.4133 121.061 55.5602 120.025 54.5253V54.5253ZM117.603 48.5936C117.603 47.1305 118.621 46.3217 119.537 46.6612L122.605 47.7988C122.729 47.8456 122.819 48.1988 122.819 48.5936C122.819 48.9893 122.729 49.343 122.605 49.3884L119.537 50.5269C118.621 50.867 117.603 50.0576 117.603 48.5936ZM120.085 42.6868C121.119 41.6518 122.411 41.7988 122.818 42.6868L124.183 45.6612C124.238 45.7816 124.053 46.0961 123.773 46.3748C123.494 46.655 123.179 46.8414 123.059 46.7852L120.085 45.4201C119.197 45.0133 119.05 43.7217 120.085 42.6868ZM126.017 40.2638C127.481 40.2638 128.289 41.2826 127.95 42.1977L126.811 45.2669C126.765 45.3909 126.411 45.4816 126.017 45.4816C125.622 45.4816 125.267 45.3909 125.222 45.2669L124.083 42.1977C123.743 41.2826 124.553 40.2638 126.017 40.2638ZM131.923 42.7466C132.958 43.7816 132.811 45.0732 131.923 45.48L128.949 46.8456C128.829 46.9002 128.514 46.7133 128.235 46.4346C127.955 46.156 127.77 45.8414 127.825 45.7217L129.19 42.7466C129.597 41.8586 130.889 41.7122 131.923 42.7466V42.7466ZM125.925 39.9884C121.142 39.9884 117.265 43.8654 117.265 48.6482C117.265 53.4305 121.142 57.3081 125.925 57.3081C130.707 57.3081 134.585 53.4305 134.585 48.6482C134.585 43.8654 130.707 39.9884 125.925 39.9884Z" fill="#2A2A2B"/>
<path d="M154.332 41.9629L142.298 39.991C141.91 39.9161 141.406 39.5442 141.157 39.1442L138.792 35.4098C138.444 34.8536 138.488 34.3828 138.918 34.3828L144.044 34.328C144.348 34.4801 144.657 34.64 144.968 34.8041H139.849C139.845 34.8041 139.841 34.8041 139.837 34.8041C139.409 34.8041 139.318 35.2041 139.614 35.6853L141.48 38.7312C141.702 39.0937 142.192 39.4364 142.59 39.5098L154.117 41.6322C154.193 41.7432 154.265 41.8536 154.332 41.9629" fill="#AD9421"/>
<path d="M150.684 34.8042H150.534C150.396 34.6614 150.256 34.5219 150.114 34.3843C150.312 34.5229 150.501 34.663 150.684 34.8042Z" fill="#B5B7BA"/>
<path d="M150.534 34.8042H150.53C150.389 34.6589 150.245 34.5151 150.101 34.375C150.105 34.3791 150.11 34.3818 150.114 34.3843C150.255 34.5219 150.395 34.6614 150.534 34.8042Z" fill="#AD9421"/>
<path d="M154.95 41.7852C154.724 40.6816 154.28 37.5868 150.684 34.804H139.849C139.41 34.7961 139.316 35.1988 139.614 35.6852L141.48 38.731C141.702 39.0936 142.192 39.4362 142.59 39.5097L154.95 41.7852" fill="white"/>
<path d="M141.977 34.8387L139.849 34.8039C139.411 34.7961 139.317 35.1987 139.615 35.6851L141.48 38.731C141.703 39.0935 142.192 39.4362 142.591 39.5097L145.701 40.0815L141.977 34.8387" fill="#F49625"/>
<path d="M155.517 46.4894C155.517 47.3551 154.815 48.0576 153.95 48.0576H149.369C148.503 48.0576 147.801 47.3551 147.801 46.4894C147.801 45.6227 148.503 44.9218 149.369 44.9218H153.95C154.815 44.9218 155.517 45.6227 155.517 46.4894" fill="#CE7305"/>
<path d="M152.381 46.4278C152.381 47.1002 151.837 47.6455 151.164 47.6455H150.009C149.337 47.6455 148.792 47.1002 148.792 46.4278C148.792 45.755 149.337 45.2107 150.009 45.2107H151.164C151.837 45.2107 152.381 45.755 152.381 46.4278" fill="white"/>
<path d="M8.44735 33.1655H6.80469C6.86335 32.9415 6.92335 32.7202 6.98468 32.5055H8.43268C8.43668 32.5055 8.44068 32.5055 8.44601 32.5055C8.44735 32.5055 8.45002 32.5055 8.45135 32.5055C8.45402 32.5055 8.45668 32.5055 8.45934 32.5055C8.46201 32.5055 8.46468 32.5055 8.46735 32.5055C8.46868 32.5055 8.47002 32.5055 8.47269 32.5055C8.47536 32.5041 8.47801 32.5041 8.48068 32.5041C8.48201 32.5041 8.48335 32.5041 8.48602 32.5041C8.48869 32.5041 8.49134 32.5041 8.49401 32.5041C8.49534 32.5041 8.49668 32.5041 8.49935 32.5041C8.50202 32.5041 8.50467 32.5041 8.50734 32.5041C8.50867 32.5041 8.51001 32.5041 8.51134 32.5041C8.51534 32.5041 8.51935 32.503 8.52202 32.503C8.52335 32.503 8.52467 32.503 8.52467 32.503C8.52867 32.503 8.53269 32.503 8.53669 32.503H8.53802C8.54202 32.503 8.54602 32.5014 8.55002 32.5014C8.55135 32.5014 8.55135 32.5014 8.55135 32.5014C9.66202 32.4374 10.7713 31.4885 11.0127 30.3707L11.5073 28.0842C11.586 27.7186 11.5647 27.3775 11.45 27.0885C11.65 27.0243 11.8593 26.9587 12.0767 26.8921C12.2247 27.2869 12.2594 27.7467 12.1527 28.2374L11.6593 30.5243C11.3433 31.9827 9.90601 33.1655 8.44735 33.1655" fill="#AD9421"/>
<path d="M6.20493 33.1655H6.11426C6.15426 32.9442 6.1956 32.7243 6.23693 32.5055H6.33159C6.28893 32.7227 6.24626 32.9442 6.20493 33.1655Z" fill="#B5B7BA"/>
<path d="M6.20508 33.1655C6.24641 32.9442 6.28907 32.7227 6.33174 32.5055H6.33307C6.28907 32.7243 6.24641 32.9431 6.20508 33.1655Z" fill="#AD9421"/>
<path d="M7.06543 28.7637C7.3921 27.5225 7.74676 26.4345 8.13076 25.5959H8.28944C8.1921 25.8001 8.09476 26.0199 8.0001 26.2558H7.8841C7.60676 26.9293 7.33343 27.7667 7.06543 28.7637" fill="#B5B7BA"/>
<path d="M6.22461 32.5054C6.75128 29.7482 7.30862 27.6507 7.88328 26.2559H10.0979C10.5833 26.2559 10.994 26.4335 11.254 26.7534C11.53 27.0935 11.6193 27.5654 11.5073 28.084L11.0126 30.3706C10.7633 31.5278 9.58062 32.5054 8.43262 32.5054H6.22461" fill="#DB3535"/>
<path d="M6.65262 30.4455C6.50729 31.0851 6.36461 31.7706 6.22461 32.5054H8.43262C9.55662 32.5054 10.706 31.5695 10.9886 30.4455H6.65262Z" fill="#F49625"/>
<path d="M113.382 23.5985C111.738 23.1183 95.2662 13.66 88.3289 10.6251C88.0889 10.5199 87.8369 10.4251 87.5889 10.3267L100.616 19.5052C102.969 21.1636 105.521 22.5917 106.316 22.6933C106.316 22.6933 113.72 23.6095 113.382 23.5985" fill="#2A2A2B"/>
<path d="M63.9743 47.3203C63.8636 47.3162 63.7503 47.3124 63.6396 47.3083V42.5963C63.7503 42.5854 63.8623 42.5734 63.9743 42.5614V47.3203ZM63.9743 28.1588C63.8636 28.1552 63.7503 28.1495 63.6396 28.1458V23.039C63.7516 23.0416 63.8623 23.0427 63.9743 23.0443V28.1588Z" fill="#B79B27"/>
<path d="M63.6396 42.5962V28.1457C63.7503 28.1494 63.8636 28.1551 63.9743 28.1587V42.5613C63.8623 42.5733 63.7503 42.5853 63.6396 42.5962Z" fill="#B68328"/>
<path d="M63.9743 23.0439C63.8623 23.0423 63.7516 23.0413 63.6396 23.0386V22.9277H63.9743V23.0439Z" fill="#2A2A2B"/>
<path d="M98.6198 48.7432C98.5105 48.7374 98.3958 48.7312 98.2852 48.7254L98.4731 45.0468C98.5838 45.0765 98.6945 45.1056 98.8051 45.1348L98.6198 48.7432V48.7432ZM99.2225 36.9561C99.1145 36.8989 99.0052 36.84 98.8958 36.7817L99.5771 23.4828C99.7331 23.4254 99.8505 23.3484 99.9238 23.252L99.2225 36.9561" fill="#B79B27"/>
<path d="M98.8047 45.1348C98.694 45.1056 98.5833 45.0765 98.4727 45.0468L98.8953 36.7817C99.0047 36.84 99.114 36.8989 99.222 36.9561L98.8047 45.1348Z" fill="#B68328"/>
<path d="M99.5771 23.4824L99.6051 22.9276H99.9411L99.9238 23.2516C99.8505 23.348 99.7331 23.4251 99.5771 23.4824Z" fill="#2A2A2B"/>
<path d="M30.1779 32.6885L28.3766 21.7442C28.4406 21.8817 28.5659 22.0134 28.7752 22.127L30.4966 32.5801C30.3899 32.6161 30.2846 32.6519 30.1779 32.6885V32.6885ZM28.3286 21.4509L28.3232 21.4186H28.3326C28.3312 21.4295 28.3299 21.4399 28.3286 21.4509Z" fill="#B79B27"/>
<path d="M30.8547 34.7495L30.6014 34.6708L30.5054 34.6723L30.1787 32.6886C30.2854 32.652 30.3907 32.6162 30.4974 32.5802L30.8547 34.7495Z" fill="#B68328"/>
<path d="M28.7758 22.127C28.5664 22.0134 28.4411 21.8816 28.3771 21.7442L28.3291 21.4508C28.3304 21.4399 28.3318 21.4295 28.3331 21.4186H28.6598L28.7758 22.127Z" fill="#2A2A2B"/>
<path d="M38.1098 24.8852C38.1098 25.2868 37.7845 25.6123 37.3832 25.6123H31.4552C31.0539 25.6123 30.7285 25.2868 30.7285 24.8852C30.7285 24.4842 31.0539 24.1587 31.4552 24.1587H37.3832C37.7845 24.1587 38.1098 24.4842 38.1098 24.8852Z" fill="#2A2A2B"/>
<path d="M72.2235 24.9971C72.2235 25.3987 71.8982 25.7241 71.4955 25.7241H65.5688C65.1662 25.7241 64.8408 25.3987 64.8408 24.9971C64.8408 24.596 65.1662 24.2705 65.5688 24.2705H71.4955C71.8982 24.2705 72.2235 24.596 72.2235 24.9971Z" fill="#2A2A2B"/>
<path d="M22.0742 35.7935C23.1062 35.1825 24.2342 34.7387 25.4276 34.4944C24.8929 34.7216 24.3636 34.9549 23.8422 35.1919C23.2356 35.3549 22.6462 35.5559 22.0742 35.7935Z" fill="#F5D54F"/>
<path d="M33.0258 35.7935C31.3391 35.0919 29.4885 34.7053 27.5498 34.7053C26.2685 34.7053 25.0258 34.8747 23.8418 35.1919C24.3631 34.9549 24.8925 34.7216 25.4271 34.4944C26.1151 34.3549 26.8245 34.2815 27.5498 34.2815C29.5338 34.2815 31.3991 34.8293 33.0258 35.7935" fill="#F3B951"/>
<path d="M37.4463 40.4268C37.313 40.273 37.1783 40.1216 37.0396 39.973C36.2503 39.1106 35.345 38.3549 34.349 37.732C32.3516 36.4626 30.0303 35.732 27.5503 35.732C25.073 35.732 22.753 36.4626 20.757 37.7309C19.7556 38.3549 18.8476 39.1132 18.0556 39.9798C17.9196 40.1252 17.785 40.2746 17.6543 40.4268C18.7143 38.484 20.2436 36.8757 22.0743 35.7934C22.6463 35.5558 23.2356 35.3549 23.8423 35.1918C25.0263 34.8746 26.269 34.7053 27.5503 34.7053C29.489 34.7053 31.3396 35.0918 33.0263 35.7934C34.857 36.8757 36.3863 38.484 37.4463 40.4268Z" fill="#F3AE51"/>
<path d="M18.0557 39.98C18.8477 39.1133 19.7557 38.355 20.757 37.731C19.7703 38.356 18.8637 39.1133 18.0557 39.98ZM37.0397 39.9732C36.2343 39.1108 35.3303 38.356 34.349 37.7321C35.345 38.355 36.2503 39.1108 37.0397 39.9732Z" fill="#373737"/>
<path d="M134.754 37.7588C132.321 35.8468 129.254 34.7056 125.925 34.7056C122.597 34.7056 119.53 35.8468 117.096 37.7588C119.204 35.0109 122.376 33.2536 125.925 33.2536C129.476 33.2536 132.646 35.0109 134.754 37.7588" fill="#F5D54F"/>
<path d="M135.821 39.3989C133.349 36.5203 129.833 34.7056 125.925 34.7056C122.017 34.7056 118.502 36.5203 116.03 39.3989C116.345 38.8219 116.702 38.2733 117.096 37.7588C119.53 35.8468 122.597 34.7056 125.925 34.7056C129.254 34.7056 132.321 35.8468 134.754 37.7588C135.149 38.2733 135.506 38.8219 135.821 39.3989" fill="#F3AE51"/>
<path d="M106.373 22.496C106.373 22.496 110.801 23.044 112.647 23.2867C109.006 21.5559 94.7659 13.4518 88.3899 10.6518L100.673 19.3064C103.026 20.9654 105.578 22.3935 106.373 22.496V22.496ZM95.2433 18.9148C92.0606 16.6387 88.5059 14.1362 86.1366 12.7774C83.0312 10.996 73.8153 9.92777 65.7113 9.78923L66.4179 22.844L94.1059 23.2944C94.8272 23.2944 95.7726 19.2935 95.2433 18.9148ZM61.6673 22.7935L34.2086 22.2414C32.1713 22.2064 31.2206 19.784 31.5113 19.572C36.4606 15.9654 45.8419 12.5518 48.5633 11.7107C52.1246 10.6096 56.0139 9.8611 62.7633 9.77883L61.6673 22.7935" fill="#80C2DC"/>
<path d="M77.1619 30.7894H73.7393V34.2134H77.1619V30.7894Z" fill="#091119"/>
<path d="M70.4785 34.2135V30.7895H67.0545V34.2135H70.3159V37.4443H67.0545V34.2135H63.7945V30.7895H60.3705V34.2135H63.6319V37.4443H60.3705V34.2135H57.1092V30.7895H53.6865V34.2135H56.9465V37.4443H53.6865V40.8682H57.1092V37.6375H60.3705V40.8682H63.7945V37.6375H67.0545V40.8682H70.4785V37.6375H73.7398V40.8682H77.1625V37.4443H73.7398V34.2135H70.4785" fill="#091119"/>
<path d="M82.2945 2.43994H47.9785C48.7998 1.01341 50.0252 0.0388747 51.1278 0.00140802C51.1372 0.000341356 51.1452 0.000341942 51.1532 0.000341942C51.1545 0.000341942 51.1545 0.000341942 51.1559 0.000341942C51.1599 0.000341942 51.1639 0.000341942 51.1679 0.000341942C51.1719 0.000341942 51.1759 0.000341942 51.1799 0.000341942C51.1799 0.000341942 51.1812 0.000341942 51.1825 0.000341942C51.1865 0.000341942 51.1905 0.000341942 51.1932 0.000341942H78.9852C78.9892 0.000341942 78.9932 0.000341942 78.9972 0.000341942C78.9972 0.000341942 78.9985 0.000341942 78.9998 0.000341942C79.0038 0.000341942 79.0078 0.000341942 79.0118 0.000341942C79.0158 0.000341942 79.0199 0.000341942 79.0239 0.000341942H79.0252C79.0332 0.000341942 79.0425 0.000341356 79.0505 0.00140802C80.1559 0.0388747 81.4185 1.01341 82.2945 2.43994" fill="#F1AEAE"/>
<path d="M71.6213 1.12147H69.6426V3.10107H71.6213V1.12147Z" fill="#091119"/>
<path d="M67.7572 3.10131V1.12171H65.7772V3.10131H67.6625V4.96958H65.7772V3.10131H63.8918V1.12171H61.9132V3.10131H63.7985V4.96958H61.9132V3.10131H60.0278V1.12171H58.0479V3.10131H59.9332V4.96958H58.0479V6.94824H60.0278V5.08158H61.9132V6.94824H63.8918V5.08158H65.7772V6.94824H67.7572V5.08158H69.6425V6.94824H71.6212V4.96958H69.6425V3.10131H67.7572" fill="#091119"/>
<path d="M89.2948 23.2158L88.2881 23.2001L89.2948 23.2158Z" fill="#BFBFBF"/>
<path d="M89.2948 23.2158L88.2881 23.2001C90.0868 21.4028 91.8841 19.6053 93.6814 17.8064C93.8801 17.9492 94.0801 18.0892 94.2801 18.2309L89.2948 23.2158" fill="#D9EDF4"/>
<path d="M74.4759 22.9746L73.1572 22.9533L74.4759 22.9746ZM86.2652 12.8506C86.2626 12.8491 86.2586 12.8465 86.2559 12.8454C86.2586 12.8465 86.2626 12.8481 86.2652 12.8506ZM86.2439 12.8371C86.2372 12.8345 86.2319 12.8303 86.2266 12.8277C86.2319 12.8303 86.2372 12.8345 86.2439 12.8371ZM86.2186 12.8225C86.2106 12.8183 86.2026 12.8147 86.1946 12.8095C86.2026 12.8147 86.2106 12.8183 86.2186 12.8225ZM86.1932 12.8079C86.1746 12.797 86.1559 12.7866 86.1372 12.7773C86.1559 12.7866 86.1746 12.797 86.1932 12.8079ZM86.1372 12.7773C86.1332 12.773 86.1279 12.7705 86.1239 12.7678C86.1279 12.7705 86.1332 12.773 86.1372 12.7773ZM86.1146 12.7637C86.1132 12.7626 86.1132 12.7626 86.1132 12.7626C86.1132 12.7626 86.1146 12.7626 86.1146 12.7637Z" fill="#BFBFBF"/>
<path d="M81.816 23.0947L74.476 22.975L73.1573 22.9537L84.1493 11.9614C84.9413 12.2094 85.608 12.4766 86.1133 12.763C86.1133 12.763 86.1133 12.763 86.1147 12.7641C86.1173 12.7657 86.1213 12.7671 86.124 12.7682C86.128 12.7709 86.1333 12.7734 86.1373 12.7777C86.156 12.787 86.1747 12.7974 86.1933 12.8083C86.1933 12.8099 86.1947 12.8099 86.1947 12.8099C86.2027 12.8151 86.2107 12.8187 86.2187 12.8229C86.2213 12.8255 86.224 12.8271 86.2267 12.8281C86.232 12.8307 86.2373 12.8349 86.244 12.8375C86.248 12.8401 86.252 12.8433 86.256 12.8458C86.2587 12.8469 86.2627 12.8495 86.2653 12.851C87.2773 13.439 88.4987 14.2281 89.8027 15.1083L81.816 23.0947V23.0947ZM69.06 22.887L67 22.8537L79.0067 10.8469C79.6267 10.9433 80.2187 11.0485 80.7907 11.1562L69.06 22.887Z" fill="#D9EDF4"/>
<path d="M61.668 22.7935L62.324 15.0132L61.668 22.7935Z" fill="#BFBFBF"/>
<path d="M61.668 22.7935L54.6826 22.6533L62.324 15.0132L61.668 22.7935" fill="#D9EDF4"/>
<path d="M45.3423 22.4653L41.6864 22.3919L40.1104 22.3601L51.565 10.9053C53.3584 10.5012 55.3624 10.1883 57.813 9.9944L45.3423 22.4653Z" fill="#D9EDF4"/>
<path d="M31.5059 19.5762C31.5072 19.5762 31.5072 19.5762 31.5072 19.5762C31.5072 19.5762 31.5072 19.5762 31.5059 19.5762ZM31.5325 19.5574C31.5339 19.5558 31.5339 19.5558 31.5352 19.5558C31.5339 19.5558 31.5325 19.5558 31.5325 19.5574Z" fill="#BFBFBF"/>
<path d="M32.6134 21.6201C31.7281 20.8961 31.3334 19.7707 31.4987 19.5841C31.5001 19.5841 31.5001 19.5826 31.5014 19.5826C31.5014 19.5816 31.5028 19.5816 31.5028 19.58C31.5041 19.58 31.5041 19.5789 31.5054 19.5789C31.5054 19.5775 31.5068 19.5775 31.5068 19.5764C31.5081 19.5764 31.5081 19.5764 31.5081 19.5764L31.5094 19.5748C31.5107 19.5732 31.5107 19.5732 31.5121 19.5721C31.5187 19.568 31.5268 19.5628 31.5334 19.5576C31.5334 19.556 31.5348 19.556 31.5361 19.556C33.4561 18.1603 36.0361 16.7972 38.6348 15.6003L32.6134 21.6201" fill="#D9EDF4"/>
<path d="M66.2342 19.4536L66.1289 17.4973L66.2342 19.4536Z" fill="#BFBFBF"/>
<path d="M66.2346 19.4536L66.1293 17.4973L65.8066 11.5312L67.5 9.83641C70.1266 9.92281 72.808 10.1056 75.3173 10.3708C72.2906 13.3989 69.2626 16.4271 66.2346 19.4536" fill="#D9EDF4"/>
<path d="M3.01151 51.6733C2.56884 51.0551 2.53551 50.0629 2.53418 48.915V46.403C2.53418 44.215 4.29817 42.4416 6.4755 42.4416H14.8368C14.3915 43.2973 14.0302 44.2056 13.7648 45.152H6.95418C4.77685 45.152 3.01151 46.9254 3.01151 49.1134V51.6733" fill="#EFCC9E"/>
<path d="M15.17 45.1519H13.7646C14.03 44.2055 14.3913 43.2972 14.8367 42.4415H16.2873C15.8167 43.2909 15.4393 44.1988 15.17 45.1519Z" fill="#EFCC9E"/>
<path d="M3.0132 54.2656C2.51587 53.5724 2.53321 52.4083 2.53454 51.0828C2.53454 51.0818 2.53454 51.0802 2.53454 51.0802C2.53454 51.0646 2.53454 51.0495 2.53454 51.0339C2.53454 51.0255 2.53454 51.0187 2.53454 51.0109C2.53454 51.0068 2.53454 51.0042 2.53454 51.0005C2.53454 50.9937 2.53454 50.9854 2.53454 50.9792V48.9151C2.53588 50.063 2.5692 51.0552 3.01187 51.6734V53.6896C3.01187 53.887 3.0132 54.0766 3.0132 54.2656Z" fill="#E1BC90"/>
<path d="M15.1833 45.1519H15.1699C15.4393 44.1988 15.8166 43.2909 16.2873 42.4415H16.2912C15.8219 43.2893 15.4526 44.2003 15.1833 45.1519" fill="#919191"/>
<path d="M111.244 49.6587H98.573L98.6196 48.7431C104.753 49.0426 109.372 49.3227 111.001 49.5425C111.082 49.5816 111.162 49.6201 111.244 49.6587ZM98.2369 49.6587H63.9743V47.3202C75.269 47.7347 88.597 48.2551 98.285 48.7254L98.2369 49.6587ZM63.6396 49.6587H41.853C41.8623 49.4467 41.8676 49.2347 41.8676 49.0218C41.8676 48.58 41.8476 48.1431 41.8076 47.7123C42.7676 47.3388 43.749 46.9816 44.7503 46.6415C48.5743 46.7707 55.5676 47.0123 63.6396 47.3082V49.6587" fill="#FBEBA8"/>
<path d="M111.587 49.6587H111.243C111.162 49.6201 111.082 49.5816 111.001 49.5425C111.301 49.5842 111.499 49.6228 111.587 49.6587ZM41.8074 47.7123C41.7714 47.316 41.7194 46.9243 41.6514 46.5374C41.6514 46.5374 42.7807 46.5748 44.75 46.6415C43.7487 46.9816 42.7674 47.3388 41.8074 47.7123" fill="#FADDA9"/>
<path d="M41.8047 50.356C41.826 50.1252 41.842 49.8919 41.8527 49.6586H63.6394V49.6867H63.974V49.6586H98.2367L98.2353 49.6867H98.5713L98.5727 49.6586H111.243H111.587C111.602 49.6638 111.614 49.6705 111.623 49.6773L41.8047 50.356Z" fill="#FAD7A9"/>
<path d="M41.3145 50.3613C41.3145 50.3613 41.5785 47.4733 41.6518 46.5374C41.7198 46.9243 41.7718 47.3161 41.8078 47.7123C41.8478 48.1431 41.8678 48.5801 41.8678 49.0218C41.8678 49.2347 41.8625 49.4467 41.8531 49.6587C41.8425 49.8921 41.8265 50.1254 41.8051 50.3561L41.3145 50.3613" fill="#FAD7A9"/>
<path d="M63.9743 49.6587H63.6396V47.3082C63.7503 47.3123 63.8636 47.316 63.9743 47.3202V49.6587Z" fill="#E2D7A9"/>
<path d="M63.6396 49.6865H63.9745V49.6584H63.6396V49.6865Z" fill="#E2C9A9"/>
<path d="M98.5733 49.6587H98.2373L98.2853 48.7254C98.396 48.7311 98.5107 48.7374 98.62 48.7431L98.5733 49.6587" fill="#E2D7A9"/>
<path d="M98.5714 49.6865H98.2354L98.2367 49.6584H98.5727L98.5714 49.6865Z" fill="#E2C9A9"/>
<path d="M156.785 46.6465C156.272 45.5038 155.848 43.9304 153.936 43.9304C153.936 43.9304 143.113 43.5038 138.861 42.8866C138.789 42.7372 138.715 42.5882 138.639 42.4413H152.885C152.891 42.4413 152.897 42.4413 152.904 42.4413C152.907 42.4413 152.909 42.4413 152.912 42.4413C152.916 42.4413 152.919 42.4413 152.923 42.4413C152.925 42.4413 152.928 42.4413 152.931 42.4413C152.935 42.4413 152.937 42.4413 152.94 42.4413C152.944 42.4413 152.948 42.4413 152.952 42.4413C152.953 42.4413 152.955 42.4413 152.957 42.4413C152.961 42.4413 152.967 42.4413 152.971 42.4413H152.972C155.872 42.4574 156.624 43.32 156.785 46.6465Z" fill="#FAD7A9"/>
<path d="M138.861 42.8867C137.951 42.755 137.341 42.6149 137.204 42.4669C137.199 42.4586 137.193 42.4493 137.189 42.4414H138.639C138.715 42.5883 138.789 42.7373 138.861 42.8867Z" fill="#FAD7A9"/>
<path d="M137.204 42.4668C137.196 42.4585 137.189 42.4492 137.184 42.4413H137.189C137.193 42.4492 137.198 42.4585 137.204 42.4668Z" fill="#9C9C9C"/>
<path d="M155.151 42.4468H154.589C154.515 42.2869 154.429 42.1254 154.331 41.9629L154.943 42.0629C154.931 41.9697 154.917 41.8733 154.902 41.7765L154.95 41.7853C154.945 41.7577 154.938 41.728 154.933 41.6978C155.014 41.9468 155.087 42.1978 155.151 42.4468V42.4468ZM5.00329 42.4468H4.79395C5.15261 39.5588 5.62729 36.2082 6.20462 33.1656H6.80462C6.06996 35.9509 5.46329 39.3842 5.00329 42.4468Z" fill="#FBEBA8"/>
<path d="M144.802 30.7319C144.801 30.7319 144.8 30.7309 144.798 30.7309C144.8 30.7309 144.801 30.7319 144.802 30.7319ZM144.782 30.7241C144.78 30.7225 144.777 30.7225 144.774 30.7215C144.777 30.7225 144.78 30.7225 144.782 30.7241ZM144.76 30.7158C144.757 30.7147 144.754 30.7131 144.752 30.7121C144.754 30.7131 144.757 30.7147 144.76 30.7158ZM144.738 30.7063C144.734 30.7063 144.732 30.7053 144.728 30.7038C144.732 30.7053 144.734 30.7063 144.738 30.7063ZM144.716 30.6986C144.712 30.6975 144.708 30.6959 144.705 30.6943C144.708 30.6959 144.712 30.6975 144.716 30.6986ZM144.693 30.6907C144.689 30.6891 144.685 30.6882 144.681 30.6866C144.685 30.6882 144.689 30.6891 144.693 30.6907ZM144.67 30.6825C144.666 30.6798 144.661 30.6787 144.657 30.6773C144.661 30.6787 144.665 30.6798 144.67 30.6825ZM144.648 30.673C144.642 30.6719 144.638 30.6705 144.633 30.6694C144.638 30.6705 144.642 30.6719 144.648 30.673ZM144.624 30.6653C144.62 30.6637 144.614 30.661 144.609 30.6601C144.614 30.661 144.62 30.6637 144.624 30.6653ZM144.601 30.6574C144.594 30.6549 144.586 30.6517 144.578 30.6491C144.586 30.6517 144.594 30.6549 144.601 30.6574ZM8.28906 25.5959C8.40906 25.3491 8.53039 25.1293 8.65306 24.9371C8.53039 25.1293 8.40906 25.3491 8.28906 25.5959ZM8.65306 24.9371C8.65573 24.9334 8.65838 24.9277 8.66105 24.9241C8.65838 24.9293 8.65573 24.9334 8.65306 24.9371ZM8.66239 24.9241C8.66772 24.9158 8.67305 24.9063 8.67839 24.8986C8.67305 24.9063 8.66772 24.9158 8.66239 24.9241ZM8.67972 24.8975C8.68505 24.8891 8.69039 24.8814 8.69572 24.8719C8.69039 24.8798 8.68505 24.8891 8.67972 24.8975ZM8.69572 24.8719C8.69972 24.8678 8.7024 24.8642 8.70506 24.8601C8.70106 24.8642 8.69972 24.8678 8.69572 24.8719ZM8.70506 24.8585C8.7104 24.8506 8.71573 24.8429 8.72106 24.8345C8.71573 24.8429 8.7104 24.8506 8.70506 24.8585ZM8.7224 24.8334C8.72506 24.8293 8.72772 24.8251 8.73039 24.8215C8.72772 24.8251 8.72506 24.8293 8.7224 24.8334ZM8.73172 24.8199C8.73706 24.8131 8.74239 24.8053 8.74772 24.797C8.74239 24.8053 8.73706 24.8131 8.73172 24.8199ZM8.74906 24.7959C8.75172 24.7918 8.7544 24.7882 8.75706 24.785C8.75306 24.7882 8.75172 24.7918 8.74906 24.7959ZM8.75706 24.7839C8.75973 24.7798 8.76239 24.7773 8.76372 24.773C8.76239 24.7773 8.75973 24.7798 8.75706 24.7839ZM8.76639 24.7719C8.76906 24.7678 8.77173 24.7637 8.77306 24.761C8.77173 24.7637 8.76906 24.7678 8.76639 24.7719ZM8.77438 24.7601C8.77971 24.7517 8.78506 24.7454 8.7904 24.7371C8.78506 24.7454 8.77971 24.7517 8.77438 24.7601ZM8.79172 24.7361C8.79438 24.7319 8.79706 24.7293 8.79972 24.7251C8.79706 24.7293 8.79438 24.7319 8.79172 24.7361ZM8.80106 24.7241C8.80372 24.7199 8.80638 24.7158 8.80905 24.7131C8.80638 24.7173 8.80372 24.7199 8.80106 24.7241ZM8.81439 24.7053C8.81572 24.7038 8.81706 24.7027 8.81839 24.7011C8.81706 24.7027 8.81572 24.7038 8.81439 24.7053ZM8.82106 24.6975C8.82373 24.6934 8.82772 24.6882 8.83172 24.6825C8.82772 24.6882 8.82373 24.6934 8.82106 24.6975ZM8.83573 24.6787C8.85173 24.6601 8.86773 24.6397 8.88639 24.6215C8.86773 24.6397 8.85173 24.6601 8.83573 24.6787ZM8.90106 24.6053C8.90239 24.6038 8.90373 24.6027 8.90506 24.6011C8.90373 24.6027 8.90239 24.6038 8.90106 24.6053ZM8.9224 24.5839C8.92506 24.5825 8.92505 24.5814 8.92772 24.5798C8.92505 24.5814 8.92506 24.5825 8.9224 24.5839ZM20.1157 20.9825C20.1877 20.9481 20.2544 20.9131 20.3171 20.8773C20.2544 20.9131 20.1877 20.9481 20.1157 20.9825ZM45.5717 8.50007C45.6357 8.46367 45.8424 8.43194 46.1731 8.4038C45.8424 8.43194 45.6357 8.46367 45.5717 8.50007Z" fill="white"/>
<path d="M46.1729 8.40381C47.6155 8.28141 51.4248 8.22408 56.1262 8.22408C51.4248 8.22408 47.6155 8.28141 46.1729 8.40381Z" fill="#F1AEAE"/>
<path d="M150.101 34.375C150.048 34.3375 149.994 34.3005 149.94 34.263L144.044 34.3281C142.002 33.299 140.166 32.5281 139.068 32.187C136.193 31.2922 112.764 26.7067 105.066 24.8605C100.81 23.4922 88.3771 12.2203 83.4277 11.4682C79.8411 10.4922 74.285 9.84687 68.7024 9.60674C67.1144 9.52287 65.5637 9.4818 64.0571 9.4818C62.2571 9.4818 60.5211 9.54007 58.8611 9.6578C55.3024 9.88954 52.4797 10.3671 50.0357 11.011C49.9731 11.0271 49.9077 11.0443 49.8384 11.063C49.3744 11.187 48.9251 11.3177 48.4851 11.4537C47.8184 11.6605 46.6037 12.0766 45.0744 12.6443C42.0877 13.7401 38.3784 15.2521 35.0491 16.9162C32.6797 18.0911 30.4811 19.3469 28.9117 20.575C28.8144 20.651 28.7171 20.7417 28.6304 20.8417C28.1771 21.2151 27.7784 21.5854 27.4464 21.9521C26.2411 23.2829 17.1237 25.351 12.0771 26.8922C11.7837 26.1162 11.0504 25.5963 10.0837 25.5963H8.28906C8.40906 25.3495 8.53039 25.1297 8.65306 24.9375C8.65573 24.9338 8.65838 24.9297 8.66105 24.9245C8.66238 24.9245 8.66239 24.9245 8.66239 24.9245C8.66772 24.9162 8.67305 24.9067 8.67839 24.899L8.67972 24.8979C8.68505 24.8895 8.69039 24.8802 8.69572 24.8723C8.69972 24.8682 8.70106 24.8646 8.70506 24.8605V24.8589C8.7104 24.851 8.71573 24.8433 8.72106 24.8349C8.72239 24.8349 8.7224 24.8338 8.7224 24.8338C8.72506 24.8297 8.72772 24.8255 8.73039 24.8219C8.73039 24.8219 8.73039 24.8219 8.73172 24.8203C8.73706 24.8135 8.74239 24.8057 8.74772 24.7974C8.74772 24.7974 8.74772 24.7963 8.74906 24.7963C8.75172 24.7922 8.75306 24.7886 8.75706 24.7854C8.75706 24.7843 8.75706 24.7843 8.75706 24.7843C8.75973 24.7802 8.76239 24.7777 8.76372 24.7734C8.76505 24.7734 8.76506 24.7723 8.76639 24.7723C8.76906 24.7682 8.77173 24.7641 8.77306 24.7614C8.7744 24.7605 8.77438 24.7605 8.77438 24.7605C8.77971 24.7521 8.78506 24.7458 8.7904 24.7375C8.79173 24.7375 8.79172 24.7365 8.79172 24.7365C8.79438 24.7323 8.79706 24.7297 8.79972 24.7255C8.79972 24.7255 8.79972 24.7245 8.80106 24.7245C8.80372 24.7203 8.80638 24.7177 8.80905 24.7135C8.81038 24.711 8.81305 24.7083 8.81439 24.7057C8.81572 24.7042 8.81706 24.7031 8.81839 24.7015C8.81839 24.7005 8.81973 24.699 8.82106 24.6979C8.82373 24.6938 8.82772 24.6886 8.83172 24.6829C8.83306 24.6818 8.83439 24.6802 8.83573 24.6791C8.85173 24.6605 8.86773 24.6401 8.88639 24.6219C8.89039 24.6162 8.89572 24.611 8.90106 24.6057C8.90239 24.6042 8.90373 24.6031 8.90506 24.6015C8.9104 24.5963 8.91706 24.5895 8.9224 24.5843C8.92506 24.5829 8.92505 24.5818 8.92772 24.5802C10.3877 23.1537 17.6611 22.1854 20.1157 20.9829C20.1877 20.9485 20.2544 20.9135 20.3171 20.8777C20.3624 20.8521 20.4064 20.8271 20.4477 20.8005C29.8344 14.8777 42.2251 10.3589 45.5717 8.50047C45.6357 8.46407 45.8424 8.43233 46.1731 8.4042C47.6157 8.2818 51.4251 8.22447 56.1264 8.22447C67.3437 8.22447 83.6357 8.54687 84.9451 9.05207C91.9664 11.7657 111.505 22.9854 113.352 23.5895H113.35C113.205 23.5427 112.965 23.439 112.644 23.2854C112.645 23.2854 112.646 23.2854 112.648 23.287C112.644 23.2843 112.64 23.2829 112.636 23.2818C112.633 23.2791 112.63 23.2777 112.626 23.2766H112.625C110.24 22.139 103.425 18.339 97.1957 15.0485C93.7931 13.2495 90.5664 11.6042 88.3291 10.6255C88.0891 10.5203 87.8371 10.4255 87.5891 10.3271L100.616 19.5057C102.969 21.1641 105.521 22.5922 106.316 22.6938C106.316 22.6938 112.764 23.4922 113.35 23.5895C113.362 23.5938 113.372 23.5963 113.382 23.599C116.416 23.6963 141.704 29.6365 144.578 30.6495C144.586 30.6521 144.594 30.6553 144.601 30.6578C144.604 30.6589 144.606 30.6589 144.609 30.6605C144.614 30.6614 144.62 30.6641 144.624 30.6657C144.628 30.6671 144.63 30.6682 144.633 30.6698C144.638 30.6709 144.642 30.6723 144.648 30.6734C144.65 30.675 144.654 30.6766 144.657 30.6777C144.661 30.6791 144.666 30.6802 144.67 30.6829C144.673 30.6843 144.677 30.6854 144.681 30.687C144.685 30.6886 144.689 30.6895 144.693 30.6911C144.697 30.6922 144.701 30.6938 144.705 30.6947C144.708 30.6963 144.712 30.6979 144.716 30.699C144.72 30.7005 144.724 30.7015 144.728 30.7042C144.732 30.7057 144.734 30.7067 144.738 30.7067C144.742 30.7094 144.748 30.711 144.752 30.7125C144.754 30.7135 144.757 30.7151 144.76 30.7162C144.765 30.7177 144.77 30.7203 144.774 30.7219C144.777 30.7229 144.78 30.7229 144.782 30.7245C144.788 30.7271 144.793 30.7281 144.798 30.7313C144.8 30.7313 144.801 30.7323 144.802 30.7323C146.426 31.3578 148.342 32.6657 150.101 34.375" fill="#FBEBA8"/>
<path d="M28.6299 20.8413C28.7165 20.7413 28.8139 20.6506 28.9112 20.5746C30.4805 19.3465 32.6792 18.0908 35.0486 16.9158C32.5326 18.1746 30.2352 19.5216 28.6299 20.8413V20.8413ZM45.0739 12.644C46.6032 12.0762 47.8179 11.6601 48.4846 11.4533C48.9246 11.3173 49.3739 11.1866 49.8379 11.0626C48.8259 11.3386 47.1179 11.8934 45.0739 12.644ZM83.4272 11.4678C78.3246 10.4653 73.3525 9.85331 68.7019 9.60638C74.2845 9.84651 79.8406 10.4918 83.4272 11.4678ZM50.0352 11.0106C52.4792 10.3668 55.3019 9.88918 58.8605 9.65744C55.5885 9.88824 52.6152 10.344 50.0405 11.0096C50.0392 11.0096 50.0366 11.0096 50.0352 11.0106Z" fill="#AAAAAA"/>
<path d="M154.944 42.063L154.332 41.963C154.265 41.8537 154.193 41.7433 154.117 41.6323L154.903 41.7766C154.917 41.8734 154.932 41.9698 154.944 42.063V42.063ZM150.531 34.8042H144.968C144.657 34.6401 144.348 34.4802 144.044 34.3281L149.94 34.263C149.995 34.3005 150.048 34.3375 150.101 34.375C150.245 34.5151 150.389 34.6589 150.531 34.8042Z" fill="#DED4A6"/>
<path d="M154.95 41.7852L154.902 41.7764L154.117 41.6321C152.474 39.2456 148.538 36.6852 144.968 34.804H150.53C152.44 36.7628 154.11 39.1852 154.933 41.6977C154.938 41.7278 154.945 41.7576 154.95 41.7852Z" fill="white"/>
<path d="M6.80508 33.1655H6.20508C6.24641 32.9431 6.28907 32.7243 6.33307 32.5055H6.98507C6.92374 32.7202 6.86374 32.9415 6.80508 33.1655" fill="#DED4A6"/>
<path d="M8 26.2559C8.09467 26.02 8.19201 25.8001 8.28934 25.596C8.19201 25.8001 8.096 26.02 8 26.2559Z" fill="#E2E2E3"/>
<path d="M11.4507 27.0884C11.4013 26.9669 11.336 26.8534 11.2547 26.7534C10.9947 26.4336 10.584 26.256 10.0987 26.256H8C8.096 26.0201 8.19201 25.8002 8.28934 25.5961H10.084C11.0507 25.5961 11.784 26.116 12.0773 26.892C11.86 26.9586 11.6507 27.0242 11.4507 27.0884Z" fill="#DED4A6"/>
<path d="M7.6505 30.4458H6.77051C7.14651 28.8067 7.5585 27.3562 7.99984 26.2562H10.0985C10.5838 26.2562 10.9945 26.4338 11.2545 26.7537C11.3358 26.8537 11.4012 26.9671 11.4505 27.0886C10.0572 27.5338 9.0705 27.9271 8.80916 28.2365C8.40116 28.7162 8.0145 29.4818 7.6505 30.4458" fill="#F1AEAE"/>
<path d="M6.98501 32.5054H6.33301C6.47301 31.7944 6.61835 31.1054 6.77035 30.4455H7.65034C7.41834 31.0586 7.19701 31.7534 6.98501 32.5054" fill="#FBD5A8"/>
<path d="M113.382 23.5986C113.372 23.596 113.362 23.5934 113.35 23.5892H113.352C113.362 23.5934 113.373 23.596 113.382 23.5986V23.5986ZM113.35 23.5892C112.764 23.4918 106.316 22.6934 106.316 22.6934C105.521 22.5918 102.969 21.1637 100.616 19.5053L87.5889 10.3268C87.8369 10.4252 88.0889 10.52 88.3289 10.6252C90.5662 11.6038 93.7929 13.2492 97.1955 15.0481C93.8249 13.2668 90.6249 11.6334 88.3902 10.6517L100.673 19.3064C103.009 20.9533 105.54 22.372 106.354 22.4934C106.356 22.4934 106.356 22.4934 106.357 22.4934C106.357 22.4934 106.358 22.4934 106.36 22.4934C106.36 22.4934 106.361 22.4934 106.362 22.4944H106.364C106.366 22.4944 106.37 22.4944 106.373 22.496C106.373 22.496 110.796 23.0424 112.644 23.285C112.965 23.4386 113.205 23.5424 113.35 23.5892" fill="#AAAAAA"/>
<path d="M112.636 23.2817C112.633 23.2791 112.631 23.2776 112.627 23.2765C112.631 23.2776 112.633 23.2791 112.636 23.2817ZM112.625 23.2765C111.385 22.6843 108.948 21.3733 106.023 19.7921C105.432 20.3828 104.843 20.9723 104.252 21.5629C105.199 22.0843 105.971 22.4364 106.355 22.4937C105.54 22.3723 103.009 20.9536 100.673 19.3067C101.003 19.5389 101.335 19.7656 101.667 19.9843L103.32 18.3307C102.263 17.7588 101.181 17.1749 100.087 16.5885C99.6346 17.0389 99.1839 17.4895 98.7333 17.94L100.673 19.3067L88.3906 10.652C90.6253 11.6337 93.8253 13.2671 97.196 15.0484C103.425 18.3389 110.24 22.1389 112.625 23.2765V23.2765ZM106.364 22.4947H106.363H106.364ZM106.36 22.4937C106.359 22.4937 106.357 22.4937 106.357 22.4937C106.357 22.4937 106.359 22.4937 106.36 22.4937Z" fill="#CCE7F1"/>
<path d="M112.643 23.2852C110.795 23.0425 106.373 22.4961 106.373 22.4961C106.37 22.4945 106.366 22.4945 106.363 22.4945C106.366 22.4945 106.37 22.4945 106.373 22.4961C106.373 22.4961 110.795 23.0425 112.643 23.2852Z" fill="#E5E5E5"/>
<path d="M112.648 23.2866C112.644 23.284 112.64 23.2825 112.636 23.2814C112.64 23.2825 112.644 23.284 112.648 23.2866ZM112.626 23.2762H112.625H112.626Z" fill="#FEF9E5"/>
<path d="M106.362 22.4946C106.361 22.4937 106.36 22.4937 106.36 22.4937C106.36 22.4937 106.361 22.4937 106.362 22.4946ZM106.357 22.4937C106.356 22.4937 106.356 22.4937 106.354 22.4937C106.356 22.4937 106.356 22.4937 106.357 22.4937Z" fill="#E5E5E5"/>
<path d="M112.648 23.2866C112.647 23.285 112.645 23.285 112.644 23.285C110.796 23.0424 106.373 22.496 106.373 22.496C106.371 22.4944 106.367 22.4944 106.364 22.4944H106.363C106.361 22.4934 106.36 22.4934 106.36 22.4934C106.359 22.4934 106.357 22.4934 106.357 22.4934C106.356 22.4934 106.356 22.4934 106.355 22.4934C105.971 22.4361 105.199 22.084 104.252 21.5626C104.843 20.972 105.432 20.3825 106.023 19.7918C108.948 21.373 111.385 22.684 112.625 23.2762H112.627C112.631 23.2773 112.633 23.2788 112.636 23.2814C112.64 23.2825 112.644 23.284 112.648 23.2866" fill="#F0F8FB"/>
<path d="M101.667 19.9839C101.335 19.7652 101.003 19.5386 100.673 19.3063L98.7334 17.9396C99.1841 17.4891 99.6348 17.0386 100.087 16.5882C101.181 17.1746 102.263 17.7584 103.32 18.3303L101.667 19.9839" fill="#F0F8FB"/>
<path d="M39.0931 48.6484C39.0931 43.2458 35.3798 38.7083 30.3665 37.452C35.3798 38.7083 39.0931 43.2458 39.0931 48.6484ZM16.0078 48.6484C16.0078 43.2458 19.7212 38.7083 24.7358 37.452C19.7212 38.7083 16.0078 43.2458 16.0078 48.6484Z" fill="#353535"/>
<path d="M39.0598 49.3203C38.7091 43.2588 33.6985 38.4484 27.5505 38.4484C21.4025 38.4484 16.3918 43.2588 16.0425 49.3203C16.0291 49.0963 16.0078 48.875 16.0078 48.6484C16.0078 43.2458 19.7212 38.7083 24.7358 37.452C25.6358 37.2255 26.5798 37.1067 27.5505 37.1067C28.5212 37.1067 29.4652 37.2255 30.3665 37.452C35.3798 38.7083 39.0931 43.2458 39.0931 48.6484C39.0931 48.875 39.0718 49.0963 39.0598 49.3203" fill="#515152"/>
<path d="M27.2944 59.2734C22.001 59.2734 17.7437 55.1109 17.6104 49.8203L17.6277 49.4937C17.9237 54.6271 22.1104 58.6203 27.2944 58.6203C27.3784 58.6203 27.465 58.6187 27.5504 58.6161C28.8597 58.5828 30.1104 58.299 31.2544 57.8099C34.0864 56.663 36.2664 54.2417 37.081 51.2578C37.2944 50.5313 37.429 49.7724 37.4743 48.9922L37.4904 49.3177C37.3557 54.7005 32.9624 59.1339 27.5504 59.2708C27.465 59.2724 27.3797 59.2734 27.2944 59.2734" fill="#515152"/>
<path d="M31.2539 57.8096C34.0499 56.6148 36.2152 54.1986 37.0806 51.2575C36.2659 54.2413 34.0859 56.6627 31.2539 57.8096Z" fill="#373D43"/>
<path d="M114.354 49.3203C114.341 49.0963 114.319 48.875 114.319 48.6484C114.319 42.2734 119.487 37.1067 125.862 37.1067C125.873 37.1067 125.883 37.1067 125.894 37.1067C119.533 37.1228 114.382 42.2843 114.382 48.6484C114.382 48.7323 114.383 48.8162 114.385 48.899C114.373 49.039 114.362 49.1791 114.354 49.3203" fill="#353535"/>
<path d="M137.37 49.3203C137.02 43.2588 132.01 38.4484 125.862 38.4484C119.857 38.4484 114.937 43.039 114.385 48.899C114.383 48.8162 114.382 48.7323 114.382 48.6484C114.382 42.2843 119.533 37.1228 125.894 37.1067C132.254 37.1228 137.404 42.2843 137.404 48.6484C137.404 48.875 137.383 49.0963 137.37 49.3203Z" fill="#515152"/>
<path d="M125.606 59.2734C120.313 59.2734 116.055 55.1109 115.922 49.8203L115.938 49.4937C116.235 54.6271 120.422 58.6203 125.606 58.6203C125.69 58.6203 125.777 58.6187 125.862 58.6161C126.865 58.5911 127.833 58.4187 128.745 58.1187C132.681 56.9495 135.59 53.3911 135.793 49.1255L135.802 49.3177C135.667 54.7005 131.274 59.1339 125.862 59.2708C125.777 59.2724 125.691 59.2734 125.606 59.2734Z" fill="#515152"/>
<path d="M128.745 58.1187C132.654 56.8374 135.541 53.2348 135.786 48.9921L135.793 49.1254C135.59 53.3911 132.681 56.9494 128.745 58.1187" fill="#373D43"/>
<path d="M54.961 7.48986L52.2858 2.18503C52.1614 1.93832 51.8389 1.93832 51.7145 2.18503L49.0393 7.48986C48.0237 9.74055 48.9518 12.0788 50.8539 12.7893C51.1764 12.9165 51.523 12.9908 51.8867 12.9991C51.9119 12.9997 51.9371 13 51.9625 13H51.9625C51.9751 13 51.9876 12.9995 52.0001 12.9994C52.0127 12.9995 52.0252 13 52.0378 13H52.0378C52.0631 13 52.0884 12.9997 52.1135 12.9991C52.4773 12.9908 52.8239 12.9165 53.1464 12.7893C55.0648 12.0727 55.9715 9.72929 54.961 7.48986Z" fill="#56544D"/>
<path d="M50.6996 8.10868L51.95 2.20031C51.9673 2.11869 52.0069 2.05288 52.0587 2.0057C51.9291 1.98027 51.7876 2.03991 51.7145 2.18493L49.0393 7.48978C48.0237 9.74047 48.9518 12.0787 50.8539 12.7893C51.1764 12.9164 51.523 12.9907 51.8868 12.999C51.9119 12.9996 51.9371 12.9999 51.9625 12.9999C51.9751 12.9999 51.9876 12.9994 52.0001 12.9993C52.0127 12.9994 52.0252 12.9999 52.0378 12.9999H52.0378C52.0631 12.9999 52.0883 12.9996 52.1135 12.999C52.4773 12.9907 52.8239 12.9164 53.1464 12.7893C53.2691 12.7434 53.3876 12.6908 53.5018 12.6322C51.6322 12.3722 50.3024 10.4697 50.6996 8.10868Z" fill="#3F3E3B"/>
</svg>
