<svg width="160" height="49" viewBox="0 0 160 49" fill="none" xmlns="http://www.w3.org/2000/svg">
<path d="M159.569 46.2093C159.569 47.672 124.287 48.8586 80.7659 48.8586C37.2451 48.8586 1.96387 47.672 1.96387 46.2093C1.96387 44.7453 37.2451 43.5586 80.7659 43.5586C124.287 43.5586 159.569 44.7453 159.569 46.2093Z" fill="black" fill-opacity="0.3"/>
<path d="M6.54937 9.9174C6.54937 9.9174 1.71135 14.4188 1.73739 18.4414C1.74469 19.5494 2.14781 24.2467 1.46031 25.3467C0.772805 26.4467 -0.674595 27.4814 0.362912 29.7134C-0.0495946 32.4641 0.146765 35.7667 3.72125 37.2787C7.29572 38.7907 20.5717 40.3001 44.9056 40.7121C69.2395 41.1241 114.332 41.1241 115.432 41.2627C116.532 41.4001 146.639 41.9494 149.939 41.5374C153.237 41.1241 155.835 41.4761 155.697 39.4134C155.56 37.3521 154.812 35.7254 153.925 32.1881C153.852 31.8947 153.161 30.9881 151.888 29.6454C153.967 29.6454 141.213 20.6961 137.84 19.0587C129.503 15.0134 125.231 13.6881 106.771 12.6801C102.38 12.4401 101.959 12.7321 101.959 12.7321C99.2931 12.2081 97.4275 11.6081 95.6348 10.6041C92.8968 9.07076 71.0493 -0.231919 60.578 0.430748C41.0561 1.66808 21.2592 8.40542 18.0973 8.40542C16.0035 8.40542 5.35406 6.00407 6.54937 9.9174" fill="#D60606"/>
<path d="M149.939 38.1454C146.639 38.5587 116.531 38.0081 115.431 37.8708C114.332 37.7334 69.2393 37.7334 44.9054 37.3214C20.5715 36.9081 9.3049 35.5254 5.73042 34.0134C3.60906 33.1147 0.672606 31.4601 0.352299 29.7907C-0.0451006 32.5241 0.17938 35.7801 3.72105 37.2787C7.29553 38.7907 20.5715 40.3001 44.9054 40.7121C69.2393 41.1241 114.332 41.1241 115.431 41.2627C116.531 41.4001 146.639 41.9494 149.939 41.5374C153.237 41.1241 155.835 41.4761 155.697 39.4134C155.647 38.6454 155.511 37.9388 155.315 37.1708C154.484 37.9561 152.408 37.8374 149.939 38.1454" fill="#341115"/>
<path d="M122.288 21.2014C114.38 21.2014 107.97 27.612 107.97 35.52C107.97 37.5334 108.389 39.448 109.139 41.1867C112.872 41.208 115.193 41.232 115.432 41.2627C116.058 41.34 126.085 41.552 135.216 41.644C136.099 39.7854 136.607 37.7147 136.607 35.52C136.607 27.612 130.196 21.2014 122.288 21.2014" fill="#200000"/>
<path d="M49.7753 29.6587C47.5966 24.6281 42.0185 18.2347 30.8825 18.2347C22.9748 18.2347 14.1789 26.0707 15.6226 36.3814C15.8622 38.092 18.168 39.5494 18.168 39.5494C31.2617 40.6307 101.615 39.6814 108.147 37.7707C83.8805 36.3814 52.3294 35.5574 49.7753 29.6587" fill="#341115"/>
<path d="M45.9231 34.6413C45.9231 26.7333 39.5127 20.3226 31.6048 20.3226C23.6971 20.3226 17.2861 26.7333 17.2861 34.6413C17.2861 36.368 17.608 38.016 18.1679 39.5493C24.7507 40.092 33.5043 40.5133 44.5611 40.7053C45.4257 38.8627 45.9231 36.812 45.9231 34.6413Z" fill="#200000"/>
<path d="M101.958 12.732C99.6579 12.24 97.2657 11.5173 95.6345 10.604C92.8965 9.07067 69.499 -0.630668 59.0272 0.0333316C39.5058 1.27066 21.2589 8.40534 18.097 8.40534C17.6918 8.40534 40.948 5.77466 59.7532 12.46C69.0324 15.76 97.9845 13.6347 101.958 12.732" fill="#341115"/>
<path d="M84.3181 14.036C84.3181 14.036 80.9962 10.4853 67.3149 5.58799C61.5883 3.53866 58.7894 3.74932 52.5274 4.01332C36.1921 8.04932 44.9842 8.79865 55.1639 12.4187C62.2233 14.9307 74.0566 14.576 80.3263 14.22C83.4009 14.0467 85.1373 13.872 84.3181 14.036Z" fill="#200000"/>
<path d="M66.9877 4.84935C61.7399 3.32535 57.6888 3.18402 52.5273 4.01335C53.2221 6.83202 54.22 9.64536 55.1639 12.4187C55.3144 12.4707 55.4653 12.5227 55.6175 12.5734C64.0071 15.3574 76.492 14.8853 82.6909 14.412C85.1112 14.228 86.5737 14.044 86.4591 14.0534C86.4591 14.0534 81.5904 9.08802 66.9877 4.84935" fill="#80C2DC"/>
<path d="M86.4434 14.0559H86.4684V14.0491H86.4434V14.0559Z" fill="#F3B4B4"/>
<path d="M86.4557 14.0493C86.4532 14.0466 86.4489 14.0427 86.4432 14.0373C86.4489 14.0427 86.4532 14.0466 86.4557 14.0493ZM68.2308 5.21865C68.226 5.21732 68.2219 5.21598 68.2177 5.21465C68.2219 5.21598 68.226 5.21732 68.2308 5.21865ZM68.2 5.20934C67.8036 5.08934 67.4 4.96932 66.988 4.84932C66.9579 4.83998 66.9276 4.83199 66.8975 4.82266C66.9276 4.83199 66.9579 4.83998 66.988 4.84932C67.4 4.96932 67.8036 5.08934 68.2 5.20934Z" fill="#C2B7B8"/>
<path d="M71.9455 14.7561C71.4944 14.7508 71.0419 14.7428 70.5845 14.7294C72.6965 12.6174 74.8085 10.5054 76.92 8.39344C77.2517 8.53877 77.5648 8.68277 77.8767 8.82544L71.9455 14.7561V14.7561ZM75.2007 14.7548L80.0689 9.88677C80.4652 10.0894 80.8408 10.2894 81.1965 10.4841C80.7105 10.9441 80.4075 11.5988 80.4075 12.3228C80.4075 13.2414 80.8933 14.0441 81.62 14.4881C79.8137 14.6094 77.6105 14.7188 75.2007 14.7548V14.7548ZM67.4725 14.5868C66.8591 14.5481 66.2444 14.5028 65.6315 14.4481L73.1919 6.8881C73.6876 7.0721 74.1569 7.25612 74.6209 7.43879L67.4725 14.5868V14.5868ZM85.3741 14.1748C85.6356 14.0428 85.8835 13.8934 86.1037 13.7308C86.2933 13.8934 86.4043 13.9988 86.4433 14.0375C86.4491 14.0428 86.4533 14.0468 86.4559 14.0494C86.4585 14.0521 86.4595 14.0534 86.4595 14.0534H86.46C86.4627 14.0534 86.4643 14.0534 86.4652 14.0534C86.4684 14.0534 86.4605 14.0548 86.4433 14.0561C86.3501 14.0694 85.9772 14.1135 85.3741 14.1748V14.1748ZM62.7053 14.1201C60.808 13.8628 58.9616 13.5174 57.2465 13.0548L65.7761 4.52544C66.1465 4.62011 66.5163 4.71477 66.8976 4.82277C66.9277 4.8321 66.958 4.8401 66.9881 4.84943C67.4001 4.96943 67.8037 5.08946 68.2001 5.20946C68.2059 5.21079 68.2121 5.21343 68.2179 5.21476C68.222 5.2161 68.2261 5.21743 68.2309 5.21877C69.1209 5.48943 69.9725 5.76412 70.7876 6.03745L62.7053 14.1201V14.1201ZM55.0283 12.0201C54.7939 11.3321 54.5591 10.6428 54.3252 9.9521C56.4335 7.8441 58.5419 5.73611 60.6496 3.62677C61.4537 3.69744 62.2684 3.81077 63.0955 3.9521L55.0283 12.0201" fill="#D9EDF4"/>
<path d="M95.2108 13.5159C98.5353 13.3239 101.035 12.9412 101.959 12.7319C99.6588 12.2399 97.2665 11.5186 95.6353 10.6039C93.3348 9.31589 77.5452 2.54389 66.3457 0.805224C81.8873 5.72389 95.2108 13.5159 95.2108 13.5159Z" fill="#80C2DC"/>
<path d="M108.792 21.7733C106.176 24.0747 102.024 25.8693 99.5197 25.7826L51.2962 24.1146C50.5993 24.0906 53.8774 24.1173 59.0488 24.1427C72.4722 24.2107 98.6534 24.28 101.181 23.468C102.612 23.008 104.708 21.9467 106.771 19.472C108.254 17.6907 58.2681 15.6946 60.7722 15.7813C60.7722 15.7813 94.3978 15.5533 108.996 17.4493C111.481 17.772 111.409 19.472 108.792 21.7733" fill="#EA454B"/>
<path d="M105.676 18.8466C105.469 18.8213 105.254 18.796 105.036 18.7706C105.748 19.204 105.415 20.1106 104.039 21.2546C102.798 22.2866 99.2387 23.428 97.7471 23.8253C98.2871 23.8933 100.716 23.7333 101.568 23.5626C103.017 23.144 104.285 22.5626 105.475 21.5733C107.22 20.1226 107.294 19.0506 105.676 18.8466" fill="#341115"/>
<path d="M9.26192 20.6668L4.05566 19.6721L7.97233 20.9801C8.9416 21.3027 9.99473 22.8174 10.3604 24.3734L11.2078 27.9854C11.5729 29.5414 10.9734 30.9467 10.0505 30.8201L4.35254 29.5881L10.8759 31.5748C14.0245 32.2054 14.0531 30.7014 13.6223 28.8654L12.6223 24.6054C12.1917 22.7694 10.6869 21.0054 9.26192 20.6668" fill="#EA454B"/>
<path d="M8.02441 20.6147L4.05566 19.6721L6.73536 20.9281C7.70462 21.2521 8.75774 22.7654 9.12285 24.3227L9.97025 27.9334C10.3359 29.4894 9.91088 30.6534 8.98744 30.5267L4.22493 29.5614L10.5848 31.5254C12.0098 31.864 12.816 30.6494 12.3848 28.8134L11.3854 24.5534C10.9541 22.7174 9.44941 20.9534 8.02441 20.6147Z" fill="#341115"/>
<path d="M1.72363 17.2026L4.88718 17.6453C6.74707 17.9053 9.28822 16.4759 10.5627 14.4519C11.8371 12.4279 11.3622 10.5773 9.50229 10.3159L6.38301 9.87992L6.39134 9.91726C6.39134 9.91726 2.49915 13.5493 1.72363 17.2026" fill="#341115"/>
<path d="M8.14271 10.3372L6.20833 10.0946C5.45156 10.8092 2.49844 13.7532 1.88281 16.7199L3.77969 16.9586C5.64896 17.1932 8.14063 15.9012 9.34532 14.0732C10.55 12.2452 10.0115 10.5719 8.14271 10.3372" fill="#F43B3B"/>
<path d="M8.92038 13.0667C8.92038 11.7174 7.70163 10.6427 5.99538 10.2987C5.77558 10.5147 5.47767 10.8174 5.14017 11.1894C6.50475 11.3307 7.52454 12.124 7.52454 13.1467C7.52454 14.336 6.14746 15.38 4.44798 15.4787C3.68027 15.5227 2.98653 15.3587 2.44746 15.064C2.28965 15.404 2.15475 15.752 2.0459 16.1014C2.74017 16.372 3.56308 16.5067 4.44798 16.456C6.9183 16.3134 8.92038 14.796 8.92038 13.0667" fill="#D60606"/>
<path d="M18.9321 8.31191C18.3493 8.36658 18.0493 8.40527 18.0979 8.40527C18.3088 8.40527 18.5916 8.37058 18.9321 8.31191Z" fill="#80C2DC"/>
<path d="M155.25 36.9319C154.92 35.6919 154.45 34.2759 153.926 32.1879C153.854 31.8999 153.115 30.9452 151.888 29.6452H147.739C146.372 29.6452 145.756 30.7532 146.362 32.1199L147.398 34.4572C148.004 35.8239 149.603 36.9319 150.97 36.9319H155.25Z" fill="#341115"/>
<path d="M18.9365 8.31079C23.5647 7.50012 39.7511 1.57744 57.3151 0.156104C39.7745 1.57477 23.6021 7.48679 18.95 8.30946C18.9453 8.30946 18.9412 8.31079 18.9365 8.31079V8.31079ZM18.9453 8.31079C18.9469 8.30946 18.9484 8.30946 18.95 8.30946C18.9885 8.30546 19.0292 8.30278 19.0703 8.29878C19.0693 8.29878 19.0683 8.29878 19.0667 8.29878C19.0656 8.29878 19.0647 8.29878 19.0636 8.29878C19.0631 8.29878 19.0631 8.29878 19.0625 8.29878C19.0224 8.30278 18.9828 8.30679 18.9453 8.31079Z" fill="white"/>
<path d="M19.0664 8.29858C19.068 8.29858 19.0691 8.29858 19.07 8.29858C20.1587 8.19858 22.1081 8.05192 24.6664 7.96525C24.6648 7.96658 24.6628 7.96659 24.6612 7.96659C22.1472 8.05192 20.2237 8.19325 19.1273 8.29325C19.1071 8.29458 19.0867 8.29725 19.0664 8.29858Z" fill="#EB8383"/>
<path d="M57.3154 0.156006C57.3722 0.152006 57.4296 0.148025 57.4858 0.142692C57.429 0.148025 57.3728 0.152006 57.3154 0.156006ZM57.4905 0.142692C57.5082 0.141359 57.5244 0.140021 57.5421 0.138688C57.5244 0.140021 57.5082 0.141359 57.4905 0.142692ZM57.5509 0.137354C57.5676 0.13602 57.5806 0.136018 57.5973 0.134684C57.5821 0.136018 57.566 0.13602 57.5509 0.137354ZM57.6097 0.13335C57.6244 0.132016 57.6394 0.130679 57.6534 0.129346C57.6394 0.130679 57.6244 0.132016 57.6097 0.13335ZM57.666 0.129346C57.6806 0.128012 57.6936 0.126675 57.7077 0.125342C57.6936 0.126675 57.6806 0.128012 57.666 0.129346ZM57.7269 0.124007C57.7378 0.122674 57.7509 0.122671 57.7624 0.121338C57.7514 0.122671 57.7378 0.122674 57.7269 0.124007ZM57.7832 0.120003C57.7946 0.11867 57.8056 0.118667 57.8165 0.117334C57.8045 0.118667 57.7952 0.11867 57.7832 0.120003ZM57.8405 0.115999C57.8514 0.114666 57.8624 0.11333 57.8733 0.11333C57.8613 0.11333 57.8525 0.114666 57.8405 0.115999ZM57.8941 0.111995C57.9056 0.110662 57.917 0.109359 57.928 0.109359C57.9176 0.109359 57.905 0.110662 57.8941 0.111995ZM57.9514 0.106689C57.9624 0.106689 57.9738 0.105355 57.9848 0.105355C57.9738 0.105355 57.9624 0.106689 57.9514 0.106689ZM58.005 0.102686C58.0176 0.102686 58.029 0.10135 58.041 0.100016C58.029 0.10135 58.017 0.102686 58.005 0.102686ZM58.0618 0.0986816C58.0758 0.0973483 58.0889 0.0973457 58.1034 0.0960124C58.0889 0.0973457 58.0758 0.0973483 58.0618 0.0986816ZM58.1154 0.0946777C58.1274 0.0946777 58.1389 0.0933418 58.1514 0.0920085C58.1394 0.0933418 58.1274 0.0946777 58.1154 0.0946777ZM58.1744 0.0906738C58.191 0.0893405 58.2088 0.0880033 58.2254 0.0866699C58.2088 0.0880033 58.191 0.0893405 58.1744 0.0906738ZM58.228 0.0866699C58.2468 0.0853366 58.264 0.0839994 58.2826 0.082666C58.2649 0.0839994 58.2457 0.0853366 58.228 0.0866699ZM58.2978 0.0813314C58.3124 0.0813314 58.3258 0.0799954 58.3405 0.0786621C58.3264 0.0799954 58.3124 0.0813314 58.2978 0.0813314ZM58.352 0.0786621C58.366 0.0773288 58.379 0.0760241 58.3936 0.0746908C58.3806 0.0760241 58.3649 0.0773288 58.352 0.0786621ZM58.4149 0.0733561C58.4269 0.0733561 58.4389 0.0720202 58.4509 0.0706869C58.4378 0.0720202 58.428 0.0733561 58.4149 0.0733561ZM58.4692 0.0693522C58.4816 0.0693522 58.4925 0.0680176 58.5045 0.0680176C58.4925 0.0680176 58.4812 0.0693522 58.4692 0.0693522ZM58.528 0.0653483C58.5389 0.0653483 58.5493 0.0640137 58.5602 0.0640137C58.5498 0.0640137 58.5389 0.0653483 58.528 0.0653483ZM58.5858 0.0613444C58.5946 0.0613444 58.6034 0.0613431 58.6124 0.0600098C58.603 0.0613431 58.5952 0.0613444 58.5858 0.0613444ZM58.6421 0.0586751C58.6509 0.0573418 58.6602 0.0573392 58.6692 0.0560059C58.6597 0.0573392 58.6514 0.0573418 58.6421 0.0586751ZM58.6968 0.0546712C58.7056 0.0533379 58.7154 0.0533353 58.7244 0.052002C58.7149 0.0533353 58.7066 0.0533379 58.6968 0.0546712ZM58.7514 0.0506673C58.7613 0.0506673 58.7722 0.0493327 58.7826 0.0493327C58.7728 0.0493327 58.7608 0.0506673 58.7514 0.0506673ZM58.8066 0.0466634C58.8176 0.0466634 58.8285 0.0453288 58.8394 0.0453288C58.8285 0.0453288 58.817 0.0466634 58.8066 0.0466634ZM58.8608 0.0440267C58.8728 0.0426934 58.8864 0.0426908 58.8982 0.0413574C58.8853 0.0426908 58.8738 0.0426934 58.8608 0.0440267ZM58.9165 0.0400228C58.9312 0.0386895 58.9482 0.0386869 58.9624 0.0373535C58.9473 0.0386869 58.9321 0.0386895 58.9165 0.0400228ZM58.9712 0.0360189C58.9905 0.0346856 59.0088 0.0346829 59.0274 0.0333496C59.0088 0.0346829 58.9905 0.0346856 58.9712 0.0360189Z" fill="white"/>
<path d="M93.4764 13.6494C91.263 12.8187 69.2379 1.70142 62.927 1.32542C62.4406 1.29609 61.9302 1.28275 61.3963 1.28275C51.0608 1.28275 32.2488 6.4801 24.6666 7.96543C22.1083 8.0521 20.1588 8.19876 19.0702 8.29876C19.0291 8.30276 18.9884 8.30544 18.9499 8.30944C23.602 7.48677 39.7744 1.57475 57.315 0.156088H57.3155C57.3728 0.152088 57.4291 0.148108 57.4859 0.142774C57.4868 0.142774 57.4895 0.142774 57.4906 0.142774C57.5083 0.141441 57.5244 0.140104 57.5422 0.13877C57.5442 0.13877 57.5488 0.137436 57.551 0.137436C57.566 0.136102 57.5822 0.1361 57.5974 0.134766C57.601 0.133433 57.6067 0.133432 57.6098 0.133432C57.6244 0.132098 57.6395 0.130761 57.6535 0.129428C57.6583 0.129428 57.6619 0.129428 57.666 0.129428C57.6807 0.128095 57.6936 0.126757 57.7078 0.125424C57.7146 0.125424 57.7202 0.124089 57.727 0.124089C57.7379 0.122756 57.7515 0.122753 57.7624 0.12142C57.7687 0.12142 57.777 0.120085 57.7832 0.120085C57.7952 0.118752 57.8046 0.11875 57.8166 0.117416C57.8255 0.116083 57.8316 0.116082 57.8406 0.116082C57.8526 0.114748 57.8614 0.113412 57.8734 0.113412C57.8802 0.112079 57.8879 0.112078 57.8942 0.112078C57.9051 0.110744 57.9176 0.109441 57.928 0.109441C57.9359 0.108108 57.9436 0.108105 57.9515 0.106772C57.9624 0.106772 57.9739 0.105437 57.9848 0.105437C57.9916 0.104104 57.9988 0.104101 58.0051 0.102768C58.0171 0.102768 58.0291 0.101432 58.0411 0.100098C58.0479 0.100098 58.0551 0.100097 58.0619 0.0987638C58.0759 0.0974305 58.089 0.0974279 58.1035 0.0960946C58.1067 0.0960946 58.1124 0.0947599 58.1155 0.0947599C58.1275 0.0947599 58.1395 0.093424 58.1515 0.0920907C58.1592 0.0920907 58.1666 0.0920893 58.1744 0.090756C58.1911 0.0894227 58.2088 0.0880854 58.2255 0.0867521C58.2264 0.0867521 58.227 0.0867521 58.228 0.0867521C58.2458 0.0854188 58.265 0.0840815 58.2827 0.0827482C58.2874 0.0827482 58.2936 0.0827469 58.2979 0.0814136C58.3124 0.0814136 58.3264 0.0800776 58.3406 0.0787443C58.3436 0.0787443 58.3483 0.0787443 58.352 0.0787443C58.365 0.077411 58.3807 0.0761063 58.3936 0.0747729C58.3999 0.0747729 58.4083 0.0747716 58.415 0.0734383C58.428 0.0734383 58.4379 0.0721024 58.451 0.070769C58.4567 0.070769 58.464 0.0707677 58.4692 0.0694344C58.4812 0.0694344 58.4926 0.0680998 58.5046 0.0680998C58.5124 0.0667664 58.5202 0.0667638 58.528 0.0654305C58.539 0.0654305 58.5499 0.0640959 58.5603 0.0640959C58.5682 0.0627625 58.578 0.0627599 58.5859 0.0614266C58.5952 0.0614266 58.6031 0.0614253 58.6124 0.060092C58.6223 0.060092 58.6322 0.0587573 58.6422 0.0587573C58.6515 0.057424 58.6598 0.0574214 58.6692 0.056088C58.6791 0.056088 58.6868 0.0547534 58.6968 0.0547534C58.7067 0.0534201 58.715 0.0534175 58.7244 0.0520841C58.7332 0.0520841 58.7422 0.0520828 58.7515 0.0507495C58.7608 0.0507495 58.7728 0.0494149 58.7827 0.0494149C58.7916 0.0480815 58.7979 0.0480789 58.8067 0.0467456C58.8171 0.0467456 58.8286 0.045411 58.8395 0.045411C58.8463 0.0440776 58.854 0.0441089 58.8608 0.0441089C58.8739 0.0427756 58.8854 0.0427729 58.8983 0.0414396C58.9051 0.0414396 58.9098 0.040105 58.9166 0.040105C58.9322 0.0387716 58.9474 0.038769 58.9624 0.0374357C58.966 0.0374357 58.9682 0.0374344 58.9712 0.0361011C58.9906 0.0347677 59.0088 0.0347651 59.0275 0.0334318C59.3739 0.0107651 59.7322 9.84698e-05 60.1051 9.84698e-05C63.3234 9.84698e-05 67.5015 0.793415 71.8624 1.94941C69.9578 1.47208 68.0952 1.07744 66.3452 0.805437C81.8103 5.7001 95.0786 13.4401 95.2092 13.5161C94.654 13.5614 94.0755 13.6054 93.4764 13.6494V13.6494ZM18.9316 8.31208C18.9332 8.31074 18.9354 8.31078 18.9364 8.31078C18.9411 8.31078 18.9452 8.30944 18.9499 8.30944C18.9483 8.30944 18.9468 8.30944 18.9452 8.31078C18.9406 8.31078 18.9364 8.31074 18.9316 8.31208Z" fill="#9A888A"/>
<path d="M101.958 12.7319C101.494 12.6319 101.026 12.5239 100.562 12.4066C101.026 12.5239 101.494 12.6319 101.958 12.7319Z" fill="white"/>
<path d="M101.959 12.7319C99.6674 12.2413 97.2851 11.5239 95.6543 10.6146C96.9548 11.3399 98.733 11.9426 100.562 12.4066C101.027 12.5239 101.494 12.6319 101.959 12.7319" fill="#9A888A"/>
<path d="M95.2097 13.5159C95.079 13.4399 81.8108 5.69989 66.3457 0.805224C68.0957 1.07722 69.9582 1.47187 71.8629 1.9492C82.2936 4.71454 93.7686 9.55856 95.6353 10.6039C95.6421 10.6079 95.6484 10.6119 95.6545 10.6145C97.2853 11.5239 99.6676 12.2412 101.959 12.7319C101.957 12.7319 101.955 12.7319 101.952 12.7332H101.951C100.974 12.9546 98.5093 13.2465 95.2097 13.5159Z" fill="#C0E1EE"/>
<path d="M0.362534 29.7188L0.363054 29.7134C-0.654652 27.5254 0.717734 26.4868 1.41931 25.4108C0.717734 26.4868 -0.654132 27.5254 0.363054 29.7134C0.362534 29.7147 0.362534 29.7174 0.362534 29.7188Z" fill="white"/>
<path d="M4.69357 32.876C2.5795 32.4973 0.311274 30.092 0.383661 29.7853L0.3597 29.7413L0.362314 29.7186C0.362314 29.7173 0.362314 29.7146 0.362834 29.7133C-0.654353 27.5253 0.717514 26.4866 1.41909 25.4106C1.43314 25.3893 1.44721 25.3679 1.46023 25.3466C1.77585 24.8413 1.86179 23.5786 1.86127 22.2533C1.86127 20.6906 1.74147 19.04 1.73731 18.4413C1.7347 18.0386 1.79199 17.632 1.8769 17.2253L3.83887 17.4986C3.12013 18.772 2.57169 20.18 2.55033 21.5333C2.44199 28.528 -0.049673 30.144 4.69357 32.876" fill="#EB8383"/>
<path d="M151.888 29.6453C153.967 29.6453 141.214 20.6959 137.84 19.0586C141.214 20.6959 153.967 29.6453 151.888 29.6453ZM6.54532 9.90262L6.38281 9.87993L6.54532 9.90262ZM18.0975 8.40529C18.1011 8.40529 18.1041 8.40529 18.1073 8.40396C18.1079 8.40396 18.1079 8.40396 18.1079 8.40396C18.1041 8.40529 18.1011 8.40529 18.0975 8.40529ZM18.0975 8.40529C18.0907 8.40529 18.0839 8.40396 18.0765 8.40396C18.0839 8.40396 18.0907 8.40529 18.0975 8.40529ZM18.1099 8.40396C18.1115 8.40396 18.1125 8.40396 18.1141 8.40396C18.1147 8.40396 18.1156 8.40396 18.1167 8.40396C18.1172 8.40396 18.1183 8.40396 18.1188 8.40396C18.1156 8.40396 18.1131 8.40396 18.1099 8.40396ZM18.1208 8.40396C18.124 8.40396 18.1271 8.40396 18.1303 8.40396C18.1271 8.40396 18.124 8.40396 18.1208 8.40396ZM18.1313 8.40396C18.3615 8.40129 18.6751 8.36395 19.0625 8.29862C19.0636 8.29862 19.0647 8.29862 19.0656 8.29862C18.676 8.36395 18.3625 8.40129 18.1313 8.40396Z" fill="white"/>
<path d="M151.888 29.6453H148.831C145.315 26.8933 139.781 23.1546 137.729 22.1519C129.448 18.1053 125.205 16.7826 106.87 15.7733C105.6 15.7026 104.665 15.6786 103.976 15.6786C102.302 15.6786 102.091 15.8253 102.091 15.8253C101.217 16.0253 98.8507 16.2346 95.5939 16.4026C83.948 15.8453 70.3813 15.7733 64.1793 15.7733C62.0361 15.7733 60.772 15.7813 60.772 15.7813C60.7195 15.7799 60.6903 15.7786 60.6829 15.7786C60.5345 15.7786 69.9616 16.1666 80.3304 16.7493C70.0736 16.7253 59.1433 16.1746 54.5288 14.5226C45.8023 11.3986 37.7365 10.6053 31.4345 10.6053C25.9845 10.6053 21.8532 11.1986 19.7585 11.3919C19.3537 11.4613 19.0309 11.4986 18.7991 11.4986C17.6532 11.4986 13.9277 10.7693 11.0116 10.7693C10.8772 10.7693 10.7449 10.7706 10.6147 10.7733C10.3309 10.54 9.95796 10.3799 9.50172 10.3159L6.54494 9.90262H6.54598C6.02358 8.15729 7.87202 7.67596 10.2585 7.67596C13.1767 7.67596 16.8996 8.39596 18.0761 8.40396C18.0835 8.40396 18.0903 8.40529 18.0971 8.40529C18.1007 8.40529 18.1037 8.40529 18.1075 8.40396C18.1085 8.40396 18.1089 8.40396 18.1095 8.40396C18.1127 8.40396 18.1152 8.40396 18.1184 8.40396C18.1189 8.40396 18.1199 8.40396 18.1204 8.40396C18.1236 8.40396 18.1267 8.40396 18.1299 8.40396C18.1304 8.40396 18.1304 8.40396 18.1309 8.40396C18.3621 8.40129 18.6756 8.36395 19.0652 8.29862C19.0861 8.29728 19.1064 8.29461 19.1272 8.29328C20.0272 8.21328 21.3647 8.15461 23.0543 8.15461C30.072 8.15461 43.1741 9.16262 56.3157 13.8346C59.1772 14.852 64.2335 15.2239 69.9788 15.2239C73.9371 15.2239 78.2236 15.0466 82.3403 14.7853C82.5267 14.8293 82.7215 14.8533 82.922 14.8533C83.2575 14.8533 83.6709 14.7866 84.1043 14.6666C91.1673 14.1706 97.508 13.4519 100.515 12.9893C101.144 12.8946 101.629 12.8053 101.941 12.736C101.942 12.7346 101.943 12.7346 101.943 12.7346C101.945 12.7346 101.948 12.7346 101.949 12.7333C101.95 12.7333 101.95 12.7333 101.951 12.7333C101.951 12.7333 101.952 12.7333 101.953 12.7333C101.954 12.732 101.956 12.732 101.959 12.732C101.959 12.732 102.17 12.5853 103.856 12.5853C104.549 12.5853 105.492 12.6093 106.77 12.6799C125.23 13.6879 129.502 15.0133 137.84 19.0586C141.213 20.6959 153.967 29.6453 151.888 29.6453" fill="#EB8383"/>
<path d="M1.72363 17.2026C1.85489 16.4626 2.12415 15.724 2.46999 15.016C2.29655 15.3853 2.14759 15.7613 2.03197 16.1413C1.90385 16.492 1.79915 16.848 1.72363 17.2026ZM5.7929 10.5C6.15749 10.128 6.39134 9.91729 6.39134 9.91729C6.39134 9.91729 6.32415 9.97997 6.20541 10.0973C6.10333 10.1933 5.96218 10.3293 5.7929 10.5Z" fill="white"/>
<path d="M18.0977 8.40527C18.1013 8.40527 18.1043 8.40527 18.1075 8.40394C18.1043 8.40527 18.1013 8.40527 18.0977 8.40527ZM18.1143 8.40394C18.1149 8.40394 18.1158 8.40394 18.1169 8.40394C18.1158 8.40394 18.1149 8.40394 18.1143 8.40394Z" fill="#9A888A"/>
<path d="M100.515 12.9893C101.144 12.8919 101.627 12.8053 101.941 12.7359C101.629 12.8053 101.144 12.8946 100.515 12.9893ZM101.943 12.7346C101.945 12.7346 101.948 12.7346 101.949 12.7333C101.948 12.7346 101.945 12.7346 101.943 12.7346ZM101.953 12.7333C101.954 12.7319 101.956 12.7319 101.959 12.7319C101.956 12.7319 101.954 12.7319 101.953 12.7333Z" fill="#C0E1EE"/>
<path d="M81.0574 16.7507C80.8151 16.7507 80.5735 16.7507 80.3308 16.7494C69.962 16.1667 60.535 15.7787 60.6834 15.7787C60.6907 15.7787 60.7199 15.7801 60.7724 15.7814C60.7724 15.7814 62.0366 15.7734 64.1798 15.7734C70.3818 15.7734 83.9484 15.8454 95.5943 16.4028C91.6823 16.6068 86.4886 16.7507 81.0574 16.7507" fill="#F5A2A5"/>
<path d="M3.83926 17.4988L1.87729 17.2254L1.72363 17.2028C1.79915 16.8481 1.90385 16.4921 2.03197 16.1415C1.97311 16.3335 1.92311 16.5268 1.88301 16.7201L3.77989 16.9588C3.89811 16.9734 4.01947 16.9828 4.14238 16.9854C4.03874 17.1534 3.93718 17.3254 3.83926 17.4988V17.4988ZM9.41322 10.8641C9.10593 10.5908 8.67937 10.4055 8.1429 10.3375L6.20853 10.0948C6.20749 10.0961 6.20645 10.0961 6.20541 10.0974C6.32415 9.98011 6.39134 9.91743 6.39134 9.91743L6.38301 9.88009L6.54551 9.90278L9.50229 10.3161C9.95853 10.3801 10.3314 10.5401 10.6152 10.7735C10.1887 10.7841 9.78457 10.8134 9.41322 10.8641" fill="#9A888A"/>
<path d="M4.14219 16.9854C4.01928 16.9827 3.89792 16.9734 3.77969 16.9587L1.88281 16.72C1.92292 16.5267 1.97292 16.3334 2.03177 16.1414C2.1474 15.7614 2.29636 15.3853 2.4698 15.016C3.21043 13.5013 4.30261 12.128 5.14636 11.1894C6.08281 11.288 6.85573 11.6934 7.2474 12.2694C7.22084 12.4867 7.24584 12.732 7.32969 13.0107C7.32969 13.0107 6.34584 13.9494 5.27084 15.3534C5.00937 15.4187 4.73333 15.4613 4.44844 15.4787C4.36563 15.4827 4.28333 15.4854 4.20209 15.4854C3.53229 15.4854 2.92865 15.3267 2.44792 15.064C2.29011 15.404 2.15521 15.752 2.04636 16.1014C2.64376 16.3347 3.33595 16.4667 4.08125 16.4667C4.20261 16.4667 4.325 16.4627 4.44844 16.456C4.45989 16.4547 4.47136 16.4547 4.48281 16.4534C4.36719 16.6267 4.25365 16.804 4.14219 16.9854V16.9854ZM8.03855 11.252C7.525 10.7987 6.81667 10.464 5.99584 10.2987C5.91667 10.3774 5.82709 10.4667 5.72917 10.5654C5.75052 10.544 5.77188 10.5214 5.79271 10.5C5.96199 10.3294 6.10313 10.1934 6.20521 10.0974C6.20625 10.096 6.20729 10.096 6.20833 10.0947L8.14271 10.3374C8.67917 10.4054 9.10573 10.5907 9.41302 10.864C8.8724 10.94 8.40209 11.064 8.03855 11.252Z" fill="#FA9D9D"/>
<path d="M4.08079 16.4666C3.33549 16.4666 2.6433 16.3346 2.0459 16.1012C2.15475 15.7519 2.28965 15.4039 2.44746 15.0639C2.92819 15.3266 3.53183 15.4852 4.20163 15.4852C4.28287 15.4852 4.36516 15.4825 4.44798 15.4785C4.73287 15.4612 5.00891 15.4185 5.27038 15.3532C5.00891 15.6945 4.74172 16.0639 4.48235 16.4532C4.4709 16.4545 4.45943 16.4545 4.44798 16.4559C4.32454 16.4625 4.20215 16.4666 4.08079 16.4666V16.4666ZM7.24694 12.2692C6.85527 11.6932 6.08235 11.2879 5.1459 11.1892C5.35943 10.9519 5.55683 10.7426 5.72871 10.5652C5.82663 10.4666 5.9162 10.3772 5.99538 10.2986C6.8162 10.4639 7.52454 10.7985 8.03809 11.2519C7.58965 11.4839 7.30371 11.8132 7.24694 12.2692" fill="#EB8383"/>
<path d="M18.0977 8.40527C18.1013 8.40527 18.1043 8.40527 18.1075 8.40394C18.1043 8.40527 18.1013 8.40527 18.0977 8.40527Z" fill="#C0E1EE"/>
<path d="M101.951 12.7334H101.951C101.952 12.7334 101.952 12.7334 101.953 12.7334C101.952 12.7334 101.951 12.7334 101.951 12.7334ZM19.0654 8.29873C19.066 8.29873 19.066 8.29873 19.0665 8.29873C19.0868 8.2974 19.1072 8.29473 19.1274 8.29339C19.1066 8.29473 19.0864 8.2974 19.0654 8.29873Z" fill="#F5C1C1"/>
<path d="M101.951 12.7334C101.954 12.7321 101.956 12.7321 101.959 12.7321C101.956 12.7321 101.954 12.7321 101.953 12.7334C101.952 12.7334 101.952 12.7334 101.951 12.7334Z" fill="#E0F0F7"/>
<path d="M87.0255 12.3226C87.0255 13.7199 84.3108 14.8533 82.9223 14.8533C81.5332 14.8533 80.4072 13.7199 80.4072 12.3226C80.4072 10.9253 81.5332 9.79328 82.9223 9.79328C84.3108 9.79328 87.0255 10.9253 87.0255 12.3226" fill="#200000"/>
<path d="M82.8128 12.3013C82.0472 12.3013 81.3773 11.9026 80.9883 11.3026C81.3211 10.5213 82.092 9.97327 82.9915 9.97327C83.7926 9.97327 85.0992 10.4093 85.8858 11.0573C85.1342 11.7919 83.6784 12.3013 82.8128 12.3013" fill="#908080"/>
<path d="M44.6225 34.6933C44.6225 41.8386 38.8304 47.6306 31.6851 47.6306C24.5392 47.6306 18.7471 41.8386 18.7471 34.6933C18.7471 27.5479 24.5392 21.7546 31.6851 21.7546C38.8304 21.7546 44.6225 27.5479 44.6225 34.6933Z" fill="#070000"/>
<path d="M37.2971 38.428C34.6127 41.1133 34.9752 36.3986 32.2908 33.7133C29.6064 31.0293 24.8913 31.392 27.5761 28.7066C30.26 26.0226 34.6127 26.0226 37.2971 28.7066C39.9819 31.392 39.9819 35.744 37.2971 38.428" fill="#D60606"/>
<path d="M36.6434 41.8521L34.1018 38.3468L33.8502 36.7695L35.4267 37.0201L38.9163 39.5508C38.3095 40.4534 37.5362 41.2321 36.6434 41.8521V41.8521ZM34.6038 41.4974L35.383 42.5721C35.1966 42.6601 35.007 42.7414 34.8138 42.8161L34.6038 41.4974ZM30.1627 43.2641L30.8554 38.9134L31.7929 37.6214L32.7305 38.9148L33.4185 43.2308C32.8581 43.3441 32.2783 43.4055 31.6846 43.4055C31.1649 43.4055 30.6581 43.3508 30.1627 43.2641V43.2641ZM28.9825 41.4974L28.7601 42.8908C28.5529 42.8174 28.3471 42.7388 28.1471 42.6494L28.9825 41.4974ZM24.5278 39.6534L28.1591 37.0201L29.7357 36.7695L29.4846 38.3454L26.8705 41.9508C25.9513 41.3401 25.157 40.5588 24.5278 39.6534V39.6534ZM26.8513 27.4468L29.4846 31.0788L29.7357 32.6548L28.1586 32.4028L24.5095 29.7574C25.1371 28.8468 25.9315 28.0614 26.8513 27.4468ZM28.9825 27.9268L28.1267 26.7468C28.3315 26.6548 28.5419 26.5734 28.7549 26.4974L28.9825 27.9268ZM33.4242 26.1561L32.7305 30.5095L31.7929 31.8028L30.8559 30.5108L30.157 26.1241C30.6538 26.0361 31.1627 25.9814 31.6846 25.9814C32.2805 25.9814 32.8622 26.0414 33.4242 26.1561V26.1561ZM34.6038 27.9268L34.8195 26.5721C35.0179 26.6495 35.2122 26.7334 35.4034 26.8241L34.6038 27.9268ZM38.9325 29.8614L35.4273 32.4041L33.8502 32.6548L34.1018 31.0775L36.6611 27.5481C37.5543 28.1721 38.3273 28.9548 38.9325 29.8614V29.8614ZM39.857 31.6974L38.5783 31.9014L39.6325 31.1375C39.7149 31.3201 39.7871 31.5081 39.857 31.6974V31.6974ZM23.7929 31.0214L25.007 31.9014L23.5247 31.6654C23.6065 31.4454 23.695 31.2308 23.7929 31.0214ZM23.1362 36.3588C23.0319 35.8201 22.9731 35.2628 22.9731 34.6934C22.9731 34.1361 23.031 33.5921 23.131 33.0641L27.5909 33.7748L28.8835 34.7121L27.5909 35.6494L23.1362 36.3588ZM23.5377 37.7561L25.0075 37.5228L23.8065 38.3934C23.7086 38.1854 23.6195 37.9734 23.5377 37.7561ZM35.9945 35.6494L34.7023 34.7121L35.9955 33.7748L40.2439 33.0974C40.3403 33.6161 40.3966 34.1481 40.3966 34.6934C40.3966 35.2521 40.3387 35.7961 40.2382 36.3254L35.9945 35.6494ZM39.619 38.2775L38.5778 37.5228L39.8434 37.7241C39.7742 37.9108 39.7007 38.0961 39.619 38.2775V38.2775ZM31.6846 24.6988C26.1653 24.6988 21.6914 29.1734 21.6914 34.6934C21.6914 40.2121 26.1653 44.6868 31.6846 44.6868C37.2043 44.6868 41.6789 40.2121 41.6789 34.6934C41.6789 29.1734 37.2043 24.6988 31.6846 24.6988Z" fill="#DCDFE2"/>
<path d="M28.51 28.3293L29.6001 27.8786L29.9996 30.384L28.51 28.3293ZM33.984 27.8773L35.0756 28.3293L33.5851 30.384L33.984 27.8773ZM38.1752 31.4293L38.6261 32.52L36.1209 32.9186L38.1752 31.4293ZM24.958 32.52L25.41 31.4293L27.4647 32.92L24.958 32.52ZM24.9585 36.904L27.4637 36.5053L25.41 37.9946L24.9585 36.904ZM36.1199 36.5053L38.6261 36.904L38.1752 37.9946L36.1199 36.5053ZM31.7919 36.216L30.3397 38.22L30.7299 35.776L28.2851 36.1653L30.2887 34.712L28.2829 33.2586L30.7299 33.648L30.3397 31.204L31.7919 33.208L33.2455 31.204L32.8569 33.648L35.3001 33.2586L33.2965 34.712L35.2991 36.1653L32.8569 35.776L33.2455 38.22L31.7919 36.216ZM28.5095 41.0946L29.9996 39.04L29.6012 41.5466L28.5095 41.0946ZM33.5851 39.04L35.0756 41.0946L33.9845 41.5466L33.5851 39.04" fill="#CBCFD1"/>
<path d="M31.6843 23.5905C38.3302 23.5905 43.7431 28.8052 44.0931 35.3625C44.1051 35.1399 44.127 34.9185 44.127 34.6932C44.127 27.8212 38.5567 22.2505 31.6843 22.2505C24.813 22.2505 19.2422 27.8212 19.2422 34.6932C19.2422 34.9185 19.2641 35.1399 19.2759 35.3625C19.6259 28.8052 25.039 23.5905 31.6843 23.5905" fill="#262626"/>
<path d="M31.685 44.7346C26.3074 44.7346 21.9271 40.516 21.6438 35.208C21.6345 35.3893 21.6162 35.5679 21.6162 35.7506C21.6162 41.3119 26.1241 45.8186 31.685 45.8186C37.2454 45.8186 41.7533 41.3119 41.7533 35.7506C41.7533 35.5679 41.7355 35.3893 41.7257 35.208C41.4423 40.516 37.0621 44.7346 31.685 44.7346Z" fill="#262626"/>
<path d="M135.344 34.6933C135.344 41.8386 129.552 47.6306 122.407 47.6306C115.261 47.6306 109.469 41.8386 109.469 34.6933C109.469 27.5479 115.261 21.7546 122.407 21.7546C129.552 21.7546 135.344 27.5479 135.344 34.6933Z" fill="#070000"/>
<path d="M128.02 38.428C125.336 41.1133 125.698 36.3986 123.013 33.7133C120.329 31.0293 115.614 31.392 118.299 28.7066C120.983 26.0226 125.335 26.0226 128.02 28.7066C130.704 31.392 130.704 35.744 128.02 38.428" fill="#D60606"/>
<path d="M127.365 41.8521L124.823 38.3468L124.572 36.7695L126.148 37.0201L129.639 39.5508C129.031 40.4534 128.258 41.2321 127.365 41.8521V41.8521ZM125.326 41.4974L126.105 42.5721C125.918 42.6601 125.729 42.7414 125.535 42.8161L125.326 41.4974ZM120.884 43.2641L121.578 38.9134L122.515 37.6214L123.452 38.9148L124.14 43.2308C123.58 43.3441 123 43.4055 122.407 43.4055C121.887 43.4055 121.38 43.3508 120.884 43.2641V43.2641ZM119.704 41.4974L119.482 42.8908C119.275 42.8174 119.069 42.7388 118.869 42.6494L119.704 41.4974ZM115.249 39.6534L118.881 37.0201L120.458 36.7695L120.206 38.3454L117.592 41.9508C116.673 41.3401 115.879 40.5588 115.249 39.6534ZM117.573 27.4468L120.206 31.0788L120.458 32.6548L118.88 32.4028L115.231 29.7574C115.859 28.8468 116.653 28.0614 117.573 27.4468ZM119.704 27.9268L118.848 26.7468C119.054 26.6548 119.264 26.5734 119.477 26.4974L119.704 27.9268ZM124.146 26.1561L123.452 30.5095L122.515 31.8028L121.578 30.5108L120.879 26.1241C121.376 26.0361 121.884 25.9814 122.407 25.9814C123.003 25.9814 123.584 26.0414 124.146 26.1561V26.1561ZM125.326 27.9268L125.541 26.5721C125.74 26.6495 125.934 26.7334 126.125 26.8241L125.326 27.9268ZM129.654 29.8614L126.149 32.4041L124.572 32.6548L124.823 31.0775L127.383 27.5481C128.276 28.1721 129.049 28.9548 129.654 29.8614V29.8614ZM130.579 31.6974L129.3 31.9014L130.354 31.1375C130.437 31.3201 130.51 31.5081 130.579 31.6974ZM114.515 31.0214L115.729 31.9014L114.247 31.6654C114.328 31.4454 114.417 31.2308 114.515 31.0214ZM113.858 36.3588C113.754 35.8201 113.695 35.2628 113.695 34.6934C113.695 34.1361 113.753 33.5921 113.853 33.0641L118.313 33.7748L119.605 34.7121L118.313 35.6494L113.858 36.3588ZM114.26 37.7561L115.729 37.5228L114.529 38.3934C114.431 38.1854 114.341 37.9734 114.26 37.7561ZM126.717 35.6494L125.424 34.7121L126.717 33.7748L130.966 33.0974C131.062 33.6161 131.119 34.1481 131.119 34.6934C131.119 35.2521 131.06 35.7961 130.96 36.3254L126.717 35.6494ZM130.341 38.2775L129.3 37.5228L130.566 37.7241C130.496 37.9108 130.422 38.0961 130.341 38.2775V38.2775ZM122.407 24.6988C116.887 24.6988 112.413 29.1734 112.413 34.6934C112.413 40.2121 116.887 44.6868 122.407 44.6868C127.926 44.6868 132.4 40.2121 132.4 34.6934C132.4 29.1734 127.926 24.6988 122.407 24.6988Z" fill="#DCDFE2"/>
<path d="M119.233 28.3293L120.323 27.8786L120.722 30.384L119.233 28.3293ZM124.707 27.8773L125.798 28.3293L124.308 30.384L124.707 27.8773ZM128.898 31.4293L129.349 32.52L126.844 32.9186L128.898 31.4293ZM115.681 32.52L116.133 31.4293L118.187 32.92L115.681 32.52ZM115.682 36.904L118.187 36.5053L116.133 37.9946L115.682 36.904ZM126.843 36.5053L129.349 36.904L128.898 37.9946L126.843 36.5053ZM122.515 36.216L121.062 38.22L121.453 35.776L119.008 36.1653L121.012 34.712L119.006 33.2586L121.453 33.648L121.062 31.204L122.515 33.208L123.968 31.204L123.58 33.648L126.023 33.2586L124.02 34.712L126.022 36.1653L123.58 35.776L123.968 38.22L122.515 36.216ZM119.232 41.0946L120.722 39.04L120.324 41.5466L119.232 41.0946ZM124.308 39.04L125.798 41.0946L124.708 41.5466L124.308 39.04" fill="#CBCFD1"/>
<path d="M122.407 23.5907C129.052 23.5907 134.465 28.8053 134.815 35.364C134.827 35.14 134.849 34.9187 134.849 34.6933C134.849 27.8213 129.278 22.2507 122.407 22.2507C115.535 22.2507 109.964 27.8213 109.964 34.6933C109.964 34.9187 109.986 35.14 109.998 35.364C110.348 28.8053 115.761 23.5907 122.407 23.5907Z" fill="#262626"/>
<path d="M122.407 44.7346C117.03 44.7346 112.65 40.516 112.366 35.208C112.357 35.3893 112.339 35.5679 112.339 35.7506C112.339 41.3119 116.847 45.8186 122.407 45.8186C127.968 45.8186 132.475 41.3119 132.475 35.7506C132.475 35.5679 132.458 35.3893 132.447 35.208C132.165 40.516 127.785 44.7346 122.407 44.7346Z" fill="#262626"/>
<path d="M108.147 37.7708C94.0682 36.9641 77.5354 36.3481 65.6379 34.8214C57.1999 33.5427 50.7176 31.8334 49.776 29.6587C47.8056 25.1094 43.0536 16.9147 29.6556 16.9147C28.239 16.9147 26.7264 17.0068 25.1094 17.2041C27.6416 16.6974 29.9807 16.4534 32.1422 16.4534C41.4228 16.4534 47.439 20.9374 51.5051 28.3388C54.5479 33.8774 83.675 34.3201 108.147 37.7708Z" fill="#EB8383"/>
<path d="M106.168 37.7893C97.2529 37.7893 78.9966 36.8453 65.6377 34.8213C77.5352 36.348 94.068 36.964 108.147 37.7707C107.554 37.7827 106.891 37.7893 106.168 37.7893V37.7893Z" fill="#9A888A"/>
<path d="M106.529 37.6799L106.711 37.6333C95.0704 36.968 81.76 36.4293 70.7715 35.4C81.5258 36.472 94.7679 37.0253 106.529 37.6799Z" fill="#341115"/>
<path d="M15.5605 35.8813C15.0652 35.828 14.5871 35.7747 14.1288 35.72C13.0512 25.6707 21.6741 18.0974 29.4471 18.0974C30.4933 18.0974 31.4777 18.168 32.4267 18.276C31.9247 18.2494 31.4095 18.2347 30.8824 18.2347C30.8673 18.2347 30.8517 18.2347 30.8365 18.2347C30.8345 18.2347 30.8313 18.2347 30.8299 18.2347C30.8241 18.2347 30.8189 18.2347 30.8132 18.2347C30.8116 18.2347 30.8095 18.2347 30.808 18.2347C30.8023 18.2347 30.7965 18.2347 30.7908 18.2347C30.7861 18.2347 30.7813 18.2347 30.7761 18.2347C30.7736 18.2347 30.7709 18.2347 30.7679 18.2347C30.7632 18.2347 30.7589 18.2347 30.7543 18.2347C30.7512 18.2347 30.748 18.2347 30.7449 18.2347C30.7408 18.2347 30.7371 18.2347 30.7329 18.236C30.7293 18.236 30.7256 18.236 30.7215 18.236C30.7179 18.236 30.7132 18.236 30.7095 18.236C30.7053 18.236 30.7028 18.236 30.6985 18.236C30.6949 18.236 30.6908 18.236 30.6871 18.236C30.6829 18.236 30.6793 18.236 30.6756 18.236C30.6715 18.236 30.6673 18.236 30.6632 18.236C30.66 18.236 30.6564 18.236 30.6528 18.236C30.6485 18.2374 30.6444 18.2374 30.6403 18.2374C30.6365 18.2374 30.6329 18.2374 30.6299 18.2374C30.6252 18.2374 30.6209 18.2374 30.6157 18.2374C30.6132 18.2374 30.61 18.2374 30.6069 18.2374C30.6028 18.2374 30.598 18.2374 30.5939 18.2374C30.5903 18.2387 30.5876 18.2387 30.584 18.2387C30.5788 18.2387 30.5747 18.2387 30.5699 18.2387C30.5668 18.2387 30.5643 18.2387 30.5611 18.2387C30.5564 18.2387 30.5517 18.2387 30.5471 18.2387C30.5439 18.2387 30.5408 18.2387 30.5381 18.24C30.5329 18.24 30.5277 18.24 30.5231 18.24C30.5209 18.24 30.5179 18.24 30.5152 18.24C30.5105 18.24 30.5053 18.24 30.5007 18.24C30.4976 18.24 30.4949 18.2414 30.4923 18.2414C30.4871 18.2414 30.4819 18.2414 30.4761 18.2414C30.4747 18.2414 30.4715 18.2414 30.4695 18.2414C30.4643 18.2414 30.4589 18.2414 30.4537 18.2427C30.4512 18.2427 30.4491 18.2427 30.4465 18.2427C30.4413 18.2427 30.4351 18.2427 30.4299 18.2427C30.4277 18.2427 30.4256 18.2427 30.4241 18.2427C30.4184 18.244 30.4127 18.244 30.4069 18.244C30.4048 18.244 30.4028 18.244 30.4012 18.244C30.3955 18.244 30.3887 18.244 30.3829 18.2453C30.3813 18.2453 30.3799 18.2453 30.3788 18.2453C30.372 18.2453 30.3663 18.2453 30.36 18.2453C30.3585 18.2453 30.3569 18.2453 30.3553 18.2453C30.3485 18.2467 30.3428 18.2467 30.3361 18.2467C30.3351 18.2467 30.334 18.2467 30.3329 18.2467C30.3261 18.2467 30.3204 18.248 30.3137 18.248C30.3127 18.248 30.3111 18.248 30.3095 18.248C30.3032 18.248 30.2965 18.248 30.2903 18.2494C30.2892 18.2494 30.2881 18.2494 30.2876 18.2494C30.2809 18.2494 30.2736 18.2494 30.2668 18.2507C30.2657 18.2507 30.2657 18.2507 30.2647 18.2507C22.6537 18.6374 14.4933 26.084 15.5605 35.8813" fill="#EB8383"/>
<path d="M15.5681 35.8826C15.566 35.8826 15.5635 35.8812 15.5613 35.8812C14.4941 26.0839 22.6545 18.6372 30.2655 18.2506C22.6551 18.6372 14.502 26.0852 15.5681 35.8826ZM32.5968 18.2959C32.0379 18.2612 31.4728 18.2346 30.8832 18.2346C31.4103 18.2346 31.9255 18.2493 32.4275 18.2759C32.4837 18.2826 32.5405 18.2892 32.5968 18.2959ZM30.2676 18.2506C30.2744 18.2492 30.2817 18.2492 30.2884 18.2492C30.2817 18.2492 30.2744 18.2492 30.2676 18.2506ZM30.2911 18.2492C30.2973 18.2479 30.304 18.2479 30.3103 18.2479C30.304 18.2479 30.2973 18.2479 30.2911 18.2492ZM30.3145 18.2479C30.3212 18.2479 30.3269 18.2466 30.3337 18.2466C30.3275 18.2466 30.3207 18.2479 30.3145 18.2479ZM30.3369 18.2466C30.3436 18.2466 30.3493 18.2466 30.3561 18.2452C30.3493 18.2466 30.3436 18.2466 30.3369 18.2466ZM30.3608 18.2452C30.3671 18.2452 30.3728 18.2452 30.3796 18.2452C30.3733 18.2452 30.3671 18.2452 30.3608 18.2452ZM30.3837 18.2452C30.3895 18.2439 30.3963 18.2439 30.402 18.2439C30.3957 18.2439 30.3895 18.2439 30.3837 18.2452ZM30.4077 18.2439C30.4135 18.2439 30.4192 18.2439 30.4249 18.2426C30.4192 18.2439 30.4135 18.2439 30.4077 18.2439ZM30.4307 18.2426C30.4359 18.2426 30.4421 18.2426 30.4473 18.2426C30.4421 18.2426 30.4359 18.2426 30.4307 18.2426ZM30.4545 18.2426C30.4597 18.2413 30.4651 18.2413 30.4703 18.2413C30.4651 18.2413 30.4597 18.2413 30.4545 18.2426ZM30.4769 18.2413C30.4827 18.2413 30.4879 18.2413 30.4931 18.2413C30.4879 18.2413 30.4821 18.2413 30.4769 18.2413ZM30.5015 18.2399C30.5061 18.2399 30.5113 18.2399 30.516 18.2399C30.5108 18.2399 30.5061 18.2399 30.5015 18.2399ZM30.5239 18.2399C30.5285 18.2399 30.5337 18.2399 30.5389 18.2399C30.5337 18.2399 30.5291 18.2399 30.5239 18.2399ZM30.5479 18.2386C30.5525 18.2386 30.5572 18.2386 30.5619 18.2386C30.5572 18.2386 30.5525 18.2386 30.5479 18.2386ZM30.5707 18.2386C30.5755 18.2386 30.5796 18.2386 30.5848 18.2386C30.5801 18.2386 30.5749 18.2386 30.5707 18.2386ZM30.5947 18.2373C30.5988 18.2373 30.6036 18.2373 30.6077 18.2373C30.6036 18.2373 30.5988 18.2373 30.5947 18.2373ZM30.6165 18.2373C30.6217 18.2373 30.626 18.2373 30.6307 18.2373C30.626 18.2373 30.6217 18.2373 30.6165 18.2373ZM30.6411 18.2373C30.6452 18.2373 30.6493 18.2373 30.6536 18.2359C30.6493 18.2373 30.6452 18.2373 30.6411 18.2373ZM30.664 18.2359C30.6681 18.2359 30.6723 18.2359 30.6764 18.2359C30.6723 18.2359 30.6681 18.2359 30.664 18.2359ZM30.6879 18.2359C30.6916 18.2359 30.6957 18.2359 30.6993 18.2359C30.6957 18.2359 30.6916 18.2359 30.6879 18.2359ZM30.7103 18.2359C30.714 18.2359 30.7187 18.2359 30.7223 18.2359C30.7187 18.2359 30.714 18.2359 30.7103 18.2359ZM30.7337 18.2359C30.7379 18.2346 30.7416 18.2346 30.7457 18.2346C30.7416 18.2346 30.7379 18.2346 30.7337 18.2359ZM30.7551 18.2346C30.7597 18.2346 30.764 18.2346 30.7687 18.2346C30.764 18.2346 30.7597 18.2346 30.7551 18.2346ZM30.7769 18.2346C30.7821 18.2346 30.7869 18.2346 30.7916 18.2346C30.7869 18.2346 30.7821 18.2346 30.7769 18.2346ZM30.8088 18.2346C30.8103 18.2346 30.8124 18.2346 30.814 18.2346C30.8124 18.2346 30.8103 18.2346 30.8088 18.2346ZM30.8307 18.2346C30.8321 18.2346 30.8353 18.2346 30.8373 18.2346C30.8353 18.2346 30.8327 18.2346 30.8307 18.2346Z" fill="#9A888A"/>
<path d="M136.592 34.876C136.26 27.3866 130.176 21.3933 122.65 21.2066H122.65C122.635 21.2053 122.621 21.2053 122.606 21.2053C122.605 21.2053 122.604 21.2053 122.603 21.2053C122.589 21.2053 122.575 21.204 122.56 21.204C122.559 21.204 122.559 21.204 122.558 21.204C122.544 21.204 122.53 21.204 122.515 21.204C122.515 21.2026 122.513 21.2026 122.513 21.2026C122.498 21.2026 122.484 21.2026 122.47 21.2026C122.469 21.2026 122.469 21.2026 122.468 21.2026C122.453 21.2026 122.438 21.2026 122.425 21.2026C122.424 21.2026 122.423 21.2026 122.422 21.2026C122.408 21.2026 122.394 21.2013 122.379 21.2013C122.379 21.2013 122.378 21.2013 122.377 21.2013C122.363 21.2013 122.348 21.2013 122.333 21.2013H122.333C122.318 21.2013 122.303 21.2013 122.288 21.2013C122.273 21.2013 122.258 21.2013 122.244 21.2013C122.243 21.2013 122.243 21.2013 122.243 21.2013C122.228 21.2013 122.213 21.2013 122.199 21.2013C122.199 21.2013 122.198 21.2013 122.197 21.2013C122.183 21.2013 122.169 21.2026 122.155 21.2026C122.153 21.2026 122.153 21.2026 122.152 21.2026C122.138 21.2026 122.124 21.2026 122.11 21.2026C122.109 21.2026 122.108 21.2026 122.107 21.2026C122.092 21.2026 122.079 21.2026 122.065 21.2026C122.063 21.2026 122.063 21.2026 122.062 21.2026C122.048 21.204 122.034 21.204 122.019 21.204C122.019 21.204 122.018 21.204 122.017 21.204C122.003 21.204 121.989 21.204 121.974 21.2053C121.973 21.2053 121.973 21.2053 121.972 21.2053C121.958 21.2053 121.944 21.2053 121.929 21.2053C121.913 21.2066 121.898 21.2066 121.884 21.2066C114.435 21.4133 108.408 27.3093 107.993 34.7026C107.982 34.5493 107.97 34.396 107.97 34.24C107.97 26.332 114.38 19.9213 122.288 19.9213C130.196 19.9213 136.607 26.332 136.607 34.24C136.607 34.4533 136.601 34.6653 136.592 34.876" fill="#EB8383"/>
<path d="M136.582 35.0547C136.338 27.484 130.234 21.3947 122.65 21.2067C130.176 21.3934 136.26 27.3867 136.592 34.876C136.589 34.9347 136.586 34.9947 136.582 35.0547V35.0547ZM108.002 34.872C108 34.8147 107.996 34.7587 107.992 34.7027C108.408 27.3094 114.435 21.4134 121.883 21.2067C114.381 21.4147 108.337 27.4 108.002 34.872ZM121.883 21.2067C121.898 21.2067 121.913 21.2067 121.928 21.2054C121.913 21.2067 121.898 21.2067 121.883 21.2067ZM122.65 21.2067C122.634 21.2054 122.62 21.2054 122.605 21.2054C122.62 21.2054 122.634 21.2054 122.65 21.2067ZM121.928 21.2054C121.943 21.2054 121.957 21.2054 121.972 21.2054C121.957 21.2054 121.943 21.2054 121.928 21.2054ZM122.603 21.2054C122.59 21.2054 122.574 21.204 122.56 21.204C122.575 21.204 122.589 21.2054 122.603 21.2054ZM121.974 21.2054C121.989 21.204 122.003 21.204 122.017 21.204C122.003 21.204 121.988 21.204 121.974 21.2054ZM122.558 21.204C122.544 21.204 122.529 21.204 122.515 21.204C122.53 21.204 122.544 21.204 122.558 21.204ZM122.019 21.204C122.033 21.204 122.048 21.204 122.062 21.2027C122.048 21.204 122.033 21.204 122.019 21.204ZM122.513 21.2027C122.498 21.2027 122.484 21.2027 122.47 21.2027C122.484 21.2027 122.498 21.2027 122.513 21.2027ZM122.064 21.2027C122.079 21.2027 122.092 21.2027 122.106 21.2027C122.092 21.2027 122.078 21.2027 122.064 21.2027ZM122.467 21.2027C122.453 21.2027 122.439 21.2027 122.425 21.2027C122.438 21.2027 122.453 21.2027 122.467 21.2027ZM122.109 21.2027C122.124 21.2027 122.138 21.2027 122.152 21.2027C122.137 21.2027 122.124 21.2027 122.109 21.2027ZM122.422 21.2027C122.407 21.2027 122.393 21.2014 122.379 21.2014C122.393 21.2014 122.407 21.2027 122.422 21.2027ZM122.155 21.2027C122.169 21.2027 122.183 21.2014 122.197 21.2014C122.183 21.2014 122.169 21.2027 122.155 21.2027ZM122.377 21.2014C122.363 21.2014 122.348 21.2014 122.333 21.2014C122.348 21.2014 122.363 21.2014 122.377 21.2014ZM122.199 21.2014C122.213 21.2014 122.228 21.2014 122.242 21.2014C122.228 21.2014 122.214 21.2014 122.199 21.2014ZM122.332 21.2014C122.317 21.2014 122.303 21.2014 122.288 21.2014C122.273 21.2014 122.258 21.2014 122.243 21.2014C122.258 21.2014 122.273 21.2014 122.288 21.2014C122.303 21.2014 122.317 21.2014 122.332 21.2014Z" fill="#908080"/>
<g clip-path="url(#clip0)">
<path d="M126.553 34.488L123.343 28.2187C123.193 27.9271 122.806 27.9271 122.657 28.2187L119.447 34.488C118.228 37.1479 119.342 39.9113 121.624 40.751C122.011 40.9013 122.427 40.9891 122.864 40.999C122.894 40.9996 122.924 41 122.955 41H122.955C122.97 41 122.985 40.9994 123 40.9992C123.015 40.9994 123.03 41 123.045 41H123.045C123.076 41 123.106 40.9996 123.136 40.999C123.573 40.9891 123.989 40.9013 124.376 40.751C126.678 39.9041 127.766 37.1346 126.553 34.488Z" fill="#56544D"/>
<path d="M121.439 35.2196L122.94 28.237C122.961 28.1405 123.008 28.0627 123.07 28.007C122.915 27.9769 122.745 28.0474 122.657 28.2188L119.447 34.4882C118.228 37.1481 119.342 39.9115 121.624 40.7512C122.011 40.9015 122.427 40.9893 122.864 40.9991C122.894 40.9998 122.924 41.0001 122.955 41.0001C122.97 41.0001 122.985 40.9995 123 40.9994C123.015 40.9995 123.03 41.0001 123.045 41.0001H123.045C123.076 41.0001 123.106 40.9998 123.136 40.9991C123.573 40.9893 123.988 40.9015 124.375 40.7512C124.523 40.697 124.665 40.6349 124.802 40.5655C122.558 40.2583 120.963 38.0099 121.439 35.2196Z" fill="#3F3E3B"/>
</g>
<defs>
<clipPath id="clip0">
<rect width="12" height="13" fill="white" transform="translate(117 28)"/>
</clipPath>
</defs>
</svg>
