<svg width="59" height="52" viewBox="0 0 59 52" fill="none" xmlns="http://www.w3.org/2000/svg">
<path d="M56.3095 15.5856C55.9825 15.1479 55.5625 14.6932 55.4142 14.6932L4.48624 24.1284C-1.19765 39.1339 9.94306 39.1339 14.9446 35.9509C18.1609 58.2685 37.8363 53.2652 39.8761 41.9996C42.8162 50.091 54.315 43.3183 50.1858 36.4565C57.4248 45.8583 63.8442 30.073 53.5418 30.073C58.9382 25.3789 58.3199 23.56 58.3199 21.3832C58.3205 19.2442 57.233 16.7394 56.3095 15.5856Z" fill="#C1D8D5"/>
<path d="M12.1035 25.8335H30.292V33.3362H21.1977L12.1035 29.5849V25.8335Z" fill="#AAC5C1"/>
<rect x="29.1543" y="32.8816" width="9.54894" height="7.27539" fill="#AAC5C1"/>
<path d="M28.1857 48.7505C27.7088 48.7505 27.2193 48.7281 26.7176 48.6802C27.219 48.7281 27.707 48.7505 28.1836 48.7505C32.1098 48.7502 35.1888 47.2239 37.2272 45.7755C35.1892 47.2266 32.1114 48.7505 28.1857 48.7505ZM27.7449 45.733C24.5134 45.733 25.3198 42.1954 25.3198 42.1954C25.3198 42.1954 24.2509 42.872 22.5997 42.872C21.4705 42.872 20.0685 42.5552 18.5506 41.489C14.8735 38.9029 16.7682 32.504 16.8288 32.2978C16.7594 32.3718 14.487 34.8081 11.1216 34.8081C9.94385 34.8081 8.63247 34.5095 7.23438 33.7074C2.85399 31.1941 3.87861 26.0076 4.45155 24.0612C4.48793 24.0251 4.50611 24.0069 4.50611 24.0069L4.47883 23.9736C4.40608 23.8887 4.19388 23.6307 3.91802 23.2336C2.54176 21.251 -0.43509 15.81 4.50611 11.275C6.18066 9.73715 7.74396 8.94533 9.13204 8.60793C9.73014 8.46243 10.2958 8.40151 10.8242 8.40151C13.5806 8.40151 15.3161 10.0624 15.3161 10.0624L15.4192 10.4656C15.4192 10.4656 15.5723 9.32365 16.1391 7.80764C17.2335 4.88173 19.8699 0.561371 25.9261 0.361904C26.06 0.357357 26.1937 0.355225 26.3238 0.355225C35.1249 0.355225 35.1234 10.2652 35.1234 10.2652C35.1234 10.2652 38.0187 7.59272 40.4359 7.59272C40.8391 7.59272 41.2286 7.66699 41.5894 7.84039C44.063 9.0287 41.9804 14.5853 41.8955 14.8066C43.2848 12.8192 45.5202 11.8691 47.962 11.8691C49.2143 11.8691 50.5211 12.1192 51.7961 12.6073C53.1072 13.1093 54.2645 13.6998 55.4143 14.6929C55.4325 14.7087 55.5691 14.8673 55.5884 14.9033C58.2248 19.8084 53.5422 30.0727 53.5422 30.0727C55.3792 31.7822 56.2705 33.5134 54.1485 36.1265C53.5089 36.915 52.828 37.1905 52.1887 37.1905C50.7072 37.1905 49.4498 35.7112 49.4498 35.7112C49.4498 35.7112 48.3888 41.5466 45.3241 42.6076C44.8512 42.771 44.4528 42.8407 44.1157 42.8407C43.3837 42.8407 42.9402 42.5115 42.6473 42.0984C44.7784 37.8662 45.2574 33.5134 45.318 32.8768C44.9936 35.4808 43.4931 38.1575 41.8925 38.4576C41.8204 38.4713 41.7494 38.4776 41.6791 38.4776C40.3177 38.4776 39.3528 36.0425 39.1885 35.596C39.8948 37.9147 41.0467 41.2102 37.4454 43.7111C36.4002 44.4368 35.3768 44.6954 34.4489 44.6954C32.1474 44.6954 30.4338 43.1048 30.4338 43.1048C30.4338 43.1048 30.9794 45.733 27.7449 45.733ZM29.3461 36.8477C29.3461 36.8477 30.4553 39.8584 33.3421 39.8584C33.9357 39.8584 34.6041 39.7311 35.3537 39.4247C39.7499 37.6258 38.2851 33.2278 38.2851 33.2278C38.2851 33.2278 38.0578 36.6873 34.5959 37.922C33.8656 38.1827 33.2096 38.2854 32.6294 38.2854C30.4592 38.2854 29.3461 36.8477 29.3461 36.8477ZM45.569 24.4365C44.642 24.4365 43.9933 24.5522 43.9933 24.5522C43.9933 24.5522 48.692 25.9288 49.0709 29.6453C49.4498 33.3615 47.252 35.7112 47.252 35.7112C47.252 35.7112 53.1633 31.8458 51.496 27.6779C50.3847 24.8996 47.4218 24.4365 45.569 24.4365ZM20.6829 27.6021C20.6829 27.6021 19.2873 31.3914 23.0765 32.9071C23.6389 33.1317 24.1924 33.2278 24.7274 33.2278C27.797 33.2278 30.254 30.074 30.254 30.074C30.254 30.074 27.1238 32.0971 24.6171 32.0971C24.1197 32.0971 23.647 32.0174 23.2281 31.8267C20.6972 30.6742 22.0155 26.0767 22.0155 26.0767C22.0155 26.0767 19.1366 26.8137 16.2686 26.8137C14.8344 26.8137 13.4033 26.6297 12.3353 26.0767C12.3353 26.0767 13.9244 28.5152 17.1165 28.5152C18.1402 28.5152 19.3288 28.2645 20.6829 27.6021ZM30.3519 21.918C30.3519 21.918 30.2003 18.5837 33.3833 18.0529C33.5955 18.0177 33.808 18.0011 34.0199 18.0011C36.9862 18.0011 39.8251 21.2362 39.8251 21.2362C39.8251 21.2362 38.9914 16.3859 34.2928 16.1583C34.1227 16.1501 33.9584 16.1462 33.8008 16.1462C29.6044 16.1462 29.7456 18.9544 29.7456 18.9544C29.7456 18.9544 28.3591 14.6956 25.1573 14.6956C25.0958 14.6956 25.0342 14.6971 24.9712 14.7005C21.6366 14.8702 19.8936 18.8108 21.0303 21.2362C21.0303 21.2362 20.8788 17.8259 24.8954 17.674C24.9633 17.6716 25.0309 17.6703 25.0973 17.6703C28.9605 17.6703 30.3519 21.918 30.3519 21.918ZM9.50006 9.98935C8.4227 9.98935 7.30442 10.2331 6.22342 10.8703C1.62507 13.5807 3.91833 20.1594 3.91833 20.1594C3.94713 13.1993 7.86491 11.6963 11.2458 11.6963C13.8183 11.6963 16.08 12.567 16.08 12.567C16.08 12.567 13.0044 9.98935 9.50006 9.98935ZM48.5419 13.0186C46.2283 13.0186 44.4528 14.16 43.266 15.301C42.0789 16.4423 41.4811 17.5833 41.5227 17.5833C41.5278 17.5833 41.543 17.5658 41.5681 17.5279C43.4716 14.6753 46.4836 13.966 49.0106 13.966C51.5142 13.966 53.5422 14.6629 53.5422 14.6629C51.6703 13.4715 49.9994 13.0186 48.5419 13.0186ZM16.8561 13.0026C16.7864 13.2666 16.753 13.4512 16.7439 13.5061C16.7591 13.4546 16.8046 13.2696 16.8561 13.0026ZM16.1113 9.28577C17.4505 9.28577 17.0968 11.8112 16.8652 12.9632C17.1774 11.8115 18.1475 9.28637 20.6817 9.28637C23.9647 9.28637 24.2891 12.5661 24.2891 12.5661C24.2891 12.5661 24.1375 6.07913 28.0117 5.98819C28.0484 5.98728 28.0844 5.98698 28.1208 5.98698C31.9252 5.98698 33.9896 10.6717 33.9896 10.6717C33.7501 9.24696 33.3864 7.71579 32.8043 6.31224C31.6654 3.56063 29.6768 1.30558 26.0964 1.30558C25.7402 1.30558 25.3686 1.32801 24.9803 1.37439C18.7962 2.11375 16.1619 9.06507 16.0831 9.2803L16.08 9.28637C16.0907 9.28607 16.101 9.28577 16.1113 9.28577ZM45.9334 45.5299C47.4612 45.1358 48.7071 44.1961 49.5711 43.0772L49.5771 43.0681C49.803 42.7753 50.0027 42.4703 50.1746 42.1596C49.3443 43.6632 47.8647 45.0334 45.9334 45.5299ZM42.7977 45.3126C42.2047 45.071 41.6955 44.7427 41.2832 44.4174C41.3196 44.4447 41.3559 44.475 41.3954 44.502C41.7861 44.7994 42.2569 45.0919 42.7977 45.3126ZM38.2427 44.9928C38.2436 44.9918 38.2445 44.9909 38.2457 44.99L38.2851 44.9597L38.2427 44.9928ZM38.3509 44.9057C38.45 44.8218 38.5446 44.7381 38.6368 44.6566L38.6489 44.6478C38.7101 44.5941 38.7692 44.5414 38.8265 44.4892C38.6804 44.6223 38.5216 44.7618 38.3509 44.9057ZM41.2832 44.4174C40.8012 44.0385 40.4526 43.6656 40.2586 43.4352L40.2859 43.4655C40.3192 43.5049 40.3556 43.5471 40.398 43.5928C40.4314 43.6292 40.4677 43.6686 40.5071 43.708C40.5344 43.7384 40.5647 43.7687 40.5951 43.8017C40.6375 43.8414 40.6769 43.8839 40.7224 43.926C40.7648 43.9657 40.8073 44.0082 40.8527 44.0503C40.8952 44.087 40.9376 44.1261 40.9831 44.1658C41.0558 44.2291 41.1316 44.2931 41.2135 44.3595L41.2832 44.4174ZM39.0227 44.3077C39.0597 44.2731 39.0957 44.2388 39.1309 44.2049L39.1388 44.1976C39.1012 44.2337 39.0627 44.2704 39.0227 44.3077ZM39.2145 44.1246C39.2503 44.0888 39.2858 44.0536 39.32 44.0209C39.2861 44.0545 39.2509 44.0891 39.2145 44.1246ZM39.3952 43.9457C39.4331 43.9063 39.4695 43.8696 39.5044 43.8347C39.4695 43.8705 39.4331 43.9075 39.3952 43.9457ZM39.5398 43.7984L39.5886 43.7441C39.6189 43.7171 39.6462 43.6868 39.6705 43.6595L39.7281 43.5986C39.7378 43.588 39.7475 43.5777 39.7572 43.5677C39.6938 43.6365 39.6214 43.7138 39.5398 43.7984ZM39.8148 43.5043C39.8172 43.5013 39.8196 43.4986 39.822 43.4955L39.8797 43.4289L39.91 43.3955C40.0018 43.2933 40.0573 43.2251 40.0706 43.2088C40.0536 43.2297 39.9676 43.3355 39.8148 43.5043ZM40.2528 43.4282C40.2155 43.3843 40.184 43.3458 40.1582 43.314C40.1816 43.3403 40.2083 43.3728 40.2404 43.411L40.2528 43.4282ZM40.1552 43.31C40.1361 43.2867 40.1206 43.2667 40.1082 43.2506C40.12 43.2658 40.1349 43.2839 40.1525 43.3049L40.1552 43.31ZM55.7324 39.1491C57.0405 38.8584 58.1936 38.0293 58.5653 36.1326C58.1936 38.0296 57.0405 38.8587 55.7324 39.1491ZM58.5653 36.1326C58.9818 34.0033 58.6226 32.7701 58.0587 32.0571C58.6235 32.7701 58.9824 34.0027 58.5653 36.1326Z" fill="#F7FFFE"/>
<path d="M3.91852 20.1597C3.91852 20.1597 1.62526 13.5809 6.22361 10.8705C7.30461 10.2333 8.42289 9.9896 9.50025 9.9896C13.0046 9.9896 16.0802 12.5672 16.0802 12.5672C16.0802 12.5672 13.8185 11.6966 11.246 11.6966C7.86511 11.6966 3.94732 13.1995 3.91852 20.1597Z" fill="#AAC5C1"/>
<path d="M30.3514 21.9182C30.3514 21.9182 28.96 17.6706 25.0967 17.6706C25.0303 17.6706 24.9627 17.6718 24.8948 17.6742C20.8782 17.8261 21.0298 21.2364 21.0298 21.2364C19.893 18.811 21.6361 14.8705 24.9706 14.7007C25.0337 14.6974 25.0952 14.6959 25.1568 14.6959C28.3585 14.6959 29.7451 18.9547 29.7451 18.9547C29.7451 18.9547 29.6038 16.1464 33.8002 16.1464C33.9578 16.1464 34.1222 16.1503 34.2922 16.1585C38.9909 16.3862 39.8245 21.2364 39.8245 21.2364C39.8245 21.2364 36.9856 18.0013 34.0194 18.0013C33.8075 18.0013 33.595 18.018 33.3828 18.0532C30.1998 18.584 30.3514 21.9182 30.3514 21.9182Z" fill="#DBF7F3"/>
<path d="M47.2519 35.7114C47.2519 35.7114 49.4497 33.3618 49.0708 29.6456C48.6919 25.9291 43.9932 24.5525 43.9932 24.5525C43.9932 24.5525 44.6419 24.4367 45.5689 24.4367C47.4217 24.4367 50.3846 24.8999 51.4959 27.6782C53.1632 31.8461 47.2519 35.7114 47.2519 35.7114Z" fill="#DBF7F3"/>
<path d="M41.5235 17.5837C41.482 17.5837 42.0798 16.4427 43.2669 15.3014C44.4537 14.1604 46.2292 13.019 48.5427 13.019C50.0003 13.019 51.6712 13.4719 53.5431 14.6633C53.5431 14.6633 51.515 13.9664 49.0114 13.9664C46.4844 13.9664 43.4724 14.6757 41.569 17.5283C41.5438 17.5662 41.5287 17.5837 41.5235 17.5837Z" fill="white"/>
<path d="M16.8652 12.9634C17.0968 11.8114 17.4506 9.28597 16.1113 9.28597C16.101 9.28597 16.0907 9.28628 16.0801 9.28658L16.0831 9.28051C16.1619 9.06528 18.7962 2.11396 24.9803 1.3746C25.3686 1.32822 25.7403 1.30578 26.0965 1.30578C29.6769 1.30578 31.6655 3.56084 32.8044 6.31245C33.3864 7.71599 33.7502 9.24716 33.9896 10.6719C33.9896 10.6719 31.9253 5.98718 28.1208 5.98718C28.0845 5.98718 28.0484 5.98749 28.0117 5.9884C24.1376 6.07934 24.2891 12.5663 24.2891 12.5663C24.2891 12.5663 23.9648 9.28658 20.6818 9.28658C18.1475 9.28658 17.1774 11.8117 16.8652 12.9634ZM26.0965 1.30578C25.7403 1.30578 25.3686 1.32822 24.9803 1.3746C18.7962 2.11396 16.1619 9.06528 16.0831 9.28051C16.2347 9.05588 20.2877 3.07491 25.0349 2.74449C25.1889 2.73388 25.3419 2.72873 25.495 2.72873C28.3312 2.72873 30.9925 4.52089 32.8044 6.31245C31.6655 3.56084 29.6769 1.30578 26.0965 1.30578Z" fill="#DBF7F3"/>
<path d="M16.083 9.28052C16.1618 9.06529 18.7961 2.11397 24.9802 1.3746C25.3685 1.32822 25.7402 1.30579 26.0964 1.30579C29.6768 1.30579 31.6654 3.56085 32.8043 6.31246C30.9924 4.52089 28.3311 2.72873 25.4949 2.72873C25.3418 2.72873 25.1888 2.73389 25.0348 2.7445C20.2876 3.07492 16.2346 9.05589 16.083 9.28052Z" fill="white"/>
<path d="M3.34668 33.2281C3.34668 33.2281 4.23125 38.3639 9.43527 37.3029C9.43527 37.3029 5.69511 36.8327 3.34668 33.2281Z" fill="#C1D8D5"/>
<path d="M49.5722 43.0774C48.7082 44.1962 47.4623 45.1357 45.9345 45.5301C43.9974 46.0303 42.4211 45.2815 41.3965 44.5024C42.8243 44.6752 47.0743 44.9935 49.5722 43.0774Z" fill="#C1D8D5"/>
<path d="M58.5653 36.1326C58.0167 38.9333 55.7643 39.4062 53.8242 39.2547C58.5896 38.1212 57.6923 32.9042 56.9163 31.2427C57.8863 31.5916 59.2383 32.692 58.5653 36.1326Z" fill="#C1D8D5"/>
<path d="M34.5957 26.6425C34.5957 26.6425 37.7787 28.4107 39.8249 25.6824C39.8249 25.6824 40.7413 26.9489 41.5204 26.794C42.2994 26.6382 41.5204 24.1161 41.5204 24.1161C41.5204 24.1161 43.5059 26.9598 41.8208 27.6022C40.7598 28.0066 39.8249 26.5918 39.8249 26.5918C39.8249 26.5918 39.4966 28.0066 37.7559 28.0066C35.202 28.0066 34.5957 26.6425 34.5957 26.6425Z" fill="#C1D8D5"/>
</svg>
