<svg width="15" height="13" viewBox="0 0 15 13" fill="none" xmlns="http://www.w3.org/2000/svg">
<path d="M5.25348 7.16183L2.86624 6.59344C2.67678 6.36609 2.29785 5.8659 2.29785 5.68402C2.29785 5.50213 2.90413 5.15352 3.20727 5.00195L5.02612 5.57034L6.04922 6.59344L5.25348 7.16183Z" fill="#C1D8D5"/>
<path d="M6.95865 6.36609C6.84497 6.13873 7.186 4.88827 7.29968 4.7746C7.60282 4.69881 8.23184 4.56998 8.32278 4.66092C8.43646 4.7746 9.91427 5.34299 10.5963 5.57034C11.142 5.75223 11.5058 6.02505 11.6194 6.13873C11.3163 6.40398 10.6645 6.95721 10.4827 7.04815C10.2553 7.16183 8.32278 7.27551 8.2091 7.27551C8.09543 7.27551 7.07232 6.59344 6.95865 6.36609Z" fill="#C1D8D5"/>
<path d="M8.89117 9.20803C8.80023 9.20803 8.39857 8.52597 8.2091 8.18493L11.2784 7.50286L11.6194 8.07125L10.1416 9.20803H8.89117Z" fill="#C1D8D5"/>
<path d="M12.6431 6.59344C15.939 16.2561 6.29434 13.3004 6.95934 7.61655C5.93524 16.3697 -4.40931 9.43539 2.2984 7.27551L6.9592 5.00195L12.6431 6.59344Z" fill="#C1D8D5"/>
<path d="M8.81046 11.1653C8.68284 11.1653 8.55219 11.1538 8.42002 11.1295C7.13167 10.89 7.11651 8.14053 7.12863 7.55881C7.05891 8.88657 4.28517 9.49861 2.73612 9.53529C2.70611 9.5359 2.67671 9.5362 2.64731 9.5362C1.59602 9.5362 0.836948 9.06815 0.453475 8.52249C0.789961 7.75858 2.32385 7.37692 2.32385 7.37692C2.32385 7.37692 0.486814 4.34522 1.90248 3.23299C2.12135 3.06142 2.34446 2.98866 2.56454 2.98866C3.7674 2.98866 4.89146 5.15459 4.89146 5.15459C4.89146 5.15459 5.52805 -3.8147e-06 7.79797 -3.8147e-06C7.8204 -3.8147e-06 7.84254 0.000293732 7.86527 0.00150681C10.1873 0.101543 9.38098 3.03261 9.38098 3.03261C9.38098 3.03261 10.2267 2.82072 11.2574 2.73553C12.1244 2.82678 13.055 2.99957 13.4976 3.58736C14.1797 4.49709 13.0338 5.25494 13.0338 5.25494C13.0338 5.25494 13.437 5.15279 13.8759 5.15279C14.2524 5.15279 14.6553 5.22796 14.8527 5.50655C14.5092 6.56027 13.4252 6.68091 12.9465 6.68091C12.8044 6.68091 12.7155 6.6703 12.7155 6.6703C12.7155 6.6703 13.7432 9.28339 13.0338 11.1177C13.0011 11.1204 12.969 11.1219 12.9374 11.1219C11.9398 11.1216 11.5666 9.72597 11.5666 9.72597C11.5481 9.73385 11.5278 9.73749 11.5054 9.73749C11.2038 9.73749 10.5784 9.08058 10.5784 9.08058C11.0628 10.0443 10.0746 11.1653 8.81046 11.1653ZM8.79228 8.17267C8.79804 8.26967 9.01993 9.08544 9.69836 9.08544C9.81416 9.08544 9.9433 9.06148 10.0873 9.00631C11.0725 8.62738 11.1862 7.75585 11.1862 7.75585C11.1862 7.75585 10.7148 8.59556 9.90511 8.59556C9.8654 8.59556 9.82538 8.59343 9.78415 8.58919C8.90049 8.49946 8.79228 8.17267 8.79228 8.17267ZM7.13167 7.45241C7.13167 7.45241 7.12863 7.49181 7.12863 7.55881C7.13469 7.52546 7.1347 7.48909 7.13167 7.45241ZM7.64368 4.99393C7.59911 5.47472 7.61427 6.54844 8.60948 6.69486C8.78348 6.72032 8.95294 6.73153 9.11542 6.73153C10.1558 6.73153 10.9209 6.27774 10.9209 6.27774C10.9209 6.27774 10.5017 6.38566 9.93936 6.38566C9.50132 6.38566 8.97689 6.32018 8.4958 6.08828C7.76826 5.73724 7.64428 5.26979 7.64368 4.99393C7.65671 4.85237 7.6752 4.76203 7.6752 4.76203C7.6752 4.76203 7.64337 4.85297 7.64368 4.99393ZM4.03569 5.97429C4.42674 5.97429 4.89903 6.14556 5.38861 6.69486C5.38861 6.69486 5.27493 5.78544 4.02447 5.51989C3.89897 5.49351 3.78832 5.48139 3.69162 5.48139C2.85829 5.48139 3.02411 6.36807 3.03836 6.43719C3.03836 6.4387 3.03866 6.44022 3.03926 6.44143C3.03926 6.44143 3.03897 6.43991 3.03836 6.43719C3.03533 6.36928 3.44214 5.97429 4.03569 5.97429ZM9.13998 2.29931C9.13998 2.29931 9.07298 0.508352 7.92741 0.215215C7.86072 0.197935 7.79525 0.190052 7.73068 0.190052C6.68454 0.190052 5.9191 2.29931 5.9191 2.29931C5.9191 2.29931 6.75851 0.783604 7.67005 0.783604C7.67157 0.783604 7.67338 0.783604 7.6752 0.783604C8.58887 0.789061 9.13998 2.29931 9.13998 2.29931Z" fill="#F7FFFE"/>
<path d="M9.13982 2.29932C9.13982 2.29932 8.58871 0.789068 7.67505 0.783611C7.67323 0.783611 7.67141 0.783611 7.6699 0.783611C6.75835 0.783611 5.91895 2.29932 5.91895 2.29932C5.91895 2.29932 6.68438 0.190058 7.73052 0.190058C7.79509 0.190058 7.86056 0.197942 7.92725 0.215222C9.07282 0.508359 9.13982 2.29932 9.13982 2.29932Z" fill="#DBF7F3"/>
<path d="M14.8531 5.50659C14.6557 5.22801 14.2528 5.15283 13.8763 5.15283C13.4374 5.15283 13.0342 5.25498 13.0342 5.25498C13.0342 5.25498 14.1801 4.49713 13.498 3.5874C13.0554 2.99961 12.1248 2.82682 11.2578 2.73557C11.5112 2.71526 11.7759 2.70254 12.042 2.70254C13.3941 2.70254 14.7861 3.03084 14.9379 4.34526C14.9549 4.49501 14.9631 4.63506 14.9631 4.76601C14.9634 5.054 14.924 5.29803 14.8531 5.50659Z" fill="#DBF7F3"/>
</svg>
