<svg width="345" height="466" viewBox="0 0 345 466" fill="none" xmlns="http://www.w3.org/2000/svg">
<g clip-path="url(#clip0)">
<path fill-rule="evenodd" clip-rule="evenodd" d="M140.537 162.639C141.559 168.063 153.301 195.702 153.301 195.702C153.301 195.702 131.153 199.653 126.613 202.58C127.05 192.388 126.613 176.56 131.254 166.699C134.735 165.539 137.359 163.522 140.537 162.639ZM195.654 200.922C195.654 200.922 179.409 198.022 171.287 196.862C171.349 189.232 174.188 170.76 175.348 163.219C180.57 166.699 182.89 167.859 186.371 170.18C189.272 175.98 191.76 185.349 195.654 200.922Z" fill="#568CB4"/>
<path d="M140.537 162.639L175.348 163.219L177.089 172.5L139.377 169.02L140.537 162.639Z" fill="#4C7B9E"/>
<path fill-rule="evenodd" clip-rule="evenodd" d="M217.701 47.2083C215.38 52.6777 199.556 57.9575 188.692 59.0444C168.199 61.0943 147.776 55.8185 127.193 55.7619C125.576 67.7504 121.399 79.4965 121.399 91.7251C121.399 122.981 140.631 155.58 174.768 158.579C174.768 166.119 172.443 184.787 174.768 194.542L135.895 196.862L141.117 163.652C142.935 159.895 143.601 156.088 144.598 152.051C131.631 145.883 117.716 131.571 114.429 117.248C99.8104 116.895 86.5033 96.6714 92.0823 82.4617C99.4669 63.6543 108.367 81.5301 109.787 89.4049L112.688 99.2658C116.169 87.6646 117.527 79.6206 119.738 67.3629C120.736 61.8265 120.564 54.6188 124.375 50.134C129.432 44.1856 137.15 48.5601 143.438 49.5286C161.558 52.3196 178.4 55.5104 196.815 52.4287C202.329 51.5059 214.8 48.3684 217.701 47.2083Z" fill="#EABB95"/>
<path d="M217.928 51.7687C218.795 26.0666 137.197 -40.1968 113.382 78.274C88.3555 177.87 232.459 183.091 217.928 99.9602C216.779 95.4623 217.449 65.9585 217.928 51.7687Z" fill="#EABB95"/>
<path fill-rule="evenodd" clip-rule="evenodd" d="M236.847 18.2058C231.702 33.3249 212.288 35.6231 198.555 34.2494C166.457 31.0385 146.074 3.18824 112.108 17.0457C117.954 5.05905 135.386 1.11715 147.499 0.821179C177.933 0.0776979 205.639 18.2058 236.847 18.2058Z" fill="#AA3C28"/>
<path fill-rule="evenodd" clip-rule="evenodd" d="M228.725 28.6467C198.184 51.5037 220.022 39.0876 191.593 39.0876C181.309 36.3922 121.408 15.2859 111.528 17.6257C131.855 -2.89333 161.442 21.4426 181.15 29.285C198.666 36.2549 211.572 34.4938 228.725 28.6467Z" fill="#B9614E"/>
<path fill-rule="evenodd" clip-rule="evenodd" d="M109.207 21.106C121.391 44.8881 169.106 50.8086 193.333 51.8487L190.433 54.1689C177.129 54.1689 164.116 53.6794 150.98 51.3116C142.771 49.8317 132.621 46.532 124.292 47.7884C124.292 43.6832 119.256 44.2236 116.169 42.1813C111.364 39.0009 110.898 32.9583 106.886 29.8068C108.824 27.2737 107.949 23.983 109.207 21.106Z" fill="#B9614E"/>
<path fill-rule="evenodd" clip-rule="evenodd" d="M222.343 33.2871C231.626 30.9669 232.206 32.127 236.267 32.127C219.242 44.319 224.668 67.8268 218.281 86.6518H217.121C215.18 74.5914 218.251 60.0205 217.701 47.2083C191.823 57.7515 160.419 53.6413 134.735 43.0979C128.984 40.7369 101.271 27.4915 110.948 18.2057C119.534 9.96492 140.571 15.2332 149.82 19.1931C169.928 27.8024 187.135 39.781 210.159 37.8182C215.472 37.3652 217.701 35.6072 222.343 33.2871Z" fill="#AA3C28"/>
<path fill-rule="evenodd" clip-rule="evenodd" d="M108.047 28.0667C110.696 36.9817 120.075 44.7701 128.933 46.6283C120.229 65.0284 115.869 84.7516 113.268 105.213H110.368C109.988 96.4866 108.95 75.5149 98.7638 73.8907C96.775 59.1228 87.1602 30.9669 108.047 28.0667Z" fill="#AA3C28"/>
<path fill-rule="evenodd" clip-rule="evenodd" d="M162.021 76.359C162.021 76.359 162.909 78.846 158.848 78.1837C155.083 77.6812 151.028 76.2161 147.244 77.0688C141.166 78.4388 136.804 81.9428 130.733 82.7462C130.069 82.8339 128.608 82.9064 128.879 81.7463C131.825 69.0606 158.376 63.0055 162.021 76.359Z" fill="#AA3C28"/>
<path fill-rule="evenodd" clip-rule="evenodd" d="M210.556 80.3505C210.725 82.094 208.793 82.2258 207.974 81.9905C200.873 78.0151 199.933 76.1701 190.25 76.86C187.93 77.44 183.895 76.9812 185.187 74.0619C192.729 65.9412 209.554 70.0016 210.556 80.3505Z" fill="#AA3C28"/>
<path fill-rule="evenodd" clip-rule="evenodd" d="M181.854 120.271C181.854 120.271 181.224 120.797 180.646 120.745C180.008 120.688 179.698 118.331 179.698 118.331C177.429 111.139 165.346 109.475 161.525 119.615C160.266 120.668 161.896 121.978 160.421 118.934C159.145 107.172 184.778 107.138 181.854 120.271Z" fill="#DAAA85"/>
<path d="M154.677 133.265C154.677 133.265 154.488 133.429 154.677 133.594C164.386 142.114 181.817 141.138 188.534 133.594C188.717 133.389 188.534 133.265 188.534 133.265C188.534 133.265 188.321 133.092 188.07 133.265C173.443 141.003 162.409 135.946 155.14 133.265C154.885 133.171 154.677 133.265 154.677 133.265Z" fill="#CD6975"/>
<path d="M248.436 290.25C230.798 287.002 207.838 245.006 207.838 236.306L246.695 231.665C254.624 252.547 266.073 293.499 248.436 290.25Z" fill="#DAAA85"/>
<path d="M232.206 281.55C232.206 281.55 230.975 289.26 232.206 289.67C233.946 290.25 236.847 280.389 236.847 280.389L232.206 281.55Z" fill="#4C7B9E"/>
<path fill-rule="evenodd" clip-rule="evenodd" d="M207.838 184.681C220.739 190.588 241.034 212.88 244.483 227.025C245.789 232.381 244.106 238.976 243.706 244.426C242.975 254.397 244.325 266.047 242.196 275.747C241.265 279.992 238.418 285.14 233.371 282.654C233.371 282.654 217.892 262.955 217.121 254.867C215.524 238.093 220.376 197.095 207.838 184.681Z" fill="#568CB4"/>
<path d="M232.206 289.67C232.206 289.67 243.229 291.41 246.13 291.41C247.291 282.71 247.291 271.805 247.291 269.948C247.291 268.092 254.833 258.54 254.833 253.127C251.545 253.707 245.689 255.573 243.229 259.508C240.328 264.148 232.206 289.67 232.206 289.67Z" fill="#5DA4D8"/>
<path d="M85.4195 300.691C86.5799 300.111 87.7402 298.371 87.7402 298.371L44.8067 303.011L50.0283 305.912C50.0283 305.912 72.9978 306.9 85.4195 300.691Z" fill="#4C7B9E"/>
<path d="M90.061 287.35C90.061 287.35 91.8654 287.354 91.8016 287.93C91.2214 293.151 40.1653 296.051 40.1653 289.67C40.1653 288.854 41.3256 287.93 41.3256 287.93L90.061 287.35Z" fill="#4C7B9E"/>
<path d="M35.6236 254.537C56.2595 213.857 97.1726 180.804 116.472 176.18L97.9955 228.095C92.5499 243.396 79.2579 265.022 68.1145 272.257C59.2345 278.022 36.6723 296.674 31.9958 288.956C32.1432 281.62 31.6871 262.296 35.6236 254.537Z" fill="#EABB95"/>
<path d="M291.592 239.847C258.251 208.717 208.48 191.71 188.766 193.988L223.934 236.412C234.299 248.916 254.205 264.668 267.154 267.639C277.473 270.007 305.066 279.785 306.81 270.931C304.154 264.091 297.952 245.784 291.592 239.847Z" fill="#EABB95"/>
<path d="M86.5801 303.011L85.4197 299.531L47.1276 303.011L48.8682 307.072L86.5801 303.011Z" fill="#DAAA85"/>
<path fill-rule="evenodd" clip-rule="evenodd" d="M181.15 389.439C180.087 397.847 179.004 406.483 178.829 414.961C196.989 414.95 210.395 409.639 226.404 402.2L227.564 466.006H171.867C171.867 457.574 170.007 426.101 170.007 426.101L155.622 424.242C155.622 424.242 150.925 452.035 149.82 466.006H91.8017C91.8017 446.304 93.7163 426.523 94.1224 406.841C116.251 409.65 136.544 413.801 159.103 413.801L156.202 389.439C164.287 390.077 173.056 390.461 181.15 389.439Z" fill="#568CB4"/>
<path d="M124.292 388.271L124.872 377.25C139.377 375.896 182.808 376.912 185.129 380.625C187.449 384.337 188.416 390.977 188.03 395.231C178.747 398.944 136.476 394.458 124.292 388.271Z" fill="#4C7B9E"/>
<path fill-rule="evenodd" clip-rule="evenodd" d="M174.187 185.841C184.021 238.8 188.691 337.174 188.691 390.599H153.88C149.783 338.696 140.973 237.826 141.117 185.841C148.66 195.122 166.064 195.702 174.187 185.841Z" fill="white"/>
<path d="M226.404 406.735V402.675C211.899 401.321 182.31 399.542 179.989 403.255C177.669 406.967 176.702 413.607 177.088 417.862C186.371 421.574 214.22 412.922 226.404 406.735Z" fill="#4C7B9E"/>
<path d="M94.1224 409.741L94.7026 398.72C109.207 397.366 152.638 398.382 154.959 402.095C157.28 405.807 158.247 412.447 157.86 416.701C148.577 420.414 106.306 415.928 94.1224 409.741Z" fill="#4C7B9E"/>
<path fill-rule="evenodd" clip-rule="evenodd" d="M210.159 185.841C217.014 190.333 219.881 209.769 221.182 217.164C224.456 235.763 225.216 254.51 225.574 273.429C226.163 304.386 231.034 338.131 231.045 369.137C231.049 378.519 231.045 402.78 231.045 402.78C215.38 410.321 197.975 416.701 178.829 414.961C179.002 394.076 182.939 373.257 183.453 352.316C184.168 323.175 177.688 265.303 177.669 236.306C177.567 231.191 172.486 203.134 173.027 198.022L174.188 170.76C183.47 174.82 203.49 181.908 210.159 185.841Z" fill="#5DA4D8"/>
<path fill-rule="evenodd" clip-rule="evenodd" d="M152.721 198.022C152.721 238.246 152.749 315.653 154.507 355.795C155.357 375.198 159.103 394.356 159.103 413.801C136.564 413.801 112.117 410.996 90.061 406.841C90.061 406.841 90.9545 380.608 92.7646 361.597C94.2163 346.355 96.0508 330.492 96.4256 315.192C96.6275 306.946 96.4256 300.111 96.4256 288.51C96.4256 276.909 92.7646 216.004 92.7646 216.004C86.7655 202.082 98.7637 193.962 98.7637 180.041C100.888 179.241 135.315 166.699 143.438 171.92C145.759 181.201 145.759 180.041 148.659 188.161C151.56 194.252 151.56 194.542 152.721 198.022Z" fill="#5DA4D8"/>
<path fill-rule="evenodd" clip-rule="evenodd" d="M152.721 198.022C152.721 238.246 152.749 315.653 154.507 355.795C155.357 375.198 159.103 394.356 159.103 413.801C136.564 413.801 112.117 410.996 90.061 406.841C90.061 406.841 90.9545 380.608 92.7646 361.597C94.2163 346.355 96.0508 330.492 96.4256 315.192C96.6275 306.946 96.4256 300.111 96.4256 288.51C96.4256 276.909 92.7646 216.004 92.7646 216.004C86.7655 202.082 98.7637 193.962 98.7637 180.041C100.888 179.241 135.315 166.699 143.438 171.92C145.759 181.201 145.759 180.041 148.659 188.161C151.56 194.252 151.56 194.542 152.721 198.022Z" fill="#5DA4D8"/>
<path d="M171.287 196.862L173.027 199.762C173.027 199.762 195.807 203.224 195.654 202.663C195.371 201.624 193.914 199.182 193.914 199.182C187.73 195.568 171.287 196.862 171.287 196.862Z" fill="#4C7B9E"/>
<path d="M152.721 198.602L153.301 195.702C153.301 195.702 129.514 196.282 125.452 204.403C125.192 204.922 152.721 198.602 152.721 198.602Z" fill="#4C7B9E"/>
<path d="M127.193 185.261C127.773 181.781 133.575 197.953 125.452 204.403C125.452 195.702 127.098 185.834 127.193 185.261Z" fill="#4C7B9E"/>
<path fill-rule="evenodd" clip-rule="evenodd" d="M45.9674 303.011C35.1678 292.834 45.6042 255.432 50.5241 244.426C59.546 224.238 69.1515 189.486 92.9622 181.435C111.935 175.02 110.368 206.723 103.405 220.644C96.4433 238.046 96.4433 253.127 92.9622 267.628C91.4293 274.013 90.7006 291.25 86.5801 297.791C86.5801 297.791 78.4576 298.661 69.7548 299.531C63.953 300.111 52.9295 302.431 45.9674 303.011Z" fill="#568CB4"/>
<path d="M91.8018 287.93L87.7405 298.371C85.9999 301.271 46.5475 303.011 44.807 303.011C43.4145 303.011 40.9395 292.571 40.1655 289.67C42.0221 290.598 76.717 290.83 91.8018 287.93Z" fill="#5DA4D8"/>
<path d="M186.371 272.269C184.769 272.269 183.47 270.97 183.47 269.368C183.47 267.767 184.769 266.468 186.371 266.468C187.973 266.468 189.272 267.767 189.272 269.368C189.272 270.97 187.973 272.269 186.371 272.269Z" fill="white"/>
<path d="M187.532 401.04C185.93 401.04 184.631 399.742 184.631 398.14C184.631 396.538 185.93 395.24 187.532 395.24C189.134 395.24 190.433 396.538 190.433 398.14C190.433 399.742 189.134 401.04 187.532 401.04Z" fill="white"/>
<path d="M188.692 368.557C187.09 368.557 185.791 367.259 185.791 365.657C185.791 364.055 187.09 362.757 188.692 362.757C190.294 362.757 191.593 364.055 191.593 365.657C191.593 367.259 190.294 368.557 188.692 368.557Z" fill="white"/>
<path d="M188.692 333.754C187.09 333.754 185.791 332.456 185.791 330.854C185.791 329.252 187.09 327.954 188.692 327.954C190.294 327.954 191.593 329.252 191.593 330.854C191.593 332.456 190.294 333.754 188.692 333.754Z" fill="white"/>
<path d="M187.532 301.271C185.93 301.271 184.631 299.973 184.631 298.371C184.631 296.769 185.93 295.471 187.532 295.471C189.134 295.471 190.433 296.769 190.433 298.371C190.433 299.973 189.134 301.271 187.532 301.271Z" fill="white"/>
<path d="M185.211 243.266C183.609 243.266 182.31 241.968 182.31 240.366C182.31 238.764 183.609 237.466 185.211 237.466C186.813 237.466 188.112 238.764 188.112 240.366C188.112 241.968 186.813 243.266 185.211 243.266Z" fill="white"/>
<path d="M180.57 213.103C178.967 213.103 177.669 211.805 177.669 210.203C177.669 208.601 178.967 207.303 180.57 207.303C182.172 207.303 183.47 208.601 183.47 210.203C183.47 211.805 182.172 213.103 180.57 213.103Z" fill="white"/>
<path d="M160.192 96.6939C158.796 100.729 140.582 104.634 134.363 97.2386C140.325 99.2385 149.655 100.172 160.192 96.6939Z" fill="#643D1F"/>
<path d="M210.435 97.0105C209.257 101.024 193.267 104.705 187.695 97.2435C192.972 99.3126 201.2 100.357 210.435 97.0105Z" fill="#643D1F"/>
</g>
<path d="M296.87 272.388C296.87 322.972 266.92 366.658 223.556 387.137C206.718 395.089 187.858 399.543 167.943 399.543C162.236 399.543 156.617 399.177 151.107 398.468C87.8573 390.333 39.0154 336.986 39.0154 272.388C39.0154 213.021 80.2674 163.156 136.043 149.155C146.245 146.594 156.933 145.233 167.943 145.233C199.714 145.233 228.802 156.567 251.275 175.36C279.167 198.684 296.87 233.497 296.87 272.388Z" fill="#578A01"/>
<path d="M167.942 145.233C156.932 145.233 146.245 146.594 136.043 149.155C144.904 149.324 162.006 154.271 159.525 172.702C159.525 178.904 193.35 180.234 164.841 215.678C158.07 224.095 166.17 231.133 162.626 238.716C157.863 248.906 138.785 242.134 124.524 263.527C113.891 271.945 136.043 315.363 112.561 301.629C103.7 299.414 94.3964 341.06 126.296 328.655C146.233 320.68 142.246 325.997 144.018 350.807C144.018 361.441 179.905 343.342 151.107 398.468C156.617 399.177 162.236 399.543 167.942 399.543C187.858 399.543 206.718 395.089 223.556 387.137C205.834 379.606 221.108 366.314 219.336 362.327C217.564 358.339 207.692 339.025 233.514 334.415C258.324 329.984 246.805 325.111 235.729 324.407C232.246 323.696 229.196 324.407 228.197 314.92C227.311 306.502 230.855 294.983 212.247 304.287C179.019 314.034 196.988 291.083 194.968 284.35C181.677 240.045 230.078 257.848 222.88 241.817C213.133 220.108 227.311 218.336 219.336 209.475C200.551 177.93 237.058 172.702 251.275 175.36C228.802 156.567 199.714 145.233 167.942 145.233Z" fill="#6CC7E3"/>
<path d="M125.852 200.171C124.435 194.145 127.034 196.774 128.511 198.842C133.851 206.318 140.876 205.487 144.017 199.728C146.068 195.968 148.891 196.183 147.119 201.057C140.916 213.462 127.625 207.703 125.852 200.171Z" fill="black" stroke="black"/>
<path d="M219.453 200.345C220.87 194.319 218.271 196.948 216.794 199.016C211.454 206.492 204.429 205.662 201.287 199.902C199.237 196.142 196.414 196.357 198.186 201.231C204.389 213.636 217.68 207.877 219.453 200.345Z" fill="black" stroke="black"/>
<path d="M186.994 205.218C188.766 197.956 185.829 202.905 184.778 205.219C181.234 213.019 168.385 212.719 163.069 205.931C160.428 202.559 157.309 200.614 160.854 206.374C169.271 218.779 184.97 213.511 186.994 205.218Z" fill="black" stroke="black"/>
<path d="M171.929 268.843C155.98 245.362 148.005 277.261 171.929 285.679C193.639 279.477 191.424 244.919 171.929 268.843Z" fill="#FD6EA4"/>
<ellipse cx="128.954" cy="224.095" rx="11.0762" ry="10.6332" fill="#F1AAA6"/>
<ellipse cx="221.108" cy="222.323" rx="11.0762" ry="10.6332" fill="#F1AAA6"/>
<path fill-rule="evenodd" clip-rule="evenodd" d="M112.374 337.112C110.118 339.273 109.012 339.482 106.453 340.497C103.963 341.483 102.244 340.89 100.956 342.33C100.157 343.223 103.927 345.502 106.595 346.089C109.738 346.781 114.051 349.056 116.143 349.527C119.806 350.351 126.222 352.738 128.98 353.878C132.794 355.455 131.347 359.601 131.347 359.601C131.347 359.601 129.002 361.308 126.838 360.866C124.491 360.384 119.649 358.589 116.755 357.469C112.048 355.648 107.88 353.86 107.433 354.156C106.8 354.573 107.419 355.022 107.957 355.346C108.495 355.672 113.311 358.114 115.287 359.011C119.24 360.806 128.586 365.222 129.572 365.682C132.531 367.044 136.666 368.172 135.538 372.307C133.894 376.302 130.782 375.354 128.35 374.235C127.249 373.728 115.437 368.645 111.998 367.001C109.427 365.772 105.811 364.741 105.703 365.266C105.595 365.79 114.219 369.181 119.546 372.433C121.684 373.737 127.501 375.791 126.752 379.444C126.004 383.097 122.648 381.316 119.607 380.146C116.566 378.976 113.187 377.209 110.689 376.154C108.073 375.05 105.498 373.322 103.062 372.823C99.9988 371.754 102.408 373.342 102.408 373.342C102.408 373.342 112.538 378.05 113.697 380.576C114.527 382.387 113.965 383.836 112.944 384.25C111.923 384.666 105.214 381.953 104.051 381.335C102.89 380.72 98.8913 379.216 93.9808 377.108C86.7535 372.347 80.2359 369.449 77.4157 367.57C74.5969 365.691 73.1806 364.779 71.402 363.154C69.4364 361.357 67.641 358.823 66.7026 357.985C64.9179 356.387 63.9745 356.818 62.4969 356.124C56.7928 353.443 54.522 351.202 48.3193 347.263C34.5848 334.366 25.2811 322.452 23.0655 301.629C23.0654 287.894 22.1796 279.92 27.9392 267.071C29.9067 264.309 35.5649 249.752 38.5724 248.906C43.3832 247.552 33.7715 295.869 49.6484 314.921C58.5098 325.554 64.0513 330.992 74.3784 333.908C81.0801 335.801 81.7854 333.216 86.4843 332.275C89.1934 332.162 92.3337 332.204 94.8006 332.322C99.7337 332.555 100.707 332.396 103.916 331.474C106.994 330.588 112.091 325.927 114.253 328.183C116.413 330.438 114.346 335.221 112.374 337.112Z" fill="#EABB95"/>
<path fill-rule="evenodd" clip-rule="evenodd" d="M235.044 334.875C237.65 336.597 238.775 336.605 241.475 337.145C244.101 337.669 245.686 336.777 247.212 337.964C248.157 338.699 244.857 341.616 242.337 342.672C239.369 343.915 235.532 346.926 233.558 347.764C230.103 349.231 224.218 352.729 221.708 354.344C218.239 356.578 220.404 360.398 220.404 360.398C220.404 360.398 223.017 361.658 225.068 360.835C227.29 359.941 231.732 357.307 234.379 355.687C238.683 353.053 242.465 350.548 242.957 350.758C243.654 351.056 243.125 351.608 242.654 352.023C242.184 352.44 237.883 355.705 236.099 356.941C232.531 359.415 224.128 365.434 223.24 366.063C220.573 367.933 216.706 369.783 218.556 373.649C220.89 377.285 223.781 375.796 225.975 374.259C226.967 373.563 237.677 366.447 240.766 364.213C243.075 362.543 246.449 360.881 246.648 361.379C246.848 361.876 238.971 366.756 234.313 370.909C232.443 372.575 227.088 375.637 228.479 379.098C229.869 382.557 232.852 380.204 235.634 378.508C238.417 376.813 241.425 374.47 243.693 372.984C246.069 371.429 248.293 369.268 250.601 368.341C253.423 366.741 251.336 368.735 251.336 368.735C251.336 368.735 242.214 375.18 241.526 377.873C241.033 379.804 241.846 381.128 242.925 381.353C244.003 381.579 250.118 377.708 251.151 376.893C252.184 376.079 255.848 373.883 260.302 370.93C266.56 364.952 272.453 360.934 274.891 358.58C277.328 356.226 278.558 355.075 280.017 353.158C281.629 351.038 282.941 348.224 283.714 347.231C285.184 345.34 286.189 345.594 287.519 344.647C292.651 340.988 294.483 338.377 299.88 333.39C311.083 318.242 318.103 304.855 316.553 283.971C314.094 270.459 311.952 263.643 303.984 252.034C301.554 249.669 296.435 241.668 293.325 241.374C291.11 242.704 301.3 279.477 292.781 301.809C285.967 313.857 281.489 320.2 271.851 324.918C265.597 327.981 264.44 325.564 259.648 325.48C256.963 325.853 253.881 326.457 251.475 327.015C246.663 328.128 245.677 328.146 242.355 327.813C239.168 327.493 233.318 323.82 231.596 326.426C229.874 329.033 232.765 333.368 235.044 334.875Z" fill="#EABB95"/>
<defs>
<clipPath id="clip0">
<rect width="292.412" height="465.201" fill="white" transform="matrix(-1 0 0 1 314.592 0.79892)"/>
</clipPath>
</defs>
</svg>
